<svg width="48" height="48" viewBox="0 0 48 48" fill="none" xmlns="http://www.w3.org/2000/svg">
<g clip-path="url(#clip0_1_6182)">
<mask id="mask0_1_6182" style="mask-type:luminance" maskUnits="userSpaceOnUse" x="0" y="0" width="48" height="48">
<path d="M48 0H0V48H48V0Z" fill="white"/>
</mask>
<g mask="url(#mask0_1_6182)">
<path fill-rule="evenodd" clip-rule="evenodd" d="M43.3334 3.33337H40.6667L40.5883 4.66671H43.4118L43.3334 3.33337ZM43.4511 5.33337H40.5491L40.3929 7.98811L23.6667 11.3334V45H47.0001V6.66671L43.5699 7.35277L43.4511 5.33337Z" fill="#307CFE"/>
<mask id="mask1_1_6182" style="mask-type:alpha" maskUnits="userSpaceOnUse" x="23" y="3" width="25" height="42">
<path fill-rule="evenodd" clip-rule="evenodd" d="M43.3334 3.33337H40.6667L40.5883 4.66671H43.4118L43.3334 3.33337ZM43.4511 5.33337H40.5491L40.3929 7.98811L23.6667 11.3334V45H47.0001V6.66671L43.5699 7.35277L43.4511 5.33337Z" fill="black"/>
</mask>
<g mask="url(#mask1_1_6182)">
<path d="M40.6668 3.33339V3.00006H40.3525L40.3341 3.31382L40.6668 3.33339ZM43.3335 3.33339L43.6662 3.31382L43.6478 3.00006H43.3335V3.33339ZM40.5884 4.66673L40.2556 4.64715L40.2349 5.00006H40.5884V4.66673ZM43.4119 4.66673V5.00006H43.7654L43.7447 4.64715L43.4119 4.66673ZM43.4512 5.33339L43.7839 5.31382L43.7654 5.00006H43.4512V5.33339ZM40.5492 5.33339V5.00006H40.2349L40.2164 5.31382L40.5492 5.33339ZM40.393 7.98813L40.4584 8.31499L40.7107 8.26453L40.7258 8.00773L40.393 7.98813ZM23.6668 11.3334L23.6014 11.0065L23.3335 11.0601V11.3334H23.6668ZM23.6668 45.0001H23.3335V45.3334H23.6668V45.0001ZM47.0002 45.0001V45.3334H47.3335V45.0001H47.0002ZM47.0002 6.66673H47.3335V6.26013L46.9348 6.33987L47.0002 6.66673ZM43.57 7.35279L43.2372 7.37233L43.2597 7.75479L43.6353 7.67966L43.57 7.35279ZM40.6668 3.66673H43.3335V3.00006H40.6668V3.66673ZM40.9212 4.6863L40.9996 3.35297L40.3341 3.31382L40.2556 4.64715L40.9212 4.6863ZM40.5884 5.00006H43.4119V4.33339H40.5884V5.00006ZM43.0008 3.35297L43.0792 4.6863L43.7447 4.64715L43.6662 3.31382L43.0008 3.35297ZM43.4512 5.00006H40.5492V5.66673H43.4512V5.00006ZM40.7258 8.00773L40.882 5.35297L40.2164 5.31382L40.0602 7.96859L40.7258 8.00773ZM23.7322 11.6603L40.4584 8.31499L40.3276 7.66133L23.6014 11.0065L23.7322 11.6603ZM24.0002 45.0001V11.3334H23.3335V45.0001H24.0002ZM47.0002 44.6667H23.6668V45.3334H47.0002V44.6667ZM46.6668 6.66673V45.0001H47.3335V6.66673H46.6668ZM43.6353 7.67966L47.0656 6.99359L46.9348 6.33987L43.5046 7.02593L43.6353 7.67966ZM43.1184 5.35297L43.2372 7.37233L43.9027 7.33319L43.7839 5.31382L43.1184 5.35297Z" fill="black"/>
</g>
<path d="M39.154 2.53255C39.8468 2.93255 41.3156 3.01076 41.9634 2.99986C41.7194 2.08917 40.398 1.71118 39.9427 1.83319C39.4873 1.9552 38.4547 1.74388 38.166 1.57721C38.288 2.03255 40.0647 2.28853 39.6093 2.41054L39.154 2.53255Z" fill="#E4E4E4" stroke="black" stroke-width="0.5"/>
<path d="M34.4875 1.19924C35.1803 1.59924 36.6491 1.67745 37.2969 1.66655C37.0529 0.75586 35.7315 0.377871 35.2762 0.49988C34.8208 0.621888 33.7882 0.410563 33.4995 0.243896C33.6215 0.69924 35.3982 0.95522 34.9428 1.07723L34.4875 1.19924Z" fill="#E4E4E4" stroke="black" stroke-width="0.5"/>
<path d="M24 18.5H46.6667" stroke="black" stroke-width="0.5"/>
<path d="M26.0001 6.66669V44.6667H0.666748V11.2928L26.0001 6.66669Z" fill="white" stroke="black" stroke-width="0.5"/>
<path d="M5.81207 35.9392L5.81204 35.9391C4.5686 34.2035 3.66212 31.9289 3.51962 29.6595C3.3773 27.3931 3.9965 25.141 5.79176 23.4242C9.40375 19.9698 15.2629 19.9698 18.8749 23.4242C20.6702 25.141 21.2894 27.3931 21.1471 29.6595C21.0045 31.9289 20.0981 34.2035 18.8547 35.9391L18.8546 35.9392L13.0543 44.0402C12.7006 44.5342 11.9661 44.5342 11.6124 44.0402L5.81207 35.9392Z" fill="#307CFE" stroke="black" stroke-width="0.5"/>
<path d="M12.0001 35.1667C15.2217 35.1667 17.8334 32.555 17.8334 29.3333C17.8334 26.1117 15.2217 23.5 12.0001 23.5C8.77842 23.5 6.16675 26.1117 6.16675 29.3333C6.16675 32.555 8.77842 35.1667 12.0001 35.1667Z" fill="#FFC217" stroke="black" stroke-width="0.5"/>
<path d="M12.8769 27.3335V29.7891L12.8145 30.285H8.06247L8 29.7891V27.3335H12.8769Z" fill="#183E7F" stroke="#231F20" stroke-width="0.2" stroke-miterlimit="10" stroke-linejoin="round"/>
<path d="M8.78875 29.7518H8.65748C8.62182 29.7518 8.59375 29.7237 8.59375 29.688V27.8763C8.59375 27.8406 8.62182 27.8126 8.65748 27.8126H8.78875C8.82442 27.8126 8.85248 27.8406 8.85248 27.8763V29.688C8.85248 29.7237 8.82442 29.7518 8.78875 29.7518Z" fill="#FFC217" stroke="#231F20" stroke-width="0.2" stroke-miterlimit="10"/>
<path d="M9.64806 29.7517H9.51686C9.48113 29.7517 9.45312 29.7236 9.45312 29.688V27.8762C9.45312 27.8406 9.48113 27.8125 9.51686 27.8125H9.64806C9.68379 27.8125 9.71179 27.8406 9.71179 27.8762V29.688C9.71179 29.7236 9.68253 29.7517 9.64806 29.7517Z" fill="#FFC217" stroke="#231F20" stroke-width="0.2" stroke-miterlimit="10"/>
<path d="M10.5048 29.7517H10.3735C10.3379 29.7517 10.3098 29.7236 10.3098 29.688V27.8762C10.3098 27.8406 10.3379 27.8125 10.3735 27.8125H10.5048C10.5405 27.8125 10.5685 27.8406 10.5685 27.8762V29.688C10.5685 29.7236 10.5405 29.7517 10.5048 29.7517Z" fill="#FFC217" stroke="#231F20" stroke-width="0.2" stroke-miterlimit="10"/>
<path d="M11.3642 29.7517H11.2329C11.1973 29.7517 11.1692 29.7236 11.1692 29.6879V27.8762C11.1692 27.8405 11.1973 27.8125 11.2329 27.8125H11.3642C11.3999 27.8125 11.4279 27.8405 11.4279 27.8762V29.6879C11.4279 29.7236 11.3999 29.7517 11.3642 29.7517Z" fill="#FFC217" stroke="#231F20" stroke-width="0.2" stroke-miterlimit="10"/>
<path d="M12.2223 29.7517H12.0898C12.0541 29.7517 12.0261 29.7236 12.0261 29.688V27.8762C12.0261 27.8406 12.0541 27.8125 12.0898 27.8125H12.2211C12.2567 27.8125 12.2848 27.8406 12.2848 27.8762V29.688C12.2861 29.7236 12.2567 29.7517 12.2223 29.7517Z" fill="#FFC217" stroke="#231F20" stroke-width="0.2" stroke-miterlimit="10"/>
<path d="M12.9317 30.3055V28.2682C12.9317 28.2197 12.9521 28.1725 12.9878 28.1381C13.0234 28.1037 13.0719 28.0846 13.1228 28.0846H14.3373C14.3666 28.0846 14.3959 28.091 14.4227 28.1037C14.4494 28.1165 14.4724 28.1356 14.4902 28.1585L15.2599 29.153L15.5148 29.2346C15.5606 29.2499 15.5989 29.2805 15.6218 29.3213L15.7505 29.8121C15.7836 29.8708 15.739 29.9078 15.8092 29.9078C15.8601 29.9078 15.9086 29.9269 15.9442 29.9613C15.9799 29.9957 16.0003 30.0429 16.0003 30.0914V30.5759C16.0003 30.7505 15.9634 30.8921 15.7811 30.8921H14.2366V31.1011H12.8438V31.3102H8.88317V30.8283H8.0625V30.2839L12.9317 30.3055Z" fill="#307CFE" stroke="#231F20" stroke-width="0.2" stroke-miterlimit="10"/>
<path d="M14.3667 28.4102L14.6508 28.7812C14.6802 28.8194 14.698 28.8653 14.7018 28.9125C14.7056 28.9597 14.6968 29.0081 14.6738 29.0502C14.6508 29.0922 14.6164 29.1292 14.5744 29.1534C14.5324 29.179 14.4826 29.1917 14.433 29.1917H13.5346C13.4632 29.1917 13.3956 29.165 13.3446 29.1165C13.295 29.068 13.2656 29.0018 13.2656 28.9342V28.5606C13.2656 28.5262 13.272 28.493 13.286 28.4612C13.3 28.4293 13.3192 28.4012 13.3446 28.377C13.3702 28.3528 13.3994 28.3336 13.4326 28.3209C13.4657 28.3082 13.5001 28.3018 13.5358 28.3018L14.15 28.3044C14.1921 28.3044 14.2342 28.3132 14.2711 28.3324C14.3094 28.3515 14.3412 28.3783 14.3667 28.4102Z" fill="#183E7F" stroke="#231F20" stroke-width="0.2" stroke-miterlimit="10"/>
<path d="M9.39128 31.8545C9.83861 31.8545 10.2017 31.5052 10.2017 31.0743C10.2017 30.6433 9.83861 30.294 9.39128 30.294C8.94401 30.294 8.58081 30.6433 8.58081 31.0743C8.57955 31.5052 8.94275 31.8545 9.39128 31.8545Z" fill="#183E7F" stroke="#231F20" stroke-width="0.2" stroke-miterlimit="10"/>
<path d="M9.39117 31.5171C9.64477 31.5171 9.84991 31.3195 9.84991 31.0747C9.84991 30.8299 9.64477 30.6323 9.39117 30.6323C9.13757 30.6323 8.93237 30.8299 8.93237 31.0747C8.93237 31.3195 9.13757 31.5171 9.39117 31.5171Z" fill="#307CFE" stroke="#231F20" stroke-width="0.2" stroke-miterlimit="10"/>
<path d="M14.5475 31.8545C14.9948 31.8545 15.358 31.5052 15.358 31.0743C15.358 30.6433 14.9948 30.294 14.5475 30.294C14.1002 30.294 13.7371 30.6433 13.7371 31.0743C13.7371 31.5052 14.1002 31.8545 14.5475 31.8545Z" fill="#183E7F" stroke="#231F20" stroke-width="0.2" stroke-miterlimit="10"/>
<path d="M14.5474 31.5171C14.801 31.5171 15.0062 31.3195 15.0062 31.0747C15.0062 30.8299 14.801 30.6323 14.5474 30.6323C14.2938 30.6323 14.0886 30.8299 14.0886 31.0747C14.0886 31.3195 14.2951 31.5171 14.5474 31.5171Z" fill="#307CFE" stroke="#231F20" stroke-width="0.2" stroke-miterlimit="10"/>
<path d="M25.8333 11.5H0.833252V18.5H25.8333V11.5Z" fill="white" stroke="black" stroke-width="0.5"/>
<path fill-rule="evenodd" clip-rule="evenodd" d="M26.0001 11.3334V6.66669L0.666748 11.2928V11.3334H26.0001Z" fill="#176CF7"/>
<path d="M26 6.66666H26.1667V6.4668L25.9701 6.5027L26 6.66666ZM26 11.3333V11.5H26.1667V11.3333H26ZM0.666667 11.2927L0.636727 11.1288L0.5 11.1537V11.2927H0.666667ZM0.666667 11.3333H0.5V11.5H0.666667V11.3333ZM25.8333 6.66666V11.3333H26.1667V6.66666H25.8333ZM0.696607 11.4567L26.0299 6.83059L25.9701 6.5027L0.636727 11.1288L0.696607 11.4567ZM0.833333 11.3333V11.2927H0.5V11.3333H0.833333ZM0.666667 11.5H26V11.1667H0.666667V11.5Z" fill="black"/>
<path d="M3.91993 14.1267V13.64H2.0166V14.1267H2.68327V16H3.25327V14.1267H3.91993ZM6.11012 16L5.49345 14.99C5.79678 14.8967 5.98345 14.67 5.98345 14.3533C5.98345 13.8133 5.53345 13.64 5.08011 13.64H4.18011V16H4.74011V15.0633H4.93345L5.44345 16H6.11012ZM5.42011 14.3633C5.42011 14.6033 5.19011 14.65 5.00678 14.65H4.73678V14.1H5.04011C5.21011 14.1 5.42011 14.1433 5.42011 14.3633ZM8.3904 15.11V13.64H7.8204V15.0633C7.8204 15.3167 7.7004 15.55 7.37707 15.55C7.05707 15.55 6.93373 15.3167 6.93373 15.0633V13.64H6.36707V15.11C6.36707 15.6767 6.75374 16.0633 7.37373 16.0633C7.9904 16.0633 8.3904 15.6767 8.3904 15.11ZM10.928 15.6733L10.5313 15.3C10.4313 15.44 10.2547 15.54 10.0313 15.54C9.638 15.54 9.36133 15.2467 9.36133 14.8167C9.36133 14.4 9.64467 14.0933 10.0413 14.0933C10.2213 14.0933 10.4113 14.1633 10.518 14.31L10.9047 13.9233C10.708 13.6967 10.3513 13.5767 10.0213 13.5767C9.30133 13.5767 8.74133 14.06 8.74133 14.8167C8.74133 15.5567 9.28467 16.0633 10.0113 16.0633C10.408 16.0633 10.7213 15.9133 10.928 15.6733ZM13.359 16L12.2823 14.7267L13.299 13.64H12.5857L11.7423 14.6H11.7323V13.64H11.1723V16H11.7323V14.9133H11.739L12.6157 16H13.359ZM15.9463 13.87C15.7397 13.68 15.4397 13.58 15.173 13.58C14.733 13.58 14.2597 13.7967 14.2597 14.32C14.2597 14.7467 14.563 14.9 14.863 14.9967C15.173 15.0967 15.353 15.1533 15.353 15.3333C15.353 15.5233 15.1997 15.59 15.0263 15.59C14.8397 15.59 14.6297 15.4833 14.5163 15.34L14.143 15.72C14.3497 15.9367 14.6897 16.06 15.0263 16.06C15.493 16.06 15.9297 15.8167 15.9297 15.2733C15.9297 14.8033 15.5163 14.6667 15.1963 14.5633C14.973 14.4933 14.833 14.4433 14.833 14.2867C14.833 14.1 15.0163 14.05 15.163 14.05C15.3097 14.05 15.4863 14.13 15.583 14.2533L15.9463 13.87ZM18.5391 16L17.5591 13.64H17.0058L16.0157 16H16.6358L16.8091 15.5367H17.7225L17.9058 16H18.5391ZM17.5658 15.08H16.9725L17.2725 14.27L17.5658 15.08ZM20.2208 16V15.5033H19.3075V13.64H18.7341V16H20.2208ZM22.1354 16V15.5133H21.0387V15.0233H22.0187V14.5667H21.0387V14.1233H22.0754V13.64H20.4887V16H22.1354ZM24.1235 13.87C23.9168 13.68 23.6168 13.58 23.3501 13.58C22.9101 13.58 22.4368 13.7967 22.4368 14.32C22.4368 14.7467 22.7401 14.9 23.0401 14.9967C23.3501 15.0967 23.5301 15.1533 23.5301 15.3333C23.5301 15.5233 23.3768 15.59 23.2035 15.59C23.0168 15.59 22.8068 15.4833 22.6935 15.34L22.3201 15.72C22.5268 15.9367 22.8668 16.06 23.2035 16.06C23.6701 16.06 24.1068 15.8167 24.1068 15.2733C24.1068 14.8033 23.6935 14.6667 23.3735 14.5633C23.1501 14.4933 23.0101 14.4433 23.0101 14.2867C23.0101 14.1 23.1935 14.05 23.3401 14.05C23.4868 14.05 23.6635 14.13 23.7601 14.2533L24.1235 13.87Z" fill="black"/>
<path d="M31.4917 28.0962V28.6164L32.9678 29.32L34.448 28.6164V28.0962H31.4917Z" fill="#183E7F" stroke="#231F20" stroke-width="0.5" stroke-miterlimit="10"/>
<path d="M31.0059 26.5174H41.3541V24.9254L31.0059 26.5174Z" stroke="#231F20" stroke-width="0.5" stroke-miterlimit="10"/>
<path d="M43.7412 24.9254V26.5174H45.3333L43.7412 24.9254Z" stroke="#231F20" stroke-width="0.5" stroke-miterlimit="10"/>
<path d="M41.3516 23.3334H43.7396V26.5174H41.3516V23.3334Z" fill="#FFC217" stroke="#231F20" stroke-width="0.5" stroke-miterlimit="10"/>
<path d="M41.3516 28.1095H43.7396V43.2338H41.3516V28.1095Z" fill="#FFC217" stroke="#231F20" stroke-width="0.5" stroke-miterlimit="10"/>
<path d="M26.8216 41.1698V35.7568C26.8216 35.626 26.7672 35.5017 26.6735 35.4102C26.5776 35.3186 26.449 35.2663 26.314 35.2663H23.0869C23.0084 35.2663 22.93 35.2837 22.8581 35.3186C22.7884 35.3535 22.7252 35.4014 22.6794 35.4646L20.6334 38.1068L19.9557 38.3248C19.8337 38.3641 19.7313 38.4469 19.6703 38.5559L19.3282 39.8596C19.2388 40.0165 19.3587 40.1146 19.1735 40.1146C19.0384 40.1146 18.9098 40.167 18.814 40.2585C18.7181 40.3501 18.6658 40.4743 18.6658 40.6051V41.8914C18.6658 42.3557 18.766 42.7328 19.2476 42.7328H23.3527V43.2866H27.0548V43.8424H37.5792V42.5628H39.7603V41.1152L26.8216 41.1698Z" fill="#FFC217" stroke="#231F20" stroke-width="0.5" stroke-miterlimit="10"/>
<path d="M23.013 36.1315L22.2591 37.1169C22.1806 37.2194 22.1327 37.3415 22.1218 37.4679C22.1109 37.5943 22.137 37.7208 22.1959 37.8341C22.2547 37.9475 22.3462 38.0434 22.4596 38.1088C22.5728 38.1742 22.7014 38.2113 22.8343 38.2091H25.2225C25.412 38.2091 25.5929 38.1372 25.7258 38.0085C25.8587 37.8799 25.935 37.7055 25.935 37.5224V36.5305C25.935 36.4389 25.9154 36.3495 25.8805 36.2667C25.8435 36.1839 25.7912 36.1076 25.7258 36.0443C25.6583 35.9811 25.5798 35.931 25.4927 35.8961C25.4055 35.8612 25.3118 35.8438 25.2181 35.8438L23.5861 35.8525C23.475 35.8525 23.3638 35.8787 23.2636 35.9266C23.1656 35.9746 23.0806 36.0443 23.013 36.1315Z" fill="#183E7F" stroke="#231F20" stroke-width="0.5" stroke-miterlimit="10"/>
<path d="M36.2355 45.2857C35.0458 45.2857 34.0806 44.357 34.0806 43.2103C34.0806 42.0658 35.0458 41.1349 36.2355 41.1349C37.4252 41.1349 38.3905 42.0636 38.3905 43.2103C38.3905 44.357 37.4252 45.2857 36.2355 45.2857Z" fill="#307CFE" stroke="#231F20" stroke-width="0.5" stroke-miterlimit="10"/>
<path d="M36.2356 44.3852C35.5623 44.3852 35.0154 43.8598 35.0154 43.2102C35.0154 42.5605 35.5623 42.0351 36.2356 42.0351C36.9089 42.0351 37.4558 42.5605 37.4558 43.2102C37.4558 43.8598 36.9089 44.3852 36.2356 44.3852Z" fill="#183E7F" stroke="#231F20" stroke-width="0.5" stroke-miterlimit="10"/>
<path d="M22.5272 45.2857C21.3376 45.2857 20.3723 44.357 20.3723 43.2103C20.3723 42.0658 21.3376 41.1349 22.5272 41.1349C23.717 41.1349 24.6822 42.0636 24.6822 43.2103C24.6822 44.357 23.717 45.2857 22.5272 45.2857Z" fill="#307CFE" stroke="#231F20" stroke-width="0.5" stroke-miterlimit="10"/>
<path d="M22.5272 44.3852C21.8538 44.3852 21.3069 43.8598 21.3069 43.2102C21.3069 42.5605 21.8538 42.0351 22.5272 42.0351C23.2004 42.0351 23.7474 42.5605 23.7474 43.2102C23.7474 43.8598 23.2004 44.3852 22.5272 44.3852Z" fill="#183E7F" stroke="#231F20" stroke-width="0.5" stroke-miterlimit="10"/>
<path d="M27.4226 34.4776L28.2187 36.0696H38.7659H40.1589L32.9877 29.3035L27.4226 34.4776Z" stroke="#231F20" stroke-width="0.5" stroke-miterlimit="10" stroke-linejoin="round"/>
<path d="M32.9949 29.3036V36.0697" stroke="#231F20" stroke-width="0.5" stroke-miterlimit="10" stroke-linejoin="round"/>
<path d="M41.3534 43.2642H43.7414L45.3334 44.163V44.8566H39.4766V44.163L41.3534 43.2642Z" fill="#183E7F" stroke="#231F20" stroke-width="0.5" stroke-miterlimit="10"/>
<path d="M38.4629 33.8747L38.4696 33.8725" stroke="#231F20" stroke-width="0.5" stroke-miterlimit="10" stroke-linejoin="round"/>
<path d="M27.4639 33.8725L27.4843 33.8786" stroke="#231F20" stroke-width="0.5" stroke-miterlimit="10" stroke-linejoin="round"/>
<path d="M38.4629 37.6855H38.4696" stroke="#231F20" stroke-width="0.5" stroke-miterlimit="10" stroke-linejoin="round"/>
<path d="M27.4639 37.6853L27.4843 37.6894" stroke="#231F20" stroke-width="0.5" stroke-miterlimit="10" stroke-linejoin="round"/>
<path fill-rule="evenodd" clip-rule="evenodd" d="M28.3334 36.0692H40.1589V39.0496V39.6513H27.4226V39.0496V36.0692H27.4237V34.7827V34.4771H28.3334V34.7827V36.0692Z" fill="#FFC217"/>
<path d="M40.1589 36.0692V35.9025C40.2509 35.9025 40.3255 35.9772 40.3255 36.0692H40.1589ZM28.3333 36.0692V36.2358C28.2413 36.2358 28.1667 36.1612 28.1667 36.0692H28.3333ZM40.1589 39.6513H40.3255C40.3255 39.7433 40.2509 39.818 40.1589 39.818V39.6513ZM27.4225 39.6513V39.818C27.3305 39.818 27.2559 39.7433 27.2559 39.6513H27.4225ZM27.4225 36.0692H27.2559C27.2559 35.9772 27.3305 35.9025 27.4225 35.9025V36.0692ZM27.4236 36.0692H27.5903C27.5903 36.1612 27.5157 36.2358 27.4236 36.2358V36.0692ZM27.4236 34.4771H27.2569C27.2569 34.385 27.3315 34.3104 27.4236 34.3104V34.4771ZM28.3333 34.4771V34.3104C28.4254 34.3104 28.5 34.385 28.5 34.4771H28.3333ZM40.1589 36.2358H28.3333V35.9025H40.1589V36.2358ZM39.9922 39.0496V36.0692H40.3255V39.0496H39.9922ZM39.9922 39.6513V39.0496H40.3255V39.6513H39.9922ZM27.4225 39.4846H40.1589V39.818H27.4225V39.4846ZM27.5892 39.0496V39.6513H27.2559V39.0496H27.5892ZM27.5892 36.0692V39.0496H27.2559V36.0692H27.5892ZM27.4236 36.2358H27.4225V35.9025H27.4236V36.2358ZM27.2569 36.0692V34.7827H27.5903V36.0692H27.2569ZM27.2569 34.7827V34.4771H27.5903V34.7827H27.2569ZM27.4236 34.3104H28.3333V34.6438H27.4236V34.3104ZM28.5 34.4771V34.7827H28.1667V34.4771H28.5ZM28.5 34.7827V36.0692H28.1667V34.7827H28.5Z" fill="#231F20"/>
<mask id="mask2_1_6182" style="mask-type:alpha" maskUnits="userSpaceOnUse" x="28" y="36" width="12" height="4">
<path fill-rule="evenodd" clip-rule="evenodd" d="M37.839 39.2541H38.1012C38.1392 39.2541 38.1692 39.2262 38.1692 39.1905V38.1168H39.0008C39.1404 38.1168 39.2501 38.0827 39.2501 38.0392V37.7396C39.2501 37.6961 39.1404 37.6619 39.0008 37.6619H38.1692V36.5317C38.1692 36.4961 38.1392 36.4681 38.1012 36.4681H37.839C37.8011 36.4681 37.7711 36.4961 37.7711 36.5317V37.6619H36.1796V36.5317C36.1796 36.4961 36.1497 36.4681 36.1117 36.4681H35.8495C35.8115 36.4681 35.7816 36.4961 35.7816 36.5317V37.6619H34.1874V36.5317C34.1874 36.4961 34.1575 36.4681 34.1195 36.4681H33.8573C33.8193 36.4681 33.7894 36.4961 33.7894 36.5317V37.6619H32.1978V36.5317C32.1978 36.4961 32.1679 36.4681 32.1298 36.4681H31.8677C31.8296 36.4681 31.7998 36.4961 31.7998 36.5317V37.6619H30.2083V36.5317C30.2083 36.4961 30.1783 36.4681 30.1403 36.4681H29.8781C29.8401 36.4681 29.8102 36.4961 29.8102 36.5317V37.6619H28.5825C28.4429 37.6619 28.3333 37.6961 28.3333 37.7396V38.0392C28.3333 38.0827 28.4429 38.1168 28.5825 38.1168H29.8102V39.1905C29.8102 39.2262 29.8401 39.2541 29.8781 39.2541H30.1403C30.1783 39.2541 30.2083 39.2262 30.2083 39.1905V38.1168H31.7998V39.1905C31.7998 39.2262 31.8296 39.2541 31.8677 39.2541H32.1298C32.1679 39.2541 32.1978 39.2262 32.1978 39.1905V38.1168H33.7894V39.1905C33.7894 39.2262 33.8193 39.2541 33.8573 39.2541H34.1195C34.1575 39.2541 34.1874 39.2262 34.1874 39.1905V38.1168H35.7816V39.1905C35.7816 39.2262 35.8115 39.2541 35.8495 39.2541H36.1117C36.1497 39.2541 36.1796 39.2262 36.1796 39.1905V38.1168H37.7711V39.1905C37.7711 39.2262 37.8011 39.2541 37.839 39.2541Z" fill="#AF8612"/>
</mask>
<g mask="url(#mask2_1_6182)">
<path d="M38.1691 38.1168H37.5024V37.4501H38.1691V38.1168ZM38.1691 37.6619V38.3286H37.5024V37.6619H38.1691ZM37.771 37.6619H38.4377V38.3286H37.771V37.6619ZM36.1795 37.6619V38.3286H35.5128V37.6619H36.1795ZM35.7815 37.6619H36.4482V38.3286H35.7815V37.6619ZM34.1873 37.6619V38.3286H33.5206V37.6619H34.1873ZM33.7893 37.6619H34.456V38.3286H33.7893V37.6619ZM32.1977 37.6619V38.3286H31.531V37.6619H32.1977ZM31.7997 37.6619H32.4664V38.3286H31.7997V37.6619ZM30.2082 37.6619V38.3286H29.5415V37.6619H30.2082ZM29.8101 37.6619H30.4768V38.3286H29.8101V37.6619ZM28.5824 37.6619V38.3286V37.6619ZM29.8101 38.1168V37.4501H30.4768V38.1168H29.8101ZM30.2082 38.1168H29.5415V37.4501H30.2082V38.1168ZM31.7997 38.1168V37.4501H32.4664V38.1168H31.7997ZM32.1977 38.1168H31.531V37.4501H32.1977V38.1168ZM33.7893 38.1168V37.4501H34.456V38.1168H33.7893ZM34.1873 38.1168H33.5206V37.4501H34.1873V38.1168ZM35.7815 38.1168V37.4501H36.4482V38.1168H35.7815ZM36.1795 38.1168H35.5128V37.4501H36.1795V38.1168ZM37.771 38.1168V37.4501H38.4377V38.1168H37.771ZM38.1012 39.9208H37.839V38.5875H38.1012V39.9208ZM38.8358 39.1905C38.8358 39.6349 38.4655 39.9208 38.1012 39.9208V38.5875C37.8128 38.5875 37.5024 38.8175 37.5024 39.1905H38.8358ZM38.8358 38.1168V39.1905H37.5024V38.1168H38.8358ZM38.1691 37.4501H39.0007V38.7835H38.1691V37.4501ZM39.0007 37.4501C39.0244 37.4501 39.0162 37.4463 38.9794 37.4578C38.965 37.4623 38.9036 37.4818 38.8315 37.5357C38.7692 37.5823 38.5833 37.7455 38.5833 38.0392H39.9166C39.9166 38.3547 39.717 38.5384 39.6298 38.6037C39.5328 38.6761 39.4352 38.7123 39.3759 38.7308C39.2494 38.7702 39.1166 38.7835 39.0007 38.7835V37.4501ZM38.5833 38.0392V37.7396H39.9166V38.0392H38.5833ZM38.5833 37.7396C38.5833 38.0333 38.7692 38.1965 38.8315 38.2431C38.9036 38.297 38.965 38.3165 38.9794 38.321C39.0162 38.3324 39.0244 38.3286 39.0007 38.3286V36.9953C39.1166 36.9953 39.2494 37.0085 39.3759 37.0479C39.4352 37.0664 39.5328 37.1026 39.6298 37.1751C39.717 37.2403 39.9166 37.4241 39.9166 37.7396H38.5833ZM39.0007 38.3286H38.1691V36.9953H39.0007V38.3286ZM38.8358 36.5317V37.6619H37.5024V36.5317H38.8358ZM38.1012 35.8014C38.4655 35.8014 38.8358 36.0874 38.8358 36.5317H37.5024C37.5024 36.9048 37.8128 37.1347 38.1012 37.1347V35.8014ZM37.839 35.8014H38.1012V37.1347H37.839V35.8014ZM37.1044 36.5317C37.1044 36.0874 37.4746 35.8014 37.839 35.8014V37.1347C38.1273 37.1347 38.4377 36.9048 38.4377 36.5317H37.1044ZM37.1044 37.6619V36.5317H38.4377V37.6619H37.1044ZM37.771 38.3286H36.1795V36.9953H37.771V38.3286ZM36.8462 36.5317V37.6619H35.5128V36.5317H36.8462ZM36.1116 35.8014C36.476 35.8014 36.8462 36.0874 36.8462 36.5317H35.5128C35.5128 36.9048 35.8233 37.1347 36.1116 37.1347V35.8014ZM35.8494 35.8014H36.1116V37.1347H35.8494V35.8014ZM35.1148 36.5317C35.1148 36.0874 35.485 35.8014 35.8494 35.8014V37.1347C36.1377 37.1347 36.4482 36.9048 36.4482 36.5317H35.1148ZM35.1148 37.6619V36.5317H36.4482V37.6619H35.1148ZM35.7815 38.3286H34.1873V36.9953H35.7815V38.3286ZM33.5206 37.6619V36.5317H34.854V37.6619H33.5206ZM33.5206 36.5317C33.5206 36.9048 33.8311 37.1347 34.1194 37.1347V35.8014C34.4838 35.8014 34.854 36.0874 34.854 36.5317H33.5206ZM34.1194 37.1347H33.8572V35.8014H34.1194V37.1347ZM33.8572 37.1347C34.1455 37.1347 34.456 36.9048 34.456 36.5317H33.1226C33.1226 36.0874 33.4928 35.8014 33.8572 35.8014V37.1347ZM34.456 36.5317V37.6619H33.1226V36.5317H34.456ZM33.7893 38.3286H32.1977V36.9953H33.7893V38.3286ZM32.8644 36.5317V37.6619H31.531V36.5317H32.8644ZM32.1298 35.8014C32.4942 35.8014 32.8644 36.0874 32.8644 36.5317H31.531C31.531 36.9048 31.8415 37.1347 32.1298 37.1347V35.8014ZM31.8676 35.8014H32.1298V37.1347H31.8676V35.8014ZM31.133 36.5317C31.133 36.0874 31.5032 35.8014 31.8676 35.8014V37.1347C32.1559 37.1347 32.4664 36.9048 32.4664 36.5317H31.133ZM31.133 37.6619V36.5317H32.4664V37.6619H31.133ZM31.7997 38.3286H30.2082V36.9953H31.7997V38.3286ZM29.5415 37.6619V36.5317H30.8748V37.6619H29.5415ZM29.5415 36.5317C29.5415 36.9048 29.8519 37.1347 30.1402 37.1347V35.8014C30.5046 35.8014 30.8748 36.0874 30.8748 36.5317H29.5415ZM30.1402 37.1347H29.878V35.8014H30.1402V37.1347ZM29.878 37.1347C30.1664 37.1347 30.4768 36.9048 30.4768 36.5317H29.1434C29.1434 36.0874 29.5137 35.8014 29.878 35.8014V37.1347ZM30.4768 36.5317V37.6619H29.1434V36.5317H30.4768ZM29.8101 38.3286H28.5824V36.9953H29.8101V38.3286ZM28.5824 38.3286C28.5587 38.3286 28.5669 38.3324 28.6036 38.321C28.6181 38.3165 28.6795 38.297 28.7516 38.2431C28.814 38.1965 28.9998 38.0333 28.9998 37.7396H27.6665C27.6665 37.4241 27.866 37.2403 27.9533 37.1751C28.0504 37.1026 28.1478 37.0664 28.2072 37.0479C28.3337 37.0085 28.4665 36.9953 28.5824 36.9953V38.3286ZM28.9998 37.7396V38.0392H27.6665V37.7396H28.9998ZM28.9998 38.0392C28.9998 37.7455 28.814 37.5823 28.7516 37.5357C28.6795 37.4818 28.6181 37.4623 28.6036 37.4578C28.5669 37.4463 28.5587 37.4501 28.5824 37.4501V38.7835C28.4665 38.7835 28.3337 38.7702 28.2072 38.7308C28.1478 38.7123 28.0504 38.6761 27.9533 38.6037C27.866 38.5384 27.6665 38.3547 27.6665 38.0392H28.9998ZM28.5824 37.4501H29.8101V38.7835H28.5824V37.4501ZM30.4768 38.1168V39.1905H29.1434V38.1168H30.4768ZM30.4768 39.1905C30.4768 38.8175 30.1664 38.5875 29.878 38.5875V39.9208C29.5137 39.9208 29.1434 39.6349 29.1434 39.1905H30.4768ZM29.878 38.5875H30.1402V39.9208H29.878V38.5875ZM30.1402 38.5875C29.8519 38.5875 29.5415 38.8175 29.5415 39.1905H30.8748C30.8748 39.6349 30.5046 39.9208 30.1402 39.9208V38.5875ZM29.5415 39.1905V38.1168H30.8748V39.1905H29.5415ZM30.2082 37.4501H31.7997V38.7835H30.2082V37.4501ZM31.133 39.1905V38.1168H32.4664V39.1905H31.133ZM31.8676 39.9208C31.5032 39.9208 31.133 39.6349 31.133 39.1905H32.4664C32.4664 38.8175 32.1559 38.5875 31.8676 38.5875V39.9208ZM32.1298 39.9208H31.8676V38.5875H32.1298V39.9208ZM32.8644 39.1905C32.8644 39.6349 32.4942 39.9208 32.1298 39.9208V38.5875C31.8415 38.5875 31.531 38.8175 31.531 39.1905H32.8644ZM32.8644 38.1168V39.1905H31.531V38.1168H32.8644ZM32.1977 37.4501H33.7893V38.7835H32.1977V37.4501ZM34.456 38.1168V39.1905H33.1226V38.1168H34.456ZM34.456 39.1905C34.456 38.8175 34.1455 38.5875 33.8572 38.5875V39.9208C33.4928 39.9208 33.1226 39.6349 33.1226 39.1905H34.456ZM33.8572 38.5875H34.1194V39.9208H33.8572V38.5875ZM34.1194 38.5875C33.8311 38.5875 33.5206 38.8175 33.5206 39.1905H34.854C34.854 39.6349 34.4838 39.9208 34.1194 39.9208V38.5875ZM33.5206 39.1905V38.1168H34.854V39.1905H33.5206ZM34.1873 37.4501H35.7815V38.7835H34.1873V37.4501ZM35.1148 39.1905V38.1168H36.4482V39.1905H35.1148ZM35.8494 39.9208C35.485 39.9208 35.1148 39.6349 35.1148 39.1905H36.4482C36.4482 38.8175 36.1377 38.5875 35.8494 38.5875V39.9208ZM36.1116 39.9208H35.8494V38.5875H36.1116V39.9208ZM36.8462 39.1905C36.8462 39.6349 36.476 39.9208 36.1116 39.9208V38.5875C35.8233 38.5875 35.5128 38.8175 35.5128 39.1905H36.8462ZM36.8462 38.1168V39.1905H35.5128V38.1168H36.8462ZM36.1795 37.4501H37.771V38.7835H36.1795V37.4501ZM37.1044 39.1905V38.1168H38.4377V39.1905H37.1044ZM37.839 39.9208C37.4746 39.9208 37.1044 39.6349 37.1044 39.1905H38.4377C38.4377 38.8175 38.1273 38.5875 37.839 38.5875V39.9208Z" fill="#AF8612"/>
</g>
<path d="M30.9766 26.5178H45.302V28.1103H30.9766V26.5178Z" fill="#FFC217" stroke="#231F20" stroke-width="0.5" stroke-miterlimit="10"/>
</g>
</g>
<defs>
<clipPath id="clip0_1_6182">
<rect width="48" height="48" fill="white"/>
</clipPath>
</defs>
</svg>
