<svg width="26" height="26" viewBox="0 0 26 26" fill="none" xmlns="http://www.w3.org/2000/svg">
<g filter="url(#filter0_d_1_7299)">
<rect x="4" width="18" height="18" rx="9" fill="#D1E2FD" shape-rendering="crispEdges"/>
<path fill-rule="evenodd" clip-rule="evenodd" d="M15.2058 7.03795C15.2058 8.26171 14.2246 9.24297 13 9.24297C11.7758 9.24297 10.7941 8.26171 10.7941 7.03795C10.7941 5.81419 11.7758 4.83334 13 4.83334C14.2246 4.83334 15.2058 5.81419 15.2058 7.03795ZM13 13.1667C11.1926 13.1667 9.66663 12.8729 9.66663 11.7396C9.66663 10.6058 11.2022 10.3225 13 10.3225C14.8077 10.3225 16.3333 10.6162 16.3333 11.7496C16.3333 12.8833 14.7977 13.1667 13 13.1667Z" fill="#176CF7"/>
<rect x="4.5" y="0.5" width="17" height="17" rx="8.5" stroke="#676767" shape-rendering="crispEdges"/>
</g>
<defs>
<filter id="filter0_d_1_7299" x="0" y="0" width="26" height="26" filterUnits="userSpaceOnUse" color-interpolation-filters="sRGB">
<feFlood flood-opacity="0" result="BackgroundImageFix"/>
<feColorMatrix in="SourceAlpha" type="matrix" values="0 0 0 0 0 0 0 0 0 0 0 0 0 0 0 0 0 0 127 0" result="hardAlpha"/>
<feOffset dy="4"/>
<feGaussianBlur stdDeviation="2"/>
<feComposite in2="hardAlpha" operator="out"/>
<feColorMatrix type="matrix" values="0 0 0 0 0.0784314 0 0 0 0 0.0784314 0 0 0 0 0.0784314 0 0 0 0.25 0"/>
<feBlend mode="normal" in2="BackgroundImageFix" result="effect1_dropShadow_1_7299"/>
<feBlend mode="normal" in="SourceGraphic" in2="effect1_dropShadow_1_7299" result="shape"/>
</filter>
</defs>
</svg>
