<svg width="192" height="318" viewBox="0 0 192 318" fill="none" xmlns="http://www.w3.org/2000/svg">
<g filter="url(#filter0_d_1_13709)">
<g clip-path="url(#clip0_1_13709)">
<rect x="20" y="7" width="156" height="278" rx="10" fill="white"/>
<g filter="url(#filter1_d_1_13709)">
<circle cx="98.5" cy="126" r="21" fill="white"/>
</g>
<path d="M95.5 132L101.104 126.819C101.357 126.583 101.5 126.264 101.5 125.931C101.5 125.598 101.357 125.278 101.104 125.042L95.65 120" stroke="#176CF7" stroke-width="1.5" stroke-linecap="round" stroke-linejoin="bevel"/>
<path d="M53.9555 169H59.0795V167.656H55.4675V160.504H53.9555V169ZM60.0364 169H61.4764V163.24H60.0364V169ZM59.8324 161.284C59.8324 161.74 60.2164 162.148 60.7444 162.148C61.2724 162.148 61.6804 161.776 61.6804 161.284C61.6804 160.792 61.2724 160.42 60.7444 160.42C60.2164 160.42 59.8324 160.828 59.8324 161.284ZM66.4274 163.072C65.5754 163.072 64.9394 163.564 64.7114 164.044H64.6874V159.928H63.2474V169H64.6874V165.856C64.6874 165.088 65.1314 164.308 66.0434 164.308C66.9674 164.308 67.1114 165.148 67.1114 165.832V169H68.5514V165.4C68.5514 164.224 67.9274 163.072 66.4274 163.072ZM73.8072 169H75.1512V165.496C75.1512 164.344 74.6472 163.072 72.5832 163.072C71.7072 163.072 70.7952 163.384 70.1472 163.984L70.8912 164.86C71.2632 164.488 71.8512 164.2 72.4632 164.2C73.1832 164.2 73.7832 164.548 73.7832 165.256V165.4C71.9832 165.4 69.8232 165.64 69.8232 167.356C69.8232 168.7 71.0592 169.144 71.9832 169.144C72.7992 169.144 73.4832 168.772 73.7712 168.268H73.8072V169ZM73.7832 166.576C73.7832 167.488 73.2552 168.052 72.2712 168.052C71.7792 168.052 71.2632 167.884 71.2632 167.332C71.2632 166.48 72.5472 166.372 73.4592 166.372H73.7832V166.576ZM76.8917 164.392V167.08C76.8917 168.184 77.2397 169.12 78.7637 169.12C79.0877 169.12 79.4717 169.06 79.7237 168.964L79.6757 167.836C79.5077 167.92 79.2557 167.956 79.0637 167.956C78.4277 167.956 78.3077 167.584 78.3077 167.068V164.392H79.7477V163.24H78.3077V161.572H76.8917V163.24H75.8837V164.392H76.8917ZM83.8618 169H85.3738V165.484H86.5378C88.3378 165.484 89.8378 164.836 89.8378 162.964C89.8378 161.188 88.5778 160.504 86.6338 160.504H83.8618V169ZM85.3738 164.212V161.776H86.4778C87.4138 161.776 88.3138 161.956 88.3138 162.964C88.3138 163.972 87.4138 164.212 86.4298 164.212H85.3738ZM91.4328 165.544C91.4928 164.74 92.1768 164.152 93.0288 164.152C93.9648 164.152 94.3848 164.8 94.3848 165.544H91.4328ZM95.8248 166.192C95.8248 164.116 94.6488 163.072 93.0408 163.072C91.3008 163.072 89.9928 164.296 89.9928 166.156C89.9928 168.028 91.3128 169.168 93.0888 169.168C94.1808 169.168 94.9968 168.784 95.5608 168.016L94.6008 167.248C94.2768 167.704 93.7968 167.992 93.0768 167.992C92.2368 167.992 91.4928 167.392 91.4328 166.576H95.8128C95.8248 166.444 95.8248 166.324 95.8248 166.192ZM97.2195 169H98.6595V165.832C98.6595 165.064 99.0915 164.272 100.003 164.272C100.927 164.272 101.083 165.124 101.083 165.808V169H102.523V165.4C102.523 164.224 101.899 163.072 100.399 163.072C99.5475 163.072 98.8635 163.588 98.6115 164.164H98.5875V163.24H97.2195V169ZM107.78 169H109.124V165.496C109.124 164.344 108.62 163.072 106.556 163.072C105.68 163.072 104.768 163.384 104.12 163.984L104.864 164.86C105.236 164.488 105.824 164.2 106.436 164.2C107.156 164.2 107.756 164.548 107.756 165.256V165.4C105.956 165.4 103.796 165.64 103.796 167.356C103.796 168.7 105.032 169.144 105.956 169.144C106.772 169.144 107.456 168.772 107.744 168.268H107.78V169ZM107.756 166.576C107.756 167.488 107.228 168.052 106.244 168.052C105.752 168.052 105.236 167.884 105.236 167.332C105.236 166.48 106.52 166.372 107.432 166.372H107.756V166.576ZM111.99 169H113.454L114.75 164.968H114.774L116.082 169H117.546L119.538 163.24H118.038L116.814 167.368H116.79L115.542 163.24H114.006L112.77 167.368H112.746L111.546 163.24H109.986L111.99 169ZM124.022 169H125.366V165.496C125.366 164.344 124.862 163.072 122.798 163.072C121.922 163.072 121.01 163.384 120.362 163.984L121.106 164.86C121.478 164.488 122.066 164.2 122.678 164.2C123.398 164.2 123.998 164.548 123.998 165.256V165.4C122.198 165.4 120.038 165.64 120.038 167.356C120.038 168.7 121.274 169.144 122.198 169.144C123.014 169.144 123.698 168.772 123.986 168.268H124.022V169ZM123.998 166.576C123.998 167.488 123.47 168.052 122.486 168.052C121.994 168.052 121.478 167.884 121.478 167.332C121.478 166.48 122.762 166.372 123.674 166.372H123.998V166.576ZM127.044 169H128.484V165.916C128.484 165.496 128.736 164.368 130.032 164.368C130.164 164.368 130.284 164.38 130.476 164.428V163.108C130.38 163.084 130.236 163.072 130.128 163.072C129.372 163.072 128.76 163.54 128.448 164.2H128.424V163.24H127.044V169ZM134.838 169H136.182V165.496C136.182 164.344 135.678 163.072 133.614 163.072C132.738 163.072 131.826 163.384 131.178 163.984L131.922 164.86C132.294 164.488 132.882 164.2 133.494 164.2C134.214 164.2 134.814 164.548 134.814 165.256V165.4C133.014 165.4 130.854 165.64 130.854 167.356C130.854 168.7 132.09 169.144 133.014 169.144C133.83 169.144 134.514 168.772 134.802 168.268H134.838V169ZM134.814 166.576C134.814 167.488 134.286 168.052 133.302 168.052C132.81 168.052 132.294 167.884 132.294 167.332C132.294 166.48 133.578 166.372 134.49 166.372H134.814V166.576ZM137.86 169H139.3V165.832C139.3 165.064 139.732 164.272 140.644 164.272C141.568 164.272 141.724 165.124 141.724 165.808V169H143.164V165.4C143.164 164.224 142.54 163.072 141.04 163.072C140.188 163.072 139.504 163.588 139.252 164.164H139.228V163.24H137.86V169ZM78.1079 183H83.2319V181.656H79.6199V174.504H78.1079V183ZM87.7408 183H89.0848V179.496C89.0848 178.344 88.5808 177.072 86.5168 177.072C85.6408 177.072 84.7288 177.384 84.0808 177.984L84.8248 178.86C85.1968 178.488 85.7848 178.2 86.3968 178.2C87.1168 178.2 87.7168 178.548 87.7168 179.256V179.4C85.9168 179.4 83.7568 179.64 83.7568 181.356C83.7568 182.7 84.9928 183.144 85.9168 183.144C86.7328 183.144 87.4168 182.772 87.7048 182.268H87.7408V183ZM87.7168 180.576C87.7168 181.488 87.1888 182.052 86.2048 182.052C85.7128 182.052 85.1968 181.884 85.1968 181.332C85.1968 180.48 86.4808 180.372 87.3928 180.372H87.7168V180.576ZM90.7864 183H92.2264V177.24H90.7864V183ZM90.5824 175.284C90.5824 175.74 90.9664 176.148 91.4944 176.148C92.0224 176.148 92.4304 175.776 92.4304 175.284C92.4304 174.792 92.0224 174.42 91.4944 174.42C90.9664 174.42 90.5824 174.828 90.5824 175.284ZM93.9734 183H95.4134V179.832C95.4134 179.064 95.8454 178.272 96.7574 178.272C97.6814 178.272 97.8374 179.124 97.8374 179.808V183H99.2774V179.4C99.2774 178.224 98.6534 177.072 97.1534 177.072C96.3014 177.072 95.6174 177.588 95.3654 178.164H95.3414V177.24H93.9734V183ZM100.958 183H102.398V179.832C102.398 179.064 102.83 178.272 103.742 178.272C104.666 178.272 104.822 179.124 104.822 179.808V183H106.262V179.4C106.262 178.224 105.638 177.072 104.138 177.072C103.286 177.072 102.602 177.588 102.35 178.164H102.326V177.24H100.958V183ZM109.55 183L109.262 183.732C109.022 184.332 108.854 184.632 108.242 184.632C108.086 184.632 107.894 184.608 107.702 184.548L107.582 185.796C107.834 185.856 108.086 185.88 108.326 185.88C109.598 185.88 110.102 185.28 110.51 184.236L113.234 177.24H111.734L110.306 181.428H110.282L108.674 177.24H107.078L109.55 183ZM117.67 183H119.014V179.496C119.014 178.344 118.51 177.072 116.446 177.072C115.57 177.072 114.658 177.384 114.01 177.984L114.754 178.86C115.126 178.488 115.714 178.2 116.326 178.2C117.046 178.2 117.646 178.548 117.646 179.256V179.4C115.846 179.4 113.686 179.64 113.686 181.356C113.686 182.7 114.922 183.144 115.846 183.144C116.662 183.144 117.346 182.772 117.634 182.268H117.67V183ZM117.646 180.576C117.646 181.488 117.118 182.052 116.134 182.052C115.642 182.052 115.126 181.884 115.126 181.332C115.126 180.48 116.41 180.372 117.322 180.372H117.646V180.576Z" fill="#176CF7"/>
<circle cx="155.5" cy="263.5" r="60" fill="white" stroke="#176CF7"/>
<circle cx="154" cy="262" r="52" fill="#D1E2FD"/>
</g>
<rect x="20.5" y="7.5" width="155" height="277" rx="9.5" stroke="#176CF7"/>
</g>
<defs>
<filter id="filter0_d_1_13709" x="0" y="0" width="196" height="318" filterUnits="userSpaceOnUse" color-interpolation-filters="sRGB">
<feFlood flood-opacity="0" result="BackgroundImageFix"/>
<feColorMatrix in="SourceAlpha" type="matrix" values="0 0 0 0 0 0 0 0 0 0 0 0 0 0 0 0 0 0 127 0" result="hardAlpha"/>
<feOffset dy="13"/>
<feGaussianBlur stdDeviation="10"/>
<feComposite in2="hardAlpha" operator="out"/>
<feColorMatrix type="matrix" values="0 0 0 0 0 0 0 0 0 0 0 0 0 0 0 0 0 0 0.1 0"/>
<feBlend mode="normal" in2="BackgroundImageFix" result="effect1_dropShadow_1_13709"/>
<feBlend mode="normal" in="SourceGraphic" in2="effect1_dropShadow_1_13709" result="shape"/>
</filter>
<filter id="filter1_d_1_13709" x="57.5" y="89" width="82" height="82" filterUnits="userSpaceOnUse" color-interpolation-filters="sRGB">
<feFlood flood-opacity="0" result="BackgroundImageFix"/>
<feColorMatrix in="SourceAlpha" type="matrix" values="0 0 0 0 0 0 0 0 0 0 0 0 0 0 0 0 0 0 127 0" result="hardAlpha"/>
<feOffset dy="4"/>
<feGaussianBlur stdDeviation="10"/>
<feComposite in2="hardAlpha" operator="out"/>
<feColorMatrix type="matrix" values="0 0 0 0 0 0 0 0 0 0 0 0 0 0 0 0 0 0 0.1 0"/>
<feBlend mode="normal" in2="BackgroundImageFix" result="effect1_dropShadow_1_13709"/>
<feBlend mode="normal" in="SourceGraphic" in2="effect1_dropShadow_1_13709" result="shape"/>
</filter>
<clipPath id="clip0_1_13709">
<rect x="20" y="7" width="156" height="278" rx="10" fill="white"/>
</clipPath>
</defs>
</svg>
