<svg width="11" height="11" viewBox="0 0 11 11" fill="none" xmlns="http://www.w3.org/2000/svg">
<g clip-path="url(#clip0_299_3445)">
<path d="M6.45141 10.3893C5.92324 11.0471 4.93888 11.0088 4.42664 10.3385C3.89868 9.64765 3.41727 8.92177 2.98582 8.16563C2.40011 7.25488 1.99722 6.23903 1.79957 5.17463C1.64578 4.54683 1.65766 3.88989 1.83406 3.26805C2.01047 2.64622 2.34535 2.08076 2.80598 1.62698C3.50572 0.939107 4.44258 0.545166 5.42401 0.526115C6.40545 0.507064 7.35691 0.86435 8.08286 1.52455C8.78066 2.15809 9.2128 3.03191 9.29254 3.97062C9.29458 3.97292 9.29615 3.97561 9.29716 3.97852C9.29817 3.98143 9.29858 3.98452 9.2984 3.98759C9.2984 3.99871 9.2984 4.00983 9.2984 4.02154C9.30425 4.11051 9.30777 4.19714 9.30777 4.28669V4.30601C9.30777 4.37742 9.30777 4.44707 9.30074 4.51848C9.277 4.90579 9.1926 5.28698 9.0506 5.64815C8.85619 6.2266 8.62852 6.79336 8.36873 7.34559C7.85864 8.43579 7.21457 9.45823 6.45141 10.3893ZM5.50066 2.64135C5.2221 2.64446 4.9507 2.72985 4.72061 2.88677C4.49052 3.04368 4.31204 3.2651 4.20762 3.52315C4.10321 3.7812 4.07753 4.06435 4.13382 4.33695C4.19012 4.60955 4.32587 4.85942 4.52398 5.0551C4.72209 5.25078 4.97372 5.38352 5.24717 5.43662C5.52063 5.48971 5.80369 5.46078 6.06073 5.35348C6.31777 5.24617 6.53729 5.06529 6.69166 4.83359C6.84603 4.60189 6.92835 4.32974 6.92825 4.05139C6.92562 3.67539 6.77384 3.31579 6.50622 3.05145C6.23859 2.78712 5.87696 2.63963 5.50066 2.64135Z" fill="#176CF7"/>
</g>
<defs>
<clipPath id="clip0_299_3445">
<rect width="11" height="11" fill="white"/>
</clipPath>
</defs>
</svg>
