<svg width="109" height="36" viewBox="0 0 109 36" fill="none" xmlns="http://www.w3.org/2000/svg">
<path d="M37.3761 9.5C37.3761 11.379 36.8058 13.2157 35.7373 14.778C34.6688 16.3403 33.1501 17.5579 31.3732 18.2769C29.5964 18.9959 27.6412 19.184 25.755 18.8174C23.8687 18.4508 22.1361 17.5459 20.7762 16.2172C19.4164 14.8885 18.4903 13.1957 18.1152 11.3529C17.7401 9.50998 17.9328 7.59982 18.6689 5.86394C19.405 4.12806 20.6515 2.64442 22.2506 1.60064C23.8498 0.556867 25.7299 -0.000161332 27.6531 3.50502e-08C28.9301 3.50502e-08 30.1945 0.245725 31.3743 0.723144C32.554 1.20056 33.626 1.90033 34.5289 2.78249C35.4318 3.66464 36.1481 4.71191 36.6368 5.86451C37.1254 7.0171 37.3769 8.25244 37.3769 9.5" fill="#176CF7"/>
<path d="M1.37039 4.83822C1.59638 4.83538 1.81934 4.88915 2.01802 4.99441C2.21669 5.09968 2.38444 5.25292 2.50528 5.43952C3.46175 4.92955 4.56195 4.7371 5.64011 4.89117C6.71827 5.04525 7.71597 5.53749 8.48287 6.29373C9.15872 5.61467 10.0246 5.1455 10.9721 4.94495C11.9196 4.74441 12.9066 4.82141 13.8095 5.16632C14.7124 5.51123 15.4911 6.10871 16.0481 6.88395C16.605 7.65919 16.9155 8.57774 16.9407 9.52458V13.9107C16.9295 14.256 16.7793 14.5831 16.5227 14.8208C16.2661 15.0585 15.9238 15.1877 15.5703 15.1802C15.3965 15.1835 15.2237 15.1533 15.0619 15.0913C14.9001 15.0292 14.7524 14.9366 14.6273 14.8186C14.5022 14.7007 14.4022 14.5598 14.333 14.4039C14.2639 14.2481 14.2268 14.0805 14.2241 13.9107V9.5254C14.2241 8.95609 13.9926 8.41011 13.5806 8.00755C13.1686 7.605 12.6097 7.37884 12.027 7.37884C11.4443 7.37884 10.8854 7.605 10.4734 8.00755C10.0614 8.41011 9.82987 8.95609 9.82987 9.5254V13.9107C9.82716 14.0805 9.79014 14.2481 9.72095 14.4039C9.65176 14.5598 9.55176 14.7007 9.42669 14.8186C9.30161 14.9366 9.15392 15.0292 8.9921 15.0913C8.83028 15.1533 8.65751 15.1835 8.4837 15.1802C8.12987 15.1881 7.78717 15.0592 7.53019 14.8214C7.27322 14.5836 7.12279 14.2563 7.11165 13.9107V9.5254C7.11165 8.95609 6.88017 8.41011 6.46812 8.00755C6.05608 7.605 5.49723 7.37884 4.91452 7.37884C4.3318 7.37884 3.77296 7.605 3.36091 8.00755C2.94887 8.41011 2.71739 8.95609 2.71739 9.5254V13.9107C2.71468 14.0805 2.67766 14.2481 2.60847 14.4039C2.53928 14.5598 2.43928 14.7007 2.3142 14.8186C2.18913 14.9366 2.04144 15.0292 1.87962 15.0913C1.7178 15.1533 1.54503 15.1835 1.37122 15.1802C1.01753 15.1879 0.67504 15.0588 0.418248 14.8211C0.161455 14.5834 0.0111397 14.2562 0 13.9107V6.10935C0.0107086 5.76374 0.16072 5.43626 0.417378 5.19819C0.674036 4.96013 1.01656 4.83075 1.37039 4.83822Z" fill="#176CF7"/>
<path d="M38.3669 10.01C38.3756 9.32177 38.5231 8.64197 38.801 8.00949C39.079 7.37702 39.4818 6.80429 39.9865 6.32408C40.4912 5.84386 41.0879 5.46559 41.7424 5.21091C42.3969 4.95623 43.0964 4.83013 43.8008 4.83984C44.7914 4.84001 45.7632 5.10312 46.6126 5.60105C46.7185 5.36562 46.8948 5.16696 47.1184 5.03112C47.3419 4.89529 47.6022 4.82861 47.8652 4.83984C48.0391 4.83638 48.212 4.86652 48.3739 4.92852C48.5358 4.99051 48.6836 5.08315 48.8088 5.20112C48.9339 5.31908 49.034 5.46004 49.1032 5.6159C49.1725 5.77176 49.2095 5.93945 49.2122 6.10933V13.9107C49.2095 14.0806 49.1725 14.2483 49.1032 14.4041C49.034 14.56 48.9339 14.7009 48.8088 14.8189C48.6836 14.9369 48.5358 15.0295 48.3739 15.0915C48.212 15.1535 48.0391 15.1836 47.8652 15.1802C47.6022 15.1914 47.3419 15.1247 47.1184 14.9889C46.8948 14.8531 46.7185 14.6544 46.6126 14.419C45.7633 14.917 44.7914 15.1801 43.8008 15.1802C43.0964 15.1899 42.3969 15.0638 41.7424 14.8091C41.0879 14.5544 40.4912 14.1762 39.9865 13.696C39.4818 13.2157 39.079 12.643 38.801 12.0105C38.5231 11.3781 38.3756 10.6983 38.3669 10.01ZM41.0834 10.01C41.0768 10.5337 41.2296 11.0475 41.5224 11.4863C41.8151 11.925 42.2347 12.2689 42.7279 12.4743C43.221 12.6797 43.7655 12.7373 44.2922 12.6399C44.819 12.5425 45.3042 12.2944 45.6864 11.9271C46.0686 11.5598 46.3304 11.0899 46.4388 10.5769C46.5471 10.064 46.4971 9.53118 46.295 9.04607C46.0929 8.56097 45.7479 8.14545 45.3036 7.85225C44.8594 7.55904 44.3361 7.40137 43.8 7.39923C43.4461 7.39611 43.095 7.46119 42.7669 7.59076C42.4387 7.72033 42.1399 7.91183 41.8876 8.15432C41.6353 8.39681 41.4344 8.68553 41.2964 9.00394C41.1584 9.32236 41.0861 9.66424 41.0834 10.01Z" fill="#176CF7"/>
<path d="M51.0548 10.4946V3.17703C51.0659 2.83171 51.2161 2.50465 51.4727 2.26693C51.7293 2.02921 52.0716 1.90005 52.4252 1.90753C52.599 1.90407 52.7719 1.93421 52.9338 1.99621C53.0957 2.05821 53.2435 2.15085 53.3687 2.26881C53.4939 2.38677 53.5939 2.52773 53.6632 2.68359C53.7324 2.83945 53.7695 3.00714 53.7722 3.17703V4.81693H55.4733C55.6494 4.81079 55.8249 4.83937 55.9895 4.90098C56.1541 4.96258 56.3042 5.05595 56.431 5.1755C56.5578 5.29505 56.6587 5.43834 56.7276 5.5968C56.7965 5.75527 56.832 5.92568 56.832 6.09785C56.832 6.27001 56.7965 6.44042 56.7276 6.59889C56.6587 6.75736 56.5578 6.90064 56.431 7.02019C56.3042 7.13974 56.1541 7.23311 55.9895 7.29471C55.8249 7.35632 55.6494 7.3849 55.4733 7.37876H53.7722V10.4954C53.7766 11.061 54.0103 11.6019 54.4221 11.9995C54.834 12.3971 55.3903 12.619 55.9693 12.6167H56.9848C57.1625 12.6079 57.3402 12.6345 57.5071 12.6949C57.674 12.7553 57.8266 12.8483 57.9555 12.9681C58.0845 13.0879 58.1872 13.2321 58.2574 13.3919C58.3275 13.5516 58.3637 13.7237 58.3637 13.8976C58.3637 14.0714 58.3275 14.2435 58.2574 14.4033C58.1872 14.5631 58.0845 14.7072 57.9555 14.8271C57.8266 14.9469 57.674 15.0398 57.5071 15.1002C57.3402 15.1606 57.1625 15.1873 56.9848 15.1785H55.9693C55.3317 15.1861 54.6989 15.071 54.1069 14.8397C53.5148 14.6083 52.9753 14.2653 52.519 13.8302C52.0627 13.3951 51.6986 12.8764 51.4475 12.3038C51.1964 11.7312 51.0633 11.1158 51.0556 10.4929" fill="#176CF7"/>
<path d="M59.228 13.8878V9.52449C59.2423 8.26408 59.7676 7.06065 60.6887 6.17804C61.6098 5.29543 62.8516 4.80565 64.1417 4.8161C64.8055 4.81375 65.4631 4.94117 66.0758 5.19086C66.6885 5.44054 67.2439 5.80745 67.7092 6.26998C68.3865 5.58966 69.2546 5.12014 70.2042 4.92042C71.1539 4.7207 72.1428 4.7997 73.0466 5.14749C73.9505 5.49528 74.7289 6.09634 75.2841 6.87512C75.8393 7.6539 76.1465 8.57564 76.167 9.52449V13.8869C76.164 14.0597 76.1261 14.2303 76.0556 14.3887C75.985 14.5472 75.8832 14.6906 75.756 14.8106C75.6287 14.9306 75.4785 15.0249 75.3139 15.0882C75.1492 15.1515 74.9735 15.1824 74.7966 15.1793C74.621 15.1821 74.4465 15.1508 74.2834 15.0871C74.1202 15.0235 73.9717 14.9287 73.8463 14.8085C73.721 14.6882 73.6214 14.5448 73.5533 14.3866C73.4852 14.2284 73.4499 14.0586 73.4496 13.8869V9.52449C73.4496 8.95519 73.2181 8.4092 72.8061 8.00664C72.3941 7.60409 71.8352 7.37793 71.2525 7.37793C70.6698 7.37793 70.1109 7.60409 69.6989 8.00664C69.2869 8.4092 69.0554 8.95519 69.0554 9.52449V13.8869C69.0551 14.0586 69.0198 14.2284 68.9517 14.3866C68.8836 14.5448 68.784 14.6882 68.6587 14.8085C68.5333 14.9287 68.3848 15.0235 68.2216 15.0871C68.0585 15.1508 67.884 15.1821 67.7084 15.1793C67.5315 15.1824 67.3558 15.1515 67.1912 15.0882C67.0265 15.0249 66.8763 14.9306 66.749 14.8106C66.6218 14.6906 66.52 14.5472 66.4494 14.3887C66.3789 14.2303 66.341 14.0597 66.338 13.8869V9.52449C66.338 8.95519 66.1065 8.4092 65.6945 8.00664C65.2824 7.60409 64.7236 7.37793 64.1409 7.37793C63.5581 7.37793 62.9993 7.60409 62.5873 8.00664C62.1752 8.4092 61.9437 8.95519 61.9437 9.52449V13.8869C61.9434 14.0586 61.9082 14.2284 61.8401 14.3866C61.772 14.5448 61.6724 14.6882 61.547 14.8085C61.4217 14.9287 61.2731 15.0235 61.11 15.0871C60.9469 15.1508 60.7724 15.1821 60.5967 15.1793C60.4199 15.1824 60.2441 15.1515 60.0795 15.0882C59.9149 15.0249 59.7647 14.9306 59.6374 14.8106C59.5101 14.6906 59.4083 14.5472 59.3378 14.3887C59.2673 14.2303 59.2294 14.0597 59.2263 13.8869" fill="#176CF7"/>
<path d="M77.7534 6.10847C77.7565 5.93568 77.7943 5.76517 77.8649 5.60669C77.9354 5.44821 78.0372 5.30486 78.1645 5.18484C78.2917 5.06482 78.442 4.97048 78.6066 4.90721C78.7712 4.84395 78.9469 4.813 79.1238 4.81613C79.2994 4.81332 79.4739 4.84465 79.6371 4.90831C79.8002 4.97197 79.9488 5.06667 80.0741 5.18693C80.1994 5.30718 80.2991 5.45058 80.3672 5.60878C80.4353 5.76699 80.4705 5.93685 80.4708 6.10847V10.4938C80.4708 11.0631 80.7023 11.6091 81.1143 12.0116C81.5264 12.4142 82.0852 12.6403 82.6679 12.6403C83.2507 12.6403 83.8095 12.4142 84.2215 12.0116C84.6336 11.6091 84.8651 11.0631 84.8651 10.4938V6.10847C84.8681 5.93568 84.906 5.76517 84.9765 5.60669C85.047 5.44821 85.1488 5.30486 85.2761 5.18484C85.4034 5.06482 85.5536 4.97048 85.7182 4.90721C85.8828 4.84395 86.0586 4.813 86.2354 4.81613C86.4111 4.81332 86.5856 4.84465 86.7487 4.90831C86.9118 4.97197 87.0604 5.06667 87.1857 5.18693C87.3111 5.30718 87.4107 5.45058 87.4788 5.60878C87.5469 5.76699 87.5821 5.93685 87.5824 6.10847V10.4938C87.5535 11.7483 87.023 12.9419 86.1046 13.8192C85.1862 14.6964 83.9528 15.1876 82.6684 15.1876C81.3839 15.1876 80.1505 14.6964 79.2321 13.8192C78.3137 12.9419 77.7833 11.7483 77.7543 10.4938L77.7534 6.10847Z" fill="#176CF7"/>
<path d="M88.8331 10.01C88.8636 8.62481 89.4482 7.30643 90.4617 6.33734C91.4752 5.36825 92.8369 4.82556 94.255 4.82556C95.6731 4.82556 97.0348 5.36825 98.0482 6.33734C99.0617 7.30643 99.6463 8.62481 99.6768 10.01V13.8878C99.6765 14.0594 99.6413 14.2293 99.5732 14.3875C99.505 14.5457 99.4054 14.6891 99.2801 14.8093C99.1548 14.9296 99.0062 15.0243 98.8431 15.0879C98.6799 15.1516 98.5054 15.1829 98.3298 15.1801C98.0676 15.1865 97.8093 15.1177 97.5867 14.9823C97.3641 14.8469 97.187 14.6507 97.0771 14.4181C96.2267 14.9135 95.2556 15.1767 94.2654 15.1801C92.8439 15.1958 91.4739 14.6606 90.4554 13.6915C89.4369 12.7225 88.853 11.3987 88.8315 10.01H88.8331ZM94.2654 12.6207C94.7946 12.614 95.3099 12.4544 95.7464 12.162C96.1829 11.8697 96.5212 11.4577 96.7185 10.9779C96.9158 10.4981 96.9634 9.97205 96.8552 9.4659C96.7471 8.95976 96.4881 8.4962 96.1108 8.1336C95.7335 7.77101 95.2548 7.52559 94.735 7.42827C94.2153 7.33095 93.6776 7.38607 93.1899 7.58669C92.7021 7.78732 92.286 8.12447 91.994 8.55569C91.702 8.98691 91.5471 9.4929 91.5488 10.01C91.5568 10.7075 91.8469 11.3736 92.356 11.8628C92.865 12.3519 93.5514 12.6244 94.2654 12.6207Z" fill="#176CF7"/>
<path d="M101.262 10.4946V3.17703C101.273 2.83171 101.423 2.50465 101.68 2.26693C101.936 2.02921 102.279 1.90005 102.632 1.90753C102.806 1.90407 102.979 1.93421 103.141 1.99621C103.303 2.05821 103.451 2.15085 103.576 2.26881C103.701 2.38678 103.801 2.52773 103.87 2.68359C103.939 2.83945 103.976 3.00714 103.979 3.17703V4.81693H105.68C105.856 4.81079 106.032 4.83937 106.196 4.90098C106.361 4.96258 106.511 5.05595 106.638 5.1755C106.765 5.29505 106.866 5.43834 106.935 5.5968C107.003 5.75527 107.039 5.92568 107.039 6.09785C107.039 6.27001 107.003 6.44042 106.935 6.59889C106.866 6.75736 106.765 6.90064 106.638 7.02019C106.511 7.13974 106.361 7.23311 106.196 7.29471C106.032 7.35632 105.856 7.3849 105.68 7.37876H103.979V10.4954C103.984 11.061 104.217 11.6019 104.629 11.9995C105.041 12.3971 105.597 12.619 106.176 12.6167H107.193C107.37 12.6079 107.548 12.6345 107.715 12.6949C107.882 12.7553 108.034 12.8483 108.163 12.9681C108.292 13.0879 108.395 13.2321 108.465 13.3919C108.535 13.5516 108.572 13.7237 108.572 13.8976C108.572 14.0714 108.535 14.2435 108.465 14.4033C108.395 14.5631 108.292 14.7072 108.163 14.8271C108.034 14.9469 107.882 15.0398 107.715 15.1002C107.548 15.1606 107.37 15.1873 107.193 15.1785H106.176C105.539 15.1861 104.906 15.071 104.314 14.8397C103.722 14.6083 103.182 14.2653 102.726 13.8302C102.27 13.3951 101.906 12.8764 101.654 12.3038C101.403 11.7312 101.27 11.1158 101.263 10.4929" fill="#176CF7"/>
<path d="M55.1907 4.8396H47.7927V7.36309H55.1907V4.8396Z" fill="#176CF7"/>
<path d="M22.7366 9.18989C22.7396 9.0171 22.7775 8.84659 22.848 8.68811C22.9185 8.52963 23.0204 8.38628 23.1476 8.26626C23.2749 8.14624 23.4251 8.0519 23.5897 7.98863C23.7543 7.92537 23.9301 7.89442 24.107 7.89756C24.2826 7.89474 24.4571 7.92608 24.6202 7.98973C24.7834 8.05339 24.9319 8.1481 25.0573 8.26835C25.1826 8.3886 25.2822 8.532 25.3503 8.69021C25.4184 8.84841 25.4537 9.01827 25.454 9.18989V10.4953C25.454 11.0646 25.6854 11.6106 26.0975 12.0131C26.5095 12.4157 27.0684 12.6418 27.6511 12.6418C28.2338 12.6418 28.7926 12.4157 29.2047 12.0131C29.6167 11.6106 29.8482 11.0646 29.8482 10.4953V9.18989C29.8513 9.0171 29.8891 8.84659 29.9597 8.68811C30.0302 8.52963 30.132 8.38628 30.2593 8.26626C30.3865 8.14624 30.5368 8.0519 30.7014 7.98863C30.866 7.92537 31.0417 7.89442 31.2186 7.89756C31.3942 7.89485 31.5686 7.92627 31.7316 7.98997C31.8946 8.05368 32.0431 8.1484 32.1684 8.26864C32.2936 8.38889 32.3932 8.53225 32.4612 8.6904C32.5293 8.84855 32.5645 9.01834 32.5648 9.18989V10.4953C32.5358 11.7498 32.0053 12.9434 31.0869 13.8207C30.1685 14.6979 28.9351 15.1891 27.6507 15.1891C26.3663 15.1891 25.1329 14.6979 24.2144 13.8207C23.296 12.9434 22.7656 11.7498 22.7366 10.4953V9.18989Z" fill="#176CF7"/>
<path d="M25.4758 5.96233C25.4758 6.22681 25.3955 6.48535 25.2451 6.70525C25.0947 6.92515 24.8809 7.09655 24.6308 7.19776C24.3807 7.29897 24.1055 7.32545 23.84 7.27385C23.5745 7.22226 23.3306 7.0949 23.1392 6.90789C22.9478 6.72087 22.8175 6.48261 22.7646 6.22321C22.7118 5.96382 22.7389 5.69495 22.8425 5.4506C22.9461 5.20626 23.1216 4.99742 23.3466 4.85048C23.5717 4.70355 23.8364 4.62512 24.1071 4.62512C24.4701 4.62512 24.8182 4.76601 25.0749 5.01678C25.3316 5.26756 25.4758 5.60768 25.4758 5.96233Z" fill="#176CF7"/>
<path d="M32.5676 5.96233C32.5676 6.22681 32.4874 6.48535 32.337 6.70525C32.1866 6.92515 31.9728 7.09655 31.7227 7.19776C31.4726 7.29897 31.1974 7.32545 30.9319 7.27385C30.6664 7.22226 30.4225 7.0949 30.2311 6.90789C30.0397 6.72087 29.9093 6.48261 29.8565 6.22321C29.8037 5.96382 29.8308 5.69495 29.9344 5.4506C30.038 5.20626 30.2134 4.99742 30.4385 4.85048C30.6636 4.70355 30.9282 4.62512 31.1989 4.62512C31.5619 4.62512 31.9101 4.76601 32.1668 5.01678C32.4234 5.26756 32.5676 5.60768 32.5676 5.96233Z" fill="#176CF7"/>
<path d="M22.7366 9.18989C22.7396 9.0171 22.7775 8.84659 22.848 8.68811C22.9185 8.52963 23.0204 8.38628 23.1476 8.26626C23.2749 8.14624 23.4251 8.0519 23.5897 7.98863C23.7543 7.92537 23.9301 7.89442 24.107 7.89756C24.2826 7.89474 24.4571 7.92608 24.6202 7.98973C24.7834 8.05339 24.9319 8.1481 25.0573 8.26835C25.1826 8.3886 25.2822 8.532 25.3503 8.69021C25.4184 8.84841 25.4537 9.01827 25.454 9.18989V10.4953C25.454 11.0646 25.6854 11.6106 26.0975 12.0131C26.5095 12.4157 27.0684 12.6418 27.6511 12.6418C28.2338 12.6418 28.7926 12.4157 29.2047 12.0131C29.6167 11.6106 29.8482 11.0646 29.8482 10.4953V9.18989C29.8513 9.0171 29.8891 8.84659 29.9597 8.68811C30.0302 8.52963 30.132 8.38628 30.2593 8.26626C30.3865 8.14624 30.5368 8.0519 30.7014 7.98863C30.866 7.92537 31.0417 7.89442 31.2186 7.89756C31.3942 7.89485 31.5686 7.92627 31.7316 7.98997C31.8946 8.05368 32.0431 8.1484 32.1684 8.26864C32.2936 8.38889 32.3932 8.53225 32.4612 8.6904C32.5293 8.84855 32.5645 9.01834 32.5648 9.18989V10.4953C32.5358 11.7498 32.0053 12.9434 31.0869 13.8207C30.1685 14.6979 28.9351 15.1891 27.6507 15.1891C26.3663 15.1891 25.1329 14.6979 24.2144 13.8207C23.296 12.9434 22.7656 11.7498 22.7366 10.4953V9.18989Z" fill="#FFC217"/>
<path d="M25.4758 5.96233C25.4758 6.22681 25.3955 6.48535 25.2451 6.70525C25.0947 6.92515 24.8809 7.09655 24.6308 7.19776C24.3807 7.29897 24.1055 7.32545 23.84 7.27385C23.5745 7.22226 23.3306 7.0949 23.1392 6.90789C22.9478 6.72087 22.8175 6.48261 22.7646 6.22321C22.7118 5.96382 22.7389 5.69495 22.8425 5.4506C22.9461 5.20626 23.1216 4.99742 23.3466 4.85048C23.5717 4.70355 23.8364 4.62512 24.1071 4.62512C24.4701 4.62512 24.8182 4.76601 25.0749 5.01678C25.3316 5.26756 25.4758 5.60768 25.4758 5.96233Z" fill="#FFC217"/>
<path d="M32.5676 5.96233C32.5676 6.22681 32.4874 6.48535 32.337 6.70525C32.1866 6.92515 31.9728 7.09655 31.7227 7.19776C31.4726 7.29897 31.1974 7.32545 30.9319 7.27385C30.6664 7.22226 30.4225 7.0949 30.2311 6.90789C30.0397 6.72087 29.9093 6.48261 29.8565 6.22321C29.8037 5.96382 29.8308 5.69495 29.9344 5.4506C30.038 5.20626 30.2134 4.99742 30.4385 4.85048C30.6636 4.70355 30.9282 4.62512 31.1989 4.62512C31.5619 4.62512 31.9101 4.76601 32.1668 5.01678C32.4234 5.26756 32.5676 5.60768 32.5676 5.96233Z" fill="#FFC217"/>
<rect x="21.2857" y="21" width="66" height="15" rx="3" fill="black"/>
<path d="M35.147 31H36.155V26.216H37.891V25.336H33.411V26.216H35.147V31ZM37.7831 31H38.7431V28.944C38.7431 28.664 38.9111 27.912 39.7751 27.912C39.8631 27.912 39.9431 27.92 40.0711 27.952V27.072C40.0071 27.056 39.9111 27.048 39.8391 27.048C39.3351 27.048 38.9271 27.36 38.7191 27.8H38.7031V27.16H37.7831V31ZM42.9796 31H43.8756V28.664C43.8756 27.896 43.5396 27.048 42.1636 27.048C41.5796 27.048 40.9716 27.256 40.5396 27.656L41.0356 28.24C41.2836 27.992 41.6756 27.8 42.0836 27.8C42.5636 27.8 42.9636 28.032 42.9636 28.504V28.6C41.7636 28.6 40.3236 28.76 40.3236 29.904C40.3236 30.8 41.1476 31.096 41.7636 31.096C42.3076 31.096 42.7636 30.848 42.9556 30.512H42.9796V31ZM42.9636 29.384C42.9636 29.992 42.6116 30.368 41.9556 30.368C41.6276 30.368 41.2836 30.256 41.2836 29.888C41.2836 29.32 42.1396 29.248 42.7476 29.248H42.9636V29.384ZM44.994 31H45.954V28.888C45.954 28.376 46.242 27.848 46.85 27.848C47.466 27.848 47.57 28.416 47.57 28.872V31H48.53V28.6C48.53 27.816 48.114 27.048 47.114 27.048C46.546 27.048 46.09 27.392 45.922 27.776H45.906V27.16H44.994V31ZM52.3783 27.632C52.0663 27.24 51.4903 27.048 50.9383 27.048C50.1783 27.048 49.4103 27.416 49.4103 28.272C49.4103 28.992 49.9783 29.224 50.5463 29.36C51.1303 29.496 51.4263 29.592 51.4263 29.912C51.4263 30.256 51.0903 30.368 50.8103 30.368C50.3943 30.368 50.0343 30.16 49.8263 29.888L49.1943 30.48C49.5623 30.888 50.1783 31.112 50.7703 31.112C51.6103 31.112 52.3703 30.768 52.3703 29.832C52.3703 29.08 51.6983 28.824 51.1303 28.688C50.5943 28.56 50.2983 28.48 50.2983 28.184C50.2983 27.88 50.6103 27.768 50.9143 27.768C51.2663 27.768 51.5863 27.96 51.7543 28.184L52.3783 27.632ZM53.205 27.16V32.92H54.165V30.488H54.181C54.429 30.872 54.917 31.112 55.453 31.112C56.621 31.112 57.341 30.184 57.341 29.064C57.341 27.928 56.573 27.048 55.477 27.048C54.773 27.048 54.341 27.392 54.149 27.696H54.125V27.16H53.205ZM56.365 29.064C56.365 29.664 56.005 30.312 55.261 30.312C54.557 30.312 54.133 29.68 54.133 29.08C54.133 28.48 54.557 27.832 55.261 27.832C56.005 27.832 56.365 28.464 56.365 29.064ZM58.0435 29.064C58.0435 30.272 58.9715 31.112 60.1315 31.112C61.2915 31.112 62.2195 30.272 62.2195 29.064C62.2195 27.856 61.2915 27.048 60.1315 27.048C58.9715 27.048 58.0435 27.856 58.0435 29.064ZM59.0195 29.064C59.0195 28.464 59.3715 27.832 60.1315 27.832C60.8915 27.832 61.2435 28.464 61.2435 29.064C61.2435 29.664 60.8915 30.312 60.1315 30.312C59.3715 30.312 59.0195 29.664 59.0195 29.064ZM63.1503 31H64.1103V28.944C64.1103 28.664 64.2783 27.912 65.1423 27.912C65.2303 27.912 65.3103 27.92 65.4383 27.952V27.072C65.3743 27.056 65.2783 27.048 65.2063 27.048C64.7023 27.048 64.2943 27.36 64.0863 27.8H64.0703V27.16H63.1503V31ZM66.0906 27.928V29.72C66.0906 30.456 66.3226 31.08 67.3386 31.08C67.5546 31.08 67.8106 31.04 67.9786 30.976L67.9466 30.224C67.8346 30.28 67.6666 30.304 67.5386 30.304C67.1146 30.304 67.0346 30.056 67.0346 29.712V27.928H67.9946V27.16H67.0346V26.048H66.0906V27.16H65.4186V27.928H66.0906ZM69.4253 28.696C69.4653 28.16 69.9213 27.768 70.4893 27.768C71.1133 27.768 71.3933 28.2 71.3933 28.696H69.4253ZM72.3533 29.128C72.3533 27.744 71.5693 27.048 70.4973 27.048C69.3373 27.048 68.4653 27.864 68.4653 29.104C68.4653 30.352 69.3453 31.112 70.5293 31.112C71.2573 31.112 71.8013 30.856 72.1773 30.344L71.5373 29.832C71.3213 30.136 71.0013 30.328 70.5213 30.328C69.9613 30.328 69.4653 29.928 69.4253 29.384H72.3453C72.3533 29.296 72.3533 29.216 72.3533 29.128ZM73.2831 31H74.2431V28.944C74.2431 28.664 74.4111 27.912 75.2751 27.912C75.3631 27.912 75.4431 27.92 75.5711 27.952V27.072C75.5071 27.056 75.4111 27.048 75.3391 27.048C74.8351 27.048 74.4271 27.36 74.2191 27.8H74.2031V27.16H73.2831V31Z" fill="#FFC217"/>
</svg>
