<svg width="24" height="24" viewBox="0 0 24 24" fill="none" xmlns="http://www.w3.org/2000/svg">
<path fill-rule="evenodd" clip-rule="evenodd" d="M19.2531 17.9205H5.06653L7.31224 6.69539C7.53635 5.57485 8.14177 4.56657 9.02549 3.84208C9.90921 3.1176 11.0167 2.72168 12.1594 2.72168V2.72168C13.3021 2.72168 14.4096 3.1176 15.2933 3.84208C16.177 4.56657 16.7824 5.57485 17.0065 6.69539L19.2531 17.9205Z" stroke="white" stroke-width="2" stroke-linecap="round" stroke-linejoin="round"/>
<path d="M3.24341 18.1621H21.4054" stroke="white" stroke-width="2" stroke-linecap="round" stroke-linejoin="round"/>
<path d="M15.1997 17.9209C15.1997 18.7271 14.8794 19.5003 14.3094 20.0704C13.7393 20.6405 12.9661 20.9608 12.1599 20.9608C11.3536 20.9608 10.5804 20.6405 10.0103 20.0704C9.44026 19.5003 9.12 18.7271 9.12 17.9209" stroke="white" stroke-width="2" stroke-linecap="round" stroke-linejoin="round"/>
<path d="M17 9C19.2091 9 21 7.20914 21 5C21 2.79086 19.2091 1 17 1C14.7909 1 13 2.79086 13 5C13 7.20914 14.7909 9 17 9Z" fill="#F71717" stroke="white"/>
</svg>
