<svg width="48" height="48" viewBox="0 0 48 48" fill="none" xmlns="http://www.w3.org/2000/svg">
<path d="M45.8853 36.2046V37.4105H3.15625V32.5749H26.5111V36.2046H45.8853Z" fill="white" stroke="#231F20" stroke-width="0.5" stroke-miterlimit="10"/>
<path fill-rule="evenodd" clip-rule="evenodd" d="M4.66663 15.3335V32.6667H25V14.6668H33.3333V10.6668L4.66663 13.3335H2.66663V15.3335H4.66663Z" fill="#176CF7"/>
<mask id="mask0_1_6330" style="mask-type:alpha" maskUnits="userSpaceOnUse" x="2" y="10" width="32" height="23">
<path fill-rule="evenodd" clip-rule="evenodd" d="M4.66663 15.3335V32.6667H25V14.6668H33.3333V10.6668L4.66663 13.3335H2.66663V15.3335H4.66663Z" fill="black"/>
</mask>
<g mask="url(#mask0_1_6330)">
<path d="M4.66659 15.3335H4.99992V15.0002H4.66659V15.3335ZM4.66659 32.6668H4.33325V33.0001H4.66659V32.6668ZM24.9999 32.6668V33.0001H25.3333V32.6668H24.9999ZM24.9999 14.6668V14.3335H24.6666V14.6668H24.9999ZM33.3333 14.6668V15.0002H33.6666V14.6668H33.3333ZM33.3333 10.6668H33.6666V10.301L33.3024 10.335L33.3333 10.6668ZM4.66659 13.3335V13.6668H4.68206L4.69746 13.6654L4.66659 13.3335ZM2.66659 13.3335V13.0002H2.33325V13.3335H2.66659ZM2.66659 15.3335H2.33325V15.6668H2.66659V15.3335ZM4.33325 15.3335V32.6668H4.99992V15.3335H4.33325ZM4.66659 33.0001H24.9999V32.3334H4.66659V33.0001ZM25.3333 32.6668V14.6668H24.6666V32.6668H25.3333ZM24.9999 15.0002H33.3333V14.3335H24.9999V15.0002ZM33.6666 14.6668V10.6668H32.9999V14.6668H33.6666ZM33.3024 10.335L4.63571 13.0016L4.69746 13.6654L33.3641 10.9988L33.3024 10.335ZM2.66659 13.6668H4.66659V13.0002H2.66659V13.6668ZM2.99992 15.3335V13.3335H2.33325V15.3335H2.99992ZM4.66659 15.0002H2.66659V15.6668H4.66659V15.0002Z" fill="black"/>
</g>
<mask id="mask1_1_6330" style="mask-type:luminance" maskUnits="userSpaceOnUse" x="6" y="19" width="18" height="11">
<path d="M24 19.3335H6V29.3335H24V19.3335Z" fill="white"/>
</mask>
<g mask="url(#mask1_1_6330)">
<path d="M12.0475 19.8229H10.9973L10.3247 22.6019H10.307L9.55773 19.8229H8.50753L7.76413 22.6019H7.7464L7.0856 19.8229H6L7.18587 24.0001H8.18887L9.01487 21.1741H9.0326L9.8586 24.0001H10.8557L12.0475 19.8229ZM16.3643 24.0001L14.6297 19.8229H13.6503L11.8981 24.0001H12.9955L13.3023 23.1801H14.9189L15.2433 24.0001H16.3643ZM14.6415 22.3717H13.5913L14.1223 20.9381L14.6415 22.3717ZM20.1257 24.0001L19.0342 22.2125C19.5711 22.0473 19.9015 21.6461 19.9015 21.0855C19.9015 20.1297 19.105 19.8229 18.3026 19.8229H16.7096V24.0001H17.7008V22.3423H18.043L18.9457 24.0001H20.1257ZM18.9044 21.1033C18.9044 21.5281 18.4973 21.6107 18.1728 21.6107H17.6949V20.6371H18.2318C18.5327 20.6371 18.9044 20.7139 18.9044 21.1033ZM23.5364 24.0001V23.1387H21.5953V22.2715H23.3299V21.4631H21.5953V20.6785H23.4302V19.8229H20.6218V24.0001H23.5364ZM9.455 28.6668V25.1268H8.6V26.4668H7.22V25.1268H6.365V28.6668H7.22V27.1868H8.6V28.6668H9.455ZM13.8733 26.8818C13.8733 25.7468 13.0533 25.0318 11.9433 25.0318C10.8383 25.0318 10.0183 25.7468 10.0183 26.8818C10.0183 28.0018 10.8383 28.7618 11.9433 28.7618C13.0533 28.7618 13.8733 28.0018 13.8733 26.8818ZM12.9583 26.8818C12.9583 27.5218 12.5383 27.9818 11.9433 27.9818C11.3483 27.9818 10.9333 27.5218 10.9333 26.8818C10.9333 26.2618 11.3433 25.8018 11.9433 25.8018C12.5433 25.8018 12.9583 26.2618 12.9583 26.8818ZM17.4363 27.3318V25.1268H16.5813V27.2618C16.5813 27.6418 16.4013 27.9918 15.9163 27.9918C15.4363 27.9918 15.2513 27.6418 15.2513 27.2618V25.1268H14.4013V27.3318C14.4013 28.1818 14.9813 28.7618 15.9113 28.7618C16.8363 28.7618 17.4363 28.1818 17.4363 27.3318ZM20.5427 25.4718C20.2327 25.1868 19.7827 25.0368 19.3827 25.0368C18.7227 25.0368 18.0127 25.3618 18.0127 26.1468C18.0127 26.7868 18.4677 27.0168 18.9177 27.1618C19.3827 27.3118 19.6527 27.3968 19.6527 27.6668C19.6527 27.9518 19.4227 28.0518 19.1627 28.0518C18.8827 28.0518 18.5677 27.8918 18.3977 27.6768L17.8377 28.2468C18.1477 28.5718 18.6577 28.7568 19.1627 28.7568C19.8627 28.7568 20.5177 28.3918 20.5177 27.5768C20.5177 26.8718 19.8977 26.6668 19.4177 26.5118C19.0827 26.4068 18.8727 26.3318 18.8727 26.0968C18.8727 25.8168 19.1477 25.7418 19.3677 25.7418C19.5877 25.7418 19.8527 25.8618 19.9977 26.0468L20.5427 25.4718ZM23.5518 28.6668V27.9368H21.9068V27.2018H23.3768V26.5168H21.9068V25.8518H23.4618V25.1268H21.0818V28.6668H23.5518Z" fill="white"/>
</g>
<path d="M38.7928 25.7657V31.4308L38.6487 32.575H27.6857L27.5416 31.4308V25.7657H38.7928Z" fill="#FFC217" stroke="#231F20" stroke-width="0.5" stroke-miterlimit="10" stroke-linejoin="round"/>
<path d="M29.3586 31.3457H29.0558C28.9735 31.3457 28.9088 31.281 28.9088 31.1986V27.019C28.9088 26.9366 28.9735 26.8719 29.0558 26.8719H29.3586C29.4409 26.8719 29.5056 26.9366 29.5056 27.019V31.1986C29.5056 31.281 29.4409 31.3457 29.3586 31.3457Z" fill="#307CFE" stroke="#231F20" stroke-width="0.5" stroke-miterlimit="10"/>
<path d="M31.3403 31.3457H31.0375C30.9552 31.3457 30.8905 31.281 30.8905 31.1986V27.019C30.8905 26.9366 30.9552 26.8719 31.0375 26.8719H31.3403C31.4226 26.8719 31.4873 26.9366 31.4873 27.019V31.1986C31.4873 31.281 31.4197 31.3457 31.3403 31.3457Z" fill="#307CFE" stroke="#231F20" stroke-width="0.5" stroke-miterlimit="10"/>
<path d="M33.3196 31.3457H33.0168C32.9344 31.3457 32.8698 31.281 32.8698 31.1986V27.019C32.8698 26.9366 32.9344 26.8719 33.0168 26.8719H33.3196C33.4019 26.8719 33.4666 26.9366 33.4666 27.019V31.1986C33.4666 31.281 33.4019 31.3457 33.3196 31.3457Z" fill="#307CFE" stroke="#231F20" stroke-width="0.5" stroke-miterlimit="10"/>
<path d="M35.2987 31.3457H34.9959C34.9136 31.3457 34.8489 31.281 34.8489 31.1986V27.019C34.8489 26.9366 34.9136 26.8719 34.9959 26.8719H35.2987C35.381 26.8719 35.4457 26.9366 35.4457 27.019V31.1986C35.4457 31.281 35.381 31.3457 35.2987 31.3457Z" fill="#307CFE" stroke="#231F20" stroke-width="0.5" stroke-miterlimit="10"/>
<path d="M37.2809 31.3457H36.9751C36.8928 31.3457 36.8281 31.281 36.8281 31.1986V27.019C36.8281 26.9366 36.8928 26.8719 36.9751 26.8719H37.2779C37.3603 26.8719 37.4249 26.9366 37.4249 27.019V31.1986C37.4279 31.281 37.3603 31.3457 37.2809 31.3457Z" fill="#307CFE" stroke="#231F20" stroke-width="0.5" stroke-miterlimit="10"/>
<path d="M38.9183 32.622V27.9218C38.9183 27.81 38.9653 27.7012 39.0477 27.6218C39.13 27.5423 39.2417 27.4982 39.3593 27.4982H42.1611C42.2287 27.4982 42.2963 27.5129 42.3581 27.5423C42.4198 27.5717 42.4727 27.6158 42.5139 27.6688L44.2896 29.963L44.8775 30.1513C44.9834 30.1866 45.0716 30.2572 45.1245 30.3513L45.4215 31.4838C45.4979 31.619 45.395 31.7044 45.5567 31.7044C45.6743 31.7044 45.786 31.7484 45.8683 31.8279C45.9507 31.9073 45.9977 32.0161 45.9977 32.1279V33.2456C45.9977 33.6486 45.9124 33.9751 45.492 33.9751H41.9288V34.4574H38.7155V34.9398H29.5781V33.828H27.6848V32.572L38.9183 32.622Z" fill="#307CFE" stroke="#231F20" stroke-width="0.5" stroke-miterlimit="10"/>
<path d="M42.2249 28.2483L42.8805 29.1042C42.9481 29.1924 42.9893 29.2984 42.9981 29.4072C43.0069 29.516 42.9864 29.6278 42.9335 29.7248C42.8805 29.8219 42.8011 29.9072 42.7041 29.9631C42.6071 30.0219 42.4925 30.0513 42.3778 30.0513H40.3051C40.1405 30.0513 39.9847 29.9896 39.8671 29.8778C39.7525 29.766 39.6848 29.6131 39.6848 29.4572V28.5954C39.6848 28.516 39.6995 28.4395 39.7319 28.3659C39.7642 28.2924 39.8083 28.2277 39.8671 28.1718C39.9259 28.1159 39.9935 28.0718 40.0699 28.0424C40.1464 28.013 40.2258 27.9982 40.3081 27.9982L41.7251 28.0042C41.8221 28.0042 41.9192 28.0248 42.0045 28.0688C42.0926 28.113 42.1661 28.1748 42.2249 28.2483Z" fill="#183E7F" stroke="#231F20" stroke-width="0.5" stroke-miterlimit="10"/>
<path d="M30.7499 36.196C31.7819 36.196 32.6197 35.3901 32.6197 34.396C32.6197 33.4018 31.7819 32.5958 30.7499 32.5958C29.7181 32.5958 28.8801 33.4018 28.8801 34.396C28.8772 35.3901 29.7151 36.196 30.7499 36.196Z" fill="#183E7F" stroke="#231F20" stroke-width="0.5" stroke-miterlimit="10"/>
<path d="M30.7484 35.4165C31.3335 35.4165 31.8068 34.9605 31.8068 34.3958C31.8068 33.8311 31.3335 33.3751 30.7484 33.3751C30.1634 33.3751 29.6901 33.8311 29.6901 34.3958C29.6901 34.9605 30.1634 35.4165 30.7484 35.4165Z" fill="#307CFE" stroke="#231F20" stroke-width="0.5" stroke-miterlimit="10"/>
<path d="M42.6458 36.196C43.6777 36.196 44.5156 35.3901 44.5156 34.396C44.5156 33.4018 43.6777 32.5958 42.6458 32.5958C41.6139 32.5958 40.776 33.4018 40.776 34.396C40.776 35.3901 41.6139 36.196 42.6458 36.196Z" fill="#183E7F" stroke="#231F20" stroke-width="0.5" stroke-miterlimit="10"/>
<path d="M42.6469 35.4165C43.2319 35.4165 43.7052 34.9606 43.7052 34.3958C43.7052 33.831 43.2319 33.3752 42.6469 33.3752C42.0618 33.3752 41.5885 33.831 41.5885 34.3958C41.5885 34.9606 42.0648 35.4165 42.6469 35.4165Z" fill="#307CFE" stroke="#231F20" stroke-width="0.5" stroke-miterlimit="10"/>
<path fill-rule="evenodd" clip-rule="evenodd" d="M36 15.3795H34V15.3333H4.66663H2.66663V13.3333H4.66663L36 10V15.3795Z" fill="#FFC217"/>
<mask id="mask2_1_6330" style="mask-type:alpha" maskUnits="userSpaceOnUse" x="2" y="10" width="34" height="6">
<path fill-rule="evenodd" clip-rule="evenodd" d="M36 15.3795H34V15.3333H4.66663H2.66663V13.3333H4.66663L36 10V15.3795Z" fill="black"/>
</mask>
<g mask="url(#mask2_1_6330)">
<path d="M33.9999 15.3795H33.6666V15.7128H33.9999V15.3795ZM35.9999 15.3795V15.7128H36.3333V15.3795H35.9999ZM33.9999 15.3333H34.3333V15H33.9999V15.3333ZM2.66659 15.3333H2.33325V15.6667H2.66659V15.3333ZM2.66659 13.3333V13H2.33325V13.3333H2.66659ZM4.66659 13.3333V13.6667H4.68427L4.70185 13.6648L4.66659 13.3333ZM35.9999 10H36.3333V9.62933L35.9647 9.66853L35.9999 10ZM33.9999 15.7128H35.9999V15.0461H33.9999V15.7128ZM33.6666 15.3333V15.3795H34.3333V15.3333H33.6666ZM4.66659 15.6667H33.9999V15H4.66659V15.6667ZM2.66659 15.6667H4.66659V15H2.66659V15.6667ZM2.33325 13.3333V15.3333H2.99992V13.3333H2.33325ZM4.66659 13H2.66659V13.6667H4.66659V13ZM35.9647 9.66853L4.63133 13.0019L4.70185 13.6648L36.0352 10.3315L35.9647 9.66853ZM36.3333 15.3795V10H35.6666V15.3795H36.3333Z" fill="black"/>
</g>
</svg>
