<svg width="48" height="48" viewBox="0 0 48 48" fill="none" xmlns="http://www.w3.org/2000/svg">
<path d="M1.5 22.0805L6.38977 15.4445H41.0269L45.9167 22.0805V24.3452H1.5V22.0805Z" fill="#176CF7" stroke="#231F20" stroke-width="0.5"/>
<path d="M4.36218 21.8373H1.85425V24.3453H4.36218V21.8373Z" fill="#FFC217" stroke="#231F20" stroke-width="0.5"/>
<path d="M11.4662 21.8373H8.95825V24.3453H11.4662V21.8373Z" fill="#FFC217" stroke="#231F20" stroke-width="0.5"/>
<path d="M17.8595 21.8373H15.3516V24.3453H17.8595V21.8373Z" fill="#FFC217" stroke="#231F20" stroke-width="0.5"/>
<path d="M24.9611 21.8373H22.4531V24.3453H24.9611V21.8373Z" fill="#FFC217" stroke="#231F20" stroke-width="0.5"/>
<path d="M32.0653 21.8373H29.5574V24.3453H32.0653V21.8373Z" fill="#FFC217" stroke="#231F20" stroke-width="0.5"/>
<path d="M39.1693 21.8373H36.6614V24.3453H39.1693V21.8373Z" fill="#FFC217" stroke="#231F20" stroke-width="0.5"/>
<path d="M45.5599 21.8373H43.052V24.3453H45.5599V21.8373Z" fill="#FFC217" stroke="#231F20" stroke-width="0.5"/>
<path d="M6.49856 15.4445H7.79866L4.43224 21.504H2.35986L6.49856 15.4445Z" fill="#FFC217" stroke="#231F20" stroke-width="0.5"/>
<path d="M11.9862 15.4445H13.3612L11.5096 21.5039H9.05737L11.9862 15.4445Z" fill="#FFC217" stroke="#231F20" stroke-width="0.5"/>
<path d="M17.2617 15.4445H19.0671L17.8889 21.504H15.4102L17.2617 15.4445Z" fill="#FFC217" stroke="#231F20" stroke-width="0.5"/>
<path d="M24.6149 15.4445L24.9515 21.504H22.4626L22.7992 15.4445H24.6149Z" fill="#FFC217" stroke="#231F20" stroke-width="0.5"/>
<path d="M31.9994 21.504H29.523L28.1765 15.4445H29.9796L31.9994 21.504Z" fill="#FFC217" stroke="#231F20" stroke-width="0.5"/>
<path d="M39.0399 21.504H36.6005L33.9075 15.4445H35.421L39.0399 21.504Z" fill="#FFC217" stroke="#231F20" stroke-width="0.5"/>
<path d="M45.0461 21.504H42.9794L39.2764 15.4445H40.6698L45.0461 21.504Z" fill="#FFC217" stroke="#231F20" stroke-width="0.5"/>
<path d="M9.99992 4.83331H37.3333C37.9776 4.83331 38.4999 5.35565 38.4999 5.99998V13.8333H8.83325V5.99998C8.83325 5.35565 9.35559 4.83331 9.99992 4.83331Z" fill="#FFC217" stroke="#231F20" stroke-width="0.5"/>
<path d="M15.511 7.71362C15.1705 7.37709 14.6596 7.21216 14.2118 7.21216C13.4045 7.21216 12.5783 7.63442 12.5783 8.58456C12.5783 9.45556 13.1649 9.73269 13.7073 9.91083C14.2686 10.0956 14.7353 10.2342 14.7353 10.7224C14.7353 11.2239 14.3001 11.4152 13.928 11.4152C13.5748 11.4152 13.1712 11.2173 12.9504 10.9006L12.3828 11.4548C12.736 11.8903 13.3351 12.1212 13.9154 12.1212C14.7921 12.1212 15.5425 11.633 15.5425 10.63C15.5425 9.71289 14.8109 9.44896 14.2371 9.26423C13.7325 9.09923 13.3856 8.97389 13.3856 8.54496C13.3856 8.08969 13.8082 7.90496 14.1739 7.90496C14.4893 7.90496 14.8236 8.07649 14.9939 8.30742L15.511 7.71362ZM17.8735 12.0025H18.6682V8.05669H20.0368V7.33089H16.5049V8.05669H17.8735V12.0025ZM20.8825 9.65349C20.8825 11.1117 21.8979 12.1212 23.2727 12.1212C24.6666 12.1212 25.682 11.1117 25.682 9.65349C25.682 8.15569 24.6666 7.21216 23.2727 7.21216C21.8979 7.21216 20.8825 8.15569 20.8825 9.65349ZM21.7465 9.65349C21.7465 8.69016 22.3583 7.94456 23.2791 7.94456C24.2062 7.94456 24.8179 8.69016 24.8179 9.65349C24.8179 10.6498 24.1935 11.3756 23.2791 11.3756C22.3709 11.3756 21.7465 10.6498 21.7465 9.65349ZM27.1807 12.0025H27.9754V10.023H28.5557L29.59 12.0025H30.5486L29.3566 9.93062C29.981 9.78542 30.3783 9.34336 30.3783 8.67036C30.3783 7.68062 29.5711 7.33089 28.7323 7.33089H27.1807V12.0025ZM27.9754 9.34336V8.03029H28.6944C29.1043 8.03029 29.5837 8.15569 29.5837 8.66376C29.5837 9.23122 29.0728 9.34336 28.625 9.34336H27.9754ZM31.8787 12.0025H34.9502V11.2635H32.6734V9.94382H34.7231V9.24442H32.6734V8.05669H34.8367V7.33089H31.8787V12.0025Z" fill="#AB8314"/>
<path d="M43.4288 24.6786H3.98438V44.9445H43.4288V24.6786Z" fill="#307CFE" stroke="black" stroke-width="0.5"/>
<path d="M17.8593 26.8095H6.11719V44.9444H17.8593V26.8095Z" fill="white" stroke="black" stroke-width="0.5"/>
<path d="M17.8333 26.8333H11.5V44.8333H17.8333V26.8333Z" fill="#183E7F" stroke="black" stroke-width="0.5"/>
<path d="M41.1667 26.8333H19.5V42.5H41.1667V26.8333Z" fill="white" stroke="black" stroke-width="0.5"/>
<path d="M2.39844 21.6815H45.0175" stroke="#231F20" stroke-width="0.5"/>
<path d="M25.8333 26.8333H19.5V42.5H25.8333V26.8333Z" fill="#183E7F" stroke="black" stroke-width="0.5"/>
<path d="M35.9426 38.6094V42.5374H40.2066V38.6094H35.9426ZM39.1114 39.9578H37.0382V39.6218H39.1114V39.9578Z" fill="#FFC217" stroke="#231F20" stroke-width="0.5" stroke-miterlimit="10"/>
<path d="M40.5426 37.9349H35.6042V38.6089H40.5426V37.9349Z" fill="#BF9211" stroke="#231F20" stroke-width="0.5" stroke-miterlimit="10"/>
<path d="M35.9426 34.0078V37.935H40.2066V34.0078H35.9426ZM39.1114 35.3562H37.0382V35.0203H39.1114V35.3562Z" fill="#FFC217" stroke="#231F20" stroke-width="0.5" stroke-miterlimit="10"/>
<path d="M40.5426 33.3333H35.6042V34.0073H40.5426V33.3333Z" fill="#BF9211" stroke="#231F20" stroke-width="0.5" stroke-miterlimit="10"/>
<path d="M31.0051 38.6094V42.5374H35.2687V38.6094H31.0051ZM34.1739 39.9578H32.1007V39.6218H34.1739V39.9578Z" fill="#FFC217" stroke="#231F20" stroke-width="0.5" stroke-miterlimit="10"/>
<path d="M25.6719 38.6094V42.5374H29.9354V38.6094H25.6719ZM28.8407 39.9578H26.7675V39.6218H28.8407V39.9578Z" fill="#FFC217" stroke="#231F20" stroke-width="0.5" stroke-miterlimit="10"/>
<path d="M35.6051 37.9349H30.6667V38.6089H35.6051V37.9349Z" fill="#BF9211" stroke="#231F20" stroke-width="0.5" stroke-miterlimit="10"/>
<path d="M30.2717 37.9349H25.3333V38.6089H30.2717V37.9349Z" fill="#BF9211" stroke="#231F20" stroke-width="0.5" stroke-miterlimit="10"/>
<path d="M31.0051 34.0078V37.935H35.2687V34.0078H31.0051ZM34.1739 35.3562H32.1007V35.0203H34.1739V35.3562Z" fill="#FFC217" stroke="#231F20" stroke-width="0.5" stroke-miterlimit="10"/>
<path d="M35.6051 33.3333H30.6667V34.0073H35.6051V33.3333Z" fill="#BF9211" stroke="#231F20" stroke-width="0.5" stroke-miterlimit="10"/>
<path d="M13.2331 41.1791C13.2184 41.4121 13.2104 41.6494 13.1819 41.8841C13.1281 42.3276 13.131 42.7773 13.0945 43.2233C13.0705 43.5173 13.0105 44.2185 12.9824 44.6591H11.9456C11.7906 43.6399 11.6625 42.0689 11.5332 41.0695C11.4853 40.6991 11.2745 40.4291 11.1196 40.1225C11.0541 39.9911 10.9936 39.8504 10.8857 39.7421C10.6031 39.1961 10.3053 38.6603 9.90894 38.1816C9.61494 37.8293 9.29581 37.4959 9.08081 37.0847V36.4171C9.08081 36.2613 9.08081 36.1051 9.08081 35.9493H12.384C12.384 36.1055 12.3915 36.2613 12.3899 36.4167C12.3899 36.4863 12.3899 36.5548 12.3827 36.6237C12.3407 37.1998 12.4516 37.7465 12.6313 38.2908C12.8568 38.9765 13.0563 39.6711 13.2612 40.3636C13.3381 40.6344 13.2499 40.9111 13.2331 41.1791Z" fill="#EEE7DF" stroke="#231F20" stroke-width="0.5" stroke-miterlimit="10"/>
<path d="M12.9736 33.634L12.9824 34.4671L12.6612 35.1218L12.3828 35.9499H9.07829C8.88656 35.2859 8.69449 34.6223 8.50216 33.9594C8.45049 33.7814 8.48029 33.5995 8.47736 33.4198C8.47276 33.1519 8.47736 32.8835 8.48076 32.6157C8.48076 32.2159 8.47276 31.8157 8.47822 31.4159C8.48229 31.2657 8.53176 31.1203 8.62016 30.9989C8.72429 30.7591 8.91409 30.6021 9.13329 30.4753L10.3629 29.7673L10.467 29.897C10.7362 30.2329 11.1721 30.3451 11.5526 30.167C11.6503 30.1151 11.7454 30.0583 11.8372 29.9965C12.1677 30.3279 12.4961 30.6617 12.8291 30.9901C12.8816 31.0383 12.923 31.0973 12.9504 31.1631C12.9778 31.2288 12.9906 31.2998 12.9878 31.371C12.9774 32.1251 12.9769 32.8798 12.9736 33.634Z" fill="#FFC217" stroke="#231F20" stroke-width="0.5" stroke-miterlimit="10"/>
<path d="M8.47846 32.6154C8.47846 32.2156 8.47053 31.8154 8.47553 31.4156C8.47966 31.2654 8.52913 31.1199 8.61746 30.9982C8.83586 30.9084 9.05086 30.821 9.29986 30.8471C9.4914 30.8672 9.68706 30.8441 9.8802 30.853C10.2905 30.871 10.6651 30.9978 10.9763 31.27C11.3315 31.5802 11.6015 31.9586 11.8471 32.3618C12.1037 32.7817 12.2801 33.2676 12.7483 33.5262C12.7731 33.5401 12.7865 33.5741 12.8055 33.5984C12.7664 33.661 12.7303 33.7244 12.6879 33.7862C12.4432 34.1347 12.1975 34.4828 11.9509 34.8305L11.0875 34.5286C10.9801 34.4974 10.8784 34.449 10.7864 34.3854C10.2611 33.9865 9.72526 33.6014 9.20286 33.1987C8.95806 33.0084 8.6826 32.8552 8.47846 32.6154Z" fill="#BF9211" stroke="#231F20" stroke-width="0.5" stroke-miterlimit="10"/>
<path d="M10.8845 39.7428C10.7509 40.5028 10.6552 41.2675 10.3054 41.976C9.9556 42.6844 9.3816 43.8656 9.0246 44.6597H8C8.24647 43.6456 8.74327 42.1678 8.9734 41.1978C9.04287 40.9136 9.07827 40.622 9.0788 40.3294C9.07253 39.2481 9.0788 38.1668 9.0788 37.0854C9.2938 37.4966 9.61507 37.83 9.90693 38.1823C10.3041 38.661 10.6019 39.1956 10.8845 39.7428Z" fill="#B0A9A5" stroke="#231F20" stroke-width="0.5" stroke-miterlimit="10"/>
<path d="M11.8369 29.996C11.7451 30.0578 11.65 30.1148 11.5521 30.1665C11.1717 30.3445 10.7358 30.2337 10.4662 29.896L10.3625 29.7667C10.2163 29.3338 10.2974 28.8874 10.2839 28.4468H12.0779C12.0779 28.7648 12.0829 29.0826 12.0821 29.401C12.0804 29.6311 11.9498 29.8108 11.8369 29.996Z" fill="#F2C89D" stroke="#231F20" stroke-width="0.5" stroke-miterlimit="10"/>
<path d="M12.8065 33.5966L12.9744 33.6339C13.2264 33.8859 13.5417 34.0538 13.8235 34.2684C14.0423 34.4335 14.2678 34.5892 14.4903 34.7492C14.0553 34.7883 13.8709 35.0298 13.8924 35.532C13.5413 35.4506 13.2175 35.2906 12.8753 35.1835C12.8047 35.1616 12.7333 35.1415 12.6624 35.1218C12.4423 34.9848 12.1782 34.9538 11.9531 34.8278C12.1989 34.4798 12.4446 34.1317 12.6901 33.7834C12.7313 33.7238 12.7674 33.6591 12.8065 33.5966Z" fill="#F2C89D" stroke="#231F20" stroke-width="0.5" stroke-miterlimit="10"/>
<path d="M12.0772 28.4466H10.2828C10.2828 28.1527 10.2757 27.8588 10.2799 27.5648C10.2828 27.3653 10.3974 27.252 10.5978 27.2494C10.9858 27.245 11.3738 27.245 11.7618 27.2494C11.9621 27.252 12.0772 27.3653 12.0801 27.5648C12.0843 27.8596 12.0784 28.1531 12.0772 28.4466Z" fill="#6D6E71" stroke="#231F20" stroke-width="0.5" stroke-miterlimit="10"/>
<path d="M15.0933 35.0526V35.6527C15.0312 35.8882 14.9535 35.942 14.7188 35.955C14.3807 35.9735 14.0838 35.9206 13.9234 35.5771C13.9129 35.5636 13.9028 35.5502 13.8923 35.5372V35.5338C13.8709 35.0299 14.0552 34.7902 14.4903 34.7511L14.7104 34.7536C14.9543 34.754 15.0312 34.8141 15.0933 35.0526Z" fill="#FFC217" stroke="#231F20" stroke-width="0.5" stroke-miterlimit="10"/>
<path d="M16.7483 36.5462H24.1063C24.5187 36.6037 24.6841 36.8217 24.7131 37.2383C24.753 37.8127 24.5343 38.3301 24.3889 38.8592C24.1529 39.7247 23.8981 40.5851 23.6515 41.4477C23.5529 41.7937 23.3446 41.9516 22.9822 41.9516H18.0858C18.0047 41.9516 17.9233 41.9579 17.8422 41.9608C17.6465 41.8768 17.4706 41.7664 17.3707 41.5665C17.145 40.7644 16.9195 39.9623 16.6941 39.1603C16.5745 38.7353 16.4451 38.3129 16.3305 37.8862C16.2465 37.5805 16.2931 37.2673 16.3036 36.9569C16.4002 36.7667 16.5598 36.6411 16.7483 36.5462Z" fill="#176CF7" stroke="#231F20" stroke-width="0.5" stroke-miterlimit="10"/>
<path d="M20.4983 36.5468H16.8906C16.8906 35.5798 16.8906 34.6127 16.8906 33.6454C16.8906 33.3515 16.9885 33.2536 17.2829 33.252L17.7893 33.2482C17.7893 33.4103 17.7922 33.5724 17.7922 33.7345C17.7922 34.1645 17.7922 34.1603 18.2336 34.1544C18.3533 34.1544 18.4016 34.1208 18.3961 33.9957C18.389 33.7466 18.3961 33.4968 18.3961 33.2474H18.9912C18.9912 33.4036 18.9941 33.5594 18.9941 33.7152C18.9941 34.1636 18.9941 34.1594 19.4354 34.1544C19.5556 34.1544 19.6034 34.1204 19.598 33.9957C19.5908 33.7462 19.598 33.4968 19.598 33.2474C19.7852 33.2474 19.9725 33.2474 20.1598 33.252C20.3811 33.2566 20.487 33.3662 20.4958 33.5879C20.5075 33.8399 20.4659 34.0977 20.5192 34.3501C20.4968 34.4212 20.4888 34.496 20.4954 34.5702L20.4983 36.5468Z" fill="#FFC217" stroke="#231F20" stroke-width="0.5" stroke-miterlimit="10"/>
<path d="M20.4971 36.5462V34.5704C20.4905 34.4962 20.4986 34.4215 20.521 34.3504C20.5756 34.2009 20.6911 34.1514 20.8406 34.1518C21.0258 34.1518 21.211 34.1518 21.3962 34.1484C21.3962 34.3105 21.3987 34.4726 21.3987 34.6343C21.3987 35.0647 21.3987 35.0605 21.84 35.0542C21.9602 35.0542 22.008 35.0206 22.0026 34.8955C21.9954 34.6464 22.0026 34.397 22.0026 34.1476H22.5984C22.5984 34.3097 22.601 34.4718 22.601 34.6339C22.601 35.0639 22.601 35.0601 23.0423 35.0538C23.1624 35.0538 23.2103 35.0198 23.2048 34.895C23.1977 34.646 23.2048 34.3962 23.2048 34.1472C23.3858 34.1472 23.5672 34.1472 23.7482 34.1514C23.9926 34.1552 24.1026 34.2618 24.103 34.5066C24.1052 35.1865 24.103 35.866 24.103 36.5458L20.4971 36.5462Z" fill="#FFC217" stroke="#231F20" stroke-width="0.5" stroke-miterlimit="10"/>
<path d="M17.3705 41.569C17.4704 41.7688 17.6463 41.8776 17.8421 41.9633C17.5492 42.1428 17.2563 42.3219 16.9631 42.5008C16.7351 42.6398 16.6789 42.7393 16.7301 42.914C16.7838 43.0958 16.8821 43.1538 17.1403 43.1538C19.3878 43.1538 21.6353 43.1526 23.8827 43.15C24.057 43.15 24.1196 43.1798 24.1112 43.3692C24.0944 43.7539 24.1066 43.7539 23.7156 43.7547C23.5216 43.7547 23.3276 43.7547 23.1336 43.7576C22.7977 43.347 22.4084 43.3474 22.0707 43.7576H18.6239C18.288 43.347 17.8987 43.3474 17.5611 43.7576C17.3679 43.7576 17.1743 43.7602 16.9807 43.7522C16.7893 43.7425 16.6059 43.6727 16.4564 43.5526C16.3069 43.4326 16.1992 43.2685 16.1485 43.0837C16.0385 42.7057 16.1636 42.3064 16.4873 42.0935C16.7733 41.9058 17.0757 41.7428 17.3705 41.569Z" fill="#BF9211" stroke="#231F20" stroke-width="0.5" stroke-miterlimit="10"/>
<path d="M22.0021 34.1483C22.0021 34.3977 21.9946 34.6472 22.0021 34.8962C22.0059 35.0222 21.9601 35.0537 21.8396 35.0549C21.3982 35.0604 21.3986 35.0646 21.3982 34.635C21.3982 34.4733 21.3982 34.3113 21.3958 34.1491C21.3958 33.9434 21.3957 33.7372 21.3995 33.5319C21.4066 33.2977 21.5047 33.0756 21.6728 32.9125C21.841 32.7494 22.066 32.6582 22.3002 32.6582C22.5345 32.6582 22.7596 32.7494 22.9277 32.9125C23.0958 33.0756 23.1938 33.2977 23.201 33.5319C23.2069 33.7372 23.204 33.9434 23.2052 34.1491C23.2052 34.3982 23.1976 34.6481 23.2052 34.8971C23.209 35.0231 23.1632 35.0545 23.0427 35.0558C22.6014 35.0617 22.6018 35.0655 22.6014 34.6359C22.6014 34.4738 22.6014 34.3117 22.5988 34.1496C22.5988 33.9564 22.6051 33.7628 22.5988 33.5701C22.5925 33.3773 22.4695 33.2543 22.2994 33.2543C22.1294 33.2543 22.0055 33.3803 22.0004 33.5701C21.9954 33.7599 22.0013 33.9551 22.0021 34.1483Z" fill="#BF9211" stroke="#231F20" stroke-width="0.5" stroke-miterlimit="10"/>
<path d="M18.3985 33.2482C18.3985 33.4976 18.3905 33.7475 18.3985 33.9965C18.4023 34.1225 18.3565 34.1535 18.236 34.1552C17.7947 34.1603 17.7951 34.1645 17.7947 33.7353C17.7947 33.5732 17.7947 33.4111 17.7917 33.249C17.7917 33.0433 17.7917 32.8375 17.7959 32.6317C17.801 32.3961 17.8981 32.1719 18.0666 32.0071C18.235 31.8423 18.4613 31.75 18.6969 31.75C18.9325 31.75 19.1588 31.8423 19.3272 32.0071C19.4956 32.1719 19.5927 32.3961 19.5979 32.6317C19.6033 32.8375 19.6008 33.0433 19.6021 33.249C19.6021 33.4985 19.5941 33.7479 19.6021 33.9973C19.6058 34.1233 19.5601 34.1544 19.4395 34.1561C18.9982 34.1611 18.9986 34.1653 18.9982 33.7168C18.9982 33.561 18.9961 33.4052 18.9953 33.249C18.9953 33.0559 19.0015 32.8627 18.9953 32.6695C18.9889 32.4763 18.8663 32.3537 18.6959 32.3537C18.5253 32.3537 18.4019 32.4797 18.3969 32.6695C18.3918 32.8593 18.3977 33.055 18.3985 33.2482Z" fill="#BF9211" stroke="#231F20" stroke-width="0.5" stroke-miterlimit="10"/>
<path d="M16.7487 36.5469C16.5606 36.6417 16.401 36.7674 16.304 36.9601C16.1159 36.6468 15.9101 36.3419 15.7438 36.0173C15.601 35.7381 15.4079 35.5974 15.0938 35.6528V35.0528C15.6397 34.9936 16.0138 35.2241 16.2591 35.7091C16.4043 35.9989 16.5841 36.268 16.7487 36.5469Z" fill="#BF9211" stroke="#231F20" stroke-width="0.5" stroke-miterlimit="10"/>
<path d="M17.5629 43.7577C17.8989 43.3475 18.289 43.3471 18.6258 43.7577C18.6829 43.898 18.7207 44.0399 18.6808 44.1928C18.5968 44.5207 18.2646 44.7219 17.948 44.6358C17.8691 44.6163 17.795 44.5809 17.7304 44.5317C17.6656 44.4825 17.6117 44.4206 17.5718 44.3499C17.5319 44.2791 17.5068 44.2009 17.4982 44.1201C17.4896 44.0393 17.4976 43.9575 17.5218 43.8799C17.5344 43.8396 17.5482 43.7989 17.5629 43.7577Z" fill="#FFC217" stroke="#231F20" stroke-width="0.5" stroke-miterlimit="10"/>
<path d="M22.0708 43.7577C22.4067 43.3475 22.7968 43.3471 23.1336 43.7577C23.1907 43.898 23.228 44.0399 23.1886 44.1928C23.1046 44.5207 22.7724 44.7219 22.4558 44.6358C22.3769 44.6163 22.3028 44.5809 22.2382 44.5317C22.1735 44.4825 22.1195 44.4206 22.0796 44.3499C22.0397 44.2791 22.0146 44.2009 22.006 44.1201C21.9974 44.0393 22.0054 43.9575 22.0296 43.8799C22.0418 43.8396 22.0569 43.7989 22.0708 43.7577Z" fill="#FFC217" stroke="#231F20" stroke-width="0.5" stroke-miterlimit="10"/>
<path d="M13.8933 35.5364C13.9038 35.5494 13.9139 35.5629 13.9244 35.5763C13.9131 35.562 13.903 35.5486 13.8933 35.5364Z" fill="#F2C89D"/>
<path d="M41.1327 14H6.46606V15.3333H41.1327V14Z" fill="#183E7F" stroke="#231F20" stroke-width="0.5"/>
</svg>
