<svg width="24" height="24" viewBox="0 0 24 24" fill="none" xmlns="http://www.w3.org/2000/svg">
<path fill-rule="evenodd" clip-rule="evenodd" d="M5.49723 12.2501C5.50774 10.8713 6.63209 9.7611 8.01088 9.76804C9.38966 9.77504 10.5027 10.8966 10.4993 12.2754C10.4958 13.6542 9.37711 14.7701 7.9983 14.7701C7.33217 14.7685 6.69406 14.5019 6.22482 14.0291C5.75559 13.5563 5.4938 12.9162 5.49723 12.2501V12.2501Z" stroke="white" stroke-width="1.5" stroke-linecap="round" stroke-linejoin="round"/>
<path d="M14.0014 9.74907C13.9001 9.74852 13.8085 9.80911 13.7694 9.90253C13.7303 9.99594 13.7513 10.1037 13.8228 10.1755C13.8942 10.2473 14.0019 10.269 14.0955 10.2304C14.1891 10.1917 14.2502 10.1005 14.2502 9.99917C14.2507 9.93292 14.2247 9.86921 14.178 9.82224C14.1312 9.77526 14.0677 9.74891 14.0014 9.74907" stroke="white" stroke-width="1.5" stroke-linecap="round" stroke-linejoin="round"/>
<path d="M17.1139 9.74907C17.0126 9.74852 16.921 9.80911 16.8818 9.90253C16.8427 9.99594 16.8638 10.1037 16.9352 10.1755C17.0066 10.2473 17.1143 10.269 17.2079 10.2304C17.3015 10.1917 17.3626 10.1005 17.3626 9.99917C17.3631 9.93292 17.3371 9.86921 17.2904 9.82224C17.2437 9.77526 17.1801 9.74891 17.1139 9.74907" stroke="white" stroke-width="1.5" stroke-linecap="round" stroke-linejoin="round"/>
<path fill-rule="evenodd" clip-rule="evenodd" d="M2.99622 20.3785V19.7532C3.00025 18.3736 4.11765 17.2562 5.49726 17.2522H10.4993C11.879 17.2562 12.9963 18.3736 13.0004 19.7532V20.3785C12.9994 20.7234 12.72 21.0027 12.3751 21.0038H3.62148C3.27657 21.0027 2.99723 20.7234 2.99622 20.3785V20.3785Z" stroke="white" stroke-width="1.5" stroke-linecap="round" stroke-linejoin="round"/>
<path d="M8.27527 5.99751C10.0323 3.48256 13.2232 2.40613 16.1446 3.34277C19.0661 4.27941 21.0362 7.01048 21.0034 10.0782C20.9706 13.146 18.9425 15.8343 16.0017 16.7083" stroke="white" stroke-width="1.5" stroke-linecap="round" stroke-linejoin="round"/>
</svg>
