<svg width="13" height="14" viewBox="0 0 13 14" fill="none" xmlns="http://www.w3.org/2000/svg">
<path fill-rule="evenodd" clip-rule="evenodd" d="M4.78957 2.88716L3.32509 2.50177C2.52276 2.29064 1.79059 3.02281 2.00173 3.82514L2.38712 5.28963L1.07913 6.05261C0.362498 6.47067 0.362499 7.50612 1.07913 7.92413L2.38712 8.68712L2.00173 10.1516C1.79059 10.9539 2.52277 11.6861 3.3251 11.475L4.78956 11.0896L5.55261 12.3976C5.97062 13.1143 7.00607 13.1143 7.42413 12.3976L8.18712 11.0896L9.65157 11.475C10.4539 11.6861 11.1861 10.9539 10.9749 10.1516L10.5896 8.68717L11.8976 7.92413C12.6143 7.50612 12.6143 6.47067 11.8976 6.05261L10.5896 5.28957L10.9749 3.82512C11.1861 3.0228 10.4539 2.29062 9.65157 2.50176L8.18712 2.88714L7.42413 1.57913C7.00607 0.862498 5.97062 0.862499 5.55261 1.57913L4.78957 2.88716Z" fill="#36B100"/>
<path d="M5.85345 8.62311C5.75216 8.62149 5.6552 8.58574 5.58197 8.52296L3.91471 7.0961C3.87669 7.06376 3.84623 7.02493 3.82512 6.98192C3.804 6.93885 3.79265 6.89254 3.79172 6.84553C3.79079 6.79856 3.80029 6.75187 3.81969 6.70821C3.83909 6.66455 3.86799 6.62474 3.9047 6.59121C3.97928 6.52307 4.08077 6.48391 4.18727 6.48223C4.29377 6.48055 4.39674 6.51646 4.47394 6.58222L5.85015 7.75948L8.49912 4.9599C8.56829 4.88781 8.66617 4.84286 8.7719 4.83469C8.87758 4.82652 8.98266 4.85577 9.06456 4.91618C9.10502 4.9461 9.13839 4.98292 9.16282 5.0245C9.1872 5.06608 9.20215 5.11159 9.2068 5.15839C9.21141 5.2052 9.20561 5.25235 9.18969 5.29712C9.17382 5.3419 9.14814 5.38339 9.11423 5.41921L6.2025 8.49755C6.16453 8.53764 6.11719 8.56981 6.06389 8.5918C6.01065 8.6138 5.95263 8.62512 5.89392 8.62501C5.88043 8.62501 5.86694 8.62436 5.85345 8.62311Z" fill="white"/>
</svg>
