<svg width="20" height="20" viewBox="0 0 20 20" fill="none" xmlns="http://www.w3.org/2000/svg">
<rect width="20" height="20" rx="8" fill="white" fill-opacity="0.1"/>
<path d="M10.3628 6.4493L10.3628 6.44929C11.5953 5.18357 13.5878 5.18357 14.8202 6.44929C16.0599 7.72247 16.0599 9.79208 14.8202 11.0653L14.8123 11.0735L14.811 11.0747L10.4469 15.5567C10.196 15.8144 9.79485 15.8144 9.54396 15.5567L5.18524 11.0803L5.18488 11.0799L5.17977 11.0747C5.1797 11.0746 5.17962 11.0745 5.17954 11.0745C3.94008 9.80127 3.94015 7.73183 5.17977 6.45873C6.41221 5.19301 8.40475 5.19302 9.63719 6.45875L9.99668 6.82795L10.3549 6.45749L10.3628 6.4493Z" stroke="#676767"/>
</svg>
