<svg width="30" height="30" viewBox="0 0 30 30" fill="none" xmlns="http://www.w3.org/2000/svg"><rect width="30" height="30" rx="2" fill="#231748A4"/><path d="M11.5868 15.152C11.5868 13.008 9.95483 12.336 8.34683 12.336H6.29883V18H8.41083C9.97083 18 11.5868 17.144 11.5868 15.152ZM10.1628 15.152C10.1628 16.416 9.25883 16.816 8.28283 16.816H7.63483V13.504H8.31483C9.25883 13.504 10.1628 13.88 10.1628 15.152Z" fill="white"/><path d="M18.3981 15.144C18.3981 13.328 17.0861 12.184 15.3101 12.184C13.5421 12.184 12.2301 13.328 12.2301 15.144C12.2301 16.936 13.5421 18.152 15.3101 18.152C17.0861 18.152 18.3981 16.936 18.3981 15.144ZM16.9341 15.144C16.9341 16.168 16.2621 16.904 15.3101 16.904C14.3581 16.904 13.6941 16.168 13.6941 15.144C13.6941 14.152 14.3501 13.416 15.3101 13.416C16.2701 13.416 16.9341 14.152 16.9341 15.144Z" fill="white"/><path d="M24.2828 17.216L23.3308 16.32C23.0908 16.656 22.6668 16.896 22.1308 16.896C21.1868 16.896 20.5228 16.192 20.5228 15.16C20.5228 14.16 21.2028 13.424 22.1548 13.424C22.5868 13.424 23.0428 13.592 23.2988 13.944L24.2268 13.016C23.7548 12.472 22.8988 12.184 22.1068 12.184C20.3788 12.184 19.0348 13.344 19.0348 15.16C19.0348 16.936 20.3388 18.152 22.0828 18.152C23.0348 18.152 23.7868 17.792 24.2828 17.216Z" fill="white"/></svg>