<svg width="100" height="86" viewBox="0 0 100 86" fill="none" xmlns="http://www.w3.org/2000/svg">
<path d="M22.4802 79.116C39.6952 88.2949 67.6068 88.2949 84.8218 79.116C102.037 69.9371 102.039 55.0505 84.8218 45.8716C67.6043 36.6926 39.6952 36.6902 22.4802 45.8716C5.26508 55.0529 5.26508 69.9347 22.4802 79.116Z" fill="#EBEBEB"/>
<path d="M89.8856 56.3413L87.3746 54.8828C87.3746 54.8828 86.7589 49.5082 87.1677 45.3465C87.7444 39.4954 91.5256 32.463 96.0344 34.1111C100.543 35.7592 93.9637 41.7318 92.5038 46.6908C91.0439 51.6497 89.8856 56.3413 89.8856 56.3413Z" fill="#176CF7"/>
<path opacity="0.1" d="M89.8856 56.3413L87.3746 54.8828C87.3746 54.8828 86.7589 49.5082 87.1677 45.3465C87.7444 39.4954 91.5256 32.463 96.0344 34.1111C100.543 35.7592 93.9637 41.7318 92.5038 46.6908C91.0439 51.6497 89.8856 56.3413 89.8856 56.3413Z" fill="black"/>
<path d="M88.5783 55.682C88.5548 55.6823 88.5321 55.6741 88.5142 55.6589C88.4963 55.6437 88.4845 55.6226 88.481 55.5994C87.6269 49.0361 89.9652 39.1157 94.6857 35.3527C94.6954 35.3449 94.7066 35.339 94.7186 35.3355C94.7306 35.332 94.7432 35.3309 94.7556 35.3322C94.7681 35.3336 94.7801 35.3374 94.7911 35.3434C94.8021 35.3494 94.8117 35.3576 94.8195 35.3673C94.8355 35.3874 94.843 35.4129 94.8403 35.4384C94.8375 35.4639 94.8248 35.4873 94.8049 35.5035C90.1356 39.2275 87.8264 49.0701 88.6732 55.5726C88.6767 55.5981 88.6699 55.6239 88.6544 55.6444C88.6389 55.6649 88.6159 55.6784 88.5905 55.682H88.5783Z" fill="white"/>
<path d="M91.2261 57.379L89.4401 56.3459C89.4401 56.3459 89.136 52.6583 90.9463 48.1782C92.5206 44.2888 96.4308 41.0412 98.3968 41.7218C100.363 42.4025 100.314 43.7953 99.3555 45.2563C98.3968 46.7172 92.5644 50.2007 91.2261 57.379Z" fill="#176CF7"/>
<path d="M90.1186 57.4738C90.106 57.4732 90.0935 57.47 90.0821 57.4645C90.0706 57.459 90.0604 57.4513 90.052 57.4418C90.0436 57.4323 90.0372 57.4212 90.0332 57.4091C90.0292 57.3971 90.0276 57.3844 90.0286 57.3717C90.6175 48.1928 95.2649 43.6787 98.0583 42.9907C98.0834 42.9848 98.1099 42.9888 98.1321 43.0019C98.1544 43.0151 98.1706 43.0363 98.1775 43.0612C98.1834 43.086 98.1793 43.1122 98.1661 43.134C98.1529 43.1558 98.1316 43.1716 98.1069 43.1779C95.1652 43.9072 90.7756 48.7932 90.2257 57.3839C90.2248 57.3969 90.2213 57.4096 90.2154 57.4212C90.2094 57.4328 90.2012 57.4431 90.1913 57.4515C90.1813 57.4599 90.1697 57.4662 90.1572 57.47C90.1447 57.4739 90.1316 57.4751 90.1186 57.4738Z" fill="white"/>
<path d="M17.5602 57.0556C17.5602 57.0556 17.8935 51.6664 14.7595 47.9715C11.6255 44.2766 7.54503 44.2911 6.19459 44.9791C4.84415 45.667 3.93656 47.6336 6.26029 49.041C8.58402 50.4485 13.5259 53.2659 14.3483 55.7794L17.5602 57.0556Z" fill="#176CF7"/>
<path opacity="0.1" d="M17.5602 57.0556C17.5602 57.0556 17.8935 51.6664 14.7595 47.9715C11.6255 44.2766 7.54503 44.2911 6.19459 44.9791C4.84415 45.667 3.93656 47.6336 6.26029 49.041C8.58402 50.4485 13.5259 53.2659 14.3483 55.7794L17.5602 57.0556Z" fill="black"/>
<path d="M16.0856 55.7063C16.0555 55.7059 16.0266 55.6946 16.0042 55.6745C15.9818 55.6544 15.9675 55.6268 15.964 55.5969C15.3192 49.634 9.35289 46.3305 6.97562 45.9561C6.95965 45.9537 6.9443 45.9482 6.93046 45.9399C6.91661 45.9316 6.90454 45.9206 6.89494 45.9076C6.88534 45.8946 6.87839 45.8799 6.87449 45.8642C6.87059 45.8486 6.86981 45.8323 6.87221 45.8163C6.87461 45.8004 6.88013 45.785 6.88846 45.7712C6.89678 45.7574 6.90776 45.7453 6.92075 45.7357C6.93374 45.7261 6.9485 45.7192 6.96417 45.7153C6.97985 45.7114 6.99615 45.7106 7.01212 45.713C9.44535 46.0947 15.5454 49.4736 16.2073 55.5702C16.209 55.5862 16.2075 55.6023 16.2028 55.6177C16.1982 55.6331 16.1906 55.6474 16.1804 55.6598C16.1703 55.6723 16.1577 55.6826 16.1435 55.6901C16.1293 55.6977 16.1138 55.7024 16.0978 55.7039L16.0856 55.7063Z" fill="white"/>
<path d="M14.925 54.3381C14.139 52.5489 13.2509 51.7468 10.696 52.1746C8.14114 52.6024 8.50612 52.5368 5.37943 51.737C4.06062 51.4016 2.57879 51.3481 1.31351 51.9169C0.245323 52.4031 -0.552774 53.3754 0.481347 54.411C1.64443 55.5681 3.37932 55.9643 4.66406 56.9828C4.95551 57.1887 5.18722 57.468 5.33563 57.7923C5.67385 58.6528 4.99741 59.6228 5.1945 60.5246C5.3916 61.4265 6.34055 61.9078 7.23112 61.9661C8.12168 62.0244 9.00007 61.7571 9.8882 61.655C10.7763 61.5529 11.7739 61.655 12.3871 62.3137C13.0441 63.0114 13.0611 64.1271 13.6719 64.8686C14.5868 65.9795 16.8351 66.2882 18.0517 65.5978L21.2368 63.7625C23.3415 60.9281 20.0201 58.682 18.2804 56.4821C17.4361 55.4101 15.397 55.4149 14.925 54.3381Z" fill="#176CF7"/>
<path d="M19.2628 62.051C19.2421 62.0515 19.2217 62.0463 19.2037 62.036C19.1857 62.0257 19.1708 62.0107 19.1607 61.9927C15.5278 56.1124 5.63678 53.137 2.13781 52.894C2.10595 52.8915 2.07636 52.8766 2.05542 52.8524C2.03447 52.8283 2.02386 52.797 2.02588 52.7651C2.02837 52.7331 2.04321 52.7033 2.06726 52.682C2.09132 52.6607 2.12271 52.6495 2.15484 52.6509C5.70005 52.894 15.686 55.9131 19.3675 61.8711C19.3838 61.899 19.3886 61.9321 19.3809 61.9634C19.3731 61.9947 19.3535 62.0218 19.3261 62.0388C19.3062 62.0476 19.2846 62.0518 19.2628 62.051Z" fill="white"/>
<path d="M7.75667 59.2796C7.73772 59.28 7.71895 59.2758 7.70199 59.2674C7.68504 59.2589 7.6704 59.2464 7.65934 59.231C7.63998 59.2052 7.63167 59.1728 7.63623 59.1409C7.6408 59.109 7.65786 59.0802 7.68368 59.0609C7.8102 58.9661 10.8274 56.754 13.7667 56.7102C13.7826 56.7099 13.7984 56.7127 13.8131 56.7186C13.8279 56.7244 13.8413 56.7332 13.8526 56.7442C13.864 56.7553 13.873 56.7686 13.8791 56.7832C13.8852 56.7978 13.8884 56.8135 13.8884 56.8293C13.8887 56.8453 13.8859 56.8612 13.8801 56.876C13.8743 56.8909 13.8656 56.9045 13.8545 56.916C13.8434 56.9275 13.8302 56.9367 13.8155 56.9431C13.8009 56.9495 13.7851 56.953 13.7692 56.9533C10.915 56.9946 7.86617 59.2335 7.83453 59.2553C7.81256 59.2729 7.78476 59.2816 7.75667 59.2796Z" fill="white"/>
<path d="M19.0378 64.1175C19.0638 64.471 19.1728 64.8134 19.3558 65.117C19.5388 65.4207 19.7908 65.677 20.0914 65.8653L49.6138 82.8935C49.9403 83.059 50.3012 83.1452 50.6673 83.1452C51.0335 83.1452 51.3944 83.059 51.7209 82.8935L92.1125 59.5937C92.4308 59.4258 92.6973 59.1743 92.8832 58.8663C93.0691 58.5583 93.1673 58.2055 93.1673 57.8459C93.1673 57.4862 93.0691 57.1334 92.8832 56.8254C92.6973 56.5174 92.4308 56.266 92.1125 56.0981L62.5926 39.0821C62.2661 38.9166 61.9051 38.8303 61.539 38.8303C61.1729 38.8303 60.8119 38.9166 60.4854 39.0821L20.0914 62.3746C19.7915 62.5624 19.5399 62.8179 19.3569 63.1207C19.1739 63.4234 19.0646 63.7649 19.0378 64.1175Z" fill="#37474F"/>
<path d="M31.2184 55.9526L20.0912 62.375C19.7729 62.5428 19.5064 62.7943 19.3205 63.1023C19.1346 63.4103 19.0364 63.7631 19.0364 64.1228C19.0364 64.4824 19.1346 64.8352 19.3205 65.1432C19.5064 65.4512 19.7729 65.7027 20.0912 65.8706L49.6135 82.8987C49.9383 83.0682 50.3009 83.1518 50.6671 83.1418V55.9526H31.2184Z" fill="#263238"/>
<path d="M18.0467 62.4085C17.7535 62.2088 17.5113 61.9431 17.3397 61.6328C17.1681 61.3224 17.0719 60.9762 17.0588 60.6218V25.4254C17.0784 25.0601 17.1841 24.7046 17.3671 24.3878C17.5502 24.071 17.8056 23.8019 18.1124 23.6023L58.504 0.302463C58.8089 0.111409 59.1601 0.00695865 59.5199 0.000335797C59.8798 -0.00628706 60.2346 0.0851666 60.5464 0.264872C60.8581 0.444578 61.1149 0.705743 61.2892 1.0203C61.4636 1.33487 61.5488 1.69093 61.5358 2.05025V37.2491C61.5158 37.6143 61.41 37.9697 61.227 38.2864C61.0439 38.6032 60.7888 38.8724 60.4822 39.0723L20.0906 62.3745C19.7765 62.54 19.4278 62.6293 19.0727 62.6352C18.7177 62.6411 18.3662 62.5635 18.0467 62.4085Z" fill="#455A64"/>
<path d="M22.0032 27.0613L17.3679 24.3873C17.1833 24.7028 17.082 25.06 17.0735 25.4253V60.6217C17.0866 60.976 17.1828 61.3223 17.3544 61.6327C17.526 61.943 17.7681 62.2087 18.0614 62.4084C18.3809 62.5622 18.7321 62.6388 19.0868 62.6321C19.4414 62.6253 19.7894 62.5354 20.1029 62.3695L24.7114 59.7126L22.0032 27.0613Z" fill="#263238"/>
<path d="M19.0378 26.5683V61.7623C19.0378 62.4333 19.5099 62.7055 20.0914 62.3701L60.483 39.0727C60.7896 38.8728 61.0447 38.6036 61.2277 38.2868C61.4108 37.9701 61.5166 37.6147 61.5366 37.2495V2.05309C61.5366 1.38218 61.0645 1.10992 60.483 1.44538L20.0914 24.7452C19.7846 24.9448 19.5292 25.2139 19.3461 25.5307C19.1631 25.8475 19.0574 26.203 19.0378 26.5683Z" fill="#37474F"/>
<path d="M20.0911 63.5901L49.6134 80.6061C49.9399 80.7716 50.3008 80.8579 50.667 80.8579C51.0331 80.8579 51.3941 80.7716 51.7206 80.6061L92.1121 57.3063C92.6961 56.9709 92.6961 56.4263 92.1121 56.0909L62.5922 39.0749C62.2657 38.9094 61.9047 38.8231 61.5386 38.8231C61.1725 38.8231 60.8115 38.9094 60.485 39.0749L20.0911 62.3747C19.5071 62.7053 19.5071 63.2498 20.0911 63.5901Z" fill="#455A64"/>
<path d="M20.6578 26.6963L59.9179 4.05287C60.2658 3.85111 60.5505 4.01398 60.5505 4.4175V34.8835C60.5382 35.1026 60.4746 35.3157 60.3647 35.5058C60.2548 35.6958 60.1018 35.8573 59.9179 35.9774L20.6578 58.6208C20.3074 58.8226 20.0251 58.6597 20.0251 58.2562V27.7902C20.0368 27.571 20.1002 27.3576 20.2102 27.1675C20.3201 26.9774 20.4735 26.816 20.6578 26.6963Z" fill="white"/>
<path d="M23.5171 62.6732L61.0106 41.0386C61.1739 40.9559 61.3544 40.9128 61.5374 40.9128C61.7205 40.9128 61.9009 40.9559 62.0642 41.0386L63.984 42.1446C64.0476 42.1662 64.1028 42.207 64.1419 42.2615C64.181 42.316 64.202 42.3814 64.202 42.4485C64.202 42.5155 64.181 42.5809 64.1419 42.6354C64.1028 42.6899 64.0476 42.7308 63.984 42.7523L26.4832 64.3846C26.3199 64.4672 26.1394 64.5103 25.9564 64.5103C25.7733 64.5103 25.5928 64.4672 25.4296 64.3846L23.5171 63.2809C23.4535 63.2594 23.3983 63.2185 23.3592 63.164C23.3201 63.1095 23.2991 63.0441 23.2991 62.9771C23.2991 62.91 23.3201 62.8447 23.3592 62.7902C23.3983 62.7357 23.4535 62.6948 23.5171 62.6732Z" fill="#263238"/>
<path d="M28.4609 65.5346L65.9521 43.8999C66.1158 43.8172 66.2966 43.7742 66.4801 43.7742C66.6635 43.7742 66.8444 43.8172 67.0081 43.8999L78.8019 50.7063C78.8655 50.7279 78.9207 50.7688 78.9598 50.8233C78.9989 50.8778 79.0199 50.9431 79.0199 51.0102C79.0199 51.0772 78.9989 51.1426 78.9598 51.1971C78.9207 51.2516 78.8655 51.2925 78.8019 51.314L41.3522 72.905C41.1885 72.9876 41.0076 73.0307 40.8242 73.0307C40.6407 73.0307 40.4598 72.9876 40.2961 72.905L28.4609 66.1301C28.4004 66.1072 28.3483 66.0665 28.3116 66.0133C28.2748 65.9601 28.2551 65.897 28.2551 65.8324C28.2551 65.7677 28.2748 65.7046 28.3116 65.6514C28.3483 65.5982 28.4004 65.5575 28.4609 65.5346Z" fill="#263238"/>
<path d="M62.0693 53.6236L63.2445 52.9454C63.2932 52.9162 63.2908 52.87 63.2445 52.8384L61.8868 52.0557C61.8578 52.0407 61.8257 52.033 61.7931 52.033C61.7605 52.033 61.7284 52.0407 61.6994 52.0557L60.5266 52.7339C60.4755 52.763 60.4779 52.8092 60.5266 52.8408L61.8843 53.6236C61.913 53.6381 61.9447 53.6457 61.9768 53.6457C62.0089 53.6457 62.0406 53.6381 62.0693 53.6236ZM59.7528 50.9496L58.58 51.6278C58.5289 51.6546 58.5314 51.7032 58.58 51.7348L59.9378 52.5175C59.9667 52.5325 59.9989 52.5402 60.0315 52.5402C60.064 52.5402 60.0962 52.5325 60.1251 52.5175L61.3004 51.8393C61.349 51.8101 61.3466 51.7615 61.3004 51.7324L59.9402 50.9496C59.9112 50.9347 59.8791 50.9269 59.8465 50.9269C59.8139 50.9269 59.7818 50.9347 59.7528 50.9496ZM55.9619 53.1374L53.9739 54.2823C53.9253 54.3115 53.9277 54.3601 53.9739 54.3917L55.3317 55.1745C55.3606 55.1894 55.3928 55.1972 55.4254 55.1972C55.4579 55.1972 55.4901 55.1894 55.519 55.1745L57.5045 54.0295C57.5556 54.0004 57.5508 53.9517 57.5045 53.9226L56.1468 53.1374C56.1183 53.1225 56.0865 53.1147 56.0543 53.1147C56.0221 53.1147 55.9904 53.1225 55.9619 53.1374ZM58.0374 51.939L56.8646 52.6172C56.8135 52.6464 56.8159 52.695 56.8646 52.7241L58.2223 53.5069C58.2513 53.5218 58.2834 53.5296 58.316 53.5296C58.3486 53.5296 58.3807 53.5218 58.4097 53.5069L59.5849 52.8287C59.6336 52.7995 59.6312 52.7533 59.5849 52.7217L58.2248 51.922C58.1958 51.907 58.1637 51.8993 58.1311 51.8993C58.0985 51.8993 58.0664 51.907 58.0374 51.922V51.939ZM53.4313 54.5959L52.2585 55.2717C52.2074 55.3009 52.2123 55.3495 52.2585 55.3811L53.6162 56.1638C53.645 56.1782 53.6766 56.1856 53.7087 56.1856C53.7408 56.1856 53.7725 56.1782 53.8012 56.1638L54.9764 55.4856C55.0251 55.4564 55.0226 55.4078 54.9764 55.3786L53.6187 54.5959C53.5897 54.581 53.5576 54.5732 53.525 54.5732C53.4924 54.5732 53.4603 54.581 53.4313 54.5959ZM51.7281 55.5853L50.5553 56.2635C50.5042 56.2902 50.509 56.3388 50.5553 56.3704L51.913 57.1532C51.942 57.1681 51.9741 57.1759 52.0067 57.1759C52.0393 57.1759 52.0714 57.1681 52.1003 57.1532L53.2756 56.475C53.3243 56.4458 53.3218 56.3972 53.2756 56.368L51.9033 55.5683C51.8743 55.5533 51.8422 55.5455 51.8096 55.5455C51.777 55.5455 51.7449 55.5533 51.7159 55.5683L51.7281 55.5853ZM57.069 58.7697L58.2418 58.0915C58.2929 58.0623 58.288 58.0161 58.2418 57.9845L56.8841 57.2018C56.8555 57.1869 56.8238 57.1791 56.7916 57.1791C56.7594 57.1791 56.7277 57.1869 56.6991 57.2018L55.5239 57.88C55.4752 57.9092 55.4777 57.9554 55.5239 57.987L56.8816 58.7697C56.9099 58.7808 56.9403 58.7855 56.9706 58.7834C57.0009 58.7813 57.0304 58.7724 57.0568 58.7575L57.069 58.7697ZM55.3511 59.7591L56.5264 59.0809C56.5751 59.0541 56.5726 59.0055 56.5264 58.9739L55.1686 58.1912C55.1397 58.1762 55.1076 58.1684 55.075 58.1684C55.0424 58.1684 55.0103 58.1762 54.9813 58.1912L53.8085 58.8694C53.7574 58.8985 53.7622 58.9472 53.8085 58.9763L55.1662 59.7591C55.1941 59.7701 55.2241 59.7748 55.254 59.7727C55.2839 59.7706 55.3129 59.7618 55.339 59.7469L55.3511 59.7591ZM53.6357 60.7484L54.811 60.0726C54.8596 60.0435 54.8572 59.9949 54.811 59.9632L53.4532 59.1805C53.4241 59.1661 53.392 59.1587 53.3595 59.1587C53.3271 59.1587 53.295 59.1661 53.2659 59.1805L52.093 59.8587C52.042 59.8879 52.0468 59.9365 52.093 59.9657L53.4484 60.7484C53.4766 60.7595 53.507 60.7642 53.5373 60.7621C53.5676 60.76 53.5971 60.7512 53.6235 60.7363L53.6357 60.7484ZM51.9325 61.7378L53.1077 61.062C53.1564 61.0328 53.1539 60.9842 53.1077 60.9526L51.75 60.1699C51.721 60.155 51.6889 60.1472 51.6563 60.1472C51.6237 60.1472 51.5916 60.155 51.5626 60.1699L50.3898 60.8457C50.3387 60.8748 50.3411 60.9234 50.3898 60.955L51.7475 61.7378C51.8006 61.755 51.8583 61.7507 51.9081 61.7256L51.9325 61.7378ZM60.3782 54.6299L61.5534 53.9517C61.6021 53.925 61.5997 53.8764 61.5534 53.8448L60.1957 53.062C60.1666 53.0477 60.1345 53.0402 60.102 53.0402C60.0695 53.0402 60.0375 53.0477 60.0083 53.062L58.8355 53.7403C58.7844 53.7694 58.7869 53.818 58.8355 53.8472L60.1933 54.6299C60.2195 54.6389 60.2472 54.6424 60.2748 54.6403C60.3024 54.6382 60.3293 54.6306 60.3538 54.6178L60.3782 54.6299ZM58.7966 57.7901L61.4147 56.2781C61.4634 56.2513 61.461 56.2027 61.4147 56.1711L58.1177 54.2702C58.0887 54.2553 58.0566 54.2475 58.024 54.2475C57.9914 54.2475 57.9593 54.2553 57.9304 54.2702L56.5775 55.0529C56.5264 55.0797 56.5313 55.1283 56.5775 55.1599L58.3245 56.1662C58.3781 56.1978 58.3805 56.2465 58.3245 56.2756L57.2223 56.8736C57.1736 56.9004 57.1761 56.949 57.2223 56.9806L58.5849 57.756C58.6129 57.7729 58.6445 57.7828 58.6771 57.7849C58.7097 57.787 58.7423 57.7813 58.7723 57.7682L58.7966 57.7901ZM50.0248 56.5746L48.852 57.2528C48.8009 57.282 48.8033 57.3282 48.852 57.3598L50.2097 58.1425C50.2387 58.1575 50.2708 58.1652 50.3034 58.1652C50.336 58.1652 50.3681 58.1575 50.3971 58.1425L51.5723 57.4643C51.621 57.4352 51.6186 57.389 51.5723 57.3574L50.2146 56.5746C50.1835 56.553 50.1471 56.5404 50.1093 56.5382C50.0715 56.5361 50.0338 56.5445 50.0005 56.5625L50.0248 56.5746ZM48.3215 57.564L47.1098 58.2422C47.0611 58.2714 47.0636 58.32 47.1098 58.3492L48.4675 59.1319C48.4965 59.1468 48.5286 59.1546 48.5612 59.1546C48.5938 59.1546 48.6259 59.1468 48.6549 59.1319L49.8301 58.4537C49.8788 58.4269 49.8764 58.3783 49.8301 58.3467L48.4627 57.5567C48.4353 57.5426 48.4052 57.5348 48.3744 57.534C48.3437 57.5331 48.3131 57.5392 48.2851 57.5518L48.3215 57.564ZM39.7031 68.6487C39.732 68.6636 39.7641 68.6714 39.7967 68.6714C39.8293 68.6714 39.8615 68.6636 39.8904 68.6487L41.0657 67.9705C41.1143 67.9438 41.1119 67.8951 41.0657 67.8635L39.7031 67.0857C39.6741 67.0708 39.642 67.063 39.6094 67.063C39.5768 67.063 39.5447 67.0708 39.5157 67.0857L38.3429 67.7639C38.2918 67.7931 38.2942 67.8417 38.3429 67.8708L39.7031 68.6487ZM34.5519 65.4692L33.3767 66.1474C33.328 66.1765 33.3304 66.2227 33.3767 66.2543L34.7344 67.0371C34.7634 67.052 34.7955 67.0598 34.8281 67.0598C34.8607 67.0598 34.8928 67.052 34.9218 67.0371L36.097 66.3589C36.1457 66.3297 36.1433 66.2835 36.097 66.2519L34.7393 65.4692C34.7113 65.4554 34.6805 65.4483 34.6493 65.4483C34.618 65.4483 34.5872 65.4554 34.5592 65.4692H34.5519ZM37.3136 67.7906C37.3426 67.8055 37.3747 67.8133 37.4073 67.8133C37.4399 67.8133 37.472 67.8055 37.501 67.7906L38.6738 67.1124C38.7249 67.0857 38.72 67.0371 38.6738 67.0055L37.3185 66.2227C37.2895 66.2078 37.2574 66.2 37.2248 66.2C37.1922 66.2 37.1601 66.2078 37.1311 66.2227L35.9559 66.9009C35.9072 66.9301 35.9097 66.9787 35.9559 67.0079L37.3136 67.7906ZM42.7324 69.2491L43.9077 68.5709C43.9563 68.5418 43.9539 68.4956 43.9077 68.464L42.5499 67.6812C42.521 67.6663 42.4889 67.6585 42.4563 67.6585C42.4237 67.6585 42.3915 67.6663 42.3626 67.6812L41.1898 68.3594C41.1387 68.3862 41.1435 68.4348 41.1898 68.4664L42.5451 69.2491C42.5748 69.2657 42.6081 69.2746 42.6421 69.275C42.6761 69.2754 42.7096 69.2674 42.7397 69.2516L42.7324 69.2491ZM40.8296 70.2215C40.8586 70.2364 40.8907 70.2442 40.9233 70.2442C40.9559 70.2442 40.988 70.2364 41.017 70.2215L42.1923 69.5433C42.2409 69.5165 42.2385 69.4679 42.1923 69.4363L40.8345 68.6536C40.8055 68.6387 40.7734 68.6309 40.7408 68.6309C40.7082 68.6309 40.6761 68.6387 40.6472 68.6536L39.4743 69.3318C39.4232 69.361 39.4257 69.4096 39.4743 69.4387L40.8296 70.2215ZM36.2673 64.4652L35.0945 65.1434C35.0434 65.1702 35.0459 65.2188 35.0945 65.2504L36.4523 66.0331C36.4812 66.048 36.5134 66.0558 36.546 66.0558C36.5785 66.0558 36.6107 66.048 36.6396 66.0331L37.8149 65.3549C37.8635 65.3257 37.8611 65.2771 37.8149 65.2479L36.4571 64.4652C36.4277 64.4533 36.3958 64.4484 36.3642 64.4509C36.3325 64.4535 36.3018 64.4634 36.2746 64.4798L36.2673 64.4652ZM44.8469 59.5184L43.6717 60.1942C43.623 60.2234 43.6254 60.272 43.6717 60.3011L45.0294 61.0863C45.0585 61.1007 45.0906 61.1081 45.1231 61.1081C45.1556 61.1081 45.1876 61.1007 45.2168 61.0863L46.3896 60.4105C46.4407 60.3814 46.4382 60.3327 46.3896 60.3011L45.0318 59.5184C45.003 59.5073 44.9721 59.5028 44.9413 59.5053C44.9106 59.5079 44.8808 59.5173 44.8542 59.533L44.8469 59.5184ZM37.9998 63.4904L36.827 64.1662C36.7759 64.1954 36.7783 64.244 36.827 64.2756L38.1847 65.0583C38.2139 65.0727 38.2459 65.0802 38.2784 65.0802C38.3109 65.0802 38.343 65.0727 38.3721 65.0583L39.5473 64.3801C39.596 64.351 39.5936 64.3023 39.5473 64.2732L38.1896 63.488C38.16 63.4736 38.1274 63.4664 38.0944 63.4668C38.0615 63.4672 38.0291 63.4753 37.9998 63.4904ZM46.5794 58.5412L45.3944 59.2145C45.3457 59.2437 45.3481 59.2923 45.3944 59.3215L46.7521 60.1042C46.7811 60.1192 46.8132 60.127 46.8458 60.127C46.8784 60.127 46.9105 60.1192 46.9395 60.1042L48.1123 59.4285C48.1634 59.3993 48.161 59.3507 48.1123 59.3191L46.7594 58.5461C46.7303 58.5305 46.698 58.522 46.6651 58.5212C46.6321 58.5203 46.5995 58.5272 46.5696 58.5412H46.5794ZM43.1485 60.5224L41.9733 61.1981C41.9246 61.2273 41.927 61.2759 41.9733 61.3075L43.331 62.0903C43.3601 62.1046 43.3922 62.1121 43.4247 62.1121C43.4572 62.1121 43.4892 62.1046 43.5184 62.0903L44.6912 61.4145C44.7423 61.3853 44.7374 61.3367 44.6912 61.3051L43.3359 60.5224C43.3055 60.5064 43.2717 60.498 43.2373 60.498C43.203 60.498 43.1692 60.5064 43.1388 60.5224H43.1485ZM41.4307 61.5117L40.2578 62.1875C40.2067 62.2167 40.2116 62.2653 40.2578 62.2969L41.6156 63.0796C41.6447 63.094 41.6768 63.1015 41.7093 63.1015C41.7417 63.1015 41.7738 63.094 41.8029 63.0796L42.9758 62.4038C43.0244 62.3747 43.022 62.3261 42.9758 62.2945L41.618 61.5117C41.5876 61.4957 41.5538 61.4874 41.5195 61.4874C41.4851 61.4874 41.4513 61.4957 41.4209 61.5117H41.4307ZM39.7031 62.5011L38.5302 63.1768C38.4791 63.206 38.484 63.2546 38.5302 63.2862L39.8856 64.069C39.9145 64.0839 39.9466 64.0917 39.9792 64.0917C40.0118 64.0917 40.0439 64.0839 40.0729 64.069L41.2482 63.3932C41.2968 63.364 41.2944 63.3154 41.2482 63.2838L39.8904 62.5011C39.8613 62.4867 39.8292 62.4792 39.7967 62.4792C39.7643 62.4792 39.7322 62.4867 39.7031 62.5011ZM48.4748 63.7165L49.6477 63.0407C49.6988 63.0115 49.6963 62.9629 49.6477 62.9313L48.2875 62.1316C48.2583 62.1172 48.2263 62.1097 48.1938 62.1097C48.1613 62.1097 48.1293 62.1172 48.1001 62.1316L46.9249 62.8074C46.8762 62.8365 46.8786 62.8851 46.9249 62.9168L48.2826 63.6995C48.3121 63.7164 48.3453 63.7257 48.3793 63.7266C48.4133 63.7274 48.447 63.7198 48.4773 63.7043L48.4748 63.7165ZM63.5487 48.7618L62.3734 49.4401C62.3248 49.4692 62.3272 49.5154 62.3734 49.547L63.7312 50.3298C63.7601 50.3447 63.7923 50.3525 63.8249 50.3525C63.8574 50.3525 63.8896 50.3447 63.9185 50.3298L65.0913 49.6515C65.1424 49.6224 65.14 49.5762 65.0913 49.5446L63.7336 48.7618C63.7049 48.7473 63.6733 48.7398 63.6411 48.7398C63.609 48.7398 63.5773 48.7473 63.5487 48.7618ZM61.4707 49.9603L60.2979 50.6385C60.2468 50.6652 60.2517 50.7138 60.2979 50.7454L61.6532 51.5282C61.6823 51.5425 61.7144 51.55 61.7469 51.55C61.7794 51.55 61.8114 51.5425 61.8406 51.5282L63.0158 50.85C63.0645 50.8208 63.062 50.7722 63.0158 50.743L61.6581 49.9603C61.6298 49.943 61.5977 49.9329 61.5647 49.9308C61.5316 49.9287 61.4985 49.9346 61.4683 49.9481L61.4707 49.9603ZM65.2641 47.7725L64.0913 48.4507C64.0402 48.4774 64.0426 48.5261 64.0913 48.5577L65.449 49.3404C65.478 49.3553 65.5101 49.3631 65.5427 49.3631C65.5753 49.3631 65.6074 49.3553 65.6364 49.3404L66.8116 48.6622C66.8603 48.633 66.8579 48.5844 66.8116 48.5552L65.4539 47.7725C65.4242 47.7531 65.3899 47.7418 65.3545 47.7397C65.3191 47.7376 65.2838 47.7447 65.2519 47.7603L65.2641 47.7725ZM56.3828 56.9222L57.5581 56.244C57.6067 56.2149 57.6043 56.1662 57.5581 56.1371L56.2003 55.3543C56.1714 55.3394 56.1392 55.3316 56.1067 55.3316C56.0741 55.3316 56.0419 55.3394 56.013 55.3543L54.8402 56.0326C54.7891 56.0593 54.7915 56.1079 54.8402 56.1395L56.1979 56.9222C56.2272 56.9345 56.2589 56.9398 56.2906 56.9377C56.3223 56.9356 56.353 56.9261 56.3804 56.9101L56.3828 56.9222ZM67.1669 46.788C67.1379 46.7731 67.1058 46.7653 67.0732 46.7653C67.0406 46.7653 67.0085 46.7731 66.9795 46.788L65.8067 47.4662C65.7556 47.4929 65.758 47.5415 65.8067 47.5732L67.1644 48.3559C67.1936 48.3703 67.2256 48.3777 67.2581 48.3777C67.2906 48.3777 67.3227 48.3703 67.3518 48.3559L68.5271 47.6777C68.5757 47.6485 68.5733 47.5999 68.5271 47.5707L67.1669 46.788ZM50.1927 62.715L51.3679 62.0392C51.4166 62.01 51.4142 61.9614 51.3679 61.9298L50.0029 61.1592C49.9739 61.1443 49.9418 61.1365 49.9092 61.1365C49.8766 61.1365 49.8445 61.1443 49.8155 61.1592L48.6427 61.835C48.5916 61.8642 48.5941 61.9128 48.6427 61.9444L50.0005 62.7271C50.0312 62.7404 50.0646 62.7463 50.0981 62.7442C50.1315 62.7421 50.1639 62.7321 50.1927 62.715ZM71.2328 50.5801L72.4081 49.9019C72.4567 49.8752 72.4543 49.8266 72.4081 49.795L71.043 49.0049C71.014 48.99 70.9819 48.9822 70.9493 48.9822C70.9167 48.9822 70.8846 48.99 70.8557 49.0049L69.6828 49.6831C69.6317 49.7123 69.6342 49.7609 69.6828 49.7901L71.0406 50.5728C71.0696 50.5897 71.1023 50.5992 71.1358 50.6005C71.1693 50.6018 71.2026 50.5948 71.2328 50.5801ZM67.583 50.4513L68.7582 49.7731C68.8069 49.7439 68.8044 49.6977 68.7582 49.6661L67.4005 48.8834C67.3715 48.8685 67.3394 48.8607 67.3068 48.8607C67.2742 48.8607 67.2421 48.8685 67.2131 48.8834L66.0403 49.5616C65.9892 49.5908 65.9916 49.637 66.0403 49.6686L67.398 50.4513C67.4251 50.467 67.4554 50.4762 67.4867 50.4783C67.5179 50.4804 67.5492 50.4753 67.5781 50.4634L67.583 50.4513ZM69.1086 47.894C69.0796 47.8791 69.0475 47.8713 69.0149 47.8713C68.9823 47.8713 68.9502 47.8791 68.9212 47.894L67.7484 48.5722C67.6973 48.599 67.6998 48.6476 67.7484 48.6792L69.1062 49.4619C69.1351 49.4769 69.1673 49.4846 69.1998 49.4846C69.2324 49.4846 69.2646 49.4769 69.2935 49.4619L70.4688 48.7837C70.5174 48.7546 70.515 48.7059 70.4688 48.6768L69.1086 47.894ZM69.4711 47.685L72.7657 49.5859C72.7947 49.6008 72.8268 49.6086 72.8594 49.6086C72.892 49.6086 72.9241 49.6008 72.9531 49.5859L74.1283 48.9077C74.177 48.8785 74.1746 48.8323 74.1283 48.8007L70.8313 46.8998C70.8024 46.8849 70.7702 46.8771 70.7376 46.8771C70.7051 46.8771 70.6729 46.8849 70.644 46.8998L69.4711 47.578C69.4079 47.6048 69.4128 47.6534 69.4663 47.685H69.4711ZM65.4904 49.8728L64.3151 50.551C64.2665 50.5801 64.2689 50.6287 64.3151 50.6579L65.6729 51.4407C65.7019 51.4556 65.734 51.4634 65.7666 51.4634C65.7992 51.4634 65.8313 51.4556 65.8602 51.4407L67.0331 50.7624C67.0842 50.7357 67.0817 50.6871 67.0331 50.6555L65.6753 49.8728C65.6477 49.8583 65.6171 49.8503 65.5858 49.8494C65.5546 49.8486 65.5236 49.8549 65.4953 49.8679L65.4904 49.8728ZM52.5773 57.3209L51.3971 57.9991C51.3485 58.0283 51.3509 58.0769 51.3971 58.1061L52.7549 58.8888C52.7839 58.9037 52.816 58.9115 52.8486 58.9115C52.8812 58.9115 52.9133 58.9037 52.9422 58.8888L54.1151 58.2106C54.1662 58.1839 54.1637 58.1352 54.1151 58.1036L52.7573 57.3209C52.729 57.3056 52.6976 57.2972 52.6654 57.2964C52.6333 57.2955 52.6014 57.3023 52.5724 57.316L52.5773 57.3209ZM69.3349 51.5695C69.3639 51.5844 69.396 51.5922 69.4286 51.5922C69.4612 51.5922 69.4933 51.5844 69.5222 51.5695L70.6975 50.8913C70.7462 50.8645 70.7437 50.8159 70.6975 50.7843L69.3398 50.0016C69.3106 49.9872 69.2786 49.9797 69.2461 49.9797C69.2136 49.9797 69.1815 49.9872 69.1524 50.0016L67.9796 50.6798C67.9285 50.709 67.9309 50.7576 67.9796 50.7867L69.3349 51.5695ZM54.2927 56.3315L53.1199 57.0098C53.0688 57.0389 53.0712 57.0851 53.1199 57.1167L54.4776 57.8995C54.5066 57.9144 54.5387 57.9222 54.5713 57.9222C54.6039 57.9222 54.636 57.9144 54.665 57.8995L55.8402 57.2212C55.8889 57.1921 55.8864 57.1459 55.8402 57.1143L54.4825 56.3315C54.453 56.3146 54.4198 56.3053 54.3858 56.3045C54.3518 56.3036 54.3181 56.3113 54.2878 56.3267L54.2927 56.3315ZM41.4307 67.6642C41.4596 67.6791 41.4917 67.6869 41.5243 67.6869C41.5569 67.6869 41.589 67.6791 41.618 67.6642L42.7933 66.986C42.8419 66.9568 42.8395 66.9107 42.7933 66.8791L41.4355 66.0963C41.4066 66.0814 41.3744 66.0736 41.3418 66.0736C41.3092 66.0736 41.2771 66.0814 41.2482 66.0963L40.0753 66.7745C40.0242 66.8037 40.0291 66.8499 40.0753 66.8815L41.4307 67.6642ZM38.8514 65.2334L37.6762 65.9116C37.6275 65.9407 37.63 65.9869 37.6762 66.0185L39.0339 66.8013C39.0629 66.8162 39.095 66.824 39.1276 66.824C39.1602 66.824 39.1923 66.8162 39.2213 66.8013L40.3941 66.1231C40.4452 66.0939 40.4428 66.0477 40.3941 66.0161L39.0364 65.2334C39.0071 65.218 38.9745 65.21 38.9415 65.21C38.9084 65.21 38.8758 65.218 38.8466 65.2334H38.8514ZM43.3359 66.6749L44.5087 65.9966C44.5573 65.9675 44.5549 65.9189 44.5087 65.8897L43.1509 65.107C43.122 65.092 43.0899 65.0842 43.0573 65.0842C43.0247 65.0842 42.9926 65.092 42.9636 65.107L41.7786 65.7779C41.7299 65.8046 41.7324 65.8532 41.7786 65.8848L43.1363 66.6676C43.1656 66.6849 43.1988 66.6946 43.2327 66.6959C43.2667 66.6971 43.3005 66.6899 43.331 66.6749H43.3359ZM45.0513 65.6855L46.2241 65.0073C46.2752 64.9781 46.2703 64.9295 46.2241 64.9003L44.8688 64.1176C44.8398 64.1027 44.8077 64.0949 44.7751 64.0949C44.7425 64.0949 44.7104 64.1027 44.6814 64.1176L43.5062 64.7934C43.4575 64.8225 43.46 64.8712 43.5062 64.9028L44.8639 65.6855C44.8937 65.7007 44.9266 65.7086 44.96 65.7086C44.9935 65.7086 45.0264 65.7007 45.0562 65.6855H45.0513ZM46.7546 64.6937L47.9274 64.0179C47.9785 63.9888 47.976 63.9401 47.9274 63.911L46.5696 63.1258C46.5405 63.1114 46.5084 63.104 46.4759 63.104C46.4435 63.104 46.4114 63.1114 46.3823 63.1258L45.207 63.8016C45.1584 63.8308 45.1608 63.8794 45.207 63.911L46.5648 64.6937C46.5946 64.7099 46.6281 64.7183 46.6621 64.7183C46.6961 64.7183 46.7295 64.7099 46.7594 64.6937H46.7546ZM40.5547 64.244L39.3794 64.9222C39.3308 64.9489 39.3332 64.9976 39.3794 65.0292L40.7372 65.8119C40.7662 65.8268 40.7983 65.8346 40.8309 65.8346C40.8635 65.8346 40.8956 65.8268 40.9245 65.8119L42.0998 65.1337C42.1485 65.1045 42.146 65.0559 42.0998 65.0267L40.7421 64.244C40.714 64.2303 40.6832 64.2231 40.652 64.2231C40.6208 64.2231 40.59 64.2303 40.562 64.244H40.5547ZM42.2701 63.2546L41.0973 63.9304C41.0462 63.9596 41.0486 64.0082 41.0973 64.0398L42.455 64.8225C42.4842 64.8369 42.5162 64.8444 42.5487 64.8444C42.5812 64.8444 42.6133 64.8369 42.6424 64.8225L43.8395 64.1492C43.8882 64.12 43.8858 64.0714 43.8395 64.0422L42.4818 63.2595C42.4512 63.2408 42.4161 63.2306 42.3803 63.2297C42.3444 63.2288 42.3089 63.2374 42.2774 63.2546H42.2701ZM49.1342 59.2972L47.976 59.973C47.9274 60.0021 47.9298 60.0508 47.976 60.0824L49.3338 60.8651C49.3629 60.8795 49.395 60.8869 49.4274 60.8869C49.4599 60.8869 49.492 60.8795 49.5211 60.8651L50.6939 60.1893C50.745 60.1602 50.7402 60.1115 50.6939 60.0799L49.3386 59.2972C49.3085 59.2806 49.2746 59.2719 49.2401 59.2719C49.2056 59.2719 49.1717 59.2806 49.1415 59.2972H49.1342ZM47.4164 60.2866L46.2436 60.9623C46.1949 60.9915 46.1973 61.0401 46.2436 61.0717L47.6013 61.8545C47.6305 61.8688 47.6625 61.8763 47.695 61.8763C47.7275 61.8763 47.7595 61.8688 47.7887 61.8545L48.9615 61.1787C49.0126 61.1495 49.0077 61.1009 48.9615 61.0693L47.6037 60.2866C47.5756 60.2733 47.5448 60.2665 47.5137 60.2665C47.4826 60.2665 47.4519 60.2733 47.4237 60.2866H47.4164ZM50.8497 58.3054L49.6793 58.9836C49.6306 59.0128 49.6331 59.0614 49.6793 59.0906L51.037 59.8757C51.0662 59.8901 51.0982 59.8976 51.1307 59.8976C51.1632 59.8976 51.1953 59.8901 51.2244 59.8757L52.3972 59.1975C52.4483 59.1708 52.4459 59.1222 52.3972 59.0906L51.0395 58.3078C51.0112 58.2939 50.9801 58.2864 50.9485 58.286C50.9169 58.2855 50.8856 58.2922 50.857 58.3054H50.8497ZM43.9855 62.2653L42.8127 62.9411C42.7616 62.9702 42.7641 63.0188 42.8127 63.0504L44.1705 63.8332C44.1996 63.8475 44.2317 63.855 44.2641 63.855C44.2966 63.855 44.3287 63.8475 44.3578 63.8332L45.5331 63.155C45.5817 63.1258 45.5793 63.0772 45.5331 63.048L44.1753 62.2628C44.1467 62.2496 44.1154 62.243 44.0838 62.2434C44.0522 62.2438 44.0212 62.2513 43.9928 62.2653H43.9855ZM45.701 61.2759L44.5282 61.9517C44.4771 61.9809 44.4819 62.0295 44.5282 62.0611L45.8859 62.8438C45.9144 62.8587 45.9461 62.8665 45.9783 62.8665C46.0106 62.8665 46.0423 62.8587 46.0708 62.8438L47.2461 62.168C47.2947 62.1389 47.2923 62.0903 47.2461 62.0587L45.8883 61.2759C45.8602 61.2627 45.8294 61.2558 45.7983 61.2558C45.7672 61.2558 45.7364 61.2627 45.7083 61.2759H45.701ZM44.4503 68.2622L45.6231 67.584C45.6718 67.5548 45.6693 67.5062 45.6231 67.477L44.2654 66.6943C44.2364 66.6794 44.2043 66.6716 44.1717 66.6716C44.1391 66.6716 44.107 66.6794 44.078 66.6943L42.9052 67.3725C42.8541 67.3993 42.859 67.4479 42.9052 67.4795L44.2629 68.2622C44.2928 68.2784 44.3263 68.2868 44.3603 68.2868C44.3942 68.2868 44.4277 68.2784 44.4576 68.2622H44.4503ZM34.3889 67.2364L33.0312 66.4537C33.0022 66.4387 32.9701 66.4309 32.9375 66.4309C32.9049 66.4309 32.8728 66.4387 32.8438 66.4537L31.6734 67.1367C31.6248 67.1659 31.6272 67.2121 31.6734 67.2437L33.0312 68.0264C33.0601 68.0413 33.0922 68.0491 33.1248 68.0491C33.1574 68.0491 33.1896 68.0413 33.2185 68.0264L34.3913 67.3482C34.4449 67.3263 34.4424 67.2777 34.3889 67.2364ZM36.9584 67.99L35.6006 67.2072C35.5719 67.1929 35.5403 67.1854 35.5082 67.1854C35.4761 67.1854 35.4444 67.1929 35.4157 67.2072L33.62 68.2549C33.5713 68.2841 33.5738 68.3327 33.62 68.3619L34.9777 69.1446C35.0067 69.1595 35.0388 69.1673 35.0714 69.1673C35.104 69.1673 35.1361 69.1595 35.1651 69.1446L36.9706 68.1042C37.0265 68.0799 37.0119 68.0313 36.9584 67.9997V67.99ZM32.3061 65.722L30.9434 64.9489C30.9145 64.934 30.8824 64.9262 30.8498 64.9262C30.8172 64.9262 30.7851 64.934 30.7561 64.9489L29.3156 65.7779C29.267 65.807 29.2694 65.8557 29.3156 65.8873L30.6734 66.67C30.7023 66.6849 30.7344 66.6927 30.767 66.6927C30.7996 66.6927 30.8318 66.6849 30.8607 66.67L32.3036 65.8386C32.362 65.8119 32.3596 65.7633 32.3061 65.7317V65.722ZM33.4132 65.0826C33.4421 65.0976 33.4743 65.1054 33.5069 65.1054C33.5394 65.1054 33.5716 65.0976 33.6005 65.0826L34.7733 64.4044C34.8244 64.3777 34.822 64.3291 34.7733 64.2975L33.4156 63.5147C33.3866 63.4998 33.3545 63.492 33.3219 63.492C33.2893 63.492 33.2572 63.4998 33.2282 63.5147L32.053 64.193C32.0043 64.2221 32.0068 64.2707 32.053 64.2999L33.4132 65.0826ZM39.3502 68.848L37.9998 68.075C37.9707 68.0607 37.9386 68.0532 37.9061 68.0532C37.8736 68.0532 37.8416 68.0607 37.8124 68.075L35.5544 69.378C35.5057 69.4071 35.5082 69.4558 35.5544 69.4849L36.9122 70.2701C36.9413 70.2845 36.9733 70.2919 37.0058 70.2919C37.0383 70.2919 37.0704 70.2845 37.0995 70.2701L39.3575 68.9672C39.4062 68.938 39.4038 68.8894 39.3502 68.8578V68.848ZM40.4768 70.4354L39.1191 69.6672C39.0901 69.6523 39.058 69.6445 39.0254 69.6445C38.9928 69.6445 38.9607 69.6523 38.9317 69.6672L37.4864 70.501C37.4377 70.5302 37.4402 70.5788 37.4864 70.6104L38.8441 71.3932C38.8733 71.4075 38.9053 71.415 38.9378 71.415C38.9703 71.415 39.0024 71.4075 39.0315 71.3932L40.4768 70.5594C40.5328 70.5253 40.5304 70.4767 40.4768 70.4451V70.4354ZM46.1706 57.7244C46.1995 57.7394 46.2317 57.7471 46.2643 57.7471C46.2968 57.7471 46.329 57.7394 46.3579 57.7244L47.5308 57.0486C47.5818 57.0195 47.577 56.9709 47.5308 56.9393L46.173 56.1565C46.1439 56.1422 46.1118 56.1347 46.0793 56.1347C46.0468 56.1347 46.0148 56.1422 45.9857 56.1565L44.8128 56.8445C44.7642 56.8736 44.7666 56.9222 44.8128 56.9514L46.1706 57.7244ZM42.7373 59.7056C42.7664 59.7199 42.7985 59.7274 42.831 59.7274C42.8635 59.7274 42.8955 59.7199 42.9247 59.7056L44.0999 59.0298C44.1486 59.0006 44.1461 58.952 44.0999 58.9204L42.7422 58.1377C42.713 58.1233 42.681 58.1158 42.6485 58.1158C42.616 58.1158 42.5839 58.1233 42.5548 58.1377L41.382 58.8135C41.3309 58.8426 41.3358 58.8912 41.382 58.9228L42.7373 59.7056ZM35.1286 64.103C35.1576 64.1179 35.1897 64.1257 35.2223 64.1257C35.2549 64.1257 35.287 64.1179 35.316 64.103L36.4888 63.4248C36.5399 63.3956 36.5374 63.3494 36.4888 63.3178L35.131 62.5351C35.1021 62.5202 35.0699 62.5124 35.0374 62.5124C35.0048 62.5124 34.9726 62.5202 34.9437 62.5351L33.7684 63.2133C33.7198 63.2425 33.7222 63.2887 33.7684 63.3203L35.1286 64.103ZM44.4552 58.7284C44.4839 58.7427 44.5155 58.7502 44.5476 58.7502C44.5797 58.7502 44.6114 58.7427 44.6401 58.7284L45.8153 58.0526C45.864 58.0234 45.8616 57.9748 45.8153 57.9432L44.4576 57.1605C44.4286 57.1455 44.3965 57.1378 44.3639 57.1378C44.3313 57.1378 44.2992 57.1455 44.2702 57.1605L43.0974 57.8362C43.0463 57.8654 43.0512 57.914 43.0974 57.9456L44.4552 58.7284ZM41.0219 60.7071C41.0508 60.722 41.083 60.7298 41.1155 60.7298C41.1481 60.7298 41.1803 60.722 41.2092 60.7071L42.3845 60.0313C42.4331 60.0021 42.4307 59.9535 42.3845 59.9219L41.0267 59.1392C40.9976 59.1248 40.9655 59.1174 40.9331 59.1174C40.9006 59.1174 40.8685 59.1248 40.8394 59.1392L39.6666 59.815C39.6155 59.8441 39.6179 59.8928 39.6666 59.9244L41.0219 60.7071ZM41.4185 70.574C41.3894 70.5596 41.3573 70.5521 41.3248 70.5521C41.2923 70.5521 41.2603 70.5596 41.2311 70.574L39.4257 71.6119C39.377 71.6411 39.3794 71.6897 39.4257 71.7213L40.7834 72.5041C40.8124 72.519 40.8445 72.5268 40.8771 72.5268C40.9097 72.5268 40.9418 72.519 40.9708 72.5041L42.7762 71.4637C42.8273 71.4345 42.8225 71.3859 42.7762 71.3543L41.4185 70.574ZM38.5594 62.1316C38.5886 62.1459 38.6206 62.1534 38.6531 62.1534C38.6856 62.1534 38.7177 62.1459 38.7468 62.1316L39.9221 61.4534C39.9707 61.4242 39.9683 61.3756 39.9221 61.3464L38.5643 60.5637C38.5353 60.5487 38.5032 60.541 38.4706 60.541C38.438 60.541 38.4059 60.5487 38.377 60.5637L37.2041 61.2419C37.153 61.2686 37.1555 61.3172 37.2041 61.3488L38.5594 62.1316ZM36.844 63.1039C36.873 63.1188 36.9051 63.1266 36.9377 63.1266C36.9703 63.1266 37.0024 63.1188 37.0314 63.1039L38.2066 62.4257C38.2553 62.3965 38.2529 62.3479 38.2066 62.3188L36.8489 61.536C36.8199 61.5211 36.7878 61.5133 36.7552 61.5133C36.7226 61.5133 36.6905 61.5211 36.6615 61.536L35.4887 62.2142C35.4376 62.241 35.44 62.2896 35.4887 62.3212L36.844 63.1039ZM73.2062 52.238C73.1772 52.2231 73.1451 52.2153 73.1125 52.2153C73.0799 52.2153 73.0478 52.2231 73.0188 52.238L70.1184 53.9007C70.0697 53.9299 70.0722 53.9785 70.1184 54.0101L71.4761 54.7928C71.5053 54.8072 71.5373 54.8146 71.5698 54.8146C71.6023 54.8146 71.6343 54.8072 71.6635 54.7928L74.5688 53.1374C74.6199 53.1082 74.6174 53.0596 74.5688 53.028L73.2062 52.238ZM69.4128 54.4257C69.3838 54.4108 69.3517 54.403 69.3191 54.403C69.2865 54.403 69.2544 54.4108 69.2254 54.4257L68.0526 55.1015C68.0015 55.1307 68.0039 55.1793 68.0526 55.2109L69.4103 55.9937C69.4395 56.008 69.4715 56.0155 69.504 56.0155C69.5365 56.0155 69.5685 56.008 69.5977 55.9937L70.7729 55.3179C70.8216 55.2887 70.8192 55.2401 70.7729 55.2085L69.4128 54.4257ZM46.173 67.2729L47.3458 66.5946C47.3969 66.5655 47.3921 66.5169 47.3458 66.4877L45.9905 65.7025C45.9614 65.6882 45.9293 65.6807 45.8968 65.6807C45.8643 65.6807 45.8323 65.6882 45.8032 65.7025L44.6279 66.3783C44.5792 66.4075 44.5817 66.4561 44.6279 66.4877L45.9857 67.2704C46.0146 67.2852 46.0466 67.2931 46.079 67.2935C46.1115 67.2939 46.1437 67.2868 46.173 67.2729ZM65.9819 56.4045C65.9528 56.3901 65.9207 56.3826 65.8882 56.3826C65.8557 56.3826 65.8237 56.3901 65.7945 56.4045L64.6193 57.0803C64.5706 57.1094 64.5731 57.158 64.6193 57.1896L65.977 57.9724C66.006 57.9873 66.0381 57.9951 66.0707 57.9951C66.1033 57.9951 66.1354 57.9873 66.1644 57.9724L67.3372 57.2966C67.3883 57.2674 67.3859 57.2188 67.3372 57.1872L65.9819 56.4045ZM74.9216 51.2486C74.8924 51.2343 74.8604 51.2268 74.8279 51.2268C74.7954 51.2268 74.7634 51.2343 74.7342 51.2486L73.5614 51.922C73.5103 51.9511 73.5127 51.9998 73.5614 52.0289L74.9191 52.8141C74.9483 52.8285 74.9803 52.8359 75.0128 52.8359C75.0453 52.8359 75.0774 52.8285 75.1065 52.8141L76.2817 52.1383C76.3304 52.1091 76.328 52.0605 76.2817 52.0289L74.9216 51.2486ZM77.9947 51.042L74.6977 49.1411C74.6688 49.1261 74.6366 49.1184 74.604 49.1184C74.5714 49.1184 74.5393 49.1261 74.5104 49.1411L73.3375 49.8193C73.2864 49.8484 73.2889 49.8971 73.3375 49.9262L76.6346 51.8272C76.6635 51.8421 76.6957 51.8499 76.7282 51.8499C76.7608 51.8499 76.793 51.8421 76.8219 51.8272L77.9972 51.149C78.0507 51.1222 78.0483 51.0736 77.9947 51.042ZM59.5704 60.1042C59.5414 60.0893 59.5093 60.0815 59.4767 60.0815C59.4441 60.0815 59.412 60.0893 59.383 60.1042L57.9377 60.938C57.889 60.9672 57.8914 61.0158 57.9377 61.045L59.2954 61.8277C59.3244 61.8426 59.3565 61.8504 59.3891 61.8504C59.4217 61.8504 59.4538 61.8426 59.4828 61.8277L60.9281 60.9939C60.9768 60.9648 60.9743 60.9162 60.9281 60.887L59.5704 60.1042ZM63.9039 57.6029C63.875 57.588 63.8428 57.5802 63.8103 57.5802C63.7777 57.5802 63.7455 57.588 63.7166 57.6029L61.9111 58.6433C61.8624 58.6725 61.8649 58.7211 61.9111 58.7503L63.2689 59.5354C63.298 59.5498 63.33 59.5573 63.3625 59.5573C63.395 59.5573 63.4271 59.5498 63.4562 59.5354L65.2617 58.495C65.3103 58.4658 65.3079 58.4172 65.2617 58.3856L63.9039 57.6029ZM55.5969 62.3941C55.5678 62.3797 55.5357 62.3723 55.5032 62.3723C55.4707 62.3723 55.4387 62.3797 55.4095 62.3941L45.7472 67.9656C45.6985 67.9948 45.701 68.0434 45.7472 68.075L47.1049 68.8578C47.1341 68.8721 47.1661 68.8796 47.1986 68.8796C47.2311 68.8796 47.2632 68.8721 47.2923 68.8578L56.9546 63.2838C57.0033 63.2546 57.0009 63.206 56.9546 63.1744L55.5969 62.3941ZM45.3919 68.2817C45.363 68.2667 45.3309 68.2589 45.2983 68.2589C45.2657 68.2589 45.2336 68.2667 45.2046 68.2817L43.7617 69.1154C43.7106 69.1446 43.713 69.1932 43.7617 69.2224L45.1194 70.0051C45.1484 70.0201 45.1805 70.0278 45.2131 70.0278C45.2457 70.0278 45.2778 70.0201 45.3068 70.0051L46.7594 69.1811C46.8081 69.1519 46.8056 69.1033 46.7594 69.0741L45.3919 68.2817ZM57.5824 61.2492C57.5533 61.2348 57.5212 61.2273 57.4887 61.2273C57.4562 61.2273 57.4242 61.2348 57.395 61.2492L55.9521 62.083C55.901 62.1121 55.9035 62.1608 55.9521 62.1924L57.3099 62.9751C57.339 62.9895 57.3711 62.9969 57.4036 62.9969C57.4361 62.9969 57.4681 62.9895 57.4972 62.9751L58.9426 62.1413C58.9937 62.1146 58.9888 62.0659 58.9426 62.0343L57.5824 61.2492ZM43.4064 69.4242C43.3773 69.4098 43.3452 69.4023 43.3128 69.4023C43.2803 69.4023 43.2482 69.4098 43.2191 69.4242L41.7737 70.2579C41.7251 70.2871 41.7275 70.3357 41.7737 70.3673L43.1315 71.1501C43.1606 71.1644 43.1927 71.1719 43.2252 71.1719C43.2576 71.1719 43.2897 71.1644 43.3188 71.1501L44.7617 70.3187C44.8128 70.2895 44.8104 70.2409 44.7617 70.2093L43.4064 69.4242ZM61.5559 58.9544C61.5267 58.9401 61.4947 58.9326 61.4622 58.9326C61.4297 58.9326 61.3976 58.9401 61.3685 58.9544L59.9256 59.7858C59.8745 59.815 59.8769 59.8636 59.9256 59.8952L61.2833 60.6779C61.3125 60.6923 61.3445 60.6998 61.377 60.6998C61.4095 60.6998 61.4416 60.6923 61.4707 60.6779L62.916 59.8441C62.9671 59.815 62.9623 59.7664 62.916 59.7348L61.5559 58.9544ZM67.6973 55.4127C67.6684 55.3978 67.6362 55.39 67.6036 55.39C67.5711 55.39 67.5389 55.3978 67.51 55.4127L66.3372 56.0885C66.2861 56.1176 66.2885 56.1662 66.3372 56.1978L67.6949 56.9806C67.724 56.9949 67.7561 57.0024 67.7886 57.0024C67.8211 57.0024 67.8531 56.9949 67.8823 56.9806L69.0575 56.3048C69.1062 56.2756 69.1037 56.227 69.0575 56.1954L67.6973 55.4127ZM71.4567 52.6853L72.6295 52.0095C72.6806 51.9803 72.6781 51.9317 72.6295 51.9001L71.2717 51.1174C71.2426 51.103 71.2105 51.0955 71.1781 51.0955C71.1456 51.0955 71.1135 51.103 71.0844 51.1174L69.9091 51.7956C69.8605 51.8247 69.8629 51.8734 69.9091 51.9025L71.2669 52.6877C71.2963 52.7024 71.3288 52.7101 71.3618 52.7101C71.3947 52.7101 71.4272 52.7024 71.4567 52.6877V52.6853ZM63.792 52.6512L64.9672 51.973C65.0159 51.9438 65.0135 51.8952 64.9672 51.8661L63.6095 51.0833C63.5805 51.0684 63.5484 51.0606 63.5158 51.0606C63.4832 51.0606 63.4511 51.0684 63.4222 51.0833L62.2493 51.7615C62.1982 51.7907 62.2031 51.8369 62.2493 51.8685L63.6046 52.6512C63.6336 52.6661 63.6657 52.6739 63.6983 52.6739C63.7309 52.6739 63.763 52.6661 63.792 52.6512ZM59.8988 59.3677L63.3297 57.389C63.3784 57.3598 63.3759 57.3112 63.3297 57.2796L61.9719 56.4968C61.9428 56.4825 61.9108 56.475 61.8783 56.475C61.8458 56.475 61.8137 56.4825 61.7846 56.4968L58.3537 58.478C58.3051 58.5047 58.3075 58.5534 58.3537 58.585L59.7115 59.3677C59.7414 59.3808 59.774 59.3865 59.8066 59.3844C59.8392 59.3823 59.8709 59.3724 59.8988 59.3555V59.3677ZM69.5539 53.6868C69.583 53.7011 69.6151 53.7086 69.6476 53.7086C69.68 53.7086 69.7121 53.7011 69.7412 53.6868L70.9141 53.011C70.9651 52.9818 70.9627 52.9332 70.9141 52.9016L69.5563 52.1189C69.5273 52.1039 69.4952 52.0962 69.4626 52.0962C69.43 52.0962 69.3979 52.1039 69.369 52.1189L68.1937 52.7946C68.145 52.8238 68.1475 52.8724 68.1937 52.904L69.5539 53.6868ZM67.802 52.571L68.9748 51.8952C69.0259 51.8661 69.0234 51.8174 68.9748 51.7858L67.617 51.0031C67.5879 50.9887 67.5558 50.9813 67.5233 50.9813C67.4909 50.9813 67.4588 50.9887 67.4297 51.0031L66.2544 51.6813C66.2058 51.7105 66.2082 51.7591 66.2544 51.7883L67.6122 52.5734C67.6427 52.586 67.6758 52.5912 67.7088 52.5887C67.7418 52.5861 67.7737 52.5759 67.802 52.5588V52.571ZM58.1834 60.3498L59.3562 59.6716C59.4073 59.6424 59.4025 59.5962 59.3562 59.5646L57.9985 58.7819C57.9695 58.7669 57.9374 58.7591 57.9048 58.7591C57.8722 58.7591 57.8401 58.7669 57.8111 58.7819L56.631 59.4576C56.5799 59.4868 56.5848 59.533 56.631 59.5646L57.9888 60.3473C58.0203 60.3653 58.0561 60.3746 58.0925 60.3742C58.1289 60.3737 58.1644 60.3636 58.1956 60.3449L58.1834 60.3498ZM65.7605 55.8673C65.7896 55.8816 65.8217 55.8891 65.8542 55.8891C65.8867 55.8891 65.9187 55.8816 65.9478 55.8673L67.1231 55.1915C67.1717 55.1623 67.1693 55.1137 67.1231 55.0821L65.7653 54.2993C65.7362 54.285 65.7042 54.2775 65.6717 54.2775C65.6392 54.2775 65.6071 54.285 65.578 54.2993L64.4052 54.9776C64.3541 55.0067 64.3565 55.0553 64.4052 55.0845L65.7605 55.8673ZM49.6039 65.2917L50.7767 64.6159C50.8278 64.5868 50.8253 64.5381 50.7767 64.5065L49.4189 63.7238C49.3898 63.7094 49.3577 63.702 49.3253 63.702C49.2928 63.702 49.2607 63.7094 49.2316 63.7238L48.0563 64.3996C48.0077 64.4287 48.0101 64.4774 48.0563 64.509L49.4141 65.2917C49.4435 65.3065 49.476 65.3141 49.509 65.3141C49.5419 65.3141 49.5744 65.3065 49.6039 65.2917ZM51.3193 64.3023L52.4945 63.6266C52.5432 63.5974 52.5408 63.5488 52.4945 63.5172L51.1392 62.7344C51.1103 62.7195 51.0781 62.7117 51.0455 62.7117C51.013 62.7117 50.9808 62.7195 50.9519 62.7344L49.7766 63.4102C49.728 63.4394 49.7304 63.488 49.7766 63.5196L51.1344 64.3023C51.1632 64.3163 51.1948 64.3236 51.2268 64.3236C51.2589 64.3236 51.2905 64.3163 51.3193 64.3023ZM47.8884 66.2811L49.0613 65.6053C49.1123 65.5761 49.1099 65.5275 49.0613 65.4959L47.7059 64.7132C47.6768 64.6988 47.6448 64.6913 47.6123 64.6913C47.5798 64.6913 47.5477 64.6988 47.5186 64.7132L46.3433 65.3889C46.2947 65.4181 46.2971 65.4667 46.3433 65.4983L47.7011 66.2811C47.73 66.296 47.7622 66.3038 47.7948 66.3038C47.8273 66.3038 47.8595 66.296 47.8884 66.2811ZM54.7501 62.3236L55.9254 61.6478C55.974 61.6187 55.9716 61.5701 55.9254 61.5385L54.5676 60.7557C54.5385 60.7413 54.5064 60.7339 54.474 60.7339C54.4415 60.7339 54.4094 60.7413 54.3803 60.7557L53.2075 61.4339C53.1564 61.4631 53.1588 61.5117 53.2075 61.5409L54.5652 62.3236C54.5939 62.3381 54.6255 62.3457 54.6577 62.3457C54.6898 62.3457 54.7215 62.3381 54.7501 62.3236ZM53.0469 63.313L54.2221 62.6372C54.2708 62.608 54.2684 62.5594 54.2221 62.5278L52.8425 61.7451C52.8135 61.7302 52.7814 61.7224 52.7488 61.7224C52.7162 61.7224 52.6841 61.7302 52.6551 61.7451L51.4823 62.4209C51.4312 62.45 51.4336 62.4986 51.4823 62.5278L52.8401 63.313C52.8701 63.3285 52.9035 63.3367 52.9374 63.3367C52.9713 63.3367 53.0046 63.3285 53.0347 63.313H53.0469ZM56.4777 61.3343L57.653 60.656C57.7016 60.6293 57.6992 60.5807 57.653 60.5491L56.2952 59.7663C56.2663 59.7514 56.2341 59.7436 56.2015 59.7436C56.169 59.7436 56.1368 59.7514 56.1079 59.7663L54.9156 60.43C54.8645 60.4591 54.8694 60.5078 54.9156 60.5369L56.2709 61.3197C56.2996 61.3381 56.3324 61.3491 56.3664 61.3517C56.4004 61.3542 56.4345 61.3482 56.4656 61.3343H56.4777ZM64.3273 46.6932C64.3563 46.7081 64.3884 46.7159 64.421 46.7159C64.4536 46.7159 64.4857 46.7081 64.5147 46.6932L65.6899 46.015C65.7386 45.9882 65.7361 45.9396 65.6899 45.908L65.3298 45.699C65.3007 45.6846 65.2686 45.6771 65.2361 45.6771C65.2036 45.6771 65.1716 45.6846 65.1424 45.699L63.9672 46.3747C63.9185 46.4039 63.921 46.4525 63.9672 46.4841L64.3273 46.6932ZM55.8864 52.1383C55.9154 52.1532 55.9475 52.161 55.9801 52.161C56.0127 52.161 56.0448 52.1532 56.0738 52.1383L57.2466 51.4625C57.2977 51.4334 57.2953 51.3847 57.2466 51.3531L55.8889 50.5704C55.8597 50.556 55.8277 50.5486 55.7952 50.5486C55.7627 50.5486 55.7307 50.556 55.7015 50.5704L54.5263 51.2462C54.4776 51.2754 54.48 51.324 54.5263 51.3556L55.8864 52.1383ZM59.3173 50.1596C59.3464 50.174 59.3785 50.1814 59.411 50.1814C59.4435 50.1814 59.4755 50.174 59.5047 50.1596L60.6799 49.4838C60.7286 49.4546 60.7261 49.406 60.6799 49.3744L59.3222 48.5917C59.2932 48.5768 59.2611 48.569 59.2285 48.569C59.1959 48.569 59.1638 48.5768 59.1348 48.5917L57.9523 49.2675C57.9012 49.2966 57.9036 49.3453 57.9523 49.3769L59.3173 50.1596ZM53.7914 53.3464C53.8206 53.3608 53.8526 53.3683 53.8851 53.3683C53.9176 53.3683 53.9497 53.3608 53.9788 53.3464L55.1516 52.6682C55.2027 52.6391 55.2003 52.5905 55.1516 52.5613L53.7939 51.7761C53.7647 51.7617 53.7327 51.7543 53.7002 51.7543C53.6677 51.7543 53.6357 51.7617 53.6065 51.7761L52.4313 52.4519C52.3826 52.4811 52.385 52.5297 52.4313 52.5613L53.7914 53.3464ZM57.6019 51.1587C57.631 51.173 57.6631 51.1805 57.6956 51.1805C57.728 51.1805 57.7601 51.173 57.7892 51.1587L58.9645 50.4829C59.0131 50.4537 59.0107 50.4051 58.9645 50.3735L57.6067 49.5908C57.5776 49.5764 57.5456 49.5689 57.5131 49.5689C57.4806 49.5689 57.4485 49.5764 57.4194 49.5908L56.2466 50.2665C56.1955 50.2957 56.1979 50.3443 56.2466 50.3759L57.6019 51.1587ZM50.3484 55.3252C50.3774 55.3401 50.4095 55.3479 50.4421 55.3479C50.4747 55.3479 50.5068 55.3401 50.5358 55.3252L51.7086 54.647C51.7597 54.6178 51.7548 54.5692 51.7086 54.54L50.3533 53.7573C50.3243 53.7423 50.2922 53.7346 50.2596 53.7346C50.227 53.7346 50.1949 53.7423 50.1659 53.7573L48.9907 54.4355C48.942 54.4622 48.9445 54.5108 48.9907 54.5424L50.3484 55.3252ZM52.0639 54.3358C52.093 54.3502 52.125 54.3576 52.1575 54.3576C52.19 54.3576 52.2221 54.3502 52.2512 54.3358L53.424 53.6576C53.4751 53.6284 53.4727 53.5798 53.424 53.5506L52.0687 52.7679C52.0398 52.753 52.0076 52.7452 51.975 52.7452C51.9424 52.7452 51.9103 52.753 51.8814 52.7679L50.7061 53.4461C50.6574 53.4729 50.6599 53.5215 50.7061 53.5531L52.0639 54.3358ZM60.8843 48.6743C60.9134 48.6887 60.9455 48.6962 60.978 48.6962C61.0105 48.6962 61.0425 48.6887 61.0717 48.6743L62.2469 47.9986C62.2956 47.9694 62.2931 47.9208 62.2469 47.8892L61.8843 47.6801C61.8552 47.6657 61.8232 47.6583 61.7907 47.6583C61.7582 47.6583 61.7261 47.6657 61.697 47.6801L60.5242 48.3559C60.4731 48.3851 60.4779 48.4337 60.5242 48.4653L60.8843 48.6743ZM66.033 45.7038C66.0615 45.7187 66.0933 45.7265 66.1255 45.7265C66.1577 45.7265 66.1894 45.7187 66.2179 45.7038L67.3932 45.0256C67.4418 44.9964 67.4394 44.9503 67.3932 44.9187L67.0331 44.7096C67.0041 44.6947 66.972 44.6869 66.9394 44.6869C66.9068 44.6869 66.8747 44.6947 66.8457 44.7096L65.6705 45.3854C65.6218 45.4145 65.6242 45.4632 65.6705 45.4948L66.033 45.7038ZM68.8823 47.3495C68.9114 47.3639 68.9435 47.3713 68.976 47.3713C69.0085 47.3713 69.0405 47.3639 69.0697 47.3495L70.2449 46.6713C70.2936 46.6421 70.2911 46.5935 70.2449 46.5643L68.8872 45.7792C68.858 45.7648 68.826 45.7573 68.7935 45.7573C68.761 45.7573 68.729 45.7648 68.6998 45.7792L67.527 46.455C67.4759 46.4841 67.4808 46.5327 67.527 46.5643L68.8823 47.3495ZM73.1721 51.6983L74.3473 51.0201C74.396 50.9934 74.3936 50.9448 74.3473 50.9132L72.9896 50.1304C72.9605 50.1161 72.9284 50.1086 72.8959 50.1086C72.8634 50.1086 72.8314 50.1161 72.8022 50.1304L71.6294 50.8086C71.5783 50.8378 71.5808 50.8864 71.6294 50.9156L72.9872 51.6983C73.0158 51.7128 73.0475 51.7204 73.0796 51.7204C73.1118 51.7204 73.1434 51.7128 73.1721 51.6983ZM62.5997 47.685C62.6289 47.6993 62.6609 47.7068 62.6934 47.7068C62.7259 47.7068 62.7579 47.6993 62.7871 47.685L63.9623 47.0092C64.011 46.98 64.0086 46.9314 63.9623 46.8998L63.5998 46.6908C63.5706 46.6764 63.5386 46.6689 63.5061 46.6689C63.4736 46.6689 63.4416 46.6764 63.4124 46.6908L62.2396 47.3665C62.1909 47.3957 62.1934 47.4443 62.2396 47.4759L62.5997 47.685ZM48.633 56.3145C48.662 56.3295 48.6941 56.3372 48.7267 56.3372C48.7593 56.3372 48.7914 56.3295 48.8204 56.3145L49.9932 55.6363C50.0418 55.6071 50.0394 55.561 49.9932 55.5294L48.6354 54.7466C48.6065 54.7317 48.5743 54.7239 48.5418 54.7239C48.5092 54.7239 48.477 54.7317 48.4481 54.7466L47.2753 55.4248C47.2266 55.454 47.229 55.5002 47.2753 55.5318L48.633 56.3145Z" fill="#455A64"/>
<path d="M55.6086 66.9691L68.4561 59.5574L76.3641 64.1177L63.5142 71.5294L55.6086 66.9691Z" fill="#263238"/>
<path d="M27.0498 29.6208L65.339 7.53648C66.086 7.10379 66.6992 7.45869 66.6992 8.32165V37.9465C66.6869 38.1657 66.6233 38.3788 66.5134 38.5688C66.4035 38.7588 66.2505 38.9204 66.0666 39.0404L26.8065 61.6863C26.4585 61.8857 26.1738 61.7228 26.1738 61.3217V31.1353C26.1913 30.832 26.2796 30.5371 26.4318 30.2741C26.5839 30.0111 26.7955 29.7874 27.0498 29.6208Z" fill="#F5F5F5"/>
<path d="M66.7114 9.0321V8.32229C66.7114 7.45933 66.0982 7.10686 65.3512 7.53712L27.0498 29.6215C26.7955 29.788 26.5839 30.0118 26.4318 30.2748C26.2796 30.5378 26.1913 30.8327 26.1738 31.1359V32.4073L66.7114 9.0321Z" fill="#176CF7"/>
<path d="M60.9979 10.6485C60.8612 10.7374 60.7475 10.8572 60.6659 10.9983C60.5843 11.1394 60.5371 11.2977 60.5283 11.4604C60.5283 11.7594 60.7376 11.881 60.9979 11.7302C61.1341 11.6416 61.2474 11.5221 61.3286 11.3814C61.4098 11.2408 61.4566 11.0829 61.4651 10.9208C61.4651 10.6218 61.2559 10.5002 60.9979 10.6485Z" fill="white"/>
<path d="M62.8578 9.57597C62.7216 9.66512 62.6083 9.78509 62.5271 9.92615C62.4459 10.0672 62.3992 10.2254 62.3906 10.3879C62.3906 10.6869 62.5999 10.806 62.8578 10.6577C62.9945 10.5688 63.1083 10.449 63.1899 10.3079C63.2715 10.1668 63.3186 10.0085 63.3274 9.8458C63.3274 9.5468 63.1182 9.42526 62.8578 9.57597Z" fill="white"/>
<path d="M64.7186 8.50166C64.5823 8.59097 64.4689 8.71092 64.3873 8.85191C64.3058 8.9929 64.2584 9.151 64.249 9.31357C64.249 9.61256 64.4607 9.73411 64.7186 9.58339C64.8551 9.4949 64.9688 9.37546 65.0504 9.23481C65.132 9.09415 65.1792 8.93624 65.1882 8.77392C65.1882 8.47492 64.9766 8.35338 64.7186 8.50166Z" fill="white"/>
<path d="M35.6285 46.9109L34.1387 46.0516L30.49 52.3651L31.9799 53.2244L35.6285 46.9109Z" fill="#37474F"/>
<path d="M35.6315 46.9091L34.8877 46.4801L31.2391 52.7936L31.9829 53.2226L35.6315 46.9091Z" fill="#263238"/>
<path d="M26.4899 64.6936C25.811 65.8726 22.5967 64.0008 23.2731 62.8388L31.6556 49.7778C31.6782 49.7424 31.7136 49.7171 31.7543 49.7072C31.7951 49.6972 31.8382 49.7034 31.8746 49.7243L33.5584 50.6967C33.5946 50.7172 33.6215 50.7509 33.6333 50.7909C33.6451 50.8308 33.6409 50.8737 33.6216 50.9106L26.4899 64.6936Z" fill="#176CF7"/>
<path opacity="0.1" d="M26.4903 64.6936L33.6196 50.9106C33.6389 50.8737 33.6431 50.8308 33.6313 50.7909C33.6195 50.7509 33.5926 50.7172 33.5564 50.6967L32.7899 50.2543L24.6167 64.7689C25.3613 65.136 26.1837 65.2259 26.4903 64.6936Z" fill="black"/>
<path d="M51.1387 33.9454C51.1387 33.8457 51.1387 33.7485 51.1241 33.6512C51.1095 33.554 51.1241 33.4592 51.1022 33.3644C51.0803 33.2696 51.1022 33.238 51.0827 33.1748C51.0657 33.0095 51.0413 32.8466 51.0146 32.6886C51.0024 32.6181 50.9902 32.5452 50.9756 32.4747C50.961 32.4042 50.9489 32.341 50.9343 32.2754C50.8929 32.0955 50.8491 31.9205 50.798 31.7527C50.7712 31.6725 50.7469 31.5923 50.7201 31.5096C50.715 31.4979 50.7109 31.4857 50.708 31.4732C50.6788 31.3954 50.652 31.32 50.6228 31.2471C50.5936 31.1742 50.5547 31.0769 50.5157 31.004C50.4768 30.9311 50.4622 30.8849 50.4306 30.8266C50.4129 30.7828 50.3918 30.7405 50.3673 30.7002C50.343 30.6491 50.3162 30.5981 50.287 30.5495C50.2578 30.5008 50.2749 30.5251 50.2676 30.5154C50.2603 30.5057 50.2165 30.4279 50.1897 30.3842C50.1629 30.3404 50.1532 30.3282 50.1362 30.3015C50.0115 30.1053 49.8715 29.9192 49.7176 29.7448L49.6398 29.6573L49.5741 29.5893C49.5473 29.5601 49.5181 29.5334 49.4889 29.5042C49.4125 29.4239 49.3312 29.3484 49.2456 29.2781C49.2042 29.2416 49.1604 29.2076 49.1166 29.176L48.9828 29.0788C48.9133 29.0279 48.841 28.9808 48.7663 28.9378L48.7079 28.9013H48.6957L45.2478 26.9129L45.2283 26.9007C44.5669 26.5322 43.8201 26.3436 43.0628 26.3538C41.9338 26.3538 40.6588 26.7233 39.3083 27.5011C34.6706 30.1751 30.9088 36.6849 30.9088 42.0377C30.9088 44.7116 31.8432 46.5834 33.3542 47.4634H33.3688L36.8191 49.4494H36.8337L36.8751 49.4713C36.9398 49.5095 37.0064 49.5443 37.0746 49.5758C37.1573 49.6171 37.2425 49.6536 37.3179 49.6876C37.3934 49.7217 37.4712 49.7484 37.5491 49.7727L37.6732 49.8092C37.7166 49.8258 37.7614 49.8388 37.807 49.8481C37.8518 49.8617 37.8973 49.873 37.9433 49.8821C37.976 49.8917 38.0093 49.899 38.043 49.904C38.1014 49.9161 38.1647 49.9283 38.2255 49.9356C38.2392 49.9379 38.2532 49.9379 38.2669 49.9356C38.3399 49.9485 38.4129 49.9583 38.4859 49.9647C39.7366 50.096 41.1916 49.7435 42.7489 48.8465C47.3891 46.1726 51.1508 39.6603 51.1508 34.31C51.1387 34.1982 51.1387 34.0718 51.1387 33.9454ZM45.5106 30.1605C45.6928 30.8257 45.7821 31.5128 45.7758 32.2024C45.7758 36.9232 42.3182 42.8982 38.2328 45.2659C37.6356 45.6205 36.9908 45.8882 36.3179 46.0608C36.1367 45.3946 36.0475 44.7068 36.0527 44.0164C36.0527 39.2957 39.5103 33.3206 43.5957 30.953C44.1906 30.5996 44.833 30.3328 45.5033 30.1605H45.5106Z" fill="#176CF7"/>
<path opacity="0.1" d="M36.6783 49.3817L33.3277 47.4516C31.8167 46.5691 30.8823 44.6925 30.8823 42.0283C30.8823 39.6412 31.6318 37.0256 32.8703 34.6239L36.3206 36.6075C35.0796 39.0092 34.3326 41.6248 34.3326 44.0119C34.3326 46.6275 35.2232 48.4774 36.6783 49.3817Z" fill="black"/>
<path opacity="0.4" d="M51.1389 33.9459C51.1389 33.8462 51.1389 33.749 51.1243 33.6517C51.1097 33.5545 51.1243 33.4597 51.1024 33.3649C51.0805 33.2701 51.1024 33.2385 51.0829 33.1753C51.0659 33.01 51.0415 32.8471 51.0148 32.6891C51.0026 32.6186 50.9904 32.5457 50.9759 32.4752C50.9613 32.4047 50.9491 32.3415 50.9345 32.2759C50.8931 32.096 50.8493 31.921 50.7982 31.7532C50.7715 31.673 50.7471 31.5928 50.7204 31.5101C50.7152 31.4984 50.7111 31.4862 50.7082 31.4737C50.679 31.3959 50.6522 31.3205 50.623 31.2476C50.5938 31.1747 50.5549 31.0774 50.516 31.0045C50.477 30.9316 50.4624 30.8854 50.4308 30.8271C50.4132 30.7833 50.392 30.741 50.3675 30.7007C50.3432 30.6496 50.3164 30.5986 50.2872 30.55C50.258 30.5013 50.2751 30.5256 50.2678 30.5159C50.2605 30.5062 50.2167 30.4284 50.1899 30.3847C50.1632 30.3409 50.1534 30.3287 50.1364 30.302C50.0117 30.1058 49.8718 29.9197 49.7179 29.7453L49.64 29.6578L49.5743 29.5898C49.5475 29.5606 49.5183 29.5339 49.4891 29.5047C49.4127 29.4244 49.3315 29.3489 49.2458 29.2786C49.2045 29.2421 49.1607 29.2081 49.1169 29.1765L48.983 29.0793C48.9135 29.0284 48.8412 28.9813 48.7665 28.9383C47.2408 28.0121 45.1166 28.1215 42.754 29.4804C38.1138 32.1543 34.3521 38.6642 34.3521 44.0169C34.3521 46.7273 35.3253 48.621 36.8704 49.4815C36.9351 49.5197 37.0017 49.5546 37.07 49.586C37.1527 49.6273 37.2379 49.6638 37.3133 49.6978C37.3887 49.7319 37.4666 49.7586 37.5444 49.7829L37.6685 49.8194C37.712 49.836 37.7568 49.849 37.8024 49.8583C37.8472 49.8719 37.8927 49.8833 37.9386 49.8923C37.9713 49.9019 38.0047 49.9092 38.0384 49.9142C38.0968 49.9263 38.1601 49.9385 38.2209 49.9458C38.2346 49.9481 38.2486 49.9481 38.2622 49.9458C38.3352 49.9588 38.4082 49.9685 38.4812 49.975C39.7319 50.1062 41.187 49.7538 42.7442 48.8568C47.3844 46.1828 51.1462 39.6705 51.1462 34.3202C51.1389 34.1987 51.1389 34.0723 51.1389 33.9459ZM41.8926 47.391C40.8512 47.9914 39.8487 48.3074 38.9922 48.3074C37.3839 48.3074 36.6442 47.2111 36.3157 46.0613C36.1345 45.3951 36.0452 44.7073 36.0504 44.0169C36.0504 39.2962 39.5081 33.3211 43.5934 30.9535C44.1907 30.5995 44.8355 30.3326 45.5084 30.161C45.8269 30.0822 46.1535 30.0406 46.4817 30.037C49.1412 30.037 49.4259 33.0367 49.4259 34.3275C49.4356 39.0385 45.978 45.0306 41.8926 47.391Z" fill="white"/>
<path opacity="0.1" d="M49.4354 34.3273C49.4354 39.0481 45.9802 45.0231 41.8924 47.3908C40.851 47.9912 39.8485 48.3072 38.992 48.3072C37.3836 48.3072 36.6439 47.2109 36.3154 46.0611C36.9884 45.8885 37.6332 45.6209 38.2304 45.2662C42.3231 42.9058 45.7734 36.9235 45.7734 32.2028C45.7796 31.5132 45.6904 30.826 45.5082 30.1608C45.8267 30.082 46.1533 30.0404 46.4814 30.0369C49.1483 30.0442 49.4354 33.0365 49.4354 34.3273Z" fill="black"/>
<path opacity="0.7" d="M47.9758 33.5033C47.9758 38.224 44.5206 44.1991 40.4328 46.5667C39.3913 47.1672 38.3889 47.4832 37.5324 47.4832C37.362 47.4836 37.1919 47.4698 37.0238 47.4418C36.695 47.036 36.4554 46.5656 36.3206 46.0611C36.1394 45.3949 36.0502 44.7071 36.0554 44.0168C36.0554 39.296 39.513 33.321 43.5984 30.9533C44.1956 30.5993 44.8405 30.3325 45.5133 30.1608C45.8319 30.082 46.1585 30.0404 46.4866 30.0369C46.6578 30.0365 46.8287 30.0503 46.9976 30.0782C47.8395 31.0676 47.9758 32.6549 47.9758 33.5033Z" fill="white"/>
<path d="M53.8569 28.5855V33.9674C53.8569 34.3709 54.1416 34.5338 54.4896 34.332L89.7957 13.9687C89.9796 13.8487 90.1326 13.6871 90.2425 13.4971C90.3524 13.3071 90.416 13.0939 90.4283 12.8748V7.48561C90.4283 7.08209 90.1436 6.91922 89.7957 7.12099L54.4896 27.4843C54.3049 27.6052 54.1513 27.768 54.0414 27.9593C53.9315 28.1506 53.8683 28.3652 53.8569 28.5855Z" fill="#E6E6E6"/>
<path d="M54.4896 27.4843L60.777 23.8599V30.7003L54.4896 34.3247C54.1416 34.5265 53.8569 34.3636 53.8569 33.9601V28.5855C53.8683 28.3651 53.9315 28.1506 54.0414 27.9593C54.1513 27.7679 54.3049 27.6052 54.4896 27.4843Z" fill="#176CF7"/>
<path d="M58.6961 26.8447C58.2995 26.6162 57.7982 26.6527 57.2848 26.9492C56.7969 27.2615 56.391 27.686 56.101 28.1872C55.811 28.6883 55.6454 29.2516 55.618 29.8298C55.6009 30.2046 55.7192 30.573 55.9514 30.8678L55.275 32.0249C55.2309 32.1077 55.2202 32.2042 55.2451 32.2946C55.27 32.385 55.3285 32.4624 55.4088 32.5111C55.4645 32.5424 55.5273 32.5591 55.5913 32.5597C55.6554 32.5597 55.7184 32.5429 55.7739 32.5109C55.8294 32.4789 55.8755 32.4328 55.9076 32.3774L56.5767 31.2203C56.649 31.2338 56.7222 31.2411 56.7957 31.2421C57.0944 31.2367 57.3865 31.1529 57.6425 30.9991C58.1295 30.6861 58.5346 30.2614 58.8241 29.7603C59.1136 29.2593 59.2791 28.6964 59.3068 28.1185C59.3141 27.5278 59.0951 27.0756 58.6961 26.8447ZM57.2848 30.3695C57.1993 30.4613 57.0852 30.5215 56.961 30.5402C56.8369 30.5589 56.7101 30.5349 56.6013 30.4723C56.4926 30.4096 56.4083 30.312 56.3623 30.1953C56.3163 30.0786 56.3112 29.9497 56.348 29.8298C56.3764 29.38 56.5087 28.9429 56.7345 28.5528C56.9604 28.1627 57.2737 27.8301 57.6498 27.5813C57.7957 27.4884 57.9636 27.4356 58.1364 27.4281C58.2077 27.4254 58.2784 27.4422 58.3408 27.4767C58.4324 27.555 58.5027 27.655 58.5452 27.7676C58.5878 27.8802 58.6012 28.0018 58.5841 28.1209C58.556 28.5705 58.4241 29.0075 58.1987 29.3976C57.9733 29.7877 57.6605 30.1203 57.2848 30.3695Z" fill="white"/>
</svg>
