<svg width="14" height="18" viewBox="0 0 14 18" fill="none" xmlns="http://www.w3.org/2000/svg">
<path fill-rule="evenodd" clip-rule="evenodd" d="M8.54343 0.0687855C8.08335 0.197243 7.75092 0.398219 7.41441 0.751275C7.18372 0.99334 6.95477 1.36736 6.88185 1.62138L6.8298 1.80256H3.67647H0.523102L0.348467 1.8931C0.221503 1.95894 0.149097 2.03311 0.0832274 2.16475C-0.0694117 2.46991 0.00506851 2.77102 0.286746 2.98724C0.393555 3.06926 0.431871 3.07035 3.61487 3.08097L6.83492 3.09172L6.8844 3.26207C6.95441 3.50305 7.04768 3.67967 7.25355 3.9613C7.68102 4.546 8.38464 4.89925 9.12478 4.9007C9.52748 4.90151 9.7764 4.84315 10.168 4.65622C10.6235 4.43875 11.0429 4.00999 11.2678 3.53174C11.3548 3.34666 11.4261 3.1716 11.4261 3.14279C11.4261 3.10101 11.6374 3.09035 12.4645 3.09035C13.6239 3.09035 13.6898 3.07832 13.8719 2.83279C14.105 2.51849 14.0036 2.07207 13.6584 1.8931C13.4906 1.80606 13.444 1.80256 12.458 1.80256H11.4321L11.3856 1.65164C11.1819 0.990925 10.5751 0.368559 9.89894 0.126776C9.49589 -0.0173757 8.93751 -0.0412402 8.54343 0.0687855ZM9.64881 1.41139C10.0346 1.61337 10.2187 1.91612 10.2438 2.38975C10.2636 2.76281 10.1989 2.96636 9.97823 3.22472C9.76102 3.4791 9.54263 3.58454 9.18936 3.60555C8.90338 3.62257 8.8624 3.6146 8.62847 3.49616C8.48621 3.42417 8.3239 3.30336 8.25646 3.21933C7.87158 2.73951 7.90708 2.03259 8.33744 1.60738C8.6828 1.26615 9.21852 1.18607 9.64881 1.41139ZM1.89591 6.59242C1.02634 6.7719 0.281619 7.51242 0.0570048 8.421C-0.0190016 8.72838 -0.0190016 9.2839 0.0570048 9.59128C0.162443 10.0178 0.373476 10.4001 0.677933 10.7162C1.1535 11.2101 1.59979 11.4161 2.26773 11.4502C2.75449 11.475 3.04407 11.4138 3.4641 11.1974C3.97646 10.9335 4.39489 10.4671 4.59884 9.93259L4.70667 9.65004H9.11394C13.3283 9.65004 13.5272 9.64678 13.6576 9.57551C14.0628 9.35409 14.1091 8.7782 13.7446 8.49235L13.6044 8.38237L9.15437 8.37178L4.70443 8.36124L4.62005 8.12324C4.36906 7.41548 3.69627 6.80514 2.95421 6.61202C2.70842 6.54803 2.16014 6.53789 1.89591 6.59242ZM2.78694 7.90246C3.02846 7.98706 3.29499 8.2354 3.41902 8.49131C3.56297 8.78834 3.56297 9.22394 3.41902 9.52098C3.20708 9.95822 2.79151 10.1996 2.31141 10.1641C1.41498 10.0979 0.95327 9.08321 1.47013 8.31516C1.74054 7.91341 2.30933 7.73513 2.78694 7.90246ZM6.41638 13.1742C5.6872 13.3702 5.01206 13.9914 4.77465 14.6848L4.70033 14.9018L2.55449 14.9219C0.9274 14.9372 0.387762 14.9543 0.322206 14.9929C0.173441 15.0804 0.0282773 15.3141 0.00992143 15.4956C-0.0155576 15.7478 0.122483 16.002 0.348467 16.1192C0.523063 16.2097 0.523533 16.2097 2.61238 16.2097H4.70162L4.72459 16.3001C4.73723 16.3498 4.81645 16.5319 4.9006 16.7048C5.17261 17.2636 5.68207 17.696 6.3381 17.9249C6.49896 17.981 6.6671 18 7.00345 18C7.33981 18 7.50795 17.981 7.6688 17.9249C8.32484 17.696 8.8343 17.2636 9.10631 16.7048C9.19046 16.5319 9.26968 16.3498 9.28232 16.3001L9.30529 16.2097H11.3945C13.4834 16.2097 13.4838 16.2097 13.6584 16.1192C13.8844 16.002 14.0225 15.7478 13.997 15.4956C13.9786 15.3141 13.8335 15.0804 13.6847 14.9929C13.6191 14.9543 13.0789 14.9372 11.4494 14.9219L9.30048 14.9018L9.23273 14.6968C8.99974 13.9918 8.31822 13.3658 7.57252 13.1717C7.2822 13.0961 6.70197 13.0974 6.41638 13.1742ZM7.50106 14.5054C8.20214 14.8458 8.35623 15.8221 7.79925 16.3949C7.58063 16.6197 7.35053 16.7111 7.00345 16.7111C6.65638 16.7111 6.42628 16.6197 6.20766 16.3949C5.78888 15.9642 5.7531 15.2563 6.12746 14.8066C6.48018 14.3828 7.00956 14.2668 7.50106 14.5054Z" fill="white"/>
</svg>
