<svg width="30" height="30" viewBox="0 0 30 30" fill="none" xmlns="http://www.w3.org/2000/svg"><rect width="30" height="30" rx="2" fill="#23F71717"/><path d="M11.1488 14.1C11.1488 12.48 9.92881 11.92 8.37881 11.92H5.77881V19H7.48881V16.33H8.33881C9.81881 16.33 11.1488 15.74 11.1488 14.1ZM9.43881 14.11C9.43881 14.78 8.84881 14.97 8.20881 14.97H7.48881V13.3H8.23881C8.84881 13.3 9.43881 13.43 9.43881 14.11Z" fill="white"/><path d="M18.7853 15.44C18.7853 12.76 16.7453 11.92 14.7353 11.92H12.1753V19H14.8153C16.7653 19 18.7853 17.93 18.7853 15.44ZM17.0053 15.44C17.0053 17.02 15.8753 17.52 14.6553 17.52H13.8453V13.38H14.6953C15.8753 13.38 17.0053 13.85 17.0053 15.44Z" fill="white"/><path d="M24.5794 13.38V11.92H19.9194V19H21.6094V16.25H24.3494V14.84H21.6094V13.38H24.5794Z" fill="white"/></svg>