<svg width="20" height="20" viewBox="0 0 20 20" fill="none" xmlns="http://www.w3.org/2000/svg">
<g clip-path="url(#clip0_7_327)">
<path fill-rule="evenodd" clip-rule="evenodd" d="M8.84311 14.196C5.43196 14.196 2.66667 11.4307 2.66667 8.01958C2.66667 4.60843 5.43196 1.84314 8.84311 1.84314C12.2543 1.84314 15.0196 4.60843 15.0196 8.01958C15.0196 9.65055 14.3874 11.1339 13.3547 12.2379L16.4861 16.1521C16.7703 16.5073 16.7127 17.0255 16.3575 17.3097C16.0024 17.5938 15.4841 17.5362 15.2 17.1811L12.0799 13.281C11.1387 13.8612 10.03 14.196 8.84311 14.196ZM8.84312 12.549C11.3446 12.549 13.3725 10.5211 13.3725 8.01958C13.3725 5.51807 11.3446 3.49019 8.84312 3.49019C6.3416 3.49019 4.31372 5.51807 4.31372 8.01958C4.31372 10.5211 6.3416 12.549 8.84312 12.549Z" fill="#176CF7"/>
</g>
<defs>
<clipPath id="clip0_7_327">
<rect width="20" height="20" fill="white"/>
</clipPath>
</defs>
</svg>
