<svg width="18" height="18" viewBox="0 0 18 18" fill="none" xmlns="http://www.w3.org/2000/svg">
<path fill-rule="evenodd" clip-rule="evenodd" d="M15.5129 2.26098L2.35224 7.23646C2.32165 7.25096 2.29581 7.27385 2.27771 7.30246C2.25961 7.33108 2.25 7.36424 2.25 7.39809C2.25 7.43195 2.25961 7.46511 2.27771 7.49372C2.29581 7.52233 2.32165 7.54522 2.35224 7.55973L7.98703 9.9708C8.00801 9.97935 8.02707 9.992 8.04309 10.008C8.05911 10.024 8.07176 10.0431 8.08031 10.0641L10.4914 15.695C10.5059 15.7256 10.5288 15.7515 10.5574 15.7696C10.586 15.7877 10.6192 15.7973 10.653 15.7973C10.6869 15.7973 10.72 15.7877 10.7486 15.7696C10.7773 15.7515 10.8001 15.7256 10.8147 15.695L15.7377 2.4833C15.7502 2.4524 15.7532 2.41853 15.7466 2.3859C15.7399 2.35327 15.7238 2.32332 15.7002 2.29977C15.6767 2.27622 15.6467 2.26011 15.6141 2.25344C15.5815 2.24677 15.5476 2.24984 15.5167 2.26226L15.5129 2.26098Z" stroke="#FFFFFF" stroke-width="1.5" stroke-linecap="round" stroke-linejoin="round"/>
<path d="M15.692 2.30298L8.04221 9.95275" stroke="#FFFFFF" stroke-width="1.5" stroke-linecap="round" stroke-linejoin="round"/>
</svg>
