<svg width="30" height="30" viewBox="0 0 30 30" fill="none" xmlns="http://www.w3.org/2000/svg"><rect width="30" height="30" rx="2" fill="#23FFBE00"/><path d="M13.0063 19V17.52H9.48627L12.9363 13.29V11.92H7.50627V13.37H10.7963L7.42627 17.52V19H13.0063Z" fill="white"/><path d="M15.8339 19V11.92H14.1139V19H15.8339Z" fill="white"/><path d="M22.6675 14.1C22.6675 12.48 21.4475 11.92 19.8975 11.92H17.2975V19H19.0075V16.33H19.8575C21.3375 16.33 22.6675 15.74 22.6675 14.1ZM20.9575 14.11C20.9575 14.78 20.3675 14.97 19.7275 14.97H19.0075V13.3H19.7575C20.3675 13.3 20.9575 13.43 20.9575 14.11Z" fill="white"/></svg>