<svg width="16" height="17" viewBox="0 0 16 17" fill="none" xmlns="http://www.w3.org/2000/svg">
<g clip-path="url(#clip0_739_19100)">
<path d="M8.35555 1.27246H7.59786C7.023 1.34651 6.47521 1.55865 6.00235 1.89035C5.52949 2.22205 5.14595 2.66322 4.88522 3.17532C4.62449 3.68743 4.49451 4.25488 4.50664 4.82812C4.51876 5.40136 4.67262 5.96294 4.95478 6.46381L7.59447 11.3207C7.63115 11.3899 7.68629 11.4479 7.7539 11.4884C7.82152 11.5288 7.89904 11.5502 7.97806 11.5502C8.05709 11.5502 8.1346 11.5288 8.20222 11.4884C8.26983 11.4479 8.32497 11.3899 8.36165 11.3207L11 6.47855C11.2813 5.97643 11.4345 5.414 11.4462 4.84006C11.458 4.26612 11.3279 3.69801 11.0674 3.18505C10.8068 2.67209 10.4236 2.22976 9.95104 1.89647C9.47847 1.56317 8.93079 1.34897 8.35555 1.27246Z" stroke="#176CF7" stroke-linecap="round" stroke-linejoin="bevel"/>
<path fill-rule="evenodd" clip-rule="evenodd" d="M5.40688 7.29562L5.33345 7.25195L5.07791 7.40389L3.74458 8.19669L3.55439 8.30977L3.51019 8.52658L2.17686 15.0671L1.95117 16.1742L2.92232 15.5968L5.33345 14.1631L7.74458 15.5968L8.00011 15.7487L8.25565 15.5968L10.6668 14.1631L13.0779 15.5968L14.0491 16.1742L13.8234 15.0671L12.49 8.52658L12.4458 8.30977L12.2557 8.19669L10.9223 7.40389L10.6668 7.25195L10.5367 7.32929L9.599 9.05027L10.6668 8.41537L11.5544 8.94314L12.6178 14.1598L10.9223 13.1516L10.6668 12.9997L10.4112 13.1516L8.00011 14.5853L5.58899 13.1516L5.33345 12.9997L5.07791 13.1516L3.38239 14.1598L4.44584 8.94314L5.33345 8.41537L6.3411 9.01451L5.40688 7.29562Z" fill="#176CF7"/>
<path d="M9.22039 4.67076C9.22039 3.99073 8.663 3.43945 7.97543 3.43945C7.28786 3.43945 6.73047 3.99073 6.73047 4.67076C6.73047 5.3508 7.28786 5.90207 7.97543 5.90207C8.663 5.90207 9.22039 5.3508 9.22039 4.67076Z" stroke="#176CF7" stroke-linecap="round" stroke-linejoin="bevel"/>
</g>
<defs>
<clipPath id="clip0_739_19100">
<rect width="16" height="16" fill="white" transform="translate(0 0.5)"/>
</clipPath>
</defs>
</svg>
