<svg width="16" height="17" viewBox="0 0 16 17" fill="none" xmlns="http://www.w3.org/2000/svg">
<path d="M7.99949 4.16455V5.83191" stroke="#176CF7" stroke-linecap="round" stroke-linejoin="round"/>
<path d="M6.33203 7.83286V6.49898C6.33203 6.13063 6.63063 5.83203 6.99898 5.83203H8.99981C9.36815 5.83203 9.66675 6.13063 9.66675 6.49898V7.83286" stroke="#176CF7" stroke-linecap="round" stroke-linejoin="round"/>
<path d="M4.66406 13.8355V8.49995C4.66406 8.13161 4.96266 7.83301 5.33101 7.83301H9.66615" stroke="#176CF7" stroke-linecap="round" stroke-linejoin="round"/>
<path d="M6.33203 9.83396H8.66634" stroke="#176CF7" stroke-linecap="round" stroke-linejoin="round"/>
<path d="M6.33203 11.8344H7.99939" stroke="#176CF7" stroke-linecap="round" stroke-linejoin="round"/>
<path d="M7.33165 13.8356H4.66387C3.1905 13.8356 1.99609 12.6412 1.99609 11.1678V4.49834C1.99609 3.02497 3.1905 1.83057 4.66387 1.83057H11.3333C12.8067 1.83057 14.0011 3.02497 14.0011 4.49834V7.16612" stroke="#176CF7" stroke-linecap="round" stroke-linejoin="round"/>
<path fill-rule="evenodd" clip-rule="evenodd" d="M14.3346 15.1693H9.99949C9.81532 15.1693 9.66602 15.02 9.66602 14.8358V14.565C9.66821 13.7946 10.2922 13.1707 11.0626 13.1685H13.2715C14.0419 13.1707 14.6659 13.7946 14.6681 14.565V14.8358C14.6681 15.02 14.5188 15.1693 14.3346 15.1693Z" stroke="#176CF7" stroke-linecap="round" stroke-linejoin="round"/>
<path fill-rule="evenodd" clip-rule="evenodd" d="M12.1672 11.5013C11.431 11.4998 10.8352 10.9022 10.8359 10.1661C10.8367 9.42989 11.4337 8.8335 12.1698 8.8335C12.906 8.8335 13.503 9.42989 13.5037 10.1661C13.5045 10.9022 12.9087 11.4998 12.1725 11.5013H12.1672Z" stroke="#176CF7" stroke-linecap="round" stroke-linejoin="round"/>
</svg>
