<svg width="20" height="20" viewBox="0 0 20 20" fill="none" xmlns="http://www.w3.org/2000/svg">
<path d="M15.8884 18.699L18.3742 16.2117C18.5723 16.0179 18.7297 15.7863 18.8372 15.5308C18.9446 15.2752 19 15.0007 19 14.7235C19 14.4462 18.9446 14.1717 18.8372 13.9162C18.7297 13.6606 18.5723 13.4291 18.3742 13.2353L16.9597 11.8199C16.7665 11.6264 16.5371 11.4728 16.2846 11.3681C16.0321 11.2633 15.7614 11.2094 15.488 11.2094C15.2147 11.2094 14.944 11.2633 14.6915 11.3681C14.439 11.4728 14.2096 11.6264 14.0164 11.8199L13.0803 12.7461C10.6704 11.301 8.65249 9.28536 7.20409 6.87648L8.14012 5.95024C8.33352 5.75693 8.48695 5.52737 8.59163 5.27469C8.69631 5.02201 8.75019 4.75116 8.75019 4.47763C8.75019 4.20409 8.69631 3.93324 8.59163 3.68056C8.48695 3.42788 8.33352 3.19832 8.14012 3.00501L6.75687 1.61046C6.56368 1.41693 6.33427 1.26341 6.08175 1.15866C5.82924 1.05391 5.55856 1 5.28521 1C5.01185 1 4.74117 1.05391 4.48866 1.15866C4.23614 1.26341 4.00673 1.41693 3.81354 1.61046L1.30704 4.09777C1.13668 4.26712 1.03014 4.49024 1.00549 4.72926C0.980848 4.96829 1.03962 5.20848 1.17183 5.40907C4.7015 10.7308 9.2597 15.292 14.578 18.8239C14.7773 18.9575 15.0167 19.0181 15.2555 18.9953C15.4943 18.9726 15.7179 18.8679 15.8884 18.699Z" stroke="#176CF7" stroke-width="1.5" stroke-linecap="round" stroke-linejoin="round"/>
</svg>
