<svg width="16" height="17" viewBox="0 0 16 17" fill="none" xmlns="http://www.w3.org/2000/svg">
<g clip-path="url(#clip0_744_16566)">
<path d="M10.625 4.125V1.5H2.75V13.75H1V14.625H7.125V10.25H8.875V8.5H13.25V4.125H10.625ZM6.25 10.25H4.5V8.5H6.25V10.25ZM6.25 7.625H4.5V5.875H6.25V7.625ZM6.25 5H4.5V3.25H6.25V5ZM8.875 7.625H7.125V5.875H8.875V7.625ZM8.875 5H7.125V3.25H8.875V5ZM12.375 7.625H10.625V5.875H12.375V7.625ZM13.25 11.125H15V15.5H8V11.125H9.75V9.375H13.25V11.125Z" fill="#176CF7"/>
</g>
<defs>
<clipPath id="clip0_744_16566">
<rect width="14" height="14" fill="white" transform="translate(1 1.5)"/>
</clipPath>
</defs>
</svg>
