<svg width="16" height="17" viewBox="0 0 16 17" fill="none" xmlns="http://www.w3.org/2000/svg">
<path d="M10 4.1665C10 5.25884 11.192 6.42571 11.872 7.00274C12.1406 7.22109 12.5254 7.22109 12.794 7.00274C13.4747 6.42571 14.6667 5.25884 14.6667 4.1665" stroke="#176CF7" stroke-linecap="round" stroke-linejoin="round"/>
<path d="M12.3335 4.1335C12.3519 4.13357 12.3667 4.14852 12.3667 4.16691C12.3666 4.18531 12.3517 4.20019 12.3333 4.20016C12.3149 4.20014 12.3 4.18522 12.3 4.16683C12.3 4.15795 12.3035 4.14943 12.3098 4.14316C12.316 4.1369 12.3246 4.13341 12.3335 4.1335" stroke="#176CF7" stroke-linecap="round" stroke-linejoin="round"/>
<path d="M10 4.16683V4.16683C10 2.87816 11.0447 1.8335 12.3333 1.8335V1.8335C13.622 1.8335 14.6667 2.87816 14.6667 4.16683V4.16683" stroke="#176CF7" stroke-linecap="round" stroke-linejoin="round"/>
<path d="M2.3418 11.1668H13.6573" stroke="#176CF7" stroke-linecap="round" stroke-linejoin="round"/>
<path d="M8.00448 3.1665C6.53068 3.1665 5.33594 5.8528 5.33594 9.1665C5.33594 12.4802 6.53068 15.1665 8.00448 15.1665" stroke="#176CF7" stroke-linecap="round" stroke-linejoin="round"/>
<path d="M8.00285 7.16683H2.3418" stroke="#176CF7" stroke-linecap="round" stroke-linejoin="round"/>
<path d="M14 9.1665C14 12.4802 11.3137 15.1665 8 15.1665C4.68629 15.1665 2 12.4802 2 9.1665C2 5.8528 4.68629 3.1665 8 3.1665" stroke="#176CF7" stroke-linecap="round" stroke-linejoin="round"/>
<path d="M10.6685 9.1665C10.6685 12.4802 9.47379 15.1665 8 15.1665" stroke="#176CF7" stroke-linecap="round" stroke-linejoin="round"/>
</svg>
