<svg width="16" height="17" viewBox="0 0 16 17" fill="none" xmlns="http://www.w3.org/2000/svg">
<path d="M2.66732 1.8335H8.00065C8.35427 1.8335 8.69341 1.97397 8.94346 2.22402C9.19351 2.47407 9.33398 2.81321 9.33398 3.16683V15.1668H2.66732C2.3137 15.1668 1.97456 15.0264 1.72451 14.7763C1.47446 14.5263 1.33398 14.1871 1.33398 13.8335V3.16683C1.33398 2.81321 1.47446 2.47407 1.72451 2.22402C1.97456 1.97397 2.3137 1.8335 2.66732 1.8335V1.8335Z" stroke="#176CF7" stroke-linecap="round" stroke-linejoin="round"/>
<path d="M9.33398 7.16699H13.334C13.6876 7.16699 14.0267 7.30747 14.2768 7.55752C14.5268 7.80757 14.6673 8.1467 14.6673 8.50033V13.8337C14.6673 14.1873 14.5268 14.5264 14.2768 14.7765C14.0267 15.0265 13.6876 15.167 13.334 15.167H9.33398" stroke="#176CF7" stroke-linecap="round" stroke-linejoin="round"/>
<path d="M3.33398 4.5H4.00065" stroke="#176CF7" stroke-linecap="round" stroke-linejoin="round"/>
<path d="M6 4.5H7.33333" stroke="#176CF7" stroke-linecap="round" stroke-linejoin="round"/>
<path d="M3.33398 7.16699H4.00065" stroke="#176CF7" stroke-linecap="round" stroke-linejoin="round"/>
<path d="M6 7.16699H7.33333" stroke="#176CF7" stroke-linecap="round" stroke-linejoin="round"/>
<path d="M3.33398 9.8335H4.00065" stroke="#176CF7" stroke-linecap="round" stroke-linejoin="round"/>
<path d="M6 9.8335H7.33333" stroke="#176CF7" stroke-linecap="round" stroke-linejoin="round"/>
<path d="M3.33398 12.5H4.00065" stroke="#176CF7" stroke-linecap="round" stroke-linejoin="round"/>
<path d="M6 12.5H7.33333" stroke="#176CF7" stroke-linecap="round" stroke-linejoin="round"/>
<path d="M11.334 9.8335H12.6673" stroke="#176CF7" stroke-linecap="round" stroke-linejoin="round"/>
<path d="M11.334 12.5H12.6673" stroke="#176CF7" stroke-linecap="round" stroke-linejoin="round"/>
</svg>
