<svg width="16" height="17" viewBox="0 0 16 17" fill="none" xmlns="http://www.w3.org/2000/svg">
<path d="M8.23132 15.0287C7.1781 13.8549 6.25309 12.5721 5.47199 11.202C4.80543 10.1647 4.34692 9.00767 4.12199 7.79534C3.94696 7.0803 3.96048 6.33207 4.16124 5.62381C4.362 4.91556 4.74311 4.27152 5.26732 3.75468C6.06366 2.97121 7.12984 2.52252 8.24676 2.50083C9.36368 2.47913 10.4465 2.88607 11.2727 3.63801C12.0668 4.3596 12.5586 5.35486 12.6493 6.42401C12.6517 6.42664 12.6534 6.4297 12.6546 6.43301C12.6557 6.43633 12.6562 6.43984 12.656 6.44334C12.656 6.45601 12.656 6.46868 12.656 6.48201C12.6627 6.58334 12.6667 6.68201 12.6667 6.78401V6.80601C12.6667 6.88734 12.6667 6.96668 12.6587 7.04801C12.6316 7.48915 12.5356 7.92332 12.374 8.33468C12.1527 8.99352 11.8936 9.63903 11.598 10.268C11.0175 11.5097 10.2845 12.6742 9.41599 13.7347C9.04975 14.1912 8.65401 14.6239 8.23132 15.0287ZM8.33399 4.91001C8.01698 4.91356 7.70811 5.01082 7.44626 5.18954C7.18441 5.36825 6.98128 5.62044 6.86246 5.91436C6.74363 6.20827 6.7144 6.53077 6.77847 6.84126C6.84254 7.15174 6.99702 7.43633 7.22249 7.65921C7.44795 7.88208 7.73431 8.03327 8.04551 8.09374C8.35672 8.15422 8.67886 8.12127 8.97138 7.99905C9.2639 7.87683 9.51373 7.67081 9.68941 7.40691C9.86509 7.14301 9.95877 6.83304 9.95866 6.51601C9.95566 6.08776 9.78293 5.67818 9.47836 5.37711C9.17379 5.07604 8.76224 4.90806 8.33399 4.91001Z" stroke="#176CF7"/>
</svg>
