<svg width="18" height="18" viewBox="0 0 18 18" fill="none" xmlns="http://www.w3.org/2000/svg">
<path d="M13.4163 15.5243L15.2806 13.6588C15.4292 13.5134 15.5473 13.3398 15.6279 13.1481C15.7085 12.9564 15.75 12.7506 15.75 12.5426C15.75 12.3347 15.7085 12.1288 15.6279 11.9371C15.5473 11.7454 15.4292 11.5718 15.2806 11.4264L14.2198 10.3649C14.0749 10.2198 13.9028 10.1046 13.7134 10.0261C13.524 9.9475 13.321 9.90707 13.116 9.90707C12.911 9.90707 12.708 9.9475 12.5186 10.0261C12.3292 10.1046 12.1572 10.2198 12.0123 10.3649L11.3102 11.0596C9.50283 9.97579 7.98936 8.46402 6.90306 6.65736L7.60509 5.96268C7.75014 5.8177 7.86521 5.64553 7.94372 5.45602C8.02223 5.26651 8.06264 5.06337 8.06264 4.85822C8.06264 4.65307 8.02223 4.44993 7.94372 4.26042C7.86521 4.07091 7.75014 3.89874 7.60509 3.75376L6.56765 2.70784C6.42276 2.5627 6.2507 2.44755 6.06132 2.36899C5.87193 2.29043 5.66892 2.25 5.4639 2.25C5.25889 2.25 5.05588 2.29043 4.86649 2.36899C4.6771 2.44755 4.50505 2.5627 4.36016 2.70784L2.48028 4.57332C2.35251 4.70034 2.2726 4.86768 2.25412 5.04695C2.23564 5.22621 2.27972 5.40636 2.37888 5.5568C5.02612 9.5481 8.44478 12.969 12.4335 15.6179C12.583 15.7181 12.7625 15.7636 12.9416 15.7465C13.1207 15.7294 13.2884 15.6509 13.4163 15.5243Z" fill="#14B86D"/>
</svg>
