<svg width="16" height="17" viewBox="0 0 16 17" fill="none" xmlns="http://www.w3.org/2000/svg">
<path d="M13.5 4H11.25V3.5C11.2484 3.03638 11.0634 2.59221 10.7356 2.26438C10.4078 1.93655 9.96362 1.75165 9.5 1.75H6.5C6.03638 1.75165 5.59222 1.93655 5.26438 2.26438C4.93655 2.59221 4.75165 3.03638 4.75 3.5V4H2.5C2.16899 4.00164 1.852 4.13387 1.61793 4.36793C1.38387 4.602 1.25164 4.91899 1.25 5.25V13.25C1.25164 13.581 1.38387 13.898 1.61793 14.1321C1.852 14.3661 2.16899 14.4984 2.5 14.5H13.5C13.831 14.4984 14.148 14.3661 14.3821 14.1321C14.6161 13.898 14.7484 13.581 14.75 13.25V5.25C14.7484 4.91899 14.6161 4.602 14.3821 4.36793C14.148 4.13387 13.831 4.00164 13.5 4ZM6.25 3.5C6.25 3.4337 6.27634 3.37011 6.32322 3.32322C6.37011 3.27634 6.4337 3.25 6.5 3.25H9.5C9.5663 3.25 9.62989 3.27634 9.67678 3.32322C9.72366 3.37011 9.75 3.4337 9.75 3.5V4H6.25V3.5ZM9.75 5.5V13H6.25V5.5H9.75ZM2.75 5.5H4.75V13H2.75V5.5ZM13.25 13H11.25V5.5H13.25V13Z" fill="#176CF7"/>
</svg>
