<svg width="16" height="17" viewBox="0 0 16 17" fill="none" xmlns="http://www.w3.org/2000/svg">
<path d="M8.00065 3.8335V13.1668M10.2229 5.53059H6.88954C6.47698 5.53059 6.08132 5.68703 5.7896 5.96549C5.49787 6.24396 5.33398 6.62163 5.33398 7.01544C5.33398 7.40924 5.49787 7.78692 5.7896 8.06538C6.08132 8.34385 6.47698 8.50029 6.88954 8.50029H9.11176C9.52432 8.50029 9.91998 8.65672 10.2117 8.93519C10.5034 9.21365 10.6673 9.59133 10.6673 9.98513C10.6673 10.3789 10.5034 10.7566 10.2117 11.0351C9.91998 11.3135 9.52432 11.47 9.11176 11.47H5.33398" stroke="#176CF7" stroke-linecap="round" stroke-linejoin="round"/>
<circle cx="8.00065" cy="8.50016" r="6.16667" stroke="#176CF7"/>
</svg>
