<svg width="16" height="17" viewBox="0 0 16 17" fill="none" xmlns="http://www.w3.org/2000/svg">
<path d="M14.6089 6.93652H1.8457" stroke="#176CF7" stroke-linecap="round" stroke-linejoin="bevel"/>
<path d="M4.44922 4.39311V3.10254" stroke="#176CF7" stroke-linecap="round" stroke-linejoin="bevel"/>
<path d="M12.2246 4.39311V3.10254" stroke="#176CF7" stroke-linecap="round" stroke-linejoin="bevel"/>
<path d="M13.3845 4.39307H3.1278C2.41972 4.39307 1.8457 4.95954 1.8457 5.65833V13.2499C1.8457 13.9487 2.41972 14.5152 3.1278 14.5152H13.3845C14.0926 14.5152 14.6666 13.9487 14.6666 13.2499V5.65833C14.6666 4.95954 14.0926 4.39307 13.3845 4.39307Z" stroke="#176CF7" stroke-linecap="round" stroke-linejoin="bevel"/>
<path d="M5.2823 8.82764H4.00021C3.82319 8.82764 3.67969 8.96926 3.67969 9.14395V10.4092C3.67969 10.5839 3.82319 10.7255 4.00021 10.7255H5.2823C5.45932 10.7255 5.60283 10.5839 5.60283 10.4092V9.14395C5.60283 8.96926 5.45932 8.82764 5.2823 8.82764Z" stroke="#176CF7" stroke-linecap="round" stroke-linejoin="bevel"/>
<path d="M8.96785 8.82764H7.68576C7.50874 8.82764 7.36523 8.96926 7.36523 9.14395V10.4092C7.36523 10.5839 7.50874 10.7255 7.68576 10.7255H8.96785C9.14487 10.7255 9.28838 10.5839 9.28838 10.4092V9.14395C9.28838 8.96926 9.14487 8.82764 8.96785 8.82764Z" stroke="#176CF7" stroke-linecap="round" stroke-linejoin="round"/>
</svg>
