<svg width="16" height="17" viewBox="0 0 16 17" fill="none" xmlns="http://www.w3.org/2000/svg">
<path d="M15.2654 14.6337L12.532 11.9003C12.7987 11.2337 12.6654 10.367 12.0654 9.83366C11.4654 9.23366 10.5987 9.10033 9.86537 9.43366L11.132 10.7003L10.1987 11.6337L8.86537 10.3003C8.53203 11.0337 8.66536 11.9003 9.26536 12.567C9.86537 13.167 10.6654 13.3003 11.332 13.0337L14.0654 15.767C14.1987 15.9003 14.3987 15.9003 14.4654 15.767L15.132 15.1003C15.332 14.9003 15.332 14.7003 15.2654 14.6337ZM6.66536 8.50033C8.13203 8.50033 9.33203 7.30033 9.33203 5.83366C9.33203 4.36699 8.13203 3.16699 6.66536 3.16699C5.1987 3.16699 3.9987 4.36699 3.9987 5.83366C3.9987 7.30033 5.1987 8.50033 6.66536 8.50033ZM6.66536 4.50033C7.3987 4.50033 7.9987 5.10033 7.9987 5.83366C7.9987 6.56699 7.3987 7.16699 6.66536 7.16699C5.93203 7.16699 5.33203 6.56699 5.33203 5.83366C5.33203 5.10033 5.93203 4.50033 6.66536 4.50033ZM8.66536 13.8337H1.33203V11.8337C1.33203 10.0337 4.86536 9.16699 6.66536 9.16699C6.9987 9.16699 7.46536 9.23366 7.93203 9.30032C7.66536 9.63366 7.53203 10.0337 7.3987 10.5003C7.13203 10.5003 6.93203 10.4337 6.66536 10.4337C4.66536 10.4337 2.5987 11.4337 2.5987 11.8337V12.567H7.66536C7.86536 13.1003 8.26536 13.5003 8.66536 13.8337Z" fill="#176CF7"/>
</svg>
