<svg width="16" height="17" viewBox="0 0 16 17" fill="none" xmlns="http://www.w3.org/2000/svg">
<path d="M7.94445 14.4973C6.45041 14.4973 4.95901 14.5048 3.46497 14.4948C2.4284 14.4873 2.00795 14.0919 2.0053 13.1136C1.99473 11.332 2.00795 9.55289 2.00002 7.7763C1.99737 6.96058 2.32262 6.30249 2.99164 5.79704C4.24769 4.8537 5.5011 3.90785 6.77037 2.98203C7.65357 2.33395 8.34903 2.33896 9.25339 2.99954C10.5015 3.90785 11.7338 4.83618 12.9687 5.76201C13.6615 6.28247 14.0052 6.95807 13.9999 7.80383C13.9894 9.55539 14.0026 11.3095 13.9947 13.061C13.992 14.0944 13.5821 14.4898 12.5033 14.4948C10.9854 14.5023 9.46493 14.4973 7.94445 14.4973ZM12.9581 13.4839C12.9581 11.4821 12.9977 9.57291 12.9263 7.66871C12.9105 7.26585 12.5641 6.79293 12.2282 6.50017C11.4561 5.82957 10.5993 5.24655 9.77167 4.6335C9.21372 4.22063 8.64519 3.81777 7.9894 3.34485C6.98456 4.09052 6.05111 4.77363 5.12825 5.46674C2.71134 7.28086 3.06568 6.65781 3.04188 9.55539C3.0313 10.8566 3.03923 12.1552 3.03923 13.4664C3.41473 13.4664 3.67651 13.4664 3.99912 13.4664C3.99912 12.8759 3.99912 12.3304 3.99912 11.7824C3.99912 10.4187 4.21067 10.1809 5.65975 9.98577C5.65975 9.68801 5.65975 9.38023 5.65975 9.06996C5.65975 8.75468 5.64918 8.4419 5.6624 8.12662C5.69678 7.36844 6.10664 6.94807 6.88407 6.92054C7.62977 6.89552 8.37812 6.89302 9.12381 6.92054C9.8986 6.94807 10.3164 7.37094 10.3402 8.13162C10.3614 8.75468 10.3455 9.37773 10.3455 9.98828C11.7708 10.1759 12.0061 10.4287 12.0088 11.7098C12.0088 12.3003 12.0088 12.8934 12.0088 13.4814C12.3657 13.4839 12.609 13.4839 12.9581 13.4839ZM7.42616 13.4814C7.42616 12.6206 7.42616 11.8549 7.42616 11.0943C6.61435 11.0943 5.85808 11.0943 5.078 11.0943C5.078 11.915 5.078 12.6807 5.078 13.4814C5.87923 13.4814 6.63286 13.4814 7.42616 13.4814ZM8.56322 11.0692C8.56322 11.91 8.56322 12.6757 8.56322 13.4564C9.3856 13.4564 10.1604 13.4564 10.9061 13.4564C10.9061 12.6281 10.9061 11.8624 10.9061 11.0692C10.1075 11.0692 9.37238 11.0692 8.56322 11.0692ZM6.75979 7.93895C6.75979 8.70463 6.75979 9.36772 6.75979 9.99829C7.64564 9.99829 8.46009 9.99829 9.24016 9.99829C9.24016 9.27014 9.24016 8.60454 9.24016 7.93895C8.37547 7.93895 7.58218 7.93895 6.75979 7.93895Z" fill="#176CF7"/>
</svg>
