<svg width="16" height="17" viewBox="0 0 16 17" fill="none" xmlns="http://www.w3.org/2000/svg">
<path d="M7.99859 14.5026C4.6835 14.5026 1.99609 11.8151 1.99609 8.50006C1.99609 5.18497 4.6835 2.49756 7.99859 2.49756C11.3137 2.49756 14.0011 5.18497 14.0011 8.50006" stroke="#176CF7" stroke-linecap="round" stroke-linejoin="round"/>
<path d="M2.33984 6.499H13.5899" stroke="#176CF7" stroke-linecap="round" stroke-linejoin="round"/>
<path d="M2.33984 10.501H7.99953" stroke="#176CF7" stroke-linecap="round" stroke-linejoin="round"/>
<path d="M10.6673 8.49989C10.6723 6.63662 10.1729 4.80672 9.22198 3.20435C8.97036 2.76708 8.5043 2.49756 7.99981 2.49756C7.49531 2.49756 7.02925 2.76708 6.77763 3.20435C4.85016 6.47186 4.85016 10.5286 6.77763 13.7961C7.03035 14.2325 7.49589 14.5017 8.00014 14.5031" stroke="#176CF7" stroke-linecap="round" stroke-linejoin="round"/>
<circle cx="12.0018" cy="12.5018" r="2.66778" stroke="#176CF7" stroke-linecap="round" stroke-linejoin="round"/>
<path d="M12.8299 12.0874L11.7922 13.1252L11.1699 12.5022" stroke="#176CF7" stroke-linecap="round" stroke-linejoin="round"/>
</svg>
