<svg width="328" height="28" viewBox="0 0 328 28" fill="none" xmlns="http://www.w3.org/2000/svg">
<g clip-path="url(#clip0_1264_435700)">
<path d="M0 22C0 25.3137 2.68629 28 6 28H322C325.314 28 328 25.3137 328 22V6C328 2.68629 325.314 0 322 0H5.99999C2.68629 0 0 2.68629 0 6V22Z" fill="#FFC217"/>
<path d="M170.677 8.80472C115.952 13.1575 39.5086 10.6184 8.12749 8.80472L0 -7L327.809 -5.18633L340 12.1732C337.517 17.1823 329.163 25.387 315.618 18.1323C298.685 9.06401 239.084 3.36372 170.677 8.80472Z" fill="#FFC82E"/>
</g>
<defs>
<clipPath id="clip0_1264_435700">
<path d="M0 28H328V6C328 2.68629 325.314 0 322 0H5.99999C2.68629 0 0 2.68629 0 6V28Z" fill="white"/>
</clipPath>
</defs>
</svg>
