<svg width="16" height="16" viewBox="0 0 16 16" fill="none" xmlns="http://www.w3.org/2000/svg">
<g clip-path="url(#clip0_11_1550)">
<path fill-rule="evenodd" clip-rule="evenodd" d="M5.89487 2.93806L4.09243 2.46373C3.10495 2.20387 2.20381 3.10501 2.46368 4.09249L2.93801 5.89494L1.32817 6.834C0.446165 7.34853 0.446167 8.62293 1.32817 9.1374L2.93801 10.0765L2.46369 11.8789C2.20382 12.8664 3.10496 13.7675 4.09244 13.5077L5.89486 13.0333L6.834 14.6433C7.34847 15.5253 8.62287 15.5253 9.1374 14.6433L10.0765 13.0334L11.8789 13.5077C12.8663 13.7675 13.7675 12.8664 13.5076 11.8789L13.0333 10.0765L14.6433 9.1374C15.5253 8.62293 15.5253 7.34853 14.6433 6.834L13.0333 5.89487L13.5076 4.09247C13.7675 3.10499 12.8663 2.20385 11.8789 2.46372L10.0765 2.93803L9.1374 1.32817C8.62287 0.446166 7.34847 0.446166 6.834 1.32817L5.89487 2.93806Z" fill="#36B100"/>
<path d="M7.20427 9.99767C7.0796 9.99567 6.96027 9.95167 6.87013 9.8744L4.81812 8.11827C4.77133 8.07847 4.73384 8.03067 4.70786 7.97773C4.68187 7.92473 4.66789 7.86773 4.66675 7.80987C4.6656 7.75207 4.6773 7.6946 4.70118 7.64087C4.72505 7.58713 4.76062 7.53813 4.8058 7.49687C4.8976 7.413 5.02251 7.3648 5.15358 7.36273C5.28466 7.36067 5.41139 7.40487 5.50641 7.4858L7.2002 8.93473L10.4605 5.4891C10.5456 5.40037 10.6661 5.34505 10.7962 5.33499C10.9263 5.32493 11.0556 5.36093 11.1564 5.43529C11.2062 5.47211 11.2473 5.51743 11.2773 5.5686C11.3073 5.61978 11.3257 5.67579 11.3315 5.73339C11.3371 5.791 11.33 5.84903 11.3104 5.90414C11.2909 5.95925 11.2593 6.01032 11.2175 6.0544L7.63387 9.84313C7.58714 9.89247 7.52887 9.93207 7.46327 9.95913C7.39774 9.9862 7.32633 10.0001 7.25407 10C7.23747 10 7.22087 9.9992 7.20427 9.99767Z" fill="white"/>
</g>
<defs>
<clipPath id="clip0_11_1550">
<rect width="16" height="16" fill="white"/>
</clipPath>
</defs>
</svg>
