<svg width="12" height="12" viewBox="0 0 12 12" fill="none" xmlns="http://www.w3.org/2000/svg">
<path d="M9 11.5005H8V11.0005H4V11.5005H3V11.0005H2.5C2.23478 11.0005 1.98043 10.8951 1.79289 10.7076C1.60536 10.5201 1.5 10.2657 1.5 10.0005V3.50049C1.5 3.23527 1.60536 2.98092 1.79289 2.79338C1.98043 2.60585 2.23478 2.50049 2.5 2.50049H4V1.50049C4 1.36788 4.05268 1.2407 4.14645 1.14693C4.24021 1.05317 4.36739 1.00049 4.5 1.00049H7.5C7.63261 1.00049 7.75979 1.05317 7.85355 1.14693C7.94732 1.2407 8 1.36788 8 1.50049V2.50049H9.5C9.76522 2.50049 10.0196 2.60585 10.2071 2.79338C10.3946 2.98092 10.5 3.23527 10.5 3.50049V10.0005C10.5 10.2657 10.3946 10.5201 10.2071 10.7076C10.0196 10.8951 9.76522 11.0005 9.5 11.0005H9V11.5005ZM5 4.50049H4V9.00049H5V4.50049ZM8 4.50049H7V9.00049H8V4.50049ZM7 2.00049H5V2.50049H7V2.00049Z" fill="#176CF7"/>
</svg>
