<svg width="24" height="24" viewBox="0 0 24 24" fill="none" xmlns="http://www.w3.org/2000/svg">
<path fill-rule="evenodd" clip-rule="evenodd" d="M13.5434 3.06879C13.0834 3.19724 12.7509 3.39822 12.4144 3.75128C12.1837 3.99334 11.9548 4.36736 11.8819 4.62138L11.8298 4.80256H8.67647H5.5231L5.34847 4.8931C5.2215 4.95894 5.1491 5.03311 5.08323 5.16475C4.93059 5.46991 5.00507 5.77102 5.28675 5.98724C5.39355 6.06926 5.43187 6.07035 8.61487 6.08097L11.8349 6.09172L11.8844 6.26207C11.9544 6.50305 12.0477 6.67967 12.2535 6.9613C12.681 7.546 13.3846 7.89925 14.1248 7.9007C14.5275 7.90151 14.7764 7.84315 15.168 7.65622C15.6235 7.43875 16.0429 7.00999 16.2678 6.53174C16.3548 6.34666 16.4261 6.1716 16.4261 6.14279C16.4261 6.10101 16.6374 6.09035 17.4645 6.09035C18.6239 6.09035 18.6898 6.07832 18.8719 5.83279C19.105 5.51849 19.0036 5.07207 18.6584 4.8931C18.4906 4.80606 18.444 4.80256 17.458 4.80256H16.4321L16.3856 4.65164C16.1819 3.99093 15.5751 3.36856 14.8989 3.12678C14.4959 2.98262 13.9375 2.95876 13.5434 3.06879ZM14.6488 4.41139C15.0346 4.61337 15.2187 4.91612 15.2438 5.38975C15.2636 5.76281 15.1989 5.96636 14.9782 6.22472C14.761 6.4791 14.5426 6.58454 14.1894 6.60555C13.9034 6.62257 13.8624 6.6146 13.6285 6.49616C13.4862 6.42417 13.3239 6.30336 13.2565 6.21933C12.8716 5.73951 12.9071 5.03259 13.3374 4.60738C13.6828 4.26615 14.2185 4.18607 14.6488 4.41139ZM6.89591 9.59242C6.02634 9.7719 5.28162 10.5124 5.057 11.421C4.981 11.7284 4.981 12.2839 5.057 12.5913C5.16244 13.0178 5.37348 13.4001 5.67793 13.7162C6.1535 14.2101 6.59979 14.4161 7.26773 14.4502C7.75449 14.475 8.04407 14.4138 8.4641 14.1974C8.97646 13.9335 9.39489 13.4671 9.59884 12.9326L9.70667 12.65H14.1139C18.3283 12.65 18.5272 12.6468 18.6576 12.5755C19.0628 12.3541 19.1091 11.7782 18.7446 11.4924L18.6044 11.3824L14.1544 11.3718L9.70443 11.3612L9.62005 11.1232C9.36906 10.4155 8.69627 9.80514 7.95421 9.61202C7.70842 9.54803 7.16014 9.53789 6.89591 9.59242ZM7.78694 10.9025C8.02846 10.9871 8.29499 11.2354 8.41902 11.4913C8.56297 11.7883 8.56297 12.2239 8.41902 12.521C8.20708 12.9582 7.79151 13.1996 7.31141 13.1641C6.41498 13.0979 5.95327 12.0832 6.47013 11.3152C6.74054 10.9134 7.30933 10.7351 7.78694 10.9025ZM11.4164 16.1742C10.6872 16.3702 10.0121 16.9914 9.77465 17.6848L9.70033 17.9018L7.55449 17.9219C5.9274 17.9372 5.38776 17.9543 5.32221 17.9929C5.17344 18.0804 5.02828 18.3141 5.00992 18.4956C4.98444 18.7478 5.12248 19.002 5.34847 19.1192C5.52306 19.2097 5.52353 19.2097 7.61238 19.2097H9.70162L9.72459 19.3001C9.73723 19.3498 9.81645 19.5319 9.9006 19.7048C10.1726 20.2636 10.6821 20.696 11.3381 20.9249C11.499 20.981 11.6671 21 12.0035 21C12.3398 21 12.5079 20.981 12.6688 20.9249C13.3248 20.696 13.8343 20.2636 14.1063 19.7048C14.1905 19.5319 14.2697 19.3498 14.2823 19.3001L14.3053 19.2097H16.3945C18.4834 19.2097 18.4838 19.2097 18.6584 19.1192C18.8844 19.002 19.0225 18.7478 18.997 18.4956C18.9786 18.3141 18.8335 18.0804 18.6847 17.9929C18.6191 17.9543 18.0789 17.9372 16.4494 17.9219L14.3005 17.9018L14.2327 17.6968C13.9997 16.9918 13.3182 16.3658 12.5725 16.1717C12.2822 16.0961 11.702 16.0974 11.4164 16.1742ZM12.5011 17.5054C13.2021 17.8458 13.3562 18.8221 12.7993 19.3949C12.5806 19.6197 12.3505 19.7111 12.0035 19.7111C11.6564 19.7111 11.4263 19.6197 11.2077 19.3949C10.7889 18.9642 10.7531 18.2563 11.1275 17.8066C11.4802 17.3828 12.0096 17.2668 12.5011 17.5054Z" fill="white"/>
</svg>
