<svg width="16" height="16" viewBox="0 0 16 16" fill="none" xmlns="http://www.w3.org/2000/svg">
<path d="M9.33398 3.99959L8.85398 3.03293C8.74065 2.80626 8.50732 2.66626 8.25398 2.66626H4.00065C3.63398 2.66626 3.33398 2.96626 3.33398 3.33293V13.3329C3.33398 13.6996 3.63398 13.9996 4.00065 13.9996C4.36732 13.9996 4.66732 13.6996 4.66732 13.3329V9.33293H8.00065L8.48065 10.2996C8.53605 10.4095 8.62081 10.502 8.72554 10.5667C8.83027 10.6314 8.95087 10.6659 9.07398 10.6663H12.6673C13.034 10.6663 13.334 10.3663 13.334 9.99959V4.66626C13.334 4.29959 13.034 3.99959 12.6673 3.99959H9.33398ZM12.0007 9.33293H9.33398L8.66732 7.99959H4.66732V3.99959H8.00065L8.66732 5.33293H12.0007V9.33293Z" fill="#176CF7"/>
</svg>
