<svg width="12" height="12" viewBox="0 0 12 12" fill="none" xmlns="http://www.w3.org/2000/svg">
<path d="M9.75001 0.5625H8.06251C7.91333 0.5625 7.77026 0.621763 7.66477 0.727252C7.55928 0.832742 7.50001 0.975816 7.50001 1.125C7.50001 1.27418 7.55928 1.41726 7.66477 1.52275C7.77026 1.62824 7.91333 1.6875 8.06251 1.6875H8.39064L7.68751 2.39531C7.09865 1.9351 6.37237 1.68586 5.62501 1.6875C4.77843 1.68701 3.96257 2.0047 3.33925 2.57757C2.71593 3.15044 2.33067 3.93665 2.25987 4.78027C2.18908 5.6239 2.43792 6.46332 2.95705 7.13206C3.47618 7.8008 4.22768 8.25002 5.06251 8.39062V9H4.12501C3.97583 9 3.83275 9.05926 3.72727 9.16475C3.62178 9.27024 3.56251 9.41332 3.56251 9.5625C3.56251 9.71168 3.62178 9.85476 3.72727 9.96025C3.83275 10.0657 3.97583 10.125 4.12501 10.125H5.06251V10.875C5.06251 11.0242 5.12178 11.1673 5.22727 11.2727C5.33275 11.3782 5.47583 11.4375 5.62501 11.4375C5.7742 11.4375 5.91727 11.3782 6.02276 11.2727C6.12825 11.1673 6.18751 11.0242 6.18751 10.875V10.125H7.12501C7.2742 10.125 7.41727 10.0657 7.52276 9.96025C7.62825 9.85476 7.68751 9.71168 7.68751 9.5625C7.68751 9.41332 7.62825 9.27024 7.52276 9.16475C7.41727 9.05926 7.2742 9 7.12501 9H6.18751V8.39062C6.73956 8.29714 7.25968 8.06778 7.70101 7.72321C8.14233 7.37864 8.491 6.92968 8.71559 6.41679C8.94018 5.9039 9.03364 5.34319 8.98756 4.78519C8.94147 4.22718 8.75728 3.6894 8.45158 3.22031L9.18751 2.48438V2.8125C9.18751 2.96168 9.24678 3.10476 9.35227 3.21025C9.45775 3.31574 9.60083 3.375 9.75001 3.375C9.8992 3.375 10.0423 3.31574 10.1478 3.21025C10.2532 3.10476 10.3125 2.96168 10.3125 2.8125V1.125C10.3125 0.975816 10.2532 0.832742 10.1478 0.727252C10.0423 0.621763 9.8992 0.5625 9.75001 0.5625ZM5.62501 7.3125C5.18001 7.3125 4.74499 7.18054 4.37498 6.93331C4.00497 6.68607 3.71658 6.33467 3.54628 5.92354C3.37599 5.5124 3.33143 5.06 3.41825 4.62355C3.50506 4.18709 3.71936 3.78618 4.03402 3.47151C4.34869 3.15684 4.7496 2.94255 5.18606 2.85573C5.62252 2.76892 6.07492 2.81347 6.48605 2.98377C6.89718 3.15407 7.24859 3.44246 7.49582 3.81247C7.74305 4.18248 7.87501 4.61749 7.87501 5.0625C7.87501 5.65924 7.63796 6.23153 7.216 6.65349C6.79405 7.07545 6.22175 7.3125 5.62501 7.3125Z" fill="#176CF7"/>
</svg>
