<svg width="18" height="18" viewBox="0 0 18 18" fill="none" xmlns="http://www.w3.org/2000/svg">
<g clip-path="url(#clip0_1097_91258)">
<rect x="0.5" y="0.5" width="17" height="17" rx="8.5" fill="#D1E2FD"/>
<path fill-rule="evenodd" clip-rule="evenodd" d="M11.2062 7.03786C11.2062 8.26162 10.225 9.24288 9.00033 9.24288C7.77612 9.24288 6.7945 8.26162 6.7945 7.03786C6.7945 5.8141 7.77612 4.83325 9.00033 4.83325C10.225 4.83325 11.2062 5.8141 11.2062 7.03786ZM9.00033 13.1666C7.19298 13.1666 5.66699 12.8728 5.66699 11.7395C5.66699 10.6057 7.20257 10.3224 9.00033 10.3224C10.8081 10.3224 12.3337 10.6161 12.3337 11.7495C12.3337 12.8832 10.7981 13.1666 9.00033 13.1666Z" fill="#176CF7"/>
<rect x="0.5" y="0.5" width="17" height="17" rx="8.5" stroke="#676767"/>
</g>
<defs>
<clipPath id="clip0_1097_91258">
<rect width="18" height="18" fill="white"/>
</clipPath>
</defs>
</svg>
