<svg width="12" height="12" viewBox="0 0 12 12" fill="none" xmlns="http://www.w3.org/2000/svg">
<path d="M7.5 2C8.03043 2 8.53914 2.21071 8.91421 2.58579C9.28929 2.96086 9.5 3.46957 9.5 4C9.5 4.53043 9.28929 5.03914 8.91421 5.41421C8.53914 5.78929 8.03043 6 7.5 6C6.96957 6 6.46086 5.78929 6.08579 5.41421C5.71071 5.03914 5.5 4.53043 5.5 4C5.5 3.46957 5.71071 2.96086 6.08579 2.58579C6.46086 2.21071 6.96957 2 7.5 2ZM7.5 2.95C7.22152 2.95 6.95445 3.06062 6.75754 3.25754C6.56063 3.45445 6.45 3.72152 6.45 4C6.45 4.27848 6.56063 4.54555 6.75754 4.74246C6.95445 4.93938 7.22152 5.05 7.5 5.05C7.77848 5.05 8.04555 4.93938 8.24246 4.74246C8.43938 4.54555 8.55 4.27848 8.55 4C8.55 3.72152 8.43938 3.45445 8.24246 3.25754C8.04555 3.06062 7.77848 2.95 7.5 2.95ZM7.5 6.5C8.835 6.5 11.5 7.165 11.5 8.5V10H3.5V8.5C3.5 7.165 6.165 6.5 7.5 6.5ZM7.5 7.45C6 7.45 4.45 8.18 4.45 8.5V9.05H10.55V8.5C10.55 8.18 8.985 7.45 7.5 7.45ZM2.5 6.64L1.25 7.385L1.59 5.98L0.5 5.04L1.935 4.915L2.5 3.595L3.055 4.915L4.5 5.04L3.4 5.98L3.725 7.385L2.5 6.64Z" fill="#176CF7"/>
</svg>
