<svg width="12" height="12" viewBox="0 0 12 12" fill="none" xmlns="http://www.w3.org/2000/svg">
<path d="M6 2.5V9.5M7.66667 3.77282H5.16667C4.85725 3.77282 4.5605 3.89015 4.34171 4.099C4.12292 4.30784 4 4.5911 4 4.88646C4 5.18181 4.12292 5.46507 4.34171 5.67392C4.5605 5.88276 4.85725 6.00009 5.16667 6.00009H6.83333C7.14275 6.00009 7.4395 6.11742 7.65829 6.32627C7.87708 6.53512 8 6.81837 8 7.11373C8 7.40908 7.87708 7.69234 7.65829 7.90119C7.4395 8.11004 7.14275 8.22736 6.83333 8.22736H4" stroke="#176CF7" stroke-linecap="round" stroke-linejoin="round"/>
<circle cx="6" cy="6" r="4.5" stroke="#176CF7"/>
</svg>
