<svg width="12" height="12" viewBox="0 0 12 12" fill="none" xmlns="http://www.w3.org/2000/svg">
<path fill-rule="evenodd" clip-rule="evenodd" d="M6 1.875C5.37868 1.875 4.875 2.37868 4.875 3C4.875 3.62132 5.37868 4.125 6 4.125C6.62132 4.125 7.125 3.62132 7.125 3C7.125 2.37868 6.62132 1.875 6 1.875ZM4.125 3C4.125 1.96447 4.96447 1.125 6 1.125C7.03553 1.125 7.875 1.96447 7.875 3C7.875 4.03553 7.03553 4.875 6 4.875C4.96447 4.875 4.125 4.03553 4.125 3Z" fill="#176CF7"/>
<path fill-rule="evenodd" clip-rule="evenodd" d="M5.48127 6.41526L6.00003 6.83164L6.51879 6.41526C6.35786 6.38919 6.18526 6.375 6.00003 6.375C5.8148 6.375 5.64221 6.38919 5.48127 6.41526ZM7.36136 6.70069L6.48451 7.40449L7.07562 8.43895C7.15952 8.58577 7.13477 8.77059 7.0152 8.89016L6.2652 9.64016C6.11875 9.78661 5.88131 9.78661 5.73487 9.64016L4.98487 8.89016C4.86529 8.77059 4.84054 8.58577 4.92444 8.43895L5.51556 7.40449L4.63871 6.70069C3.97827 7.06386 3.5718 7.68103 3.32469 8.26042C3.19047 8.57513 3.10799 8.86821 3.05926 9.08243C3.03497 9.18918 3.01928 9.27539 3.0098 9.33369C3.00507 9.36282 3.00189 9.3849 2.99998 9.39901C2.99903 9.40607 2.99839 9.41112 2.99803 9.41406L2.99774 9.41641C2.97475 9.62213 2.78938 9.77057 2.58362 9.74771C2.37778 9.72483 2.22946 9.53943 2.25233 9.33359L2.62503 9.375C2.25233 9.33359 2.25231 9.33374 2.25233 9.33359L2.2524 9.33295L2.25249 9.3321L2.25277 9.32975L2.25363 9.32254C2.25436 9.31663 2.25539 9.30853 2.25677 9.29836C2.25952 9.27802 2.26367 9.24936 2.26952 9.21334C2.28122 9.14136 2.29982 9.03969 2.32794 8.91605C2.38404 8.66947 2.47892 8.33171 2.63482 7.96619C2.94399 7.24127 3.51244 6.36428 4.53709 5.91552C4.956 5.73206 5.44132 5.625 6.00003 5.625C6.55874 5.625 7.04407 5.73206 7.46297 5.91552C8.48763 6.36428 9.05607 7.24127 9.36525 7.96619C9.52114 8.33171 9.61602 8.66947 9.67212 8.91605C9.70025 9.03969 9.71884 9.14136 9.73055 9.21334C9.7364 9.24936 9.74054 9.27802 9.7433 9.29836C9.74468 9.30853 9.74571 9.31663 9.74643 9.32254L9.7473 9.32975L9.74757 9.3321L9.74767 9.33295C9.74768 9.3331 9.74774 9.33359 9.37503 9.375L9.74774 9.33359C9.77061 9.53943 9.62228 9.72483 9.41644 9.74771C9.2108 9.77056 9.02555 9.62253 9.00239 9.417L9.00233 9.41641L9.00204 9.41406C9.00168 9.41112 9.00104 9.40607 9.00008 9.39901C8.99817 9.3849 8.995 9.36282 8.99026 9.33369C8.98079 9.27539 8.9651 9.18918 8.94081 9.08243C8.89207 8.86821 8.80959 8.57513 8.67537 8.26042C8.42826 7.68103 8.02179 7.06386 7.36136 6.70069ZM6.00003 8.06834L5.71773 8.56237L6.00003 8.84467L6.28234 8.56237L6.00003 8.06834Z" fill="#176CF7"/>
</svg>
