<svg width="16" height="16" viewBox="0 0 16 16" fill="none" xmlns="http://www.w3.org/2000/svg">
<rect width="16" height="16" rx="8" fill="white" fill-opacity="0.1"/>
<path d="M11.7845 8.78245L12.1428 9.13126L11.7845 8.78245L11.7784 8.78874L11.7772 8.79L8.28584 12.3756C8.12439 12.5415 7.86827 12.5415 7.70681 12.3756L4.21983 8.79448L4.21948 8.79411L4.21547 8.79C3.26151 7.81028 3.26151 6.21646 4.21547 5.23675C5.16216 4.26449 6.69141 4.2645 7.63811 5.23676L7.99759 5.60596L8.35579 5.23551L8.36191 5.2292C8.36192 5.2292 8.36192 5.22919 8.36192 5.22919C9.30861 4.25693 10.8378 4.25694 11.7845 5.2292C12.7385 6.20892 12.7385 7.80273 11.7845 8.78245Z" stroke="#676767"/>
</svg>
