<svg width="24" height="24" viewBox="0 0 24 24" fill="none" xmlns="http://www.w3.org/2000/svg">
<path d="M11.9953 7.5154L11.4593 6.97176C9.69569 5.18286 6.84073 5.18284 5.07711 6.97173C3.30763 8.76657 3.30763 11.6809 5.07711 13.4758L5.08444 13.4832L5.08497 13.4837L11.3615 19.8502C11.7117 20.2054 12.275 20.2054 12.6252 19.8502L18.9097 13.4758L18.9115 13.4739L18.9229 13.4623C18.9229 13.4623 18.9229 13.4623 18.9229 13.4623C20.6924 11.6675 20.6924 8.75314 18.9229 6.95831C17.1593 5.16943 14.3044 5.16941 12.5408 6.95826L11.9953 7.5154ZM11.9953 7.5154L12.5293 6.96989L12.5407 6.95831L11.9953 7.5154Z" stroke="white" stroke-width="1.5"/>
</svg>
