<svg width="24" height="24" viewBox="0 0 24 24" fill="none" xmlns="http://www.w3.org/2000/svg">
<path d="M12.7132 4.73621L12.7268 4.72204C14.8385 2.54187 18.2486 2.54187 20.3602 4.72204C22.4892 6.92011 22.4892 10.4967 20.3603 12.6948C20.3603 12.6948 20.3602 12.6948 20.3602 12.6948L20.3465 12.709L20.3441 12.7115L12.6935 20.6103C12.3026 21.0139 11.6823 21.0139 11.2913 20.6103L3.65028 12.7213L3.64957 12.7206L3.64071 12.7115C3.64056 12.7113 3.64042 12.7112 3.64028 12.711C1.51169 10.5129 1.51183 6.93661 3.64071 4.73868C5.75236 2.55851 9.16248 2.55853 11.2741 4.73871L11.9949 5.48289L12.7132 4.73621Z" stroke="#1B1B1B" stroke-width="2"/>
</svg>
