<svg width="14" height="12" viewBox="0 0 14 12" fill="none" xmlns="http://www.w3.org/2000/svg">
<path d="M7.36283 1.4493L7.36283 1.44929C8.59527 0.183569 10.5878 0.183569 11.8202 1.44929C13.0599 2.72247 13.0599 4.79208 11.8202 6.06527L11.8123 6.07345L11.811 6.0747L7.44686 10.5567C7.19597 10.8144 6.79485 10.8144 6.54396 10.5567L2.18524 6.0803L2.18488 6.07993L2.17977 6.0747C2.1797 6.07462 2.17962 6.07454 2.17954 6.07447C0.940076 4.80127 0.940152 2.73183 2.17977 1.45873C3.41221 0.193009 5.40475 0.193021 6.63719 1.45875L6.99668 1.82795L7.35488 1.45749L7.36283 1.4493Z" fill="#F71717" stroke="#F71717"/>
</svg>
