<svg width="9" height="13" viewBox="0 0 9 13" fill="none" xmlns="http://www.w3.org/2000/svg">
<path d="M4.23132 12.5287C3.1781 11.3549 2.25309 10.0721 1.47199 8.70201C0.805428 7.66469 0.34692 6.50767 0.121988 5.29534C-0.0530406 4.5803 -0.0395159 3.83207 0.16124 3.12381C0.361996 2.41556 0.743111 1.77152 1.26732 1.25468C2.06366 0.471211 3.12984 0.0225237 4.24676 0.000825183C5.36368 -0.0208734 6.44649 0.386065 7.27266 1.13801C8.06678 1.8596 8.55858 2.85486 8.64932 3.92401C8.65165 3.92664 8.65344 3.9297 8.65458 3.93301C8.65573 3.93633 8.6562 3.93984 8.65599 3.94334C8.65599 3.95601 8.65599 3.96868 8.65599 3.98201C8.66266 4.08334 8.66665 4.18201 8.66665 4.28401V4.30601C8.66665 4.38734 8.66666 4.46668 8.65866 4.54801C8.63164 4.98915 8.53559 5.42332 8.37399 5.83468C8.15273 6.49352 7.89364 7.13903 7.59799 7.76801C7.01748 9.00972 6.2845 10.1742 5.41599 11.2347C5.04975 11.6912 4.65401 12.1239 4.23132 12.5287ZM4.33399 2.41001C4.01698 2.41356 3.70811 2.51082 3.44626 2.68954C3.18441 2.86825 2.98128 3.12044 2.86246 3.41436C2.74363 3.70827 2.7144 4.03077 2.77847 4.34126C2.84254 4.65174 2.99702 4.93634 3.22249 5.15921C3.44795 5.38208 3.73431 5.53327 4.04551 5.59374C4.35672 5.65422 4.67886 5.62127 4.97138 5.49905C5.2639 5.37683 5.51373 5.17081 5.68941 4.90691C5.86509 4.64301 5.95877 4.33304 5.95866 4.01601C5.95566 3.58776 5.78293 3.17818 5.47836 2.87711C5.17379 2.57604 4.76224 2.40806 4.33399 2.41001Z" fill="#002D84"/>
</svg>
