<svg width="18" height="18" viewBox="0 0 18 18" fill="none" xmlns="http://www.w3.org/2000/svg">
<g clip-path="url(#clip0_660_111309)">
<path d="M10.2655 17.354C9.53784 18.2177 8.22366 18.1665 7.52505 17.2791C6.55017 16.0408 5.66797 14.7312 4.88606 13.3609C3.92763 11.8705 3.26836 10.2082 2.94493 8.46648C2.69327 7.43917 2.71271 6.36419 3.00137 5.34664C3.29003 4.32909 3.83803 3.4038 4.59178 2.66124C5.73681 1.53563 7.26985 0.891003 8.87583 0.859828C10.4818 0.828654 12.0388 1.4133 13.2267 2.49363C14.3685 3.53033 15.0757 4.96023 15.2061 6.49628C15.2095 6.50006 15.2121 6.50445 15.2137 6.50922C15.2154 6.51398 15.216 6.51903 15.2157 6.52406C15.2157 6.54226 15.2157 6.56046 15.2157 6.57961C15.2253 6.7252 15.2311 6.86695 15.2311 7.0135V7.04511C15.2311 7.16196 15.2311 7.27594 15.2196 7.39279C15.1807 8.02657 15.0426 8.65034 14.8103 9.24135C14.4921 10.1879 14.1196 11.1153 13.6945 12.019C12.8598 13.8029 11.8058 15.476 10.557 16.9995C10.4613 17.1188 10.3641 17.237 10.2655 17.354ZM9.00125 4.32112C8.54544 4.32622 8.10132 4.46595 7.72481 4.72271C7.34831 4.97947 7.05624 5.3418 6.88538 5.76406C6.71451 6.18633 6.6725 6.64967 6.76461 7.09574C6.85673 7.54182 7.07887 7.95069 7.40305 8.2709C7.72724 8.5911 8.13899 8.80831 8.58646 8.89519C9.03393 8.98208 9.49713 8.93474 9.91774 8.75915C10.3383 8.58356 10.6976 8.28756 10.9502 7.90842C11.2028 7.52927 11.3375 7.08393 11.3373 6.62846C11.333 6.01319 11.0846 5.42475 10.6467 4.9922C10.2088 4.55965 9.61703 4.31831 9.00125 4.32112Z" fill="#176CF7"/>
</g>
<defs>
<clipPath id="clip0_660_111309">
<rect width="18" height="18" fill="white"/>
</clipPath>
</defs>
</svg>
