<svg width="24" height="24" viewBox="0 0 24 24" fill="none" xmlns="http://www.w3.org/2000/svg">
<path d="M16.4168 8.76669C18.0092 8.76669 19.3001 7.47577 19.3001 5.88335C19.3001 4.29092 18.0092 3 16.4168 3C14.8244 3 13.5334 4.29092 13.5334 5.88335C13.5334 7.47577 14.8244 8.76669 16.4168 8.76669Z" stroke="#1B1B1B" stroke-width="1.5" stroke-linecap="round" stroke-linejoin="round"/>
<path d="M4.88335 15.4945C6.47577 15.4945 7.76669 14.2036 7.76669 12.6111C7.76669 11.0187 6.47577 9.72778 4.88335 9.72778C3.29092 9.72778 2 11.0187 2 12.6111C2 14.2036 3.29092 15.4945 4.88335 15.4945Z" stroke="#1B1B1B" stroke-width="1.5" stroke-linecap="round" stroke-linejoin="round"/>
<path d="M16.4168 22.2223C18.0092 22.2223 19.3001 20.9313 19.3001 19.3389C19.3001 17.7465 18.0092 16.4556 16.4168 16.4556C14.8244 16.4556 13.5334 17.7465 13.5334 19.3389C13.5334 20.9313 14.8244 22.2223 16.4168 22.2223Z" stroke="#1B1B1B" stroke-width="1.5" stroke-linecap="round" stroke-linejoin="round"/>
<path d="M7.37354 14.0625L13.938 17.8877" stroke="#1B1B1B" stroke-width="1.5" stroke-linecap="round" stroke-linejoin="round"/>
<path d="M13.9283 7.33521L7.37354 11.1604" stroke="#1B1B1B" stroke-width="1.5" stroke-linecap="round" stroke-linejoin="round"/>
</svg>
