<svg width="16" height="16" viewBox="0 0 16 16" fill="none" xmlns="http://www.w3.org/2000/svg">
<path d="M16 8C16 12.4183 12.4183 16 8 16C3.58172 16 0 12.4183 0 8C0 3.58172 3.58172 0 8 0C12.4183 0 16 3.58172 16 8Z" fill="#FFC217"/>
<path d="M4.46558 11.7333H5.74558V4.18133H4.58292L2.22558 6.08L2.97225 6.96533L4.46558 5.73867V11.7333Z" fill="#176CF7"/>
<path d="M13.92 7.95733C13.92 5.51467 12.9707 3.98933 11.264 3.98933C9.54667 3.98933 8.58667 5.51467 8.58667 7.95733C8.58667 10.4 9.54667 11.9253 11.264 11.9253C12.9707 11.9253 13.92 10.4 13.92 7.95733ZM12.608 7.95733C12.608 9.01333 12.4053 10.8373 11.264 10.8373C10.112 10.8373 9.89867 9.01333 9.89867 7.95733C9.89867 6.90133 10.112 5.056 11.264 5.056C12.4053 5.056 12.608 6.90133 12.608 7.95733Z" fill="#176CF7"/>
</svg>
