<svg width="16" height="16" viewBox="0 0 16 16" fill="none" xmlns="http://www.w3.org/2000/svg">
<path d="M16 8C16 12.4183 12.4183 16 8 16C3.58172 16 0 12.4183 0 8C0 3.58172 3.58172 0 8 0C12.4183 0 16 3.58172 16 8Z" fill="#FFC217"/>
<path d="M5.48079 11.7333H10.5048V10.56H7.10213L9.27813 8.48C9.95013 7.84 10.4941 7.168 10.4941 6.19733C10.4941 4.74667 9.28879 3.98933 7.97679 3.98933C6.59013 3.98933 5.57679 4.90667 5.42746 6.15467L6.67546 6.34667C6.77146 5.61067 7.23013 5.056 7.95546 5.056C8.63813 5.056 9.16079 5.51467 9.16079 6.21867C9.16079 6.80533 8.86213 7.24267 8.39279 7.70133L5.48079 10.56V11.7333Z" fill="#176CF7"/>
</svg>
