<svg width="16" height="16" viewBox="0 0 16 16" fill="none" xmlns="http://www.w3.org/2000/svg">
<path d="M16 8C16 12.4183 12.4183 16 8 16C3.58172 16 0 12.4183 0 8C0 3.58172 3.58172 0 8 0C12.4183 0 16 3.58172 16 8Z" fill="#FFC217"/>
<path d="M7.00613 8.30933H7.32613C8.12613 8.30933 9.16079 8.608 9.16079 9.58933C9.16079 10.496 8.43546 10.8373 7.77413 10.8373C6.97413 10.8373 6.45146 10.368 6.27013 9.77067L5.07546 10.144C5.48079 11.4027 6.54746 11.9253 7.81679 11.9253C9.09679 11.9253 10.4515 11.168 10.4515 9.6C10.4515 8.672 9.81146 7.968 8.89413 7.78667V7.76533C9.71546 7.56267 10.2488 6.86933 10.2488 6.05867C10.2488 4.704 9.13946 3.98933 7.81679 3.98933C6.61146 3.98933 5.61946 4.704 5.35279 5.71733L6.55813 6.02667C6.70746 5.45067 7.14479 5.056 7.76346 5.056C8.40346 5.056 8.95813 5.46133 8.95813 6.144C8.95813 7.072 8.10479 7.28533 7.34746 7.28533H7.00613V8.30933Z" fill="#176CF7"/>
</svg>
