<svg width="16" height="16" viewBox="0 0 16 16" fill="none" xmlns="http://www.w3.org/2000/svg">
<path d="M16 8C16 12.4183 12.4183 16 8 16C3.58172 16 0 12.4183 0 8C0 3.58172 3.58172 0 8 0C12.4183 0 16 3.58172 16 8Z" fill="#FFC217"/>
<path d="M10.1315 4.18133H5.83279L5.70479 8.30933C6.16346 8.07467 6.88879 7.89333 7.46479 7.89333C8.28613 7.89333 9.15013 8.23467 9.15013 9.39733C9.15013 10.3147 8.49946 10.8373 7.74213 10.8373C7.07013 10.8373 6.53679 10.4427 6.32346 9.84533L5.16079 10.272C5.55546 11.2853 6.45146 11.9253 7.71013 11.9253C9.21413 11.9253 10.4621 10.9333 10.4621 9.25867C10.4621 7.73333 9.34213 6.86933 7.85946 6.86933C7.59279 6.86933 7.20879 6.90133 6.97413 6.96533L7.04879 5.33333H10.1315V4.18133Z" fill="#176CF7"/>
</svg>
