<svg width="16" height="16" viewBox="0 0 16 16" fill="none" xmlns="http://www.w3.org/2000/svg">
<path d="M16 8C16 12.4183 12.4183 16 8 16C3.58172 16 0 12.4183 0 8C0 3.58172 3.58172 0 8 0C12.4183 0 16 3.58172 16 8Z" fill="#FFC217"/>
<path d="M7.89824 3.92L6.12824 6.66C5.66824 7.39 5.39824 7.94 5.39824 8.75C5.39824 10.12 6.50824 11.18 7.98824 11.18C9.43824 11.18 10.5682 10.2 10.5682 8.7C10.5682 7.41 9.55824 6.43 8.30824 6.43C8.06824 6.43 7.74824 6.47 7.55824 6.55L7.54824 6.54L9.35824 3.92H7.89824ZM6.61824 8.78C6.61824 7.95 7.18824 7.38 7.99824 7.38C8.79824 7.38 9.33824 7.96 9.33824 8.76C9.33824 9.6 8.78824 10.16 7.97824 10.16C7.14824 10.16 6.61824 9.52 6.61824 8.78Z" fill="#176CF7"/>
</svg>
