<svg width="16" height="16" viewBox="0 0 16 16" fill="none" xmlns="http://www.w3.org/2000/svg">
<path d="M16 8C16 12.4183 12.4183 16 8 16C3.58172 16 0 12.4183 0 8C0 3.58172 3.58172 0 8 0C12.4183 0 16 3.58172 16 8Z" fill="#FFC217"/>
<path d="M7.99813 3.98933C6.67546 3.98933 5.60879 4.81067 5.60879 6.09067C5.60879 6.96533 6.11013 7.49867 6.78213 7.744V7.76533C6.04613 7.95733 5.36346 8.61867 5.36346 9.6C5.36346 11.104 6.54746 11.9253 7.99813 11.9253C9.44879 11.9253 10.6328 11.104 10.6328 9.6C10.6328 8.672 10.0035 7.95733 9.21413 7.76533V7.744C9.89679 7.52 10.3875 6.912 10.3875 6.03733C10.3875 4.75733 9.32079 3.98933 7.99813 3.98933ZM7.99813 5.04533C8.57413 5.04533 9.09679 5.46133 9.09679 6.112C9.09679 6.72 8.60613 7.21067 7.99813 7.21067C7.33679 7.21067 6.91013 6.72 6.91013 6.112C6.91013 5.46133 7.36879 5.04533 7.99813 5.04533ZM7.99813 8.29867C8.72346 8.29867 9.29946 8.84267 9.29946 9.58933C9.29946 10.3787 8.73413 10.848 7.99813 10.848C7.25146 10.848 6.68613 10.3787 6.68613 9.58933C6.68613 8.82133 7.26213 8.29867 7.99813 8.29867Z" fill="#176CF7"/>
</svg>
