<svg width="16" height="16" viewBox="0 0 16 16" fill="none" xmlns="http://www.w3.org/2000/svg">
<path d="M16 8C16 12.4183 12.4183 16 8 16C3.58172 16 0 12.4183 0 8C0 3.58172 3.58172 0 8 0C12.4183 0 16 3.58172 16 8Z" fill="#FFC217"/>
<path d="M8.09413 11.7333L9.98213 8.81067C10.4728 8.032 10.7608 7.44533 10.7608 6.58133C10.7608 5.12 9.57679 3.98933 7.99813 3.98933C6.45146 3.98933 5.24613 5.03467 5.24613 6.63467C5.24613 8.01067 6.32346 9.056 7.65679 9.056C7.91279 9.056 8.25413 9.01333 8.46746 8.91733L8.47813 8.928L6.53679 11.7333H8.09413ZM9.45946 6.54933C9.45946 7.43467 8.85146 8.04267 7.98746 8.04267C7.13413 8.04267 6.55813 7.424 6.55813 6.57067C6.55813 5.67467 7.14479 5.056 8.00879 5.056C8.89413 5.056 9.45946 5.76 9.45946 6.54933Z" fill="#176CF7"/>
</svg>
