<svg width="16" height="16" viewBox="0 0 16 16" fill="none" xmlns="http://www.w3.org/2000/svg">
<path d="M1.67188 13.9997L2.19854 12.0863C3.07187 8.93301 5.39187 7.33301 7.69188 7.33301" stroke="#176CF7" stroke-linecap="round" stroke-linejoin="round"/>
<path d="M7.66927 7.32682C9.51022 7.32682 11.0026 5.83444 11.0026 3.99349C11.0026 2.15254 9.51022 0.660156 7.66927 0.660156C5.82832 0.660156 4.33594 2.15254 4.33594 3.99349C4.33594 5.83444 5.82832 7.32682 7.66927 7.32682Z" stroke="#176CF7" stroke-linecap="round" stroke-linejoin="bevel"/>
<path d="M11.0052 15.3395C12.8462 15.3395 14.3385 13.8471 14.3385 12.0062C14.3385 10.1652 12.8462 8.67285 11.0052 8.67285C9.16426 8.67285 7.67188 10.1652 7.67188 12.0062C7.67188 13.8471 9.16426 15.3395 11.0052 15.3395Z" stroke="#176CF7" stroke-linecap="round" stroke-linejoin="round"/>
<path d="M10.7227 13.3337L11.9627 12.0937C11.9756 12.0818 11.9859 12.0674 11.993 12.0513C12 12.0352 12.0037 12.0179 12.0037 12.0003C12.0037 11.9828 12 11.9654 11.993 11.9493C11.9859 11.9333 11.9756 11.9189 11.9627 11.907L10.7227 10.667" stroke="#176CF7" stroke-linecap="round" stroke-linejoin="round"/>
</svg>
