<svg width="25" height="38" viewBox="0 0 25 38" fill="none" xmlns="http://www.w3.org/2000/svg">
<g clip-path="url(#clip0_15_32058)">
<path d="M12.3702 24.1667C18.6345 24.1667 23.7128 19.2045 23.7128 13.0833C23.7128 6.96218 18.6345 2 12.3702 2C6.10584 2 1.02759 6.96218 1.02759 13.0833C1.02759 19.2045 6.10584 24.1667 12.3702 24.1667Z" stroke="white" stroke-width="2.2" stroke-linecap="round" stroke-linejoin="round"/>
<path d="M6.2292 22.4094L4.26855 36.8336L12.3704 32.0836L20.4723 36.8336L18.5116 22.3936" stroke="white" stroke-width="2.2" stroke-linecap="round" stroke-linejoin="round"/>
<path d="M12.2305 16.2152L10.2398 12.6994C11.219 12.3745 11.8216 11.5854 11.8216 10.4831C11.8216 8.60338 10.3689 8 8.90542 8H6V16.2152H7.80782V12.9546H8.43195L10.0784 16.2152H12.2305ZM10.003 10.5179C10.003 11.3534 9.26053 11.5158 8.66868 11.5158H7.79706V9.60127H8.77629C9.32509 9.60127 10.003 9.75211 10.003 10.5179Z" fill="white"/>
<path d="M19 13.3027C19 11.6899 18.0208 10.2743 16.4604 10.2743C15.6749 10.2743 15.0723 10.6804 14.7495 11.1445H14.7172V10.4367H13.0385V19H14.8033V15.577H14.8248C15.1584 16.0759 15.7933 16.3776 16.4497 16.3776C18.0638 16.3776 19 14.9156 19 13.3027ZM17.289 13.3027C17.289 14.057 16.8694 14.7996 16.03 14.7996C15.2337 14.7996 14.7387 14.0686 14.7387 13.3143C14.7387 12.5833 15.2337 11.8291 16.03 11.8291C16.8694 11.8291 17.289 12.5601 17.289 13.3027Z" fill="white"/>
</g>
<defs>
<clipPath id="clip0_15_32058">
<rect width="24.9235" height="38" fill="white"/>
</clipPath>
</defs>
</svg>
