<svg width="24" height="24" fill="none" xmlns="http://www.w3.org/2000/svg"><path d="M12 1.1e-7C9.62663 1.1e-7 7.30655.703788 5.33316 2.02236 3.35977 3.34094 1.8217 5.21508.913451 7.4078.00519931 9.60051-.232441 12.0133.230582 14.3411c.463023 2.3278 1.605908 4.4659 3.284138 6.1442 1.67823 1.6782 3.81643 2.8211 6.1442 3.2841 2.32778.463 4.74058.2254 6.93328-.6829 2.1927-.9082 4.0669-2.4463 5.3854-4.4197C23.2962 16.6934 24 14.3734 24 12c.0002-1.5759-.31-3.13645-.913-4.59246-.603-1.456-1.4869-2.77896-2.6012-3.8933-1.1144-1.11435-2.4373-1.99825-3.8933-2.601234C15.1365.310026 13.5759-.00021544 12 1.1e-7zM14.5042 16.6769c.208.2094.3248.4926.3248.7877 0 .2952-.1168.5783-.3248.7877-.1028.1032-.2251.1849-.3598.2404-.1346.0554-.279.0836-.4246.0829-.2965-.0004-.5806-.1185-.7902-.3282l-5.42272-5.44c-.19256-.2112-.2964-.4884-.28999-.7741.00642-.2857.12261-.558.32445-.7603l5.50396-5.52121c.1035-.10344.2263-.18549.3614-.24147.1352-.05599.28-.0848.4263-.0848.1463 0 .2912.02881.4263.0848.1352.05598.258.13803.3614.24147.1035.10344.1855.22625.2415.3614.056.13515.0848.28001.0848.4263 0 .14628-.0288.29114-.0848.42629s-.138.25796-.2415.3614L9.89457 12l4.60963 4.6769z" fill="#fff"/></svg>