<svg width="24" height="24" viewBox="0 0 24 24" fill="none" xmlns="http://www.w3.org/2000/svg">
<path d="M17.8896 20.8498H6.10955C5.79187 20.8501 5.48326 20.7438 5.23309 20.5481C4.98291 20.3523 4.80562 20.0782 4.72955 19.7698L2.07955 9.1598C2.05369 9.05651 2.05174 8.94868 2.07383 8.84452C2.09593 8.74036 2.1415 8.64261 2.20707 8.55872C2.27264 8.47483 2.35649 8.407 2.45223 8.3604C2.54797 8.3138 2.65307 8.28965 2.75955 8.2898H21.2395C21.346 8.28965 21.4511 8.3138 21.5469 8.3604C21.6426 8.407 21.7265 8.47483 21.792 8.55872C21.8576 8.64261 21.9032 8.74036 21.9253 8.84452C21.9474 8.94868 21.9454 9.05651 21.9195 9.1598L19.2696 19.7698C19.1935 20.0782 19.0162 20.3523 18.766 20.5481C18.5158 20.7438 18.2072 20.8501 17.8896 20.8498V20.8498Z" stroke="black" stroke-width="1.5" stroke-linecap="round" stroke-linejoin="round"/>
<path d="M9.79941 3.1499L6.89941 8.2899" stroke="black" stroke-width="1.5" stroke-linecap="round" stroke-linejoin="round"/>
<path d="M13.8799 3.1499L16.7899 8.2899" stroke="black" stroke-width="1.5" stroke-linecap="round" stroke-linejoin="round"/>
</svg>
