<svg width="20" height="20" viewBox="0 0 20 20" fill="none" xmlns="http://www.w3.org/2000/svg">
<path d="M18.2596 7.5332H1.66797" stroke="black" stroke-width="1.5" stroke-linecap="round" stroke-linejoin="bevel"/>
<path d="M5.05078 4.1834V2.4834" stroke="black" stroke-width="1.5" stroke-linecap="round" stroke-linejoin="bevel"/>
<path d="M15.1602 4.1834V2.4834" stroke="black" stroke-width="1.5" stroke-linecap="round" stroke-linejoin="bevel"/>
<path d="M16.668 4.18359H3.33464C2.41416 4.18359 1.66797 4.92979 1.66797 5.85026V15.8503C1.66797 16.7707 2.41416 17.5169 3.33464 17.5169H16.668C17.5884 17.5169 18.3346 16.7707 18.3346 15.8503V5.85026C18.3346 4.92979 17.5884 4.18359 16.668 4.18359Z" stroke="black" stroke-width="1.5" stroke-linecap="round" stroke-linejoin="bevel"/>
<path d="M6.13411 10.0254H4.46745C4.23733 10.0254 4.05078 10.2119 4.05078 10.4421V12.1087C4.05078 12.3388 4.23733 12.5254 4.46745 12.5254H6.13411C6.36423 12.5254 6.55078 12.3388 6.55078 12.1087V10.4421C6.55078 10.2119 6.36423 10.0254 6.13411 10.0254Z" stroke="black" stroke-width="1.5" stroke-linecap="round" stroke-linejoin="bevel"/>
<path d="M10.9271 10.0254H9.26042C9.0303 10.0254 8.84375 10.2119 8.84375 10.4421V12.1087C8.84375 12.3388 9.0303 12.5254 9.26042 12.5254H10.9271C11.1572 12.5254 11.3437 12.3388 11.3437 12.1087V10.4421C11.3437 10.2119 11.1572 10.0254 10.9271 10.0254Z" stroke="black" stroke-width="1.5" stroke-linecap="round" stroke-linejoin="round"/>
</svg>
