<svg width="24" height="24" viewBox="0 0 24 24" fill="none" xmlns="http://www.w3.org/2000/svg">
<path fill-rule="evenodd" clip-rule="evenodd" d="M21 18V9C21 7.895 20.105 7 19 7H17L15.487 4.484C15.306 4.184 14.981 4 14.63 4H9.326C8.97 4 8.641 4.189 8.462 4.496L7 7H5C3.895 7 3 7.895 3 9V18C3 19.105 3.895 20 5 20H19C20.105 20 21 19.105 21 18ZM14.8785 15.8062C16.4355 14.2492 16.4355 11.7248 14.8785 10.1678C13.3215 8.61074 10.7971 8.61074 9.24003 10.1678C7.68301 11.7248 7.68301 14.2492 9.24003 15.8062C10.7971 17.3633 13.3215 17.3633 14.8785 15.8062Z" fill="#676767"/>
<path d="M17 7L16.3573 7.38651C16.4929 7.61205 16.7368 7.75 17 7.75V7ZM15.487 4.484L16.1297 4.09749L16.1292 4.09656L15.487 4.484ZM8.462 4.496L9.10968 4.87416L9.10991 4.87377L8.462 4.496ZM7 7V7.75C7.26664 7.75 7.51324 7.60843 7.64768 7.37816L7 7ZM14.8785 10.1678L14.3482 10.6981L14.3482 10.6981L14.8785 10.1678ZM14.8785 15.8062L14.3482 15.2759L14.3482 15.2759L14.8785 15.8062ZM9.24003 10.1678L9.77036 10.6981L9.24003 10.1678ZM9.24003 15.8062L9.77036 15.2759L9.77036 15.2759L9.24003 15.8062ZM20.25 9V18H21.75V9H20.25ZM19 7.75C19.6908 7.75 20.25 8.30921 20.25 9H21.75C21.75 7.48079 20.5192 6.25 19 6.25V7.75ZM17 7.75H19V6.25H17V7.75ZM14.8443 4.87051L16.3573 7.38651L17.6427 6.61349L16.1297 4.09749L14.8443 4.87051ZM14.63 4.75C14.7177 4.75 14.7993 4.79603 14.8448 4.87144L16.1292 4.09656C15.8127 3.57197 15.2443 3.25 14.63 3.25V4.75ZM9.326 4.75H14.63V3.25H9.326V4.75ZM9.10991 4.87377C9.15438 4.7975 9.23652 4.75 9.326 4.75V3.25C8.70348 3.25 8.12762 3.5805 7.81409 4.11823L9.10991 4.87377ZM7.64768 7.37816L9.10968 4.87416L7.81432 4.11784L6.35232 6.62184L7.64768 7.37816ZM5 7.75H7V6.25H5V7.75ZM3.75 9C3.75 8.30921 4.30921 7.75 5 7.75V6.25C3.48079 6.25 2.25 7.48079 2.25 9H3.75ZM3.75 18V9H2.25V18H3.75ZM5 19.25C4.30921 19.25 3.75 18.6908 3.75 18H2.25C2.25 19.5192 3.48079 20.75 5 20.75V19.25ZM19 19.25H5V20.75H19V19.25ZM20.25 18C20.25 18.6908 19.6908 19.25 19 19.25V20.75C20.5192 20.75 21.75 19.5192 21.75 18H20.25ZM14.3482 10.6981C15.6123 11.9622 15.6123 14.0118 14.3482 15.2759L15.4088 16.3366C17.2587 14.4867 17.2587 11.4873 15.4088 9.63743L14.3482 10.6981ZM9.77036 10.6981C11.0345 9.43397 13.084 9.43397 14.3482 10.6981L15.4088 9.63744C13.5589 7.78752 10.5596 7.78752 8.7097 9.63743L9.77036 10.6981ZM9.77036 15.2759C8.50623 14.0118 8.50623 11.9622 9.77036 10.6981L8.7097 9.63743C6.85979 11.4873 6.85979 14.4867 8.7097 16.3366L9.77036 15.2759ZM14.3482 15.2759C13.084 16.54 11.0345 16.54 9.77036 15.2759L8.7097 16.3366C10.5596 18.1865 13.5589 18.1865 15.4088 16.3366L14.3482 15.2759Z" fill="#676767"/>
</svg>
