<svg width="112" height="119" viewBox="0 0 112 119" fill="none" xmlns="http://www.w3.org/2000/svg">
<defs>
<clipPath id="clip0_3682:18016">
<rect width="112" height="119" fill="white"/>
</clipPath>
</defs>
<g clip-path="url(#clip0_3682:18016)">
<path d="M38.9991 78.0261C60.5378 78.0261 77.9983 60.5593 77.9983 39.013C77.9983 17.4667 60.5378 0 38.9991 0C17.4605 0 0 17.4667 0 39.013C0 60.5593 17.4605 78.0261 38.9991 78.0261Z" fill="#FFC217"/>
<path d="M38.9992 77.632C60.3203 77.632 77.6045 60.3417 77.6045 39.013C77.6045 17.6843 60.3203 0.394043 38.9992 0.394043C17.6782 0.394043 0.394043 17.6843 0.394043 39.013C0.394043 60.3417 17.6782 77.632 38.9992 77.632Z" stroke="#FFC217"/>
<path d="M37.3905 30.1572L58.0638 14.887L78.9775 30.1572H95.084V41.9393L111.791 54.0847V108.733C111.791 108.733 112.993 115.107 109.628 117.268C106.263 119.43 103.739 118.954 103.739 118.954H10.8244C10.8244 118.954 5.29527 118.23 4.81467 113.902C4.33408 109.573 4.81467 54.0816 4.81467 54.0816L20.8012 41.9378V30.1557L37.3905 30.1572Z" fill="#183E7F"/>
<path d="M58.3019 18.3535L74.3742 30.0971H41.8003L58.3019 18.3535Z" fill="#176CF7"/>
<path d="M95.1086 45.3289L108.338 54.9343L95.1086 66.4594V45.3289Z" fill="#0A4FC0"/>
<path d="M23.8894 33.062H92.3079V68.5777L68.2689 89.5758C68.2689 89.5758 61.4026 83.9135 57.13 84.5637C52.8574 85.2139 51.2384 86.8293 49.8227 87.7625C48.9949 88.3055 48.2102 88.9121 47.4756 89.5758L24.0052 69.0533L23.8894 33.062Z" fill="white"/>
<path d="M8.07422 54.8236L21.162 45.3074V66.441L8.07422 54.8236Z" fill="#0A4FC0"/>
<path d="M105.602 116.229C105.602 116.229 108.447 116.089 108.803 113.457C109.159 110.825 109.23 57.9607 109.23 57.9607L70.895 91.4721L105.602 116.229Z" fill="#176CF7"/>
<path d="M6.81226 57.9607L44.9054 91.446L10.6958 116.234C10.6958 116.234 7.45983 115.401 7.27389 112.903C7.08796 110.404 6.81226 57.9607 6.81226 57.9607Z" fill="#176CF7"/>
<path d="M15.8494 116.229H100.636L65.1303 90.5976C65.1303 90.5976 59.6877 85.0887 54.1514 88.5549C48.6151 92.0212 15.8494 116.229 15.8494 116.229Z" fill="#004CC9"/>
<path d="M12.8279 67.4005C12.8279 66.6827 12.2462 66.1008 11.5287 66.1008C10.8112 66.1008 10.2295 66.6827 10.2295 67.4005V95.9911C10.2295 96.7089 10.8112 97.2908 11.5287 97.2908C12.2462 97.2908 12.8279 96.7089 12.8279 95.9911V67.4005Z" fill="white"/>
<path d="M12.8279 100.324C12.8279 99.606 12.2462 99.0242 11.5287 99.0242C10.8112 99.0242 10.2295 99.606 10.2295 100.324V107.255C10.2295 107.973 10.8112 108.554 11.5287 108.554C12.2462 108.554 12.8279 107.973 12.8279 107.255V100.324Z" fill="white"/>
<path d="M26.3519 111.136C25.6159 111.671 25.4529 112.702 25.9879 113.438C26.5228 114.175 27.5532 114.338 28.2893 113.803L50.945 97.3302C51.681 96.795 51.844 95.7642 51.3091 95.0279C50.7741 94.2916 49.7437 94.1285 49.0076 94.6637L26.3519 111.136Z" fill="white"/>
<path d="M53.007 91.936C52.2709 92.4712 52.1079 93.502 52.6429 94.2383C53.1779 94.9746 54.2083 95.1377 54.9443 94.6025L58.942 91.6959C59.678 91.1607 59.841 90.13 59.3061 89.3936C58.7711 88.6573 57.7407 88.4942 57.0046 89.0294L53.007 91.936Z" fill="white"/>
<path d="M78.0942 90.5207C77.3491 89.9983 76.3216 90.179 75.7994 90.9245C75.2771 91.6699 75.4578 92.6977 76.203 93.2201L99.1387 109.3C99.8839 109.823 100.911 109.642 101.434 108.897C101.956 108.151 101.775 107.123 101.03 106.601L78.0942 90.5207Z" fill="white"/>
<path d="M58.3017 79.3974C70.137 79.3974 79.7315 69.7995 79.7315 57.9599C79.7315 46.1203 70.137 36.5225 58.3017 36.5225C46.4663 36.5225 36.8718 46.1203 36.8718 57.9599C36.8718 69.7995 46.4663 79.3974 58.3017 79.3974Z" fill="#00BC4B"/>
<path d="M58.3016 78.018C69.3755 78.018 78.3526 69.0377 78.3526 57.9598C78.3526 46.882 69.3755 37.9016 58.3016 37.9016C47.2277 37.9016 38.2505 46.882 38.2505 57.9598C38.2505 69.0377 47.2277 78.018 58.3016 78.018Z" stroke="#183E7F" stroke-width="3.5"/>
<path d="M63.6348 65.6865L58.2398 60.2907L52.8463 65.6865C52.6935 65.8397 52.5122 65.9611 52.3124 66.044C52.1125 66.1269 51.8985 66.1697 51.6822 66.1697C51.4659 66.1697 51.2511 66.1269 51.0513 66.044C50.8515 65.9611 50.6702 65.8397 50.5174 65.6865C50.3642 65.5337 50.2433 65.3521 50.1604 65.1522C50.0775 64.9523 50.0342 64.738 50.0342 64.5216C50.0342 64.3052 50.0775 64.091 50.1604 63.8911C50.2433 63.6912 50.3642 63.5096 50.5174 63.3567L55.9116 57.9604L50.5174 52.5646C50.2089 52.2555 50.0357 51.8365 50.0357 51.3997C50.0357 50.9629 50.2089 50.5441 50.5174 50.235C50.6703 50.0819 50.8522 49.9604 51.0521 49.8775C51.252 49.7946 51.4666 49.7518 51.683 49.7518C51.8994 49.7518 52.1132 49.7946 52.3131 49.8775C52.5131 49.9604 52.6949 50.0819 52.8479 50.235L58.2398 55.6298L63.6348 50.2333C63.9438 49.9247 64.3622 49.7515 64.7989 49.7515C65.2355 49.7515 65.6547 49.9247 65.9637 50.2333C66.1168 50.3863 66.2379 50.5682 66.3207 50.7682C66.4036 50.9682 66.4462 51.1824 66.4462 51.3989C66.4462 51.6154 66.4036 51.8299 66.3207 52.0299C66.2379 52.2299 66.1168 52.4116 65.9637 52.5646L60.5695 57.9604L65.9637 63.3567C66.1169 63.5096 66.2379 63.6912 66.3207 63.8911C66.4036 64.091 66.4469 64.3052 66.4469 64.5216C66.4469 64.738 66.4036 64.9523 66.3207 65.1522C66.2379 65.3521 66.1169 65.5337 65.9637 65.6865C65.8111 65.8399 65.6296 65.9615 65.4298 66.0444C65.2299 66.1273 65.0152 66.17 64.7989 66.1697C64.5825 66.1699 64.3686 66.1273 64.1687 66.0444C63.9689 65.9615 63.7875 65.8398 63.6348 65.6865Z" fill="white"/>
</g>
</svg>
