<svg width="14" height="15" viewBox="0 0 14 15" fill="none" xmlns="http://www.w3.org/2000/svg">
<path d="M5.88568 10.8755C5.71109 10.8724 5.54409 10.8064 5.41789 10.6905L2.54504 8.05632C2.47953 7.99656 2.42705 7.92488 2.39067 7.84547C2.35428 7.76605 2.33472 7.68047 2.33312 7.59372C2.33151 7.50697 2.3479 7.42078 2.38132 7.34017C2.41474 7.25956 2.46454 7.18614 2.5278 7.12419C2.6563 6.99837 2.83118 6.92612 3.01469 6.92302C3.1982 6.91992 3.37561 6.98623 3.50865 7.10763L5.87993 9.28098L10.4443 4.11256C10.5635 3.97946 10.7322 3.89648 10.9143 3.88139C11.0965 3.8663 11.2775 3.92031 11.4187 4.03183C11.4883 4.08707 11.5459 4.15504 11.5879 4.23181C11.63 4.30857 11.6557 4.3926 11.6637 4.479C11.6716 4.5654 11.6616 4.65246 11.6343 4.73512C11.6069 4.81778 11.5627 4.89439 11.5042 4.96051L6.48713 10.6436C6.42163 10.7176 6.34013 10.777 6.24829 10.8176C6.15646 10.8582 6.0565 10.8792 5.95538 10.8789C5.9321 10.8789 5.90884 10.8777 5.88568 10.8755V10.8755Z" fill="#176CF7"/>
</svg>
