<svg width="14" height="15" viewBox="0 0 14 15" fill="none" xmlns="http://www.w3.org/2000/svg">
<path d="M5.88599 10.8755C5.7114 10.8724 5.54439 10.8064 5.4182 10.6905L2.54535 8.05632C2.47983 7.99656 2.42736 7.92488 2.39097 7.84547C2.35459 7.76605 2.33503 7.68047 2.33342 7.59372C2.33182 7.50697 2.3482 7.42078 2.38163 7.34017C2.41505 7.25956 2.46484 7.18614 2.5281 7.12419C2.65661 6.99837 2.83149 6.92612 3.015 6.92302C3.1985 6.91992 3.37592 6.98623 3.50895 7.10763L5.88024 9.28098L10.4446 4.11256C10.5638 3.97946 10.7325 3.89648 10.9146 3.88139C11.0968 3.8663 11.2778 3.92031 11.419 4.03183C11.4886 4.08707 11.5462 4.15504 11.5882 4.23181C11.6303 4.30857 11.656 4.3926 11.664 4.479C11.672 4.5654 11.662 4.65246 11.6346 4.73512C11.6072 4.81778 11.563 4.89439 11.5045 4.96051L6.48743 10.6436C6.42194 10.7176 6.34043 10.777 6.2486 10.8176C6.15676 10.8582 6.0568 10.8792 5.95569 10.8789C5.93241 10.8789 5.90915 10.8777 5.88599 10.8755V10.8755Z" fill="#176CF7"/>
</svg>
