<svg xmlns="http://www.w3.org/2000/svg" width="21.677" height="20.184" viewBox="0 0 21.677 20.184">
  <g id="Group_14561" data-name="Group 14561" transform="translate(0 -0.001)">
    <path id="Icon_ionic-ios-arrow-forward" data-name="Icon ionic-ios-arrow-forward" d="M8.285,10.833.435,2.638A1.592,1.592,0,0,1,.435.45a1.449,1.449,0,0,1,2.1,0l8.893,9.286a1.6,1.6,0,0,1,.043,2.136l-8.93,9.351a1.446,1.446,0,0,1-2.1,0,1.592,1.592,0,0,1,0-2.188Z" transform="translate(0.002 20.185) rotate(-90)" fill="#525252"/>
    <path id="Icon_ionic-ios-arrow-forward-2" data-name="Icon ionic-ios-arrow-forward" d="M7.824,10.841l-7.413,8.2a1.66,1.66,0,0,0,0,2.188,1.317,1.317,0,0,0,1.983,0l8.4-9.286A1.667,1.667,0,0,0,10.833,9.8L2.4.452A1.334,1.334,0,0,0,1.408,0,1.334,1.334,0,0,0,.417.452a1.66,1.66,0,0,0,0,2.188Z" transform="translate(21.674 0.001) rotate(90)" fill="#525252"/>
  </g>
</svg>
