<svg width="24" height="24" viewBox="0 0 24 24" fill="none" xmlns="http://www.w3.org/2000/svg">
<path d="M20 8.45117H4C2.89543 8.45117 2 9.3466 2 10.4512V18.4512C2 19.5557 2.89543 20.4512 4 20.4512H20C21.1046 20.4512 22 19.5557 22 18.4512V10.4512C22 9.3466 21.1046 8.45117 20 8.45117Z" stroke="black" stroke-width="1.5" stroke-linecap="round" stroke-linejoin="round"/>
<path d="M6.74023 20.4512V13.6512C6.74023 13.5981 6.76131 13.5473 6.79881 13.5098C6.83632 13.4722 6.88719 13.4512 6.94023 13.4512H16.8002C16.8533 13.4512 16.9041 13.4722 16.9417 13.5098C16.9792 13.5473 17.0002 13.5981 17.0002 13.6512V20.4512" stroke="black" stroke-width="1.5" stroke-linecap="round" stroke-linejoin="round"/>
<path d="M12 13.4512V20.4512" stroke="black" stroke-width="1.5" stroke-linecap="round" stroke-linejoin="round"/>
<path d="M4.19043 8.45109V5.45109C6.61246 4.21257 9.29178 3.56092 12.0121 3.54876C14.7324 3.5366 17.4174 4.16427 19.8504 5.38109L20.0004 5.45109V8.45109" stroke="black" stroke-width="1.5" stroke-linecap="round" stroke-linejoin="round"/>
</svg>
