<svg width="22" height="22" viewBox="0 0 22 22" fill="none" xmlns="http://www.w3.org/2000/svg">
<path fill-rule="evenodd" clip-rule="evenodd" d="M20 3H2V15H5.33333L8 19L10.6667 15H20V3Z" fill="#176CF7"/>
<path d="M18.2476 2.98242H3.78255C3.29632 2.98242 2.83001 3.17558 2.48619 3.51939C2.14237 3.86321 1.94922 4.32952 1.94922 4.81576V13.1208C1.94922 13.3615 1.99664 13.5999 2.08877 13.8223C2.18091 14.0448 2.31595 14.2469 2.48619 14.4171C2.65643 14.5874 2.85854 14.7224 3.08097 14.8145C3.3034 14.9067 3.5418 14.9541 3.78255 14.9541H5.28589L7.40339 18.6208C7.47128 18.7409 7.56985 18.8408 7.68904 18.9104C7.80822 18.9799 7.94373 19.0166 8.08172 19.0166C8.21971 19.0166 8.35522 18.9799 8.4744 18.9104C8.59358 18.8408 8.69216 18.7409 8.76005 18.6208L10.8867 14.9541H18.2201C18.7063 14.9541 19.1726 14.7609 19.5164 14.4171C19.8602 14.0733 20.0534 13.607 20.0534 13.1208V4.81576C20.0534 4.33425 19.8641 3.87206 19.5262 3.52902C19.1883 3.18598 18.729 2.98964 18.2476 2.98242Z" stroke="#176CF7" stroke-width="1.5" stroke-linecap="round" stroke-linejoin="round"/>
<path d="M4.60938 7.20898H10.1094" stroke="white" stroke-width="1.5" stroke-linecap="round" stroke-linejoin="round"/>
<path d="M4.60938 10.875H16.526" stroke="white" stroke-width="1.5" stroke-linecap="round" stroke-linejoin="round"/>
</svg>
