<svg width="15" height="15" viewBox="0 0 15 15" fill="none" xmlns="http://www.w3.org/2000/svg">
<path d="M11.9783 14.7659L13.9117 12.8313C14.0658 12.6806 14.1882 12.5005 14.2718 12.3017C14.3554 12.1029 14.3984 11.8895 14.3984 11.6738C14.3984 11.4582 14.3554 11.2447 14.2718 11.0459C14.1882 10.8471 14.0658 10.6671 13.9117 10.5163L12.8115 9.41546C12.6613 9.26494 12.4828 9.14553 12.2864 9.06406C12.09 8.98259 11.8795 8.94066 11.6669 8.94066C11.4543 8.94066 11.2438 8.98259 11.0474 9.06406C10.851 9.14553 10.6725 9.26494 10.5223 9.41546L9.79425 10.1359C7.91989 9.01193 6.35037 7.44417 5.22384 5.57059L5.95187 4.85019C6.10229 4.69984 6.22162 4.52129 6.30304 4.32476C6.38445 4.12823 6.42636 3.91757 6.42636 3.70482C6.42636 3.49207 6.38445 3.28141 6.30304 3.08488C6.22162 2.88835 6.10229 2.70981 5.95187 2.55946L4.876 1.4748C4.72575 1.32428 4.54732 1.20487 4.35091 1.1234C4.15451 1.04193 3.94399 1 3.73138 1C3.51877 1 3.30824 1.04193 3.11184 1.1234C2.91543 1.20487 2.737 1.32428 2.58675 1.4748L0.637246 3.40937C0.504746 3.54109 0.421879 3.71463 0.40271 3.90054C0.383542 4.08644 0.429253 4.27326 0.532086 4.42928C3.27738 8.5684 6.82265 12.116 10.9591 14.863C11.1141 14.967 11.3003 15.0141 11.486 14.9964C11.6718 14.9787 11.8457 14.8972 11.9783 14.7659Z" fill="#14B86D"/>
</svg>
