<svg width="18" height="18" viewBox="0 0 18 18" fill="none" xmlns="http://www.w3.org/2000/svg">
<defs>
<linearGradient id="paint0_linear" x1="9" y1="0" x2="9" y2="18" gradientUnits="userSpaceOnUse">
<stop stop-color="#37DD57"/>
<stop offset="1" stop-color="#33CA50"/>
</linearGradient>
<linearGradient id="paint1_linear" x1="0" y1="0" x2="18" y2="18" gradientUnits="userSpaceOnUse">
<stop stop-color="#37DD57"/>
<stop offset="1" stop-color="#33CA50"/>
</linearGradient>
</defs>
<rect width="18" height="18" rx="6" fill="url(#paint0_linear)"/>
<rect width="18" height="18" rx="6" fill="url(#paint1_linear)"/>
<path d="M13.2509 4.74385C12.1229 3.61997 10.6229 3.00069 9.02472 3C5.7315 3 3.05148 5.66737 3.05016 8.94596C3.04978 9.99397 3.32482 11.017 3.8476 11.9187L3 15L6.16718 14.1732C7.0398 14.647 8.02231 14.8966 9.02215 14.897H9.02469H9.02472C12.3174 14.897 14.9978 12.2292 14.9992 8.95078C14.9998 7.36182 14.3789 5.86781 13.2509 4.74385ZM9.02472 13.8928H9.02278C8.13157 13.8923 7.25763 13.6541 6.49533 13.2037L6.31392 13.0967L4.43445 13.5873L4.93624 11.7635L4.81805 11.5765C4.32093 10.7896 4.05849 9.88016 4.05886 8.94634C4.05995 6.22129 6.28748 4.00433 9.0266 4.00433C10.353 4.00488 11.5997 4.51963 12.5373 5.45377C13.4749 6.38789 13.9908 7.62969 13.9904 8.95036C13.9893 11.6755 11.7617 13.8928 9.02472 13.8928Z" fill="white"/>
<path fill-rule="evenodd" clip-rule="evenodd" d="M7.54834 6.42136C7.43781 6.17669 7.32143 6.17179 7.21627 6.16751C7.13026 6.16384 7.03179 6.16407 6.93347 6.16407C6.83508 6.16407 6.6752 6.20088 6.53999 6.34789C6.4047 6.49491 6.02344 6.85031 6.02344 7.57313C6.02344 8.29603 6.55229 8.99452 6.626 9.09262C6.6998 9.19058 7.64689 10.7213 9.14681 11.3102C10.3934 11.7996 10.647 11.7023 10.9176 11.6778C11.1882 11.6533 11.7907 11.3225 11.9137 10.9794C12.0367 10.6364 12.0367 10.3424 11.9998 10.2809C11.9629 10.2197 11.8645 10.1829 11.7169 10.1095C11.5693 10.036 10.8438 9.68052 10.7085 9.63154C10.5732 9.58256 10.4749 9.55807 10.3765 9.70516C10.2781 9.8521 9.99543 10.1829 9.90934 10.2809C9.82325 10.3791 9.73715 10.3913 9.58957 10.3179C9.44198 10.2442 8.9667 10.0892 8.40288 9.58867C7.9642 9.19929 7.66802 8.71838 7.58193 8.57129C7.49584 8.42436 7.5727 8.34476 7.64673 8.27152C7.71299 8.2057 7.79432 8.10002 7.86811 8.01423C7.94175 7.92843 7.96634 7.86721 8.01554 7.76925C8.06473 7.67114 8.04014 7.58536 8.00324 7.51189C7.96634 7.43842 7.67955 6.71187 7.54834 6.42136Z" fill="white"/>
</svg>
