<svg width="19" height="22" viewBox="0 0 19 22" fill="none" xmlns="http://www.w3.org/2000/svg">
<path fill-rule="evenodd" clip-rule="evenodd" d="M13.6517 3.7688H6.15651C5.70779 3.7688 5.27744 3.94342 4.96015 4.25423C4.64285 4.56505 4.4646 4.98662 4.4646 5.42618V18.6852C4.4646 19.1248 4.64285 19.5464 4.96015 19.8572C5.27744 20.168 5.70779 20.3426 6.15651 20.3426H16.308C16.7567 20.3426 17.187 20.168 17.5043 19.8572C17.8216 19.5464 17.9999 19.1248 17.9999 18.6852V9.50334C18.0029 9.33385 17.9495 9.16801 17.8476 9.03098L14.3369 4.12514C14.26 4.0165 14.1576 3.92748 14.0384 3.86549C13.9192 3.8035 13.7866 3.77034 13.6517 3.7688V3.7688Z" stroke="white" stroke-width="1.5" stroke-linecap="round" stroke-linejoin="bevel"/>
<path fill-rule="evenodd" clip-rule="evenodd" d="M3.19411 0.94751C2.55141 0.94751 1.93199 1.19747 1.47291 1.64718C1.01331 2.0974 0.752197 2.71137 0.752197 3.35489V16.6139C0.752197 17.2575 1.01331 17.8714 1.47291 18.3217C1.93199 18.7714 2.55141 19.0213 3.19411 19.0213H4.49983C4.47663 18.9116 4.46469 18.799 4.46469 18.6853V17.5213H3.19411C2.93936 17.5213 2.69809 17.422 2.52258 17.2501C2.3476 17.0787 2.2522 16.8495 2.2522 16.6139V3.35489C2.2522 3.11929 2.3476 2.89013 2.52258 2.71871C2.69809 2.54679 2.93936 2.44751 3.19411 2.44751H10.683C10.7001 2.44805 10.7162 2.45242 10.73 2.4596C10.7444 2.46707 10.7551 2.47697 10.7624 2.48725L10.7624 2.48725L10.7646 2.49031L11.6795 3.76883H13.524L11.9866 1.62045L11.9854 1.61876C11.839 1.41255 11.6455 1.24499 11.4221 1.12879C11.1981 1.01231 10.9498 0.950445 10.6979 0.947559L10.6893 1.69751V0.94751H3.19411Z" fill="white"/>
</svg>
