<svg width="14" height="13" viewBox="0 0 14 13" fill="none" xmlns="http://www.w3.org/2000/svg">
<path d="M13.1401 4.69531H1" stroke="#176CF7" stroke-linecap="round" stroke-linejoin="bevel"/>
<path d="M3.47266 2.24389V1" stroke="#176CF7" stroke-linecap="round" stroke-linejoin="bevel"/>
<path d="M10.8711 2.24389V1" stroke="#176CF7" stroke-linecap="round" stroke-linejoin="bevel"/>
<path d="M11.9755 2.24414H2.2195C1.54599 2.24414 1 2.79013 1 3.46364V10.7806C1 11.4541 1.54599 12.0001 2.2195 12.0001H11.9755C12.649 12.0001 13.195 11.4541 13.195 10.7806V3.46364C13.195 2.79013 12.649 2.24414 11.9755 2.24414Z" stroke="#176CF7" stroke-linecap="round" stroke-linejoin="bevel"/>
<path d="M4.26656 6.51953H3.04706C2.87868 6.51953 2.74219 6.65603 2.74219 6.82441V8.0439C2.74219 8.21228 2.87868 8.34878 3.04706 8.34878H4.26656C4.43494 8.34878 4.57143 8.21228 4.57143 8.0439V6.82441C4.57143 6.65603 4.43494 6.51953 4.26656 6.51953Z" stroke="#176CF7" stroke-linecap="round" stroke-linejoin="bevel"/>
<path d="M7.77437 6.51953H6.55487C6.3865 6.51953 6.25 6.65603 6.25 6.82441V8.0439C6.25 8.21228 6.3865 8.34878 6.55487 8.34878H7.77437C7.94275 8.34878 8.07924 8.21228 8.07924 8.0439V6.82441C8.07924 6.65603 7.94275 6.51953 7.77437 6.51953Z" stroke="#176CF7" stroke-linecap="round" stroke-linejoin="round"/>
</svg>
