<svg width="48" height="48" viewBox="0 0 48 48" fill="none" xmlns="http://www.w3.org/2000/svg">
<g clip-path="url(#clip0_849_31644)">
<mask id="mask0_849_31644" style="mask-type:alpha" maskUnits="userSpaceOnUse" x="0" y="0" width="48" height="48">
<path d="M48 0H0V48H48V0Z" fill="white"/>
</mask>
<g mask="url(#mask0_849_31644)">
<path fill-rule="evenodd" clip-rule="evenodd" d="M43.3337 3.33337H40.667L40.5886 4.66671H43.4121L43.3337 3.33337ZM43.4513 5.33337H40.5493L40.3932 7.98811L23.667 11.3334V45H47.0003V6.66671L43.5701 7.35277L43.4513 5.33337Z" fill="#307CFE"/>
<mask id="mask1_849_31644" style="mask-type:alpha" maskUnits="userSpaceOnUse" x="23" y="3" width="24" height="42">
<path fill-rule="evenodd" clip-rule="evenodd" d="M43.3337 3.33337H40.667L40.5886 4.66671H43.4121L43.3337 3.33337ZM43.4513 5.33337H40.5493L40.3932 7.98811L23.667 11.3334V45H47.0003V6.66671L43.5701 7.35277L43.4513 5.33337Z" fill="black"/>
</mask>
<g mask="url(#mask1_849_31644)">
<path d="M40.6673 3.33339V3.00006H40.353L40.3346 3.31382L40.6673 3.33339ZM43.334 3.33339L43.6667 3.31382L43.6483 3.00006H43.334V3.33339ZM40.5889 4.66673L40.2561 4.64715L40.2354 5.00006H40.5889V4.66673ZM43.4124 4.66673V5.00006H43.7659L43.7452 4.64715L43.4124 4.66673ZM43.4517 5.33339L43.7844 5.31382L43.7659 5.00006H43.4517V5.33339ZM40.5497 5.33339V5.00006H40.2354L40.2169 5.31382L40.5497 5.33339ZM40.3935 7.98813L40.4589 8.31499L40.7112 8.26453L40.7263 8.00773L40.3935 7.98813ZM23.6673 11.3334L23.6019 11.0065L23.334 11.0601V11.3334H23.6673ZM23.6673 45.0001H23.334V45.3334H23.6673V45.0001ZM47.0007 45.0001V45.3334H47.334V45.0001H47.0007ZM47.0007 6.66673H47.334V6.26013L46.9353 6.33987L47.0007 6.66673ZM43.5704 7.35279L43.2377 7.37233L43.2602 7.75479L43.6358 7.67966L43.5704 7.35279ZM40.6673 3.66673H43.334V3.00006H40.6673V3.66673ZM40.9217 4.6863L41.0001 3.35297L40.3346 3.31382L40.2561 4.64715L40.9217 4.6863ZM40.5889 5.00006H43.4124V4.33339H40.5889V5.00006ZM43.0013 3.35297L43.0797 4.6863L43.7452 4.64715L43.6667 3.31382L43.0013 3.35297ZM43.4517 5.00006H40.5497V5.66673H43.4517V5.00006ZM40.7263 8.00773L40.8825 5.35297L40.2169 5.31382L40.0607 7.96859L40.7263 8.00773ZM23.7327 11.6603L40.4589 8.31499L40.3281 7.66133L23.6019 11.0065L23.7327 11.6603ZM24.0007 45.0001V11.3334H23.334V45.0001H24.0007ZM47.0007 44.6667H23.6673V45.3334H47.0007V44.6667ZM46.6673 6.66673V45.0001H47.334V6.66673H46.6673ZM43.6358 7.67966L47.0661 6.99359L46.9353 6.33987L43.5051 7.02593L43.6358 7.67966ZM43.1189 5.35297L43.2377 7.37233L43.9032 7.33319L43.7844 5.31382L43.1189 5.35297Z" fill="black"/>
</g>
<path d="M39.154 2.53255C39.8468 2.93255 41.3156 3.01076 41.9634 2.99986C41.7194 2.08917 40.398 1.71118 39.9427 1.83319C39.4873 1.9552 38.4547 1.74388 38.166 1.57721C38.288 2.03255 40.0647 2.28853 39.6093 2.41054L39.154 2.53255Z" fill="#E4E4E4" stroke="black" stroke-width="0.5"/>
<path d="M34.487 1.19924C35.1798 1.59924 36.6486 1.67745 37.2964 1.66655C37.0524 0.75586 35.731 0.377871 35.2757 0.49988C34.8204 0.621888 33.7877 0.410563 33.499 0.243896C33.621 0.69924 35.3977 0.95522 34.9424 1.07723L34.487 1.19924Z" fill="#E4E4E4" stroke="black" stroke-width="0.5"/>
<path d="M24 18.5H46.6667" stroke="black" stroke-width="0.5"/>
<path d="M26.0003 6.66669V44.6667H0.666992V11.2928L26.0003 6.66669Z" fill="white" stroke="black" stroke-width="0.5"/>
<path d="M5.81207 35.9392L5.81204 35.9391C4.5686 34.2035 3.66212 31.9289 3.51962 29.6595C3.3773 27.3931 3.9965 25.141 5.79176 23.4242C9.40375 19.9698 15.2629 19.9698 18.8749 23.4242C20.6702 25.141 21.2894 27.3931 21.1471 29.6595C21.0045 31.9289 20.0981 34.2035 18.8547 35.9391L18.8546 35.9392L13.0543 44.0402C12.7006 44.5342 11.9661 44.5342 11.6124 44.0402L5.81207 35.9392Z" fill="#307CFE" stroke="black" stroke-width="0.5"/>
<path d="M12.0003 35.1667C15.222 35.1667 17.8337 32.555 17.8337 29.3333C17.8337 26.1117 15.222 23.5 12.0003 23.5C8.77866 23.5 6.16699 26.1117 6.16699 29.3333C6.16699 32.555 8.77866 35.1667 12.0003 35.1667Z" fill="#FFC217" stroke="black" stroke-width="0.5"/>
<path d="M12.8769 27.3335V29.7891L12.8145 30.285H8.06247L8 29.7891V27.3335H12.8769Z" fill="#183E7F" stroke="#231F20" stroke-width="0.2" stroke-miterlimit="10" stroke-linejoin="round"/>
<path d="M8.78875 29.7518H8.65748C8.62182 29.7518 8.59375 29.7237 8.59375 29.688V27.8763C8.59375 27.8406 8.62182 27.8126 8.65748 27.8126H8.78875C8.82442 27.8126 8.85248 27.8406 8.85248 27.8763V29.688C8.85248 29.7237 8.82442 29.7518 8.78875 29.7518Z" fill="#FFC217" stroke="#231F20" stroke-width="0.2" stroke-miterlimit="10"/>
<path d="M9.64806 29.7517H9.51686C9.48113 29.7517 9.45312 29.7236 9.45312 29.688V27.8762C9.45312 27.8406 9.48113 27.8125 9.51686 27.8125H9.64806C9.68379 27.8125 9.71179 27.8406 9.71179 27.8762V29.688C9.71179 29.7236 9.68253 29.7517 9.64806 29.7517Z" fill="#FFC217" stroke="#231F20" stroke-width="0.2" stroke-miterlimit="10"/>
<path d="M10.5046 29.7517H10.3733C10.3376 29.7517 10.3096 29.7236 10.3096 29.688V27.8762C10.3096 27.8406 10.3376 27.8125 10.3733 27.8125H10.5046C10.5402 27.8125 10.5683 27.8406 10.5683 27.8762V29.688C10.5683 29.7236 10.5402 29.7517 10.5046 29.7517Z" fill="#FFC217" stroke="#231F20" stroke-width="0.2" stroke-miterlimit="10"/>
<path d="M11.3639 29.7517H11.2327C11.197 29.7517 11.1689 29.7236 11.1689 29.6879V27.8762C11.1689 27.8405 11.197 27.8125 11.2327 27.8125H11.3639C11.3996 27.8125 11.4276 27.8405 11.4276 27.8762V29.6879C11.4276 29.7236 11.3996 29.7517 11.3639 29.7517Z" fill="#FFC217" stroke="#231F20" stroke-width="0.2" stroke-miterlimit="10"/>
<path d="M12.2226 29.7517H12.09C12.0544 29.7517 12.0264 29.7236 12.0264 29.688V27.8762C12.0264 27.8406 12.0544 27.8125 12.09 27.8125H12.2213C12.257 27.8125 12.285 27.8406 12.285 27.8762V29.688C12.2863 29.7236 12.257 29.7517 12.2226 29.7517Z" fill="#FFC217" stroke="#231F20" stroke-width="0.2" stroke-miterlimit="10"/>
<path d="M12.9317 30.3055V28.2682C12.9317 28.2197 12.9521 28.1725 12.9878 28.1381C13.0234 28.1037 13.0719 28.0846 13.1228 28.0846H14.3373C14.3666 28.0846 14.3959 28.091 14.4227 28.1037C14.4494 28.1165 14.4724 28.1356 14.4902 28.1585L15.2599 29.153L15.5148 29.2346C15.5606 29.2499 15.5989 29.2805 15.6218 29.3213L15.7505 29.8121C15.7836 29.8708 15.739 29.9078 15.8092 29.9078C15.8601 29.9078 15.9086 29.9269 15.9442 29.9613C15.9799 29.9957 16.0003 30.0429 16.0003 30.0914V30.5759C16.0003 30.7505 15.9634 30.8921 15.7811 30.8921H14.2366V31.1011H12.8438V31.3102H8.88317V30.8283H8.0625V30.2839L12.9317 30.3055Z" fill="#307CFE" stroke="#231F20" stroke-width="0.2" stroke-miterlimit="10"/>
<path d="M14.3667 28.4102L14.6508 28.7812C14.6802 28.8194 14.698 28.8653 14.7018 28.9125C14.7056 28.9597 14.6968 29.0081 14.6738 29.0502C14.6508 29.0922 14.6164 29.1292 14.5744 29.1534C14.5324 29.179 14.4826 29.1917 14.433 29.1917H13.5346C13.4632 29.1917 13.3956 29.165 13.3446 29.1165C13.295 29.068 13.2656 29.0018 13.2656 28.9342V28.5606C13.2656 28.5262 13.272 28.493 13.286 28.4612C13.3 28.4293 13.3192 28.4012 13.3446 28.377C13.3702 28.3528 13.3994 28.3336 13.4326 28.3209C13.4657 28.3082 13.5001 28.3018 13.5358 28.3018L14.15 28.3044C14.1921 28.3044 14.2342 28.3132 14.2711 28.3324C14.3094 28.3515 14.3412 28.3783 14.3667 28.4102Z" fill="#183E7F" stroke="#231F20" stroke-width="0.2" stroke-miterlimit="10"/>
<path d="M9.39152 31.8545C9.83886 31.8545 10.202 31.5052 10.202 31.0743C10.202 30.6433 9.83886 30.294 9.39152 30.294C8.94426 30.294 8.58106 30.6433 8.58106 31.0743C8.57979 31.5052 8.94299 31.8545 9.39152 31.8545Z" fill="#183E7F" stroke="#231F20" stroke-width="0.2" stroke-miterlimit="10"/>
<path d="M9.39142 31.5171C9.64502 31.5171 9.85015 31.3195 9.85015 31.0747C9.85015 30.8299 9.64502 30.6323 9.39142 30.6323C9.13782 30.6323 8.93262 30.8299 8.93262 31.0747C8.93262 31.3195 9.13782 31.5171 9.39142 31.5171Z" fill="#307CFE" stroke="#231F20" stroke-width="0.2" stroke-miterlimit="10"/>
<path d="M14.5478 31.8545C14.995 31.8545 15.3582 31.5052 15.3582 31.0743C15.3582 30.6433 14.995 30.294 14.5478 30.294C14.1004 30.294 13.7373 30.6433 13.7373 31.0743C13.7373 31.5052 14.1004 31.8545 14.5478 31.8545Z" fill="#183E7F" stroke="#231F20" stroke-width="0.2" stroke-miterlimit="10"/>
<path d="M14.5477 31.5171C14.8012 31.5171 15.0064 31.3195 15.0064 31.0747C15.0064 30.8299 14.8012 30.6323 14.5477 30.6323C14.2941 30.6323 14.0889 30.8299 14.0889 31.0747C14.0889 31.3195 14.2953 31.5171 14.5477 31.5171Z" fill="#307CFE" stroke="#231F20" stroke-width="0.2" stroke-miterlimit="10"/>
<path d="M25.833 11.5H0.833008V18.5H25.833V11.5Z" fill="white" stroke="black" stroke-width="0.5"/>
<path fill-rule="evenodd" clip-rule="evenodd" d="M26.0003 11.3334V6.66669L0.666992 11.2928V11.3334H26.0003Z" fill="#176CF7"/>
<path d="M26 6.66666H26.1667V6.4668L25.9701 6.5027L26 6.66666ZM26 11.3333V11.5H26.1667V11.3333H26ZM0.666667 11.2927L0.636727 11.1288L0.5 11.1537V11.2927H0.666667ZM0.666667 11.3333H0.5V11.5H0.666667V11.3333ZM25.8333 6.66666V11.3333H26.1667V6.66666H25.8333ZM0.696607 11.4567L26.0299 6.83059L25.9701 6.5027L0.636727 11.1288L0.696607 11.4567ZM0.833333 11.3333V11.2927H0.5V11.3333H0.833333ZM0.666667 11.5H26V11.1667H0.666667V11.5Z" fill="black"/>
<path d="M3.91993 14.1267V13.64H2.0166V14.1267H2.68327V16H3.25327V14.1267H3.91993ZM6.11012 16L5.49345 14.99C5.79678 14.8967 5.98345 14.67 5.98345 14.3533C5.98345 13.8133 5.53345 13.64 5.08011 13.64H4.18011V16H4.74011V15.0633H4.93345L5.44345 16H6.11012ZM5.42011 14.3633C5.42011 14.6033 5.19011 14.65 5.00678 14.65H4.73678V14.1H5.04011C5.21011 14.1 5.42011 14.1433 5.42011 14.3633ZM8.3904 15.11V13.64H7.8204V15.0633C7.8204 15.3167 7.7004 15.55 7.37707 15.55C7.05707 15.55 6.93373 15.3167 6.93373 15.0633V13.64H6.36707V15.11C6.36707 15.6767 6.75374 16.0633 7.37373 16.0633C7.9904 16.0633 8.3904 15.6767 8.3904 15.11ZM10.928 15.6733L10.5313 15.3C10.4313 15.44 10.2547 15.54 10.0313 15.54C9.638 15.54 9.36133 15.2467 9.36133 14.8167C9.36133 14.4 9.64467 14.0933 10.0413 14.0933C10.2213 14.0933 10.4113 14.1633 10.518 14.31L10.9047 13.9233C10.708 13.6967 10.3513 13.5767 10.0213 13.5767C9.30133 13.5767 8.74133 14.06 8.74133 14.8167C8.74133 15.5567 9.28467 16.0633 10.0113 16.0633C10.408 16.0633 10.7213 15.9133 10.928 15.6733ZM13.359 16L12.2823 14.7267L13.299 13.64H12.5857L11.7423 14.6H11.7323V13.64H11.1723V16H11.7323V14.9133H11.739L12.6157 16H13.359ZM15.9463 13.87C15.7397 13.68 15.4397 13.58 15.173 13.58C14.733 13.58 14.2597 13.7967 14.2597 14.32C14.2597 14.7467 14.563 14.9 14.863 14.9967C15.173 15.0967 15.353 15.1533 15.353 15.3333C15.353 15.5233 15.1997 15.59 15.0263 15.59C14.8397 15.59 14.6297 15.4833 14.5163 15.34L14.143 15.72C14.3497 15.9367 14.6897 16.06 15.0263 16.06C15.493 16.06 15.9297 15.8167 15.9297 15.2733C15.9297 14.8033 15.5163 14.6667 15.1963 14.5633C14.973 14.4933 14.833 14.4433 14.833 14.2867C14.833 14.1 15.0163 14.05 15.163 14.05C15.3097 14.05 15.4863 14.13 15.583 14.2533L15.9463 13.87ZM18.5391 16L17.5591 13.64H17.0058L16.0157 16H16.6358L16.8091 15.5367H17.7225L17.9058 16H18.5391ZM17.5658 15.08H16.9725L17.2725 14.27L17.5658 15.08ZM20.2208 16V15.5033H19.3075V13.64H18.7341V16H20.2208ZM22.1354 16V15.5133H21.0387V15.0233H22.0187V14.5667H21.0387V14.1233H22.0754V13.64H20.4887V16H22.1354ZM24.1235 13.87C23.9168 13.68 23.6168 13.58 23.3501 13.58C22.9101 13.58 22.4368 13.7967 22.4368 14.32C22.4368 14.7467 22.7401 14.9 23.0401 14.9967C23.3501 15.0967 23.5301 15.1533 23.5301 15.3333C23.5301 15.5233 23.3768 15.59 23.2035 15.59C23.0168 15.59 22.8068 15.4833 22.6935 15.34L22.3201 15.72C22.5268 15.9367 22.8668 16.06 23.2035 16.06C23.6701 16.06 24.1068 15.8167 24.1068 15.2733C24.1068 14.8033 23.6935 14.6667 23.3735 14.5633C23.1501 14.4933 23.0101 14.4433 23.0101 14.2867C23.0101 14.1 23.1935 14.05 23.3401 14.05C23.4868 14.05 23.6635 14.13 23.7601 14.2533L24.1235 13.87Z" fill="black"/>
<path d="M31.4912 28.0962V28.6164L32.9673 29.32L34.4475 28.6164V28.0962H31.4912Z" fill="#183E7F" stroke="#231F20" stroke-width="0.5" stroke-miterlimit="10"/>
<path d="M31.0059 26.5174H41.3541V24.9254L31.0059 26.5174Z" stroke="#231F20" stroke-width="0.5" stroke-miterlimit="10"/>
<path d="M43.7412 24.9254V26.5174H45.3333L43.7412 24.9254Z" stroke="#231F20" stroke-width="0.5" stroke-miterlimit="10"/>
<path d="M41.3516 23.3334H43.7396V26.5174H41.3516V23.3334Z" fill="#FFC217" stroke="#231F20" stroke-width="0.5" stroke-miterlimit="10"/>
<path d="M41.3516 28.1095H43.7396V43.2338H41.3516V28.1095Z" fill="#FFC217" stroke="#231F20" stroke-width="0.5" stroke-miterlimit="10"/>
<path d="M26.8219 41.1698V35.7568C26.8219 35.626 26.7674 35.5017 26.6737 35.4102C26.5778 35.3186 26.4493 35.2663 26.3142 35.2663H23.0871C23.0087 35.2663 22.9303 35.2837 22.8583 35.3186C22.7886 35.3535 22.7254 35.4014 22.6797 35.4646L20.6336 38.1068L19.9559 38.3248C19.8339 38.3641 19.7315 38.4469 19.6705 38.5559L19.3284 39.8596C19.2391 40.0165 19.3589 40.1146 19.1737 40.1146C19.0386 40.1146 18.9101 40.167 18.8142 40.2585C18.7183 40.3501 18.666 40.4743 18.666 40.6051V41.8914C18.666 42.3557 18.7663 42.7328 19.2478 42.7328H23.353V43.2866H27.055V43.8424H37.5794V42.5628H39.7605V41.1152L26.8219 41.1698Z" fill="#FFC217" stroke="#231F20" stroke-width="0.5" stroke-miterlimit="10"/>
<path d="M23.0128 36.1315L22.2588 37.1169C22.1804 37.2194 22.1324 37.3415 22.1216 37.4679C22.1106 37.5943 22.1368 37.7208 22.1956 37.8341C22.2544 37.9475 22.346 38.0434 22.4593 38.1088C22.5726 38.1742 22.7012 38.2113 22.834 38.2091H25.2222C25.4118 38.2091 25.5926 38.1372 25.7256 38.0085C25.8584 37.8799 25.9347 37.7055 25.9347 37.5224V36.5305C25.9347 36.4389 25.9151 36.3495 25.8802 36.2667C25.8432 36.1839 25.7909 36.1076 25.7256 36.0443C25.658 35.9811 25.5796 35.931 25.4924 35.8961C25.4052 35.8612 25.3116 35.8438 25.2178 35.8438L23.5858 35.8525C23.4747 35.8525 23.3636 35.8787 23.2633 35.9266C23.1653 35.9746 23.0803 36.0443 23.0128 36.1315Z" fill="#183E7F" stroke="#231F20" stroke-width="0.5" stroke-miterlimit="10"/>
<path d="M36.236 45.2857C35.0463 45.2857 34.0811 44.357 34.0811 43.2103C34.0811 42.0658 35.0463 41.1349 36.236 41.1349C37.4257 41.1349 38.391 42.0636 38.391 43.2103C38.391 44.357 37.4257 45.2857 36.236 45.2857Z" fill="#307CFE" stroke="#231F20" stroke-width="0.5" stroke-miterlimit="10"/>
<path d="M36.2359 44.3852C35.5626 44.3852 35.0156 43.8598 35.0156 43.2102C35.0156 42.5605 35.5626 42.0351 36.2359 42.0351C36.9092 42.0351 37.4561 42.5605 37.4561 43.2102C37.4561 43.8598 36.9092 44.3852 36.2359 44.3852Z" fill="#183E7F" stroke="#231F20" stroke-width="0.5" stroke-miterlimit="10"/>
<path d="M22.527 45.2857C21.3373 45.2857 20.3721 44.357 20.3721 43.2103C20.3721 42.0658 21.3373 41.1349 22.527 41.1349C23.7167 41.1349 24.682 42.0636 24.682 43.2103C24.682 44.357 23.7167 45.2857 22.527 45.2857Z" fill="#307CFE" stroke="#231F20" stroke-width="0.5" stroke-miterlimit="10"/>
<path d="M22.5269 44.3852C21.8536 44.3852 21.3066 43.8598 21.3066 43.2102C21.3066 42.5605 21.8536 42.0351 22.5269 42.0351C23.2002 42.0351 23.7471 42.5605 23.7471 43.2102C23.7471 43.8598 23.2002 44.3852 22.5269 44.3852Z" fill="#183E7F" stroke="#231F20" stroke-width="0.5" stroke-miterlimit="10"/>
<path d="M27.4229 34.4776L28.2189 36.0696H38.7661H40.1592L32.9879 29.3035L27.4229 34.4776Z" stroke="#231F20" stroke-width="0.5" stroke-miterlimit="10" stroke-linejoin="round"/>
<path d="M32.9951 29.3036V36.0697" stroke="#231F20" stroke-width="0.5" stroke-miterlimit="10" stroke-linejoin="round"/>
<path d="M41.3534 43.2642H43.7414L45.3334 44.163V44.8566H39.4766V44.163L41.3534 43.2642Z" fill="#183E7F" stroke="#231F20" stroke-width="0.5" stroke-miterlimit="10"/>
<path d="M38.4629 33.8747L38.4696 33.8725" stroke="#231F20" stroke-width="0.5" stroke-miterlimit="10" stroke-linejoin="round"/>
<path d="M27.4639 33.8725L27.4843 33.8786" stroke="#231F20" stroke-width="0.5" stroke-miterlimit="10" stroke-linejoin="round"/>
<path d="M38.4629 37.6855H38.4696" stroke="#231F20" stroke-width="0.5" stroke-miterlimit="10" stroke-linejoin="round"/>
<path d="M27.4639 37.6853L27.4843 37.6894" stroke="#231F20" stroke-width="0.5" stroke-miterlimit="10" stroke-linejoin="round"/>
<path fill-rule="evenodd" clip-rule="evenodd" d="M28.3337 36.0692H40.1592V39.0496V39.6513H27.4229V39.0496V36.0692H27.4239V34.7827V34.4771H28.3337V34.7827V36.0692Z" fill="#FFC217"/>
<path d="M40.1589 36.0692V35.9025C40.2509 35.9025 40.3255 35.9772 40.3255 36.0692H40.1589ZM28.3333 36.0692V36.2358C28.2413 36.2358 28.1667 36.1612 28.1667 36.0692H28.3333ZM40.1589 39.6513H40.3255C40.3255 39.7433 40.2509 39.818 40.1589 39.818V39.6513ZM27.4225 39.6513V39.818C27.3305 39.818 27.2559 39.7433 27.2559 39.6513H27.4225ZM27.4225 36.0692H27.2559C27.2559 35.9772 27.3305 35.9025 27.4225 35.9025V36.0692ZM27.4236 36.0692H27.5903C27.5903 36.1612 27.5157 36.2358 27.4236 36.2358V36.0692ZM27.4236 34.4771H27.2569C27.2569 34.385 27.3315 34.3104 27.4236 34.3104V34.4771ZM28.3333 34.4771V34.3104C28.4254 34.3104 28.5 34.385 28.5 34.4771H28.3333ZM40.1589 36.2358H28.3333V35.9025H40.1589V36.2358ZM39.9922 39.0496V36.0692H40.3255V39.0496H39.9922ZM39.9922 39.6513V39.0496H40.3255V39.6513H39.9922ZM27.4225 39.4846H40.1589V39.818H27.4225V39.4846ZM27.5892 39.0496V39.6513H27.2559V39.0496H27.5892ZM27.5892 36.0692V39.0496H27.2559V36.0692H27.5892ZM27.4236 36.2358H27.4225V35.9025H27.4236V36.2358ZM27.2569 36.0692V34.7827H27.5903V36.0692H27.2569ZM27.2569 34.7827V34.4771H27.5903V34.7827H27.2569ZM27.4236 34.3104H28.3333V34.6438H27.4236V34.3104ZM28.5 34.4771V34.7827H28.1667V34.4771H28.5ZM28.5 34.7827V36.0692H28.1667V34.7827H28.5Z" fill="#231F20"/>
<mask id="mask2_849_31644" style="mask-type:alpha" maskUnits="userSpaceOnUse" x="28" y="36" width="12" height="4">
<path fill-rule="evenodd" clip-rule="evenodd" d="M37.8388 39.2541H38.101C38.139 39.2541 38.1689 39.2262 38.1689 39.1905V38.1168H39.0005C39.1401 38.1168 39.2498 38.0827 39.2498 38.0392V37.7396C39.2498 37.6961 39.1401 37.6619 39.0005 37.6619H38.1689V36.5317C38.1689 36.4961 38.139 36.4681 38.101 36.4681H37.8388C37.8008 36.4681 37.7709 36.4961 37.7709 36.5317V37.6619H36.1793V36.5317C36.1793 36.4961 36.1495 36.4681 36.1114 36.4681H35.8492C35.8112 36.4681 35.7813 36.4961 35.7813 36.5317V37.6619H34.1871V36.5317C34.1871 36.4961 34.1573 36.4681 34.1192 36.4681H33.8571C33.819 36.4681 33.7891 36.4961 33.7891 36.5317V37.6619H32.1975V36.5317C32.1975 36.4961 32.1677 36.4681 32.1296 36.4681H31.8675C31.8294 36.4681 31.7995 36.4961 31.7995 36.5317V37.6619H30.208V36.5317C30.208 36.4961 30.1781 36.4681 30.1401 36.4681H29.8779C29.8399 36.4681 29.8099 36.4961 29.8099 36.5317V37.6619H28.5822C28.4427 37.6619 28.333 37.6961 28.333 37.7396V38.0392C28.333 38.0827 28.4427 38.1168 28.5822 38.1168H29.8099V39.1905C29.8099 39.2262 29.8399 39.2541 29.8779 39.2541H30.1401C30.1781 39.2541 30.208 39.2262 30.208 39.1905V38.1168H31.7995V39.1905C31.7995 39.2262 31.8294 39.2541 31.8675 39.2541H32.1296C32.1677 39.2541 32.1975 39.2262 32.1975 39.1905V38.1168H33.7891V39.1905C33.7891 39.2262 33.819 39.2541 33.8571 39.2541H34.1192C34.1573 39.2541 34.1871 39.2262 34.1871 39.1905V38.1168H35.7813V39.1905C35.7813 39.2262 35.8112 39.2541 35.8492 39.2541H36.1114C36.1495 39.2541 36.1793 39.2262 36.1793 39.1905V38.1168H37.7709V39.1905C37.7709 39.2262 37.8008 39.2541 37.8388 39.2541Z" fill="#AF8612"/>
</mask>
<g mask="url(#mask2_849_31644)">
<path d="M38.1686 38.1168H37.5019V37.4501H38.1686V38.1168ZM38.1686 37.6619V38.3286H37.5019V37.6619H38.1686ZM37.7705 37.6619H38.4372V38.3286H37.7705V37.6619ZM36.179 37.6619V38.3286H35.5123V37.6619H36.179ZM35.781 37.6619H36.4477V38.3286H35.781V37.6619ZM34.1868 37.6619V38.3286H33.5201V37.6619H34.1868ZM33.7888 37.6619H34.4555V38.3286H33.7888V37.6619ZM32.1972 37.6619V38.3286H31.5305V37.6619H32.1972ZM31.7992 37.6619H32.4659V38.3286H31.7992V37.6619ZM30.2077 37.6619V38.3286H29.541V37.6619H30.2077ZM29.8096 37.6619H30.4763V38.3286H29.8096V37.6619ZM28.5819 37.6619V38.3286V37.6619ZM29.8096 38.1168V37.4501H30.4763V38.1168H29.8096ZM30.2077 38.1168H29.541V37.4501H30.2077V38.1168ZM31.7992 38.1168V37.4501H32.4659V38.1168H31.7992ZM32.1972 38.1168H31.5305V37.4501H32.1972V38.1168ZM33.7888 38.1168V37.4501H34.4555V38.1168H33.7888ZM34.1868 38.1168H33.5201V37.4501H34.1868V38.1168ZM35.781 38.1168V37.4501H36.4477V38.1168H35.781ZM36.179 38.1168H35.5123V37.4501H36.179V38.1168ZM37.7705 38.1168V37.4501H38.4372V38.1168H37.7705ZM38.1007 39.9208H37.8385V38.5875H38.1007V39.9208ZM38.8353 39.1905C38.8353 39.6349 38.465 39.9208 38.1007 39.9208V38.5875C37.8123 38.5875 37.5019 38.8175 37.5019 39.1905H38.8353ZM38.8353 38.1168V39.1905H37.5019V38.1168H38.8353ZM38.1686 37.4501H39.0002V38.7835H38.1686V37.4501ZM39.0002 37.4501C39.0239 37.4501 39.0157 37.4463 38.9789 37.4578C38.9645 37.4623 38.9031 37.4818 38.831 37.5357C38.7687 37.5823 38.5828 37.7455 38.5828 38.0392H39.9161C39.9161 38.3547 39.7165 38.5384 39.6293 38.6037C39.5323 38.6761 39.4347 38.7123 39.3754 38.7308C39.2489 38.7702 39.1161 38.7835 39.0002 38.7835V37.4501ZM38.5828 38.0392V37.7396H39.9161V38.0392H38.5828ZM38.5828 37.7396C38.5828 38.0333 38.7687 38.1965 38.831 38.2431C38.9031 38.297 38.9645 38.3165 38.9789 38.321C39.0157 38.3324 39.0239 38.3286 39.0002 38.3286V36.9953C39.1161 36.9953 39.2489 37.0085 39.3754 37.0479C39.4347 37.0664 39.5323 37.1026 39.6293 37.1751C39.7165 37.2403 39.9161 37.4241 39.9161 37.7396H38.5828ZM39.0002 38.3286H38.1686V36.9953H39.0002V38.3286ZM38.8353 36.5317V37.6619H37.5019V36.5317H38.8353ZM38.1007 35.8014C38.465 35.8014 38.8353 36.0874 38.8353 36.5317H37.5019C37.5019 36.9048 37.8123 37.1347 38.1007 37.1347V35.8014ZM37.8385 35.8014H38.1007V37.1347H37.8385V35.8014ZM37.1039 36.5317C37.1039 36.0874 37.4741 35.8014 37.8385 35.8014V37.1347C38.1268 37.1347 38.4372 36.9048 38.4372 36.5317H37.1039ZM37.1039 37.6619V36.5317H38.4372V37.6619H37.1039ZM37.7705 38.3286H36.179V36.9953H37.7705V38.3286ZM36.8457 36.5317V37.6619H35.5123V36.5317H36.8457ZM36.1111 35.8014C36.4755 35.8014 36.8457 36.0874 36.8457 36.5317H35.5123C35.5123 36.9048 35.8228 37.1347 36.1111 37.1347V35.8014ZM35.8489 35.8014H36.1111V37.1347H35.8489V35.8014ZM35.1143 36.5317C35.1143 36.0874 35.4845 35.8014 35.8489 35.8014V37.1347C36.1372 37.1347 36.4477 36.9048 36.4477 36.5317H35.1143ZM35.1143 37.6619V36.5317H36.4477V37.6619H35.1143ZM35.781 38.3286H34.1868V36.9953H35.781V38.3286ZM33.5201 37.6619V36.5317H34.8535V37.6619H33.5201ZM33.5201 36.5317C33.5201 36.9048 33.8306 37.1347 34.1189 37.1347V35.8014C34.4833 35.8014 34.8535 36.0874 34.8535 36.5317H33.5201ZM34.1189 37.1347H33.8567V35.8014H34.1189V37.1347ZM33.8567 37.1347C34.145 37.1347 34.4555 36.9048 34.4555 36.5317H33.1221C33.1221 36.0874 33.4923 35.8014 33.8567 35.8014V37.1347ZM34.4555 36.5317V37.6619H33.1221V36.5317H34.4555ZM33.7888 38.3286H32.1972V36.9953H33.7888V38.3286ZM32.8639 36.5317V37.6619H31.5305V36.5317H32.8639ZM32.1293 35.8014C32.4937 35.8014 32.8639 36.0874 32.8639 36.5317H31.5305C31.5305 36.9048 31.841 37.1347 32.1293 37.1347V35.8014ZM31.8671 35.8014H32.1293V37.1347H31.8671V35.8014ZM31.1325 36.5317C31.1325 36.0874 31.5027 35.8014 31.8671 35.8014V37.1347C32.1554 37.1347 32.4659 36.9048 32.4659 36.5317H31.1325ZM31.1325 37.6619V36.5317H32.4659V37.6619H31.1325ZM31.7992 38.3286H30.2077V36.9953H31.7992V38.3286ZM29.541 37.6619V36.5317H30.8743V37.6619H29.541ZM29.541 36.5317C29.541 36.9048 29.8514 37.1347 30.1397 37.1347V35.8014C30.5041 35.8014 30.8743 36.0874 30.8743 36.5317H29.541ZM30.1397 37.1347H29.8775V35.8014H30.1397V37.1347ZM29.8775 37.1347C30.1659 37.1347 30.4763 36.9048 30.4763 36.5317H29.1429C29.1429 36.0874 29.5132 35.8014 29.8775 35.8014V37.1347ZM30.4763 36.5317V37.6619H29.1429V36.5317H30.4763ZM29.8096 38.3286H28.5819V36.9953H29.8096V38.3286ZM28.5819 38.3286C28.5582 38.3286 28.5664 38.3324 28.6031 38.321C28.6176 38.3165 28.679 38.297 28.7511 38.2431C28.8135 38.1965 28.9993 38.0333 28.9993 37.7396H27.666C27.666 37.4241 27.8655 37.2403 27.9528 37.1751C28.0499 37.1026 28.1473 37.0664 28.2067 37.0479C28.3332 37.0085 28.466 36.9953 28.5819 36.9953V38.3286ZM28.9993 37.7396V38.0392H27.666V37.7396H28.9993ZM28.9993 38.0392C28.9993 37.7455 28.8135 37.5823 28.7511 37.5357C28.679 37.4818 28.6176 37.4623 28.6031 37.4578C28.5664 37.4463 28.5582 37.4501 28.5819 37.4501V38.7835C28.466 38.7835 28.3332 38.7702 28.2067 38.7308C28.1473 38.7123 28.0499 38.6761 27.9528 38.6037C27.8655 38.5384 27.666 38.3547 27.666 38.0392H28.9993ZM28.5819 37.4501H29.8096V38.7835H28.5819V37.4501ZM30.4763 38.1168V39.1905H29.1429V38.1168H30.4763ZM30.4763 39.1905C30.4763 38.8175 30.1659 38.5875 29.8775 38.5875V39.9208C29.5132 39.9208 29.1429 39.6349 29.1429 39.1905H30.4763ZM29.8775 38.5875H30.1397V39.9208H29.8775V38.5875ZM30.1397 38.5875C29.8514 38.5875 29.541 38.8175 29.541 39.1905H30.8743C30.8743 39.6349 30.5041 39.9208 30.1397 39.9208V38.5875ZM29.541 39.1905V38.1168H30.8743V39.1905H29.541ZM30.2077 37.4501H31.7992V38.7835H30.2077V37.4501ZM31.1325 39.1905V38.1168H32.4659V39.1905H31.1325ZM31.8671 39.9208C31.5027 39.9208 31.1325 39.6349 31.1325 39.1905H32.4659C32.4659 38.8175 32.1554 38.5875 31.8671 38.5875V39.9208ZM32.1293 39.9208H31.8671V38.5875H32.1293V39.9208ZM32.8639 39.1905C32.8639 39.6349 32.4937 39.9208 32.1293 39.9208V38.5875C31.841 38.5875 31.5305 38.8175 31.5305 39.1905H32.8639ZM32.8639 38.1168V39.1905H31.5305V38.1168H32.8639ZM32.1972 37.4501H33.7888V38.7835H32.1972V37.4501ZM34.4555 38.1168V39.1905H33.1221V38.1168H34.4555ZM34.4555 39.1905C34.4555 38.8175 34.145 38.5875 33.8567 38.5875V39.9208C33.4923 39.9208 33.1221 39.6349 33.1221 39.1905H34.4555ZM33.8567 38.5875H34.1189V39.9208H33.8567V38.5875ZM34.1189 38.5875C33.8306 38.5875 33.5201 38.8175 33.5201 39.1905H34.8535C34.8535 39.6349 34.4833 39.9208 34.1189 39.9208V38.5875ZM33.5201 39.1905V38.1168H34.8535V39.1905H33.5201ZM34.1868 37.4501H35.781V38.7835H34.1868V37.4501ZM35.1143 39.1905V38.1168H36.4477V39.1905H35.1143ZM35.8489 39.9208C35.4845 39.9208 35.1143 39.6349 35.1143 39.1905H36.4477C36.4477 38.8175 36.1372 38.5875 35.8489 38.5875V39.9208ZM36.1111 39.9208H35.8489V38.5875H36.1111V39.9208ZM36.8457 39.1905C36.8457 39.6349 36.4755 39.9208 36.1111 39.9208V38.5875C35.8228 38.5875 35.5123 38.8175 35.5123 39.1905H36.8457ZM36.8457 38.1168V39.1905H35.5123V38.1168H36.8457ZM36.179 37.4501H37.7705V38.7835H36.179V37.4501ZM37.1039 39.1905V38.1168H38.4372V39.1905H37.1039ZM37.8385 39.9208C37.4741 39.9208 37.1039 39.6349 37.1039 39.1905H38.4372C38.4372 38.8175 38.1268 38.5875 37.8385 38.5875V39.9208Z" fill="#AF8612"/>
</g>
<path d="M30.9766 26.5178H45.302V28.1103H30.9766V26.5178Z" fill="#FFC217" stroke="#231F20" stroke-width="0.5" stroke-miterlimit="10"/>
</g>
</g>
<defs>
<clipPath id="clip0_849_31644">
<rect width="48" height="48" fill="white"/>
</clipPath>
</defs>
</svg>
