<svg width="35" height="35" viewBox="0 0 35 35" fill="none" xmlns="http://www.w3.org/2000/svg">
<path d="M34.3246 12.0568L31.6547 9.38687C31.5049 9.23618 31.3268 9.11659 31.1307 9.03498C30.9345 8.95337 30.7241 8.91136 30.5117 8.91136C30.2992 8.91136 30.0888 8.95337 29.8927 9.03498C29.6965 9.11659 29.5184 9.23618 29.3686 9.38687L13.2194 25.5328L5.70748 18.02C5.55771 17.8693 5.37962 17.7497 5.18346 17.6681C4.98729 17.5865 4.77693 17.5445 4.56447 17.5445C4.352 17.5445 4.14164 17.5865 3.94547 17.6681C3.74931 17.7497 3.57122 17.8693 3.42145 18.02L0.744913 20.694C0.594215 20.8445 0.47466 21.0232 0.393089 21.2199C0.311518 21.4166 0.269531 21.6274 0.269531 21.8404C0.269531 22.0533 0.311518 22.2641 0.393089 22.4608C0.47466 22.6575 0.594215 22.8362 0.744913 22.9867L12.0727 34.3211C12.2225 34.4718 12.4006 34.5914 12.5967 34.673C12.7929 34.7546 13.0033 34.7966 13.2157 34.7966C13.4282 34.7966 13.6386 34.7546 13.8347 34.673C14.0309 34.5914 14.209 34.4718 14.3588 34.3211L34.3172 14.3494C34.6211 14.0458 34.7925 13.6342 34.7939 13.2047C34.7953 12.7751 34.6266 12.3624 34.3246 12.0568ZM12.4574 19.2039C12.5572 19.3045 12.6759 19.3843 12.8067 19.4388C12.9375 19.4933 13.0778 19.5213 13.2194 19.5213C13.3611 19.5213 13.5014 19.4933 13.6322 19.4388C13.763 19.3843 13.8817 19.3045 13.9815 19.2039L28.0064 5.16898C28.2074 4.96627 28.3201 4.6924 28.3201 4.40696C28.3201 4.12153 28.2074 3.84765 28.0064 3.64495L24.9576 0.586999C24.8578 0.486404 24.7391 0.40656 24.6083 0.352072C24.4775 0.297584 24.3372 0.269531 24.1956 0.269531C24.0539 0.269531 23.9136 0.297584 23.7828 0.352072C23.652 0.40656 23.5333 0.486404 23.4335 0.586999L13.2194 10.8027L9.48369 7.06038C9.38392 6.95979 9.26522 6.87994 9.13443 6.82546C9.00364 6.77097 8.86336 6.74291 8.72168 6.74291C8.58 6.74291 8.43972 6.77097 8.30893 6.82546C8.17815 6.87994 8.05944 6.95979 7.95967 7.06038L4.90502 10.115C4.70406 10.3177 4.59131 10.5916 4.59131 10.877C4.59131 11.1625 4.70406 11.4364 4.90502 11.6391L12.4574 19.2039Z" fill="#F6F6F6"/>
</svg>
