<svg width="14" height="14" viewBox="0 0 14 14" fill="none" xmlns="http://www.w3.org/2000/svg">
<path d="M2.25 11.4958L2.645 10.062C2.83318 9.09301 3.34156 8.21518 4.08863 7.56928C4.8357 6.92339 5.77819 6.54684 6.765 6.5" stroke="#176CF7" stroke-linecap="round" stroke-linejoin="round"/>
<path d="M6.75 6.49584C8.13071 6.49584 9.25 5.37748 9.25 3.99792C9.25 2.61836 8.13071 1.5 6.75 1.5C5.36929 1.5 4.25 2.61836 4.25 3.99792C4.25 5.37748 5.36929 6.49584 6.75 6.49584Z" stroke="#176CF7" stroke-linecap="round" stroke-linejoin="bevel"/>
<path d="M9.25 12.5007C10.6307 12.5007 11.75 11.3824 11.75 10.0028C11.75 8.62324 10.6307 7.50488 9.25 7.50488C7.86929 7.50488 6.75 8.62324 6.75 10.0028C6.75 11.3824 7.86929 12.5007 9.25 12.5007Z" stroke="#176CF7" stroke-linecap="round" stroke-linejoin="round"/>
<path d="M9.03906 10.9964L9.96906 10.0672C9.97876 10.0583 9.98651 10.0475 9.9918 10.0354C9.9971 10.0234 9.99984 10.0104 9.99984 9.99721C9.99984 9.98406 9.9971 9.97105 9.9918 9.95901C9.98651 9.94697 9.97876 9.93616 9.96906 9.92727L9.03906 8.99805" stroke="#176CF7" stroke-linecap="round" stroke-linejoin="round"/>
</svg>
