<svg width="16" height="16" viewBox="0 0 16 16" fill="none" xmlns="http://www.w3.org/2000/svg">
<path d="M1.58594 4.90039H13.0793C13.4329 4.90039 13.772 5.04087 14.0221 5.29091C14.2721 5.54096 14.4126 5.8801 14.4126 6.23372V11.8337C14.4126 12.1873 14.2721 12.5265 14.0221 12.7765C13.772 13.0266 13.4329 13.1671 13.0793 13.1671H2.91927C2.56565 13.1671 2.22651 13.0266 1.97646 12.7765C1.72641 12.5265 1.58594 12.1873 1.58594 11.8337V4.90039Z" stroke="#176CF7" stroke-width="1.2" stroke-linecap="round" stroke-linejoin="round"/>
<path d="M1.58594 6.96747V3.42747C1.59117 3.26596 1.65992 3.11304 1.77726 3.00194C1.89461 2.89084 2.05105 2.83054 2.2126 2.83414H8.33927C8.5045 2.83457 8.66367 2.89634 8.78594 3.00747L9.87927 4.9008" stroke="#176CF7" stroke-width="1.2" stroke-linecap="round" stroke-linejoin="round"/>
</svg>
