<svg width="16" height="16" viewBox="0 0 16 16" fill="none" xmlns="http://www.w3.org/2000/svg">
<path fill-rule="evenodd" clip-rule="evenodd" d="M9.66646 2H4.49902C4.18952 2 3.89269 2.12295 3.67384 2.3418C3.45498 2.56066 3.33203 2.85749 3.33203 3.16699V12.5029C3.33203 12.8124 3.45498 13.1093 3.67384 13.3281C3.89269 13.547 4.18952 13.6699 4.49902 13.6699H11.501C11.8105 13.6699 12.1073 13.547 12.3262 13.3281C12.545 13.1093 12.668 12.8124 12.668 12.5029V6.03721C12.668 5.91737 12.6311 5.80043 12.5624 5.70228L10.1443 2.24857C10.0905 2.17179 10.019 2.10911 9.93581 2.06584C9.85262 2.02257 9.76023 1.99999 9.66646 2Z" stroke="#176CF7" stroke-width="1.5" stroke-linecap="round" stroke-linejoin="bevel"/>
<path d="M5.66797 8.6521L6.982 9.96613L10.3359 6.60986" stroke="#176CF7" stroke-width="1.5" stroke-linecap="round" stroke-linejoin="round"/>
</svg>
