<svg width="18" height="18" fill="none" xmlns="http://www.w3.org/2000/svg"><path d="M13.7413 1.57755c-.3142-.29193-.7307-.44829-1.1594-.43519-.4287.01311-.8349.19462-1.1306.50519L1.45127 11.6476l-.31 4.86c-.00293.0467.00412.0935.02067.1373.01656.0438.04224.0835.07534.1166.0331.0331.07287.0588.11666.0754.0438.0165.09061.0236.13733.0207l4.86-.31L16.3513 6.54755c.3105-.29574.4921-.70196.5052-1.13062.0131-.42866-.1433-.84522-.4352-1.15938l-2.68-2.68z" stroke="#176CF7" stroke-width="1.5" stroke-linecap="round" stroke-linejoin="round"/></svg>