<svg width="13" height="13" viewBox="0 0 13 13" fill="none" xmlns="http://www.w3.org/2000/svg">
<path d="M10.1994 1.76039C9.98491 1.55267 9.69802 1.43652 9.39942 1.43652C9.10082 1.43652 8.81393 1.55267 8.59942 1.76039L1.85442 8.29239L1.03542 11.7594C1.03382 11.7924 1.03953 11.8254 1.05215 11.856C1.06477 11.8866 1.08398 11.9141 1.10842 11.9364C1.13335 11.9592 1.16279 11.9765 1.19483 11.9872C1.22687 11.9978 1.2608 12.0017 1.29442 11.9984L4.97142 11.3464L11.7194 4.81439C11.9162 4.58574 12.0245 4.29407 12.0245 3.99239C12.0245 3.6907 11.9162 3.39903 11.7194 3.17039L10.1994 1.76039Z" stroke="black" stroke-width="1.5" stroke-linecap="round" stroke-linejoin="round"/>
</svg>
