<svg width="16" height="16" viewBox="0 0 16 16" fill="none" xmlns="http://www.w3.org/2000/svg">
<path d="M12.8 3.33337H3.2C2.53726 3.33337 2 3.93033 2 4.66671V11.3334C2 12.0698 2.53726 12.6667 3.2 12.6667H12.8C13.4627 12.6667 14 12.0698 14 11.3334V4.66671C14 3.93033 13.4627 3.33337 12.8 3.33337Z" stroke="#176CF7" stroke-linecap="round" stroke-linejoin="bevel"/>
<path d="M2.66675 4.05127L7.27255 8.07204C7.37651 8.163 7.49995 8.23516 7.63582 8.28439C7.7717 8.33362 7.91735 8.35896 8.06444 8.35896C8.21153 8.35896 8.35718 8.33362 8.49305 8.28439C8.62893 8.23516 8.75238 8.163 8.85633 8.07204L13.3334 4.15888" stroke="#176CF7" stroke-linecap="round" stroke-linejoin="round"/>
</svg>
