<svg width="93" height="116" viewBox="0 0 93 116" fill="none" xmlns="http://www.w3.org/2000/svg">
<path d="M35.0954 69.1908C53.9258 69.1908 69.1908 53.9258 69.1908 35.0954C69.1908 16.265 53.9258 1 35.0954 1C16.265 1 1 16.265 1 35.0954C1 53.9258 16.265 69.1908 35.0954 69.1908Z" fill="#FFC217"/>
<path d="M35.0955 68.8465C53.7357 68.8465 68.8465 53.7357 68.8465 35.0955C68.8465 16.4553 53.7357 1.34448 35.0955 1.34448C16.4553 1.34448 1.34448 16.4553 1.34448 35.0955C1.34448 53.7357 16.4553 68.8465 35.0955 68.8465Z" stroke="#FFC217"/>
<mask id="path-3-inside-1_3648:18055" fill="white">
<path fill-rule="evenodd" clip-rule="evenodd" d="M47.875 113H74.1771C80.5611 113 85.75 107.811 85.75 101.427V36.1979C85.75 29.8139 80.5611 24.625 74.1771 24.625H26.8333H21.5729C15.1889 24.625 10 29.8139 10 36.1979V101.427C10 107.811 15.1889 113 21.5729 113H47.875Z"/>
</mask>
<path fill-rule="evenodd" clip-rule="evenodd" d="M47.875 113H74.1771C80.5611 113 85.75 107.811 85.75 101.427V36.1979C85.75 29.8139 80.5611 24.625 74.1771 24.625H26.8333H21.5729C15.1889 24.625 10 29.8139 10 36.1979V101.427C10 107.811 15.1889 113 21.5729 113H47.875Z" fill="white"/>
<path d="M74.1771 110H47.875V116H74.1771V110ZM82.75 101.427C82.75 106.154 78.9043 110 74.1771 110V116C82.218 116 88.75 109.468 88.75 101.427H82.75ZM82.75 36.1979V101.427H88.75V36.1979H82.75ZM74.1771 27.625C78.9043 27.625 82.75 31.4707 82.75 36.1979H88.75C88.75 28.157 82.218 21.625 74.1771 21.625V27.625ZM26.8333 27.625H74.1771V21.625H26.8333V27.625ZM26.8333 21.625H21.5729V27.625H26.8333V21.625ZM13 36.1979C13 31.4707 16.8457 27.625 21.5729 27.625V21.625C13.532 21.625 7 28.157 7 36.1979H13ZM7 36.1979V101.427H13V36.1979H7ZM21.5729 110C16.8457 110 13 106.154 13 101.427H7C7 109.468 13.532 116 21.5729 116V110ZM21.5729 116H47.875V110H21.5729V116Z" fill="#003183" mask="url(#path-3-inside-1_3648:18055)"/>
<path fill-rule="evenodd" clip-rule="evenodd" d="M47.8752 37.25H61.5522C65.6133 37.25 68.9168 33.9465 68.9168 29.8854V23.5729C68.9168 21.8307 67.5028 20.4167 65.7606 20.4167H59.0104C57.6301 15.5645 53.165 12 47.8752 12C46.8871 12 45.9277 12.1244 45.0119 12.3583C41.0247 13.3766 37.8616 16.4708 36.7357 20.4167H29.9897C28.2475 20.4167 26.8335 21.8307 26.8335 23.5729V24.625V29.8854C26.8335 33.9465 30.137 37.25 34.1981 37.25H47.8752Z" fill="#176CF7"/>
<path d="M59.0104 20.4167L57.5677 20.8271L57.8776 21.9167H59.0104V20.4167ZM45.0119 12.3583L45.3831 13.8116L45.0119 12.3583ZM36.7357 20.4167V21.9167H37.8676L38.1781 20.8283L36.7357 20.4167ZM61.5522 35.75H47.8752V38.75H61.5522V35.75ZM67.4168 29.8854C67.4168 33.118 64.7849 35.75 61.5522 35.75V38.75C66.4417 38.75 70.4168 34.7749 70.4168 29.8854H67.4168ZM67.4168 23.5729V29.8854H70.4168V23.5729H67.4168ZM65.7606 21.9167C66.6744 21.9167 67.4168 22.6591 67.4168 23.5729H70.4168C70.4168 21.0022 68.3313 18.9167 65.7606 18.9167V21.9167ZM59.0104 21.9167H65.7606V18.9167H59.0104V21.9167ZM47.8752 13.5C52.4745 13.5 56.3652 16.6 57.5677 20.8271L60.4532 20.0062C58.895 14.5289 53.8556 10.5 47.8752 10.5V13.5ZM45.3831 13.8116C46.1787 13.6084 47.0134 13.5 47.8752 13.5V10.5C46.7607 10.5 45.6767 10.6403 44.6407 10.9049L45.3831 13.8116ZM38.1781 20.8283C39.1585 17.3926 41.9157 14.6972 45.3831 13.8116L44.6407 10.9049C40.1337 12.056 36.5648 15.549 35.2933 20.0051L38.1781 20.8283ZM36.7357 18.9167H29.9897V21.9167H36.7357V18.9167ZM28.3335 23.5729C28.3335 22.6591 29.0759 21.9167 29.9897 21.9167V18.9167C27.4191 18.9167 25.3335 21.0022 25.3335 23.5729H28.3335ZM25.3335 23.5729V24.625H28.3335V23.5729H25.3335ZM25.3335 24.625V29.8854H28.3335V24.625H25.3335ZM34.1981 35.75C30.9655 35.75 28.3335 33.118 28.3335 29.8854H25.3335C25.3335 34.7749 29.3086 38.75 34.1981 38.75V35.75ZM34.1981 38.75H47.8752V35.75H34.1981V38.75Z" fill="#003183"/>
<path d="M15 48L15 73" stroke="white" stroke-width="2" stroke-linecap="round"/>
<path d="M15 77L15 81" stroke="white" stroke-width="2" stroke-linecap="round"/>
<path d="M41 33H42" stroke="white" stroke-width="2" stroke-linecap="round"/>
<path d="M31 24.5C31 31.5 31 33 38 33" stroke="white" stroke-width="2" stroke-linecap="round"/>
<rect x="23" y="46" width="51" height="4" rx="2" fill="#FFC217"/>
<rect x="23" y="56" width="51" height="4" rx="2" fill="#176CF7"/>
<rect x="23" y="66" width="51" height="4" rx="2" fill="#176CF7"/>
<rect x="23" y="76" width="51" height="4" rx="2" fill="#176CF7"/>
<rect x="23" y="86" width="51" height="4" rx="2" fill="#176CF7"/>
<rect x="23" y="96" width="27" height="4" rx="2" fill="#176CF7"/>
<circle cx="77" cy="100" r="15" fill="#F71717" stroke="white" stroke-width="2"/>
<path fill-rule="evenodd" clip-rule="evenodd" d="M82.4374 96.5607C83.0232 95.9749 83.0232 95.0251 82.4374 94.4393C81.8516 93.8536 80.9018 93.8536 80.316 94.4393L76.9383 97.817L73.5607 94.4394C72.9749 93.8536 72.0251 93.8536 71.4393 94.4394C70.8536 95.0251 70.8536 95.9749 71.4393 96.5607L74.817 99.9384L71.5608 103.195C70.975 103.78 70.975 104.73 71.5608 105.316C72.1465 105.902 73.0963 105.902 73.6821 105.316L76.9383 102.06L80.1946 105.316C80.7804 105.902 81.7302 105.902 82.3159 105.316C82.9017 104.73 82.9017 103.78 82.3159 103.195L79.0597 99.9384L82.4374 96.5607Z" fill="white"/>
</svg>
