<svg width="14" height="18" viewBox="0 0 14 18" fill="none" xmlns="http://www.w3.org/2000/svg">
<path d="M5.91462 18.0007L4.28186 16.3885L2.17578 17.2965L3.68023 9.31055L7.4183 10.0146L5.91462 18.0007Z" fill="url(#paint0_linear)"/>
<path d="M7.59789 16.9911L9.04087 15.6117L10.9207 16.4056L9.53838 9.51953L6.21484 10.105L7.59789 16.9911Z" fill="url(#paint1_linear)"/>
<path d="M3.38717 3.41371C4.29575 2.51478 5.52227 2.01057 6.80039 2.01057C8.07851 2.01057 9.30503 2.51478 10.2136 3.41371C10.6615 3.85675 11.0171 4.38424 11.2598 4.96563C11.5025 5.54702 11.6274 6.17077 11.6274 6.80078C11.6274 7.43079 11.5025 8.05454 11.2598 8.63593C11.0171 9.21733 10.6615 9.74481 10.2136 10.1879C9.30503 11.0868 8.07851 11.591 6.80039 11.591C5.52227 11.591 4.29575 11.0868 3.38717 10.1879C2.93926 9.74481 2.58367 9.21733 2.34099 8.63593C2.0983 8.05454 1.97334 7.43079 1.97334 6.80078C1.97334 6.17077 2.0983 5.54702 2.34099 4.96563C2.58367 4.38424 2.93926 3.85675 3.38717 3.41371Z" fill="url(#paint2_linear)"/>
<path d="M6.83638 10.6255C8.95084 10.6255 10.665 8.93469 10.665 6.84891C10.665 4.76313 8.95084 3.07227 6.83638 3.07227C4.72192 3.07227 3.00781 4.76313 3.00781 6.84891C3.00781 8.93469 4.72192 10.6255 6.83638 10.6255Z" fill="url(#paint3_linear)"/>
<path d="M3.0039 6.16638C3.18135 5.16587 3.74763 4.27628 4.57898 3.69201C5.41033 3.10774 6.43915 2.8763 7.44062 3.04826C7.93639 3.12771 8.41157 3.30436 8.83883 3.56808C9.26609 3.8318 9.63701 4.17738 9.93026 4.58494C10.2235 4.9925 10.4333 5.45401 10.5476 5.94293C10.6618 6.43185 10.6783 6.93853 10.5961 7.43385C10.4186 8.4345 9.85222 9.32419 9.0207 9.90845C8.18918 10.4927 7.16017 10.724 6.15861 10.5518C5.66292 10.4723 5.18784 10.2956 4.76067 10.0318C4.33351 9.76809 3.96268 9.42251 3.66952 9.01497C3.37635 8.60744 3.16663 8.14597 3.0524 7.65711C2.93817 7.16825 2.92168 6.66164 3.0039 6.16638H3.0039Z" fill="url(#paint4_linear)"/>
<path d="M13.0033 6.82484L12.5384 6.23003C12.3502 5.98946 12.2119 5.71345 12.1323 5.41855C12.0527 5.12364 12.0331 4.81584 12.0747 4.51323L12.1781 3.76734L11.4746 3.48324C11.1903 3.3684 10.9315 3.19788 10.714 2.9817C10.4964 2.76551 10.3242 2.50804 10.2076 2.22438L9.92062 1.52729L9.1684 1.62958C8.86383 1.671 8.55421 1.65168 8.25712 1.57281C7.96004 1.49395 7.68121 1.35712 7.43728 1.1701L6.83796 0.708984L6.23826 1.1701C5.99435 1.35716 5.71589 1.49404 5.4188 1.57291C5.12171 1.65177 4.8121 1.67105 4.50753 1.62958L3.7553 1.52729L3.4687 2.22438C3.35185 2.50802 3.17963 2.76543 2.96197 2.9816C2.74431 3.19777 2.48572 3.36833 2.20129 3.48324L1.49786 3.76734L1.60082 4.51323C1.64232 4.81589 1.62255 5.12374 1.54281 5.41864C1.46307 5.71355 1.3251 5.98952 1.13673 6.23003L0.671875 6.82484L1.13673 7.41965C1.3251 7.66016 1.46307 7.93603 1.54281 8.23094C1.62255 8.52584 1.64232 8.83378 1.60082 9.13645L1.49786 9.88233L2.20129 10.1671C2.48572 10.282 2.74431 10.4526 2.96197 10.6687C3.17963 10.8849 3.35185 11.1423 3.4687 11.426L3.7553 12.1232L4.50753 12.0209C4.81215 11.9795 5.12171 11.9988 5.4188 12.0778C5.71589 12.1568 5.99441 12.2939 6.23826 12.4811L6.83796 12.9421L7.43728 12.4811C7.68115 12.294 7.95965 12.1569 8.25674 12.0779C8.55382 11.9989 8.86377 11.9796 9.1684 12.0209L9.92062 12.1232L10.2076 11.426C10.3242 11.1423 10.4964 10.8848 10.714 10.6687C10.9315 10.4525 11.1903 10.282 11.4746 10.1671L12.1781 9.88233L12.0747 9.13645C12.0331 8.83384 12.0527 8.52594 12.1323 8.23103C12.2119 7.93613 12.3502 7.66022 12.5384 7.41965L13.0033 6.82484ZM10.2368 10.0735L9.91755 9.75882C9.97839 9.69588 10.0375 9.63104 10.0947 9.56443L10.4408 9.85237C10.3747 9.9279 10.3066 10.0016 10.2368 10.0735ZM7.64051 10.9839C7.72785 10.9674 7.81448 10.9485 7.89945 10.9264L8.01662 11.3591C7.91827 11.3843 7.81998 11.4055 7.71927 11.4244L7.64051 10.9839ZM8.00702 10.8981C8.09199 10.8737 8.17641 10.8469 8.25981 10.8193L8.41694 11.2403C8.32095 11.2741 8.22406 11.3049 8.1265 11.3324L8.00702 10.8981ZM8.36431 10.7801C8.44718 10.7486 8.52878 10.7147 8.60903 10.6785L8.7992 11.0845C8.70741 11.1265 8.61383 11.1654 8.51836 11.201L8.36431 10.7801ZM6.83719 10.8642C6.03978 10.8574 5.26213 10.6147 4.60242 10.1667C3.94271 9.71873 3.43029 9.08545 3.12986 8.34677C2.82942 7.60808 2.75458 6.79704 2.91433 6.01576C3.07408 5.23448 3.46141 4.51792 4.02769 3.95646C4.59396 3.39499 5.31388 3.01376 6.09649 2.86068C6.87911 2.7076 7.6893 2.78955 8.42539 3.09628C9.16149 3.403 9.79023 3.92079 10.2326 4.5843C10.6749 5.24781 10.911 6.0274 10.911 6.82484C10.9089 7.35771 10.802 7.88489 10.596 8.37635C10.39 8.86781 10.0893 9.3139 9.71086 9.68909C9.33245 10.0643 8.88363 10.3612 8.39043 10.563C7.89723 10.7648 7.3693 10.8674 6.83642 10.8651L6.83719 10.8642ZM6.78187 11.5063C6.67959 11.5063 6.57752 11.5008 6.4776 11.4937L6.51679 11.0476C6.60412 11.0538 6.69296 11.0578 6.78187 11.0586V11.5063ZM7.15798 11.0476L7.19755 11.4937C7.09763 11.5015 6.99518 11.5055 6.8929 11.5063V11.0586C6.98102 11.0578 7.06988 11.0538 7.15721 11.0476H7.15798ZM5.95512 11.4252C5.85519 11.4063 5.75611 11.3851 5.65776 11.3599L5.77494 10.9272C5.8607 10.9492 5.94732 10.9681 6.03387 10.9846L5.95512 11.4252ZM5.41457 10.8178C5.49798 10.8469 5.58201 10.8737 5.66698 10.8965L5.54981 11.3293C5.45224 11.3017 5.35574 11.271 5.25975 11.2371L5.41457 10.8178ZM5.15564 11.201C5.06043 11.1648 4.96686 11.1262 4.8748 11.0845L5.06612 10.6785C5.1448 10.7147 5.22823 10.7486 5.31085 10.7801L5.15564 11.201ZM6.04886 2.66263C5.96467 2.67837 5.88023 2.69644 5.79683 2.7169L5.68043 2.28422C5.77589 2.26009 5.87278 2.23905 5.97087 2.22121L6.04886 2.66263ZM5.68926 2.7413C5.60665 2.76411 5.52483 2.78927 5.443 2.81996L5.28549 2.39909C5.37886 2.36709 5.47341 2.33767 5.5694 2.31092L5.68926 2.7413ZM5.33812 2.85463C5.25944 2.88453 5.18092 2.91673 5.10224 2.95135L4.91168 2.54536C5.00138 2.50497 5.09325 2.46776 5.18714 2.43366L5.33812 2.85463ZM4.99928 2.99783C4.92112 3.03455 4.84455 3.07357 4.76954 3.11501L4.54364 2.72718C4.63019 2.67918 4.71828 2.63434 4.80719 2.59185L4.99928 2.99783ZM4.67272 3.17014C4.59876 3.21341 4.52532 3.25902 4.45451 3.30623L4.19519 2.93963C4.27387 2.88455 4.36105 2.83257 4.44759 2.78221L4.67272 3.17014ZM4.36346 3.36914C4.29317 3.41897 4.22429 3.47148 4.15715 3.52656L3.8671 3.18349C3.94421 3.12159 4.02273 3.06211 4.10298 3.00494L4.36346 3.36914ZM4.07148 3.59417C4.00539 3.64925 3.94155 3.7067 3.87939 3.76571L3.56091 3.45097C3.63172 3.38278 3.70523 3.31673 3.78181 3.25273L4.07148 3.59417ZM3.80102 3.8436C3.74044 3.90419 3.68135 3.96714 3.62391 4.03166L3.27777 3.74372C3.34333 3.66923 3.41109 3.59709 3.48138 3.52733L3.80102 3.8436ZM3.55207 4.11503C3.49699 4.18059 3.44477 4.24806 3.39494 4.3173L3.02498 4.05999C3.0832 3.98026 3.14399 3.90155 3.20746 3.82391L3.55207 4.11503ZM3.32809 4.407C3.27879 4.47729 3.23144 4.54909 3.18633 4.62253L2.79293 4.39836C2.84539 4.31391 2.89994 4.231 2.95659 4.1497L3.32809 4.407ZM3.12986 4.71771C3.08685 4.79219 3.04598 4.86804 3.00769 4.94514L2.59777 4.75555C2.64262 4.66664 2.68919 4.5793 2.73876 4.49354L3.12986 4.71771ZM2.95967 5.04426C2.92347 5.12294 2.88971 5.20166 2.85824 5.28034L2.43334 5.12686C2.46875 5.03402 2.51196 4.94281 2.55051 4.8539L2.95967 5.04426ZM2.81906 5.38416C2.78994 5.46284 2.76312 5.54704 2.7403 5.62966L2.30349 5.51402C2.33181 5.41803 2.36263 5.32439 2.39646 5.23155L2.81906 5.38416ZM2.7088 5.73588C2.68677 5.8185 2.66694 5.90264 2.64963 5.98762L2.20514 5.90895C2.22481 5.81139 2.24679 5.71468 2.27275 5.61947L2.7088 5.73588ZM2.63004 6.09624C2.61509 6.18122 2.60339 6.26613 2.59316 6.35268L2.1429 6.3134C2.15391 6.21426 2.16799 6.11591 2.18478 6.01835L2.63004 6.09624ZM2.58279 6.46208C2.57544 6.54758 2.57067 6.63385 2.56857 6.72092H2.11716C2.11716 6.62099 2.12502 6.52193 2.13368 6.42279L2.58279 6.46208ZM2.56703 6.83108C2.56703 6.91815 2.57034 7.00476 2.57664 7.09079L2.12638 7.13007C2.12009 7.03172 2.11639 6.93177 2.11639 6.83185L2.56703 6.83108ZM2.58432 7.20009C2.59219 7.28663 2.60168 7.37319 2.61506 7.45816L2.16979 7.53682C2.15484 7.43926 2.1431 7.34016 2.13445 7.24023L2.58432 7.20009ZM2.63388 7.56679C2.64883 7.65255 2.66721 7.7375 2.68767 7.82169L2.25085 7.93733C2.22725 7.84055 2.20595 7.74303 2.18785 7.64468L2.63388 7.56679ZM2.71264 7.92792C2.73546 8.0121 2.76071 8.09552 2.79139 8.17734L2.36649 8.33073C2.33423 8.23631 2.30448 8.14112 2.27851 8.04355L2.71264 7.92792ZM2.82597 8.28117C2.85666 8.35985 2.8897 8.44325 2.92432 8.52272L2.5144 8.71231C2.47349 8.62105 2.43569 8.52818 2.40107 8.43455L2.82597 8.28117ZM2.97081 8.62347C3.00857 8.70215 3.04937 8.78078 3.09029 8.85946L2.69689 9.08372C2.64811 8.99612 2.60236 8.90698 2.55935 8.81623L2.97081 8.62347ZM3.14561 8.95233C3.18967 9.02786 3.23614 9.10181 3.28545 9.17419L2.9151 9.4315C2.85898 9.34862 2.80637 9.26367 2.75759 9.1766L3.14561 8.95233ZM3.34769 9.26707C3.40014 9.33841 3.45275 9.40792 3.5052 9.47558L3.15944 9.76353C3.09545 9.68537 3.03441 9.60665 2.97619 9.52745L3.34769 9.26707ZM3.5782 9.56049C3.63485 9.62737 3.69315 9.69194 3.7553 9.75488L3.43566 10.0695C3.36538 9.99714 3.29762 9.92271 3.23205 9.84612L3.5782 9.56049ZM3.83329 9.83354C3.89571 9.89491 3.95992 9.95439 4.02653 10.0121L3.73648 10.3552C3.66042 10.2891 3.58604 10.2206 3.51365 10.1498L3.83329 9.83354ZM4.11182 10.0837C4.18001 10.1393 4.24923 10.1918 4.32005 10.2411L4.06111 10.6078C3.98243 10.5488 3.89927 10.4874 3.82138 10.4229L4.11182 10.0837ZM4.41071 10.3088C4.48389 10.3583 4.55762 10.4064 4.63315 10.4512L4.40764 10.839C4.3203 10.7871 4.23518 10.7328 4.15178 10.6754L4.41071 10.3088ZM6.89136 2.14178C6.99102 2.14178 7.08986 2.14597 7.18795 2.15436L7.14876 2.60049C7.06326 2.5942 6.97739 2.5905 6.89136 2.58945V2.14178ZM6.52332 2.60049L6.48375 2.15436C6.58184 2.14702 6.68067 2.14283 6.78033 2.14178V2.58945C6.69457 2.5926 6.60906 2.59574 6.52409 2.60203L6.52332 2.60049ZM7.70352 2.22044C7.80108 2.23854 7.8976 2.25896 7.99281 2.28335L7.8764 2.71613C7.79379 2.69568 7.70974 2.6776 7.62476 2.66187L7.70352 2.22044ZM11.0236 5.99078C11.0068 5.90581 10.9874 5.82193 10.9648 5.73905L11.4012 5.62332C11.4264 5.71852 11.4492 5.81531 11.4681 5.91366L11.0236 5.99078ZM11.4888 6.02152C11.5062 6.11908 11.5193 6.21743 11.5303 6.31657L11.0805 6.35585C11.071 6.2693 11.0589 6.18439 11.044 6.09941L11.4888 6.02152ZM10.9379 5.63282C10.9135 5.55021 10.8867 5.46837 10.8592 5.38733L11.2841 5.23385C11.3176 5.3267 11.3485 5.42086 11.3763 5.51632L10.9379 5.63282ZM10.8184 5.28428C10.7862 5.2056 10.7529 5.12688 10.7159 5.0482L11.1258 4.85861C11.1678 4.9483 11.2072 5.03925 11.2434 5.13157L10.8184 5.28428ZM10.6678 4.94754C10.6296 4.87044 10.5891 4.79459 10.5461 4.72011L10.9395 4.49584C10.9919 4.58134 11.039 4.66868 11.0805 4.75786L10.6678 4.94754ZM10.4896 4.62493C10.4447 4.55176 10.3966 4.48012 10.3478 4.40931L10.7186 4.15287C10.7752 4.23155 10.8303 4.31646 10.8815 4.40143L10.4896 4.62493ZM10.2833 4.3196C10.2308 4.25036 10.1782 4.18299 10.1258 4.11743L10.4723 3.82948C10.536 3.90816 10.5973 3.98679 10.6556 4.06547L10.2833 4.3196ZM10.052 4.0332C9.99483 3.96868 9.93575 3.90608 9.8749 3.84524L10.1945 3.5305C10.2643 3.60026 10.3318 3.6724 10.3974 3.74689L10.052 4.0332ZM9.79615 3.76811C9.73399 3.7091 9.66976 3.65165 9.60367 3.59658L9.8945 3.2535C9.97318 3.31723 10.0434 3.38338 10.1158 3.45184L9.79615 3.76811ZM9.51838 3.52579C9.45151 3.47229 9.38328 3.4203 9.31246 3.36837L9.57217 3.00177C9.65085 3.05921 9.72937 3.11816 9.80805 3.18032L9.51838 3.52579ZM9.22103 3.30777C9.15022 3.26004 9.07744 3.21468 9.00243 3.17167L9.22833 2.78384C9.31383 2.8363 9.39786 2.88871 9.48073 2.94117L9.22103 3.30777ZM8.90639 3.11664C8.82771 3.07573 8.75454 3.03792 8.67665 2.99937L8.86797 2.59339C8.95766 2.63587 9.04574 2.68072 9.13228 2.72871L8.90639 3.11664ZM8.57599 2.95298C8.49784 2.91836 8.41892 2.88606 8.33972 2.85617L8.49723 2.4352C8.59008 2.46982 8.68195 2.50713 8.77269 2.547L8.57599 2.95298ZM8.23292 2.81842C8.15162 2.79062 8.06953 2.76441 7.98666 2.73976L8.10383 2.30698C8.1993 2.33321 8.29361 2.36263 8.38697 2.39515L8.23292 2.81842ZM9.26367 10.3071L9.52338 10.6738C9.43998 10.731 9.35459 10.7856 9.26751 10.8375L9.04162 10.4496C9.11558 10.4066 9.18898 10.3601 9.26137 10.3103L9.26367 10.3071ZM9.35395 10.2435C9.42477 10.1915 9.49488 10.1381 9.56333 10.0861L9.85377 10.4291C9.77509 10.4936 9.69627 10.555 9.61366 10.614L9.35395 10.2435ZM9.64747 10.0074C9.71356 9.94995 9.77815 9.89021 9.84109 9.82884L10.1607 10.1436C10.0891 10.2144 10.0142 10.2828 9.93791 10.3489L9.64747 10.0074ZM10.1669 9.47078C10.222 9.40312 10.2756 9.33308 10.3244 9.26227L10.694 9.51957C10.6358 9.6014 10.575 9.68012 10.5115 9.75565L10.1669 9.47078ZM10.3897 9.17103C10.4385 9.09864 10.4855 9.02469 10.5295 8.94916L10.9229 9.17343C10.8726 9.25997 10.8189 9.34493 10.7654 9.42833L10.3897 9.17103ZM10.5837 8.85629C10.6262 8.78023 10.6663 8.70161 10.7036 8.6203L11.1135 8.8099C11.07 8.90064 11.0238 8.98978 10.9756 9.07738L10.5837 8.85629ZM10.7497 8.52349C10.7843 8.44481 10.8181 8.36612 10.848 8.28194L11.2729 8.43542C11.2383 8.52983 11.2005 8.62181 11.1596 8.71308L10.7497 8.52349ZM10.8853 8.17811C10.9131 8.09628 10.9394 8.01313 10.9641 7.92868L11.4005 8.04432C11.3737 8.14136 11.3445 8.23684 11.3125 8.33073L10.8853 8.17811ZM10.989 7.82169C11.0095 7.7375 11.0275 7.65255 11.0432 7.56679L11.4881 7.64545C11.4708 7.7438 11.4495 7.84132 11.4251 7.9381L10.989 7.82169ZM11.0605 7.45816C11.0739 7.37319 11.0833 7.28663 11.092 7.20009L11.5422 7.23946C11.5336 7.33939 11.5219 7.43849 11.5061 7.53605L11.0605 7.45816ZM11.1001 7.08992C11.1056 7.00416 11.1085 6.91765 11.1085 6.83031H11.5603C11.5603 6.9305 11.5567 7.02992 11.5499 7.12853L11.1001 7.08992ZM11.107 6.72015C11.107 6.6336 11.0998 6.54707 11.0928 6.46131L11.543 6.42193C11.5509 6.52028 11.5564 6.61944 11.5588 6.72015H11.107ZM7.59633 2.19768L7.51758 2.63901C7.43339 2.62563 7.34864 2.61462 7.2621 2.60597L7.30128 2.15984C7.39937 2.17295 7.49821 2.18742 7.59787 2.20316L7.59633 2.19768ZM6.37541 2.15984L6.4146 2.60597C6.32883 2.61462 6.24369 2.62563 6.1595 2.63901L6.08113 2.19768C6.17633 2.18903 6.27473 2.17485 6.37387 2.16541L6.37541 2.15984ZM4.50599 10.8933L4.7315 10.5055C4.81018 10.5487 4.88909 10.5897 4.96777 10.6282L4.77645 11.0342C4.68256 10.9922 4.59167 10.9463 4.50407 10.8965L4.50599 10.8933ZM6.06538 11.4441L6.14375 11.0027C6.2303 11.0169 6.31879 11.0287 6.40691 11.0374L6.36734 11.4834C6.26427 11.4732 6.16376 11.4606 6.06384 11.4449L6.06538 11.4441ZM7.30935 11.4834L7.26978 11.0374C7.35869 11.0287 7.44601 11.0169 7.53256 11.0027L7.61132 11.4441C7.50982 11.4606 7.40893 11.4733 7.30743 11.4843L7.30935 11.4834ZM8.90178 11.0365L8.71045 10.6305C8.79018 10.5922 8.86871 10.5513 8.94634 10.5078L9.17224 10.8957C9.08202 10.9461 8.99151 10.9933 8.90024 11.0374L8.90178 11.0365Z" fill="url(#paint5_linear)"/>
<path d="M12.9661 6.79785L12.5009 6.20304C12.3125 5.96253 12.1746 5.68656 12.0948 5.39165C12.0151 5.09675 11.9953 4.7889 12.0368 4.48624L12.1398 3.74035L11.4363 3.45548C11.152 3.3406 10.8936 3.17012 10.676 2.95394C10.4585 2.73775 10.2863 2.48025 10.1697 2.19662L9.88233 1.49953L9.13049 1.60182C8.82586 1.64313 8.51592 1.62376 8.21883 1.54476C7.92174 1.46577 7.64324 1.32873 7.39937 1.14157L6.79967 0.679688L6.19958 1.14157C5.95582 1.32892 5.67724 1.46605 5.38012 1.54505C5.083 1.62406 4.77309 1.64335 4.46846 1.60182L3.71547 1.49953L3.42926 2.19662C3.31227 2.48031 3.13993 2.73777 2.92214 2.95394C2.70435 3.17011 2.44525 3.34062 2.1607 3.45548L1.45841 3.74035L1.56138 4.48624C1.60329 4.78885 1.58375 5.0968 1.50413 5.39175C1.42451 5.6867 1.28656 5.96262 1.09805 6.20304L0.632812 6.79785L1.09805 7.39265C1.28656 7.63307 1.42451 7.909 1.50413 8.20395C1.58375 8.4989 1.60329 8.80684 1.56138 9.10946L1.45841 9.85534L2.1607 10.1401C2.44525 10.255 2.70435 10.4255 2.92214 10.6417C3.13993 10.8578 3.31227 11.1154 3.42926 11.3991L3.71547 12.0962L4.46846 11.9939C4.77309 11.9523 5.083 11.9715 5.38012 12.0505C5.67725 12.1296 5.95584 12.2667 6.19958 12.4541L6.79967 12.9152L7.39937 12.4541C7.64322 12.2669 7.92173 12.1298 8.21883 12.0508C8.51592 11.9718 8.82586 11.9525 9.13049 11.9939L9.88233 12.0962L10.1697 11.3991C10.2863 11.1154 10.4585 10.8579 10.676 10.6418C10.8936 10.4256 11.152 10.255 11.4363 10.1401L12.1398 9.85534L12.0368 9.10946C11.9953 8.80679 12.0151 8.49885 12.0948 8.20395C12.1746 7.90904 12.3125 7.63317 12.5009 7.39265L12.9661 6.79785ZM10.1997 10.0466L9.88002 9.73183C9.94139 9.66888 9.99969 9.60431 10.0571 9.53743L10.4025 9.82547C10.338 9.90179 10.2705 9.97651 10.2004 10.0481L10.1997 10.0466ZM7.60299 10.9569C7.69058 10.9406 7.77719 10.9217 7.86269 10.9002L7.9791 11.3329C7.88075 11.3581 7.78167 11.3793 7.68174 11.3982L7.60299 10.9569ZM7.96988 10.8711C8.05538 10.847 8.13941 10.8208 8.22229 10.7925L8.3798 11.2133C8.28433 11.2469 8.1872 11.2776 8.08859 11.3054L7.96988 10.8711ZM8.32717 10.7531C8.41004 10.7216 8.49188 10.6877 8.57266 10.6516L8.76283 11.0575C8.67051 11.0995 8.57693 11.1384 8.48199 11.174L8.32717 10.7531ZM6.79967 10.8373C6.00222 10.8306 5.22471 10.588 4.56489 10.1401C3.90508 9.69222 3.3925 9.05902 3.09195 8.32035C2.79139 7.58168 2.71638 6.77058 2.87604 5.98924C3.0357 5.20791 3.42314 4.4913 3.98939 3.92975C4.55564 3.36821 5.27518 2.98683 6.05782 2.83369C6.84045 2.68055 7.65096 2.76249 8.3871 3.06919C9.12324 3.37589 9.75228 3.89369 10.1947 4.55721C10.637 5.22074 10.8731 6.00037 10.8731 6.79785C10.8711 7.33059 10.7639 7.85767 10.5581 8.34907C10.3523 8.84047 10.0519 9.28657 9.67372 9.66181C9.29555 10.0371 8.84742 10.3341 8.35444 10.5361C7.86146 10.7381 7.33318 10.8409 6.80044 10.8388L6.79967 10.8373ZM6.74396 11.4793C6.64168 11.4793 6.54002 11.4738 6.43931 11.4667L6.47888 11.0206C6.56621 11.0269 6.65505 11.0308 6.74396 11.0316V11.4793ZM7.12084 11.0206L7.16003 11.4667C7.05932 11.4746 6.95804 11.4785 6.85576 11.4793V11.0316C6.94545 11.0324 7.03351 11.0285 7.12084 11.0222V11.0206ZM5.91797 11.3982C5.81779 11.3793 5.71832 11.3576 5.62024 11.3329L5.73703 10.9002C5.822 10.9222 5.90824 10.9411 5.99558 10.9569L5.91797 11.3982ZM5.37743 10.7916C5.46083 10.821 5.54487 10.8473 5.62984 10.8703L5.51266 11.303C5.41458 11.2752 5.31769 11.2446 5.22222 11.211L5.37743 10.7916ZM5.1185 11.1748C5.02303 11.1391 4.92945 11.1003 4.83766 11.0583L5.0286 10.6523C5.10728 10.6885 5.18994 10.7224 5.27255 10.7538L5.1185 11.1748ZM6.01133 2.63641C5.92714 2.65215 5.84309 2.67032 5.75969 2.69077L5.64329 2.25799C5.73928 2.23439 5.83538 2.21318 5.93373 2.19508L6.01133 2.63641ZM5.65174 2.71517C5.56912 2.73799 5.4865 2.76314 5.40625 2.79383L5.24912 2.37286C5.34275 2.34061 5.43704 2.31152 5.53303 2.28556L5.65174 2.71517ZM5.30098 2.82841C5.2202 2.8583 5.14168 2.8906 5.0651 2.92522L4.87301 2.51924C4.96375 2.47885 5.05586 2.44153 5.14923 2.40744L5.30098 2.82841ZM4.96098 2.97161C4.88335 3.00833 4.80678 3.04744 4.73124 3.08888L4.50535 2.70095C4.59189 2.65296 4.68037 2.60811 4.76928 2.56563L4.96098 2.97161ZM4.6352 3.14391C4.56071 3.18745 4.48794 3.2328 4.4166 3.28001L4.15766 2.9134C4.23949 2.85833 4.32366 2.80582 4.40968 2.75599L4.6352 3.14391ZM4.32517 3.34301C4.25514 3.39258 4.18691 3.44447 4.11924 3.50034L3.8288 3.15726C3.90748 3.09511 3.9864 3.03537 4.06508 2.97872L4.32517 3.34301ZM4.03357 3.56805C3.96827 3.62312 3.90364 3.68048 3.84148 3.73949L3.52184 3.42484C3.59344 3.35639 3.6676 3.29024 3.74313 3.22651L4.03357 3.56805ZM3.76273 3.81748C3.70188 3.87832 3.64304 3.94092 3.58639 4.00544L3.24024 3.71749C3.30581 3.64301 3.37371 3.57087 3.44347 3.5011L3.76273 3.81748ZM3.51416 4.0889C3.46171 4.15447 3.4091 4.22184 3.35665 4.29107L2.98707 4.03454C3.04581 3.95481 3.10685 3.87619 3.17032 3.79856L3.51416 4.0889ZM3.2898 4.38078C3.24102 4.4508 3.19329 4.52323 3.14765 4.5964L2.75425 4.37214C2.80671 4.28769 2.86126 4.20478 2.91791 4.12348L3.2898 4.38078ZM3.09156 4.69158C3.04829 4.76554 3.00833 4.84181 2.96978 4.91892L2.55986 4.72933C2.60392 4.64016 2.65064 4.55282 2.70047 4.46732L3.09156 4.69158ZM2.92176 5.01804C2.88556 5.09672 2.85182 5.17544 2.81956 5.25412L2.39466 5.10073C2.43085 5.00789 2.46987 4.91685 2.51184 4.82768L2.92176 5.01804ZM2.77999 5.35881C2.75088 5.43749 2.72405 5.52168 2.70124 5.6043L2.26481 5.48856C2.29235 5.39336 2.32356 5.29894 2.3574 5.20609L2.77999 5.35881ZM2.66973 5.71043C2.64849 5.79383 2.62826 5.87728 2.61095 5.96226L2.16646 5.88359C2.18613 5.78603 2.20811 5.68924 2.23407 5.59325L2.66973 5.71043ZM2.59136 6.07079C2.57641 6.15576 2.56431 6.24078 2.55486 6.32732L2.10499 6.28794C2.116 6.18881 2.13032 6.09046 2.14763 5.99289L2.59136 6.07079ZM2.54411 6.43672C2.53624 6.52248 2.53148 6.60822 2.52912 6.69556H2.07733C2.07733 6.59564 2.08519 6.49648 2.09385 6.39734L2.54411 6.43672ZM2.52836 6.80572C2.52836 6.89306 2.52815 6.97957 2.53681 7.06533L2.08693 7.10471C2.08064 7.00636 2.07656 6.90641 2.07656 6.80649L2.52836 6.80572ZM2.54488 7.17473C2.55274 7.2618 2.56326 7.34783 2.57638 7.4328L2.13111 7.51146C2.1159 7.41337 2.10378 7.31454 2.09539 7.21487L2.54488 7.17473ZM2.59367 7.54133C2.6094 7.62709 2.62738 7.71205 2.64784 7.79623L2.21218 7.91197C2.18805 7.81545 2.167 7.71784 2.14917 7.61922L2.59367 7.54133ZM2.67242 7.90246C2.6955 7.98691 2.72142 8.07006 2.7508 8.15189L2.32705 8.30537C2.29479 8.21095 2.26465 8.11574 2.23868 8.01896L2.67242 7.90246ZM2.78652 8.25581C2.81695 8.33764 2.84973 8.41816 2.88487 8.49736L2.47495 8.68696C2.43404 8.59569 2.39624 8.50308 2.36162 8.40919L2.78652 8.25581ZM2.93098 8.59802C2.96874 8.6767 3.00993 8.75542 3.05084 8.8341L2.65744 9.05826C2.60866 8.97093 2.56203 8.88126 2.51875 8.79078L2.93098 8.59802ZM3.10501 8.92688C3.14986 9.00556 3.19645 9.07635 3.24524 9.14874L2.8745 9.40604C2.81864 9.32343 2.7642 9.23769 2.71699 9.15114L3.10501 8.92688ZM3.30786 9.24162C3.36031 9.31295 3.41292 9.38246 3.46537 9.45013L3.11922 9.73807C3.05576 9.66044 2.99496 9.58182 2.93674 9.50209L3.30786 9.24162ZM3.53836 9.53513C3.59423 9.60201 3.65412 9.66648 3.7147 9.72943L3.39545 10.0442C3.32516 9.97178 3.25702 9.89725 3.19145 9.82067L3.53836 9.53513ZM3.79346 9.80809C3.85588 9.86946 3.92047 9.92903 3.98709 9.98673L3.69665 10.3298C3.61797 10.2637 3.54581 10.1953 3.47421 10.1252L3.79346 9.80809ZM4.07122 10.0583C4.13889 10.1141 4.20902 10.1677 4.27983 10.2157L4.02089 10.5823C3.93854 10.523 3.85841 10.4614 3.78078 10.3974L4.07122 10.0583ZM4.37088 10.2833C4.44327 10.3331 4.51765 10.3806 4.59371 10.4258L4.36704 10.8137C4.27971 10.7618 4.19458 10.7075 4.11118 10.65L4.37088 10.2833ZM6.85192 2.11633C6.95184 2.11633 7.05015 2.12104 7.1485 2.12891L7.10893 2.57504C7.02396 2.56874 6.93846 2.56566 6.85192 2.56409V2.11633ZM6.48272 2.57504L6.44353 2.12891C6.54188 2.12183 6.64098 2.1179 6.74012 2.11633V2.56409C6.65829 2.56724 6.57309 2.57038 6.48733 2.57667L6.48272 2.57504ZM7.66292 2.19508C7.76048 2.21318 7.85816 2.23439 7.95336 2.25799L7.83695 2.69077C7.75408 2.67032 7.66991 2.65215 7.58493 2.63641L7.66292 2.19508ZM10.9842 5.96543C10.9668 5.88045 10.947 5.79621 10.9242 5.7136L11.361 5.59796C11.3867 5.69342 11.4092 5.79021 11.4286 5.8883L10.9842 5.96543ZM11.4482 5.99606C11.4656 6.0931 11.4796 6.19145 11.4901 6.29111L11.0399 6.33049C11.0304 6.24394 11.0187 6.15893 11.0037 6.07396L11.4482 5.99606ZM10.8973 5.60737C10.8727 5.52449 10.8468 5.44266 10.819 5.36188L11.2446 5.2085C11.2782 5.30134 11.3086 5.3955 11.3364 5.49096L10.8973 5.60737ZM10.7779 5.25882C10.7464 5.18014 10.7119 5.10152 10.6757 5.02284L11.0856 4.83315C11.1273 4.92285 11.1642 5.01415 11.2028 5.10621L10.7779 5.25882ZM10.6276 4.92209C10.5891 4.84341 10.5491 4.7695 10.5059 4.69475L10.8993 4.47049C10.9488 4.55625 10.9958 4.64359 11.0391 4.7325L10.6276 4.92209ZM10.449 4.59947C10.4039 4.52604 10.3563 4.45424 10.3065 4.38395L10.6772 4.12664C10.7338 4.20532 10.7882 4.29033 10.8401 4.37531L10.449 4.59947ZM10.2427 4.29424C10.1915 4.225 10.1391 4.15737 10.0856 4.09207L10.4317 3.80403C10.4952 3.87956 10.5562 3.95828 10.615 4.04011L10.2427 4.29424ZM10.0114 4.00784C9.95476 3.94332 9.8963 3.88063 9.83546 3.81978L10.1547 3.50504C10.2245 3.5748 10.292 3.64695 10.3576 3.72143L10.0114 4.00784ZM9.75593 3.74266C9.69377 3.68365 9.62915 3.6262 9.56384 3.57112L9.85428 3.22814C9.92981 3.29214 10.0033 3.35819 10.0752 3.42638L9.75593 3.74266ZM9.47817 3.50034C9.41208 3.44683 9.34268 3.39494 9.27186 3.34301L9.53157 2.97631C9.61025 3.03296 9.68878 3.0928 9.76746 3.15496L9.47817 3.50034ZM9.18081 3.28241C9.11 3.2352 9.03579 3.18959 8.96183 3.14631L9.18773 2.75839C9.27323 2.81084 9.35702 2.86326 9.43937 2.91571L9.18081 3.28241ZM8.86579 3.09118C8.78711 3.05027 8.71473 3.01256 8.63605 2.97401L8.82737 2.56803C8.91706 2.61051 9.00514 2.65562 9.09168 2.70335L8.86579 3.09118ZM8.53616 2.92752C8.458 2.8929 8.37948 2.8607 8.30027 2.83081L8.45779 2.40984C8.55063 2.44446 8.6424 2.48141 8.73209 2.52154L8.53616 2.92752ZM8.19232 2.79306C8.11364 2.76552 8.02946 2.73948 7.94606 2.7143L8.06362 2.28162C8.15961 2.30759 8.2539 2.33745 8.34753 2.36893L8.19232 2.79306ZM9.22384 10.2818L9.48355 10.6484C9.40015 10.7056 9.31514 10.7601 9.22807 10.812L9.00217 10.4242C9.07849 10.3825 9.15221 10.3385 9.22538 10.285L9.22384 10.2818ZM9.31451 10.218C9.38532 10.1661 9.45543 10.1126 9.52389 10.0607L9.81317 10.4038C9.73554 10.4678 9.65702 10.5294 9.57729 10.5886L9.31451 10.218ZM9.60802 9.98203C9.67411 9.92459 9.7387 9.86475 9.80165 9.80338L10.1209 10.1181C10.049 10.1889 9.97466 10.2571 9.89808 10.3227L9.60802 9.98203ZM10.127 9.44542C10.1821 9.37776 10.2358 9.30772 10.2846 9.23691L10.6545 9.49421C10.5963 9.57289 10.5346 9.65624 10.4717 9.7302L10.127 9.44542ZM10.3491 9.14567C10.3987 9.07328 10.4449 8.99934 10.4889 8.9238L10.8823 9.14797C10.8299 9.23452 10.7777 9.31957 10.7252 9.40297L10.3491 9.14567ZM10.5443 8.83093C10.5862 8.75487 10.626 8.67615 10.6637 8.59485L11.0737 8.78367C11.0304 8.87416 10.9841 8.96392 10.9354 9.05125L10.5443 8.83093ZM10.7095 8.49813C10.7441 8.41945 10.7771 8.34077 10.8078 8.25658L11.2327 8.40996C11.1976 8.50385 11.1595 8.59646 11.1186 8.68772L10.7095 8.49813ZM10.8447 8.15266C10.8725 8.07083 10.8988 7.98777 10.9235 7.90332L11.3595 8.01896C11.3333 8.11548 11.3039 8.21095 11.2719 8.30537L10.8447 8.15266ZM10.9488 7.79623C10.9693 7.71205 10.988 7.62788 11.0022 7.54133L11.4475 7.61999C11.4302 7.71913 11.4089 7.81675 11.3845 7.91274L10.9488 7.79623ZM11.021 7.4328C11.0344 7.34783 11.0439 7.26128 11.0518 7.17473L11.5016 7.21401C11.4922 7.31393 11.4813 7.41313 11.4655 7.51069L11.021 7.4328ZM11.0602 7.06456C11.066 6.97854 11.0691 6.89203 11.0691 6.80495H11.5205C11.5205 6.90514 11.5175 7.00447 11.5112 7.10308L11.0602 7.06456ZM11.0683 6.69479C11.0683 6.60772 11.0635 6.52135 11.0541 6.43585L11.5039 6.39657C11.5123 6.49518 11.5178 6.5946 11.5205 6.69479H11.0683ZM7.55765 2.17223L7.4789 2.61365C7.39445 2.60054 7.30906 2.58953 7.22303 2.58061L7.26337 2.13448C7.3633 2.14943 7.4585 2.16196 7.55842 2.1777L7.55765 2.17223ZM6.33635 2.13448L6.37592 2.58061C6.29016 2.58926 6.20501 2.60027 6.12082 2.61365L6.04206 2.17223C6.14041 2.162 6.23798 2.1494 6.33711 2.13996L6.33635 2.13448ZM4.46693 10.8679L4.69283 10.48C4.76941 10.523 4.84793 10.5639 4.92871 10.6028L4.73777 11.0087C4.64598 10.9668 4.55606 10.9209 4.46846 10.8711L4.46693 10.8679ZM6.02631 11.4187L6.10507 10.9773C6.19214 10.9915 6.27997 11.003 6.36862 11.0119L6.32943 11.458C6.2282 11.446 6.12727 11.4328 6.02708 11.4187H6.02631ZM7.27029 11.4588L7.2311 11.0127C7.31975 11.0038 7.40733 10.9923 7.49388 10.9781L7.57264 11.4195C7.4735 11.4332 7.37282 11.4462 7.27106 11.4588H7.27029ZM8.86195 11.0119L8.67178 10.6059C8.75098 10.5676 8.82951 10.5267 8.90766 10.4832L9.13356 10.8711C9.04544 10.9209 8.95527 10.9679 8.86348 11.0119H8.86195Z" fill="url(#paint6_linear)"/>
<path d="M1.20153 6.55037C1.39521 6.30072 1.53701 6.0149 1.61875 5.70969C1.70049 5.40448 1.72051 5.08599 1.67753 4.77296L1.57188 4.00115L2.29337 3.70686C2.58582 3.58737 2.85185 3.41072 3.07517 3.18726C3.2985 2.9638 3.47488 2.69798 3.5942 2.40546L3.88925 1.68397L4.66107 1.78942C4.9741 1.83236 5.29249 1.81238 5.5977 1.73064C5.9029 1.6489 6.18861 1.50706 6.43828 1.31342L7.05451 0.835793L7.67035 1.31342C7.91992 1.50696 8.20587 1.64871 8.51093 1.73045C8.816 1.81219 9.13427 1.83225 9.44718 1.78942L10.1944 1.68714L10.131 1.52981L9.35882 1.63517C9.04591 1.67809 8.72765 1.65814 8.42257 1.5764C8.1175 1.49465 7.8319 1.35279 7.58237 1.15918L6.96653 0.681641L6.35031 1.15918C6.10078 1.35279 5.81518 1.49465 5.5101 1.5764C5.20503 1.65814 4.88676 1.67809 4.57386 1.63517L3.80089 1.52981L3.50661 2.2513C3.3872 2.54369 3.2109 2.80931 2.98758 3.03263C2.76426 3.25595 2.49854 3.43245 2.20616 3.55185L1.48467 3.84613L1.59032 4.61795C1.63385 4.93072 1.61452 5.24909 1.53346 5.55429C1.4524 5.85949 1.31115 6.14541 1.11816 6.39535L0.640625 7.01139L0.743585 7.14441L1.20153 6.55037Z" fill="url(#paint7_linear)"/>
<path d="M9.40005 6.54152L8.83838 5.7965C8.7936 5.73978 8.73663 5.69384 8.67165 5.66223C8.60666 5.63062 8.5353 5.61413 8.46304 5.61392H7.96629V5.37784C7.96609 5.19754 7.89471 5.0247 7.76729 4.89714C7.63987 4.76957 7.46698 4.69768 7.28668 4.69727H4.86788C4.68744 4.69747 4.51448 4.76926 4.38689 4.89685C4.2593 5.02444 4.18771 5.1974 4.1875 5.37784V7.73123C4.18771 7.91167 4.2593 8.08463 4.38689 8.21222C4.51448 8.33981 4.68744 8.4116 4.86788 8.4118H4.91283C4.96165 8.56111 5.05687 8.69099 5.18445 8.78263C5.31203 8.87428 5.46533 8.92292 5.62241 8.92151C5.77949 8.92011 5.93215 8.86877 6.05807 8.77485C6.18399 8.68094 6.27663 8.54938 6.32277 8.39922H7.25748C7.30488 8.5506 7.39978 8.68273 7.52794 8.7762C7.65611 8.86966 7.81074 8.91949 7.96937 8.91835C8.12799 8.9172 8.28206 8.86517 8.40887 8.76986C8.53567 8.67455 8.62875 8.54099 8.67395 8.38895H9.29287C9.35547 8.38895 9.41572 8.36406 9.45998 8.31979C9.50425 8.27553 9.52914 8.21556 9.52914 8.15296V6.9137C9.52661 6.77911 9.48138 6.64878 9.40005 6.54152ZM5.96894 8.28349C5.94555 8.36562 5.89431 8.43713 5.82411 8.48576C5.7539 8.53439 5.66873 8.55717 5.58361 8.5502C5.49849 8.54324 5.41869 8.50702 5.35733 8.44763C5.29596 8.38824 5.25719 8.30936 5.24745 8.22452V8.20012V8.18283C5.24799 8.09026 5.2831 8.00125 5.34619 7.9335C5.40927 7.86575 5.49553 7.82422 5.58784 7.81709C5.68014 7.80996 5.77172 7.83773 5.84447 7.89499C5.91721 7.95225 5.96572 8.03477 5.98047 8.12617C5.98359 8.14489 5.98544 8.16385 5.98546 8.18283C5.98454 8.21668 5.97923 8.25023 5.96971 8.28272L5.96894 8.28349ZM7.96245 8.55184C7.87156 8.5518 7.78385 8.51821 7.71619 8.45752C7.64853 8.39683 7.60583 8.31333 7.59594 8.22298C7.59515 8.2104 7.59515 8.19771 7.59594 8.18514C7.5961 8.11238 7.61766 8.04138 7.65818 7.98095C7.6987 7.92051 7.75613 7.87339 7.82338 7.84562C7.89063 7.81785 7.96486 7.81064 8.03621 7.82487C8.10757 7.83911 8.17301 7.87418 8.22446 7.92562C8.27591 7.97707 8.31088 8.04261 8.32512 8.11397C8.33935 8.18532 8.33214 8.25926 8.30437 8.32652C8.2766 8.39377 8.22957 8.45129 8.16914 8.49181C8.10871 8.53233 8.03752 8.55408 7.96476 8.55424L7.96245 8.55184ZM9.15533 8.01994H8.68317C8.64612 7.85521 8.55376 7.70812 8.42155 7.60311C8.28933 7.49809 8.12515 7.44152 7.9563 7.44271C7.78746 7.44391 7.62408 7.50286 7.49337 7.60973C7.36265 7.71661 7.27261 7.86498 7.23789 8.03022H6.33622C6.30107 7.86304 6.20924 7.71316 6.07613 7.60608C5.94302 7.49901 5.77672 7.44132 5.60589 7.44281C5.43507 7.44429 5.26996 7.50487 5.13873 7.61425C5.0075 7.72362 4.91856 7.87504 4.88632 8.0428H4.86481C4.7828 8.0428 4.7042 8.01022 4.64621 7.95223C4.58822 7.89424 4.55554 7.81554 4.55554 7.73353V5.38024C4.55554 5.29823 4.58822 5.21963 4.64621 5.16164C4.7042 5.10365 4.7828 5.07107 4.86481 5.07107H7.28591C7.36792 5.07107 7.44652 5.10365 7.50451 5.16164C7.5625 5.21963 7.59518 5.29823 7.59518 5.38024V7.08994C7.59518 7.13918 7.61452 7.18641 7.64934 7.22123C7.68417 7.25605 7.73149 7.27569 7.78073 7.27569C7.82998 7.27569 7.8773 7.25605 7.91212 7.22123C7.94695 7.18641 7.96629 7.13918 7.96629 7.08994V5.9884H8.46227C8.47733 5.98866 8.4921 5.99225 8.50568 5.99877C8.51926 6.00529 8.53102 6.01465 8.54064 6.02624L9.10039 6.76819C9.13374 6.81387 9.15161 6.86895 9.15149 6.92551L9.15533 8.01994Z" fill="#2E1B12"/>
<defs>
<linearGradient id="paint0_linear" x1="6.13912" y1="10.953" x2="1.22475" y2="14.5544" gradientUnits="userSpaceOnUse">
<stop stop-color="#FFE67E"/>
<stop offset="0.5" stop-color="#E5AF52"/>
<stop offset="1" stop-color="#84591C"/>
</linearGradient>
<linearGradient id="paint1_linear" x1="9.14186" y1="16.4382" x2="7.17352" y2="12.1025" gradientUnits="userSpaceOnUse">
<stop stop-color="#FFE67E"/>
<stop offset="0.5" stop-color="#E5AF52"/>
<stop offset="1" stop-color="#84591C"/>
</linearGradient>
<linearGradient id="paint2_linear" x1="2.44814" y1="6.80078" x2="10.391" y2="6.80078" gradientUnits="userSpaceOnUse">
<stop stop-color="#84591C"/>
<stop offset="0.5" stop-color="#E5AF52"/>
<stop offset="1" stop-color="#FFE67E"/>
</linearGradient>
<linearGradient id="paint3_linear" x1="4.3861" y1="4.43186" x2="8.7968" y2="8.90321" gradientUnits="userSpaceOnUse">
<stop stop-color="#37190C"/>
<stop offset="1" stop-color="#1F120C"/>
</linearGradient>
<linearGradient id="paint4_linear" x1="3.9655" y1="8.79179" x2="9.09761" y2="5.10019" gradientUnits="userSpaceOnUse">
<stop stop-color="#FFE67E"/>
<stop offset="0.5" stop-color="#E5AF52"/>
<stop offset="1" stop-color="#84591C"/>
</linearGradient>
<linearGradient id="paint5_linear" x1="0.671875" y1="6.82556" x2="13.0033" y2="6.82556" gradientUnits="userSpaceOnUse">
<stop stop-color="#37190C"/>
<stop offset="1" stop-color="#1F120C"/>
</linearGradient>
<linearGradient id="paint6_linear" x1="0.632812" y1="6.79746" x2="12.9661" y2="6.79746" gradientUnits="userSpaceOnUse">
<stop stop-color="#96661D"/>
<stop offset="0.228" stop-color="#CE9737"/>
<stop offset="0.414" stop-color="#FFE67E"/>
<stop offset="0.586" stop-color="#E5AF52"/>
<stop offset="0.772" stop-color="#FFCD65"/>
<stop offset="1" stop-color="#A97B2C"/>
</linearGradient>
<linearGradient id="paint7_linear" x1="0.640625" y1="3.91303" x2="10.1944" y2="3.91303" gradientUnits="userSpaceOnUse">
<stop stop-color="#FFCD65"/>
<stop offset="0.5" stop-color="#FFE67E"/>
<stop offset="1" stop-color="#E5AF52"/>
</linearGradient>
</defs>
</svg>
