<svg width="21" height="21" viewBox="0 0 21 21" fill="none" xmlns="http://www.w3.org/2000/svg">
<path d="M10.5 13.0801H19.25" stroke="white" stroke-width="1.5" stroke-linecap="round" stroke-linejoin="bevel"/>
<path d="M16.0312 9.625L19.0378 12.6315C19.1058 12.6995 19.1598 12.7803 19.1966 12.8691C19.2334 12.958 19.2524 13.0533 19.2524 13.1495C19.2524 13.2457 19.2334 13.341 19.1966 13.4299C19.1598 13.5187 19.1058 13.5995 19.0378 13.6675L16.0802 16.625" stroke="white" stroke-width="1.5" stroke-linecap="round" stroke-linejoin="bevel"/>
<path d="M14 10.2458V7.80412C14 7.62442 13.9516 7.44906 13.8614 7.30188L10.6887 2.12275C10.6181 2.00761 10.5242 1.91362 10.415 1.84873C10.3059 1.78385 10.1847 1.74998 10.0616 1.75H3.28125C2.87514 1.75 2.48566 1.93437 2.19849 2.26256C1.91133 2.59075 1.75 3.03587 1.75 3.5V17.5C1.75 17.9641 1.91133 18.4092 2.19849 18.7374C2.48566 19.0656 2.87514 19.25 3.28125 19.25H12.4688C12.8749 19.25 13.2643 19.0656 13.5515 18.7374C13.8387 18.4092 14 17.9641 14 17.5V15.0938" stroke="white" stroke-width="1.5" stroke-linecap="round" stroke-linejoin="bevel"/>
</svg>
