<svg width="24" height="24" viewBox="0 0 24 24" fill="none" xmlns="http://www.w3.org/2000/svg">
<path d="M22 12.111L19.4 14.991C18.4627 16.0222 17.3203 16.8461 16.0459 17.4099C14.7716 17.9737 13.3935 18.2649 12 18.2649C10.6065 18.2649 9.2284 17.9737 7.95406 17.4099C6.67971 16.8461 5.53727 16.0222 4.6 14.991L2 12.111L4.32 9.33098C5.2585 8.20556 6.43287 7.30017 7.76001 6.67885C9.08715 6.05753 10.5346 5.73547 12 5.73547C13.4654 5.73547 14.9128 6.05753 16.24 6.67885C17.5671 7.30017 18.7415 8.20556 19.68 9.33098L22 12.111Z" stroke="#CECECE" stroke-width="1.5" stroke-linecap="round" stroke-linejoin="round"/>
<path d="M12.09 14.2509C13.5259 14.2509 14.69 13.1316 14.69 11.7509C14.69 10.3701 13.5259 9.25085 12.09 9.25085C10.654 9.25085 9.48999 10.3701 9.48999 11.7509C9.48999 13.1316 10.654 14.2509 12.09 14.2509Z" stroke="#CECECE" stroke-width="1.5" stroke-linecap="round" stroke-linejoin="bevel"/>
<line x1="3.99976" y1="19.9395" x2="19.9097" y2="4.02956" stroke="#CECECE" stroke-width="1.5" stroke-linecap="round"/>
</svg>
