<svg width="16" height="16" viewBox="0 0 16 16" fill="none" xmlns="http://www.w3.org/2000/svg">
<path d="M9.33333 4.66667C10.0697 4.66667 10.6667 4.06971 10.6667 3.33333C10.6667 2.59695 10.0697 2 9.33333 2C8.59695 2 8 2.59695 8 3.33333C8 4.06971 8.59695 4.66667 9.33333 4.66667Z" stroke="#CECECE" stroke-linecap="round" stroke-linejoin="round"/>
<path d="M10.0013 14.0007C10.7377 14.0007 11.3346 13.4037 11.3346 12.6673C11.3346 11.9309 10.7377 11.334 10.0013 11.334C9.26492 11.334 8.66797 11.9309 8.66797 12.6673C8.66797 13.4037 9.26492 14.0007 10.0013 14.0007Z" stroke="#CECECE" stroke-linecap="round" stroke-linejoin="round"/>
<path d="M5.33333 9.33268C6.06971 9.33268 6.66667 8.73573 6.66667 7.99935C6.66667 7.26297 6.06971 6.66602 5.33333 6.66602C4.59695 6.66602 4 7.26297 4 7.99935C4 8.73573 4.59695 9.33268 5.33333 9.33268Z" stroke="#CECECE" stroke-linecap="round" stroke-linejoin="round"/>
<path d="M2 3.33398H8" stroke="#CECECE" stroke-linecap="round" stroke-linejoin="round"/>
<path d="M10.668 3.33398H14.0013" stroke="#CECECE" stroke-linecap="round" stroke-linejoin="round"/>
<path d="M2 8H4" stroke="#CECECE" stroke-linecap="round" stroke-linejoin="round"/>
<path d="M6.66797 8H14.0013" stroke="#CECECE" stroke-linecap="round" stroke-linejoin="round"/>
<path d="M2 12.666H8.66667" stroke="#CECECE" stroke-linecap="round" stroke-linejoin="round"/>
<path d="M11.332 12.666H13.9987" stroke="#CECECE" stroke-linecap="round" stroke-linejoin="round"/>
</svg>
