<svg width="24" height="24" viewBox="0 0 24 24" fill="none" xmlns="http://www.w3.org/2000/svg">
<path d="M19 2H7C5.89543 2 5 2.89543 5 4V20C5 21.1046 5.89543 22 7 22H19C20.1046 22 21 21.1046 21 20V4C21 2.89543 20.1046 2 19 2Z" stroke="#176CF7" stroke-width="1.5" stroke-linecap="round" stroke-linejoin="round"/>
<path d="M3 6.74097H7" stroke="#176CF7" stroke-width="1.5" stroke-linecap="round" stroke-linejoin="round"/>
<path d="M3 17.001H7" stroke="#176CF7" stroke-width="1.5" stroke-linecap="round" stroke-linejoin="round"/>
<path d="M9.61401 16.451L9.96501 15.174C11.126 10.95 16.102 10.95 17.265 15.174L17.616 16.451" stroke="#176CF7" stroke-width="1.5" stroke-linecap="round" stroke-linejoin="round"/>
<path d="M13.6131 11.992C14.8403 11.992 15.8351 10.9972 15.8351 9.76997C15.8351 8.5428 14.8403 7.54797 13.6131 7.54797C12.3859 7.54797 11.3911 8.5428 11.3911 9.76997C11.3911 10.9972 12.3859 11.992 13.6131 11.992Z" stroke="#176CF7" stroke-width="1.5" stroke-linecap="round" stroke-linejoin="bevel"/>
</svg>
