<svg width="16" height="16" viewBox="0 0 16 16" fill="none" xmlns="http://www.w3.org/2000/svg">
<path d="M7.99998 9.99967C7.44442 9.99967 6.9722 9.80523 6.58331 9.41634C6.19442 9.02745 5.99998 8.55523 5.99998 7.99967C5.99998 7.44412 6.19442 6.9719 6.58331 6.58301C6.9722 6.19412 7.44442 5.99967 7.99998 5.99967C8.55553 5.99967 9.02776 6.19412 9.41665 6.58301C9.80553 6.9719 9.99998 7.44412 9.99998 7.99967C9.99998 8.55523 9.80553 9.02745 9.41665 9.41634C9.02776 9.80523 8.55553 9.99967 7.99998 9.99967ZM1.99998 6.66634C1.81109 6.66634 1.65287 6.60234 1.52531 6.47434C1.39731 6.34679 1.33331 6.18856 1.33331 5.99967V3.33301C1.33331 3.14412 1.39731 2.98567 1.52531 2.85767C1.65287 2.73012 1.81109 2.66634 1.99998 2.66634C2.18887 2.66634 2.34731 2.73012 2.47531 2.85767C2.60287 2.98567 2.66665 3.14412 2.66665 3.33301V3.99967C3.29998 3.15523 4.08331 2.49967 5.01665 2.03301C5.94998 1.56634 6.94442 1.33301 7.99998 1.33301C9.44442 1.33301 10.7389 1.74967 11.8833 2.58301C13.0278 3.41634 13.8333 4.49967 14.3 5.83301C14.3778 6.05523 14.3526 6.24967 14.2246 6.41634C14.0971 6.58301 13.9055 6.66634 13.65 6.66634C13.5278 6.66634 13.4055 6.61901 13.2833 6.52434C13.1611 6.43012 13.0722 6.3219 13.0166 6.19967C12.6389 5.14412 11.9944 4.29145 11.0833 3.64167C10.1722 2.99145 9.14442 2.66634 7.99998 2.66634C7.04442 2.66634 6.15553 2.90234 5.33331 3.37434C4.51109 3.84679 3.86665 4.49967 3.39998 5.33301H4.66665C4.85553 5.33301 5.01398 5.39679 5.14198 5.52434C5.26953 5.65234 5.33331 5.81079 5.33331 5.99967C5.33331 6.18856 5.26953 6.34679 5.14198 6.47434C5.01398 6.60234 4.85553 6.66634 4.66665 6.66634H1.99998ZM7.99998 14.6663C6.55553 14.6663 5.26109 14.2497 4.11665 13.4163C2.9722 12.583 2.16665 11.4997 1.69998 10.1663C1.6222 9.94412 1.64731 9.74967 1.77531 9.58301C1.90287 9.41634 2.09442 9.33301 2.34998 9.33301C2.4722 9.33301 2.59442 9.38012 2.71665 9.47434C2.83887 9.56901 2.92776 9.67745 2.98331 9.79967C3.36109 10.8552 4.00554 11.7081 4.91665 12.3583C5.82776 13.0081 6.85553 13.333 7.99998 13.333C8.95553 13.333 9.84442 13.097 10.6666 12.625C11.4889 12.1526 12.1333 11.4997 12.6 10.6663H11.3333C11.1444 10.6663 10.9862 10.6023 10.8586 10.4743C10.7306 10.3468 10.6666 10.1886 10.6666 9.99967C10.6666 9.81079 10.7306 9.65234 10.8586 9.52434C10.9862 9.39678 11.1444 9.33301 11.3333 9.33301H14C14.1889 9.33301 14.3471 9.39678 14.4746 9.52434C14.6026 9.65234 14.6666 9.81079 14.6666 9.99967V12.6663C14.6666 12.8552 14.6026 13.0135 14.4746 13.141C14.3471 13.269 14.1889 13.333 14 13.333C13.8111 13.333 13.6529 13.269 13.5253 13.141C13.3973 13.0135 13.3333 12.8552 13.3333 12.6663V11.9997C12.7 12.8441 11.9166 13.4997 10.9833 13.9663C10.05 14.433 9.05553 14.6663 7.99998 14.6663Z" fill="#176CF7"/>
</svg>
