<svg width="18" height="23" fill="none" xmlns="http://www.w3.org/2000/svg"><defs><linearGradient id="paint0_linear" x1="7.803" y1="13.921" x2="1.557" y2="18.498" gradientUnits="userSpaceOnUse"><stop stop-color="#FFE67E"/><stop offset=".5" stop-color="#E5AF52"/><stop offset="1" stop-color="#84591C"/></linearGradient><linearGradient id="paint1_linear" x1="11.619" y1="20.893" x2="9.117" y2="15.382" gradientUnits="userSpaceOnUse"><stop stop-color="#FFE67E"/><stop offset=".5" stop-color="#E5AF52"/><stop offset="1" stop-color="#84591C"/></linearGradient><linearGradient id="paint2_linear" x1="3.112" y1="8.644" x2="13.207" y2="8.644" gradientUnits="userSpaceOnUse"><stop stop-color="#84591C"/><stop offset=".5" stop-color="#E5AF52"/><stop offset="1" stop-color="#FFE67E"/></linearGradient><linearGradient id="paint3_linear" x1="5.576" y1="5.632" x2="11.182" y2="11.315" gradientUnits="userSpaceOnUse"><stop stop-color="#37190C"/><stop offset="1" stop-color="#1F120C"/></linearGradient><linearGradient id="paint4_linear" x1="5.042" y1="11.175" x2="11.565" y2="6.483" gradientUnits="userSpaceOnUse"><stop stop-color="#FFE67E"/><stop offset=".5" stop-color="#E5AF52"/><stop offset="1" stop-color="#84591C"/></linearGradient><linearGradient id="paint5_linear" x1=".855" y1="8.675" x2="16.528" y2="8.675" gradientUnits="userSpaceOnUse"><stop stop-color="#37190C"/><stop offset="1" stop-color="#1F120C"/></linearGradient><linearGradient id="paint6_linear" x1=".805" y1="8.64" x2="16.48" y2="8.64" gradientUnits="userSpaceOnUse"><stop stop-color="#96661D"/><stop offset=".228" stop-color="#CE9737"/><stop offset=".414" stop-color="#FFE67E"/><stop offset=".586" stop-color="#E5AF52"/><stop offset=".772" stop-color="#FFCD65"/><stop offset="1" stop-color="#A97B2C"/></linearGradient><linearGradient id="paint7_linear" x1=".813" y1="4.975" x2="12.955" y2="4.975" gradientUnits="userSpaceOnUse"><stop stop-color="#FFCD65"/><stop offset=".5" stop-color="#FFE67E"/><stop offset="1" stop-color="#E5AF52"/></linearGradient></defs><path d="M7.518 22.878l-2.076-2.05-2.676 1.155 1.912-10.15 4.75.895-1.91 10.15z" fill="url(#paint0_linear)"/><path d="M9.656 21.596l1.834-1.753 2.39 1.009-1.757-8.752-4.225.744 1.758 8.752z" fill="url(#paint1_linear)"/><path d="M4.305 4.339a6.168 6.168 0 018.676 0 6.056 6.056 0 010 8.61 6.168 6.168 0 01-8.676 0 6.055 6.055 0 010-8.61z" fill="url(#paint2_linear)"/><path d="M8.69 13.504c2.688 0 4.866-2.149 4.866-4.8 0-2.65-2.178-4.8-4.866-4.8-2.687 0-4.866 2.15-4.866 4.8 0 2.651 2.179 4.8 4.866 4.8z" fill="url(#paint3_linear)"/><path d="M3.82 7.838a4.887 4.887 0 015.639-3.963 4.841 4.841 0 014.01 5.574 4.887 4.887 0 01-5.64 3.963 4.843 4.843 0 01-4.01-5.574z" fill="url(#paint4_linear)"/><path d="M16.528 8.674l-.59-.756a2.902 2.902 0 01-.59-2.182l.131-.948-.894-.36a2.925 2.925 0 01-1.61-1.6l-.365-.887-.956.13a2.96 2.96 0 01-2.2-.584L8.692.901l-.762.586a2.959 2.959 0 01-2.2.584l-.956-.13-.364.886a2.928 2.928 0 01-1.61 1.6l-.895.361.131.948a2.9 2.9 0 01-.59 2.182l-.59.756.59.756a2.9 2.9 0 01.59 2.182l-.13.948.893.362a2.929 2.929 0 011.611 1.6l.364.886.956-.13a2.959 2.959 0 012.2.585l.762.586.762-.586a2.96 2.96 0 012.2-.585l.956.13.365-.886a2.925 2.925 0 011.61-1.6l.894-.362-.13-.948a2.9 2.9 0 01.588-2.182l.591-.756zm-3.516 4.13l-.406-.4c.078-.08.153-.163.226-.248l.44.366c-.085.096-.171.19-.26.281zm-3.3 1.156c.111-.02.222-.045.33-.073l.148.55c-.125.032-.25.06-.377.083l-.1-.56zm.466-.109c.108-.03.215-.065.321-.1l.2.535a6.074 6.074 0 01-.369.117l-.152-.552zm.454-.15c.106-.04.21-.083.311-.129l.242.516a5.475 5.475 0 01-.357.149l-.196-.536zm-1.94.107a5.133 5.133 0 115.177-5.134A5.156 5.156 0 018.69 13.81h.001zm-.07.816c-.13 0-.26-.007-.388-.016l.05-.567c.111.008.224.013.337.014v.57zm.477-.583l.05.567c-.127.01-.257.015-.387.016v-.569c.112 0 .225-.006.336-.014H9.1zm-1.529.48a6.056 6.056 0 01-.378-.083l.15-.55c.108.028.218.052.328.073l-.1.56zm-.687-.772c.106.037.213.071.321.1l-.149.55a6.062 6.062 0 01-.368-.117l.196-.533zm-.329.487a6.225 6.225 0 01-.357-.148l.243-.516c.1.046.206.09.311.13l-.197.534zM7.69 3.384a5.89 5.89 0 00-.32.07l-.148-.55c.122-.031.245-.058.37-.08l.098.56zm-.457.1a3.662 3.662 0 00-.313.1l-.2-.535c.119-.04.24-.078.361-.112l.152.547zm-.446.144c-.1.038-.2.08-.3.123l-.242-.516c.114-.051.23-.098.35-.142l.192.535zm-.43.182c-.1.047-.197.097-.293.15l-.287-.494c.11-.06.222-.118.335-.172l.244.516zm-.416.22a5.601 5.601 0 00-.277.172l-.33-.466c.1-.07.211-.136.321-.2l.286.493zm-.393.252c-.089.064-.177.13-.262.2l-.369-.436c.098-.078.198-.154.3-.227l.331.463zm-.37.286a5.06 5.06 0 00-.245.218l-.405-.4c.09-.086.184-.17.281-.252l.368.434zm-.344.317a5.669 5.669 0 00-.226.24l-.44-.367a5.61 5.61 0 01.26-.275l.406.402zm-.317.345c-.07.084-.136.17-.2.257l-.47-.327c.074-.1.151-.201.232-.3l.438.37zm-.285.371c-.062.09-.122.181-.18.274l-.5-.285c.067-.107.136-.212.208-.316l.472.327zm-.252.395a5.235 5.235 0 00-.155.29l-.52-.242c.056-.113.115-.224.178-.333l.497.285zm-.216.415c-.046.1-.089.2-.129.3l-.54-.195c.045-.118.1-.234.15-.347l.52.242zm-.179.432c-.037.1-.07.207-.1.312l-.555-.147a6.03 6.03 0 01.118-.359l.537.194zm-.14.447a5.517 5.517 0 00-.075.32l-.565-.1c.025-.124.053-.247.086-.368l.554.148zm-.1.458a5.808 5.808 0 00-.047.326l-.572-.05c.014-.126.032-.25.053-.375l.566.1zm-.06.465c-.01.11-.015.219-.018.33h-.574c0-.128.01-.254.021-.38l.571.05zm-.02.47c0 .11.004.22.012.33l-.572.05a5.948 5.948 0 01-.013-.38h.573zm.022.468c.01.11.022.22.04.328l-.567.1a5.79 5.79 0 01-.045-.377l.572-.05zm.063.466c.02.11.042.217.068.324l-.555.147a6.648 6.648 0 01-.08-.372l.567-.099zm.1.46c.03.106.061.212.1.316l-.54.195a5.509 5.509 0 01-.112-.365l.552-.147zm.144.448c.04.1.081.206.125.307l-.52.241a5.678 5.678 0 01-.145-.353l.54-.195zm.184.435c.048.1.1.2.152.3l-.5.285a5.806 5.806 0 01-.175-.34l.523-.245zm.223.418c.056.096.115.19.177.282l-.47.327a4.51 4.51 0 01-.2-.323L4 11.378zm.256.4c.067.091.134.18.2.265l-.439.366a7.3 7.3 0 01-.233-.3l.472-.33zm.293.373c.072.085.146.167.225.247l-.406.4a6.147 6.147 0 01-.259-.284l.44-.363zm.325.347c.079.078.16.154.245.227l-.369.436a6.527 6.527 0 01-.283-.26l.407-.403zm.354.318c.086.071.174.138.264.2l-.329.466c-.1-.075-.206-.153-.305-.235l.37-.43zm.38.286c.092.063.186.124.282.181l-.286.493a5.784 5.784 0 01-.326-.208l.33-.466zM8.76 2.722c.127 0 .253.006.377.016l-.05.567a5.35 5.35 0 00-.327-.014v-.569zm-.468.583l-.05-.567c.125-.009.25-.014.377-.016v.57a8.764 8.764 0 00-.326.015v-.002zm1.5-.483c.124.023.247.05.368.08l-.148.55a5.49 5.49 0 00-.32-.069l.1-.56zm4.22 4.792a4.608 4.608 0 00-.075-.32l.555-.147a5.5 5.5 0 01.085.37l-.565.097zm.591.04c.023.123.04.248.053.374l-.572.05a5.01 5.01 0 00-.046-.326l.566-.099zm-.7-.495a8.099 8.099 0 00-.1-.312l.54-.195c.043.118.082.238.117.36l-.557.147zm-.152-.443c-.04-.1-.083-.2-.13-.3l.521-.24c.053.113.104.229.15.346l-.54.194zm-.19-.428A5.293 5.293 0 0013.404 6l.5-.285a3.3 3.3 0 01.18.333l-.525.241zm-.227-.41a6.156 6.156 0 00-.18-.274l.47-.326c.072.1.143.208.207.316l-.497.284zm-.263-.388a12.323 12.323 0 00-.2-.257l.44-.366c.082.1.16.2.233.3l-.473.323zm-.294-.364a5.365 5.365 0 00-.225-.239l.407-.4c.088.09.174.18.257.275l-.439.364zm-.325-.337a5.07 5.07 0 00-.245-.218l.37-.436c.1.081.19.165.281.252l-.406.402zm-.353-.308a7.82 7.82 0 00-.262-.2l.33-.466c.1.073.2.148.3.227l-.368.44zm-.378-.277a4.523 4.523 0 00-.278-.173l.287-.493c.11.067.216.134.321.2l-.33.466zm-.4-.243c-.1-.052-.193-.1-.292-.149l.244-.516c.114.054.225.111.335.172l-.287.493zm-.42-.208c-.099-.044-.2-.085-.3-.123l.2-.535c.118.044.235.092.35.142l-.25.516zm-.436-.17a8.09 8.09 0 00-.313-.1l.15-.55c.12.033.24.07.36.111l-.197.538zm1.31 9.517l.33.466a6.117 6.117 0 01-.325.208l-.287-.493c.094-.054.188-.113.28-.177l.002-.004zm.115-.08c.09-.067.18-.134.266-.2l.37.435c-.1.082-.2.16-.306.235l-.33-.47zm.373-.3c.084-.074.166-.15.246-.228l.406.4c-.09.09-.186.177-.283.261l-.369-.434zm.66-.683c.07-.086.139-.175.2-.265l.47.327a4.705 4.705 0 01-.232.3l-.438-.362zm.284-.38a5.14 5.14 0 00.177-.283l.5.285c-.064.11-.132.218-.2.324l-.477-.327zm.246-.4a4.21 4.21 0 00.152-.3l.521.24a6.938 6.938 0 01-.175.34l-.498-.28zm.211-.424c.044-.1.087-.2.125-.307l.54.195c-.044.12-.092.237-.144.353l-.52-.24zm.172-.439c.036-.104.07-.21.1-.317l.555.147a6.403 6.403 0 01-.112.364l-.543-.194zm.132-.453a5.82 5.82 0 00.07-.324l.564.1a5.241 5.241 0 01-.08.372l-.554-.148zm.091-.462c.017-.108.03-.218.04-.328l.572.05a5.172 5.172 0 01-.045.377l-.567-.099zm.05-.468c.007-.109.011-.219.011-.33h.574c0 .128-.004.254-.013.38l-.572-.05zm.01-.47c0-.11-.01-.22-.019-.329l.572-.05c.01.125.017.251.02.38h-.574zM9.655 2.793l-.1.561a5.642 5.642 0 00-.325-.042l.05-.567c.125.017.25.035.377.055l-.002-.007zm-1.552-.048l.05.567a5.74 5.74 0 00-.324.042l-.1-.56c.121-.012.247-.03.373-.042l.001-.007zm-2.375 11.1l.286-.493c.1.055.2.107.3.156l-.243.516a4.004 4.004 0 01-.346-.175l.003-.004zm1.981.7l.1-.56c.11.017.223.032.335.043l-.05.567a6.768 6.768 0 01-.387-.049h.002zm1.581.05l-.05-.567a5.16 5.16 0 00.334-.044l.1.561a7.291 7.291 0 01-.386.051h.002zm2.024-.568l-.243-.516c.102-.048.201-.1.3-.156l.287.493a6.58 6.58 0 01-.346.18h.002z" fill="url(#paint5_linear)"/><path d="M16.48 8.64l-.591-.756a2.9 2.9 0 01-.59-2.182l.13-.948-.893-.362a2.925 2.925 0 01-1.61-1.6l-.366-.886-.955.13a2.961 2.961 0 01-2.2-.585L8.643.864l-.763.587a2.955 2.955 0 01-2.2.585l-.957-.13-.364.886a2.93 2.93 0 01-1.612 1.6l-.893.362.13.948a2.893 2.893 0 01-.588 2.182l-.591.756.591.756a2.892 2.892 0 01.589 2.182l-.131.948.893.362a2.933 2.933 0 011.612 1.6l.364.886.957-.13a2.954 2.954 0 012.2.585l.763.586.762-.586a2.96 2.96 0 012.2-.585l.955.13.366-.886a2.926 2.926 0 011.61-1.6l.894-.362-.131-.948a2.9 2.9 0 01.59-2.182l.591-.756zm-3.516 4.13l-.406-.4c.078-.08.152-.163.225-.248l.439.366a5.284 5.284 0 01-.257.283l-.001-.002zm-3.3 1.156c.11-.02.221-.044.33-.072l.148.55c-.125.032-.251.06-.378.083l-.1-.56zm.466-.109a6.23 6.23 0 00.32-.1l.2.535a6.175 6.175 0 01-.37.117l-.15-.552zm.454-.15c.105-.04.21-.083.312-.129l.242.516a5.815 5.815 0 01-.357.148l-.197-.535zm-1.941.107A5.133 5.133 0 1113.82 8.64a5.154 5.154 0 01-5.176 5.136l-.001-.002zm-.071.816c-.13 0-.26-.007-.387-.016l.05-.567c.11.008.224.013.337.014v.57zm.479-.583l.05.567c-.128.01-.257.015-.387.016v-.569c.114.001.226-.004.337-.012v-.002zm-1.529.48a6.499 6.499 0 01-.378-.083l.148-.55c.108.028.218.052.329.072l-.099.561zm-.687-.77c.106.037.213.07.32.1l-.148.55a6.274 6.274 0 01-.37-.118l.198-.533zm-.33.486a5.424 5.424 0 01-.356-.148l.243-.516c.1.046.205.09.31.13l-.196.534zM7.642 3.351c-.107.02-.214.043-.32.07l-.148-.55c.122-.03.244-.058.369-.08l.099.56zm-.457.1a3.43 3.43 0 00-.312.1l-.2-.535a5.57 5.57 0 01.36-.11l.152.545zm-.446.144c-.103.038-.203.08-.3.123l-.244-.516a5.52 5.52 0 01.35-.142l.194.535zm-.432.182a5.468 5.468 0 00-.292.15l-.287-.494c.11-.06.222-.118.335-.172l.244.516zm-.414.22a5.88 5.88 0 00-.278.172l-.33-.466c.105-.07.212-.136.321-.2l.287.493zm-.394.252a4.423 4.423 0 00-.262.2l-.37-.436c.1-.079.201-.155.301-.227l.33.463zm-.371.286c-.083.07-.165.143-.244.218l-.406-.4c.09-.087.185-.17.28-.252l.37.434zm-.344.317a5.056 5.056 0 00-.224.24l-.44-.367c.083-.094.17-.186.258-.275l.406.402zm-.316.345c-.067.084-.134.17-.2.257l-.47-.326a7.53 7.53 0 01.233-.3l.437.37zm-.285.371A6.482 6.482 0 004 5.842l-.5-.285c.067-.107.136-.212.208-.316l.473.327zm-.252.395c-.055.094-.106.191-.155.29l-.521-.242c.056-.113.115-.224.179-.333l.497.285zm-.216.415c-.046.1-.089.2-.13.3l-.54-.195c.046-.118.096-.233.149-.347l.52.242zm-.18.433c-.037.1-.071.207-.1.312l-.555-.147c.035-.12.075-.24.118-.359l.537.194zm-.14.447a6.765 6.765 0 00-.075.32l-.565-.1c.025-.124.053-.247.086-.369l.554.15zm-.1.458a5.014 5.014 0 00-.046.326l-.572-.05c.014-.126.032-.25.054-.375l.564.1zm-.06.465c-.01.11-.016.218-.02.33h-.573c0-.128.01-.254.02-.38l.573.05zm-.02.47c0 .11 0 .22.01.33l-.571.05a5.947 5.947 0 01-.013-.38h.574zm.02.468c.01.11.024.22.04.328l-.565.1a5.44 5.44 0 01-.045-.377l.57-.05zm.063.466c.02.11.043.217.069.324l-.554.147a5.772 5.772 0 01-.08-.372l.565-.099zm.1.46c.03.107.062.212.1.316l-.539.195a5.673 5.673 0 01-.112-.364l.551-.148zm.145.448c.039.104.08.207.125.307l-.521.241a5.579 5.579 0 01-.144-.353l.54-.195zm.184.435c.048.1.1.2.152.3l-.5.285a6.07 6.07 0 01-.176-.34l.524-.245zm.22.418c.058.1.117.19.179.282l-.471.327a4.036 4.036 0 01-.2-.324l.493-.285zm.259.4c.066.09.133.18.2.265l-.44.366a6.986 6.986 0 01-.232-.3l.472-.33zm.293.373c.07.085.147.167.224.247l-.406.4a6.154 6.154 0 01-.26-.284l.442-.363zm.324.347c.08.078.161.154.246.227l-.37.436a5.034 5.034 0 01-.282-.26l.406-.403zm.353.318c.086.071.175.14.265.2l-.33.466a5.879 5.879 0 01-.304-.235l.369-.43zm.38.286c.093.063.187.124.284.181l-.288.493a5.783 5.783 0 01-.325-.208l.33-.466zM8.71 2.69c.127 0 .252.006.377.016l-.05.567a5.862 5.862 0 00-.327-.014V2.69zm-.47.583l-.05-.567c.126-.009.252-.014.378-.016v.57c-.104.003-.212.007-.321.015l-.006-.002zm1.5-.483c.125.023.249.05.37.08l-.148.55a5.571 5.571 0 00-.32-.069l.099-.56zm4.222 4.792a4.81 4.81 0 00-.076-.32l.555-.147c.033.122.061.245.086.37l-.565.097zm.59.04c.022.123.04.248.053.374l-.572.05a5.013 5.013 0 00-.046-.326l.565-.099zm-.7-.495a7.731 7.731 0 00-.1-.312l.541-.195c.043.118.081.238.117.36l-.558.147zm-.152-.443c-.04-.1-.084-.2-.13-.3l.52-.24c.054.113.1.23.15.346l-.54.194zm-.191-.428a4.68 4.68 0 00-.155-.289l.5-.285c.063.11.123.22.178.333l-.523.241zm-.227-.41a5.046 5.046 0 00-.181-.274l.47-.327c.073.1.142.208.208.316l-.497.285zm-.262-.388a6.496 6.496 0 00-.2-.257l.44-.366c.08.096.158.196.233.3l-.473.323zm-.294-.364a5.064 5.064 0 00-.224-.239l.406-.4c.088.089.174.18.258.275l-.44.364zm-.325-.337a5.586 5.586 0 00-.244-.218l.369-.436c.096.082.19.166.28.252l-.405.402zm-.353-.308a6.932 6.932 0 00-.262-.2l.33-.466c.1.072.2.148.3.227l-.368.44zm-.378-.277A5.63 5.63 0 0011.39 4l.287-.493.32.2-.33.466zm-.4-.243c-.1-.052-.192-.1-.292-.149l.243-.516c.114.054.226.112.336.172l-.287.493zm-.42-.208c-.099-.044-.199-.085-.3-.123l.201-.535c.118.044.235.091.349.142l-.25.516zm-.436-.17a7.683 7.683 0 00-.313-.1l.149-.55c.122.032.242.07.36.11l-.196.54zm1.31 9.517l.33.466a6.126 6.126 0 01-.324.208l-.287-.493c.097-.053.19-.109.284-.177l-.002-.004zm.116-.08l.266-.2.368.435c-.099.082-.199.16-.3.235l-.334-.47zm.373-.3c.084-.074.166-.15.246-.228l.406.4c-.092.09-.186.177-.283.26l-.37-.433zm.66-.683c.07-.086.138-.175.2-.265l.47.327c-.074.1-.152.206-.232.3l-.438-.362zm.282-.38a4.6 4.6 0 00.178-.283l.5.285-.2.324-.478-.327zm.248-.4a4.86 4.86 0 00.152-.3l.52.24c-.054.114-.113.228-.175.34l-.497-.28zm.21-.424c.044-.1.086-.2.125-.307l.54.195c-.045.12-.093.237-.145.353l-.52-.24zm.172-.439c.035-.104.068-.21.1-.317l.554.147a6.24 6.24 0 01-.111.364l-.543-.194zm.132-.453c.026-.107.05-.214.068-.324l.566.1c-.022.126-.05.25-.08.372l-.554-.148zm.092-.462c.017-.108.029-.218.039-.328l.572.05a5.793 5.793 0 01-.046.377l-.565-.099zm.05-.468c.007-.11.01-.219.01-.33h.575c0 .128-.004.254-.012.38l-.573-.05zm.01-.47c0-.11-.006-.22-.018-.329l.572-.05c.01.126.017.252.02.38h-.574zM9.606 2.761l-.1.561a6.466 6.466 0 00-.325-.042l.05-.567c.128.02.249.035.376.055l-.001-.007zm-1.552-.048l.05.567a5.74 5.74 0 00-.324.042l-.1-.56c.125-.014.249-.03.375-.042l-.001-.007zm-2.376 11.1l.287-.493c.097.055.197.107.3.156l-.243.516a4.349 4.349 0 01-.342-.175l-.002-.004zm1.982.7l.1-.56c.11.017.222.032.335.043l-.05.567a17.57 17.57 0 01-.384-.05H7.66zm1.58.051l-.05-.567c.114-.011.225-.026.335-.044l.1.561c-.126.018-.254.034-.383.05H9.24zm2.024-.568l-.242-.516c.1-.048.2-.1.3-.156l.287.493a5.78 5.78 0 01-.343.18h-.002z" fill="url(#paint6_linear)"/><path d="M1.525 8.327a3.016 3.016 0 00.605-2.259l-.134-.98.917-.375A3.02 3.02 0 004.566 3.06l.375-.917.981.134a3.017 3.017 0 002.26-.605l.782-.607.783.607a3.019 3.019 0 002.258.605l.95-.13-.08-.2-.982.134a3.015 3.015 0 01-2.258-.605L8.853.868l-.784.607a3.015 3.015 0 01-2.257.605l-.983-.134-.374.917a3.017 3.017 0 01-1.653 1.653l-.917.374.135.981a3.017 3.017 0 01-.6 2.26l-.607.782.13.17.582-.756z" fill="url(#paint7_linear)"/><path d="M11.945 8.316l-.714-.947a.61.61 0 00-.477-.232h-.631v-.3a.865.865 0 00-.864-.865H6.185a.866.866 0 00-.865.865v2.99a.866.866 0 00.865.866h.057a.94.94 0 001.792-.016h1.188a.941.941 0 001.8-.013h.787a.3.3 0 00.3-.3V8.789a.808.808 0 00-.164-.473zm-4.36 2.214a.469.469 0 01-.918-.075v-.053a.469.469 0 01.938 0 .5.5 0 01-.02.127zm2.533.34a.469.469 0 01-.466-.417.382.382 0 010-.048.468.468 0 11.47.469l-.004-.003zm1.516-.675h-.6a.94.94 0 00-1.837.013H8.051a.94.94 0 00-1.843.016h-.027a.393.393 0 01-.393-.393V6.84a.393.393 0 01.393-.393h3.077a.393.393 0 01.393.393v2.173a.236.236 0 10.472 0v-1.4h.63a.133.133 0 01.1.048l.712.943a.339.339 0 01.064.2l.005 1.39z" fill="#2E1B12"/></svg>