<svg width="18" height="24" viewBox="0 0 18 24" fill="none" xmlns="http://www.w3.org/2000/svg">
<path d="M7.82715 24L5.66626 21.8504L2.87897 23.0611L4.87003 12.4131L9.8172 13.3518L7.82715 24Z" fill="url(#paint0_linear_256_50852)"/>
<path d="M10.0544 22.655L11.9641 20.8158L14.4519 21.8743L12.6226 12.6929L8.224 13.4735L10.0544 22.655Z" fill="url(#paint1_linear_256_50852)"/>
<path d="M4.48276 4.55126C5.68522 3.35267 7.30847 2.68039 9 2.68039C10.6915 2.68039 12.3148 3.35267 13.5172 4.55126C14.11 5.14199 14.5806 5.8453 14.9018 6.6205C15.223 7.39569 15.3884 8.22736 15.3884 9.06738C15.3884 9.9074 15.223 10.7391 14.9018 11.5143C14.5806 12.2895 14.11 12.9928 13.5172 13.5835C12.3148 14.7821 10.6915 15.4544 9 15.4544C7.30847 15.4544 5.68522 14.7821 4.48276 13.5835C3.88997 12.9928 3.41937 12.2895 3.09819 11.5143C2.77701 10.7391 2.61163 9.9074 2.61163 9.06738C2.61163 8.22737 2.77701 7.39569 3.09819 6.6205C3.41937 5.8453 3.88997 5.14199 4.48276 4.55126Z" fill="url(#paint2_linear_256_50852)"/>
<path d="M9.04808 14.1663C11.8465 14.1663 14.115 11.9118 14.115 9.13077C14.115 6.34971 11.8465 4.09521 9.04808 4.09521C6.24968 4.09521 3.98114 6.34971 3.98114 9.13077C3.98114 11.9118 6.24968 14.1663 9.04808 14.1663Z" fill="url(#paint3_linear_256_50852)"/>
<path d="M3.9753 8.22149C4.21016 6.88746 4.9596 5.70133 6.05985 4.9223C7.1601 4.14327 8.5217 3.83468 9.8471 4.06397C10.5032 4.16989 11.1321 4.40544 11.6976 4.75706C12.263 5.10869 12.7539 5.56946 13.142 6.11288C13.5301 6.6563 13.8078 7.27165 13.959 7.92354C14.1102 8.57544 14.1321 9.25103 14.0232 9.91145C13.7884 11.2457 13.0387 12.4319 11.9383 13.2109C10.8378 13.99 9.47594 14.2984 8.15041 14.0688C7.49439 13.9628 6.86565 13.7271 6.30031 13.3755C5.73498 13.0238 5.24421 12.563 4.85622 12.0196C4.46823 11.4762 4.19067 10.861 4.03949 10.2091C3.88831 9.55732 3.8665 8.88183 3.9753 8.22149H3.9753Z" fill="url(#paint4_linear_256_50852)"/>
<path d="M17.2099 9.09886L16.5947 8.30578C16.3456 7.98502 16.1626 7.61701 16.0573 7.2238C15.9519 6.83059 15.926 6.42018 15.981 6.0167L16.1178 5.02218L15.1868 4.64337C14.8105 4.49025 14.468 4.26289 14.1801 3.97464C13.8922 3.68639 13.6643 3.34309 13.51 2.96488L13.1302 2.03541L12.1346 2.1718C11.7316 2.22703 11.3218 2.20127 10.9286 2.09611C10.5354 1.99096 10.1664 1.80853 9.8436 1.55916L9.05042 0.944336L8.25674 1.55916C7.93394 1.80858 7.56542 1.99109 7.17223 2.09624C6.77904 2.2014 6.36929 2.22709 5.9662 2.1718L4.97067 2.03541L4.59137 2.96488C4.43671 3.34306 4.20879 3.68628 3.92073 3.97451C3.63267 4.26274 3.29044 4.49016 2.91401 4.64337L1.98305 5.02218L2.11931 6.0167C2.17423 6.42025 2.14807 6.83071 2.04254 7.22393C1.937 7.61714 1.7544 7.9851 1.50511 8.30578L0.889893 9.09886L1.50511 9.89194C1.7544 10.2126 1.937 10.5805 2.04254 10.9737C2.14807 11.3669 2.17423 11.7775 2.11931 12.181L1.98305 13.1756L2.91401 13.5553C3.29044 13.7085 3.63267 13.9359 3.92073 14.2241C4.20879 14.5123 4.43671 14.8556 4.59137 15.2337L4.97067 16.1633L5.9662 16.027C6.36935 15.9718 6.77904 15.9976 7.17223 16.1029C7.56542 16.2082 7.93402 16.391 8.25674 16.6406L9.05042 17.2553L9.8436 16.6406C10.1663 16.3911 10.5349 16.2084 10.9281 16.103C11.3213 15.9977 11.7315 15.9719 12.1346 16.027L13.1302 16.1633L13.51 15.2337C13.6643 14.8555 13.8922 14.5122 14.1801 14.224C14.468 13.9357 14.8105 13.7084 15.1868 13.5553L16.1178 13.1756L15.981 12.181C15.926 11.7775 15.9519 11.367 16.0573 10.9738C16.1626 10.5806 16.3456 10.2127 16.5947 9.89194L17.2099 9.09886ZM13.5486 13.4304L13.1261 13.0109C13.2066 12.9269 13.2848 12.8405 13.3605 12.7517L13.8186 13.1356C13.7311 13.2363 13.641 13.3346 13.5486 13.4304ZM10.1126 14.6443C10.2281 14.6222 10.3428 14.5971 10.4553 14.5677L10.6103 15.1446C10.4802 15.1782 10.3501 15.2065 10.2168 15.2317L10.1126 14.6443ZM10.5976 14.5299C10.7101 14.4974 10.8218 14.4616 10.9322 14.4249L11.1401 14.9862C11.0131 15.0313 10.8849 15.0723 10.7557 15.109L10.5976 14.5299ZM11.0705 14.3725C11.1802 14.3306 11.2881 14.2854 11.3944 14.2372L11.646 14.7785C11.5245 14.8344 11.4007 14.8863 11.2744 14.9338L11.0705 14.3725ZM9.04941 14.4847C7.99406 14.4756 6.96488 14.1521 6.09179 13.5547C5.21869 12.9574 4.54053 12.113 4.14292 11.1281C3.74531 10.1432 3.64626 9.06179 3.85768 8.02008C4.0691 6.97837 4.58171 6.02295 5.33115 5.27433C6.0806 4.5257 7.03337 4.01739 8.06913 3.81328C9.10488 3.60918 10.1771 3.71844 11.1513 4.12742C12.1255 4.53639 12.9576 5.22677 13.543 6.11146C14.1285 6.99615 14.4409 8.0356 14.4409 9.09886C14.4381 9.80937 14.2966 10.5123 14.024 11.1676C13.7514 11.8228 13.3534 12.4176 12.8526 12.9179C12.3518 13.4181 11.7578 13.8141 11.105 14.0831C10.4523 14.3521 9.75362 14.489 9.04839 14.4859L9.04941 14.4847ZM8.97619 15.3408C8.84082 15.3408 8.70575 15.3335 8.5735 15.324L8.62536 14.7292C8.74095 14.7376 8.85852 14.7429 8.97619 14.7439V15.3408ZM9.47396 14.7292L9.52633 15.324C9.39408 15.3345 9.2585 15.3398 9.12313 15.3408V14.7439C9.23976 14.7429 9.35736 14.7376 9.47294 14.7292H9.47396ZM7.88202 15.2327C7.74977 15.2075 7.61864 15.1792 7.48848 15.1456L7.64356 14.5687C7.75706 14.5981 7.87171 14.6233 7.98625 14.6453L7.88202 15.2327ZM7.16664 14.4229C7.27701 14.4617 7.38823 14.4973 7.50068 14.5277L7.34561 15.1048C7.21649 15.0681 7.08877 15.0271 6.96173 14.982L7.16664 14.4229ZM6.82395 14.9338C6.69795 14.8856 6.5741 14.8341 6.45227 14.7785L6.70548 14.2372C6.80961 14.2854 6.92002 14.3306 7.02936 14.3725L6.82395 14.9338ZM8.00608 3.54922C7.89466 3.5702 7.78292 3.5943 7.67254 3.62157L7.51848 3.04466C7.64482 3.01249 7.77305 2.98443 7.90286 2.96065L8.00608 3.54922ZM7.53017 3.6541C7.42084 3.68453 7.31256 3.71807 7.20426 3.75898L6.9958 3.19782C7.11937 3.15516 7.2445 3.11593 7.37154 3.08026L7.53017 3.6541ZM7.06546 3.80521C6.96133 3.84508 6.8574 3.88801 6.75327 3.93417L6.50108 3.39286C6.61979 3.33901 6.74138 3.28938 6.86564 3.24392L7.06546 3.80521ZM6.61701 3.99615C6.51357 4.04511 6.41223 4.09714 6.31296 4.15239L6.01399 3.63528C6.12854 3.57128 6.24512 3.51149 6.36279 3.45484L6.61701 3.99615ZM6.18483 4.22589C6.08695 4.28359 5.98975 4.34441 5.89603 4.40736L5.55283 3.91855C5.65696 3.84511 5.77234 3.7758 5.88688 3.70866L6.18483 4.22589ZM5.77553 4.49124C5.68251 4.55768 5.59136 4.62769 5.5025 4.70113L5.11862 4.24369C5.22067 4.16117 5.3246 4.08186 5.43081 4.00563L5.77553 4.49124ZM5.38912 4.79128C5.30165 4.86472 5.21716 4.94132 5.13489 5.02L4.71339 4.60034C4.80711 4.50942 4.9044 4.42135 5.00575 4.33603L5.38912 4.79128ZM5.03117 5.12386C4.95099 5.20463 4.87279 5.28858 4.79678 5.3746L4.33867 4.99067C4.42544 4.89136 4.51512 4.79517 4.60815 4.70215L5.03117 5.12386ZM4.7017 5.48576C4.62881 5.57318 4.55969 5.66313 4.49375 5.75545L4.00411 5.41238C4.08117 5.30607 4.16163 5.20111 4.24562 5.0976L4.7017 5.48576ZM4.40528 5.87506C4.34002 5.96878 4.27736 6.06452 4.21766 6.16243L3.69701 5.86354C3.76643 5.75093 3.83864 5.64039 3.91361 5.53199L4.40528 5.87506ZM4.14292 6.28934C4.08599 6.38865 4.03191 6.48978 3.98123 6.59259L3.43872 6.33979C3.49808 6.22125 3.55972 6.10479 3.62532 5.99044L4.14292 6.28934ZM3.91768 6.72474C3.86978 6.82965 3.8251 6.93461 3.78345 7.03952L3.22111 6.83488C3.26797 6.71109 3.32516 6.58947 3.37618 6.47093L3.91768 6.72474ZM3.73159 7.17795C3.69306 7.28286 3.65755 7.39512 3.62736 7.50527L3.04926 7.35109C3.08674 7.2231 3.12752 7.09825 3.1723 6.97446L3.73159 7.17795ZM3.58566 7.64691C3.55651 7.75706 3.53027 7.86926 3.50736 7.98256L2.91909 7.87768C2.94513 7.74759 2.97422 7.61864 3.00858 7.4917L3.58566 7.64691ZM3.48143 8.12739C3.46165 8.24069 3.44616 8.35392 3.43262 8.46932L2.83673 8.41694C2.8513 8.28476 2.86993 8.15362 2.89215 8.02354L3.48143 8.12739ZM3.41889 8.61518C3.40918 8.72918 3.40286 8.8442 3.40008 8.9603H2.80266C2.80266 8.82707 2.81307 8.69498 2.82452 8.5628L3.41889 8.61518ZM3.39805 9.10719C3.39805 9.22328 3.40243 9.33877 3.41076 9.45346L2.81486 9.50584C2.80653 9.37471 2.80164 9.24144 2.80164 9.10821L3.39805 9.10719ZM3.42093 9.5992C3.43134 9.71459 3.4439 9.83 3.4616 9.9433L2.87232 10.0482C2.85253 9.91809 2.83699 9.78596 2.82554 9.65273L3.42093 9.5992ZM3.48652 10.0881C3.5063 10.2025 3.53063 10.3158 3.5577 10.428L2.9796 10.5822C2.94836 10.4532 2.92016 10.3231 2.89621 10.192L3.48652 10.0881ZM3.59075 10.5696C3.62095 10.6819 3.65437 10.7931 3.69498 10.9022L3.13264 11.1067C3.08995 10.9808 3.05057 10.8539 3.01621 10.7238L3.59075 10.5696ZM3.74074 11.0406C3.78135 11.1456 3.82508 11.2568 3.8709 11.3627L3.32839 11.6155C3.27424 11.4938 3.22422 11.37 3.1784 11.2452L3.74074 11.0406ZM3.93242 11.4971C3.98241 11.602 4.0364 11.7068 4.09055 11.8117L3.5699 12.1107C3.50534 11.9939 3.4448 11.8751 3.38788 11.7541L3.93242 11.4971ZM4.16377 11.9355C4.22208 12.0362 4.28358 12.1348 4.34884 12.2314L3.8587 12.5744C3.78442 12.4639 3.7148 12.3507 3.65024 12.2346L4.16377 11.9355ZM4.43121 12.3552C4.50063 12.4503 4.57025 12.543 4.63967 12.6332L4.18207 13.0171C4.09738 12.9129 4.0166 12.808 3.93954 12.7024L4.43121 12.3552ZM4.73627 12.7464C4.81125 12.8356 4.8884 12.9217 4.97067 13.0056L4.54764 13.4251C4.45462 13.3286 4.36494 13.2294 4.27817 13.1273L4.73627 12.7464ZM5.07388 13.1105C5.15649 13.1923 5.24147 13.2716 5.32963 13.3486L4.94575 13.806C4.84509 13.7179 4.74665 13.6266 4.65085 13.5322L5.07388 13.1105ZM5.4425 13.4441C5.53275 13.5182 5.62436 13.5881 5.71808 13.6539L5.37539 14.1428C5.27126 14.0641 5.16121 13.9823 5.05812 13.8963L5.4425 13.4441ZM5.83807 13.7441C5.93491 13.8102 6.0325 13.8743 6.13246 13.9341L5.834 14.4512C5.71842 14.3819 5.60576 14.3095 5.49538 14.2329L5.83807 13.7441ZM9.1211 2.85475C9.25299 2.85475 9.3838 2.86033 9.51362 2.87152L9.46175 3.46637C9.3486 3.45797 9.23495 3.45304 9.1211 3.45164V2.85475ZM8.63401 3.46637L8.58164 2.87152C8.71145 2.86173 8.84226 2.85615 8.97416 2.85475V3.45164C8.86066 3.45583 8.74748 3.46002 8.63502 3.46841L8.63401 3.46637ZM10.1959 2.95963C10.3251 2.98376 10.4528 3.01099 10.5788 3.04351L10.4247 3.62055C10.3154 3.59327 10.2042 3.56918 10.0917 3.5482L10.1959 2.95963ZM14.5899 7.98678C14.5677 7.87348 14.542 7.76164 14.5121 7.65114L15.0897 7.49682C15.123 7.62376 15.1532 7.75282 15.1782 7.88395L14.5899 7.98678ZM15.2056 8.02776C15.2286 8.15785 15.246 8.28898 15.2606 8.42117L14.6652 8.47354C14.6527 8.35814 14.6367 8.24492 14.6169 8.13162L15.2056 8.02776ZM14.4765 7.5095C14.4443 7.39935 14.4088 7.29023 14.3723 7.18218L14.9346 6.97754C14.9791 7.10133 15.0199 7.22688 15.0567 7.35416L14.4765 7.5095ZM14.3184 7.04477C14.2757 6.93986 14.2316 6.8349 14.1827 6.72999L14.7252 6.4772C14.7807 6.5968 14.8329 6.71806 14.8808 6.84115L14.3184 7.04477ZM14.1191 6.59579C14.0684 6.49298 14.0149 6.39185 13.9579 6.29254L14.4786 5.99352C14.548 6.10752 14.6103 6.22397 14.6652 6.34287L14.1191 6.59579ZM13.8832 6.16563C13.8238 6.06807 13.7601 5.97255 13.6956 5.87813L14.1862 5.53621C14.2612 5.64112 14.3341 5.75433 14.4018 5.86763L13.8832 6.16563ZM13.6102 5.75853C13.5407 5.66621 13.4711 5.57638 13.4017 5.48896L13.8603 5.10503C13.9447 5.20994 14.0258 5.31477 14.1028 5.41968L13.6102 5.75853ZM13.3041 5.37665C13.2284 5.29062 13.1502 5.20716 13.0697 5.12603L13.4927 4.70638C13.585 4.7994 13.6744 4.89559 13.7612 4.9949L13.3041 5.37665ZM12.9654 5.0232C12.8832 4.94452 12.7982 4.86792 12.7107 4.79448L13.0956 4.33705C13.1997 4.42203 13.2927 4.51023 13.3885 4.6015L12.9654 5.0232ZM12.5978 4.7001C12.5093 4.62877 12.419 4.55945 12.3253 4.49021L12.669 4.0014C12.7732 4.07799 12.8771 4.15659 12.9812 4.23947L12.5978 4.7001ZM12.2043 4.4094C12.1106 4.34576 12.0143 4.28529 11.915 4.22794L12.214 3.71083C12.3271 3.78077 12.4383 3.85066 12.548 3.9206L12.2043 4.4094ZM11.7879 4.15456C11.6838 4.10001 11.5869 4.04961 11.4838 3.9982L11.737 3.45689C11.8558 3.51354 11.9723 3.57333 12.0869 3.63733L11.7879 4.15456ZM11.3506 3.93635C11.2472 3.89019 11.1428 3.84713 11.0379 3.80726L11.2464 3.24597C11.3693 3.29213 11.4909 3.34188 11.6109 3.39504L11.3506 3.93635ZM10.8966 3.75694C10.789 3.71987 10.6804 3.68492 10.5707 3.65205L10.7257 3.07501C10.8521 3.10998 10.9769 3.14921 11.1005 3.19257L10.8966 3.75694ZM12.2607 13.742L12.6044 14.2309C12.4941 14.3071 12.3811 14.3799 12.2658 14.4491L11.9669 13.9319C12.0647 13.8745 12.1619 13.8126 12.2577 13.7462L12.2607 13.742ZM12.3802 13.6571C12.4739 13.5878 12.5667 13.5165 12.6573 13.4473L13.0417 13.9046C12.9376 13.9906 12.8333 14.0724 12.7239 14.1511L12.3802 13.6571ZM12.7687 13.3423C12.8561 13.2657 12.9416 13.186 13.0249 13.1042L13.448 13.5239C13.3532 13.6183 13.2541 13.7095 13.1531 13.7977L12.7687 13.3423ZM13.4561 12.6268C13.529 12.5366 13.6 12.4432 13.6646 12.3488L14.1537 12.6919C14.0766 12.801 13.9962 12.9059 13.9122 13.0066L13.4561 12.6268ZM13.751 12.2271C13.8156 12.1306 13.8778 12.032 13.9361 11.9313L14.4567 12.2303C14.3901 12.3457 14.3191 12.459 14.2482 12.5702L13.751 12.2271ZM14.0078 11.8075C14.064 11.7061 14.1171 11.6012 14.1664 11.4928L14.7089 11.7456C14.6513 11.8666 14.5902 11.9855 14.5264 12.1023L14.0078 11.8075ZM14.2274 11.3637C14.2732 11.2588 14.318 11.1539 14.3576 11.0417L14.9199 11.2463C14.8741 11.3722 14.8241 11.4948 14.7699 11.6165L14.2274 11.3637ZM14.4069 10.9032C14.4437 10.7941 14.4785 10.6833 14.5111 10.5707L15.0887 10.7249C15.0533 10.8542 15.0146 10.9815 14.9723 11.1067L14.4069 10.9032ZM14.5442 10.428C14.5712 10.3158 14.595 10.2025 14.6159 10.0881L15.2046 10.193C15.1817 10.3241 15.1535 10.4542 15.1212 10.5832L14.5442 10.428ZM14.6387 9.9433C14.6564 9.83 14.669 9.71459 14.6804 9.5992L15.2763 9.6517C15.2649 9.78493 15.2494 9.91707 15.2285 10.0472L14.6387 9.9433ZM14.6911 9.45231C14.6984 9.33796 14.7023 9.22261 14.7023 9.10616H15.3002C15.3002 9.23975 15.2955 9.37231 15.2865 9.50379L14.6911 9.45231ZM14.7003 8.95928C14.7003 8.84388 14.6908 8.7285 14.6814 8.61415L15.2773 8.56165C15.2878 8.69278 15.2951 8.825 15.2982 8.95928H14.7003ZM10.0541 2.92928L9.94986 3.51772C9.83844 3.49988 9.72629 3.4852 9.61175 3.47366L9.66361 2.87882C9.79342 2.89631 9.92423 2.9156 10.0561 2.93658L10.0541 2.92928ZM8.43826 2.87882L8.49012 3.47366C8.37662 3.4852 8.26393 3.49988 8.15251 3.51772L8.04879 2.92928C8.17478 2.91774 8.30502 2.89884 8.43622 2.88625L8.43826 2.87882ZM5.96417 14.5235L6.26262 14.0064C6.36675 14.0641 6.47119 14.1187 6.57532 14.1701L6.32211 14.7114C6.19785 14.6554 6.07755 14.5942 5.96162 14.5277L5.96417 14.5235ZM8.02794 15.2579L8.13166 14.6694C8.24621 14.6883 8.36332 14.7041 8.47995 14.7156L8.42758 15.3103C8.29117 15.2967 8.15815 15.28 8.02591 15.259L8.02794 15.2579ZM9.67428 15.3103L9.62191 14.7156C9.73958 14.7041 9.85515 14.6883 9.96969 14.6694L10.0739 15.2579C9.93959 15.28 9.80607 15.2968 9.67174 15.3115L9.67428 15.3103ZM11.7818 14.7145L11.5286 14.1731C11.6341 14.1221 11.738 14.0675 11.8408 14.0095L12.1397 14.5267C12.0203 14.5939 11.9005 14.6569 11.7798 14.7156L11.7818 14.7145Z" fill="url(#paint5_linear_256_50852)"/>
<path d="M17.1601 9.06385L16.5444 8.27077C16.2951 7.95009 16.1125 7.58212 16.007 7.18891C15.9014 6.7957 15.8753 6.38524 15.9302 5.98168L16.0664 4.98716L15.1355 4.60734C14.7592 4.45416 14.4172 4.22685 14.1293 3.9386C13.8414 3.65036 13.6135 3.30702 13.4591 2.92884L13.0788 1.99938L12.0838 2.13576C11.6806 2.19085 11.2704 2.16503 10.8773 2.05969C10.4841 1.95436 10.1155 1.77165 9.79275 1.52209L8.99907 0.90625L8.20488 1.52209C7.88228 1.7719 7.51359 1.95474 7.12037 2.06008C6.72715 2.16542 6.31699 2.19114 5.91383 2.13576L4.91728 1.99938L4.53849 2.92884C4.38367 3.30709 4.15558 3.65037 3.86734 3.9386C3.57911 4.22683 3.2362 4.45419 2.85961 4.60734L1.93017 4.98716L2.06643 5.98168C2.12191 6.38518 2.09605 6.79577 1.99068 7.18904C1.88531 7.58231 1.70273 7.95021 1.45325 8.27077L0.837524 9.06385L1.45325 9.85693C1.70273 10.1775 1.88531 10.5454 1.99068 10.9387C2.09605 11.3319 2.12191 11.7425 2.06643 12.146L1.93017 13.1405L2.85961 13.5202C3.2362 13.6734 3.57911 13.9007 3.86734 14.189C4.15558 14.4772 4.38367 14.8206 4.53849 15.1989L4.91728 16.1283L5.91383 15.9919C6.31699 15.9365 6.72714 15.9622 7.12037 16.0675C7.5136 16.1728 7.8823 16.3557 8.20488 16.6056L8.99907 17.2204L9.79275 16.6056C10.1155 16.356 10.4841 16.1732 10.8773 16.0679C11.2705 15.9625 11.6806 15.9368 12.0838 15.9919L13.0788 16.1283L13.4591 15.1989C13.6135 14.8207 13.8414 14.4773 14.1293 14.1891C14.4172 13.9009 14.7592 13.6734 15.1355 13.5202L16.0664 13.1405L15.9302 12.146C15.8753 11.7425 15.9014 11.3319 16.007 10.9387C16.1125 10.5455 16.2951 10.1776 16.5444 9.85693L17.1601 9.06385ZM13.4988 13.3955L13.0758 12.9759C13.157 12.8919 13.2342 12.8058 13.3102 12.7167L13.7673 13.1007C13.6819 13.2025 13.5925 13.3021 13.4998 13.3976L13.4988 13.3955ZM10.0622 14.6093C10.1782 14.5876 10.2928 14.5624 10.4059 14.5337L10.56 15.1106C10.4298 15.1442 10.2987 15.1725 10.1665 15.1977L10.0622 14.6093ZM10.5478 14.4949C10.6609 14.4627 10.7722 14.4278 10.8818 14.39L11.0903 14.9512C10.964 14.996 10.8354 15.0369 10.7049 15.074L10.5478 14.4949ZM11.0206 14.3375C11.1303 14.2956 11.2386 14.2504 11.3455 14.2022L11.5972 14.7435C11.475 14.7994 11.3512 14.8513 11.2255 14.8988L11.0206 14.3375ZM8.99907 14.4498C7.94368 14.4409 6.91469 14.1174 6.04145 13.5202C5.16822 12.923 4.48985 12.0788 4.09208 11.0939C3.69431 10.109 3.59503 9.02749 3.80633 7.98571C4.01764 6.94393 4.5304 5.98843 5.2798 5.2397C6.02921 4.49097 6.98148 3.98246 8.01727 3.77827C9.05305 3.57408 10.1257 3.68333 11.1 4.09227C12.0742 4.50122 12.9067 5.19161 13.4922 6.07632C14.0777 6.96103 14.3901 8.00054 14.3901 9.06385C14.3874 9.77418 14.2455 10.477 13.9732 11.1322C13.7008 11.7874 13.3032 12.3822 12.8027 12.8825C12.3023 13.3828 11.7092 13.779 11.0567 14.0482C10.4043 14.3175 9.70515 14.4546 9.00009 14.4519L8.99907 14.4498ZM8.92535 15.3058C8.78998 15.3058 8.65544 15.2985 8.52215 15.289L8.57452 14.6942C8.6901 14.7026 8.80768 14.7079 8.92535 14.7089V15.3058ZM9.42413 14.6942L9.47599 15.289C9.34271 15.2995 9.20867 15.3047 9.07331 15.3058V14.7089C9.19201 14.7099 9.30855 14.7047 9.42413 14.6964V14.6942ZM7.83219 15.1977C7.6996 15.1725 7.56796 15.1435 7.43815 15.1106L7.59271 14.5337C7.70517 14.5631 7.81931 14.5883 7.9349 14.6093L7.83219 15.1977ZM7.11681 14.3889C7.22719 14.428 7.3384 14.4631 7.45086 14.4939L7.29578 15.0708C7.16597 15.0337 7.03774 14.9929 6.9114 14.9481L7.11681 14.3889ZM6.77412 14.8998C6.64778 14.8523 6.52393 14.8005 6.40245 14.7445L6.65514 14.2032C6.75927 14.2514 6.86867 14.2966 6.97801 14.3385L6.77412 14.8998ZM7.95574 3.51523C7.84433 3.53621 7.73309 3.56044 7.62271 3.58772L7.46865 3.01067C7.59569 2.9792 7.72288 2.95092 7.85304 2.92679L7.95574 3.51523ZM7.47984 3.62024C7.3705 3.65067 7.26116 3.68421 7.15494 3.72512L6.94699 3.16383C7.0709 3.12082 7.19569 3.08205 7.32273 3.04743L7.47984 3.62024ZM7.01563 3.77123C6.90872 3.81109 6.8048 3.85415 6.70345 3.90031L6.44922 3.359C6.56932 3.30515 6.69123 3.2554 6.8148 3.20994L7.01563 3.77123ZM6.56566 3.96217C6.46292 4.01112 6.36157 4.06328 6.26161 4.11853L5.96264 3.60129C6.07719 3.5373 6.19428 3.4775 6.31194 3.42085L6.56566 3.96217ZM6.1345 4.19191C6.03592 4.24995 5.9396 4.31042 5.84519 4.37337L5.5025 3.88456C5.6108 3.81113 5.72219 3.74111 5.83604 3.67467L6.1345 4.19191ZM5.72418 4.45738C5.63151 4.52347 5.54121 4.59266 5.45166 4.66714L5.06727 4.20971C5.1714 4.12683 5.27584 4.04717 5.37997 3.97164L5.72418 4.45738ZM5.33827 4.75742C5.25185 4.83086 5.16631 4.90733 5.08405 4.98601L4.66103 4.56648C4.75578 4.47521 4.85393 4.38701 4.95389 4.30204L5.33827 4.75742ZM4.97982 5.09C4.89929 5.17112 4.82142 5.25459 4.74644 5.34061L4.28834 4.95669C4.37511 4.85737 4.46497 4.76118 4.5573 4.66816L4.97982 5.09ZM4.65086 5.4519C4.58144 5.53932 4.51181 5.62915 4.44239 5.72146L3.95327 5.37941C4.03102 5.27311 4.1118 5.16828 4.1958 5.06477L4.65086 5.4519ZM4.35392 5.84107C4.28936 5.93444 4.2262 6.03101 4.1658 6.12857L3.64515 5.82955C3.71457 5.71695 3.78678 5.6064 3.86175 5.498L4.35392 5.84107ZM4.09157 6.25548C4.0343 6.35409 3.98141 6.45579 3.93039 6.5586L3.38788 6.30581C3.44619 6.18691 3.50802 6.07046 3.57397 5.95646L4.09157 6.25548ZM3.86684 6.69076C3.81894 6.79566 3.77428 6.90062 3.73159 7.00553L3.16925 6.80102C3.21715 6.67723 3.26879 6.55584 3.32433 6.43694L3.86684 6.69076ZM3.67922 7.14512C3.64069 7.25002 3.60519 7.36229 3.57499 7.47244L2.9974 7.31813C3.03384 7.19119 3.07516 7.06529 3.11993 6.9415L3.67922 7.14512ZM3.5333 7.61395C3.50518 7.72515 3.47841 7.83642 3.4555 7.94972L2.86723 7.84484C2.89327 7.71476 2.92236 7.5857 2.95672 7.45771L3.5333 7.61395ZM3.42957 8.09443C3.40979 8.20773 3.39377 8.32108 3.38127 8.43648L2.78588 8.38398C2.80046 8.25179 2.81941 8.12066 2.84232 7.99057L3.42957 8.09443ZM3.36703 8.58234C3.35662 8.69669 3.35033 8.81102 3.34721 8.92747H2.74927C2.74927 8.79423 2.75968 8.66202 2.77114 8.52984L3.36703 8.58234ZM3.34619 9.07435C3.34619 9.1908 3.34592 9.30615 3.35737 9.4205L2.76199 9.47301C2.75366 9.34187 2.74826 9.20861 2.74826 9.07538L3.34619 9.07435ZM3.36805 9.56636C3.37846 9.68246 3.39239 9.79716 3.40974 9.91046L2.82046 10.0153C2.80033 9.88456 2.78428 9.75277 2.77317 9.61989L3.36805 9.56636ZM3.43262 10.0552C3.45345 10.1695 3.47724 10.2828 3.50431 10.395L2.92774 10.5494C2.89581 10.4207 2.86796 10.2905 2.84435 10.159L3.43262 10.0552ZM3.53685 10.5367C3.5674 10.6493 3.6017 10.7601 3.64058 10.8693L3.07976 11.0739C3.03707 10.948 2.99718 10.8211 2.96282 10.692L3.53685 10.5367ZM3.68786 11.0078C3.72813 11.1169 3.77151 11.2243 3.81802 11.3299L3.27551 11.5827C3.22137 11.461 3.17134 11.3375 3.12552 11.2123L3.68786 11.0078ZM3.87904 11.4641C3.92902 11.569 3.98353 11.674 4.03767 11.7789L3.51703 12.0778C3.45247 11.9613 3.39075 11.8418 3.33348 11.7211L3.87904 11.4641ZM4.10936 11.9026C4.16872 12.0075 4.23039 12.1019 4.29495 12.1984L3.8043 12.5415C3.73036 12.4313 3.65831 12.317 3.59583 12.2016L4.10936 11.9026ZM4.37782 12.3222C4.44724 12.4173 4.51686 12.51 4.58628 12.6003L4.12818 12.9842C4.04418 12.8807 3.96372 12.7758 3.88666 12.6695L4.37782 12.3222ZM4.68289 12.7136C4.75682 12.8028 4.83608 12.8887 4.91626 12.9727L4.49375 13.3923C4.40072 13.2958 4.31054 13.1964 4.22376 13.0943L4.68289 12.7136ZM5.0205 13.0775C5.1031 13.1594 5.18859 13.2388 5.27675 13.3157L4.89237 13.7732C4.78824 13.685 4.69274 13.5938 4.59798 13.5004L5.0205 13.0775ZM5.3881 13.4111C5.47765 13.4856 5.57047 13.557 5.66419 13.621L5.32149 14.1098C5.21251 14.0308 5.10646 13.9486 5.00372 13.8633L5.3881 13.4111ZM5.78469 13.7112C5.88049 13.7776 5.97893 13.8409 6.07958 13.9011L5.7796 14.4183C5.66402 14.3491 5.55136 14.2767 5.44098 14.2001L5.78469 13.7112ZM9.06822 2.82178C9.20046 2.82178 9.33058 2.82807 9.46074 2.83856L9.40837 3.4334C9.29591 3.42501 9.18276 3.4209 9.06822 3.4188V2.82178ZM8.57961 3.4334L8.52774 2.83856C8.65791 2.82912 8.78906 2.82388 8.92026 2.82178V3.4188C8.81197 3.423 8.69921 3.42719 8.58571 3.43558L8.57961 3.4334ZM10.1415 2.92679C10.2707 2.95092 10.3999 2.9792 10.5259 3.01067L10.3719 3.58772C10.2622 3.56044 10.1508 3.53621 10.0383 3.51523L10.1415 2.92679ZM14.537 7.95395C14.5141 7.84065 14.4879 7.72833 14.4577 7.61817L15.0358 7.46399C15.0698 7.59128 15.0996 7.72033 15.1253 7.85112L14.537 7.95395ZM15.1512 7.9948C15.1742 8.12419 15.1928 8.25532 15.2067 8.3882L14.6108 8.44071C14.5983 8.32531 14.5828 8.21196 14.563 8.09866L15.1512 7.9948ZM14.4221 7.47654C14.3895 7.36604 14.3552 7.25692 14.3184 7.14921L14.8818 6.9447C14.9262 7.06849 14.9665 7.19404 15.0033 7.32133L14.4221 7.47654ZM14.264 7.01181C14.2224 6.9069 14.1767 6.80207 14.1288 6.69716L14.6713 6.44424C14.7265 6.56383 14.7753 6.68558 14.8264 6.80832L14.264 7.01181ZM14.0652 6.56282C14.0142 6.45792 13.9613 6.35937 13.904 6.2597L14.4247 5.96068C14.4903 6.07503 14.5525 6.19149 14.6098 6.31003L14.0652 6.56282ZM13.8288 6.13267C13.7691 6.03475 13.7061 5.93902 13.6402 5.8453L14.1308 5.50222C14.2058 5.60713 14.2777 5.72047 14.3464 5.83377L13.8288 6.13267ZM13.5557 5.72569C13.4881 5.63337 13.4186 5.5432 13.3478 5.45612L13.8059 5.07207C13.8899 5.17278 13.9707 5.27774 14.0484 5.38684L13.5557 5.72569ZM13.2497 5.34381C13.1747 5.25779 13.0973 5.1742 13.0168 5.09307L13.4393 4.67341C13.5316 4.76643 13.621 4.86262 13.7078 4.96194L13.2497 5.34381ZM12.9116 4.99024C12.8293 4.91156 12.7438 4.83496 12.6573 4.76152L13.0417 4.30422C13.1417 4.38954 13.239 4.47761 13.3341 4.56853L12.9116 4.99024ZM12.5439 4.66714C12.4565 4.5958 12.3646 4.52662 12.2709 4.45738L12.6146 3.96844C12.7187 4.04397 12.8227 4.12376 12.9268 4.20663L12.5439 4.66714ZM12.1504 4.37657C12.0567 4.31363 11.9585 4.25281 11.8606 4.19511L12.1596 3.67787C12.2727 3.74781 12.3836 3.8177 12.4926 3.88763L12.1504 4.37657ZM11.7335 4.1216C11.6294 4.06705 11.5336 4.01677 11.4294 3.96537L11.6826 3.42405C11.8013 3.4807 11.9179 3.54085 12.0325 3.60449L11.7335 4.1216ZM11.2972 3.90339C11.1938 3.85723 11.0899 3.81429 10.9851 3.77443L11.1935 3.21314C11.3164 3.2593 11.4378 3.30857 11.5565 3.36207L11.2972 3.90339ZM10.8422 3.7241C10.7381 3.68738 10.6266 3.65266 10.5163 3.61909L10.6719 3.04218C10.7989 3.0768 10.9237 3.11662 11.0476 3.15858L10.8422 3.7241ZM12.2074 13.7091L12.5511 14.1979C12.4407 14.2742 12.3282 14.3469 12.2129 14.4162L11.914 13.899C12.015 13.8434 12.1125 13.7847 12.2094 13.7134L12.2074 13.7091ZM12.3273 13.6241C12.4211 13.5549 12.5139 13.4836 12.6045 13.4143L12.9873 13.8718C12.8846 13.9571 12.7806 14.0393 12.6751 14.1183L12.3273 13.6241ZM12.7158 13.3095C12.8033 13.2329 12.8888 13.1531 12.9721 13.0713L13.3946 13.4909C13.2995 13.5853 13.201 13.6763 13.0997 13.7637L12.7158 13.3095ZM13.4027 12.594C13.4756 12.5038 13.5466 12.4104 13.6112 12.316L14.1008 12.659C14.0237 12.7639 13.9421 12.8751 13.8588 12.9737L13.4027 12.594ZM13.6966 12.1943C13.7622 12.0978 13.8233 11.9992 13.8817 11.8985L14.4023 12.1974C14.3329 12.3128 14.2638 12.4262 14.1944 12.5374L13.6966 12.1943ZM13.9549 11.7746C14.0104 11.6732 14.063 11.5683 14.113 11.4599L14.6555 11.7116C14.5982 11.8323 14.537 11.952 14.4725 12.0684L13.9549 11.7746ZM14.1735 11.3309C14.2193 11.226 14.2631 11.1211 14.3037 11.0088L14.866 11.2134C14.8195 11.3385 14.7691 11.462 14.715 11.5837L14.1735 11.3309ZM14.3525 10.8703C14.3893 10.7612 14.4241 10.6504 14.4567 10.5378L15.0338 10.692C14.9991 10.8207 14.9602 10.948 14.9179 11.0739L14.3525 10.8703ZM14.4903 10.395C14.5173 10.2828 14.5422 10.1706 14.5609 10.0552L15.1502 10.1601C15.1273 10.2922 15.0991 10.4224 15.0668 10.5504L14.4903 10.395ZM14.5859 9.91046C14.6036 9.79716 14.6161 9.68176 14.6265 9.56636L15.2219 9.61874C15.2094 9.75197 15.195 9.88423 15.1741 10.0143L14.5859 9.91046ZM14.6377 9.41948C14.6454 9.30478 14.6494 9.18943 14.6494 9.07333H15.2468C15.2468 9.20691 15.243 9.33934 15.2346 9.47083L14.6377 9.41948ZM14.6484 8.92644C14.6484 8.81035 14.6421 8.69519 14.6296 8.58119L15.225 8.52881C15.2361 8.6603 15.2434 8.79286 15.2468 8.92644H14.6484ZM10.0022 2.89631L9.898 3.48488C9.78624 3.4674 9.67323 3.45272 9.55938 3.44083L9.61276 2.84599C9.74501 2.86592 9.87101 2.88263 10.0032 2.90361L10.0022 2.89631ZM8.38589 2.84599L8.43826 3.44083C8.32476 3.45237 8.21207 3.46705 8.10065 3.48488L7.99642 2.89631C8.12658 2.88268 8.2557 2.86588 8.3869 2.85329L8.38589 2.84599ZM5.9118 14.4907L6.21076 13.9734C6.31212 14.0308 6.41604 14.0854 6.52295 14.1371L6.27025 14.6784C6.14877 14.6225 6.02976 14.5614 5.91383 14.4949L5.9118 14.4907ZM7.97557 15.225L8.0798 14.6365C8.19504 14.6554 8.31128 14.6708 8.4286 14.6826L8.37674 15.2775C8.24276 15.2614 8.10918 15.2439 7.97659 15.225H7.97557ZM9.62192 15.2785L9.57006 14.6837C9.68737 14.6718 9.80329 14.6565 9.91783 14.6376L10.0221 15.2261C9.89086 15.2443 9.75761 15.2617 9.62293 15.2785H9.62192ZM11.7284 14.6826L11.4767 14.1413C11.5815 14.0903 11.6855 14.0357 11.7889 13.9777L12.0879 14.4949C11.9712 14.5614 11.8519 14.6239 11.7304 14.6826H11.7284Z" fill="url(#paint6_linear_256_50852)"/>
<path d="M1.58858 8.73421C1.84491 8.40134 2.03257 8.02024 2.14075 7.61329C2.24893 7.20634 2.27543 6.78169 2.21854 6.36431L2.07872 5.33522L3.03358 4.94284C3.42063 4.78352 3.7727 4.54798 4.06826 4.25003C4.36382 3.95208 4.59726 3.59766 4.75517 3.20762L5.14566 2.24562L6.16712 2.38623C6.5814 2.44349 7.00278 2.41685 7.40671 2.30786C7.81063 2.19887 8.18876 2.00975 8.51919 1.75156L9.33473 1.11472L10.1498 1.75156C10.4801 2.00962 10.8585 2.19862 11.2622 2.3076C11.666 2.41659 12.0872 2.44334 12.5013 2.38623L13.4902 2.24985L13.4064 2.04008L12.3844 2.18057C11.9703 2.23779 11.5491 2.21118 11.1453 2.10219C10.7415 1.99321 10.3636 1.80406 10.0333 1.5459L9.2183 0.90918L8.40275 1.5459C8.07251 1.80406 7.69454 1.99321 7.29078 2.10219C6.88703 2.21118 6.46582 2.23779 6.0517 2.18057L5.02872 2.04008L4.63925 3.00208C4.48122 3.39192 4.24789 3.74609 3.95234 4.04385C3.65678 4.34162 3.30512 4.57695 2.91816 4.73615L1.9633 5.12853L2.10313 6.15762C2.16074 6.57465 2.13516 6.99915 2.02788 7.40609C1.92059 7.81303 1.73366 8.19425 1.47825 8.52752L0.846252 9.3489L0.982515 9.52626L1.58858 8.73421Z" fill="url(#paint7_linear_256_50852)"/>
<path d="M12.4413 8.7227L11.698 7.72933C11.6387 7.6537 11.5633 7.59244 11.4773 7.5503C11.3913 7.50816 11.2968 7.48616 11.2012 7.48588H10.5438V7.17111C10.5435 6.93071 10.449 6.70026 10.2804 6.53017C10.1118 6.36008 9.88297 6.26423 9.64434 6.26367H6.44318C6.20438 6.26395 5.97547 6.35966 5.80661 6.52978C5.63775 6.6999 5.543 6.93053 5.54272 7.17111V10.309C5.543 10.5496 5.63775 10.7802 5.80661 10.9503C5.97547 11.1204 6.20438 11.2161 6.44318 11.2164H6.50267C6.56727 11.4155 6.69329 11.5887 6.86214 11.7109C7.03098 11.8331 7.23388 11.8979 7.44176 11.896C7.64965 11.8942 7.85169 11.8257 8.01834 11.7005C8.18499 11.5753 8.30759 11.3999 8.36866 11.1996H9.6057C9.66843 11.4015 9.79402 11.5777 9.96365 11.7023C10.1333 11.8269 10.3379 11.8933 10.5479 11.8918C10.7578 11.8903 10.9617 11.8209 11.1295 11.6938C11.2973 11.5668 11.4205 11.3887 11.4803 11.1859H12.2994C12.3823 11.1859 12.462 11.1528 12.5206 11.0937C12.5792 11.0347 12.6121 10.9548 12.6121 10.8713V9.21893C12.6088 9.03948 12.5489 8.86571 12.4413 8.7227ZM7.90038 11.0453C7.86942 11.1548 7.80161 11.2502 7.7087 11.315C7.61579 11.3799 7.50306 11.4102 7.39041 11.401C7.27776 11.3917 7.17215 11.3434 7.09094 11.2642C7.00972 11.185 6.95841 11.0798 6.94552 10.9667V10.9342V10.9111C6.94624 10.7877 6.9927 10.669 7.07619 10.5787C7.15969 10.4883 7.27385 10.433 7.396 10.4235C7.51816 10.414 7.63937 10.451 7.73564 10.5273C7.83192 10.6037 7.89611 10.7137 7.91563 10.8356C7.91977 10.8605 7.92222 10.8858 7.92224 10.9111C7.92102 10.9563 7.914 11.001 7.9014 11.0443L7.90038 11.0453ZM10.5387 11.4031C10.4184 11.4031 10.3023 11.3583 10.2128 11.2774C10.1232 11.1965 10.0667 11.0851 10.0536 10.9647C10.0526 10.9479 10.0526 10.931 10.0536 10.9142C10.0538 10.8172 10.0824 10.7225 10.136 10.6419C10.1896 10.5614 10.2656 10.4985 10.3546 10.4615C10.4436 10.4245 10.5419 10.4149 10.6363 10.4338C10.7308 10.4528 10.8174 10.4996 10.8855 10.5682C10.9535 10.6368 10.9998 10.7242 11.0187 10.8193C11.0375 10.9144 11.028 11.013 10.9912 11.1027C10.9545 11.1924 10.8922 11.2691 10.8122 11.3231C10.7323 11.3771 10.638 11.4061 10.5417 11.4063L10.5387 11.4031ZM12.1174 10.6939H11.4925C11.4435 10.4743 11.3213 10.2782 11.1463 10.1382C10.9713 9.99813 10.754 9.9227 10.5306 9.92429C10.3071 9.92588 10.0909 10.0045 9.91789 10.147C9.74489 10.2895 9.62572 10.4873 9.57977 10.7076H8.38645C8.33994 10.4847 8.2184 10.2849 8.04224 10.1421C7.86608 9.99935 7.64598 9.92244 7.4199 9.92442C7.19382 9.9264 6.97531 10.0072 6.80163 10.153C6.62796 10.2988 6.51025 10.5007 6.46758 10.7244H6.43911C6.33058 10.7244 6.22655 10.681 6.14981 10.6037C6.07306 10.5263 6.02981 10.4214 6.02981 10.3121V7.17431C6.02981 7.06497 6.07306 6.96016 6.14981 6.88285C6.22655 6.80553 6.33058 6.76208 6.43911 6.76208H9.64333C9.75186 6.76208 9.85589 6.80553 9.93263 6.88285C10.0094 6.96016 10.0526 7.06497 10.0526 7.17431V9.45392C10.0526 9.51959 10.0782 9.58255 10.1243 9.62898C10.1704 9.67541 10.233 9.70159 10.2982 9.70159C10.3634 9.70159 10.426 9.67541 10.4721 9.62898C10.5182 9.58255 10.5438 9.51959 10.5438 9.45392V7.98519H11.2002C11.2201 7.98554 11.2397 7.99033 11.2576 7.99902C11.2756 8.00771 11.2912 8.0202 11.3039 8.03565L12.0447 9.02492C12.0888 9.08583 12.1125 9.15927 12.1123 9.23468L12.1174 10.6939Z" fill="#2E1B12"/>
<defs>
<linearGradient id="paint0_linear_256_50852" x1="8.12427" y1="14.603" x2="1.58656" y2="19.3586" gradientUnits="userSpaceOnUse">
<stop stop-color="#FFE67E"/>
<stop offset="0.5" stop-color="#E5AF52"/>
<stop offset="1" stop-color="#84591C"/>
</linearGradient>
<linearGradient id="paint1_linear_256_50852" x1="12.0978" y1="21.9178" x2="9.46044" y2="16.1516" gradientUnits="userSpaceOnUse">
<stop stop-color="#FFE67E"/>
<stop offset="0.5" stop-color="#E5AF52"/>
<stop offset="1" stop-color="#84591C"/>
</linearGradient>
<linearGradient id="paint2_linear_256_50852" x1="3.24" y1="9.06738" x2="13.752" y2="9.06738" gradientUnits="userSpaceOnUse">
<stop stop-color="#84591C"/>
<stop offset="0.5" stop-color="#E5AF52"/>
<stop offset="1" stop-color="#FFE67E"/>
</linearGradient>
<linearGradient id="paint3_linear_256_50852" x1="5.80524" y1="5.90802" x2="11.6867" y2="11.8261" gradientUnits="userSpaceOnUse">
<stop stop-color="#37190C"/>
<stop offset="1" stop-color="#1F120C"/>
</linearGradient>
<linearGradient id="paint4_linear_256_50852" x1="5.24794" y1="11.7221" x2="12.0745" y2="6.84806" gradientUnits="userSpaceOnUse">
<stop stop-color="#FFE67E"/>
<stop offset="0.5" stop-color="#E5AF52"/>
<stop offset="1" stop-color="#84591C"/>
</linearGradient>
<linearGradient id="paint5_linear_256_50852" x1="0.889893" y1="9.09982" x2="17.2099" y2="9.09982" gradientUnits="userSpaceOnUse">
<stop stop-color="#37190C"/>
<stop offset="1" stop-color="#1F120C"/>
</linearGradient>
<linearGradient id="paint6_linear_256_50852" x1="0.837524" y1="9.06334" x2="17.1601" y2="9.06334" gradientUnits="userSpaceOnUse">
<stop stop-color="#96661D"/>
<stop offset="0.228" stop-color="#CE9737"/>
<stop offset="0.414" stop-color="#FFE67E"/>
<stop offset="0.586" stop-color="#E5AF52"/>
<stop offset="0.772" stop-color="#FFCD65"/>
<stop offset="1" stop-color="#A97B2C"/>
</linearGradient>
<linearGradient id="paint7_linear_256_50852" x1="0.846252" y1="5.21772" x2="13.4902" y2="5.21772" gradientUnits="userSpaceOnUse">
<stop stop-color="#FFCD65"/>
<stop offset="0.5" stop-color="#FFE67E"/>
<stop offset="1" stop-color="#E5AF52"/>
</linearGradient>
</defs>
</svg>
