<svg width="16" height="16" viewBox="0 0 16 16" fill="none" xmlns="http://www.w3.org/2000/svg">
<path d="M7.99992 3.33398V12.6673M10.2221 5.03108H6.88881C6.47625 5.03108 6.08059 5.18752 5.78886 5.46598C5.49714 5.74444 5.33325 6.12212 5.33325 6.51593C5.33325 6.90973 5.49714 7.28741 5.78886 7.56587C6.08059 7.84434 6.47625 8.00077 6.88881 8.00077H9.11103C9.52359 8.00077 9.91925 8.15721 10.211 8.43568C10.5027 8.71414 10.6666 9.09182 10.6666 9.48562C10.6666 9.87943 10.5027 10.2571 10.211 10.5356C9.91925 10.814 9.52359 10.9705 9.11103 10.9705H5.33325" stroke="#176CF7" stroke-width="1.5" stroke-linecap="round" stroke-linejoin="round"/>
<circle cx="7.99992" cy="8.00065" r="5.91667" stroke="#176CF7" stroke-width="1.5"/>
</svg>
