<svg width="360" height="116" viewBox="0 0 360 116" fill="none" xmlns="http://www.w3.org/2000/svg">
<g clip-path="url(#clip0_271_3918)">
<rect width="360" height="116" fill="#176CF7"/>
<path d="M187.5 19.0304C109.9 3.83044 18.1667 77.6971 -18 116.53L-33 123.03L376 166.03C408.833 134.864 455.8 73.9304 381 79.5304C287.5 86.5304 284.5 38.0304 187.5 19.0304Z" fill="white" fill-opacity="0.1"/>
<path d="M-33 101C18.5 75.3333 140.5 27.3 216.5 40.5C311.5 57 309.5 13.5 371 0" stroke="white" stroke-opacity="0.1"/>
<path d="M206.5 59.6518C135.7 48.4518 75.3333 105.318 54 135.152L406.5 140.152C419.667 114.818 434.1 57.7518 386.5 32.1518C327 0.151768 295 73.6518 206.5 59.6518Z" fill="#D9D9D9" fill-opacity="0.1"/>
</g>
<defs>
<clipPath id="clip0_271_3918">
<rect width="360" height="116" fill="white"/>
</clipPath>
</defs>
</svg>
