<svg width="16" height="16" viewBox="0 0 16 16" fill="none" xmlns="http://www.w3.org/2000/svg">
<path d="M1.01408 6.7091L2.77721 2H12.422C12.4467 2.00123 12.4707 2.00933 12.4911 2.0234C12.5116 2.03748 12.5277 2.05696 12.5378 2.07971L14.2708 6.72193C14.2778 6.74056 14.2802 6.76063 14.2777 6.78039C14.2752 6.80014 14.2679 6.81898 14.2565 6.83526C14.245 6.85153 14.2298 6.86474 14.2121 6.87373C14.1944 6.88273 14.1748 6.88722 14.155 6.88684H11.2909L9.46579 5.66467L7.64155 6.88592L5.81731 5.66467L3.99307 6.88592H1.12901C1.10765 6.88728 1.08632 6.88295 1.06717 6.87336C1.04802 6.86376 1.03174 6.84925 1.01997 6.8313C1.00821 6.81334 1.00138 6.79258 1.00019 6.77112C0.998995 6.74966 1.00347 6.72826 1.01317 6.7091H1.01408Z" stroke="#176CF7" stroke-linecap="round" stroke-linejoin="round"/>
<path d="M2.75879 6.87402L2.77711 13.0059" stroke="#176CF7" stroke-linecap="round" stroke-linejoin="round"/>
<path d="M12.5059 6.87402L12.5242 12.9821" stroke="#176CF7" stroke-linecap="round" stroke-linejoin="round"/>
<path d="M13.7218 12.9819L1.56055 13.0067" stroke="#176CF7" stroke-linecap="round" stroke-linejoin="round"/>
<path d="M5.20898 12.994V8.84011C5.20898 8.8078 5.22177 8.7768 5.24452 8.75395C5.26727 8.7311 5.29812 8.71826 5.3303 8.71826H9.95201C9.98418 8.71826 10.015 8.7311 10.0378 8.75395C10.0605 8.7768 10.0733 8.8078 10.0733 8.84011V12.9931" stroke="#176CF7" stroke-linecap="round" stroke-linejoin="round"/>
<path d="M7.6416 12.9818V8.70605" stroke="#176CF7" stroke-linecap="round" stroke-linejoin="round"/>
</svg>
