<svg width="48" height="48" viewBox="0 0 48 48" fill="none" xmlns="http://www.w3.org/2000/svg">
<path d="M13.6853 39.2939C14.8862 38.0928 14.8862 36.1454 13.6853 34.9443C12.4843 33.7432 10.5372 33.7432 9.33622 34.9443L4.13878 40.1424C2.93783 41.3435 2.93783 43.2909 4.13878 44.492C5.33974 45.6931 7.28687 45.6931 8.48782 44.492L13.6853 39.2939Z" fill="#FFC217" stroke="black" stroke-width="0.5"/>
<path d="M41.6274 6.94137C42.0057 6.56301 42.0057 5.94956 41.6274 5.5712C41.2491 5.19283 40.6357 5.19283 40.2574 5.5712L37.6606 8.16827C37.2823 8.54664 37.2823 9.16009 37.6606 9.53845C38.0389 9.91681 38.6523 9.91681 39.0306 9.53845L41.6274 6.94137Z" fill="#FFC217" stroke="black" stroke-width="0.5"/>
<path d="M35.134 2.27776C35.134 1.75616 34.7112 1.33331 34.1896 1.33331C33.668 1.33331 33.2451 1.75616 33.2451 2.27776V6.05553C33.2451 6.57714 33.668 6.99998 34.1896 6.99998C34.7112 6.99998 35.134 6.57714 35.134 6.05553V2.27776Z" fill="#FFC217" stroke="black" stroke-width="0.5"/>
<path d="M44.8915 13.9259C45.4131 13.9259 45.8359 13.503 45.8359 12.9814C45.8359 12.4598 45.4131 12.037 44.8915 12.037H41.1137C40.5921 12.037 40.1693 12.4598 40.1693 12.9814C40.1693 13.503 40.5921 13.9259 41.1137 13.9259H44.8915Z" fill="#FFC217" stroke="black" stroke-width="0.5"/>
<path d="M24.7602 37.8518C32.9319 37.8518 39.5565 31.0864 39.5565 22.7408C39.5565 14.3951 32.9319 7.62964 24.7602 7.62964C16.5884 7.62964 9.96387 14.3951 9.96387 22.7408C9.96387 31.0864 16.5884 37.8518 24.7602 37.8518Z" fill="#307CFE" stroke="black" stroke-width="0.5"/>
<path d="M24.743 32.9815C30.5678 32.9815 35.2986 28.4013 35.2986 22.7407C35.2986 17.0801 30.5678 12.5 24.743 12.5C18.9182 12.5 14.1875 17.0801 14.1875 22.7407C14.1875 28.4013 18.9182 32.9815 24.743 32.9815Z" fill="#183E7F" stroke="black" stroke-width="0.5"/>
<path d="M24.4285 24.1337C26.4229 24.1337 28.0396 22.517 28.0396 20.5226C28.0396 18.5282 26.4229 16.9115 24.4285 16.9115C22.4341 16.9115 20.8174 18.5282 20.8174 20.5226C20.8174 22.517 22.4341 24.1337 24.4285 24.1337Z" fill="#FFC217" stroke="black" stroke-width="0.5"/>
<path fill-rule="evenodd" clip-rule="evenodd" d="M32.3323 29.9934C30.4521 31.9668 27.7987 33.1966 24.858 33.1966C21.9071 33.1966 19.2455 31.9583 17.3643 29.973C18.7732 27.0065 21.5937 24.9822 24.8435 24.9822C28.1006 24.9822 30.9266 27.0158 32.3323 29.9934Z" fill="#FFC217"/>
<mask id="mask0_849_31745" style="mask-type:alpha" maskUnits="userSpaceOnUse" x="17" y="24" width="16" height="10">
<path fill-rule="evenodd" clip-rule="evenodd" d="M32.3323 29.9934C30.4521 31.9668 27.7987 33.1966 24.858 33.1966C21.9071 33.1966 19.2455 31.9583 17.3643 29.973C18.7732 27.0065 21.5937 24.9822 24.8435 24.9822C28.1006 24.9822 30.9266 27.0158 32.3323 29.9934Z" fill="black"/>
</mask>
<g mask="url(#mask0_849_31745)">
<path d="M32.332 29.9934L32.5734 30.2233L32.731 30.0578L32.6334 29.8511L32.332 29.9934ZM17.364 29.973L17.0628 29.83L16.9648 30.0364L17.122 30.2023L17.364 29.973ZM24.8577 33.53C27.8933 33.53 30.6329 32.2601 32.5734 30.2233L32.0907 29.7635C30.2708 31.6736 27.7034 32.8633 24.8577 32.8633V33.53ZM17.122 30.2023C19.0636 32.2513 21.8116 33.53 24.8577 33.53V32.8633C22.0021 32.8633 19.4268 31.6654 17.6059 29.7437L17.122 30.2023ZM17.665 30.116C19.0267 27.2491 21.7396 25.3155 24.8432 25.3155V24.6489C21.4472 24.6489 18.5191 26.764 17.0628 29.83L17.665 30.116ZM24.8432 25.3155C27.9538 25.3155 30.672 27.258 32.0306 30.1357L32.6334 29.8511C31.1806 26.7737 28.2468 24.6489 24.8432 24.6489V25.3155Z" fill="black"/>
</g>
<path fill-rule="evenodd" clip-rule="evenodd" d="M25.0866 24.9855C25.4802 24.9971 25.8672 25.0383 26.2456 25.1072L25.4284 26.8437H24.1167L23.3138 25.1376C23.7421 25.0503 24.1817 24.9987 24.6301 24.9855H25.0866ZM26.6238 33.0487C26.0547 33.146 25.4697 33.1967 24.8729 33.1967C24.2262 33.1967 23.5933 33.1371 22.9795 33.0233L24.1183 26.8438H25.43L26.6238 33.0487Z" fill="#176CF7"/>
<mask id="mask1_849_31745" style="mask-type:alpha" maskUnits="userSpaceOnUse" x="22" y="24" width="5" height="10">
<path fill-rule="evenodd" clip-rule="evenodd" d="M25.0866 24.9855C25.4802 24.9971 25.8672 25.0383 26.2456 25.1072L25.4284 26.8437H24.1167L23.3138 25.1376C23.7421 25.0503 24.1817 24.9987 24.6301 24.9855H25.0866ZM26.6238 33.0487C26.0547 33.146 25.4697 33.1967 24.8729 33.1967C24.2262 33.1967 23.5933 33.1371 22.9795 33.0233L24.1183 26.8438H25.43L26.6238 33.0487Z" fill="black"/>
</mask>
<g mask="url(#mask1_849_31745)">
<path d="M25.0862 24.9856L25.0959 24.6524L25.091 24.6522H25.0862V24.9856ZM26.2451 25.1072L26.5467 25.2492L26.7312 24.857L26.3049 24.7794L26.2451 25.1072ZM25.4279 26.8438V27.1771H25.6394L25.7295 26.9857L25.4279 26.8438ZM24.1162 26.8438L23.8146 26.9857L23.9047 27.1771H24.1162V26.8438ZM23.3133 25.1376L23.2468 24.811L22.8311 24.8958L23.0117 25.2796L23.3133 25.1376ZM24.6296 24.9856V24.6522H24.6248L24.6199 24.6524L24.6296 24.9856ZM26.6234 33.0488L26.6795 33.3774L27.015 33.32L26.9507 32.9858L26.6234 33.0488ZM22.979 33.0234L22.6512 32.963L22.5908 33.2904L22.9182 33.3511L22.979 33.0234ZM24.1178 26.8438V26.5105H23.8403L23.79 26.7834L24.1178 26.8438ZM25.4295 26.8438L25.7568 26.7808L25.7048 26.5105H25.4295V26.8438ZM25.0764 25.3188C25.4532 25.3298 25.8234 25.3692 26.1854 25.4352L26.3049 24.7794C25.9101 24.7074 25.5064 24.6644 25.0959 24.6524L25.0764 25.3188ZM25.7295 26.9857L26.5467 25.2492L25.9435 24.9653L25.1263 26.7018L25.7295 26.9857ZM24.1162 27.1771H25.4279V26.5104H24.1162V27.1771ZM23.0117 25.2796L23.8146 26.9857L24.4178 26.7018L23.6149 24.9957L23.0117 25.2796ZM23.3799 25.4642C23.7896 25.3807 24.2102 25.3313 24.6394 25.3188L24.6199 24.6524C24.1522 24.666 23.6936 24.7199 23.2468 24.811L23.3799 25.4642ZM25.0862 24.6522H24.6296V25.3189H25.0862V24.6522ZM26.5672 32.7202C26.0166 32.8143 25.4504 32.8634 24.8724 32.8634V33.53C25.4882 33.53 26.092 33.4778 26.6795 33.3774L26.5672 32.7202ZM24.8724 32.8634C24.2462 32.8634 23.6336 32.8058 23.0398 32.6956L22.9182 33.3511C23.552 33.4686 24.2052 33.53 24.8724 33.53V32.8634ZM23.79 26.7834L22.6512 32.963L23.3068 33.0838L24.4456 26.9042L23.79 26.7834ZM25.4295 26.5105H24.1178V27.1772H25.4295V26.5105ZM26.9507 32.9858L25.7568 26.7808L25.1022 26.9068L26.296 33.1118L26.9507 32.9858Z" fill="black"/>
</g>
</svg>
