<svg width="10" height="11" viewBox="0 0 10 11" fill="none" xmlns="http://www.w3.org/2000/svg">
<path d="M8.01741 0.278337C7.81752 0.0919502 7.55248 -0.00787939 7.27974 0.000486397C7.007 0.00885219 6.74853 0.124739 6.56035 0.323029L0.197655 6.7076L0.000411363 9.8105C-0.00145229 9.84033 0.00303107 9.87022 0.0135633 9.89818C0.0240956 9.92614 0.0404357 9.95153 0.0614986 9.97267C0.0825615 9.9938 0.107865 10.0102 0.135728 10.0208C0.163592 10.0313 0.193377 10.0358 0.223106 10.034L3.31538 9.83604L9.67808 3.45147C9.87569 3.26265 9.99118 3.00329 9.99952 2.72961C10.0079 2.45593 9.90836 2.18998 9.72262 1.9894L8.01741 0.278337Z" fill="#525252"/>
</svg>
