<svg width="16" height="16" viewBox="0 0 16 16" fill="none" xmlns="http://www.w3.org/2000/svg">
<path d="M4.5 4.5H9.5L12 5L14.5 13.5L14 14.5H2L1.5 14L4.5 4.5Z" fill="#176CF7"/>
<path fill-rule="evenodd" clip-rule="evenodd" d="M7.57642 1.04329C6.59245 1.25408 5.89418 2.16663 5.95865 3.15749C5.98332 3.53625 6.07921 3.84223 6.26364 4.13054L6.35869 4.27913L5.46354 4.27946C4.49806 4.27981 4.42191 4.28843 4.14601 4.42859C3.96146 4.52233 3.71469 4.7687 3.62836 4.94536C3.57529 5.05395 1.36179 12.3374 1.08086 13.3278C1.03637 13.4846 1 13.6717 1 13.7435C1 14.3319 1.41081 14.8453 1.97888 14.9669C2.18355 15.0107 13.8132 15.0112 14.0211 14.9674C14.5856 14.8485 15 14.3305 15 13.7435C15 13.6717 14.9636 13.4846 14.9192 13.3278C14.6416 12.3489 12.4242 5.05291 12.3714 4.94465C12.2842 4.76591 12.0129 4.49982 11.8281 4.4118C11.5774 4.29237 11.4465 4.27913 10.5153 4.27913H9.64259L9.74945 4.10823C9.90838 3.85404 10.0224 3.48591 10.0421 3.16356C10.1134 1.99196 9.15664 0.987807 7.98064 1.00011C7.86345 1.00132 7.68155 1.02076 7.57642 1.04329ZM8.25159 1.84867C8.48847 1.89849 8.68452 2.00653 8.86253 2.18536C9.56773 2.89378 9.1833 4.08734 8.19537 4.25676C7.80739 4.32329 7.4245 4.19822 7.13747 3.91119C6.65182 3.42557 6.65149 2.66937 7.1367 2.18599C7.44038 1.88345 7.84086 1.76227 8.25159 1.84867ZM11.4746 5.15512C11.5504 5.19381 11.6002 5.2459 11.638 5.32602C11.7129 5.48505 14.1797 13.6888 14.1797 13.779C14.1797 13.9041 14.079 14.0627 13.9616 14.1226C13.8545 14.1772 13.8128 14.1776 7.99798 14.1776H2.1422L2.03313 14.1163C1.9152 14.05 1.82031 13.8994 1.82031 13.7785C1.82031 13.6847 4.33069 5.34986 4.38064 5.27784C4.40126 5.24811 4.46423 5.19589 4.52059 5.16176L4.62305 5.09972L7.99426 5.09958C11.3314 5.09945 11.3666 5.10002 11.4746 5.15512ZM5.35862 7.6389C5.29699 7.66742 5.21701 7.73217 5.18089 7.78278L5.11523 7.87485L5.10747 9.59751C5.10052 11.1348 5.10446 11.3327 5.14419 11.4371C5.26218 11.7472 5.6917 11.7794 5.86732 11.4913C5.91769 11.4087 5.92168 11.3525 5.92177 10.7254L5.92188 10.0487H6.00382C6.08375 10.0487 6.09504 10.0672 6.46716 10.8112C6.79302 11.4625 6.86225 11.5821 6.94218 11.6315C7.13082 11.7481 7.39067 11.6837 7.50795 11.4913C7.61746 11.3117 7.59575 11.2399 7.17982 10.4054L6.79715 9.63762L7.17982 8.87262C7.56862 8.0954 7.59775 8.01214 7.53685 7.85196C7.47057 7.67764 7.22863 7.55831 7.05656 7.61511C6.87541 7.67488 6.82928 7.74206 6.45349 8.49323C6.09704 9.20581 6.08326 9.22837 6.00514 9.22837H5.9245L5.91635 8.53793C5.90878 7.89716 5.90427 7.84225 5.85352 7.7746C5.73181 7.6124 5.53351 7.55801 5.35862 7.6389ZM9.64615 7.67037C9.34684 7.74879 9.13493 7.87285 8.90141 8.10634C8.66456 8.34319 8.54318 8.55297 8.46416 8.86185C8.41852 9.0403 8.41016 9.16501 8.41016 9.66587C8.41016 10.3346 8.44425 10.54 8.60681 10.8502C8.72302 11.0721 9.05476 11.4038 9.27657 11.52C9.63937 11.7101 10.0588 11.7613 10.4446 11.6627C10.7535 11.5836 10.9633 11.4622 11.2001 11.2254C11.5595 10.8661 11.6914 10.5155 11.6914 9.92017C11.6914 9.51632 11.6501 9.40093 11.4734 9.31075C11.377 9.26159 11.3126 9.25571 10.8711 9.25571C10.4296 9.25571 10.3652 9.26159 10.2688 9.31075C10.1475 9.37266 10.0508 9.53019 10.0508 9.66587C10.0508 9.80155 10.1475 9.95908 10.2688 10.021C10.3537 10.0643 10.4301 10.076 10.6274 10.076H10.8781L10.8597 10.1911C10.8156 10.4669 10.6556 10.6864 10.4112 10.8064C10.2831 10.8693 10.2199 10.8827 10.0508 10.8827C9.70898 10.8827 9.44454 10.7142 9.30173 10.4055C9.24857 10.2907 9.24414 10.2338 9.24414 9.66587V9.05063L9.32043 8.89526C9.5473 8.43326 10.1536 8.29408 10.548 8.61349C10.7186 8.75163 10.8358 8.79888 10.9703 8.7837C11.1262 8.76615 11.2403 8.67799 11.2961 8.53192C11.3686 8.34191 11.3351 8.23308 11.1476 8.04979C10.7751 7.68582 10.1704 7.53302 9.64615 7.67037Z" fill="#176CF7"/>
<path fill-rule="evenodd" clip-rule="evenodd" d="M5.35867 7.63867C5.29704 7.66719 5.21705 7.73194 5.18093 7.78255L5.11528 7.87462L5.10752 9.59728C5.10057 11.1346 5.10451 11.3325 5.14424 11.4369C5.26223 11.747 5.69174 11.7792 5.86737 11.4911C5.91774 11.4085 5.92173 11.3523 5.92181 10.7252L5.92192 10.0485H6.00387C6.0838 10.0485 6.09509 10.067 6.46721 10.8109C6.79307 11.4623 6.8623 11.5818 6.94223 11.6312C7.13087 11.7478 7.39072 11.6835 7.508 11.4911C7.61751 11.3115 7.5958 11.2396 7.17987 10.4052L6.7972 9.63739L7.17987 8.87239C7.56867 8.09517 7.59779 8.01191 7.5369 7.85173C7.47062 7.67741 7.22868 7.55808 7.05661 7.61488C6.87545 7.67465 6.82932 7.74183 6.45354 8.493C6.09709 9.20558 6.0833 9.22814 6.00518 9.22814H5.92455L5.9164 8.5377C5.90882 7.89693 5.90431 7.84202 5.85356 7.77437C5.73186 7.61217 5.53356 7.55778 5.35867 7.63867ZM9.6462 7.67014C9.34689 7.74856 9.13498 7.87262 8.90146 8.10611C8.66461 8.34296 8.54323 8.55274 8.46421 8.86162C8.41857 9.04007 8.4102 9.16478 8.4102 9.66564C8.4102 10.3344 8.4443 10.5397 8.60686 10.85C8.72307 11.0718 9.05481 11.4036 9.27662 11.5198C9.63941 11.7099 10.0589 11.7611 10.4447 11.6624C10.7536 11.5834 10.9633 11.462 11.2002 11.2252C11.5595 10.8658 11.6915 10.5153 11.6915 9.91993C11.6915 9.51609 11.6502 9.4007 11.4734 9.31052C11.3771 9.26136 11.3127 9.25548 10.8711 9.25548C10.4296 9.25548 10.3652 9.26136 10.2689 9.31052C10.1475 9.37243 10.0508 9.52996 10.0508 9.66564C10.0508 9.80132 10.1475 9.95885 10.2689 10.0208C10.3538 10.0641 10.4302 10.0758 10.6275 10.0758H10.8781L10.8597 10.1909C10.8156 10.4666 10.6556 10.6861 10.4113 10.8061C10.2832 10.869 10.2199 10.8824 10.0508 10.8824C9.70903 10.8824 9.44459 10.714 9.30177 10.4053C9.24862 10.2904 9.24419 10.2335 9.24419 9.66564V9.0504L9.32048 8.89503C9.54735 8.43303 10.1537 8.29385 10.548 8.61325C10.7186 8.7514 10.8358 8.79865 10.9703 8.78347C11.1263 8.76592 11.2403 8.67776 11.2961 8.53169C11.3687 8.34168 11.3352 8.23285 11.1476 8.04956C10.7751 7.68559 10.1705 7.53279 9.6462 7.67014Z" fill="white"/>
</svg>
