<svg width="15" height="15" viewBox="0 0 15 15" fill="none" xmlns="http://www.w3.org/2000/svg">
<path d="M1.82656 6.12008L1.82654 6.12009C0.779193 6.73108 0.779145 8.24443 1.82657 8.85538L2.80621 9.42684L2.51756 10.5237C2.20896 11.6964 3.27908 12.7665 4.4517 12.4579L5.54857 12.1692L6.12008 13.1489C6.73103 14.1963 8.24438 14.1963 8.85537 13.149L8.85538 13.1489L9.42684 12.1693L10.5237 12.4579C11.6963 12.7665 12.7664 11.6964 12.4578 10.5237L12.1692 9.42689L13.1489 8.85538C14.1963 8.24443 14.1963 6.73108 13.1489 6.12009L13.1489 6.12008L12.1692 5.54857L12.4578 4.45173C12.4578 4.45173 12.4578 4.45172 12.4578 4.45172C12.7664 3.2791 11.6963 2.20899 10.5237 2.51758L9.42684 2.80623L8.85538 1.82656L8.85537 1.82654C8.24438 0.779194 6.73103 0.779144 6.12008 1.82657L5.54858 2.80625L4.4517 2.51759L4.32557 2.99687L4.4517 2.51759C3.27906 2.20901 2.20896 3.27911 2.51755 4.45175C2.51755 4.45175 2.51755 4.45175 2.51755 4.45175L2.8062 5.54863L1.82656 6.12008Z" fill="#3ECD00" stroke="white"/>
<path d="M6.85281 9.12375C6.75152 9.12213 6.65456 9.08638 6.58133 9.0236L4.91407 7.59674C4.87605 7.5644 4.84559 7.52557 4.82448 7.48256C4.80336 7.4395 4.792 7.39318 4.79108 7.34617C4.79015 7.2992 4.79965 7.25251 4.81905 7.20885C4.83845 7.1652 4.86734 7.12538 4.90406 7.09185C4.97864 7.02371 5.08013 6.98455 5.18663 6.98287C5.29313 6.98119 5.3961 7.0171 5.4733 7.08286L6.84951 8.26012L9.49848 5.46054C9.56765 5.38845 9.66553 5.34351 9.77126 5.33533C9.87694 5.32716 9.98202 5.35641 10.0639 5.41682C10.1044 5.44674 10.1378 5.48356 10.1622 5.52514C10.1866 5.56672 10.2015 5.61223 10.2062 5.65903C10.2108 5.70584 10.205 5.75299 10.189 5.79776C10.1732 5.84254 10.1475 5.88403 10.1136 5.91985L7.20186 8.99819C7.16389 9.03828 7.11655 9.07045 7.06325 9.09244C7.01 9.11444 6.95199 9.12576 6.89328 9.12565C6.87979 9.12565 6.8663 9.125 6.85281 9.12375Z" fill="white"/>
</svg>
