<svg width="24" height="24" viewBox="0 0 24 24" fill="none" xmlns="http://www.w3.org/2000/svg">
<path d="M12 1.12248e-07C9.62663 1.12248e-07 7.30655 0.703788 5.33316 2.02236C3.35977 3.34094 1.8217 5.21508 0.913451 7.4078C0.00519931 9.60051 -0.232441 12.0133 0.230582 14.3411C0.693605 16.6689 1.83649 18.807 3.51472 20.4853C5.19295 22.1635 7.33115 23.3064 9.65892 23.7694C11.9867 24.2324 14.3995 23.9948 16.5922 23.0865C18.7849 22.1783 20.6591 20.6402 21.9776 18.6668C23.2962 16.6934 24 14.3734 24 12C24.0002 10.4241 23.69 8.86355 23.087 7.40754C22.484 5.95154 21.6001 4.62858 20.4858 3.51424C19.3714 2.39989 18.0485 1.51599 16.5925 0.913006C15.1365 0.310026 13.5759 -0.000215443 12 1.12248e-07ZM14.5042 16.6769C14.7122 16.8863 14.829 17.1695 14.829 17.4646C14.829 17.7598 14.7122 18.0429 14.5042 18.2523C14.4014 18.3555 14.2791 18.4372 14.1444 18.4927C14.0098 18.5481 13.8654 18.5763 13.7198 18.5756C13.4233 18.5752 13.1392 18.4571 12.9296 18.2474L7.50688 12.8074C7.31432 12.5962 7.21048 12.319 7.21689 12.0333C7.22331 11.7476 7.3395 11.4753 7.54134 11.273L13.0453 5.75179C13.1488 5.64835 13.2716 5.5663 13.4067 5.51032C13.5419 5.45433 13.6867 5.42552 13.833 5.42552C13.9793 5.42552 14.1242 5.45433 14.2593 5.51032C14.3945 5.5663 14.5173 5.64835 14.6207 5.75179C14.7242 5.85523 14.8062 5.97804 14.8622 6.11319C14.9182 6.24834 14.947 6.3932 14.947 6.53949C14.947 6.68577 14.9182 6.83063 14.8622 6.96578C14.8062 7.10093 14.7242 7.22374 14.6207 7.32718L9.89457 12L14.5042 16.6769Z" fill="white"/>
</svg>
