<svg width="15" height="14" viewBox="0 0 15 14" fill="none" xmlns="http://www.w3.org/2000/svg">
<path d="M13.6089 5.43652H0.845703" stroke="#176CF7" stroke-width="1.5" stroke-linecap="round" stroke-linejoin="bevel"/>
<path d="M3.44824 2.89311V1.60254" stroke="#176CF7" stroke-width="1.5" stroke-linecap="round" stroke-linejoin="bevel"/>
<path d="M11.2246 2.89311V1.60254" stroke="#176CF7" stroke-width="1.5" stroke-linecap="round" stroke-linejoin="bevel"/>
<path d="M12.3845 2.89355H2.1278C1.41972 2.89355 0.845703 3.46003 0.845703 4.15882V11.7504C0.845703 12.4492 1.41972 13.0156 2.1278 13.0156H12.3845C13.0926 13.0156 13.6666 12.4492 13.6666 11.7504V4.15882C13.6666 3.46003 13.0926 2.89355 12.3845 2.89355Z" stroke="#176CF7" stroke-width="1.5" stroke-linecap="round" stroke-linejoin="bevel"/>
<path d="M4.28133 7.32812H2.99923C2.82221 7.32812 2.67871 7.46974 2.67871 7.64444V8.9097C2.67871 9.0844 2.82221 9.22602 2.99923 9.22602H4.28133C4.45835 9.22602 4.60185 9.0844 4.60185 8.9097V7.64444C4.60185 7.46974 4.45835 7.32812 4.28133 7.32812Z" stroke="#176CF7" stroke-width="1.5" stroke-linecap="round" stroke-linejoin="bevel"/>
<path d="M7.96785 7.32812H6.68576C6.50874 7.32812 6.36523 7.46974 6.36523 7.64444V8.9097C6.36523 9.0844 6.50874 9.22602 6.68576 9.22602H7.96785C8.14487 9.22602 8.28838 9.0844 8.28838 8.9097V7.64444C8.28838 7.46974 8.14487 7.32812 7.96785 7.32812Z" stroke="#176CF7" stroke-width="1.5" stroke-linecap="round" stroke-linejoin="round"/>
</svg>
