<svg width="24" height="24" viewBox="0 0 24 24" fill="none" xmlns="http://www.w3.org/2000/svg">
<path d="M8.96914 4.25111L8.47087 3.69055V3.69055L8.96914 4.25111ZM15.0309 4.25111L15.5291 3.69055L15.0309 4.25111ZM14.8367 4.0785L14.3384 4.63906L14.8367 4.0785ZM9.16332 4.0785L9.66159 4.63906V4.63906L9.16332 4.0785ZM4.85497 20.4976L5.29581 19.8908L4.85497 20.4976ZM3.85942 19.502L4.46619 19.0612L3.85942 19.502ZM20.1406 19.502L19.5338 19.0612L20.1406 19.502ZM19.145 20.4976L18.7042 19.8908L19.145 20.4976ZM20.25 8.74345V13.257H21.75V8.74345H20.25ZM12.9 20.607H11.1V22.107H12.9V20.607ZM3.75 13.257V8.74345H2.25V13.257H3.75ZM14.3384 4.63906L14.5326 4.81167L15.5291 3.69055L15.335 3.51795L14.3384 4.63906ZM9.46741 4.81167L9.66159 4.63906L8.66505 3.51795L8.47087 3.69055L9.46741 4.81167ZM6.58644 5.90701C7.64849 5.90701 8.67362 5.51726 9.46741 4.81167L8.47087 3.69055C7.95165 4.15207 7.28112 4.40701 6.58644 4.40701V5.90701ZM14.5326 4.81167C15.3264 5.51726 16.3515 5.90701 17.4136 5.90701V4.40701C16.7189 4.40701 16.0483 4.15207 15.5291 3.69055L14.5326 4.81167ZM15.335 3.51795C13.433 1.82735 10.567 1.82735 8.66504 3.51795L9.66159 4.63906C10.9952 3.45365 13.0048 3.45365 14.3384 4.63906L15.335 3.51795ZM11.1 20.607C9.39591 20.607 8.17809 20.606 7.23632 20.5039C6.30858 20.4034 5.73809 20.2122 5.29581 19.8908L4.41413 21.1043C5.15473 21.6424 6.01939 21.8809 7.07475 21.9952C8.11608 22.108 9.42933 22.107 11.1 22.107V20.607ZM2.25 13.257C2.25 14.9277 2.24897 16.2409 2.36179 17.2823C2.47613 18.3376 2.71458 19.2023 3.25266 19.9429L4.46619 19.0612C4.14485 18.6189 3.95358 18.0484 3.85306 17.1207C3.75103 16.1789 3.75 14.9611 3.75 13.257H2.25ZM5.29581 19.8908C4.97745 19.6595 4.69748 19.3796 4.46619 19.0612L3.25266 19.9429C3.57648 20.3886 3.96843 20.7805 4.41413 21.1043L5.29581 19.8908ZM20.25 13.257C20.25 14.9611 20.249 16.1789 20.1469 17.1207C20.0464 18.0484 19.8552 18.6189 19.5338 19.0612L20.7473 19.9429C21.2854 19.2023 21.5239 18.3376 21.6382 17.2823C21.751 16.2409 21.75 14.9277 21.75 13.257H20.25ZM12.9 22.107C14.5707 22.107 15.8839 22.108 16.9253 21.9952C17.9806 21.8809 18.8453 21.6424 19.5859 21.1043L18.7042 19.8908C18.2619 20.2122 17.6914 20.4034 16.7637 20.5039C15.8219 20.606 14.6041 20.607 12.9 20.607V22.107ZM19.5338 19.0612C19.3025 19.3796 19.0226 19.6595 18.7042 19.8908L19.5859 21.1043C20.0316 20.7805 20.4235 20.3886 20.7473 19.9429L19.5338 19.0612ZM21.75 8.74345C21.75 6.3485 19.8085 4.40701 17.4136 4.40701V5.90701C18.9801 5.90701 20.25 7.17693 20.25 8.74345H21.75ZM3.75 8.74345C3.75 7.17693 5.01992 5.90701 6.58644 5.90701V4.40701C4.19149 4.40701 2.25 6.3485 2.25 8.74345H3.75ZM7.65 13.257C7.65 15.6594 9.59756 17.607 12 17.607V16.107C10.426 16.107 9.15 14.831 9.15 13.257H7.65ZM12 17.607C14.4024 17.607 16.35 15.6594 16.35 13.257H14.85C14.85 14.831 13.574 16.107 12 16.107V17.607ZM16.35 13.257C16.35 10.8546 14.4024 8.90701 12 8.90701V10.407C13.574 10.407 14.85 11.683 14.85 13.257H16.35ZM12 8.90701C9.59756 8.90701 7.65 10.8546 7.65 13.257H9.15C9.15 11.683 10.426 10.407 12 10.407V8.90701Z" fill="black"/>
<path d="M16.5 8.75693C16.5 9.25399 16.9029 9.65693 17.4 9.65693C17.8971 9.65693 18.3 9.25399 18.3 8.75693C18.3 8.25988 17.8971 7.85693 17.4 7.85693C16.9029 7.85693 16.5 8.25988 16.5 8.75693Z" fill="black"/>
</svg>
