<svg width="8" height="7" viewBox="0 0 8 7" fill="none" xmlns="http://www.w3.org/2000/svg">
<path d="M3.04515 6.43649C2.8955 6.43391 2.75235 6.37733 2.64419 6.278L0.181744 4.02009C0.12559 3.96887 0.0806099 3.90743 0.0494235 3.83936C0.0182372 3.77129 0.00146783 3.69794 9.21173e-05 3.62358C-0.00128359 3.54922 0.0127618 3.47535 0.0414104 3.40625C0.0700589 3.33716 0.112738 3.27423 0.166962 3.22113C0.277112 3.11328 0.427008 3.05135 0.584299 3.04869C0.74159 3.04604 0.893661 3.10287 1.00769 3.20693L3.04022 5.0698L6.95253 0.639724C7.05469 0.525644 7.19932 0.454518 7.35543 0.441585C7.51154 0.428651 7.66672 0.474939 7.78772 0.570532C7.84742 0.617878 7.89673 0.676143 7.93278 0.741941C7.96883 0.807739 7.99091 0.879759 7.99773 0.953819C8.00455 1.02788 7.99597 1.1025 7.9725 1.17335C7.94903 1.2442 7.91114 1.30987 7.86101 1.36654L3.56067 6.23779C3.50453 6.30119 3.43467 6.35208 3.35596 6.38691C3.27724 6.42174 3.19156 6.43967 3.10489 6.43945C3.08494 6.43941 3.065 6.43843 3.04515 6.43649Z" fill="#176CF7"/>
</svg>
