<svg width="24" height="24" viewBox="0 0 24 24" fill="none" xmlns="http://www.w3.org/2000/svg">
<path d="M21.9134 9.65448H2.76855" stroke="#1B1B1B" stroke-width="1.5" stroke-linecap="round" stroke-linejoin="bevel"/>
<path d="M6.67236 5.83972V3.90387" stroke="#1B1B1B" stroke-width="1.5" stroke-linecap="round" stroke-linejoin="bevel"/>
<path d="M18.3364 5.83972V3.90387" stroke="#1B1B1B" stroke-width="1.5" stroke-linecap="round" stroke-linejoin="bevel"/>
<path d="M20.0768 5.83972H4.69169C3.62957 5.83972 2.76855 6.68944 2.76855 7.73761V19.125C2.76855 20.1731 3.62957 21.0229 4.69169 21.0229H20.0768C21.1389 21.0229 22 20.1731 22 19.125V7.73761C22 6.68944 21.1389 5.83972 20.0768 5.83972Z" stroke="#1B1B1B" stroke-width="1.5" stroke-linecap="round" stroke-linejoin="bevel"/>
<path d="M7.92248 12.4918H5.99934C5.73381 12.4918 5.51855 12.7043 5.51855 12.9663V14.8642C5.51855 15.1262 5.73381 15.3387 5.99934 15.3387H7.92248C8.18801 15.3387 8.40326 15.1262 8.40326 14.8642V12.9663C8.40326 12.7043 8.18801 12.4918 7.92248 12.4918Z" stroke="#1B1B1B" stroke-width="1.5" stroke-linecap="round" stroke-linejoin="bevel"/>
<path d="M13.4518 12.4918H11.5286C11.2631 12.4918 11.0479 12.7043 11.0479 12.9663V14.8642C11.0479 15.1262 11.2631 15.3387 11.5286 15.3387H13.4518C13.7173 15.3387 13.9326 15.1262 13.9326 14.8642V12.9663C13.9326 12.7043 13.7173 12.4918 13.4518 12.4918Z" stroke="#1B1B1B" stroke-width="1.5" stroke-linecap="round" stroke-linejoin="round"/>
</svg>
