<svg width="16" height="18" viewBox="0 0 16 18" fill="none" xmlns="http://www.w3.org/2000/svg">
<path fill-rule="evenodd" clip-rule="evenodd" d="M11.0431 2.97412H4.79713C4.4232 2.97412 4.06458 3.11963 3.80016 3.37865C3.53575 3.63767 3.38721 3.98897 3.38721 4.35527V15.4045C3.38721 15.7708 3.53575 16.1221 3.80016 16.3811C4.06458 16.6401 4.4232 16.7856 4.79713 16.7856H13.2567C13.6306 16.7856 13.9892 16.6401 14.2536 16.3811C14.5181 16.1221 14.6666 15.7708 14.6666 15.4045V7.7529C14.6692 7.61166 14.6246 7.47347 14.5397 7.35928L11.6141 3.27107C11.55 3.18054 11.4647 3.10635 11.3654 3.05469C11.2661 3.00304 11.1556 2.97541 11.0431 2.97412V2.97412Z" stroke="#176CF7" stroke-width="1.5" stroke-linecap="round" stroke-linejoin="bevel"/>
<path fill-rule="evenodd" clip-rule="evenodd" d="M2.32838 0.498047C1.76047 0.498047 1.21278 0.718901 0.80658 1.11681C0.399858 1.51523 0.168457 2.05893 0.168457 2.6292V13.6784C0.168457 14.2487 0.399858 14.7924 0.80658 15.1908C1.21278 15.5887 1.76047 15.8096 2.32838 15.8096H3.44919C3.40846 15.6795 3.3872 15.5431 3.3872 15.4045V14.3096H2.32838C2.14843 14.3096 1.97888 14.2394 1.85625 14.1193C1.73415 13.9996 1.66846 13.8407 1.66846 13.6784V2.6292C1.66846 2.46685 1.73415 2.30796 1.85625 2.18835C1.97888 2.06822 2.14843 1.99805 2.32838 1.99805H8.54732L9.24584 2.97415H11.0431C11.0594 2.97434 11.0757 2.97508 11.0919 2.97637L9.75747 1.11159L9.75612 1.1097C9.62255 0.921691 9.44619 0.769043 9.24269 0.663215C9.03857 0.557067 8.8124 0.500724 8.58294 0.498096L8.57435 1.24805V0.498047H2.32838Z" fill="#176CF7"/>
</svg>
