<svg width="14" height="14" viewBox="0 0 14 14" fill="none" xmlns="http://www.w3.org/2000/svg">
<path d="M10.8698 3.87001C11.0521 3.68776 11.3475 3.68776 11.5298 3.87001C11.712 4.05225 11.712 4.34773 11.5298 4.52997L5.92979 10.13C5.74754 10.3122 5.45207 10.3122 5.26982 10.13L2.93649 7.79664C2.75424 7.61439 2.75424 7.31892 2.93649 7.13667C3.11873 6.95443 3.41421 6.95443 3.59645 7.13667L5.5998 9.14002L10.8698 3.87001Z" fill="#176BF5"/>
<mask id="mask0_5035_7995" style="mask-type:alpha" maskUnits="userSpaceOnUse" x="2" y="3" width="10" height="8">
<path d="M10.8698 3.87001C11.0521 3.68776 11.3475 3.68776 11.5298 3.87001C11.712 4.05225 11.712 4.34773 11.5298 4.52997L5.92979 10.13C5.74754 10.3122 5.45207 10.3122 5.26982 10.13L2.93649 7.79664C2.75424 7.61439 2.75424 7.31892 2.93649 7.13667C3.11873 6.95443 3.41421 6.95443 3.59645 7.13667L5.5998 9.14002L10.8698 3.87001Z" fill="white"/>
</mask>
<g mask="url(#mask0_5035_7995)">
<rect width="14" height="14" fill="white"/>
</g>
</svg>
