<svg width="14" height="14" viewBox="0 0 14 14" fill="none" xmlns="http://www.w3.org/2000/svg">
<path d="M10.8701 3.87008C11.0523 3.68784 11.3478 3.68784 11.53 3.87008C11.7123 4.05233 11.7123 4.3478 11.53 4.53005L5.93003 10.13C5.74779 10.3123 5.45231 10.3123 5.27007 10.13L2.93673 7.79671C2.75449 7.61447 2.75449 7.31899 2.93673 7.13675C3.11898 6.9545 3.41445 6.9545 3.5967 7.13675L5.60005 9.1401L10.8701 3.87008Z" fill="#FFC217" stroke="#176CF7" stroke-width="1.5"/>
<mask id="mask0_1178_1033" style="mask-type:alpha" maskUnits="userSpaceOnUse" x="2" y="3" width="10" height="8">
<path d="M10.8701 3.87008C11.0523 3.68784 11.3478 3.68784 11.53 3.87008C11.7123 4.05233 11.7123 4.3478 11.53 4.53005L5.93003 10.13C5.74779 10.3123 5.45231 10.3123 5.27007 10.13L2.93673 7.79671C2.75449 7.61447 2.75449 7.31899 2.93673 7.13675C3.11898 6.9545 3.41445 6.9545 3.5967 7.13675L5.60005 9.1401L10.8701 3.87008Z" fill="white"/>
</mask>
<g mask="url(#mask0_1178_1033)">
<rect width="14" height="14" fill="#176CF7"/>
</g>
</svg>
