<svg width="19" height="19" viewBox="0 0 19 19" fill="none" xmlns="http://www.w3.org/2000/svg">
<circle cx="9.5" cy="9.5" r="9" fill="white" stroke="#F71717"/>
<path d="M10.2348 9.47523L13.8798 5.83023C13.9617 5.73458 14.0045 5.61154 13.9996 5.4857C13.9948 5.35986 13.9426 5.24049 13.8536 5.15145C13.7645 5.0624 13.6451 5.01023 13.5193 5.00537C13.3935 5.00051 13.2704 5.04332 13.1748 5.12523L9.52977 8.77023L5.88477 5.12023C5.78912 5.03832 5.66608 4.99551 5.54025 5.00037C5.41441 5.00523 5.29504 5.0574 5.20599 5.14645C5.11694 5.23549 5.06478 5.35486 5.05992 5.4807C5.05506 5.60654 5.09786 5.72958 5.17977 5.82523L8.82477 9.47523L5.17477 13.1202C5.12243 13.1651 5.07992 13.2202 5.04991 13.2822C5.0199 13.3443 5.00303 13.4118 5.00037 13.4807C4.99771 13.5496 5.00932 13.6182 5.03445 13.6824C5.05959 13.7466 5.09772 13.8048 5.14645 13.8536C5.19517 13.9023 5.25345 13.9404 5.31761 13.9655C5.38177 13.9907 5.45044 14.0023 5.5193 13.9996C5.58816 13.997 5.65572 13.9801 5.71776 13.9501C5.77979 13.9201 5.83495 13.8776 5.87977 13.8252L9.52977 10.1802L13.1748 13.8252C13.2704 13.9071 13.3935 13.9499 13.5193 13.9451C13.6451 13.9402 13.7645 13.8881 13.8536 13.799C13.9426 13.71 13.9948 13.5906 13.9996 13.4648C14.0045 13.3389 13.9617 13.2159 13.8798 13.1202L10.2348 9.47523Z" fill="#F71717"/>
</svg>
