<svg width="48" height="48" viewBox="0 0 48 48" fill="none" xmlns="http://www.w3.org/2000/svg">
<path d="M39.2018 12.3192H8.80098C6.15001 12.3192 4.00098 14.4682 4.00098 17.1192V30.8592C4.00098 33.5102 6.15001 35.6592 8.80098 35.6592H39.2018C41.8527 35.6592 44.0018 33.5102 44.0018 30.8592V17.1192C44.0018 14.4682 41.8527 12.3192 39.2018 12.3192Z" stroke="#F0945B" stroke-width="2.5" stroke-linecap="round" stroke-linejoin="round"/>
<path d="M12.0002 12.3192C12.0002 16.7352 8.42178 21.2952 4.00098 21.2952" stroke="#F0945B" stroke-width="2.5" stroke-linecap="round" stroke-linejoin="round"/>
<path d="M4.00098 26.5392C8.42178 26.5392 12.0002 31.26 12.0002 35.6784" stroke="#F0945B" stroke-width="2.5" stroke-linecap="round" stroke-linejoin="round"/>
<path d="M36 35.6784C36 31.2576 39.5808 26.5392 43.9992 26.5392" stroke="#F0945B" stroke-width="2.5" stroke-linecap="round" stroke-linejoin="round"/>
<path d="M43.9992 21.2952C39.5808 21.2952 36 16.7352 36 12.3192V13.2984" stroke="#F0945B" stroke-width="2.5" stroke-linecap="round" stroke-linejoin="round"/>
<path d="M24.0021 28.8C26.6531 28.8 28.8021 26.651 28.8021 24C28.8021 21.349 26.6531 19.2 24.0021 19.2C21.3512 19.2 19.2021 21.349 19.2021 24C19.2021 26.651 21.3512 28.8 24.0021 28.8Z" stroke="#F0945B" stroke-width="2.5" stroke-linecap="round" stroke-linejoin="round"/>
</svg>
