<svg width="5" height="5" viewBox="0 0 5 5" fill="none" xmlns="http://www.w3.org/2000/svg">
<mask id="path-1-inside-1_1405_51408" fill="white">
<path d="M0.104061 4.89253C0.0373717 4.82287 0 4.72909 0 4.6314C0 4.53372 0.0373717 4.43994 0.104061 4.37028L1.99387 2.42752L0.104061 0.593335C0.0714102 0.561847 0.0453876 0.523822 0.027599 0.481606C0.00981036 0.43939 0.000632951 0.393878 0.000632951 0.347879C0.000632951 0.30188 0.00981036 0.256368 0.027599 0.214152C0.0453876 0.171936 0.0714102 0.133911 0.104061 0.102423C0.172375 0.0366215 0.26252 0 0.356179 0C0.449838 0 0.539983 0.0366215 0.608297 0.102423L2.49891 1.93743L4.3898 0.103522C4.45827 0.0377261 4.54854 0.00112029 4.64232 0.00112029C4.73609 0.00112029 4.82636 0.0377261 4.89483 0.103522C4.92764 0.134905 4.95373 0.172963 4.97142 0.215271C4.98912 0.257579 4.99804 0.303209 4.99761 0.349253C4.99779 0.39526 4.98877 0.440814 4.97109 0.483086C4.95341 0.525359 4.92745 0.563447 4.89483 0.594984L3.00074 2.42835L4.89483 4.36891C4.9281 4.40296 4.95451 4.44341 4.97256 4.48795C4.9906 4.53249 4.99993 4.58024 5 4.62848C5.00007 4.67672 4.9909 4.72451 4.97299 4.7691C4.95508 4.8137 4.9288 4.85424 4.89564 4.8884C4.86248 4.92257 4.82309 4.94969 4.77972 4.96822C4.73635 4.98675 4.68986 4.99633 4.64288 4.99641C4.59591 4.99648 4.54939 4.98706 4.50596 4.96867C4.46254 4.95028 4.42306 4.92329 4.3898 4.88923L2.49891 2.94757L0.608297 4.89253C0.575342 4.9266 0.536145 4.95365 0.492966 4.97209C0.449787 4.99054 0.40348 5.00002 0.356714 5C0.261992 4.99979 0.171185 4.96116 0.104061 4.89253Z"/>
</mask>
<path d="M0.104061 4.89253C0.0373717 4.82287 0 4.72909 0 4.6314C0 4.53372 0.0373717 4.43994 0.104061 4.37028L1.99387 2.42752L0.104061 0.593335C0.0714102 0.561847 0.0453876 0.523822 0.027599 0.481606C0.00981036 0.43939 0.000632951 0.393878 0.000632951 0.347879C0.000632951 0.30188 0.00981036 0.256368 0.027599 0.214152C0.0453876 0.171936 0.0714102 0.133911 0.104061 0.102423C0.172375 0.0366215 0.26252 0 0.356179 0C0.449838 0 0.539983 0.0366215 0.608297 0.102423L2.49891 1.93743L4.3898 0.103522C4.45827 0.0377261 4.54854 0.00112029 4.64232 0.00112029C4.73609 0.00112029 4.82636 0.0377261 4.89483 0.103522C4.92764 0.134905 4.95373 0.172963 4.97142 0.215271C4.98912 0.257579 4.99804 0.303209 4.99761 0.349253C4.99779 0.39526 4.98877 0.440814 4.97109 0.483086C4.95341 0.525359 4.92745 0.563447 4.89483 0.594984L3.00074 2.42835L4.89483 4.36891C4.9281 4.40296 4.95451 4.44341 4.97256 4.48795C4.9906 4.53249 4.99993 4.58024 5 4.62848C5.00007 4.67672 4.9909 4.72451 4.97299 4.7691C4.95508 4.8137 4.9288 4.85424 4.89564 4.8884C4.86248 4.92257 4.82309 4.94969 4.77972 4.96822C4.73635 4.98675 4.68986 4.99633 4.64288 4.99641C4.59591 4.99648 4.54939 4.98706 4.50596 4.96867C4.46254 4.95028 4.42306 4.92329 4.3898 4.88923L2.49891 2.94757L0.608297 4.89253C0.575342 4.9266 0.536145 4.95365 0.492966 4.97209C0.449787 4.99054 0.40348 5.00002 0.356714 5C0.261992 4.99979 0.171185 4.96116 0.104061 4.89253Z" fill="#176CF7"/>
<path d="M0.104061 4.89253L-1.05166 5.99901L-1.04579 6.00515L-1.03985 6.01122L0.104061 4.89253ZM0 4.6314H-1.6H0ZM0.104061 4.37028L-1.04287 3.25461L-1.05166 3.2638L0.104061 4.37028ZM1.99387 2.42752L3.14077 3.54316L4.25765 2.39498L3.10822 1.27938L1.99387 2.42752ZM0.104061 0.593335L1.21841 -0.554813L1.21474 -0.558359L0.104061 0.593335ZM0.000632951 0.347879H-1.59937H0.000632951ZM0.104061 0.102423L-1.00592 -1.04994L-1.00661 -1.04927L0.104061 0.102423ZM0.608297 0.102423L1.72267 -1.04571L1.71828 -1.04994L0.608297 0.102423ZM2.49891 1.93743L1.38455 3.08556L2.4985 4.16675L3.61285 3.08597L2.49891 1.93743ZM4.3898 0.103522L3.28122 -1.05022L3.27586 -1.04502L4.3898 0.103522ZM4.64232 0.00112029V1.60112V0.00112029ZM4.89483 0.103522L3.78627 1.25725L3.78889 1.25976L4.89483 0.103522ZM4.99761 0.349253L3.39768 0.334423L3.39758 0.345039L3.39762 0.355656L4.99761 0.349253ZM4.89483 0.594984L3.78264 -0.555244L3.78205 -0.554668L4.89483 0.594984ZM3.00074 2.42835L1.88795 1.27869L0.733488 2.39614L1.85574 3.54593L3.00074 2.42835ZM4.89483 4.36891L3.74984 5.48649L3.75027 5.48693L4.89483 4.36891ZM4.3898 4.88923L3.24354 6.00551L3.24523 6.00725L4.3898 4.88923ZM2.49891 2.94757L3.64517 1.83129L2.49786 0.653163L1.35163 1.83234L2.49891 2.94757ZM0.608297 4.89253L-0.538992 3.77729L-0.541853 3.78025L0.608297 4.89253ZM0.356714 5L0.353196 6.6L0.35598 6.6L0.356714 5ZM1.25978 3.78604C1.48233 4.01849 1.6 4.32278 1.6 4.6314H-1.6C-1.6 5.13541 -1.40758 5.62725 -1.05166 5.99901L1.25978 3.78604ZM1.6 4.6314C1.6 4.94003 1.48233 5.24432 1.25978 5.47676L-1.05166 3.2638C-1.40758 3.63556 -1.6 4.1274 -1.6 4.6314H1.6ZM1.25095 5.48592L3.14077 3.54316L0.846983 1.31189L-1.04283 3.25465L1.25095 5.48592ZM3.10822 1.27938L1.21841 -0.554807L-1.01029 1.74148L0.879527 3.57566L3.10822 1.27938ZM1.21474 -0.558359C1.33958 -0.437964 1.43659 -0.295033 1.50205 -0.139685L-1.44685 1.1029C-1.34581 1.34268 -1.19676 1.56166 -1.00661 1.74503L1.21474 -0.558359ZM1.50205 -0.139685C1.56747 0.0155829 1.60063 0.181385 1.60063 0.347879H-1.59937C-1.59937 0.606371 -1.54785 0.863197 -1.44685 1.1029L1.50205 -0.139685ZM1.60063 0.347879C1.60063 0.514372 1.56747 0.680175 1.50205 0.835443L-1.44685 -0.407139C-1.54785 -0.167439 -1.59937 0.0893868 -1.59937 0.347879H1.60063ZM1.50205 0.835443C1.43659 0.990791 1.33958 1.13372 1.21474 1.25412L-1.00661 -1.04927C-1.19676 -0.8659 -1.34581 -0.646919 -1.44685 -0.407139L1.50205 0.835443ZM1.21404 1.25479C0.98844 1.47209 0.682337 1.6 0.356179 1.6V-1.6C-0.157296 -1.6 -0.64369 -1.39885 -1.00592 -1.04994L1.21404 1.25479ZM0.356179 1.6C0.0300214 1.6 -0.276082 1.47209 -0.501684 1.25479L1.71828 -1.04994C1.35605 -1.39885 0.869654 -1.6 0.356179 -1.6V1.6ZM-0.506064 1.25055L1.38455 3.08556L3.61327 0.789305L1.72266 -1.04571L-0.506064 1.25055ZM3.61285 3.08597L5.50373 1.25206L3.27586 -1.04502L1.38498 0.788893L3.61285 3.08597ZM5.49836 1.25725C5.27304 1.47375 4.96765 1.60112 4.64232 1.60112V-1.59888C4.12943 -1.59888 3.6435 -1.39829 3.28123 -1.0502L5.49836 1.25725ZM4.64232 1.60112C4.31698 1.60112 4.01159 1.47374 3.78627 1.25725L6.0034 -1.0502C5.64113 -1.39829 5.1552 -1.59888 4.64232 -1.59888V1.60112ZM3.78889 1.25976C3.66089 1.13733 3.56173 0.991395 3.49532 0.832632L6.44752 -0.40209C6.34573 -0.64547 6.1944 -0.86752 6.00078 -1.05271L3.78889 1.25976ZM3.49532 0.832632C3.42896 0.673949 3.3961 0.504418 3.39768 0.334423L6.59754 0.364083C6.59997 0.102001 6.54928 -0.15879 6.44752 -0.40209L3.49532 0.832632ZM3.39762 0.355656C3.39695 0.188451 3.4297 0.0218232 3.49499 -0.134275L6.44718 1.10045C6.54783 0.859805 6.59863 0.602069 6.5976 0.342851L3.39762 0.355656ZM3.49499 -0.134275C3.5603 -0.290448 3.65744 -0.434181 3.78264 -0.555244L6.00703 1.74521C6.19746 1.56107 6.34651 1.34117 6.44718 1.10045L3.49499 -0.134275ZM3.78205 -0.554668L1.88795 1.27869L4.11353 3.578L6.00762 1.74464L3.78205 -0.554668ZM1.85574 3.54593L3.74984 5.48649L6.03983 3.25133L4.14574 1.31077L1.85574 3.54593ZM3.75027 5.48693C3.63681 5.37078 3.54893 5.23511 3.48963 5.08874L6.45548 3.88717C6.36009 3.65172 6.21939 3.43515 6.0394 3.25089L3.75027 5.48693ZM3.48963 5.08874C3.43036 4.94244 3.40024 4.787 3.4 4.63096L6.6 4.62601C6.59961 4.37348 6.55084 4.12255 6.45548 3.88717L3.48963 5.08874ZM3.4 4.63096C3.39976 4.47491 3.4294 4.3194 3.4882 4.17294L6.45778 5.36527C6.55239 5.12961 6.60039 4.87854 6.6 4.62601L3.4 4.63096ZM3.4882 4.17294C3.54703 4.02642 3.63447 3.89051 3.74753 3.77402L6.04375 6.00279C6.22313 5.81797 6.36313 5.60098 6.45778 5.36527L3.4882 4.17294ZM3.74753 3.77402C3.86069 3.65744 3.9974 3.56256 4.15102 3.49692L5.40842 6.43953C5.64877 6.33682 5.86427 6.1877 6.04375 6.00279L3.74753 3.77402ZM4.15102 3.49692C4.30473 3.43123 4.47111 3.39669 4.64028 3.39641L4.64549 6.59641C4.9086 6.59598 5.16797 6.54227 5.40842 6.43953L4.15102 3.49692ZM4.64028 3.39641C4.80944 3.39613 4.97595 3.43014 5.1299 3.49534L3.88202 6.442C4.12283 6.54398 4.38238 6.59684 4.64549 6.59641L4.64028 3.39641ZM5.1299 3.49534C5.28375 3.56049 5.42081 3.65496 5.53436 3.77121L3.24523 6.00725C3.42532 6.19161 3.64132 6.34006 3.88202 6.442L5.1299 3.49534ZM5.53606 3.77295L3.64517 1.83129L1.35265 4.06385L3.24354 6.00551L5.53606 3.77295ZM1.35163 1.83234L-0.538988 3.7773L1.75558 6.00776L3.6462 4.0628L1.35163 1.83234ZM-0.541853 3.78025C-0.428069 3.66259 -0.29039 3.56685 -0.135584 3.50072L1.12152 6.44346C1.36268 6.34044 1.57875 6.19061 1.75845 6.0048L-0.541853 3.78025ZM-0.135584 3.50072C0.0193275 3.43455 0.187025 3.39992 0.357449 3.4L0.35598 6.6C0.619935 6.60012 0.880247 6.54653 1.12152 6.44346L-0.135584 3.50072ZM0.360232 3.4C0.701317 3.40075 1.0195 3.54022 1.24797 3.77384L-1.03985 6.01122C-0.677134 6.38211 -0.177332 6.59883 0.353196 6.6L0.360232 3.4Z" fill="black" mask="url(#path-1-inside-1_1405_51408)"/>
</svg>
