<svg width="24" height="24" viewBox="0 0 24 24" fill="none" xmlns="http://www.w3.org/2000/svg">
<path d="M19 2H7C5.89543 2 5 2.89543 5 4V20C5 21.1046 5.89543 22 7 22H19C20.1046 22 21 21.1046 21 20V4C21 2.89543 20.1046 2 19 2Z" stroke="#979797" stroke-width="1.5" stroke-linecap="round" stroke-linejoin="round"/>
<path d="M3 6.74121H7" stroke="#979797" stroke-width="1.5" stroke-linecap="round" stroke-linejoin="round"/>
<path d="M3 17.001H7" stroke="#979797" stroke-width="1.5" stroke-linecap="round" stroke-linejoin="round"/>
<path d="M9.61328 16.4509L9.96428 15.1739C11.1253 10.9499 16.1013 10.9499 17.2643 15.1739L17.6153 16.4509" stroke="#979797" stroke-width="1.5" stroke-linecap="round" stroke-linejoin="round"/>
<path d="M13.6126 11.9919C14.8398 11.9919 15.8346 10.997 15.8346 9.76985C15.8346 8.54267 14.8398 7.54785 13.6126 7.54785C12.3854 7.54785 11.3906 8.54267 11.3906 9.76985C11.3906 10.997 12.3854 11.9919 13.6126 11.9919Z" stroke="#979797" stroke-width="1.5" stroke-linecap="round" stroke-linejoin="round"/>
</svg>
