<svg width="14" height="18" fill="none" xmlns="http://www.w3.org/2000/svg"><path d="M5.915 18L4.282 16.39l-2.106.908L3.68 9.31l3.738.704L5.915 18z" fill="url(#paint0_linear)"/><path d="M7.598 16.991l1.443-1.38 1.88.795L9.538 9.52l-3.323.585 1.383 6.886z" fill="url(#paint1_linear)"/><path d="M3.387 3.414a4.853 4.853 0 016.827 0 4.765 4.765 0 010 6.774 4.853 4.853 0 01-6.827 0 4.765 4.765 0 010-6.774z" fill="url(#paint2_linear)"/><path d="M6.836 10.626c2.115 0 3.829-1.691 3.829-3.777 0-2.086-1.714-3.777-3.829-3.777-2.114 0-3.828 1.691-3.828 3.777 0 2.086 1.714 3.777 3.828 3.777z" fill="url(#paint3_linear)"/><path d="M3.004 6.166A3.845 3.845 0 017.44 3.048a3.81 3.81 0 013.155 4.386 3.845 3.845 0 01-4.437 3.118 3.808 3.808 0 01-3.155-4.386z" fill="url(#paint4_linear)"/><path d="M13.003 6.825l-.465-.595a2.283 2.283 0 01-.463-1.717l.103-.746-.703-.284a2.302 2.302 0 01-1.267-1.259l-.287-.697-.753.103a2.328 2.328 0 01-1.73-.46l-.6-.461-.6.461a2.328 2.328 0 01-1.73.46l-.753-.103-.286.697A2.304 2.304 0 012.2 3.484l-.703.283.103.746a2.281 2.281 0 01-.464 1.717l-.465.595.465.595A2.281 2.281 0 011.6 9.136l-.103.746.703.285a2.305 2.305 0 011.268 1.259l.286.697.753-.102a2.326 2.326 0 011.73.46l.6.461.6-.46a2.33 2.33 0 011.73-.461l.753.102.287-.697a2.3 2.3 0 011.267-1.259l.703-.285-.103-.746a2.282 2.282 0 01.463-1.716l.465-.595zm-2.766 3.248l-.32-.314c.061-.063.12-.128.178-.195l.346.288c-.066.076-.134.15-.204.221zm-2.596.91c.087-.016.173-.035.258-.057l.118.433a4.64 4.64 0 01-.298.065l-.078-.44zm.366-.085c.085-.024.17-.051.253-.079l.157.421a4.777 4.777 0 01-.29.092l-.12-.434zm.357-.118a4.38 4.38 0 00.245-.101l.19.405a4.21 4.21 0 01-.28.117l-.155-.42zm-1.527.084a4.04 4.04 0 114.074-4.04 4.054 4.054 0 01-4.075 4.041h.001zm-.055.642a4.3 4.3 0 01-.304-.012l.039-.446c.087.006.176.01.265.01v.448zm.376-.458l.04.446c-.1.008-.203.011-.305.012v-.447c.088-.001.177-.005.264-.011h.001zm-1.203.377a4.76 4.76 0 01-.297-.065l.117-.433c.086.022.172.041.259.058l-.079.44zm-.54-.607c.083.029.167.056.252.079l-.117.432a4.765 4.765 0 01-.29-.092l.155-.42zm-.26.383a4.902 4.902 0 01-.28-.117l.191-.405a4 4 0 00.245.101l-.155.421zm.894-8.538a4.635 4.635 0 00-.252.054l-.117-.433c.096-.024.193-.045.29-.063l.079.442zm-.36.078a2.878 2.878 0 00-.246.079l-.158-.42c.094-.033.188-.062.284-.09l.12.431zm-.35.114c-.08.03-.158.062-.237.096l-.19-.406c.09-.04.181-.077.275-.111l.151.42zm-.34.143a3.935 3.935 0 00-.23.117l-.225-.388c.086-.048.174-.093.263-.135L5 2.998zm-.326.172a4.401 4.401 0 00-.218.136l-.26-.366c.079-.055.166-.107.253-.158l.225.388zm-.31.2c-.07.049-.139.101-.206.157l-.29-.344a5.15 5.15 0 01.236-.178l.26.364zm-.292.224c-.066.055-.13.113-.192.172l-.318-.315c.07-.068.144-.134.22-.198l.29.341zm-.27.25c-.06.06-.12.123-.177.188l-.346-.288c.065-.075.133-.147.203-.217l.32.317zm-.249.271a3.416 3.416 0 00-.157.202l-.37-.257c.058-.08.119-.158.182-.236l.345.291zm-.224.292c-.05.07-.097.142-.142.216l-.393-.225c.052-.084.107-.167.164-.248l.371.257zm-.198.31c-.043.075-.084.151-.122.228l-.41-.19c.045-.088.091-.176.14-.261l.392.224zm-.17.327c-.037.079-.07.158-.102.236l-.425-.153c.036-.093.079-.184.118-.273l.409.19zm-.14.34c-.03.079-.057.163-.08.246l-.437-.116c.029-.096.06-.19.093-.282l.423.152zm-.111.352a4.342 4.342 0 00-.06.252l-.444-.08c.02-.097.042-.193.068-.289l.436.117zm-.079.36c-.015.085-.027.17-.037.257l-.45-.04c.01-.099.025-.197.042-.295l.445.078zm-.047.366a4.205 4.205 0 00-.014.259h-.452c0-.1.008-.2.017-.298l.449.04zm-.016.37c0 .086.003.173.01.259l-.45.04a4.683 4.683 0 01-.01-.3h.45zm.017.368c.008.087.018.173.031.258l-.445.079a4.55 4.55 0 01-.036-.297l.45-.04zm.05.367c.015.086.033.17.054.255l-.437.115a5.235 5.235 0 01-.063-.292l.446-.078zm.079.36c.022.085.048.169.078.25l-.425.154a4.336 4.336 0 01-.087-.287l.434-.116zm.113.354c.03.079.064.162.098.242l-.41.19a4.466 4.466 0 01-.113-.278l.425-.154zm.145.342c.038.08.078.158.12.236l-.394.225a4.59 4.59 0 01-.138-.268l.412-.193zm.175.33c.044.075.09.149.14.221l-.37.258a3.545 3.545 0 01-.158-.255l.388-.225zm.202.314c.052.071.105.14.157.209l-.346.288a5.73 5.73 0 01-.183-.237l.372-.26zm.23.293c.057.067.115.132.177.195l-.32.314a4.812 4.812 0 01-.203-.223l.346-.286zm.255.274c.063.06.127.12.194.178l-.29.343a5.152 5.152 0 01-.223-.205l.32-.316zm.279.25c.068.055.137.108.208.157l-.259.367c-.079-.06-.162-.12-.24-.185l.29-.34zm.299.225c.073.05.147.097.222.142l-.225.388a4.552 4.552 0 01-.256-.164l.259-.366zm2.48-8.167c.1 0 .199.004.297.012l-.04.446a4.209 4.209 0 00-.257-.01v-.448zm-.368.458l-.04-.446c.099-.007.198-.011.297-.012v.447c-.085.004-.17.007-.256.013V2.6zm1.18-.38c.098.019.195.039.29.063l-.117.433a4.32 4.32 0 00-.251-.054l.079-.442zm3.32 3.77a3.639 3.639 0 00-.058-.251l.436-.116c.025.096.048.192.067.29l-.444.078zm.466.032c.017.097.03.195.041.295l-.45.039a4.018 4.018 0 00-.036-.257l.445-.077zm-.551-.39a6.457 6.457 0 00-.079-.245l.425-.153c.034.093.064.187.092.282l-.438.117zm-.12-.348a5.016 5.016 0 00-.102-.236l.41-.19c.042.09.081.181.117.274l-.425.152zm-.15-.336a4.057 4.057 0 00-.122-.228l.394-.224c.052.085.099.173.14.262l-.412.19zm-.178-.323a4.874 4.874 0 00-.142-.216l.37-.256c.057.079.112.163.164.248l-.392.224zm-.207-.305a10.03 10.03 0 00-.157-.203l.346-.288c.064.08.125.158.184.236l-.373.255zm-.231-.287a4.275 4.275 0 00-.177-.188l.32-.315c.07.07.137.142.202.217l-.345.286zm-.256-.265a3.989 3.989 0 00-.192-.171l.29-.344c.08.064.15.13.222.199l-.32.316zm-.278-.242a6.142 6.142 0 00-.206-.158l.26-.366c.079.057.157.116.236.178l-.29.346zm-.297-.218a3.55 3.55 0 00-.219-.136l.226-.388c.086.052.17.105.253.157l-.26.367zm-.315-.191c-.078-.041-.151-.08-.23-.118l.192-.406c.09.043.178.088.264.136l-.226.388zm-.33-.164a4.552 4.552 0 00-.236-.097l.157-.42c.093.034.185.071.276.111l-.197.406zm-.343-.135a6.405 6.405 0 00-.246-.078l.117-.433c.095.026.19.056.283.088l-.154.423zm1.03 7.49l.26.366a4.771 4.771 0 01-.255.164l-.226-.388c.074-.043.147-.09.22-.14l.002-.003zm.09-.065c.072-.052.142-.105.21-.157l.29.343a4.533 4.533 0 01-.24.185l-.26-.37zm.294-.236a4.61 4.61 0 00.194-.178l.32.315c-.072.07-.147.139-.223.205l-.29-.342zm.52-.536c.055-.068.109-.138.157-.209l.37.258a3.69 3.69 0 01-.183.236l-.344-.285zm.223-.3c.048-.072.095-.146.14-.222l.393.224c-.05.087-.104.172-.158.255l-.375-.257zm.194-.315c.042-.076.082-.154.12-.236l.41.19c-.044.09-.09.18-.138.267l-.392-.22zm.166-.333c.034-.078.068-.157.098-.241l.425.153a4.272 4.272 0 01-.113.278l-.41-.19zm.135-.345a6.09 6.09 0 00.08-.25l.435.116a5.077 5.077 0 01-.088.287l-.427-.153zm.104-.356c.02-.085.038-.17.054-.255l.445.078a4.11 4.11 0 01-.063.293l-.436-.116zm.071-.364c.014-.085.023-.171.032-.258l.45.04c-.008.1-.02.198-.036.296l-.446-.078zm.04-.368c.006-.086.008-.172.008-.26h.452c0 .1-.003.2-.01.299l-.45-.04zm.007-.37c0-.086-.007-.173-.014-.259l.45-.04c.008.1.013.198.016.3h-.452zm-3.51-4.522l-.08.441a4.432 4.432 0 00-.255-.033l.04-.446c.097.013.196.027.296.043l-.002-.005zM6.374 2.16l.04.446c-.086.009-.171.02-.255.033l-.079-.441c.095-.009.194-.023.293-.033l.001-.005zm-1.869 8.733l.225-.388c.08.044.158.085.237.123l-.192.406a3.17 3.17 0 01-.272-.138l.002-.003zm1.56.551l.078-.441c.086.014.175.026.263.034l-.04.446a5.331 5.331 0 01-.303-.038h.001zm1.243.04l-.04-.447c.09-.008.177-.02.264-.034l.078.441c-.101.017-.202.03-.304.04h.002zm1.593-.447l-.192-.407c.08-.038.159-.079.236-.122l.226.388c-.09.05-.18.097-.272.141h.002z" fill="url(#paint5_linear)"/><path d="M12.966 6.798l-.465-.595a2.282 2.282 0 01-.464-1.717l.103-.746-.704-.285a2.303 2.303 0 01-1.266-1.258L9.882 1.5l-.752.102a2.33 2.33 0 01-1.73-.46L6.8.68l-.6.462a2.325 2.325 0 01-1.732.46L3.715 1.5l-.286.697a2.305 2.305 0 01-1.268 1.258l-.703.285.103.746a2.276 2.276 0 01-.463 1.717l-.465.595.465.595a2.276 2.276 0 01.463 1.716l-.103.746.703.285a2.307 2.307 0 011.268 1.26l.286.696.753-.102a2.324 2.324 0 011.732.46l.6.461.6-.46a2.328 2.328 0 011.73-.461l.752.102.288-.697a2.3 2.3 0 011.266-1.259l.704-.285-.103-.746a2.282 2.282 0 01.464-1.716l.465-.595zM10.2 10.047l-.32-.315c.061-.063.12-.128.177-.195l.345.288a4.115 4.115 0 01-.202.223v-.001zm-2.597.91c.088-.016.174-.035.26-.057l.116.433a4.76 4.76 0 01-.297.065l-.079-.441zm.367-.086c.085-.024.17-.05.252-.079l.158.421a4.802 4.802 0 01-.291.092l-.12-.434zm.357-.118a4.66 4.66 0 00.246-.101l.19.405c-.092.043-.186.081-.281.117l-.155-.42zm-1.527.084a4.04 4.04 0 114.073-4.04A4.055 4.055 0 016.8 10.84v-.002zm-.056.642a4.33 4.33 0 01-.305-.012l.04-.446c.087.006.176.01.265.01v.448zm.377-.458l.039.446a4.32 4.32 0 01-.304.012v-.447c.09 0 .178-.004.265-.01v-.001zm-1.203.377c-.1-.019-.2-.04-.298-.065l.117-.433c.085.022.171.041.259.057l-.078.441zm-.54-.606c.083.029.167.055.252.078l-.117.433a4.899 4.899 0 01-.29-.092l.154-.42zm-.26.383a4.264 4.264 0 01-.28-.117l.19-.406c.08.037.162.07.245.102l-.154.42zm.893-8.539a4.632 4.632 0 00-.251.055l-.117-.433c.096-.024.192-.045.29-.063l.078.441zm-.36.08a2.697 2.697 0 00-.245.078l-.157-.421c.094-.032.188-.061.284-.087l.119.43zm-.35.112c-.08.03-.16.063-.236.097l-.192-.406c.09-.04.183-.077.276-.112l.152.421zm-.34.144a4.304 4.304 0 00-.23.117L4.505 2.7c.087-.048.175-.093.264-.135l.192.406zm-.326.172a4.625 4.625 0 00-.218.136l-.26-.367c.082-.055.167-.107.253-.157l.225.388zm-.31.199c-.07.05-.138.101-.206.157l-.29-.343c.078-.062.157-.122.236-.178l.26.364zm-.291.225c-.066.055-.13.112-.193.171l-.32-.314c.072-.069.147-.135.222-.198l.29.341zm-.271.25c-.061.06-.12.123-.177.187l-.346-.288a4.68 4.68 0 01.203-.216l.32.316zm-.249.27a9.733 9.733 0 00-.157.203l-.37-.256c.059-.08.12-.159.183-.236l.344.29zm-.224.293c-.049.07-.097.142-.142.215l-.394-.224c.053-.084.107-.167.164-.249l.372.258zm-.198.31c-.044.075-.084.15-.122.228l-.41-.19c.044-.089.09-.176.14-.262l.392.225zm-.17.327c-.036.079-.07.157-.102.236l-.425-.153c.036-.093.075-.184.117-.273l.41.19zm-.142.34c-.03.08-.056.164-.079.246l-.436-.115c.027-.096.059-.19.092-.283l.423.153zm-.11.352a5.326 5.326 0 00-.06.252l-.444-.078c.02-.098.042-.195.068-.29l.436.116zm-.079.36a3.95 3.95 0 00-.036.257l-.45-.04c.011-.098.025-.197.043-.294l.443.078zm-.047.367a4.008 4.008 0 00-.015.259h-.452c0-.1.008-.2.017-.299l.45.04zm-.016.369c0 .087 0 .174.009.26l-.45.039a4.682 4.682 0 01-.01-.299h.451zm.017.369c.008.087.018.173.031.258l-.445.078a4.275 4.275 0 01-.036-.296l.45-.04zm.049.366c.015.086.033.171.054.255l-.436.116a4.53 4.53 0 01-.063-.293l.445-.078zm.078.361c.023.085.05.168.079.25l-.424.153a4.467 4.467 0 01-.088-.286l.433-.117zm.115.354c.03.082.063.162.098.241l-.41.19a4.404 4.404 0 01-.113-.278l.425-.153zm.144.342c.038.079.079.157.12.236l-.394.224a4.78 4.78 0 01-.138-.267l.412-.193zm.174.329c.045.079.091.15.14.222l-.37.257a3.176 3.176 0 01-.158-.255l.388-.224zm.203.315l.157.208-.346.288a5.464 5.464 0 01-.182-.236l.37-.26zm.23.293c.056.067.116.131.177.194l-.32.315a4.854 4.854 0 01-.204-.223l.347-.286zm.255.273c.063.061.127.121.194.179l-.29.343a3.937 3.937 0 01-.223-.205l.32-.317zm.278.25c.068.056.138.11.209.158l-.26.366a4.637 4.637 0 01-.24-.185l.291-.339zm.3.225c.072.05.147.098.223.143l-.227.388a4.5 4.5 0 01-.256-.164l.26-.367zm2.48-8.167c.1 0 .2.005.298.013l-.04.446a4.603 4.603 0 00-.257-.01v-.449zm-.368.459l-.04-.446c.099-.007.198-.011.297-.013v.448c-.082.003-.167.006-.253.013l-.004-.002zm1.18-.38c.097.018.195.04.29.063l-.116.433a4.39 4.39 0 00-.252-.055l.078-.44zm3.321 3.77a3.851 3.851 0 00-.06-.251l.437-.116c.026.095.048.192.068.29l-.445.077zm.464.031c.018.097.032.195.042.295l-.45.04a3.95 3.95 0 00-.036-.257l.444-.078zm-.55-.389a6.004 6.004 0 00-.079-.245l.426-.154c.033.093.064.188.091.283l-.439.116zm-.12-.348a5.112 5.112 0 00-.102-.236l.41-.19c.041.09.078.181.117.273l-.425.153zm-.15-.337a3.696 3.696 0 00-.122-.227l.393-.225c.05.086.097.174.14.263l-.411.19zm-.179-.323a3.938 3.938 0 00-.143-.215l.371-.257c.057.078.111.163.163.248l-.391.224zm-.206-.305a5.162 5.162 0 00-.157-.202l.346-.288c.063.076.124.154.183.236l-.372.254zm-.232-.286a3.967 3.967 0 00-.176-.188l.32-.315c.07.07.137.142.203.216l-.347.287zm-.255-.265a4.397 4.397 0 00-.192-.172l.29-.343a5.3 5.3 0 01.221.198l-.32.317zM9.478 3.5a5.44 5.44 0 00-.206-.157l.26-.367c.078.057.157.117.235.179l-.289.345zm-.297-.218a4.432 4.432 0 00-.22-.136l.227-.388c.085.053.169.105.251.158l-.258.366zm-.315-.19c-.079-.042-.151-.08-.23-.118l.191-.406c.09.043.178.088.265.135l-.226.388zm-.33-.164A4.538 4.538 0 008.3 2.83l.158-.421c.093.034.184.071.274.112l-.196.406zm-.344-.135a6.046 6.046 0 00-.246-.079l.118-.432c.096.026.19.055.284.087l-.156.424zm1.032 7.489l.26.366a4.763 4.763 0 01-.256.164l-.226-.388c.076-.041.15-.085.223-.139l-.001-.003zm.09-.064l.21-.157.29.343a5.9 5.9 0 01-.237.185l-.262-.371zm.294-.236c.066-.057.13-.117.194-.179l.319.315c-.072.07-.146.14-.223.205l-.29-.341zm.519-.537a3.29 3.29 0 00.158-.208l.37.257c-.059.079-.12.162-.183.236l-.345-.285zm.222-.3c.05-.072.096-.146.14-.221l.393.224a17.21 17.21 0 01-.157.255l-.376-.257zm.195-.314c.042-.076.082-.155.12-.236l.41.189c-.044.09-.09.18-.139.267l-.39-.22zm.165-.333c.035-.079.068-.157.099-.241l.425.153a4.724 4.724 0 01-.114.278l-.41-.19zm.136-.345c.027-.082.054-.165.079-.25l.436.116a4.855 4.855 0 01-.088.286l-.427-.152zm.104-.357a3.4 3.4 0 00.053-.255l.445.079c-.017.1-.038.197-.063.293l-.435-.117zm.072-.363c.013-.085.023-.172.03-.258l.45.039c-.009.1-.02.2-.035.297l-.445-.078zm.04-.368c.005-.086.008-.173.008-.26h.451c0 .1-.002.2-.009.298l-.45-.038zm.007-.37c0-.087-.005-.174-.014-.26l.45-.038c.008.098.014.198.017.298h-.453zm-3.51-4.523l-.08.442a5.092 5.092 0 00-.255-.033l.04-.447c.1.015.196.028.295.044v-.006zm-1.222-.038l.04.447c-.086.008-.171.02-.255.033l-.079-.442c.098-.01.196-.023.295-.032v-.006zm-1.87 8.734l.227-.388c.076.043.155.084.236.123l-.191.406a3.411 3.411 0 01-.27-.138l-.001-.003zm1.56.55l.08-.44c.086.014.174.025.263.034l-.04.446a13.98 13.98 0 01-.302-.04zm1.244.04l-.039-.445c.089-.01.176-.02.263-.035l.079.441-.302.04zm1.592-.446l-.19-.406c.079-.038.158-.08.236-.123l.226.388c-.089.05-.179.097-.27.14h-.002z" fill="url(#paint6_linear)"/><path d="M1.202 6.55a2.373 2.373 0 00.476-1.777l-.106-.772.721-.294a2.376 2.376 0 001.301-1.302l.295-.721.772.105a2.373 2.373 0 001.777-.476l.617-.477.615.477a2.375 2.375 0 001.777.476l.747-.102-.063-.157-.772.105a2.372 2.372 0 01-1.777-.476L6.967.682l-.617.477a2.372 2.372 0 01-1.776.476L3.8 1.53l-.294.721a2.374 2.374 0 01-1.3 1.3l-.722.295.105.772a2.373 2.373 0 01-.472 1.777l-.477.616.103.133.458-.594z" fill="url(#paint7_linear)"/><path d="M9.4 6.542l-.562-.745a.48.48 0 00-.375-.183h-.497v-.236a.681.681 0 00-.68-.68H4.869a.681.681 0 00-.68.68V7.73a.681.681 0 00.68.68h.045a.74.74 0 001.41-.012h.934a.74.74 0 001.417-.01h.619a.237.237 0 00.236-.236v-1.24a.636.636 0 00-.129-.371zM5.97 8.283a.37.37 0 01-.722-.058v-.042a.369.369 0 01.738 0 .393.393 0 01-.015.1h-.001zm1.993.269a.37.37 0 01-.366-.329v-.038a.368.368 0 11.369.37l-.003-.003zm1.193-.532h-.472a.74.74 0 00-1.445.01h-.902a.74.74 0 00-1.45.013h-.021a.31.31 0 01-.31-.31V5.38a.31.31 0 01.31-.309h2.42a.31.31 0 01.31.31V7.09a.185.185 0 10.371 0V5.988h.496a.104.104 0 01.079.038l.56.742c.033.046.05.101.05.158l.004 1.094z" fill="#2E1B12"/><defs><linearGradient id="paint0_linear" x1="6.139" y1="10.953" x2="1.225" y2="14.554" gradientUnits="userSpaceOnUse"><stop stop-color="#FFE67E"/><stop offset=".5" stop-color="#E5AF52"/><stop offset="1" stop-color="#84591C"/></linearGradient><linearGradient id="paint1_linear" x1="9.142" y1="16.438" x2="7.174" y2="12.102" gradientUnits="userSpaceOnUse"><stop stop-color="#FFE67E"/><stop offset=".5" stop-color="#E5AF52"/><stop offset="1" stop-color="#84591C"/></linearGradient><linearGradient id="paint2_linear" x1="2.448" y1="6.801" x2="10.391" y2="6.801" gradientUnits="userSpaceOnUse"><stop stop-color="#84591C"/><stop offset=".5" stop-color="#E5AF52"/><stop offset="1" stop-color="#FFE67E"/></linearGradient><linearGradient id="paint3_linear" x1="4.386" y1="4.432" x2="8.797" y2="8.903" gradientUnits="userSpaceOnUse"><stop stop-color="#37190C"/><stop offset="1" stop-color="#1F120C"/></linearGradient><linearGradient id="paint4_linear" x1="3.966" y1="8.792" x2="9.098" y2="5.1" gradientUnits="userSpaceOnUse"><stop stop-color="#FFE67E"/><stop offset=".5" stop-color="#E5AF52"/><stop offset="1" stop-color="#84591C"/></linearGradient><linearGradient id="paint5_linear" x1=".672" y1="6.826" x2="13.003" y2="6.826" gradientUnits="userSpaceOnUse"><stop stop-color="#37190C"/><stop offset="1" stop-color="#1F120C"/></linearGradient><linearGradient id="paint6_linear" x1=".633" y1="6.797" x2="12.966" y2="6.797" gradientUnits="userSpaceOnUse"><stop stop-color="#96661D"/><stop offset=".228" stop-color="#CE9737"/><stop offset=".414" stop-color="#FFE67E"/><stop offset=".586" stop-color="#E5AF52"/><stop offset=".772" stop-color="#FFCD65"/><stop offset="1" stop-color="#A97B2C"/></linearGradient><linearGradient id="paint7_linear" x1=".641" y1="3.913" x2="10.194" y2="3.913" gradientUnits="userSpaceOnUse"><stop stop-color="#FFCD65"/><stop offset=".5" stop-color="#FFE67E"/><stop offset="1" stop-color="#E5AF52"/></linearGradient></defs></svg>