<svg width="24" height="24" viewBox="0 0 24 24" fill="none" xmlns="http://www.w3.org/2000/svg">
<path d="M13.125 8.0625C13.125 9.40516 12.5916 10.6928 11.6422 11.6422C10.6928 12.5916 9.40516 13.125 8.0625 13.125C6.71984 13.125 5.43217 12.5916 4.48277 11.6422C3.53337 10.6928 3 9.40516 3 8.0625C3 6.71984 3.53337 5.43217 4.48277 4.48277C5.43217 3.53337 6.71984 3 8.0625 3C9.40516 3 10.6928 3.53337 11.6422 4.48277C12.5916 5.43217 13.125 6.71984 13.125 8.0625V8.0625ZM8.625 5.8125C8.625 5.66332 8.56574 5.52024 8.46025 5.41475C8.35476 5.30926 8.21168 5.25 8.0625 5.25C7.91332 5.25 7.77024 5.30926 7.66475 5.41475C7.55926 5.52024 7.5 5.66332 7.5 5.8125V7.5H5.8125C5.66332 7.5 5.52024 7.55926 5.41475 7.66475C5.30926 7.77024 5.25 7.91332 5.25 8.0625C5.25 8.21168 5.30926 8.35476 5.41475 8.46025C5.52024 8.56574 5.66332 8.625 5.8125 8.625H7.5V10.3125C7.5 10.4617 7.55926 10.6048 7.66475 10.7102C7.77024 10.8157 7.91332 10.875 8.0625 10.875C8.21168 10.875 8.35476 10.8157 8.46025 10.7102C8.56574 10.6048 8.625 10.4617 8.625 10.3125V8.625H10.3125C10.4617 8.625 10.6048 8.56574 10.7102 8.46025C10.8157 8.35476 10.875 8.21168 10.875 8.0625C10.875 7.91332 10.8157 7.77024 10.7102 7.66475C10.6048 7.55926 10.4617 7.5 10.3125 7.5H8.625V5.8125ZM17.625 6.375H14.0171C13.9071 5.98639 13.759 5.60957 13.575 5.25H17.625C18.5201 5.25 19.3786 5.60558 20.0115 6.23851C20.6444 6.87145 21 7.72989 21 8.625V17.625C21 18.5201 20.6444 19.3786 20.0115 20.0115C19.3786 20.6444 18.5201 21 17.625 21H8.625C7.72989 21 6.87145 20.6444 6.23851 20.0115C5.60558 19.3786 5.25 18.5201 5.25 17.625V13.575C5.60663 13.7572 5.98237 13.9058 6.375 14.0171V17.625C6.375 18.0446 6.48975 18.4373 6.69 18.7725L11.9426 13.611C12.2582 13.3011 12.6827 13.1275 13.125 13.1275C13.5673 13.1275 13.9918 13.3011 14.3074 13.611L19.5611 18.7725C19.7673 18.4253 19.8758 18.0288 19.875 17.625V8.625C19.875 8.02826 19.6379 7.45597 19.216 7.03401C18.794 6.61205 18.2217 6.375 17.625 6.375V6.375ZM17.625 10.3125C17.625 10.5341 17.5814 10.7535 17.4965 10.9583C17.4117 11.163 17.2874 11.349 17.1307 11.5057C16.974 11.6624 16.788 11.7867 16.5833 11.8715C16.3785 11.9564 16.1591 12 15.9375 12C15.7159 12 15.4965 11.9564 15.2917 11.8715C15.087 11.7867 14.901 11.6624 14.7443 11.5057C14.5876 11.349 14.4633 11.163 14.3785 10.9583C14.2936 10.7535 14.25 10.5341 14.25 10.3125C14.25 9.86495 14.4278 9.43572 14.7443 9.11926C15.0607 8.80279 15.4899 8.625 15.9375 8.625C16.3851 8.625 16.8143 8.80279 17.1307 9.11926C17.4472 9.43572 17.625 9.86495 17.625 10.3125V10.3125ZM16.5 10.3125C16.5 10.1633 16.4407 10.0202 16.3352 9.91475C16.2298 9.80926 16.0867 9.75 15.9375 9.75C15.7883 9.75 15.6452 9.80926 15.5398 9.91475C15.4343 10.0202 15.375 10.1633 15.375 10.3125C15.375 10.4617 15.4343 10.6048 15.5398 10.7102C15.6452 10.8157 15.7883 10.875 15.9375 10.875C16.0867 10.875 16.2298 10.8157 16.3352 10.7102C16.4407 10.6048 16.5 10.4617 16.5 10.3125ZM7.4865 19.5667C7.83162 19.7694 8.22477 19.8759 8.625 19.875H17.625C18.0413 19.875 18.4294 19.7625 18.7635 19.5667L13.5188 14.4142C13.4136 14.3112 13.2722 14.2535 13.125 14.2535C12.9778 14.2535 12.8364 14.3112 12.7312 14.4142L7.4865 19.5667V19.5667Z" fill="black" stroke="black" stroke-width="0.3"/>
</svg>
