<svg width="11" height="10" viewBox="0 0 11 10" fill="none" xmlns="http://www.w3.org/2000/svg">
<g clip-path="url(#clip0_43_8555)">
<path d="M9.20372 2.50391H9.00697C9.13447 2.27384 9.20208 2.01613 9.20372 1.7539C9.20391 1.40085 9.08739 1.05736 8.87186 0.775572C8.64419 0.479521 8.33401 0.255379 7.97928 0.130572C7.61253 -0.000848182 7.21666 -0.0322278 6.83337 0.0397383C6.45733 0.107211 6.10818 0.277902 5.82594 0.532238C5.54425 0.277134 5.19538 0.105572 4.81937 0.0372383C4.43607 -0.0347278 4.0402 -0.0033482 3.67346 0.128072C3.31872 0.252879 3.00854 0.477021 2.78088 0.773072C2.56451 1.05544 2.44767 1.3999 2.44817 1.7539C2.44981 2.01613 2.51741 2.27384 2.64492 2.50391H2.44817C2.00901 2.50066 1.584 2.65698 1.25412 2.94307C1.10052 3.07548 0.977024 3.23844 0.891741 3.42127C0.806459 3.60409 0.761317 3.80265 0.759277 4.00391V5.00391C0.760488 5.07124 0.776168 5.13756 0.805283 5.19847C0.834397 5.25937 0.876281 5.31349 0.928166 5.35724C1.03801 5.45264 1.17958 5.50484 1.3259 5.50391H1.88914V8.50391C1.8913 8.70502 1.9365 8.90342 2.02178 9.08609C2.10706 9.26876 2.23049 9.43159 2.38399 9.56391C2.71391 9.84993 3.13889 10.0062 3.57803 10.0031H8.08145C8.52059 10.0062 8.94558 9.84993 9.2755 9.56391C9.429 9.43159 9.55243 9.26876 9.63771 9.08609C9.72299 8.90342 9.76819 8.70502 9.77034 8.50391V5.50391H10.3336C10.4799 5.50484 10.6215 5.45264 10.7313 5.35724C10.7818 5.31281 10.8223 5.25838 10.8501 5.19751C10.8779 5.13663 10.8924 5.07067 10.8926 5.00391V4.00391C10.8905 3.80279 10.8453 3.60439 10.76 3.42172C10.6747 3.23905 10.5513 3.07622 10.3978 2.94391C10.068 2.65751 9.64299 2.50089 9.20372 2.50391ZM5.2627 9.00391H3.57381C3.42749 9.00484 3.28592 8.95264 3.17608 8.85724C3.12419 8.81349 3.08231 8.75937 3.05319 8.69847C3.02408 8.63756 3.0084 8.57124 3.00719 8.50391V5.50391H5.2627V9.00391ZM5.2627 4.50391H1.88492V4.00391C1.88613 3.93657 1.90181 3.87026 1.93093 3.80935C1.96004 3.74844 2.00193 3.69432 2.05381 3.65057C2.16278 3.55593 2.303 3.50378 2.44817 3.5039H5.2627V4.50391ZM5.2627 2.50391H4.41826C4.25302 2.5044 4.09075 2.46062 3.94874 2.37724C3.81377 2.29922 3.70554 2.18313 3.63799 2.04391C3.57419 1.90859 3.55728 1.75631 3.58986 1.61057C3.62439 1.46179 3.70531 1.32744 3.82123 1.22641C3.94326 1.11977 4.09297 1.04878 4.25359 1.0214C4.41721 0.992207 4.58577 1.00688 4.74168 1.06391C4.89236 1.11788 5.02402 1.21366 5.12083 1.33974C5.21269 1.4598 5.26275 1.60596 5.26354 1.75641L5.2627 2.50391ZM6.38834 1.7539C6.38914 1.60346 6.43919 1.4573 6.53106 1.33724C6.62787 1.21116 6.75953 1.11538 6.91021 1.06141C7.06612 1.00438 7.23468 0.989707 7.3983 1.0189C7.55892 1.04628 7.70863 1.11727 7.83065 1.22391C7.94658 1.32494 8.0275 1.45929 8.06203 1.60807C8.09461 1.75381 8.0777 1.90609 8.0139 2.04141C7.94635 2.18063 7.83812 2.29672 7.70314 2.37474C7.5614 2.45899 7.39911 2.50364 7.23363 2.50391H6.38919L6.38834 1.7539ZM8.64048 8.50391C8.63927 8.57124 8.62359 8.63756 8.59447 8.69847C8.56536 8.75937 8.52347 8.81349 8.47159 8.85724C8.36174 8.95264 8.22018 9.00484 8.07385 9.00391H6.38497V5.50391H8.6371L8.64048 8.50391ZM9.76612 4.50391H6.38834V3.5039H9.20372C9.35005 3.50297 9.49161 3.55517 9.60145 3.65057C9.65334 3.69432 9.69522 3.74844 9.72434 3.80935C9.75345 3.87026 9.76913 3.93657 9.77034 4.00391L9.76612 4.50391Z" fill="#FF6600"/>
</g>
<defs>
<clipPath id="clip0_43_8555">
<rect width="10.1333" height="10" fill="white" transform="translate(0.759277)"/>
</clipPath>
</defs>
</svg>
