<svg width="26" height="32" viewBox="0 0 26 32" fill="none" xmlns="http://www.w3.org/2000/svg">
<path d="M18.3152 20.0063L20.7052 17.6163C20.8957 17.4301 21.0471 17.2076 21.1504 16.962C21.2537 16.7165 21.307 16.4527 21.307 16.1863C21.307 15.9199 21.2537 15.6562 21.1504 15.4106C21.0471 15.165 20.8957 14.9426 20.7052 14.7563L19.3452 13.3963C19.1595 13.2104 18.9389 13.0628 18.6961 12.9622C18.4533 12.8615 18.193 12.8097 17.9302 12.8097C17.6674 12.8097 17.4071 12.8615 17.1643 12.9622C16.9215 13.0628 16.701 13.2104 16.5152 13.3963L15.6152 14.2863C13.2981 12.8978 11.3579 10.961 9.96522 8.64632L10.8652 7.75632C11.0512 7.57057 11.1987 7.34999 11.2993 7.1072C11.4 6.8644 11.4518 6.60415 11.4518 6.34132C11.4518 6.07849 11.4 5.81823 11.2993 5.57544C11.1987 5.33264 11.0512 5.11206 10.8652 4.92632L9.53522 3.58632C9.34947 3.40036 9.12889 3.25285 8.8861 3.1522C8.6433 3.05155 8.38305 2.99974 8.12022 2.99974C7.85739 2.99974 7.59713 3.05155 7.35434 3.1522C7.11154 3.25285 6.89096 3.40036 6.70522 3.58632L4.29522 5.97632C4.13142 6.13904 4.02898 6.35344 4.00528 6.58311C3.98159 6.81278 4.0381 7.04357 4.16522 7.23632C7.55898 12.3498 11.9417 16.7326 17.0552 20.1263C17.2469 20.2547 17.477 20.3129 17.7066 20.291C17.9363 20.2692 18.1513 20.1686 18.3152 20.0063Z" stroke="white" stroke-width="1.5" stroke-linecap="round" stroke-linejoin="round"/>
<path d="M3.647 25.45C3.269 25.093 2.702 24.918 2.205 24.918C1.309 24.918 0.392 25.366 0.392 26.374C0.392 27.298 1.043 27.592 1.645 27.781C2.268 27.977 2.786 28.124 2.786 28.642C2.786 29.174 2.303 29.377 1.89 29.377C1.498 29.377 1.05 29.167 0.805 28.831L0.175 29.419C0.567 29.881 1.232 30.126 1.876 30.126C2.849 30.126 3.682 29.608 3.682 28.544C3.682 27.571 2.87 27.291 2.233 27.095C1.673 26.92 1.288 26.787 1.288 26.332C1.288 25.849 1.757 25.653 2.163 25.653C2.513 25.653 2.884 25.835 3.073 26.08L3.647 25.45ZM6.39253 26.542C5.89553 26.542 5.52453 26.829 5.39153 27.109H5.37753V24.708H4.53753V30H5.37753V28.166C5.37753 27.718 5.63653 27.263 6.16853 27.263C6.70753 27.263 6.79153 27.753 6.79153 28.152V30H7.63153V27.9C7.63153 27.214 7.26753 26.542 6.39253 26.542ZM8.62542 30H9.46542V26.64H8.62542V30ZM8.50642 25.499C8.50642 25.765 8.73042 26.003 9.03842 26.003C9.34642 26.003 9.58442 25.786 9.58442 25.499C9.58442 25.212 9.34642 24.995 9.03842 24.995C8.73042 24.995 8.50642 25.233 8.50642 25.499ZM10.4845 26.64V31.68H11.3245V29.552H11.3385C11.5555 29.888 11.9825 30.098 12.4515 30.098C13.4735 30.098 14.1035 29.286 14.1035 28.306C14.1035 27.312 13.4315 26.542 12.4725 26.542C11.8565 26.542 11.4785 26.843 11.3105 27.109H11.2895V26.64H10.4845ZM13.2495 28.306C13.2495 28.831 12.9345 29.398 12.2835 29.398C11.6675 29.398 11.2965 28.845 11.2965 28.32C11.2965 27.795 11.6675 27.228 12.2835 27.228C12.9345 27.228 13.2495 27.781 13.2495 28.306ZM14.9142 26.64V31.68H15.7542V29.552H15.7682C15.9852 29.888 16.4122 30.098 16.8812 30.098C17.9032 30.098 18.5332 29.286 18.5332 28.306C18.5332 27.312 17.8612 26.542 16.9022 26.542C16.2862 26.542 15.9082 26.843 15.7402 27.109H15.7192V26.64H14.9142ZM17.6792 28.306C17.6792 28.831 17.3642 29.398 16.7132 29.398C16.0972 29.398 15.7262 28.845 15.7262 28.32C15.7262 27.795 16.0972 27.228 16.7132 27.228C17.3642 27.228 17.6792 27.781 17.6792 28.306ZM19.9878 27.984C20.0228 27.515 20.4218 27.172 20.9188 27.172C21.4648 27.172 21.7098 27.55 21.7098 27.984H19.9878ZM22.5498 28.362C22.5498 27.151 21.8638 26.542 20.9258 26.542C19.9108 26.542 19.1478 27.256 19.1478 28.341C19.1478 29.433 19.9178 30.098 20.9538 30.098C21.5908 30.098 22.0668 29.874 22.3958 29.426L21.8358 28.978C21.6468 29.244 21.3668 29.412 20.9468 29.412C20.4568 29.412 20.0228 29.062 19.9878 28.586H22.5428C22.5498 28.509 22.5498 28.439 22.5498 28.362ZM23.3634 30H24.2034V28.201C24.2034 27.956 24.3504 27.298 25.1064 27.298C25.1834 27.298 25.2534 27.305 25.3654 27.333V26.563C25.3094 26.549 25.2254 26.542 25.1624 26.542C24.7214 26.542 24.3644 26.815 24.1824 27.2H24.1684V26.64H23.3634V30Z" fill="white"/>
</svg>
