<svg width="120" height="120" viewBox="0 0 120 120" fill="none" xmlns="http://www.w3.org/2000/svg">
<path d="M20.9846 99.1308C41.6046 109.675 75.0344 109.678 95.6545 99.1308C116.275 88.584 116.275 71.4801 95.6545 60.9449C75.0344 50.4097 41.6046 50.4004 20.9846 60.9449C0.364515 71.4894 0.364515 88.5933 20.9846 99.1308Z" fill="#1666EA"/>
<path d="M80.6387 66.5394V67.7115C80.6387 69.0873 81.5303 70.4698 83.3468 71.5284C86.0851 73.1212 90.1123 73.532 93.4883 72.7272L96.6139 74.5471L99.0249 74.0128L100.664 74.9679L100.745 76.9514L101.63 77.4657L103.85 77.6694L105.446 78.5676V79.6863L107.45 80.8517L112.546 80.8684L114.379 79.8232V78.6378L98.0966 70.3496C98.7927 69.6764 99.2009 68.7595 99.2353 67.7917V66.6062C98.9948 65.4609 98.0431 64.8665 96.5237 63.9815C92.9006 61.8711 87.0101 61.8511 83.3702 63.9348C81.734 64.8698 80.809 65.3206 80.6387 66.5394ZM85.6476 65.2037C86.225 64.9107 86.8634 64.758 87.511 64.758C88.1585 64.758 88.7969 64.9107 89.3743 65.2037C90.3995 65.8015 90.3961 66.7632 89.3743 67.3542C88.7963 67.6473 88.1573 67.8 87.5093 67.8C86.8612 67.8 86.2223 67.6473 85.6443 67.3542C84.6024 66.7398 84.6058 65.7748 85.6376 65.187L85.6476 65.2037Z" fill="#FFC217"/>
<path opacity="0.2" d="M80.6387 66.5394V67.7115C80.6387 69.0873 81.5303 70.4698 83.3468 71.5284C86.0851 73.1212 90.1123 73.532 93.4883 72.7272L96.6139 74.5471L99.0249 74.0128L100.664 74.9679L100.745 76.9514L101.63 77.4657L103.85 77.6694L105.446 78.5676V79.6863L107.45 80.8517L112.546 80.8684L114.379 79.8232V78.6378L98.0966 70.3496C98.7927 69.6764 99.2009 68.7595 99.2353 67.7917V66.6062C98.9948 65.4609 98.0431 64.8665 96.5237 63.9815C92.9006 61.8711 87.0101 61.8511 83.3702 63.9348C81.734 64.8698 80.809 65.3206 80.6387 66.5394ZM85.6476 65.2037C86.225 64.9107 86.8634 64.758 87.511 64.758C88.1585 64.758 88.7969 64.9107 89.3743 65.2037C90.3995 65.8015 90.3961 66.7632 89.3743 67.3542C88.7963 67.6473 88.1573 67.8 87.5093 67.8C86.8612 67.8 86.2223 67.6473 85.6443 67.3542C84.6024 66.7398 84.6058 65.7748 85.6376 65.187L85.6476 65.2037Z" fill="black"/>
<path d="M83.3494 70.3464C86.0843 71.9393 90.1115 72.35 93.4875 71.5452L96.6164 73.3651L99.0241 72.8275L100.664 73.7826L100.747 75.7861L101.629 76.3004L103.853 76.5041L105.579 77.4758L105.442 78.521L107.446 79.6831L112.542 79.7031L114.375 78.6546L98.0957 69.1643C100.026 67.134 99.5083 64.5327 96.5296 62.7962C92.9031 60.6858 87.0126 60.6658 83.3727 62.7495C79.7329 64.8332 79.7296 68.236 83.3494 70.3464ZM85.6401 64.0017C86.2175 63.7087 86.8559 63.556 87.5035 63.556C88.151 63.556 88.7894 63.7087 89.3668 64.0017C90.3953 64.5995 90.392 65.5645 89.3668 66.1522C88.7894 66.4453 88.151 66.598 87.5035 66.598C86.8559 66.598 86.2175 66.4453 85.6401 66.1522C84.6049 65.5545 84.6083 64.5928 85.6401 64.0017Z" fill="#FFC217"/>
<path opacity="0.3" d="M83.3494 70.3464C86.0843 71.9393 90.1115 72.35 93.4875 71.5452L96.6164 73.3651L99.0241 72.8275L100.664 73.7826L100.747 75.7861L101.629 76.3004L103.853 76.5041L105.579 77.4758L105.442 78.521L107.446 79.6831L112.542 79.7031L114.375 78.6546L98.0957 69.1643C100.026 67.134 99.5083 64.5327 96.5296 62.7962C92.9031 60.6858 87.0126 60.6658 83.3727 62.7495C79.7329 64.8332 79.7296 68.236 83.3494 70.3464ZM85.6401 64.0017C86.2175 63.7087 86.8559 63.556 87.5035 63.556C88.151 63.556 88.7894 63.7087 89.3668 64.0017C90.3953 64.5995 90.392 65.5645 89.3668 66.1522C88.7894 66.4453 88.151 66.598 87.5035 66.598C86.8559 66.598 86.2175 66.4453 85.6401 66.1522C84.6049 65.5545 84.6083 64.5928 85.6401 64.0017Z" fill="white"/>
<g opacity="0.2">
<path d="M99.2114 66.9503L90.035 65.5011C90.2821 64.9902 90.0617 64.4191 89.3671 64.0151C88.7897 63.722 88.1513 63.5693 87.5038 63.5693C86.8563 63.5693 86.2179 63.722 85.6405 64.0151C85.3429 64.1687 85.1019 64.4132 84.9526 64.713L81.6133 64.1854C82.1191 63.6137 82.7187 63.1326 83.3865 62.7628C83.4933 62.7027 83.6068 62.6493 83.7204 62.5925L98.814 64.9735C99.1493 65.5749 99.2883 66.2661 99.2114 66.9503Z" fill="white"/>
<path d="M81.1553 68.3262C80.8225 67.8055 80.6435 67.2015 80.6388 66.5836C80.634 65.9656 80.8038 65.359 81.1286 64.8333L84.9387 65.4343C85.0838 65.7451 85.3282 65.9989 85.6333 66.1556C86.2107 66.4487 86.8491 66.6014 87.4966 66.6014C88.1442 66.6014 88.7826 66.4487 89.36 66.1556L89.4101 66.1256L99.0506 67.6583C98.8446 68.2235 98.5201 68.7381 98.0989 69.1677L102.41 71.6655L81.1553 68.3262Z" fill="white"/>
</g>
<path d="M83.8876 69.4213C82.4985 68.6132 81.7037 67.5613 81.707 66.5429C81.7104 65.5244 82.5118 64.4758 83.9076 63.6777C85.5072 62.7628 87.6577 62.2619 89.9551 62.2719C92.2526 62.2819 94.3997 62.7928 95.9926 63.7211C97.3817 64.5292 98.1765 65.5811 98.1732 66.5996C98.1698 67.6181 97.3684 68.6666 95.9726 69.4647C94.373 70.3797 92.2259 70.8806 89.9251 70.8739C87.6243 70.8672 85.4805 70.3497 83.8876 69.4213ZM84.0713 63.9849C82.7823 64.7229 82.041 65.6546 82.0376 66.5595C82.0343 67.4645 82.7689 68.4028 84.0412 69.1508C85.5873 70.0491 87.671 70.5467 89.9117 70.5534C92.1524 70.56 94.2528 70.0792 95.7922 69.1909C97.0812 68.4529 97.8225 67.5213 97.8259 66.6163C97.8292 65.7114 97.0946 64.773 95.8223 64.0284C94.2795 63.1301 92.1925 62.6292 89.9518 62.6225C87.7111 62.6158 85.624 63.08 84.0713 63.9849Z" fill="#FFC217"/>
<path opacity="0.1" d="M86.5762 71.5685V72.7507C88.8546 73.2556 91.2169 73.2476 93.4919 72.7273V71.5452C91.2167 72.0643 88.8548 72.0723 86.5762 71.5685Z" fill="black"/>
<path opacity="0.1" d="M96.6147 73.365L96.6113 74.5471L99.0223 74.0128L99.0256 72.8274L96.6147 73.365Z" fill="black"/>
<path opacity="0.1" d="M100.665 73.7827L100.662 74.9682L100.742 76.9517L100.749 75.7696L100.665 73.7827Z" fill="black"/>
<path opacity="0.1" d="M101.63 76.2837L101.627 77.4692L103.848 77.6695L103.854 76.4874L101.63 76.2837Z" fill="black"/>
<path opacity="0.1" d="M107.444 79.6759L107.439 80.8613L112.539 80.88L112.543 79.6946L107.444 79.6759Z" fill="black"/>
<path opacity="0.15" d="M114.372 78.6379L114.368 79.8234L112.535 80.8686L112.538 79.6865L113.343 79.2257L113.34 79.7366L113.784 79.4828V78.9685L114.372 78.6379Z" fill="black"/>
<path d="M113.784 78.9685L113.343 79.2256L113.34 79.7366L113.784 79.4828V78.9685Z" fill="#FFC217"/>
<path opacity="0.3" d="M113.784 78.9685L113.343 79.2256L113.34 79.7366L113.784 79.4828V78.9685Z" fill="white"/>
<path d="M113.784 78.9684V79.4826L97.0977 69.7686L97.5418 69.5115L113.784 78.9684Z" fill="#FFC217"/>
<path opacity="0.15" d="M97.5418 69.5115L97.5384 70.0257L97.0977 69.7686L97.5418 69.5115Z" fill="black"/>
<path d="M35.0469 84.217L49.6025 92.6222C50.1451 92.8965 50.7445 93.0394 51.3525 93.0394C51.9604 93.0394 52.5598 92.8965 53.1024 92.6222L82.4387 75.689C83.4041 75.1296 83.4041 74.2256 82.4387 73.6696L67.8831 65.2644C67.3406 64.9901 66.7411 64.8472 66.1332 64.8472C65.5252 64.8472 64.9258 64.9901 64.3832 65.2644L35.0469 82.1976C34.0781 82.7673 34.0781 83.661 35.0469 84.217Z" fill="#135FDD"/>
<path d="M36.9891 79.4346C36.8379 77.5698 35.9835 74.505 33.8139 71.5866C31.4931 68.4666 28.6611 66.513 26.5587 67.425C24.6003 68.277 25.3419 70.9794 28.7187 73.6482C31.0827 75.5178 33.5355 77.9538 34.8555 80.8938L36.9939 84.6354L36.9891 79.4346Z" fill="#FFC217"/>
<g opacity="0.1">
<path d="M36.9891 79.4346C36.8379 77.5698 35.9835 74.505 33.8139 71.5866C31.4931 68.4666 28.6611 66.513 26.5587 67.425C24.6003 68.277 25.3419 70.9794 28.7187 73.6482C31.0827 75.5178 33.5355 77.9538 34.8555 80.8938L36.9939 84.6354L36.9891 79.4346Z" fill="black"/>
</g>
<path d="M36.8004 80.8579C36.773 80.8579 36.7462 80.8493 36.7238 80.8334C36.7014 80.8175 36.6846 80.795 36.6756 80.7691C34.7964 75.5971 30.8844 70.3627 27.5748 68.5939C27.559 68.5857 27.5451 68.5745 27.5336 68.5609C27.5222 68.5473 27.5136 68.5315 27.5082 68.5146C27.5029 68.4977 27.5009 68.4798 27.5025 68.4621C27.504 68.4445 27.509 68.4272 27.5172 68.4115C27.5254 68.3957 27.5366 68.3817 27.5502 68.3703C27.5638 68.3589 27.5795 68.3503 27.5965 68.3449C27.6134 68.3396 27.6312 68.3376 27.6489 68.3391C27.6666 68.3407 27.6838 68.3457 27.6996 68.3539C31.0596 70.1515 35.0268 75.4459 36.9252 80.6755C36.9368 80.7083 36.935 80.7443 36.9202 80.7758C36.9053 80.8072 36.8787 80.8316 36.846 80.8435C36.832 80.8516 36.8165 80.8565 36.8004 80.8579Z" fill="white"/>
<path d="M36.8001 85.8162C35.7144 86.6699 34.4232 87.2228 33.0561 87.4194C30.6969 87.789 29.6649 86.661 29.6649 86.661C29.6649 86.661 30.5937 84.4482 31.9353 83.8266C30.4854 84.1512 29.101 84.7193 27.8409 85.5066C27.8409 85.5066 26.4009 85.5282 25.8273 83.3298C25.8273 83.3298 26.6793 82.0074 29.5425 81.2922C29.5425 81.2922 27.8025 80.853 25.2921 81.4938C25.1025 81.5682 24.3009 78.7266 24.0585 77.4138C23.8161 76.101 24.3417 76.1154 25.3641 75.8418C26.3865 75.5682 29.8665 75.3978 30.5073 75.9618C31.1481 76.5258 31.4673 78.4458 31.4673 78.4458C31.4673 78.4458 32.0793 77.3586 31.9329 76.3866C32.6462 76.183 33.4047 76.2014 34.1073 76.4394C35.2569 76.8378 35.1825 77.3994 35.1825 78.2346C35.1874 79.0763 35.0719 79.9144 34.8393 80.7234C34.8393 80.7234 35.6337 80.037 35.6601 77.5074C35.6601 77.5074 37.2129 78.8346 37.8369 79.977C38.4609 81.1194 38.3049 84.1074 36.8001 85.8162Z" fill="#FFC217"/>
<path d="M36.8005 85.9435C36.7755 85.9437 36.751 85.9368 36.7298 85.9237C36.7085 85.9105 36.6914 85.8916 36.6805 85.8691C34.7773 81.9139 27.6997 77.3203 25.1605 76.8259C25.126 76.8189 25.0956 76.7987 25.0758 76.7695C25.0561 76.7403 25.0486 76.7045 25.0549 76.6699C25.0584 76.6528 25.0651 76.6367 25.0748 76.6222C25.0846 76.6078 25.097 76.5955 25.1115 76.5859C25.126 76.5763 25.1422 76.5697 25.1593 76.5664C25.1764 76.5631 25.1939 76.5632 25.2109 76.5667C27.7933 77.0683 34.9861 81.7363 36.9205 85.7539C36.9355 85.7858 36.9373 85.8222 36.9256 85.8554C36.914 85.8886 36.8897 85.9159 36.8581 85.9315C36.8402 85.94 36.8204 85.9441 36.8005 85.9435Z" fill="white"/>
<path d="M78.0454 43.6954C78.0583 41.708 78.6254 39.7635 79.6828 38.0806V34.9116C79.6971 34.75 79.6719 34.5874 79.6095 34.4377C79.5472 34.288 79.4494 34.1556 79.3246 34.052C79.2936 34.0305 79.2604 34.0122 79.2257 33.9974L68.9478 28.0517C68.7923 27.9839 68.6219 27.9578 68.4532 27.9757C68.2846 27.9936 68.1235 28.0551 67.9858 28.154L59.8842 32.8307C59.4936 33.1003 59.1697 33.4556 58.9374 33.8694C58.705 34.2833 58.5703 34.7447 58.5436 35.2186C58.4515 37.5382 57.6942 41.8329 53.5973 44.1969C49.5005 46.5608 48.733 43.0985 48.6477 40.888C48.6136 40.0079 48.0712 39.6532 47.3105 40.0932L39.2055 44.77C38.8067 45.0331 38.4755 45.3863 38.2384 45.8011C38.0014 46.2159 37.8653 46.6807 37.841 47.1578V50.3268C37.841 50.3268 39.4784 50.7839 39.4784 54.0518C39.4784 57.3198 36.9473 63.245 36.9473 71.4694C36.9473 75.5868 38.2538 79.0252 40.9964 80.6046L51.2948 86.5469C54.0237 88.157 58.2059 87.9114 63.9606 84.5753C75.4154 77.9609 80.6209 66.4243 80.6209 58.2033C80.6209 49.9823 78.0454 46.9497 78.0454 43.6954Z" fill="#FFC217"/>
<path d="M67.9526 28.1438L59.851 32.8205C59.46 33.0897 59.1358 33.4449 58.9035 33.8588C58.6711 34.2727 58.5366 34.7344 58.5104 35.2084C58.4251 37.3472 57.7769 41.1609 54.4681 43.5931L48.2358 39.9943L48.2017 39.9772C48.0523 39.9105 47.8876 39.8851 47.725 39.9037C47.5624 39.9223 47.4078 39.9842 47.2773 40.083L39.1723 44.7597C39.0593 44.8254 38.9531 44.902 38.855 44.9883C38.5913 45.2145 38.3685 45.4845 38.1966 45.7865C37.95 46.2003 37.8116 46.6696 37.7941 47.151V50.32L38.241 50.5793C38.7322 50.975 39.4315 51.9096 39.4315 54.0416C39.4315 57.3096 36.9004 63.2519 36.9004 71.4592C36.9004 75.5765 38.2069 79.0219 40.9495 80.6012L51.2104 86.5197C48.5189 84.9198 47.2397 81.5086 47.2397 77.4288C47.2397 69.2044 49.7674 63.2757 49.7674 60.0078C49.7674 56.7399 48.1301 56.2862 48.1301 56.2862V53.1172C48.1562 52.6405 48.2931 52.1764 48.53 51.7619C48.7668 51.3474 49.0971 50.9939 49.4945 50.7293L57.5996 46.0526C57.7261 45.9584 57.8744 45.8977 58.0306 45.8762C58.1869 45.8547 58.3461 45.8732 58.4933 45.9298H58.5274C58.6657 46.0327 58.7757 46.169 58.8473 46.3258C58.9188 46.4826 58.9496 46.655 58.9368 46.8269C59.0186 49.0408 59.7623 52.5202 63.8864 50.1392C68.0106 47.7582 68.7406 43.4805 68.8361 41.1609C68.8614 40.6871 68.9951 40.2255 69.227 39.8115C69.4588 39.3975 69.7825 39.0423 70.1733 38.7731L78.2749 34.0963C78.4073 34.002 78.5609 33.9417 78.7221 33.9209C78.8834 33.9001 79.0473 33.9193 79.1993 33.9769L68.9486 28.0517C68.7896 27.9764 68.6132 27.9452 68.438 27.9614C68.2628 27.9777 68.0951 28.0406 67.9526 28.1438Z" fill="#FFC217"/>
<path opacity="0.1" d="M38.2467 50.5757L48.1391 56.2826V53.1136C48.1545 52.6314 48.2944 52.1614 48.5451 51.7492L38.1955 45.7898C37.9483 46.2034 37.8099 46.6728 37.793 47.1543V50.3233L38.2467 50.5757Z" fill="black"/>
<path opacity="0.4" d="M54.4667 43.593L48.2345 39.9942L48.2004 39.9772C48.0509 39.9104 47.8863 39.885 47.7237 39.9036C47.5611 39.9222 47.4064 39.9841 47.2759 40.0829L39.1709 44.7597C39.058 44.8254 38.9518 44.9019 38.8537 44.9882C38.5899 45.2144 38.3672 45.4845 38.1953 45.7864L48.5483 51.7629C48.7799 51.3445 49.1146 50.9923 49.5205 50.7395L57.6255 46.0627C57.752 45.9685 57.9003 45.9079 58.0566 45.8864C58.2129 45.8649 58.372 45.8833 58.5192 45.9399L54.4667 43.593Z" fill="white"/>
<path opacity="0.4" d="M79.2254 33.9872L68.9474 28.0517C68.7901 27.979 68.6163 27.9493 68.4438 27.9655C68.2713 27.9816 68.1061 28.0432 67.965 28.1438L59.8634 32.8206C59.4643 33.0721 59.1393 33.4253 58.9219 33.8439L69.2715 39.8169C69.4889 39.3983 69.8139 39.0451 70.213 38.7936L78.3146 34.1168C78.4445 34.0231 78.5953 33.9623 78.754 33.9397C78.9126 33.9171 79.0744 33.9334 79.2254 33.9872Z" fill="white"/>
<path opacity="0.1" d="M69.2578 39.8202C69.0255 40.2399 68.8892 40.706 68.8587 41.1847C68.7666 43.5043 68.0059 47.799 63.9124 50.163C59.819 52.5269 59.0446 49.0646 58.9628 46.8507C58.9756 46.6788 58.9448 46.5064 58.8733 46.3496C58.8017 46.1927 58.6917 46.0565 58.5534 45.9536H58.5193L54.4668 43.6135C57.7757 41.1813 58.4238 37.3676 58.5091 35.2287C58.5385 34.7498 58.6748 34.2835 58.9082 33.8643L69.2578 39.8202Z" fill="black"/>
<path opacity="0.2" d="M51.2104 86.5195L40.9358 80.5943C38.2069 79.0149 36.8867 75.5696 36.8867 71.4522C36.8867 63.2312 39.4178 57.3026 39.4178 54.0346C39.4178 51.9197 38.7356 50.985 38.241 50.5791L48.1335 56.286C48.1335 56.286 49.7708 56.7431 49.7708 60.0077C49.7708 63.2722 47.2431 69.2179 47.2431 77.4287C47.2534 81.5119 48.5326 84.9231 51.2104 86.5195Z" fill="black"/>
<path d="M66.2628 72.445L61.8282 75.0034L62.5105 66.9836C61.9783 66.7039 61.6406 66.0149 61.6406 65.0256C61.6406 63.2586 62.7152 61.2085 64.0285 60.441C65.3418 59.6734 66.4163 60.4887 66.4163 62.2557C66.3889 63.3022 66.0904 64.3236 65.5499 65.2201L66.2628 72.445Z" fill="#455A64"/>
<path d="M66.2627 72.4451L62.2477 70.1255L61.8281 75.0035L66.2627 72.4451Z" fill="#37474F"/>
<path d="M64.0467 60.441C63.1803 60.9424 62.423 61.9931 62 63.1699L65.5749 65.2337C66.1154 64.3373 66.414 63.3158 66.4414 62.2694C66.4448 60.4887 65.3703 59.6769 64.0467 60.441Z" fill="#37474F"/>
<path d="M69.0567 13.8167C66.8633 12.5511 64.1105 12.6944 61.4941 14.2021L51.8302 19.7829C47.6412 22.2014 44.4824 27.673 44.4824 32.5066V45.5545C44.4824 46.0935 44.844 46.6358 45.5569 47.0486C46.3587 47.4555 47.2452 47.6676 48.1444 47.6676C49.0435 47.6676 49.93 47.4555 50.7317 47.0486C51.4447 46.6358 51.8063 46.0935 51.8063 45.5545V32.5066C51.8063 30.2825 53.563 27.2397 55.4904 26.1277L65.1543 20.547H65.1782V33.6187C65.1782 34.1611 65.5398 34.7 66.2527 35.1128C67.0545 35.5197 67.941 35.7318 68.8401 35.7318C69.7393 35.7318 70.6257 35.5197 71.4275 35.1128C72.1404 34.7 72.502 34.1611 72.502 33.6187V20.5606C72.502 17.5383 71.2467 15.0822 69.0567 13.8167Z" fill="#37474F"/>
<path d="M65.1953 20.5607V33.6052C65.1953 34.1475 65.5569 34.6865 66.2698 35.0993C66.6088 35.2891 66.9712 35.4336 67.3478 35.5291V19.2917L65.1953 20.5334V20.5607Z" fill="#263238"/>
<circle cx="33.6371" cy="28.1554" r="6.36364" fill="#FFC217"/>
<circle cx="41.8191" cy="18.1553" r="2.72727" fill="#FFC217"/>
<circle cx="36.3651" cy="39.0643" r="1.81818" fill="#FFC217"/>
</svg>
