<svg width="120" height="120" viewBox="0 0 120 120" fill="none" xmlns="http://www.w3.org/2000/svg">
<path d="M60.7696 118.112C88.8089 118.112 111.539 106.222 111.539 91.556C111.539 76.8895 88.8089 65 60.7696 65C32.7303 65 10 76.8895 10 91.556C10 106.222 32.7303 118.112 60.7696 118.112Z" fill="#1666EA"/>
<path d="M36.5748 105.794L40.8575 108.325C41.3495 108.579 41.8935 108.712 42.4452 108.712C42.9969 108.712 43.5409 108.579 44.0329 108.325L85.5397 83.89C86.4161 83.3741 86.4161 82.5367 85.5397 82.0208L81.268 79.5048C80.776 79.2503 80.2321 79.1177 79.6804 79.1177C79.1287 79.1177 78.5847 79.2503 78.0927 79.5048L36.5858 103.939C35.6985 104.44 35.6985 105.278 36.5748 105.794Z" fill="#135FDD"/>
<path d="M79.7764 8.03788C79.6873 7.40145 79.1749 7.16597 78.5576 7.52555L44.674 27.0863C44.3157 27.3207 44.0175 27.6361 43.8036 28.007C43.5897 28.3779 43.466 28.7939 43.4425 29.2215V104.002C43.4425 104.724 43.9135 105.055 44.5181 104.788C44.1513 104.945 43.7547 105.019 43.3561 105.006C42.9575 104.993 42.5667 104.892 42.211 104.712L40.7981 103.9C40.4389 103.667 40.1398 103.351 39.9253 102.98C39.7108 102.609 39.5868 102.193 39.5635 101.765V26.9876C39.586 26.5595 39.7097 26.1428 39.9243 25.7717C40.1389 25.4005 40.4384 25.0855 40.7981 24.8524L74.6785 5.29168C75.0599 5.09722 75.4819 4.99585 75.91 4.99585C76.3381 4.99585 76.7601 5.09722 77.1415 5.29168L78.5576 6.09994C78.8875 6.31706 79.167 6.6024 79.3772 6.9367C79.5875 7.271 79.7236 7.6465 79.7764 8.03788V8.03788Z" fill="#455A64"/>
<path d="M78.5584 7.51909L44.6749 27.0862C44.3165 27.3206 44.0184 27.636 43.8044 28.0069C43.5905 28.3778 43.4668 28.7938 43.4434 29.2214V104.002C43.4434 104.785 43.9971 105.106 44.6749 104.712L78.5584 85.1382C78.9166 84.9036 79.2146 84.5882 79.4285 84.2173C79.6424 83.8464 79.7662 83.4305 79.7899 83.003V8.22234C79.7899 7.45226 79.2362 7.13086 78.5584 7.51909ZM78.0143 75.9577C78.0143 76.6291 77.5433 77.0555 76.9578 77.3928L46.1514 95.1779C45.569 95.5152 45.0949 95.2447 45.0949 94.5701V36.3621C45.1153 35.9953 45.2216 35.6383 45.405 35.32C45.5885 35.0016 45.8442 34.7308 46.1514 34.5292L76.9674 16.7473C77.5529 16.41 78.0238 16.6837 78.0238 17.3551L78.0143 75.9577Z" fill="#37474F"/>
<path d="M44.5093 104.776C44.1425 104.932 43.7459 105.006 43.3473 104.993C42.9487 104.98 42.5579 104.88 42.2022 104.699L40.7894 103.888C40.4305 103.654 40.1317 103.338 39.9172 102.968C39.7027 102.597 39.5785 102.18 39.5547 101.753V26.9878C39.5706 26.5574 39.6954 26.1381 39.9175 25.769L43.7965 27.9966C43.5749 28.3646 43.4501 28.7828 43.4337 29.2121V103.993C43.4433 104.712 43.9142 105.043 44.5093 104.776Z" fill="#263238"/>
<path d="M61.6164 18.9527C62.0715 18.6886 62.4438 18.9018 62.4438 19.43C62.4275 19.7168 62.3441 19.9957 62.2005 20.2444C62.0568 20.4931 61.8567 20.7046 61.6164 20.862C61.1614 21.1229 60.7891 20.9097 60.7891 20.3846C60.8051 20.0978 60.8883 19.8188 61.0321 19.57C61.1758 19.3213 61.3759 19.1098 61.6164 18.9527V18.9527Z" fill="#263238"/>
<path d="M61.0559 93.1192C60.8506 93.1215 60.6484 93.0688 60.4704 92.9664C60.0504 92.7246 59.834 92.2282 59.834 91.5695C59.8734 90.8682 60.077 90.186 60.4286 89.578C60.7802 88.97 61.2697 88.4531 61.8578 88.0691C62.4274 87.7509 62.9748 87.6904 63.3916 87.9323C63.8085 88.1741 64.0281 88.6705 64.0281 89.3292C63.9894 90.0307 63.7861 90.7131 63.4344 91.3213C63.0828 91.9294 62.5928 92.4462 62.0042 92.8296C61.7191 93.008 61.392 93.1078 61.0559 93.1192V93.1192ZM62.7934 88.0946C62.5136 88.1068 62.2417 88.1912 62.0042 88.3396C61.4622 88.6944 61.0111 89.1715 60.6872 89.7325C60.3633 90.2935 60.1757 90.9227 60.1395 91.5695C60.1395 92.1104 60.3113 92.5082 60.6295 92.6928C60.9477 92.8773 61.3773 92.8264 61.8451 92.5559C62.3875 92.2009 62.8389 91.7232 63.1628 91.1617C63.4867 90.6001 63.6741 89.9702 63.7098 89.3229C63.7098 88.7819 63.538 88.3841 63.2198 88.2027C63.0849 88.1274 62.9318 88.0911 62.7775 88.0977L62.7934 88.0946Z" fill="#E6E6E6"/>
<path d="M58.4288 23.9776L64.7931 20.2958C65.175 20.0763 65.4836 20.2322 65.4836 20.6427C65.4668 20.8745 65.3955 21.0991 65.2755 21.2982C65.1556 21.4972 64.9903 21.6651 64.7931 21.7883L58.4288 25.47C58.0469 25.6896 57.7383 25.5337 57.7383 25.1232C57.7551 24.8913 57.8264 24.6668 57.9464 24.4677C58.0664 24.2686 58.2317 24.1007 58.4288 23.9776V23.9776Z" fill="#263238"/>
<path d="M78.0151 75.964C78.0151 76.6354 77.5441 77.0619 76.9586 77.3992L46.1522 95.1842C45.5698 95.5215 45.0957 95.2511 45.0957 94.5764V36.3621C45.1161 35.9952 45.2224 35.6383 45.4059 35.3199C45.5893 35.0016 45.845 34.7307 46.1522 34.5292L76.9682 16.7473C77.5537 16.41 78.0246 16.6837 78.0246 17.3551L78.0151 75.964Z" fill="#FFC217"/>
<path opacity="0.75" d="M78.0151 75.964C78.0151 76.6354 77.5441 77.0619 76.9586 77.3992L46.1522 95.1842C45.5698 95.5215 45.0957 95.2511 45.0957 94.5764V36.3621C45.1161 35.9952 45.2224 35.6383 45.4059 35.3199C45.5893 35.0016 45.845 34.7307 46.1522 34.5292L76.9682 16.7473C77.5537 16.41 78.0246 16.6837 78.0246 17.3551L78.0151 75.964Z" fill="white"/>
<path d="M76.9674 16.7473L46.161 34.5292C45.8538 34.7307 45.5981 35.0016 45.4146 35.3199C45.2312 35.6383 45.1249 35.9952 45.1045 36.3621V40.2952L78.0239 21.285V17.3551C78.0143 16.6837 77.5434 16.41 76.9674 16.7473Z" fill="#FFC217"/>
<path d="M45.0957 90.2839V94.5766C45.0957 95.2512 45.5698 95.5312 46.1522 95.1844L76.9682 77.3993C77.5537 77.062 78.0246 76.6356 78.0246 75.9642V71.28L45.0957 90.2839Z" fill="#FFC217"/>
<path opacity="0.15" d="M47.8033 90.351L70.823 77.0496C71.3544 76.7314 71.7776 76.9923 71.7776 77.6064C71.7601 77.9401 71.6646 78.2651 71.4988 78.5552C71.333 78.8453 71.1016 79.0926 70.823 79.2771L47.8033 92.5785C47.2719 92.8967 46.8486 92.6358 46.8486 92.0216C46.8662 91.6879 46.9617 91.363 47.1274 91.0729C47.2932 90.7827 47.5247 90.5355 47.8033 90.351V90.351Z" fill="black"/>
<path d="M73.4287 75.1843V75.8621C73.4287 76.0148 73.5083 76.1199 73.6037 76.0976L74.6888 75.8462C74.7843 75.8239 74.7843 75.878 74.6888 75.9671L73.6037 76.9663C73.495 77.086 73.4329 77.2407 73.4287 77.4023V78.0801C73.4287 78.2328 73.5051 78.2678 73.5974 78.1596L76.1717 75.1493C76.2608 75.0411 76.2608 74.952 76.1717 74.952L73.5974 74.9106C73.5051 74.9106 73.4287 75.0316 73.4287 75.1843Z" fill="#455A64"/>
<path d="M52.2738 51.0033L50.6382 50.0487C50.606 50.0355 50.5791 50.012 50.5618 49.9818L50.2627 49.4568L51.2173 48.8967L51.1887 48.9795L52.2738 51.0033Z" fill="#E0E0E0"/>
<path d="M51.083 48.9857L52.2159 50.9459C52.2301 50.9781 52.2541 51.0051 52.2845 51.023C52.3149 51.0409 52.3501 51.0488 52.3852 51.0457C52.4204 51.0425 52.4536 51.0284 52.4803 51.0054C52.507 50.9824 52.5258 50.9515 52.5341 50.9172L53.7306 47.4614L51.083 48.9857Z" fill="#F0F0F0"/>
<path d="M62.9188 34.7871C62.9038 34.5123 62.8243 34.2449 62.6866 34.0066C62.5489 33.7683 62.357 33.5659 62.1264 33.4156C61.8804 33.2887 61.6077 33.2224 61.3309 33.2224C61.0541 33.2224 60.7813 33.2887 60.5353 33.4156L47.7367 40.8046C47.5064 40.9552 47.3148 41.1578 47.1772 41.396C47.0395 41.6342 46.9598 41.9014 46.9443 42.1761V48.6613C46.9593 48.9361 47.0388 49.2036 47.1765 49.4419C47.3142 49.6802 47.5061 49.8826 47.7367 50.0329V50.0329C47.9827 50.1598 48.2554 50.2261 48.5322 50.2261C48.809 50.2261 49.0818 50.1598 49.3278 50.0329L62.2091 42.593C62.9219 42.1888 62.9283 41.7815 62.9283 41.2756L62.9188 34.7871Z" fill="#F0F0F0"/>
<path d="M46.9431 48.6613C46.9581 48.9361 47.0376 49.2036 47.1753 49.4419C47.313 49.6802 47.5049 49.8826 47.7355 50.0329C47.9578 50.1459 48.2016 50.2103 48.4507 50.2218C48.6997 50.2334 48.9484 50.1917 49.1802 50.0997C48.8079 50.2429 48.5247 50.0297 48.5247 49.5778V43.0894C48.5332 42.8138 48.6133 42.5451 48.757 42.3098L47.1659 41.3965C47.0234 41.6324 46.9434 41.9007 46.9336 42.1761L46.9431 48.6613Z" fill="#E0E0E0"/>
<path d="M62.8898 34.5674C62.7975 34.2492 62.492 34.1251 62.126 34.3351L49.3179 41.7241C49.0834 41.8689 48.8913 42.0731 48.761 42.3159L47.1699 41.4027C47.3016 41.1616 47.4935 40.9588 47.7268 40.814L60.535 33.425C60.7814 33.2995 61.054 33.2341 61.3305 33.2341C61.607 33.2341 61.8796 33.2995 62.126 33.425V33.425C62.3247 33.5531 62.495 33.7205 62.6264 33.917C62.7577 34.1135 62.8474 34.3349 62.8898 34.5674Z" fill="#FAFAFA"/>
<path d="M50.6502 44.6358L59.8021 39.3406C60.0662 39.1879 60.2794 39.2579 60.2794 39.4966C60.2605 39.6438 60.2075 39.7846 60.1246 39.9078C60.0418 40.031 59.9313 40.1332 59.8021 40.2062L50.6502 45.5013C50.3861 45.654 50.1729 45.584 50.1729 45.3454C50.1918 45.1981 50.2447 45.0573 50.3276 44.9341C50.4105 44.8109 50.5209 44.7088 50.6502 44.6358V44.6358Z" fill="#455A64"/>
<path d="M50.6502 46.5134L57.0145 42.8157C57.2818 42.663 57.495 42.733 57.495 42.9717C57.4757 43.1192 57.4223 43.2602 57.3388 43.3834C57.2554 43.5066 57.1443 43.6086 57.0145 43.6813L50.6502 47.379C50.3861 47.5317 50.1729 47.4617 50.1729 47.223C50.1918 47.0758 50.2447 46.935 50.3276 46.8118C50.4105 46.6886 50.5209 46.5864 50.6502 46.5134V46.5134Z" fill="#455A64"/>
<path d="M50.6502 42.7647L59.8021 37.4569C60.0662 37.3041 60.2794 37.3741 60.2794 37.6128C60.2605 37.76 60.2075 37.9008 60.1246 38.024C60.0418 38.1472 59.9313 38.2494 59.8021 38.3224L50.6502 43.6302C50.3861 43.783 50.1729 43.713 50.1729 43.4743C50.1918 43.3271 50.2447 43.1862 50.3276 43.0631C50.4105 42.9399 50.5209 42.8377 50.6502 42.7647V42.7647Z" fill="#455A64"/>
<path d="M50.5357 51.6938L49.5334 51.1211C49.3615 51.0428 49.172 51.0116 48.9841 51.0306C48.7963 51.0496 48.6168 51.1181 48.4641 51.2292C48.048 51.488 47.7 51.8426 47.449 52.2634C47.1418 52.7393 46.9671 53.2886 46.9431 53.8545C46.9238 54.0432 46.9548 54.2336 47.0331 54.4063C47.1113 54.5791 47.234 54.7279 47.3886 54.8378L48.391 55.4138C48.5649 55.5022 48.7601 55.5405 48.9546 55.5242C49.1491 55.5079 49.3352 55.4377 49.492 55.3215C49.9345 55.0332 50.3028 54.6447 50.5671 54.1875C50.8314 53.7303 50.9841 53.2172 51.0131 52.6899C51.0335 52.4959 50.9997 52.3001 50.9154 52.1243C50.8311 51.9484 50.6997 51.7994 50.5357 51.6938V51.6938Z" fill="#455A64"/>
<path d="M49.5337 51.1145C49.3619 51.0362 49.1723 51.005 48.9845 51.024C48.7966 51.043 48.6172 51.1115 48.4645 51.2227C48.0491 51.4822 47.7012 51.8367 47.4494 52.2569C47.1421 52.7327 46.9675 53.282 46.9434 53.8479C46.9234 54.0367 46.9542 54.2273 47.0325 54.4001C47.1108 54.573 47.2339 54.7218 47.3889 54.8312L48.3818 55.4008C48.2398 55.288 48.128 55.1417 48.0564 54.9751C47.9848 54.8086 47.9555 54.6268 47.9713 54.4462C48.0007 53.9185 48.1537 53.4052 48.4179 52.9475C48.6821 52.4899 49.0501 52.1007 49.4923 51.8114C49.6404 51.7069 49.8118 51.6404 49.9916 51.6177C50.1713 51.5949 50.3539 51.6166 50.5234 51.6809L49.5337 51.1145Z" fill="#37474F"/>
<path d="M49.4288 52.2795C49.7088 52.1172 49.9348 52.2477 49.9348 52.5691C49.9254 52.745 49.8747 52.9161 49.7868 53.0687C49.6989 53.2213 49.5763 53.3511 49.4288 53.4474C49.1488 53.6065 48.9229 53.476 48.9229 53.1546C48.9317 52.9791 48.9822 52.8081 49.0702 52.656C49.1581 52.5038 49.2811 52.3748 49.4288 52.2795V52.2795Z" fill="white"/>
<path d="M49.4953 55.0479C49.8883 54.7991 50.2088 54.4512 50.4245 54.0392V53.9978C50.4245 53.4664 50.0522 53.2532 49.594 53.5173L49.3076 53.6828C49.0767 53.834 48.8828 54.0353 48.7401 54.2716C48.5975 54.5078 48.5098 54.7732 48.4834 55.0479C48.5055 55.0726 48.53 55.095 48.5566 55.1147V55.1147C48.7034 55.1934 48.8695 55.2289 49.0356 55.2171C49.2018 55.2053 49.3611 55.1466 49.4953 55.0479V55.0479Z" fill="white"/>
<path d="M52.2738 74.5446L50.6382 73.5899C50.6066 73.5759 50.58 73.5526 50.5618 73.5231L50.2627 72.9981L51.2173 72.4348L51.1887 72.5207L52.2738 74.5446Z" fill="#E0E0E0"/>
<path d="M51.083 72.5277L52.2159 74.4879C52.2301 74.5201 52.2541 74.5471 52.2845 74.565C52.3149 74.5829 52.3501 74.5908 52.3852 74.5877C52.4204 74.5845 52.4536 74.5704 52.4803 74.5474C52.507 74.5244 52.5258 74.4935 52.5341 74.4592L53.7306 71.0034L51.083 72.5277Z" fill="#F0F0F0"/>
<path d="M62.9176 58.3287C62.9026 58.0539 62.8231 57.7865 62.6854 57.5482C62.5477 57.3099 62.3558 57.1074 62.1252 56.9572C61.8788 56.8318 61.6062 56.7664 61.3297 56.7664C61.0531 56.7664 60.7805 56.8318 60.5341 56.9572L47.726 64.3462C47.4953 64.4964 47.3034 64.6989 47.1657 64.9372C47.0281 65.1755 46.9485 65.4429 46.9336 65.7177V72.2029C46.949 72.4776 47.0288 72.7448 47.1664 72.9831C47.304 73.2213 47.4957 73.4238 47.726 73.5744V73.5744C47.9719 73.7014 48.2447 73.7677 48.5215 73.7677C48.7983 73.7677 49.0711 73.7014 49.317 73.5744L62.1984 66.1346C62.9112 65.7272 62.9176 65.3199 62.9176 64.8171V58.3287Z" fill="#F0F0F0"/>
<path d="M46.9431 72.2028C46.9586 72.4775 47.0383 72.7448 47.176 72.983C47.3136 73.2212 47.5052 73.4238 47.7355 73.5744V73.5744C47.9578 73.6874 48.2016 73.7518 48.4507 73.7634C48.6997 73.7749 48.9484 73.7332 49.1802 73.6412C48.8079 73.7812 48.5247 73.5712 48.5247 73.1193V66.6277C48.5345 66.3523 48.6145 66.084 48.757 65.8481L47.1659 64.938C47.023 65.1737 46.943 65.4421 46.9336 65.7176L46.9431 72.2028Z" fill="#E0E0E0"/>
<path d="M62.8898 58.1154C62.7975 57.7781 62.492 57.6731 62.126 57.8831L49.3179 65.2721C49.0827 65.4161 48.8904 65.6204 48.761 65.8639L47.1699 64.9507C47.3016 64.7096 47.4935 64.5068 47.7268 64.362L60.535 56.9698C60.7818 56.8458 61.0543 56.7812 61.3305 56.7812C61.6068 56.7812 61.8792 56.8458 62.126 56.9698V56.9698C62.3248 57.0985 62.4951 57.2665 62.6265 57.4636C62.7578 57.6606 62.8474 57.8824 62.8898 58.1154V58.1154Z" fill="#FAFAFA"/>
<path d="M50.6502 68.1774L59.8021 62.8664C60.0662 62.7136 60.2794 62.7836 60.2794 63.0255C60.26 63.1722 60.2068 63.3124 60.124 63.435C60.0411 63.5576 59.9309 63.6592 59.8021 63.7319L50.6502 69.0398C50.3861 69.1957 50.1729 69.1257 50.1729 68.8838C50.1922 68.7371 50.2454 68.597 50.3283 68.4744C50.4111 68.3518 50.5213 68.2501 50.6502 68.1774Z" fill="#455A64"/>
<path d="M50.6502 70.0515L57.0145 66.357C57.2818 66.2043 57.495 66.2743 57.495 66.5129C57.4757 66.6605 57.4223 66.8015 57.3388 66.9247C57.2554 67.0479 57.1443 67.1499 57.0145 67.2226L50.6502 70.917C50.3861 71.0698 50.1729 70.9998 50.1729 70.7611C50.1918 70.6139 50.2447 70.473 50.3276 70.3499C50.4105 70.2267 50.5209 70.1245 50.6502 70.0515Z" fill="#455A64"/>
<path d="M50.6502 66.3062L59.8021 60.9984C60.0662 60.8424 60.2794 60.9124 60.2794 61.1543C60.2605 61.3015 60.2075 61.4424 60.1246 61.5655C60.0418 61.6887 59.9313 61.7909 59.8021 61.8639L50.6502 67.1717C50.3861 67.3245 50.1729 67.2545 50.1729 67.0158C50.1918 66.8686 50.2447 66.7278 50.3276 66.6046C50.4105 66.4814 50.5209 66.3792 50.6502 66.3062V66.3062Z" fill="#455A64"/>
<path d="M50.5357 75.2353L49.5334 74.6626C49.3615 74.5843 49.172 74.5531 48.9841 74.5721C48.7963 74.5911 48.6168 74.6596 48.4641 74.7707C48.048 75.0295 47.7 75.3841 47.449 75.8049C47.1418 76.2808 46.9671 76.8301 46.9431 77.396C46.9238 77.5847 46.9548 77.7751 47.0331 77.9478C47.1113 78.1205 47.234 78.2694 47.3886 78.3793L48.391 78.9521C48.5644 79.0417 48.7596 79.0809 48.9542 79.0651C49.1489 79.0494 49.3352 78.9794 49.492 78.863C49.9349 78.5744 50.3035 78.1854 50.5678 77.7276C50.8321 77.2698 50.9846 76.7561 51.0131 76.2282C51.0332 76.0347 50.9993 75.8395 50.915 75.6641C50.8308 75.4888 50.6994 75.3404 50.5357 75.2353V75.2353Z" fill="#455A64"/>
<path d="M49.5337 74.6626C49.3619 74.5843 49.1723 74.5531 48.9845 74.5721C48.7966 74.5911 48.6172 74.6596 48.4645 74.7707C48.0491 75.0303 47.7012 75.3848 47.4494 75.8049C47.1421 76.2808 46.9675 76.8301 46.9434 77.396C46.9234 77.5847 46.9542 77.7754 47.0325 77.9482C47.1108 78.1211 47.2339 78.2699 47.3889 78.3793L48.3818 78.9457C48.2392 78.8335 48.1269 78.6873 48.0552 78.5206C47.9835 78.3538 47.9547 78.1718 47.9713 77.9911C47.9933 77.4248 48.1681 76.875 48.4772 76.4C48.7281 75.9783 49.0762 75.6226 49.4923 75.3626C49.6404 75.2582 49.8118 75.1917 49.9916 75.1689C50.1713 75.1462 50.3539 75.1679 50.5234 75.2322L49.5337 74.6626Z" fill="#37474F"/>
<path d="M49.4288 75.818C49.7088 75.6589 49.9348 75.7894 49.9348 76.1108C49.9254 76.2862 49.8747 76.4569 49.7868 76.609C49.6989 76.7611 49.5762 76.8902 49.4288 76.9859C49.1488 77.1482 48.9229 77.0177 48.9229 76.6963C48.9322 76.5204 48.9829 76.3492 49.0708 76.1966C49.1587 76.044 49.2814 75.9143 49.4288 75.818Z" fill="white"/>
<path d="M49.4953 78.5894C49.8884 78.3394 50.2088 77.9905 50.4245 77.5775V77.5266C50.4245 76.9952 50.0522 76.782 49.594 77.0461L49.3076 77.2116C49.0768 77.3622 48.8829 77.5628 48.7402 77.7986C48.5975 78.0344 48.5098 78.2992 48.4834 78.5735C48.5046 78.6 48.5292 78.6236 48.5566 78.6435V78.6435C48.7022 78.7241 48.8676 78.7617 49.0338 78.7521C49.1999 78.7425 49.3599 78.6861 49.4953 78.5894V78.5894Z" fill="white"/>
<path d="M71.4147 52.3017L69.7791 51.347C69.7469 51.3339 69.72 51.3104 69.7027 51.2802L69.4004 50.7551L70.3741 50.1951L70.3423 50.281L71.4147 52.3017Z" fill="#FFC217"/>
<g opacity="0.1">
<path d="M71.4147 52.3017L69.7791 51.347C69.7469 51.3339 69.72 51.3104 69.7027 51.2802L69.4004 50.7551L70.3741 50.1951L70.3423 50.281L71.4147 52.3017Z" fill="black"/>
</g>
<path d="M70.2236 50.2843L71.3565 52.2445C71.3707 52.2767 71.3947 52.3037 71.4251 52.3216C71.4555 52.3395 71.4907 52.3474 71.5259 52.3443C71.561 52.3411 71.5942 52.327 71.6209 52.304C71.6476 52.2809 71.6664 52.2501 71.6747 52.2158L72.8712 48.7632L70.2236 50.2843Z" fill="#FFC217"/>
<path d="M76.4234 39.3566C76.4086 39.0821 76.3294 38.815 76.1923 38.5767C76.0552 38.3385 75.864 38.1358 75.6342 37.9851V37.9851C75.3878 37.8596 75.1152 37.7942 74.8387 37.7942C74.5621 37.7942 74.2895 37.8596 74.0431 37.9851L61.2445 45.3867C61.0138 45.5361 60.8217 45.7379 60.684 45.9757C60.5463 46.2136 60.4668 46.4806 60.4521 46.7551V53.2435C60.4668 53.5179 60.5463 53.785 60.684 54.0228C60.8217 54.2606 61.0138 54.4625 61.2445 54.6118V54.6118C61.4909 54.7373 61.7635 54.8027 62.04 54.8027C62.3166 54.8027 62.5892 54.7373 62.8356 54.6118L75.6947 47.1592C76.4043 46.7551 76.4107 46.3478 76.4107 45.8418L76.4234 39.3566Z" fill="#FFC217"/>
<path d="M64.709 48.887L73.8577 43.5792C74.1218 43.4264 74.3382 43.4964 74.3382 43.7351C74.319 43.8826 74.2655 44.0236 74.1821 44.1469C74.0986 44.2701 73.9876 44.3721 73.8577 44.4447L64.709 49.7526C64.4449 49.9053 64.2285 49.8353 64.2285 49.5966C64.2478 49.4491 64.3012 49.3081 64.3847 49.1849C64.4681 49.0617 64.5792 48.9597 64.709 48.887Z" fill="#455A64"/>
<path d="M67.4825 49.1321L73.8468 45.4344C74.1109 45.2817 74.3273 45.3517 74.3273 45.5903C74.308 45.7379 74.2546 45.8789 74.1711 46.0021C74.0877 46.1253 73.9766 46.2273 73.8468 46.2999L67.4825 49.9976C67.2183 50.1504 67.002 50.0803 67.002 49.8417C67.0212 49.6941 67.0747 49.5531 67.1581 49.4299C67.2415 49.3067 67.3526 49.2047 67.4825 49.1321V49.1321Z" fill="#455A64"/>
<path d="M64.709 47.0162L73.8577 41.7083C74.1218 41.5556 74.3382 41.6256 74.3382 41.8642C74.319 42.0118 74.2655 42.1528 74.1821 42.276C74.0986 42.3992 73.9876 42.5012 73.8577 42.5739L64.709 47.8817C64.4449 48.0344 64.2285 47.9644 64.2285 47.7258C64.2478 47.5782 64.3012 47.4372 64.3847 47.314C64.4681 47.1908 64.5792 47.0888 64.709 47.0162Z" fill="#455A64"/>
<path opacity="0.1" d="M60.4517 53.2341C60.4664 53.5085 60.5458 53.7756 60.6835 54.0134C60.8212 54.2513 61.0133 54.4531 61.244 54.6024V54.6024C61.4673 54.714 61.7115 54.7776 61.9609 54.7891C62.2103 54.8006 62.4593 54.7598 62.6919 54.6693C62.3196 54.8093 62.0364 54.5961 62.0364 54.1442V47.659C62.0458 47.3835 62.1258 47.1151 62.2687 46.8793L60.6776 45.9661C60.5351 46.2019 60.4552 46.4703 60.4453 46.7457L60.4517 53.2341Z" fill="black"/>
<path opacity="0.3" d="M76.3969 39.1308C76.3046 38.7967 75.9991 38.6885 75.6331 38.8985L62.8218 46.2875C62.5881 46.4333 62.3962 46.6372 62.2649 46.8794L60.6738 45.9693C60.8051 45.7271 60.997 45.5232 61.2307 45.3774L74.0357 37.9884C74.2823 37.8635 74.5548 37.7983 74.8312 37.7983C75.1077 37.7983 75.3802 37.8635 75.6268 37.9884C75.8261 38.1164 75.9972 38.2838 76.1296 38.4802C76.2621 38.6766 76.353 38.898 76.3969 39.1308V39.1308Z" fill="white"/>
<path d="M75.9421 49.8418L74.9429 49.269C74.7711 49.1907 74.5816 49.1595 74.3937 49.1785C74.2058 49.1975 74.0264 49.2661 73.8737 49.3772C73.4569 49.635 73.1086 49.9899 72.8586 50.4114C72.5505 50.8869 72.3758 51.4364 72.3527 52.0025C72.3327 52.1909 72.3631 52.3812 72.4408 52.554C72.5185 52.7267 72.6407 52.8757 72.795 52.9858L73.8005 53.5617C73.9745 53.6502 74.1697 53.6884 74.3642 53.6721C74.5586 53.6558 74.7447 53.5856 74.9016 53.4694C75.3445 53.1809 75.7131 52.7919 75.9774 52.334C76.2417 51.8762 76.3942 51.3625 76.4226 50.8346C76.4429 50.6408 76.4086 50.4452 76.3237 50.2698C76.2388 50.0944 76.1067 49.9462 75.9421 49.8418Z" fill="#455A64"/>
<path d="M74.9429 49.2724C74.7711 49.1941 74.5816 49.1629 74.3937 49.1819C74.2058 49.2009 74.0264 49.2695 73.8737 49.3806C73.4569 49.6384 73.1086 49.9933 72.8586 50.4148C72.5505 50.8903 72.3758 51.4398 72.3527 52.0059C72.3327 52.1943 72.3631 52.3846 72.4408 52.5574C72.5185 52.7301 72.6407 52.8792 72.795 52.9892L73.7878 53.5588C73.6469 53.4452 73.536 53.2988 73.465 53.1323C73.394 52.9658 73.3649 52.7845 73.3805 52.6041C73.403 52.0379 73.5778 51.4883 73.8865 51.0131C74.1364 50.5906 74.4846 50.2347 74.9016 49.9757C75.0496 49.8712 75.2211 49.8047 75.4008 49.782C75.5806 49.7592 75.7632 49.7809 75.9326 49.8452L74.9429 49.2724Z" fill="#37474F"/>
<path d="M74.8155 50.4783C75.0924 50.3161 75.3215 50.4497 75.3215 50.7711C75.3116 50.9464 75.2607 51.117 75.1728 51.269C75.085 51.421 74.9626 51.5502 74.8155 51.6462C74.5355 51.8085 74.3096 51.678 74.3096 51.3534C74.3192 51.1781 74.37 51.0074 74.4579 50.8554C74.5458 50.7033 74.6683 50.5742 74.8155 50.4783Z" fill="#FFC217"/>
<path d="M74.8791 53.253C75.2738 53.004 75.5956 52.6548 75.8115 52.2411V52.2029C75.8115 51.6715 75.4392 51.4582 74.9809 51.7224L74.6945 51.8878C74.4638 52.0388 74.2697 52.2394 74.1266 52.4751C73.9834 52.7108 73.8948 52.9755 73.8672 53.2498C73.8911 53.2748 73.9166 53.2982 73.9436 53.3198V53.3198C74.0898 53.3986 74.2554 53.4342 74.421 53.4223C74.5867 53.4105 74.7456 53.3518 74.8791 53.253Z" fill="#FFC217"/>
<path d="M70.9463 70.3539L70.0267 69.8225C70.0175 69.8193 70.0091 69.8143 70.002 69.8078C69.9949 69.8012 69.9892 69.7932 69.9853 69.7843L69.8135 69.4884L70.3608 69.1702L70.3449 69.2211L70.9463 70.3539Z" fill="#FFC217"/>
<g opacity="0.1">
<path d="M70.9463 70.3537L70.0267 69.8223C70.0175 69.8191 70.0091 69.8141 70.002 69.8075C69.9949 69.8009 69.9892 69.793 69.9853 69.7841L69.8135 69.4881L70.3608 69.1699L70.3449 69.2208L70.9463 70.3537Z" fill="black"/>
</g>
<path d="M70.2842 69.221L70.9206 70.322C70.9298 70.3376 70.9433 70.3502 70.9594 70.3584C70.9755 70.3666 70.9936 70.3701 71.0116 70.3684C71.0296 70.3668 71.0467 70.36 71.061 70.349C71.0754 70.338 71.0863 70.3231 71.0924 70.3061L71.7639 68.365L70.2842 69.221Z" fill="#FFC217"/>
<path d="M75.2658 63.7384C75.2503 63.4641 75.1706 63.1974 75.0329 62.9596C74.8953 62.7219 74.7036 62.52 74.4734 62.3701V62.3701C74.227 62.2446 73.9544 62.1792 73.6779 62.1792C73.4014 62.1792 73.1288 62.2446 72.8823 62.3701L68.3478 64.9858C68.118 65.1359 67.9268 65.3379 67.7897 65.5757C67.6526 65.8134 67.5734 66.0801 67.5586 66.3541V68.0852C67.5729 68.3598 67.6519 68.6271 67.789 68.8654C67.9261 69.1038 68.1176 69.3063 68.3478 69.4567C68.5937 69.5837 68.8665 69.65 69.1433 69.65C69.4201 69.65 69.6929 69.5837 69.9388 69.4567L74.5466 66.7901C75.2594 66.3859 75.2658 65.9786 75.2658 65.4758V63.7384Z" fill="#FFC217"/>
<path opacity="0.1" d="M67.5681 68.0854C67.5825 68.36 67.6614 68.6273 67.7985 68.8656C67.9357 69.104 68.1271 69.3066 68.3573 69.4569V69.4569C68.5801 69.57 68.8244 69.6345 69.0741 69.646C69.3237 69.6575 69.5729 69.6159 69.8052 69.5238C69.4329 69.667 69.1497 69.4537 69.1497 69.0019V67.2708C69.1595 66.9954 69.2395 66.727 69.382 66.4912L67.7909 65.5779C67.6484 65.8138 67.5684 66.0821 67.5586 66.3575L67.5681 68.0854Z" fill="black"/>
<path opacity="0.3" d="M75.2353 63.5253C75.143 63.188 74.8375 63.083 74.4716 63.293L69.937 65.9087C69.7027 66.0523 69.5105 66.2555 69.3801 66.4974L67.7891 65.5873C67.9222 65.3465 68.1137 65.143 68.3459 64.9955L72.8805 62.3797C73.1274 62.2557 73.3998 62.1912 73.676 62.1912C73.9523 62.1912 74.2247 62.2557 74.4716 62.3797V62.3797C74.6703 62.5084 74.8406 62.6765 74.972 62.8735C75.1033 63.0705 75.193 63.2923 75.2353 63.5253V63.5253Z" fill="white"/>
<path d="M70.8986 66.7804C70.7723 66.8625 70.6673 66.9734 70.5921 67.1039C70.5168 67.2344 70.4736 67.3809 70.4658 67.5314C70.4658 67.805 70.6567 67.9196 70.8986 67.7796C71.0244 67.6977 71.1292 67.5874 71.2044 67.4574C71.2796 67.3275 71.3231 67.1817 71.3314 67.0318C71.3314 66.7549 71.1373 66.6435 70.8986 66.7804Z" fill="#455A64"/>
<path d="M72.2677 65.9881C72.1415 66.0703 72.0364 66.1812 71.9612 66.3117C71.886 66.4422 71.8427 66.5887 71.835 66.7391C71.835 67.0128 72.0291 67.1273 72.2677 66.9873C72.3936 66.9055 72.4984 66.7951 72.5736 66.6652C72.6488 66.5352 72.6923 66.3894 72.7005 66.2395C72.7005 65.9627 72.5128 65.8513 72.2677 65.9881Z" fill="#455A64"/>
<path d="M73.6379 65.1957C73.512 65.2776 73.4072 65.3879 73.332 65.5179C73.2568 65.6478 73.2133 65.7936 73.2051 65.9435C73.2051 66.2204 73.3992 66.3317 73.6379 66.1949C73.7654 66.1118 73.8712 65.9994 73.9465 65.8672C74.0218 65.7349 74.0643 65.5865 74.0706 65.4344C74.0706 65.1703 73.8765 65.0589 73.6379 65.1957Z" fill="#455A64"/>
<path d="M75.9421 68.2124L74.9429 67.6396C74.7711 67.5613 74.5816 67.5301 74.3937 67.5491C74.2058 67.5681 74.0264 67.6367 73.8737 67.7478C73.4569 68.0056 73.1086 68.3605 72.8586 68.782C72.5505 69.2575 72.3758 69.807 72.3527 70.3731C72.3327 70.5615 72.3631 70.7518 72.4408 70.9246C72.5185 71.0973 72.6407 71.2463 72.795 71.3564L73.8005 71.9323C73.9745 72.0208 74.1697 72.059 74.3642 72.0427C74.5586 72.0264 74.7447 71.9562 74.9016 71.8401C75.3441 71.5518 75.7124 71.1633 75.9767 70.706C76.2409 70.2488 76.3937 69.7357 76.4226 69.2084C76.4431 69.0141 76.409 68.818 76.3241 68.642C76.2392 68.4661 76.1069 68.3173 75.9421 68.2124V68.2124Z" fill="#455A64"/>
<path d="M74.9429 67.6396C74.7711 67.5613 74.5816 67.5301 74.3937 67.5491C74.2058 67.5681 74.0264 67.6367 73.8737 67.7478C73.4569 68.0056 73.1086 68.3605 72.8586 68.782C72.5505 69.2575 72.3758 69.807 72.3527 70.3731C72.3327 70.5615 72.3631 70.7518 72.4408 70.9246C72.5185 71.0973 72.6407 71.2463 72.795 71.3564L73.7878 71.926C73.6469 71.8124 73.536 71.666 73.465 71.4995C73.394 71.333 73.3649 71.1516 73.3805 70.9713C73.403 70.4051 73.5778 69.8554 73.8865 69.3802C74.1373 68.9585 74.4853 68.6028 74.9016 68.3429C75.0496 68.2384 75.2211 68.1719 75.4008 68.1492C75.5806 68.1264 75.7632 68.1481 75.9326 68.2124L74.9429 67.6396Z" fill="#37474F"/>
<path d="M74.8155 68.8488C75.0924 68.6897 75.3215 68.8201 75.3215 69.1415C75.3116 69.3168 75.2607 69.4874 75.1728 69.6394C75.085 69.7914 74.9626 69.9206 74.8155 70.0166C74.5355 70.1789 74.3096 70.0484 74.3096 69.7239C74.3192 69.5485 74.37 69.3779 74.4579 69.2258C74.5458 69.0738 74.6683 68.9446 74.8155 68.8488Z" fill="#FFC217"/>
<path d="M74.8791 71.6209C75.2738 71.3719 75.5956 71.0227 75.8115 70.609V70.5708C75.8115 70.0394 75.4392 69.8262 74.9809 70.0903L74.6945 70.2558C74.4638 70.4067 74.2697 70.6074 74.1266 70.843C73.9834 71.0787 73.8948 71.3434 73.8672 71.6177C73.8911 71.6427 73.9166 71.6661 73.9436 71.6877V71.6877C74.0898 71.7665 74.2554 71.8021 74.421 71.7902C74.5867 71.7784 74.7456 71.7197 74.8791 71.6209V71.6209Z" fill="#FFC217"/>
<path d="M92.185 70.8048L90.5493 69.8502C90.5175 69.8349 90.4909 69.8106 90.473 69.7802L90.1738 69.2551L91.1444 68.6951L91.1126 68.781L92.185 70.8048Z" fill="#E0E0E0"/>
<path d="M90.9961 68.7874L92.1289 70.7476C92.1432 70.7799 92.1672 70.8068 92.1976 70.8247C92.228 70.8427 92.2632 70.8506 92.2983 70.8474C92.3334 70.8443 92.3667 70.8302 92.3934 70.8071C92.4201 70.7841 92.4389 70.7533 92.4472 70.719L93.6309 67.2727L90.9961 68.7874Z" fill="#F0F0F0"/>
<path d="M102.817 54.5887C102.802 54.314 102.722 54.0467 102.584 53.8085C102.447 53.5703 102.255 53.3677 102.025 53.2172V53.2172C101.779 53.0902 101.506 53.0239 101.229 53.0239C100.952 53.0239 100.68 53.0902 100.434 53.2172L87.6254 60.6029C87.3951 60.7535 87.2035 60.9561 87.0658 61.1943C86.9282 61.4325 86.8484 61.6998 86.833 61.9744V68.4597C86.8479 68.7345 86.9275 69.0019 87.0652 69.2402C87.2028 69.4785 87.3948 69.681 87.6254 69.8312V69.8312C87.8718 69.9566 88.1444 70.022 88.4209 70.022C88.6974 70.022 88.97 69.9566 89.2164 69.8312L102.098 62.3881C102.807 61.984 102.817 61.5767 102.817 61.0707V54.5887Z" fill="#F0F0F0"/>
<path d="M86.8552 68.4631C86.8702 68.7379 86.9497 69.0053 87.0874 69.2436C87.2251 69.4819 87.417 69.6844 87.6476 69.8346V69.8346C87.8703 69.9464 88.1142 70.0098 88.3632 70.0208C88.6121 70.0317 88.8606 69.99 89.0923 69.8983C88.72 70.0414 88.4368 69.8282 88.4368 69.3764V62.8911C88.4462 62.6157 88.5262 62.3472 88.6691 62.1115L87.078 61.1982C86.9355 61.4341 86.8556 61.7025 86.8457 61.9779L86.8552 68.4631Z" fill="#E0E0E0"/>
<path d="M102.817 54.363C102.725 54.0289 102.419 53.9207 102.053 54.1307L89.229 61.5197C88.9945 61.6645 88.8024 61.8687 88.6721 62.1116L87.0811 61.2015C87.2123 60.9593 87.4042 60.7553 87.6379 60.6096L100.443 53.2206C100.689 53.0956 100.962 53.0305 101.238 53.0305C101.515 53.0305 101.787 53.0956 102.034 53.2206V53.2206C102.236 53.3473 102.409 53.5141 102.544 53.7106C102.679 53.9071 102.771 54.1292 102.817 54.363V54.363Z" fill="#F5F5F5"/>
<path d="M90.5633 64.4373L99.712 59.1295C99.9793 58.9767 100.192 59.0467 100.192 59.2854C100.173 59.4329 100.12 59.5739 100.036 59.6972C99.9529 59.8204 99.8418 59.9224 99.712 59.995L90.5633 65.3028C90.2991 65.4556 90.0859 65.3856 90.0859 65.1469C90.1048 64.9997 90.1578 64.8589 90.2407 64.7357C90.3236 64.6125 90.434 64.5103 90.5633 64.4373V64.4373Z" fill="#455A64"/>
<path d="M90.5633 66.3181L96.9276 62.6204C97.1917 62.4677 97.4081 62.5377 97.4081 62.7764C97.3888 62.9239 97.3354 63.0649 97.2519 63.1881C97.1685 63.3113 97.0574 63.4133 96.9276 63.486L90.5633 67.1836C90.2991 67.3364 90.0859 67.2664 90.0859 67.0277C90.1048 66.8805 90.1578 66.7397 90.2407 66.6165C90.3236 66.4933 90.434 66.3911 90.5633 66.3181V66.3181Z" fill="#455A64"/>
<path d="M90.5633 62.5665L99.712 57.2586C99.9793 57.1059 100.192 57.1759 100.192 57.4145C100.173 57.5621 100.12 57.7031 100.036 57.8263C99.9529 57.9495 99.8418 58.0515 99.712 58.1242L90.5633 63.432C90.2991 63.5847 90.0859 63.5147 90.0859 63.2761C90.1048 63.1288 90.1578 62.988 90.2407 62.8648C90.3236 62.7416 90.434 62.6395 90.5633 62.5665V62.5665Z" fill="#455A64"/>
<path d="M19.2354 94.0689L21.5981 92.6899C21.645 92.6691 21.6837 92.6336 21.7085 92.5888L22.1681 91.8303L20.7615 91.0212L20.8075 91.1454L19.2354 94.0689Z" fill="#FFC217"/>
<g opacity="0.1">
<path d="M19.2334 94.0689L21.5962 92.6899C21.643 92.6691 21.6818 92.6336 21.7065 92.5888L22.1662 91.8303L20.7596 91.0212L20.8055 91.1454L19.2334 94.0689Z" fill="black"/>
</g>
<path d="M20.9545 91.1499L19.318 93.9816C19.2974 94.0282 19.2627 94.0671 19.2188 94.093C19.1749 94.1189 19.124 94.1303 19.0733 94.1257C19.0226 94.1212 18.9745 94.1008 18.936 94.0676C18.8974 94.0343 18.8702 93.9897 18.8583 93.9402L17.1299 88.9526L20.9545 91.1499Z" fill="#FFC217"/>
<path d="M12 75.3642C12.0212 74.9677 12.136 74.582 12.3349 74.2384C12.5339 73.8948 12.8113 73.6033 13.1446 73.3875V73.3875C13.5006 73.2063 13.8944 73.1118 14.2938 73.1118C14.6933 73.1118 15.0871 73.2063 15.443 73.3875L33.9499 84.0614C34.2818 84.2782 34.558 84.5701 34.7561 84.9135C34.9542 85.2569 35.0685 85.6422 35.0899 86.038V95.411C35.0685 95.8069 34.9542 96.1921 34.7561 96.5355C34.558 96.879 34.2818 97.1709 33.9499 97.3877V97.3877C33.594 97.5689 33.2002 97.6634 32.8007 97.6634C32.4013 97.6634 32.0075 97.5689 31.6515 97.3877L13.0343 86.6356C12.0092 86.0518 12 85.4634 12 84.7371V75.3642Z" fill="#FFC217"/>
<path d="M28.9214 89.132L15.71 81.4645C15.3285 81.2438 15.0205 81.345 15.0205 81.6897C15.0478 81.9025 15.1244 82.1059 15.2441 82.2838C15.3638 82.4618 15.5233 82.6094 15.71 82.7148L28.926 90.3824C29.3121 90.603 29.6201 90.5019 29.6201 90.1571C29.5918 89.9436 29.5138 89.7396 29.3925 89.5616C29.2712 89.3836 29.1098 89.2364 28.9214 89.132V89.132Z" fill="#455A64"/>
<path d="M24.9037 89.4857L15.71 84.1442C15.3285 83.9235 15.0205 84.0247 15.0205 84.3694C15.0465 84.5838 15.1224 84.789 15.2421 84.9687C15.3619 85.1483 15.5222 85.2973 15.71 85.4037L24.9037 90.7452C25.2853 90.9659 25.5978 90.8648 25.5978 90.52C25.5714 90.3052 25.4948 90.0997 25.3742 89.92C25.2536 89.7403 25.0925 89.5916 24.9037 89.4857V89.4857Z" fill="#455A64"/>
<path d="M28.9214 86.4292L15.71 78.7616C15.3285 78.541 15.0205 78.6421 15.0205 78.9869C15.0478 79.1996 15.1244 79.403 15.2441 79.5809C15.3638 79.7589 15.5233 79.9065 15.71 80.012L28.9214 87.7025C29.3075 87.9231 29.6155 87.822 29.6155 87.4772C29.5911 87.26 29.5155 87.0517 29.3948 86.8695C29.2741 86.6873 29.1118 86.5363 28.9214 86.4292V86.4292Z" fill="#455A64"/>
<path opacity="0.1" d="M35.0724 95.4111C35.051 95.807 34.9366 96.1922 34.7386 96.5356C34.5405 96.879 34.2643 97.171 33.9324 97.3877V97.3877C33.6105 97.5512 33.2576 97.6443 32.897 97.6609C32.5364 97.6775 32.1764 97.6173 31.8408 97.4843C32.3787 97.6865 32.7878 97.3785 32.7878 96.7304V87.3574C32.7735 86.9596 32.658 86.572 32.4522 86.2312L34.7506 84.9165C34.9574 85.2551 35.073 85.6416 35.0862 86.0381L35.0724 95.4111Z" fill="black"/>
<path opacity="0.3" d="M12.0322 75.0423C12.1655 74.555 12.6068 74.4033 13.1355 74.7067L31.647 85.4035C31.9855 85.611 32.2631 85.9044 32.4514 86.254L34.7498 84.9393C34.5576 84.5914 34.2809 84.2973 33.9454 84.0842L15.4293 73.3874C15.0731 73.2069 14.6794 73.1128 14.2801 73.1128C13.8808 73.1128 13.4871 73.2069 13.1309 73.3874C12.845 73.5742 12.6001 73.8172 12.4112 74.1017C12.2223 74.3863 12.0934 74.7063 12.0322 75.0423Z" fill="white"/>
<path d="M89.6199 35.264L87.857 34.2457C87.822 34.2313 87.7929 34.2055 87.7743 34.1725L87.4561 33.6061L88.503 33.0015L88.4712 33.0937L89.6199 35.264Z" fill="#263238"/>
<path d="M88.3389 33.0875L89.5576 35.2005C89.5765 35.2268 89.602 35.2477 89.6316 35.2611C89.6611 35.2744 89.6937 35.2797 89.7259 35.2765C89.7582 35.2733 89.789 35.2616 89.8153 35.2427C89.8417 35.2238 89.8625 35.1982 89.8758 35.1687L91.1487 31.4456L88.3389 33.0875Z" fill="#37474F"/>
<path d="M102.811 7.93869C102.795 7.64279 102.709 7.35481 102.561 7.09822C102.413 6.84163 102.206 6.62369 101.958 6.46217L101.264 6.06122C101 5.9263 100.708 5.85596 100.411 5.85596C100.115 5.85596 99.8226 5.9263 99.5585 6.06122L83.1673 15.5281C82.9189 15.6897 82.7121 15.9076 82.5639 16.1642C82.4157 16.4208 82.3302 16.7088 82.3145 17.0046V32.8136C82.3302 33.1095 82.4157 33.3975 82.5639 33.6541C82.7121 33.9106 82.9189 34.1286 83.1673 34.2901L83.861 34.6911C84.125 34.826 84.4173 34.8963 84.7138 34.8963C85.0103 34.8963 85.3026 34.826 85.5666 34.6911L102.037 25.1669C102.804 24.7309 102.811 24.2918 102.811 23.7476V7.93869Z" fill="#37474F"/>
<path d="M82.3145 32.8138C82.3302 33.1097 82.4157 33.3977 82.5639 33.6543C82.7121 33.9109 82.9189 34.1288 83.1673 34.2903L83.861 34.6913C84.1011 34.8127 84.3641 34.8819 84.6328 34.8945C84.9015 34.9071 85.1698 34.8628 85.4202 34.7645C85.0193 34.914 84.7138 34.6849 84.7138 34.2012V18.3891C84.7241 18.0922 84.8107 17.8028 84.9652 17.549L82.5658 16.1648C82.4109 16.4184 82.3243 16.7078 82.3145 17.0049V32.8138Z" fill="#263238"/>
<path d="M102.781 7.69703C102.683 7.33426 102.352 7.2197 101.957 7.44564L85.5594 16.9125C85.307 17.0689 85.0997 17.2882 84.9579 17.549L82.5586 16.1647C82.7013 15.9046 82.9084 15.6855 83.16 15.5283L99.5608 6.0614C99.8257 5.92918 100.118 5.86035 100.414 5.86035C100.71 5.86035 101.002 5.92918 101.266 6.0614L101.963 6.46235C102.176 6.60223 102.358 6.78375 102.499 6.99595C102.639 7.20816 102.735 7.44665 102.781 7.69703V7.69703Z" fill="#455A64"/>
<path d="M86.4043 19.4485C86.4099 19.3566 86.437 19.2672 86.4834 19.1876C86.5298 19.108 86.5943 19.0404 86.6716 18.9903L100.199 11.1717C100.282 11.131 100.373 11.1099 100.465 11.1099C100.557 11.1099 100.648 11.131 100.73 11.1717L101.029 11.3436C101.106 11.3944 101.169 11.4622 101.215 11.5417C101.261 11.6212 101.288 11.7102 101.294 11.8018V22.182C101.288 22.274 101.261 22.3635 101.215 22.4435C101.169 22.5235 101.106 22.5919 101.029 22.6434L87.499 30.462C87.4163 30.5027 87.3254 30.5238 87.2333 30.5238C87.1411 30.5238 87.0502 30.5027 86.9675 30.462L86.6716 30.2901C86.5942 30.2393 86.5298 30.1711 86.4834 30.091C86.437 30.0109 86.4099 29.9211 86.4043 29.8287V19.4485Z" fill="#FFC217"/>
<path opacity="0.4" d="M86.4043 19.4485C86.4099 19.3566 86.437 19.2672 86.4834 19.1876C86.5298 19.108 86.5943 19.0404 86.6716 18.9903L100.199 11.1717C100.282 11.131 100.373 11.1099 100.465 11.1099C100.557 11.1099 100.648 11.131 100.73 11.1717L101.029 11.3436C101.106 11.3944 101.169 11.4622 101.215 11.5417C101.261 11.6212 101.288 11.7102 101.294 11.8018V22.182C101.288 22.274 101.261 22.3635 101.215 22.4435C101.169 22.5235 101.106 22.5919 101.029 22.6434L87.499 30.462C87.4163 30.5027 87.3254 30.5238 87.2333 30.5238C87.1411 30.5238 87.0502 30.5027 86.9675 30.462L86.6716 30.2901C86.5942 30.2393 86.5298 30.1711 86.4834 30.091C86.437 30.0109 86.4099 29.9211 86.4043 29.8287V19.4485Z" fill="white"/>
<path d="M87.6453 19.8624L86.4839 19.1877C86.4359 19.2667 86.4085 19.3564 86.4043 19.4487V29.8289C86.4099 29.9213 86.437 30.0111 86.4834 30.0912C86.5298 30.1713 86.5942 30.2395 86.6716 30.2903L86.9675 30.4621C87.0502 30.5028 87.1411 30.524 87.2333 30.524C87.3254 30.524 87.4163 30.5028 87.499 30.4621L87.6453 30.3762V19.8624Z" fill="#FFC217"/>
<path opacity="0.3" d="M87.6453 19.8624L86.4839 19.1877C86.4359 19.2667 86.4085 19.3564 86.4043 19.4487V29.8289C86.4099 29.9213 86.437 30.0111 86.4834 30.0912C86.5298 30.1713 86.5942 30.2395 86.6716 30.2903L86.9675 30.4621C87.0502 30.5028 87.1411 30.524 87.2333 30.524C87.3254 30.524 87.4163 30.5028 87.499 30.4621L87.6453 30.3762V19.8624Z" fill="black"/>
<path d="M101.305 11.8019V22.1853C101.3 22.2715 101.276 22.3554 101.235 22.4313C101.193 22.5072 101.136 22.5731 101.067 22.6245V22.6245H101.051L87.4979 30.4621C87.4716 30.4802 87.4413 30.4914 87.4096 30.4947C87.3779 30.498 87.3459 30.4934 87.3165 30.4812C87.2882 30.4624 87.2657 30.436 87.2516 30.4051C87.2375 30.3741 87.2325 30.3399 87.2369 30.3062V19.9292C87.234 19.892 87.2403 19.8548 87.2553 19.8207C87.2702 19.7866 87.2934 19.7567 87.3227 19.7337C87.352 19.7107 87.3865 19.6953 87.4231 19.6889C87.4598 19.6825 87.4975 19.6852 87.5329 19.6969L93.2289 21.0493L93.9736 21.2275C94.0618 21.2437 94.1528 21.2357 94.2368 21.2043C94.3209 21.1729 94.3948 21.1193 94.4509 21.0493L95.3132 19.8464L101.13 11.7478C101.226 11.6078 101.305 11.6333 101.305 11.8019Z" fill="#FFC217"/>
<path d="M101.041 22.6438H101.057C101.121 22.5983 101.174 22.5397 101.213 22.4719C101.263 22.3922 101.291 22.3014 101.296 22.2078L95.3008 19.8625L99.3135 23.6525L101.041 22.6438Z" fill="#FFC217"/>
<path opacity="0.2" d="M101.041 22.6438H101.057C101.121 22.5983 101.174 22.5397 101.213 22.4719C101.263 22.3922 101.291 22.3014 101.296 22.2078L95.3008 19.8625L99.3135 23.6525L101.041 22.6438Z" fill="black"/>
<path d="M87.2337 30.3062C87.2292 30.3399 87.2343 30.3742 87.2483 30.4051C87.2624 30.4361 87.2849 30.4624 87.3132 30.4812C87.3426 30.4934 87.3746 30.4981 87.4063 30.4947C87.438 30.4914 87.4683 30.4802 87.4946 30.4621V30.4621L92.1564 27.77L93.2225 21.0461L87.2305 30.1344L87.2337 30.3062Z" fill="#FFC217"/>
<path opacity="0.2" d="M87.2337 30.3062C87.2292 30.3399 87.2343 30.3742 87.2483 30.4051C87.2624 30.4361 87.2849 30.4624 87.3132 30.4812C87.3426 30.4934 87.3746 30.4981 87.4063 30.4947C87.438 30.4914 87.4683 30.4802 87.4946 30.4621V30.4621L92.1564 27.77L93.2225 21.0461L87.2305 30.1344L87.2337 30.3062Z" fill="black"/>
<path d="M101.222 22.4526C101.183 22.5204 101.13 22.579 101.067 22.6244V22.6244L87.4978 30.462C87.4716 30.4801 87.4412 30.4913 87.4095 30.4946C87.3778 30.498 87.3458 30.4933 87.3164 30.4811L93.8016 20.1296C93.9319 19.9229 94.132 19.7698 94.3655 19.698C94.5991 19.6261 94.8506 19.6404 95.0745 19.7382L101.222 22.4526Z" fill="#FFC217"/>
<path opacity="0.3" d="M87.3428 19.6777L93.5162 22.3985C93.7392 22.5 93.9916 22.5165 94.226 22.445C94.4604 22.3735 94.6606 22.2189 94.789 22.0102L101.236 11.6555L87.3428 19.6777Z" fill="black"/>
<path d="M87.3428 19.6777L93.548 21.9975C93.7626 22.0773 93.998 22.0817 94.2154 22.01C94.4328 21.9383 94.6194 21.7947 94.7445 21.6029L101.236 11.6555L87.3428 19.6777Z" fill="#FFC217"/>
<path d="M106.391 4.01853L104.971 3.17526C104.481 2.89841 103.807 2.93978 103.062 3.36937C101.563 4.23492 100.348 6.3415 100.348 8.07578C100.348 8.93814 100.65 9.54593 101.14 9.83233L102.473 10.596L102.712 10.1951C102.987 10.1292 103.249 10.0219 103.492 9.87688C104.994 9.00815 106.209 6.90156 106.209 5.17047C106.209 4.93661 106.18 4.70367 106.123 4.47676L106.391 4.01853Z" fill="#F28F8F"/>
<path d="M104.412 4.15874C102.913 5.02429 101.697 7.13087 101.697 8.86197C101.697 10.5931 102.913 11.2995 104.412 10.4308C105.91 9.56204 107.129 7.45864 107.129 5.72754C107.129 3.99645 105.926 3.29319 104.412 4.15874Z" fill="#FFA8A7"/>
<path d="M103.441 7.36901C103.423 7.34293 103.416 7.31096 103.422 7.27991C103.428 7.24037 103.442 7.20248 103.463 7.16853L104.252 5.89567L104.326 5.78748C104.351 5.74886 104.385 5.71628 104.424 5.69201L104.87 5.43108C104.881 5.42396 104.893 5.42017 104.906 5.42017C104.919 5.42017 104.932 5.42396 104.943 5.43108C104.953 5.4409 104.961 5.45284 104.966 5.46605C104.971 5.47926 104.973 5.49339 104.971 5.50745V8.6896C104.971 8.72743 104.961 8.76451 104.943 8.7978C104.926 8.83052 104.901 8.85803 104.87 8.87735L104.389 9.15738C104.379 9.16512 104.367 9.16932 104.354 9.16932C104.341 9.16932 104.329 9.16512 104.319 9.15738C104.309 9.14756 104.301 9.13561 104.296 9.12241C104.291 9.1092 104.289 9.09506 104.29 9.08101V6.92987L103.851 7.62676C103.835 7.65687 103.81 7.6805 103.778 7.69359C103.769 7.70107 103.757 7.70514 103.745 7.70514C103.733 7.70514 103.721 7.70107 103.711 7.69359L103.441 7.36901Z" fill="white"/>
</svg>
