<svg width="39" height="28" viewBox="0 0 39 28" fill="none" xmlns="http://www.w3.org/2000/svg">
<path d="M34 0H5C2.23858 0 0 2.23858 0 5V23C0 25.7614 2.23858 28 5 28H34C36.7614 28 39 25.7614 39 23V5C39 2.23858 36.7614 0 34 0Z" fill="#707070"/>
<path d="M33 2H6C3.79086 2 2 3.79086 2 6V22C2 24.2091 3.79086 26 6 26H33C35.2091 26 37 24.2091 37 22V6C37 3.79086 35.2091 2 33 2Z" fill="white"/>
<path d="M6.19531 17.2554V24.0205H34.1064V12.9966L26.5903 5.98047L17.0693 14.4995L13.2612 11.3926L6.19531 17.2554Z" fill="#707070"/>
<path d="M7.94141 10.2227C9.59826 10.2227 10.9414 8.87951 10.9414 7.22266C10.9414 5.5658 9.59826 4.22266 7.94141 4.22266C6.28455 4.22266 4.94141 5.5658 4.94141 7.22266C4.94141 8.87951 6.28455 10.2227 7.94141 10.2227Z" fill="#707070"/>
</svg>
