<svg width="30" height="30" viewBox="0 0 30 30" fill="none" xmlns="http://www.w3.org/2000/svg">
<rect width="30" height="30" rx="2" fill="#F9A84A"/>
<path d="M9.91247 16.58V11.92H8.19247V16.59C8.19247 17.21 8.06247 17.64 7.50247 17.64C7.14247 17.64 6.88247 17.39 6.79247 17.02L5.28247 17.53C5.54247 18.5 6.39247 19.19 7.58247 19.19C9.51247 19.19 9.91247 17.7 9.91247 16.58Z" fill="white"/>
<path d="M16.7054 14.1C16.7054 12.48 15.4854 11.92 13.9354 11.92H11.3354V19H13.0454V16.33H13.8954C15.3754 16.33 16.7054 15.74 16.7054 14.1ZM14.9954 14.11C14.9954 14.78 14.4054 14.97 13.7654 14.97H13.0454V13.3H13.7954C14.4054 13.3 14.9954 13.43 14.9954 14.11Z" fill="white"/>
<path d="M24.0219 18.57V14.82H21.1019V16.2H22.4519V17.49C22.1519 17.62 21.7819 17.68 21.3819 17.68C19.9919 17.68 19.2219 16.75 19.2219 15.45C19.2219 14.18 20.1019 13.24 21.3019 13.24C21.9919 13.24 22.5619 13.52 22.8919 13.9L23.9719 12.67C23.3819 12.1 22.3519 11.73 21.2419 11.73C19.0819 11.73 17.4019 13.18 17.4019 15.45C17.4019 17.68 19.0319 19.18 21.2919 19.18C22.3819 19.18 23.3319 18.93 24.0219 18.57Z" fill="white"/>
</svg>
