<svg width="120" height="120" viewBox="0 0 120 120" fill="none" xmlns="http://www.w3.org/2000/svg">
<path d="M49.4118 50.2941L41.0294 39.7059L40.1471 37.0588L38.3824 34.4117L37.5 31.7647C38.6765 30.8823 41.1176 29.0294 41.4706 28.6764C41.8235 28.3235 43.3824 26.1764 44.1176 25.147L49.8529 19.4117L57.3529 21.1764L62.2059 24.2647H67.9412H74.1176L76.7647 27.3529L81.1765 30.4412V33.5294L78.5294 37.0588L76.7647 40.147L74.5588 46.3235L67.5 52.9412V56.9117L66.6176 61.7647L63.0882 65.2941C60.8824 65.4412 56.3824 65.647 56.0294 65.2941C55.6765 64.9412 53.8235 63.3823 52.9412 62.647C52.3529 60.5882 51.1765 56.2059 51.1765 55.147C51.1765 54.0882 50 51.4706 49.4118 50.2941Z" fill="white"/>
<path d="M3.76471 108.971C3.76471 103.962 7.77282 99.9412 12.6693 99.9412H106.448C111.345 99.9412 115.353 103.962 115.353 108.971C115.353 113.979 111.345 118 106.448 118H12.6693C7.77282 118 3.76471 113.979 3.76471 108.971Z" fill="white" stroke="#003183" stroke-width="4"/>
<path d="M73.9618 23.9015C72.4834 22.3245 62.3396 22.0945 57.4526 22.1766C55.3581 21.3963 50.775 19.8358 49.198 19.8358C47.621 19.8358 42.9556 25.7495 40.8201 28.7064C40.2452 28.2957 39.1692 25.6017 39.4649 18.1109C39.8345 8.74747 48.7051 4.92817 55.6045 1.9713C62.5039 -0.985584 71.3745 5.29778 75.5634 8.99388C78.9146 11.9508 79.2595 23.3676 79.0131 28.7064C77.9454 27.7618 75.4402 25.4785 73.9618 23.9015Z" fill="#F9A84A"/>
<path d="M59.1775 66.2834C54.2493 66.6777 51.1282 59.8358 50.9228 56.92V55.4415C47.966 55.6469 40.6477 56.5011 35.0296 58.2752C28.007 60.4929 24.1877 68.8707 22.7093 76.1397C21.2308 83.4087 26.0358 84.1479 28.9927 85.1335C31.9495 86.1191 58.5614 85.1335 67.8017 85.1335C77.0419 85.1335 91.9495 85.1335 94.5368 82.7927C97.1241 80.4518 96.1384 77.6181 91.9495 66.8994C88.5984 58.3245 76.0974 55.6879 70.2657 55.4415C69.4444 55.9343 67.5799 57.5606 66.6929 60.1233C65.584 63.3265 65.3376 65.7906 59.1775 66.2834Z" fill="#FFC217"/>
<path fill-rule="evenodd" clip-rule="evenodd" d="M55.993 0.265287C47.5783 1.67744 40.827 7.80287 38.3057 16.3128C37.8521 17.8437 37.7538 18.9168 37.6587 23.3777L37.5466 28.6375L36.7903 29.8543C35.6899 31.6245 35.594 33.3158 36.4905 35.1481C37.0074 36.2049 37.4532 36.713 38.3545 37.2733C39.4946 37.982 39.5449 38.0618 39.691 39.3986C39.7746 40.1625 40.0151 41.2863 40.2257 41.8962C41.1111 44.4605 43.8114 48.2852 47.356 51.9951L49.1698 53.8937L45.6625 54.0462C41.6022 54.2229 38.4898 54.9069 35.5361 56.2715C26.8045 60.3059 21.0871 69.0568 21.0871 78.3873C21.0871 80.8582 21.7211 82.6018 23.2298 84.2798C24.6252 85.8319 26.2269 86.668 28.4091 86.9834C30.662 87.3092 87.9002 87.3089 90.1534 86.9832C93.0728 86.5611 95.4146 84.8924 96.6674 82.3418C97.3009 81.0517 97.3492 80.739 97.3388 77.9947C97.325 74.3524 96.7063 71.6419 95.1296 68.3132C93.7802 65.4647 92.3866 63.4839 90.1733 61.2684C85.3075 56.3984 79.0629 53.9701 71.405 53.9701H69.3485L71.5935 51.5528C76.4031 46.3744 78.3897 42.99 78.8707 39.1544C79.001 38.1156 79.1193 37.9485 80.202 37.2756C81.1073 36.7128 81.5521 36.2062 82.0698 35.1481C82.9738 33.3005 82.8718 31.6267 81.7452 29.8141L80.9639 28.5574V24.0048C80.9639 17.4016 80.1209 14.0094 77.4681 9.93502C72.8608 2.85946 64.0838 -1.09291 55.993 0.265287ZM61.6498 3.96927C70.6436 5.22003 77.2678 12.8978 77.2678 22.071V23.9504L76.1395 22.9571C74.2776 21.3183 73.1725 21.0834 68.7872 21.3951C65.012 21.6635 62.1175 21.5159 60.0006 20.9474C59.4011 20.7863 57.8325 20.0934 56.5149 19.4076C54.3532 18.282 53.9274 18.1492 52.1498 18.0465C48.2285 17.8195 45.8827 19.1597 43.225 23.1454C42.2675 24.5814 41.427 25.812 41.3572 25.8797C41.0505 26.1781 41.5374 18.7465 41.9136 17.3888C43.858 10.3699 49.7979 4.98299 56.7017 3.9774C58.8033 3.67112 59.4992 3.67013 61.6498 3.96927ZM55.3687 23.0172C59.1106 25.0405 63.194 25.6841 68.9521 25.1585C71.6916 24.9084 72.1985 24.921 72.9054 25.2563C73.8553 25.7073 74.4415 26.5995 74.6909 27.9742C75.0319 29.8553 76.0961 31.0543 77.4245 31.0543C78.0583 31.0543 78.9926 32.0409 78.9926 32.7101C78.9926 33.4346 77.9614 34.504 77.2629 34.504C75.8773 34.504 75.4101 35.3627 75.1854 38.3233C75.0026 40.7326 74.2732 42.3441 72.0073 45.3459C69.7494 48.3368 66.039 52.0636 64.685 52.7011C63.0206 53.4847 60.9276 53.7961 58.2945 53.652C54.6748 53.4541 53.4787 52.9002 50.7685 50.168C48.009 47.3861 45.1408 43.7181 44.2311 41.8075C43.8013 40.9049 43.4872 39.7497 43.3935 38.7274C43.0774 35.2772 42.7071 34.504 41.3698 34.504C40.5207 34.504 39.5676 33.61 39.5676 32.8136C39.5676 31.9729 40.4805 31.0543 41.3166 31.0543C42.3793 31.0543 43.3031 30.0677 45.3801 26.7146C47.9777 22.5207 49.1861 21.6083 51.9005 21.7901C52.9489 21.8601 53.7584 22.1467 55.3687 23.0172ZM56.0768 57.1936C58.5108 57.5947 62.58 57.3988 64.5057 56.7875C64.9797 56.6372 64.998 56.7188 64.9122 58.6067C64.8339 60.3301 64.7269 60.7192 64.0764 61.6447C63.6661 62.2282 62.7882 63.0411 62.1254 63.4508C59.8712 64.8448 56.6758 64.33 54.9616 62.2972C54.0218 61.1824 53.6921 60.2944 53.4817 58.3091L53.3015 56.6108L54.0114 56.7905C54.402 56.8893 55.3314 57.0706 56.0768 57.1936ZM49.8514 59.7498C50.3964 63.1751 52.2344 65.6631 55.2881 67.11C56.7825 67.8176 57.1615 67.8921 59.2801 67.8921C61.3839 67.8921 61.7831 67.8152 63.2234 67.1326C66.245 65.7005 68.1914 63.0423 68.732 59.6086L69.0077 57.8577L72.953 57.9653C76.5976 58.0649 77.0766 58.1336 79.239 58.8679C87.4084 61.6417 92.8486 68.5487 93.6543 77.1708C93.9261 80.0803 93.1509 81.8503 91.1883 82.8004C90.1889 83.2841 89.6534 83.2925 59.2801 83.2925H28.3884L27.3089 82.7699C26.6564 82.454 25.9674 81.8508 25.5678 81.2456C24.9512 80.3119 24.9091 80.0759 24.9463 77.7641C25.0944 68.5778 32.0603 60.3355 41.4156 58.277C42.2288 58.0981 44.3937 57.9429 46.2267 57.9321L49.5591 57.9126L49.8514 59.7498Z" fill="#003183"/>
<rect width="42.4609" height="7.3064" transform="translate(13.9935 105.617)" fill="white"/>
<path fill-rule="evenodd" clip-rule="evenodd" d="M14.2864 105.91C14.6769 105.519 15.3101 105.519 15.7006 105.91L17.6338 107.843L19.567 105.91C19.9575 105.519 20.5907 105.519 20.9812 105.91C21.3717 106.3 21.3717 106.934 20.9812 107.324L19.048 109.257L20.9812 111.19C21.3717 111.581 21.3717 112.214 20.9812 112.605C20.5907 112.995 19.9575 112.995 19.567 112.605L17.6338 110.671L15.7006 112.605C15.3101 112.995 14.6769 112.995 14.2864 112.605C13.8959 112.214 13.8959 111.581 14.2864 111.19L16.2196 109.257L14.2864 107.324C13.8959 106.934 13.8959 106.3 14.2864 105.91Z" fill="#003183"/>
<path fill-rule="evenodd" clip-rule="evenodd" d="M26.567 105.91C26.9575 105.519 27.5907 105.519 27.9812 105.91L29.9144 107.843L31.8476 105.91C32.2381 105.519 32.8713 105.519 33.2618 105.91C33.6523 106.3 33.6523 106.934 33.2618 107.324L31.3286 109.257L33.2618 111.19C33.6523 111.581 33.6523 112.214 33.2618 112.605C32.8713 112.995 32.2381 112.995 31.8476 112.605L29.9144 110.671L27.9812 112.605C27.5907 112.995 26.9575 112.995 26.567 112.605C26.1765 112.214 26.1765 111.581 26.567 111.19L28.5002 109.257L26.567 107.324C26.1765 106.934 26.1765 106.3 26.567 105.91Z" fill="#003183"/>
<path fill-rule="evenodd" clip-rule="evenodd" d="M38.8476 105.91C39.2381 105.519 39.8713 105.519 40.2618 105.91L42.195 107.843L44.1282 105.91C44.5187 105.519 45.1519 105.519 45.5424 105.91C45.9329 106.3 45.9329 106.934 45.5424 107.324L43.6092 109.257L45.5424 111.19C45.9329 111.581 45.9329 112.214 45.5424 112.605C45.1519 112.995 44.5187 112.995 44.1282 112.605L42.195 110.671L40.2618 112.605C39.8713 112.995 39.2381 112.995 38.8476 112.605C38.4571 112.214 38.4571 111.581 38.8476 111.19L40.7808 109.257L38.8476 107.324C38.4571 106.934 38.4571 106.3 38.8476 105.91Z" fill="#003183"/>
<path fill-rule="evenodd" clip-rule="evenodd" d="M51.1282 105.91C51.5187 105.519 52.1518 105.519 52.5424 105.91L54.4756 107.843L56.4087 105.91C56.7993 105.519 57.4324 105.519 57.823 105.91C58.2135 106.3 58.2135 106.934 57.823 107.324L55.8898 109.257L57.823 111.19C58.2135 111.581 58.2135 112.214 57.823 112.605C57.4324 112.995 56.7993 112.995 56.4087 112.605L54.4756 110.671L52.5424 112.605C52.1518 112.995 51.5187 112.995 51.1282 112.605C50.7376 112.214 50.7376 111.581 51.1282 111.19L53.0613 109.257L51.1282 107.324C50.7376 106.934 50.7376 106.3 51.1282 105.91Z" fill="#003183"/>
</svg>
