<svg width="100" height="86" viewBox="0 0 100 86" fill="none" xmlns="http://www.w3.org/2000/svg">
<path d="M22.6336 79.1159C39.7518 88.2948 67.5064 88.2948 84.6246 79.1159C101.743 69.937 101.745 55.0504 84.6246 45.8714C67.5039 36.6925 39.7518 36.6901 22.6336 45.8714C5.51536 55.0528 5.51536 69.9345 22.6336 79.1159Z" fill="#EBEBEB"/>
<path d="M89.6603 56.3413L87.1634 54.8828C87.1634 54.8828 86.5512 49.5082 86.9577 45.3465C87.5311 39.4954 91.2911 32.463 95.7745 34.1111C100.258 35.7592 93.7155 41.7318 92.2638 46.6908C90.812 51.6497 89.6603 56.3413 89.6603 56.3413Z" fill="#176CF7"/>
<path opacity="0.1" d="M89.6603 56.3413L87.1634 54.8828C87.1634 54.8828 86.5512 49.5082 86.9577 45.3465C87.5311 39.4954 91.2911 32.463 95.7745 34.1111C100.258 35.7592 93.7155 41.7318 92.2638 46.6908C90.812 51.6497 89.6603 56.3413 89.6603 56.3413Z" fill="black"/>
<path d="M88.361 55.6824C88.3376 55.6827 88.315 55.6744 88.2972 55.6593C88.2794 55.6441 88.2677 55.6229 88.2642 55.5998C87.4149 49.0364 89.7401 39.1161 94.434 35.3531C94.4437 35.3453 94.4548 35.3394 94.4667 35.3359C94.4787 35.3324 94.4912 35.3312 94.5036 35.3326C94.5159 35.3339 94.5279 35.3377 94.5388 35.3438C94.5497 35.3498 94.5593 35.3579 94.5671 35.3677C94.583 35.3877 94.5904 35.4133 94.5877 35.4388C94.585 35.4643 94.5724 35.4876 94.5526 35.5038C89.9095 39.2279 87.6133 49.0705 88.4553 55.573C88.4588 55.5985 88.4521 55.6243 88.4366 55.6448C88.4212 55.6653 88.3984 55.6788 88.3731 55.6824H88.361Z" fill="white"/>
<path d="M90.9943 57.3792L89.2184 56.3461C89.2184 56.3461 88.9159 52.6585 90.716 48.1784C92.2815 44.2891 96.1697 41.0414 98.1247 41.7221C100.08 42.4027 100.031 43.7956 99.078 45.2565C98.1247 46.7175 92.325 50.2009 90.9943 57.3792Z" fill="#176CF7"/>
<path d="M89.8926 57.4741C89.8799 57.4734 89.8676 57.4703 89.8562 57.4648C89.8448 57.4593 89.8346 57.4515 89.8263 57.442C89.8179 57.4325 89.8116 57.4214 89.8076 57.4094C89.8036 57.3973 89.802 57.3846 89.803 57.372C90.3886 48.193 95.0099 43.6789 97.7875 42.991C97.8125 42.985 97.8388 42.989 97.8609 43.0022C97.8831 43.0153 97.8992 43.0366 97.9061 43.0615C97.9119 43.0863 97.9079 43.1124 97.8947 43.1342C97.8816 43.1561 97.8605 43.1718 97.8359 43.1782C94.9107 43.9074 90.5458 48.7934 89.999 57.3841C89.9981 57.3971 89.9946 57.4098 89.9887 57.4214C89.9828 57.433 89.9747 57.4434 89.9648 57.4518C89.9548 57.4601 89.9433 57.4664 89.9309 57.4703C89.9185 57.4741 89.9055 57.4754 89.8926 57.4741Z" fill="white"/>
<path d="M17.7425 57.056C17.7425 57.056 18.074 51.6667 14.9576 47.9718C11.8412 44.2769 7.78368 44.2915 6.44083 44.9794C5.09799 45.6674 4.1955 47.6339 6.50616 49.0414C8.81682 50.4489 13.7309 53.2662 14.5487 55.7798L17.7425 57.056Z" fill="#176CF7"/>
<path opacity="0.1" d="M17.7425 57.056C17.7425 57.056 18.074 51.6667 14.9576 47.9718C11.8412 44.2769 7.78368 44.2915 6.44083 44.9794C5.09799 45.6674 4.1955 47.6339 6.50616 49.0414C8.81682 50.4489 13.7309 53.2662 14.5487 55.7798L17.7425 57.056Z" fill="black"/>
<path d="M16.2762 55.7065C16.2463 55.7062 16.2175 55.6949 16.1952 55.6747C16.173 55.6546 16.1588 55.627 16.1552 55.5972C15.5141 49.6343 9.58136 46.3307 7.21747 45.9564C7.20158 45.954 7.18632 45.9485 7.17255 45.9401C7.15879 45.9318 7.14679 45.9209 7.13724 45.9079C7.12769 45.8949 7.12078 45.8802 7.1169 45.8645C7.11302 45.8488 7.11225 45.8326 7.11463 45.8166C7.11702 45.8006 7.12251 45.7853 7.13079 45.7715C7.13907 45.7576 7.14998 45.7456 7.1629 45.736C7.17582 45.7264 7.19049 45.7194 7.20608 45.7156C7.22167 45.7117 7.23787 45.7109 7.25376 45.7133C9.6733 46.0949 15.7391 49.4738 16.3972 55.5704C16.3989 55.5864 16.3974 55.6025 16.3928 55.6179C16.3882 55.6333 16.3806 55.6476 16.3705 55.6601C16.3604 55.6725 16.3479 55.6828 16.3338 55.6904C16.3197 55.6979 16.3042 55.7026 16.2883 55.7041L16.2762 55.7065Z" fill="white"/>
<path d="M15.1223 54.3382C14.3408 52.5491 13.4576 51.7469 10.9171 52.1747C8.3766 52.6026 8.73953 52.5369 5.63042 51.7372C4.31903 51.4017 2.84553 51.3482 1.58737 51.917C0.525193 52.4032 -0.268415 53.3756 0.759889 54.4111C1.91643 55.5682 3.64156 55.9644 4.91908 56.983C5.20889 57.1888 5.43929 57.4681 5.58687 57.7924C5.92318 58.653 5.25055 59.6229 5.44654 60.5247C5.64252 61.4266 6.58614 61.9079 7.47169 61.9662C8.35724 62.0246 9.23069 61.7572 10.1138 61.6551C10.997 61.553 11.989 61.6551 12.5987 62.3138C13.252 63.0115 13.2689 64.1273 13.8762 64.8687C14.786 65.9796 17.0216 66.2883 18.2314 65.5979L21.3986 63.7626C23.4915 60.9282 20.1888 58.6821 18.4588 56.4822C17.6192 55.4102 15.5917 55.4151 15.1223 54.3382Z" fill="#176CF7"/>
<path d="M19.4371 62.0511C19.4165 62.0516 19.3962 62.0464 19.3783 62.0361C19.3604 62.0258 19.3456 62.0109 19.3355 61.9928C15.7231 56.1125 5.88771 53.1372 2.40841 52.8941C2.37674 52.8916 2.34731 52.8767 2.32649 52.8526C2.30566 52.8285 2.29511 52.7971 2.29712 52.7652C2.29959 52.7332 2.31435 52.7034 2.33827 52.6821C2.36219 52.6608 2.39341 52.6496 2.42535 52.651C5.95062 52.8941 15.8804 55.9132 19.5412 61.8712C19.5574 61.8991 19.5621 61.9322 19.5545 61.9635C19.5468 61.9948 19.5273 62.0219 19.5 62.039C19.4803 62.0478 19.4587 62.0519 19.4371 62.0511Z" fill="white"/>
<path d="M7.99402 59.2799C7.97518 59.2803 7.95651 59.2761 7.93965 59.2676C7.92279 59.2591 7.90823 59.2467 7.89724 59.2313C7.87799 59.2055 7.86973 59.1731 7.87426 59.1412C7.8788 59.1092 7.89577 59.0805 7.92144 59.0611C8.04725 58.9663 11.0475 56.7542 13.9703 56.7105C13.9861 56.7102 14.0017 56.713 14.0164 56.7188C14.0311 56.7247 14.0444 56.7334 14.0557 56.7445C14.067 56.7556 14.0759 56.7688 14.082 56.7834C14.0881 56.798 14.0913 56.8137 14.0913 56.8296C14.0916 56.8455 14.0888 56.8614 14.083 56.8763C14.0772 56.8912 14.0686 56.9047 14.0575 56.9162C14.0465 56.9278 14.0334 56.937 14.0188 56.9434C14.0043 56.9498 13.9886 56.9532 13.9727 56.9536C11.1346 56.9949 8.1029 59.2337 8.07145 59.2556C8.0496 59.2732 8.02196 59.2819 7.99402 59.2799Z" fill="white"/>
<path d="M19.2109 64.1173C19.2368 64.4708 19.3451 64.8132 19.5271 65.1168C19.7091 65.4204 19.9597 65.6768 20.2586 65.865L49.6149 82.8932C49.9395 83.0587 50.2985 83.145 50.6625 83.145C51.0266 83.145 51.3855 83.0587 51.7102 82.8932L91.8745 59.5934C92.1911 59.4256 92.4561 59.1741 92.6409 58.8661C92.8258 58.5581 92.9234 58.2053 92.9234 57.8456C92.9234 57.486 92.8258 57.1332 92.6409 56.8252C92.4561 56.5172 92.1911 56.2657 91.8745 56.0978L62.5207 39.0818C62.196 38.9163 61.8371 38.8301 61.473 38.8301C61.109 38.8301 60.75 38.9163 60.4254 39.0818L20.2586 62.3743C19.9603 62.5621 19.7101 62.8177 19.5282 63.1204C19.3462 63.4232 19.2375 63.7646 19.2109 64.1173Z" fill="#37474F"/>
<path d="M31.3205 55.9526L20.2559 62.375C19.9394 62.5428 19.6744 62.7943 19.4895 63.1023C19.3047 63.4103 19.207 63.7631 19.207 64.1228C19.207 64.4824 19.3047 64.8352 19.4895 65.1432C19.6744 65.4512 19.9394 65.7027 20.2559 65.8706L49.6122 82.8987C49.9351 83.0682 50.2957 83.1519 50.6599 83.1418V55.9526H31.3205Z" fill="#263238"/>
<path d="M18.2245 62.4085C17.9329 62.2089 17.6921 61.9431 17.5215 61.6328C17.3509 61.3224 17.2552 60.9762 17.2422 60.6219V25.4254C17.2617 25.0601 17.3667 24.7046 17.5488 24.3878C17.7308 24.071 17.9847 23.8019 18.2898 23.6023L58.4542 0.302463C58.7574 0.111409 59.1066 0.00695865 59.4644 0.000335797C59.8223 -0.00628706 60.1751 0.0851667 60.4851 0.264872C60.7951 0.444578 61.0504 0.705743 61.2238 1.0203C61.3971 1.33487 61.4819 1.69093 61.4689 2.05025V37.2491C61.4491 37.6143 61.3439 37.9697 61.1619 38.2864C60.9798 38.6032 60.7261 38.8724 60.4213 39.0723L20.2569 62.3745C19.9446 62.54 19.5978 62.6293 19.2448 62.6352C18.8917 62.6412 18.5422 62.5635 18.2245 62.4085Z" fill="#455A64"/>
<path d="M22.1598 27.0616L17.5506 24.3877C17.367 24.7032 17.2663 25.0603 17.2578 25.4257V60.6221C17.2708 60.9764 17.3665 61.3227 17.5371 61.633C17.7077 61.9434 17.9486 62.2091 18.2401 62.4088C18.5579 62.5626 18.9071 62.6392 19.2598 62.6325C19.6124 62.6257 19.9585 62.5358 20.2701 62.3699L24.8527 59.713L22.1598 27.0616Z" fill="#263238"/>
<path d="M19.2109 26.5683V61.7624C19.2109 62.4333 19.6803 62.7055 20.2586 62.3701L60.4229 39.0727C60.7278 38.8728 60.9815 38.6036 61.1635 38.2868C61.3455 37.9701 61.4507 37.6147 61.4706 37.2495V2.05309C61.4706 1.38218 61.0012 1.10992 60.4229 1.44538L20.2586 24.7452C19.9535 24.9448 19.6996 25.2139 19.5175 25.5307C19.3355 25.8475 19.2304 26.2031 19.2109 26.5683Z" fill="#37474F"/>
<path d="M20.2578 63.5902L49.614 80.6063C49.9387 80.7717 50.2976 80.858 50.6617 80.858C51.0258 80.858 51.3847 80.7717 51.7094 80.6063L91.8737 57.3064C92.4544 56.971 92.4544 56.4265 91.8737 56.091L62.5199 39.075C62.1952 38.9095 61.8363 38.8232 61.4722 38.8232C61.1081 38.8232 60.7492 38.9095 60.4245 39.075L20.2578 62.3748C19.6771 62.7054 19.6771 63.2499 20.2578 63.5902Z" fill="#455A64"/>
<path d="M20.8205 26.6963L59.8597 4.05287C60.2057 3.85111 60.4888 4.01398 60.4888 4.4175V34.8835C60.4766 35.1026 60.4133 35.3158 60.3041 35.5058C60.1948 35.6958 60.0426 35.8573 59.8597 35.9774L20.8205 58.6208C20.4721 58.8226 20.1914 58.6597 20.1914 58.2562V27.7902C20.203 27.571 20.2661 27.3576 20.3754 27.1675C20.4847 26.9774 20.6372 26.816 20.8205 26.6963Z" fill="white"/>
<path d="M23.664 62.6735L60.9467 41.0388C61.1091 40.9562 61.2885 40.9131 61.4705 40.9131C61.6525 40.9131 61.832 40.9562 61.9944 41.0388L63.9034 42.1449C63.9666 42.1664 64.0215 42.2073 64.0603 42.2618C64.0992 42.3163 64.1201 42.3817 64.1201 42.4487C64.1201 42.5158 64.0992 42.5811 64.0603 42.6356C64.0215 42.6901 63.9666 42.731 63.9034 42.7526L26.6134 64.3848C26.4511 64.4675 26.2716 64.5105 26.0896 64.5105C25.9076 64.5105 25.7281 64.4675 25.5658 64.3848L23.664 63.2812C23.6008 63.2597 23.5459 63.2188 23.507 63.1643C23.4682 63.1098 23.4473 63.0444 23.4473 62.9773C23.4473 62.9103 23.4682 62.8449 23.507 62.7904C23.5459 62.7359 23.6008 62.695 23.664 62.6735Z" fill="#263238"/>
<path d="M28.5796 65.5348L65.8599 43.9002C66.0227 43.8175 66.2025 43.7744 66.3849 43.7744C66.5673 43.7744 66.7472 43.8175 66.91 43.9002L78.6375 50.7066C78.7007 50.7281 78.7556 50.769 78.7945 50.8235C78.8333 50.878 78.8542 50.9434 78.8542 51.0104C78.8542 51.0775 78.8333 51.1429 78.7945 51.1974C78.7556 51.2519 78.7007 51.2927 78.6375 51.3143L41.3984 72.9052C41.2356 72.9879 41.0557 73.031 40.8733 73.031C40.6909 73.031 40.5111 72.9879 40.3483 72.9052L28.5796 66.1304C28.5195 66.1075 28.4677 66.0667 28.4311 66.0135C28.3946 65.9604 28.375 65.8973 28.375 65.8326C28.375 65.768 28.3946 65.7049 28.4311 65.6517C28.4677 65.5985 28.5195 65.5577 28.5796 65.5348Z" fill="#263238"/>
<path d="M61.9993 53.6237L63.168 52.9455C63.2164 52.9163 63.2139 52.8701 63.168 52.8385L61.8179 52.0558C61.7891 52.0409 61.7571 52.0331 61.7247 52.0331C61.6923 52.0331 61.6604 52.0409 61.6316 52.0558L60.4653 52.734C60.4145 52.7632 60.417 52.8094 60.4653 52.841L61.8154 53.6237C61.8439 53.6382 61.8754 53.6458 61.9074 53.6458C61.9393 53.6458 61.9708 53.6382 61.9993 53.6237ZM59.6959 50.9497L58.5297 51.628C58.4789 51.6547 58.4813 51.7033 58.5297 51.7349L59.8798 52.5177C59.9086 52.5326 59.9406 52.5404 59.973 52.5404C60.0054 52.5404 60.0373 52.5326 60.0661 52.5177L61.2348 51.8394C61.2832 51.8103 61.2807 51.7617 61.2348 51.7325L59.8822 50.9497C59.8534 50.9348 59.8215 50.927 59.7891 50.927C59.7567 50.927 59.7247 50.9348 59.6959 50.9497ZM55.9263 53.1375L53.9495 54.2825C53.9011 54.3116 53.9036 54.3602 53.9495 54.3918L55.2996 55.1746C55.3284 55.1895 55.3604 55.1973 55.3928 55.1973C55.4252 55.1973 55.4571 55.1895 55.4859 55.1746L57.4603 54.0296C57.5111 54.0005 57.5063 53.9519 57.4603 53.9227L56.1102 53.1375C56.0818 53.1226 56.0503 53.1148 56.0182 53.1148C55.9862 53.1148 55.9547 53.1226 55.9263 53.1375ZM57.9902 51.9391L56.8239 52.6173C56.7731 52.6465 56.7755 52.6951 56.8239 52.7243L58.174 53.507C58.2028 53.5219 58.2348 53.5297 58.2672 53.5297C58.2996 53.5297 58.3315 53.5219 58.3603 53.507L59.529 52.8288C59.5774 52.7996 59.575 52.7534 59.529 52.7218L58.1765 51.9221C58.1477 51.9072 58.1157 51.8994 58.0833 51.8994C58.0509 51.8994 58.019 51.9072 57.9902 51.9221V51.9391ZM53.41 54.596L52.2438 55.2718C52.1929 55.301 52.1978 55.3496 52.2438 55.3812L53.5939 56.1639C53.6224 56.1783 53.6539 56.1857 53.6858 56.1857C53.7177 56.1857 53.7492 56.1783 53.7777 56.1639L54.9464 55.4857C54.9948 55.4566 54.9923 55.4079 54.9464 55.3788L53.5963 54.596C53.5675 54.5811 53.5355 54.5733 53.5031 54.5733C53.4707 54.5733 53.4388 54.5811 53.41 54.596ZM51.7163 55.5854L50.5501 56.2636C50.4993 56.2903 50.5041 56.339 50.5501 56.3706L51.9002 57.1533C51.929 57.1682 51.9609 57.176 51.9933 57.176C52.0257 57.176 52.0577 57.1682 52.0865 57.1533L53.2551 56.4751C53.3035 56.4459 53.3011 56.3973 53.2551 56.3681L51.8905 55.5684C51.8617 55.5535 51.8298 55.5457 51.7973 55.5457C51.7649 55.5457 51.733 55.5535 51.7042 55.5684L51.7163 55.5854ZM57.0272 58.7698L58.1934 58.0916C58.2442 58.0624 58.2394 58.0163 58.1934 57.9847L56.8433 57.2019C56.8149 57.187 56.7834 57.1792 56.7514 57.1792C56.7193 57.1792 56.6878 57.187 56.6594 57.2019L55.4908 57.8801C55.4424 57.9093 55.4448 57.9555 55.4908 57.9871L56.8409 58.7698C56.869 58.7809 56.8992 58.7856 56.9293 58.7835C56.9595 58.7814 56.9888 58.7726 57.0151 58.7577L57.0272 58.7698ZM55.319 59.7592L56.4876 59.081C56.536 59.0542 56.5336 59.0056 56.4876 58.974L55.1375 58.1913C55.1087 58.1764 55.0768 58.1686 55.0444 58.1686C55.012 58.1686 54.98 58.1764 54.9512 58.1913L53.785 58.8695C53.7342 58.8987 53.739 58.9473 53.785 58.9764L55.1351 59.7592C55.1628 59.7703 55.1926 59.7749 55.2224 59.7728C55.2521 59.7707 55.281 59.7619 55.3069 59.747L55.319 59.7592ZM53.6132 60.7485L54.7818 60.0728C54.8302 60.0436 54.8278 59.995 54.7818 59.9634L53.4317 59.1806C53.4028 59.1663 53.3709 59.1588 53.3386 59.1588C53.3063 59.1588 53.2744 59.1663 53.2454 59.1806L52.0792 59.8589C52.0284 59.888 52.0333 59.9366 52.0792 59.9658L53.4269 60.7485C53.455 60.7597 53.4852 60.7643 53.5154 60.7622C53.5455 60.7601 53.5748 60.7513 53.6011 60.7364L53.6132 60.7485ZM51.9195 61.7379L53.0882 61.0621C53.1366 61.033 53.1341 60.9843 53.0882 60.9527L51.7381 60.17C51.7093 60.1551 51.6773 60.1473 51.6449 60.1473C51.6125 60.1473 51.5806 60.1551 51.5518 60.17L50.3855 60.8458C50.3347 60.875 50.3372 60.9236 50.3855 60.9552L51.7357 61.7379C51.7884 61.7552 51.8458 61.7508 51.8953 61.7257L51.9195 61.7379ZM60.3178 54.6301L61.4864 53.9519C61.5348 53.9251 61.5324 53.8765 61.4864 53.8449L60.1363 53.0622C60.1073 53.0478 60.0754 53.0403 60.0431 53.0403C60.0108 53.0403 59.979 53.0478 59.95 53.0622L58.7838 53.7404C58.733 53.7695 58.7354 53.8182 58.7838 53.8473L60.1339 54.6301C60.1599 54.639 60.1875 54.6425 60.215 54.6405C60.2424 54.6384 60.2691 54.6307 60.2936 54.6179L60.3178 54.6301ZM58.7451 57.7902L61.3485 56.2782C61.3969 56.2515 61.3945 56.2028 61.3485 56.1712L58.07 54.2703C58.0412 54.2554 58.0093 54.2476 57.9769 54.2476C57.9444 54.2476 57.9125 54.2554 57.8837 54.2703L56.5384 55.053C56.4876 55.0798 56.4925 55.1284 56.5384 55.16L58.2757 56.1664C58.3289 56.198 58.3313 56.2466 58.2757 56.2758L57.1796 56.8738C57.1312 56.9005 57.1336 56.9491 57.1796 56.9807L58.5346 57.7562C58.5624 57.773 58.5938 57.7829 58.6262 57.785C58.6586 57.7871 58.6911 57.7814 58.7209 57.7683L58.7451 57.7902ZM50.0226 56.5748L48.8564 57.253C48.8056 57.2821 48.808 57.3283 48.8564 57.3599L50.2065 58.1427C50.2353 58.1576 50.2672 58.1654 50.2997 58.1654C50.3321 58.1654 50.364 58.1576 50.3928 58.1427L51.5614 57.4645C51.6098 57.4353 51.6074 57.3891 51.5614 57.3575L50.2113 56.5748C50.1805 56.5531 50.1442 56.5405 50.1066 56.5384C50.069 56.5362 50.0316 56.5446 49.9984 56.5626L50.0226 56.5748ZM48.3289 57.5641L47.124 58.2423C47.0756 58.2715 47.078 58.3201 47.124 58.3493L48.4741 59.132C48.5029 59.1469 48.5349 59.1547 48.5673 59.1547C48.5997 59.1547 48.6316 59.1469 48.6604 59.132L49.8291 58.4538C49.8774 58.4271 49.875 58.3785 49.8291 58.3469L48.4693 57.5568C48.4421 57.5427 48.4121 57.5349 48.3815 57.5341C48.3509 57.5333 48.3206 57.5394 48.2926 57.552L48.3289 57.5641ZM39.7589 68.6488C39.7877 68.6638 39.8197 68.6716 39.8521 68.6716C39.8845 68.6716 39.9164 68.6638 39.9452 68.6488L41.1139 67.9706C41.1623 67.9439 41.1598 67.8953 41.1139 67.8637L39.7589 67.0858C39.7301 67.0709 39.6982 67.0631 39.6658 67.0631C39.6334 67.0631 39.6014 67.0709 39.5726 67.0858L38.4064 67.764C38.3556 67.7932 38.358 67.8418 38.4064 67.871L39.7589 68.6488ZM34.6368 65.4693L33.4681 66.1475C33.4197 66.1767 33.4222 66.2228 33.4681 66.2544L34.8182 67.0372C34.847 67.0521 34.879 67.0599 34.9114 67.0599C34.9438 67.0599 34.9757 67.0521 35.0045 67.0372L36.1732 66.359C36.2216 66.3298 36.2191 66.2836 36.1732 66.252L34.8231 65.4693C34.7952 65.4555 34.7646 65.4484 34.7336 65.4484C34.7025 65.4484 34.6719 65.4555 34.644 65.4693H34.6368ZM37.3829 67.7908C37.4117 67.8057 37.4437 67.8135 37.4761 67.8135C37.5085 67.8135 37.5404 67.8057 37.5693 67.7908L38.7355 67.1125C38.7863 67.0858 38.7814 67.0372 38.7355 67.0056L37.3878 66.2228C37.359 66.2079 37.327 66.2001 37.2946 66.2001C37.2622 66.2001 37.2303 66.2079 37.2015 66.2228L36.0328 66.9011C35.9845 66.9302 35.9869 66.9788 36.0328 67.008L37.3829 67.7908ZM42.7713 69.2493L43.9399 68.5711C43.9883 68.5419 43.9859 68.4957 43.9399 68.4641L42.5898 67.6814C42.561 67.6664 42.5291 67.6587 42.4966 67.6587C42.4642 67.6587 42.4323 67.6664 42.4035 67.6814L41.2373 68.3596C41.1865 68.3863 41.1913 68.4349 41.2373 68.4665L42.585 69.2493C42.6145 69.2658 42.6476 69.2747 42.6814 69.2751C42.7152 69.2755 42.7486 69.2675 42.7785 69.2517L42.7713 69.2493ZM40.8792 70.2216C40.908 70.2365 40.9399 70.2443 40.9723 70.2443C41.0047 70.2443 41.0367 70.2365 41.0655 70.2216L42.2341 69.5434C42.2825 69.5167 42.2801 69.468 42.2341 69.4364L40.884 68.6537C40.8552 68.6388 40.8233 68.631 40.7909 68.631C40.7585 68.631 40.7265 68.6388 40.6977 68.6537L39.5315 69.3319C39.4807 69.3611 39.4831 69.4097 39.5315 69.4389L40.8792 70.2216ZM36.3425 64.4653L35.1763 65.1435C35.1255 65.1703 35.1279 65.2189 35.1763 65.2505L36.5264 66.0332C36.5552 66.0482 36.5872 66.056 36.6196 66.056C36.652 66.056 36.6839 66.0482 36.7127 66.0332L37.8814 65.355C37.9298 65.3259 37.9273 65.2772 37.8814 65.2481L36.5313 64.4653C36.502 64.4534 36.4703 64.4485 36.4388 64.4511C36.4073 64.4536 36.3768 64.4635 36.3498 64.4799L36.3425 64.4653ZM44.8738 59.5185L43.7052 60.1943C43.6568 60.2235 43.6592 60.2721 43.7052 60.3013L45.0553 61.0864C45.0843 61.1008 45.1161 61.1083 45.1485 61.1083C45.1808 61.1083 45.2126 61.1008 45.2416 61.0864L46.4078 60.4107C46.4586 60.3815 46.4562 60.3329 46.4078 60.3013L45.0577 59.5185C45.0291 59.5074 44.9983 59.5029 44.9677 59.5055C44.9372 59.508 44.9075 59.5174 44.8811 59.5331L44.8738 59.5185ZM38.0653 63.4906L36.899 64.1663C36.8482 64.1955 36.8506 64.2441 36.899 64.2757L38.2491 65.0585C38.2781 65.0728 38.31 65.0803 38.3423 65.0803C38.3746 65.0803 38.4065 65.0728 38.4354 65.0585L39.6041 64.3803C39.6525 64.3511 39.6501 64.3025 39.6041 64.2733L38.254 63.4881C38.2245 63.4737 38.1921 63.4665 38.1593 63.4669C38.1266 63.4673 38.0944 63.4754 38.0653 63.4906ZM46.5965 58.5413L45.4182 59.2147C45.3698 59.2438 45.3723 59.2925 45.4182 59.3216L46.7683 60.1044C46.7971 60.1193 46.8291 60.1271 46.8615 60.1271C46.8939 60.1271 46.9258 60.1193 46.9546 60.1044L48.1209 59.4286C48.1717 59.3994 48.1693 59.3508 48.1209 59.3192L46.7756 58.5462C46.7467 58.5307 46.7146 58.5222 46.6818 58.5213C46.649 58.5205 46.6165 58.5273 46.5869 58.5413H46.5965ZM43.185 60.5225L42.0164 61.1983C41.968 61.2274 41.9704 61.276 42.0164 61.3076L43.3665 62.0904C43.3954 62.1047 43.4273 62.1122 43.4596 62.1122C43.4919 62.1122 43.5238 62.1047 43.5528 62.0904L44.719 61.4146C44.7698 61.3854 44.765 61.3368 44.719 61.3052L43.3713 60.5225C43.3411 60.5065 43.3075 60.4982 43.2733 60.4982C43.2392 60.4982 43.2055 60.5065 43.1753 60.5225H43.185ZM41.4768 61.5118L40.3106 62.1876C40.2598 62.2168 40.2646 62.2654 40.3106 62.297L41.6607 63.0797C41.6897 63.0941 41.7215 63.1016 41.7538 63.1016C41.7861 63.1016 41.818 63.0941 41.847 63.0797L43.0132 62.404C43.0616 62.3748 43.0592 62.3262 43.0132 62.2946L41.6631 61.5118C41.6329 61.4959 41.5993 61.4875 41.5651 61.4875C41.531 61.4875 41.4973 61.4959 41.4671 61.5118H41.4768ZM39.7589 62.5012L38.5927 63.177C38.5419 63.2061 38.5467 63.2548 38.5927 63.2864L39.9404 64.0691C39.9692 64.084 40.0011 64.0918 40.0336 64.0918C40.066 64.0918 40.0979 64.084 40.1267 64.0691L41.2953 63.3933C41.3437 63.3642 41.3413 63.3155 41.2953 63.2839L39.9452 62.5012C39.9163 62.4868 39.8844 62.4794 39.8521 62.4794C39.8198 62.4794 39.7879 62.4868 39.7589 62.5012ZM48.4814 63.7166L49.6476 63.0408C49.6984 63.0117 49.696 62.9631 49.6476 62.9315L48.2951 62.1317C48.2661 62.1173 48.2342 62.1099 48.2019 62.1099C48.1696 62.1099 48.1377 62.1173 48.1088 62.1317L46.9401 62.8075C46.8917 62.8367 46.8942 62.8853 46.9401 62.9169L48.2902 63.6996C48.3195 63.7165 48.3526 63.7258 48.3864 63.7267C48.4202 63.7275 48.4537 63.7199 48.4838 63.7045L48.4814 63.7166ZM63.4704 48.762L62.3018 49.4402C62.2534 49.4694 62.2558 49.5155 62.3018 49.5471L63.6519 50.3299C63.6807 50.3448 63.7126 50.3526 63.745 50.3526C63.7774 50.3526 63.8094 50.3448 63.8382 50.3299L65.0044 49.6517C65.0552 49.6225 65.0528 49.5763 65.0044 49.5447L63.6543 48.762C63.6258 48.7474 63.5943 48.7399 63.5624 48.7399C63.5304 48.7399 63.4989 48.7474 63.4704 48.762ZM61.4041 49.9604L60.2379 50.6386C60.1871 50.6653 60.1919 50.714 60.2379 50.7456L61.5856 51.5283C61.6146 51.5427 61.6464 51.5501 61.6787 51.5501C61.7111 51.5501 61.7429 51.5427 61.7719 51.5283L62.9405 50.8501C62.9889 50.8209 62.9865 50.7723 62.9405 50.7431L61.5904 49.9604C61.5623 49.9431 61.5304 49.933 61.4976 49.9309C61.4647 49.9288 61.4318 49.9347 61.4017 49.9482L61.4041 49.9604ZM65.1762 47.7726L64.01 48.4508C63.9592 48.4776 63.9616 48.5262 64.01 48.5578L65.3601 49.3405C65.3889 49.3554 65.4208 49.3632 65.4532 49.3632C65.4856 49.3632 65.5176 49.3554 65.5464 49.3405L66.715 48.6623C66.7634 48.6331 66.761 48.5845 66.715 48.5553L65.3649 47.7726C65.3354 47.7532 65.3013 47.7419 65.2661 47.7398C65.2309 47.7377 65.1957 47.7448 65.1641 47.7605L65.1762 47.7726ZM56.3449 56.9224L57.5135 56.2442C57.5619 56.215 57.5595 56.1664 57.5135 56.1372L56.1634 55.3545C56.1346 55.3395 56.1027 55.3318 56.0703 55.3318C56.0378 55.3318 56.0059 55.3395 55.9771 55.3545L54.8109 56.0327C54.7601 56.0594 54.7625 56.108 54.8109 56.1396L56.161 56.9224C56.1901 56.9346 56.2216 56.9399 56.2531 56.9378C56.2846 56.9357 56.3152 56.9263 56.3425 56.9102L56.3449 56.9224ZM67.0683 46.7881C67.0395 46.7732 67.0075 46.7654 66.9751 46.7654C66.9427 46.7654 66.9108 46.7732 66.882 46.7881L65.7157 47.4663C65.6649 47.4931 65.6674 47.5417 65.7157 47.5733L67.0658 48.356C67.0948 48.3704 67.1267 48.3779 67.159 48.3779C67.1913 48.3779 67.2232 48.3704 67.2522 48.356L68.4208 47.6778C68.4692 47.6486 68.4668 47.6 68.4208 47.5708L67.0683 46.7881ZM50.1896 62.7151L51.3582 62.0393C51.4066 62.0102 51.4042 61.9615 51.3582 61.9299L50.0008 61.1594C49.972 61.1444 49.9401 61.1367 49.9077 61.1367C49.8753 61.1367 49.8433 61.1444 49.8145 61.1594L48.6483 61.8351C48.5975 61.8643 48.5999 61.9129 48.6483 61.9445L49.9984 62.7273C50.029 62.7406 50.0622 62.7464 50.0955 62.7443C50.1287 62.7422 50.1609 62.7322 50.1896 62.7151ZM71.1113 50.5803L72.28 49.902C72.3283 49.8753 72.3259 49.8267 72.28 49.7951L70.9226 49.0051C70.8938 48.9901 70.8619 48.9823 70.8294 48.9823C70.797 48.9823 70.7651 48.9901 70.7363 49.0051L69.5701 49.6833C69.5193 49.7124 69.5217 49.7611 69.5701 49.7902L70.9202 50.573C70.949 50.5898 70.9815 50.5993 71.0148 50.6006C71.0482 50.6019 71.0813 50.5949 71.1113 50.5803ZM67.482 50.4514L68.6506 49.7732C68.699 49.744 68.6966 49.6979 68.6506 49.6662L67.3005 48.8835C67.2717 48.8686 67.2398 48.8608 67.2074 48.8608C67.175 48.8608 67.143 48.8686 67.1142 48.8835L65.948 49.5617C65.8972 49.5909 65.8996 49.6371 65.948 49.6687L67.2981 50.4514C67.3251 50.4671 67.3552 50.4763 67.3862 50.4784C67.4173 50.4805 67.4484 50.4755 67.4772 50.4636L67.482 50.4514ZM68.9991 47.8941C68.9703 47.8792 68.9383 47.8714 68.9059 47.8714C68.8735 47.8714 68.8416 47.8792 68.8128 47.8941L67.6465 48.5724C67.5957 48.5991 67.5981 48.6477 67.6465 48.6793L68.9966 49.4621C69.0254 49.477 69.0574 49.4848 69.0898 49.4848C69.1222 49.4848 69.1541 49.477 69.1829 49.4621L70.3516 48.7838C70.4 48.7547 70.3976 48.7061 70.3516 48.6769L68.9991 47.8941ZM69.3596 47.6851L72.6356 49.586C72.6644 49.601 72.6964 49.6087 72.7288 49.6087C72.7612 49.6087 72.7931 49.601 72.8219 49.586L73.9906 48.9078C74.039 48.8787 74.0365 48.8325 73.9906 48.8009L70.7121 46.8999C70.6833 46.885 70.6514 46.8772 70.6189 46.8772C70.5865 46.8772 70.5546 46.885 70.5258 46.8999L69.3596 47.5781C69.2967 47.6049 69.3015 47.6535 69.3547 47.6851H69.3596ZM65.4012 49.8729L64.2326 50.5511C64.1842 50.5802 64.1866 50.6289 64.2326 50.658L65.5827 51.4408C65.6115 51.4557 65.6434 51.4635 65.6758 51.4635C65.7082 51.4635 65.7402 51.4557 65.769 51.4408L66.9352 50.7626C66.986 50.7358 66.9836 50.6872 66.9352 50.6556L65.5851 49.8729C65.5576 49.8584 65.5272 49.8504 65.4961 49.8496C65.4651 49.8487 65.4343 49.855 65.406 49.868L65.4012 49.8729ZM52.5607 57.321L51.3872 57.9992C51.3388 58.0284 51.3413 58.077 51.3872 58.1062L52.7373 58.8889C52.7661 58.9039 52.7981 58.9116 52.8305 58.9116C52.8629 58.9116 52.8948 58.9039 52.9236 58.8889L54.0899 58.2107C54.1407 58.184 54.1383 58.1354 54.0899 58.1038L52.7398 57.321C52.7116 57.3058 52.6803 57.2973 52.6484 57.2965C52.6164 57.2957 52.5847 57.3024 52.5559 57.3162L52.5607 57.321ZM69.2241 51.5696C69.2529 51.5845 69.2848 51.5923 69.3172 51.5923C69.3496 51.5923 69.3816 51.5845 69.4104 51.5696L70.579 50.8914C70.6274 50.8647 70.625 50.816 70.579 50.7844L69.2289 50.0017C69.1999 49.9873 69.1681 49.9799 69.1358 49.9799C69.1035 49.9799 69.0716 49.9873 69.0426 50.0017L67.8764 50.6799C67.8256 50.7091 67.828 50.7577 67.8764 50.7869L69.2241 51.5696ZM54.2665 56.3317L53.1003 57.0099C53.0495 57.0391 53.0519 57.0852 53.1003 57.1168L54.4504 57.8996C54.4792 57.9145 54.5111 57.9223 54.5435 57.9223C54.5759 57.9223 54.6079 57.9145 54.6367 57.8996L55.8053 57.2214C55.8537 57.1922 55.8513 57.146 55.8053 57.1144L54.4552 56.3317C54.4259 56.3148 54.3928 56.3054 54.359 56.3046C54.3252 56.3037 54.2918 56.3114 54.2617 56.3268L54.2665 56.3317ZM41.4768 67.6644C41.5056 67.6793 41.5376 67.6871 41.57 67.6871C41.6024 67.6871 41.6343 67.6793 41.6631 67.6644L42.8317 66.9861C42.8801 66.957 42.8777 66.9108 42.8317 66.8792L41.4816 66.0964C41.4528 66.0815 41.4209 66.0737 41.3885 66.0737C41.3561 66.0737 41.3241 66.0815 41.2953 66.0964L40.1291 66.7747C40.0783 66.8038 40.0832 66.85 40.1291 66.8816L41.4768 67.6644ZM38.9121 65.2335L37.7435 65.9117C37.6951 65.9409 37.6975 65.9871 37.7435 66.0187L39.0936 66.8014C39.1224 66.8163 39.1543 66.8241 39.1867 66.8241C39.2191 66.8241 39.2511 66.8163 39.2799 66.8014L40.4461 66.1232C40.4969 66.094 40.4945 66.0478 40.4461 66.0162L39.096 65.2335C39.0669 65.2182 39.0345 65.2101 39.0016 65.2101C38.9687 65.2101 38.9364 65.2182 38.9073 65.2335H38.9121ZM43.3713 66.675L44.5375 65.9968C44.5859 65.9676 44.5835 65.919 44.5375 65.8898L43.1874 65.1071C43.1586 65.0922 43.1267 65.0844 43.0943 65.0844C43.0619 65.0844 43.0299 65.0922 43.0011 65.1071L41.8228 65.778C41.7744 65.8047 41.7768 65.8534 41.8228 65.885L43.1729 66.6677C43.202 66.685 43.235 66.6947 43.2688 66.696C43.3026 66.6973 43.3361 66.6901 43.3665 66.675H43.3713ZM45.0771 65.6856L46.2433 65.0074C46.2941 64.9782 46.2893 64.9296 46.2433 64.9005L44.8956 64.1177C44.8668 64.1028 44.8349 64.095 44.8025 64.095C44.7701 64.095 44.7381 64.1028 44.7093 64.1177L43.5407 64.7935C43.4923 64.8227 43.4947 64.8713 43.5407 64.9029L44.8908 65.6856C44.9204 65.7008 44.9531 65.7087 44.9863 65.7087C45.0196 65.7087 45.0523 65.7008 45.0819 65.6856H45.0771ZM46.7708 64.6938L47.937 64.0181C47.9878 63.9889 47.9854 63.9403 47.937 63.9111L46.5869 63.1259C46.5579 63.1116 46.526 63.1041 46.4937 63.1041C46.4614 63.1041 46.4295 63.1116 46.4006 63.1259L45.2319 63.8017C45.1835 63.8309 45.186 63.8795 45.2319 63.9111L46.582 64.6938C46.6118 64.71 46.645 64.7185 46.6788 64.7185C46.7126 64.7185 46.7459 64.71 46.7756 64.6938H46.7708ZM40.6058 64.2441L39.4371 64.9223C39.3887 64.9491 39.3912 64.9977 39.4371 65.0293L40.7872 65.812C40.816 65.827 40.848 65.8347 40.8804 65.8347C40.9128 65.8347 40.9447 65.827 40.9735 65.812L42.1422 65.1338C42.1906 65.1047 42.1882 65.056 42.1422 65.0269L40.7921 64.2441C40.7642 64.2304 40.7336 64.2233 40.7026 64.2233C40.6715 64.2233 40.6409 64.2304 40.613 64.2441H40.6058ZM42.3115 63.2548L41.1453 63.9305C41.0945 63.9597 41.0969 64.0083 41.1453 64.0399L42.4954 64.8227C42.5244 64.837 42.5563 64.8445 42.5886 64.8445C42.6209 64.8445 42.6528 64.837 42.6817 64.8227L43.8722 64.1493C43.9205 64.1201 43.9181 64.0715 43.8722 64.0424L42.522 63.2596C42.4916 63.241 42.4568 63.2307 42.4211 63.2298C42.3854 63.229 42.3501 63.2376 42.3188 63.2548H42.3115ZM49.1371 59.2973L47.9854 59.9731C47.937 60.0023 47.9394 60.0509 47.9854 60.0825L49.3355 60.8652C49.3644 60.8796 49.3963 60.8871 49.4286 60.8871C49.4609 60.8871 49.4928 60.8796 49.5218 60.8652L50.688 60.1895C50.7388 60.1603 50.734 60.1117 50.688 60.0801L49.3403 59.2973C49.3103 59.2807 49.2766 59.272 49.2423 59.272C49.2081 59.272 49.1743 59.2807 49.1443 59.2973H49.1371ZM47.4289 60.2867L46.2627 60.9625C46.2143 60.9916 46.2167 61.0403 46.2627 61.0719L47.6128 61.8546C47.6417 61.8689 47.6736 61.8764 47.7059 61.8764C47.7382 61.8764 47.7701 61.8689 47.7991 61.8546L48.9653 61.1788C49.0161 61.1496 49.0113 61.101 48.9653 61.0694L47.6152 60.2867C47.5872 60.2735 47.5566 60.2666 47.5257 60.2666C47.4947 60.2666 47.4641 60.2735 47.4361 60.2867H47.4289ZM50.8428 58.3055L49.679 58.9837C49.6307 59.0129 49.6331 59.0615 49.679 59.0907L51.0291 59.8759C51.0581 59.8902 51.09 59.8977 51.1223 59.8977C51.1546 59.8977 51.1865 59.8902 51.2155 59.8759L52.3817 59.1977C52.4325 59.1709 52.4301 59.1223 52.3817 59.0907L51.0316 58.308C51.0034 58.294 50.9725 58.2865 50.9411 58.2861C50.9097 58.2857 50.8786 58.2923 50.8501 58.3055H50.8428ZM44.0173 62.2654L42.8511 62.9412C42.8003 62.9704 42.8027 63.019 42.8511 63.0506L44.2012 63.8333C44.2302 63.8477 44.2621 63.8551 44.2944 63.8551C44.3267 63.8551 44.3585 63.8477 44.3875 63.8333L45.5562 63.1551C45.6045 63.1259 45.6021 63.0773 45.5562 63.0481L44.206 62.263C44.1775 62.2498 44.1464 62.2431 44.115 62.2435C44.0836 62.244 44.0527 62.2514 44.0246 62.2654H44.0173ZM45.7231 61.276L44.5569 61.9518C44.5061 61.981 44.5109 62.0296 44.5569 62.0612L45.907 62.8439C45.9354 62.8589 45.9669 62.8666 45.9989 62.8666C46.0309 62.8666 46.0625 62.8589 46.0909 62.8439L47.2595 62.1682C47.3079 62.139 47.3055 62.0904 47.2595 62.0588L45.9094 61.276C45.8814 61.2628 45.8508 61.256 45.8199 61.256C45.7889 61.256 45.7584 61.2628 45.7304 61.276H45.7231ZM44.4795 68.2623L45.6457 67.5841C45.6941 67.555 45.6916 67.5063 45.6457 67.4772L44.2956 66.6944C44.2668 66.6795 44.2348 66.6717 44.2024 66.6717C44.17 66.6717 44.1381 66.6795 44.1093 66.6944L42.943 67.3726C42.8922 67.3994 42.8971 67.448 42.943 67.4796L44.2932 68.2623C44.3229 68.2785 44.3561 68.287 44.3899 68.287C44.4237 68.287 44.457 68.2785 44.4867 68.2623H44.4795ZM34.4747 67.2365L33.1246 66.4538C33.0958 66.4389 33.0638 66.4311 33.0314 66.4311C32.999 66.4311 32.9671 66.4389 32.9383 66.4538L31.7745 67.1369C31.7261 67.166 31.7285 67.2122 31.7745 67.2438L33.1246 68.0265C33.1534 68.0415 33.1853 68.0493 33.2177 68.0493C33.2501 68.0493 33.2821 68.0415 33.3109 68.0265L34.4771 67.3483C34.5303 67.3265 34.5279 67.2778 34.4747 67.2365ZM37.0297 67.9901L35.6796 67.2073C35.651 67.193 35.6196 67.1855 35.5876 67.1855C35.5557 67.1855 35.5243 67.193 35.4957 67.2073L33.7101 68.255C33.6617 68.2842 33.6641 68.3328 33.7101 68.362L35.0602 69.1447C35.089 69.1597 35.1209 69.1675 35.1533 69.1675C35.1858 69.1675 35.2177 69.1597 35.2465 69.1447L37.0418 68.1043C37.0974 68.08 37.0829 68.0314 37.0297 67.9998V67.9901ZM32.4035 65.7221L31.0486 64.9491C31.0198 64.9342 30.9879 64.9264 30.9554 64.9264C30.923 64.9264 30.8911 64.9342 30.8623 64.9491L29.4299 65.778C29.3815 65.8072 29.384 65.8558 29.4299 65.8874L30.78 66.6701C30.8088 66.6851 30.8408 66.6928 30.8732 66.6928C30.9056 66.6928 30.9375 66.6851 30.9663 66.6701L32.4011 65.8388C32.4592 65.812 32.4568 65.7634 32.4035 65.7318V65.7221ZM33.5044 65.0828C33.5332 65.0977 33.5652 65.1055 33.5976 65.1055C33.63 65.1055 33.6619 65.0977 33.6907 65.0828L34.857 64.4046C34.9078 64.3778 34.9053 64.3292 34.857 64.2976L33.5068 63.5149C33.478 63.4999 33.4461 63.4922 33.4137 63.4922C33.3813 63.4922 33.3493 63.4999 33.3205 63.5149L32.1519 64.1931C32.1035 64.2223 32.1059 64.2709 32.1519 64.3L33.5044 65.0828ZM39.4081 68.8482L38.0653 68.0752C38.0363 68.0608 38.0044 68.0533 37.9721 68.0533C37.9398 68.0533 37.9079 68.0608 37.879 68.0752L35.6336 69.3781C35.5852 69.4073 35.5876 69.4559 35.6336 69.4851L36.9837 70.2702C37.0127 70.2846 37.0446 70.2921 37.0769 70.2921C37.1092 70.2921 37.1411 70.2846 37.17 70.2702L39.4154 68.9673C39.4638 68.9381 39.4613 68.8895 39.4081 68.8579V68.8482ZM40.5283 70.4355L39.1782 69.6674C39.1494 69.6525 39.1175 69.6447 39.0851 69.6447C39.0527 69.6447 39.0207 69.6525 38.9919 69.6674L37.5547 70.5012C37.5063 70.5303 37.5088 70.579 37.5547 70.6106L38.9048 71.3933C38.9338 71.4077 38.9657 71.4151 38.998 71.4151C39.0303 71.4151 39.0622 71.4077 39.0911 71.3933L40.5283 70.5595C40.584 70.5255 40.5816 70.4769 40.5283 70.4453V70.4355ZM46.1901 57.7246C46.2189 57.7395 46.2508 57.7473 46.2832 57.7473C46.3156 57.7473 46.3476 57.7395 46.3764 57.7246L47.5426 57.0488C47.5934 57.0196 47.5886 56.971 47.5426 56.9394L46.1925 56.1567C46.1635 56.1423 46.1316 56.1348 46.0993 56.1348C46.067 56.1348 46.0352 56.1423 46.0062 56.1567L44.84 56.8446C44.7916 56.8738 44.794 56.9224 44.84 56.9515L46.1901 57.7246ZM42.7761 59.7057C42.8051 59.7201 42.8369 59.7275 42.8693 59.7275C42.9016 59.7275 42.9334 59.7201 42.9624 59.7057L44.131 59.0299C44.1794 59.0008 44.177 58.9521 44.131 58.9205L42.7809 58.1378C42.752 58.1234 42.7201 58.116 42.6878 58.116C42.6555 58.116 42.6236 58.1234 42.5946 58.1378L41.4284 58.8136C41.3776 58.8428 41.3824 58.8914 41.4284 58.923L42.7761 59.7057ZM35.2102 64.1031C35.239 64.1181 35.2709 64.1258 35.3034 64.1258C35.3358 64.1258 35.3677 64.1181 35.3965 64.1031L36.5627 63.4249C36.6135 63.3958 36.6111 63.3496 36.5627 63.318L35.2126 62.5352C35.1838 62.5203 35.1519 62.5125 35.1195 62.5125C35.0871 62.5125 35.0551 62.5203 35.0263 62.5352L33.8577 63.2134C33.8093 63.2426 33.8117 63.2888 33.8577 63.3204L35.2102 64.1031ZM44.4843 58.7285C44.5128 58.7428 44.5443 58.7503 44.5762 58.7503C44.6082 58.7503 44.6396 58.7428 44.6682 58.7285L45.8368 58.0527C45.8852 58.0236 45.8828 57.9749 45.8368 57.9433L44.4867 57.1606C44.4579 57.1457 44.426 57.1379 44.3936 57.1379C44.3612 57.1379 44.3292 57.1457 44.3004 57.1606L43.1342 57.8364C43.0834 57.8655 43.0882 57.9142 43.1342 57.9458L44.4843 58.7285ZM41.0703 60.7072C41.0991 60.7222 41.1311 60.7299 41.1635 60.7299C41.1959 60.7299 41.2278 60.7222 41.2566 60.7072L42.4253 60.0314C42.4737 60.0023 42.4712 59.9537 42.4253 59.9221L41.0752 59.1393C41.0462 59.125 41.0143 59.1175 40.982 59.1175C40.9497 59.1175 40.9178 59.125 40.8889 59.1393L39.7226 59.8151C39.6718 59.8443 39.6743 59.8929 39.7226 59.9245L41.0703 60.7072ZM41.4647 70.5741C41.4357 70.5597 41.4039 70.5523 41.3716 70.5523C41.3392 70.5523 41.3074 70.5597 41.2784 70.5741L39.4831 71.6121C39.4347 71.6412 39.4371 71.6899 39.4831 71.7215L40.8332 72.5042C40.862 72.5191 40.894 72.5269 40.9264 72.5269C40.9588 72.5269 40.9907 72.5191 41.0195 72.5042L42.8148 71.4638C42.8656 71.4346 42.8608 71.386 42.8148 71.3544L41.4647 70.5741ZM38.6218 62.1317C38.6507 62.1461 38.6826 62.1535 38.7149 62.1535C38.7472 62.1535 38.7791 62.1461 38.8081 62.1317L39.9767 61.4535C40.0251 61.4243 40.0227 61.3757 39.9767 61.3465L38.6266 60.5638C38.5978 60.5489 38.5658 60.5411 38.5334 60.5411C38.501 60.5411 38.4691 60.5489 38.4403 60.5638L37.2741 61.242C37.2233 61.2688 37.2257 61.3174 37.2741 61.349L38.6218 62.1317ZM36.916 63.1041C36.9448 63.119 36.9767 63.1268 37.0091 63.1268C37.0415 63.1268 37.0735 63.119 37.1023 63.1041L38.2709 62.4258C38.3193 62.3967 38.3169 62.3481 38.2709 62.3189L36.9208 61.5361C36.892 61.5212 36.8601 61.5134 36.8277 61.5134C36.7953 61.5134 36.7633 61.5212 36.7345 61.5361L35.5683 62.2144C35.5175 62.2411 35.5199 62.2897 35.5683 62.3213L36.916 63.1041ZM73.0736 52.2381C73.0448 52.2232 73.0128 52.2154 72.9804 52.2154C72.948 52.2154 72.9161 52.2232 72.8873 52.2381L70.0032 53.9008C69.9548 53.93 69.9572 53.9786 70.0032 54.0102L71.3533 54.7929C71.3822 54.8073 71.4141 54.8148 71.4464 54.8148C71.4787 54.8148 71.5106 54.8073 71.5396 54.7929L74.4285 53.1375C74.4793 53.1083 74.4769 53.0597 74.4285 53.0281L73.0736 52.2381ZM69.3015 54.4259C69.2727 54.4109 69.2408 54.4032 69.2084 54.4032C69.1759 54.4032 69.144 54.4109 69.1152 54.4259L67.949 55.1017C67.8982 55.1308 67.9006 55.1794 67.949 55.211L69.2991 55.9938C69.3281 56.0081 69.3599 56.0156 69.3922 56.0156C69.4245 56.0156 69.4564 56.0081 69.4854 55.9938L70.654 55.318C70.7024 55.2888 70.7 55.2402 70.654 55.2086L69.3015 54.4259ZM46.1925 67.273L47.3587 66.5948C47.4095 66.5656 47.4047 66.517 47.3587 66.4878L46.011 65.7026C45.982 65.6883 45.9502 65.6808 45.9179 65.6808C45.8856 65.6808 45.8537 65.6883 45.8247 65.7026L44.6561 66.3784C44.6077 66.4076 44.6101 66.4562 44.6561 66.4878L46.0062 67.2706C46.035 67.2853 46.0667 67.2932 46.0991 67.2936C46.1314 67.294 46.1633 67.287 46.1925 67.273ZM65.89 56.4046C65.861 56.3902 65.8291 56.3828 65.7968 56.3828C65.7645 56.3828 65.7326 56.3902 65.7037 56.4046L64.535 57.0804C64.4866 57.1095 64.489 57.1582 64.535 57.1898L65.8851 57.9725C65.9139 57.9874 65.9459 57.9952 65.9783 57.9952C66.0107 57.9952 66.0426 57.9874 66.0714 57.9725L67.2376 57.2967C67.2884 57.2676 67.286 57.2189 67.2376 57.1873L65.89 56.4046ZM74.7793 51.2487C74.7504 51.2344 74.7185 51.2269 74.6862 51.2269C74.6539 51.2269 74.622 51.2344 74.593 51.2487L73.4268 51.9221C73.376 51.9513 73.3784 51.9999 73.4268 52.029L74.7769 52.8142C74.8059 52.8286 74.8378 52.8361 74.8701 52.8361C74.9024 52.8361 74.9342 52.8286 74.9632 52.8142L76.1319 52.1384C76.1802 52.1093 76.1778 52.0606 76.1319 52.029L74.7793 51.2487ZM77.8352 51.0421L74.5567 49.1412C74.5279 49.1263 74.496 49.1185 74.4636 49.1185C74.4312 49.1185 74.3992 49.1263 74.3704 49.1412L73.2042 49.8194C73.1534 49.8486 73.1558 49.8972 73.2042 49.9264L76.4827 51.8273C76.5115 51.8422 76.5434 51.85 76.5758 51.85C76.6083 51.85 76.6402 51.8422 76.669 51.8273L77.8376 51.1491C77.8909 51.1223 77.8884 51.0737 77.8352 51.0421ZM59.5145 60.1044C59.4857 60.0894 59.4537 60.0817 59.4213 60.0817C59.3889 60.0817 59.357 60.0894 59.3282 60.1044L57.891 60.9382C57.8426 60.9673 57.845 61.0159 57.891 61.0451L59.2411 61.8279C59.2699 61.8428 59.3018 61.8506 59.3342 61.8506C59.3666 61.8506 59.3986 61.8428 59.4274 61.8279L60.8646 60.9941C60.913 60.9649 60.9105 60.9163 60.8646 60.8871L59.5145 60.1044ZM63.8237 57.603C63.7949 57.5881 63.7629 57.5803 63.7305 57.5803C63.6981 57.5803 63.6662 57.5881 63.6374 57.603L61.8421 58.6434C61.7937 58.6726 61.7961 58.7212 61.8421 58.7504L63.1922 59.5355C63.2211 59.5499 63.253 59.5574 63.2853 59.5574C63.3176 59.5574 63.3495 59.5499 63.3785 59.5355L65.1738 58.4951C65.2222 58.466 65.2197 58.4174 65.1738 58.3857L63.8237 57.603ZM55.5634 62.3942C55.5344 62.3799 55.5025 62.3724 55.4702 62.3724C55.4379 62.3724 55.406 62.3799 55.3771 62.3942L45.7691 67.9658C45.7207 67.9949 45.7231 68.0436 45.7691 68.0752L47.1192 68.8579C47.1481 68.8723 47.18 68.8797 47.2123 68.8797C47.2446 68.8797 47.2765 68.8723 47.3055 68.8579L56.9135 63.2839C56.9619 63.2548 56.9594 63.2062 56.9135 63.1745L55.5634 62.3942ZM45.4158 68.2818C45.387 68.2669 45.3551 68.2591 45.3227 68.2591C45.2903 68.2591 45.2583 68.2669 45.2295 68.2818L43.7947 69.1156C43.7439 69.1447 43.7463 69.1934 43.7947 69.2225L45.1448 70.0053C45.1736 70.0202 45.2056 70.028 45.238 70.028C45.2704 70.028 45.3023 70.0202 45.3311 70.0053L46.7756 69.1812C46.824 69.152 46.8216 69.1034 46.7756 69.0742L45.4158 68.2818ZM57.5377 61.2493C57.5087 61.2349 57.4769 61.2275 57.4446 61.2275C57.4122 61.2275 57.3804 61.2349 57.3514 61.2493L55.9166 62.0831C55.8658 62.1123 55.8682 62.1609 55.9166 62.1925L57.2667 62.9752C57.2957 62.9896 57.3276 62.997 57.3599 62.997C57.3922 62.997 57.4241 62.9896 57.453 62.9752L58.8902 62.1414C58.941 62.1147 58.9362 62.0661 58.8902 62.0345L57.5377 61.2493ZM43.4415 69.4243C43.4125 69.4099 43.3806 69.4025 43.3483 69.4025C43.316 69.4025 43.2841 69.4099 43.2552 69.4243L41.818 70.2581C41.7696 70.2872 41.772 70.3359 41.818 70.3675L43.1681 71.1502C43.197 71.1646 43.2289 71.172 43.2612 71.172C43.2935 71.172 43.3254 71.1646 43.3544 71.1502L44.7892 70.3188C44.84 70.2897 44.8375 70.2411 44.7892 70.2095L43.4415 69.4243ZM61.4888 58.9546C61.4598 58.9402 61.428 58.9327 61.3957 58.9327C61.3633 58.9327 61.3315 58.9402 61.3025 58.9546L59.8677 59.7859C59.8169 59.8151 59.8193 59.8637 59.8677 59.8953L61.2178 60.6781C61.2468 60.6924 61.2787 60.6999 61.311 60.6999C61.3433 60.6999 61.3752 60.6924 61.4041 60.6781L62.8413 59.8443C62.8921 59.8151 62.8873 59.7665 62.8413 59.7349L61.4888 58.9546ZM67.5957 55.4128C67.5669 55.3979 67.535 55.3901 67.5026 55.3901C67.4702 55.3901 67.4382 55.3979 67.4094 55.4128L66.2432 56.0886C66.1924 56.1178 66.1948 56.1664 66.2432 56.198L67.5933 56.9807C67.6223 56.9951 67.6542 57.0025 67.6865 57.0025C67.7188 57.0025 67.7506 56.9951 67.7796 56.9807L68.9483 56.3049C68.9966 56.2758 68.9942 56.2271 68.9483 56.1955L67.5957 55.4128ZM71.3339 52.6854L72.5001 52.0096C72.5509 51.9804 72.5485 51.9318 72.5001 51.9002L71.15 51.1175C71.1211 51.1031 71.0892 51.0956 71.0569 51.0956C71.0246 51.0956 70.9927 51.1031 70.9637 51.1175L69.7951 51.7957C69.7467 51.8249 69.7491 51.8735 69.7951 51.9026L71.1452 52.6878C71.1745 52.7026 71.2068 52.7102 71.2395 52.7102C71.2723 52.7102 71.3046 52.7026 71.3339 52.6878V52.6854ZM63.7124 52.6513L64.881 51.9731C64.9294 51.944 64.927 51.8953 64.881 51.8662L63.5309 51.0834C63.5021 51.0685 63.4702 51.0607 63.4377 51.0607C63.4053 51.0607 63.3734 51.0685 63.3446 51.0834L62.1784 51.7617C62.1276 51.7908 62.1324 51.837 62.1784 51.8686L63.5261 52.6513C63.5549 52.6663 63.5868 52.6741 63.6192 52.6741C63.6516 52.6741 63.6836 52.6663 63.7124 52.6513ZM59.8411 59.3678L63.2527 57.3891C63.301 57.3599 63.2986 57.3113 63.2527 57.2797L61.9025 56.497C61.8736 56.4826 61.8417 56.4751 61.8094 56.4751C61.7771 56.4751 61.7452 56.4826 61.7162 56.497L58.3047 58.4781C58.2563 58.5049 58.2587 58.5535 58.3047 58.5851L59.6548 59.3678C59.6846 59.3809 59.717 59.3866 59.7494 59.3845C59.7818 59.3824 59.8133 59.3725 59.8411 59.3557V59.3678ZM69.4418 53.6869C69.4708 53.7013 69.5027 53.7087 69.535 53.7087C69.5673 53.7087 69.5992 53.7013 69.6281 53.6869L70.7944 53.0111C70.8452 52.9819 70.8427 52.9333 70.7944 52.9017L69.4443 52.119C69.4155 52.1041 69.3835 52.0963 69.3511 52.0963C69.3187 52.0963 69.2868 52.1041 69.258 52.119L68.0893 52.7948C68.0409 52.8239 68.0433 52.8726 68.0893 52.9042L69.4418 53.6869ZM67.6998 52.5711L68.866 51.8954C68.9168 51.8662 68.9144 51.8176 68.866 51.786L67.5159 51.0032C67.4869 50.9889 67.455 50.9814 67.4227 50.9814C67.3904 50.9814 67.3586 50.9889 67.3296 51.0032L66.1609 51.6814C66.1125 51.7106 66.115 51.7592 66.1609 51.7884L67.511 52.5736C67.5415 52.5861 67.5744 52.5913 67.6071 52.5888C67.6399 52.5862 67.6716 52.576 67.6998 52.559V52.5711ZM58.1353 60.3499L59.3015 59.6717C59.3524 59.6425 59.3475 59.5963 59.3015 59.5647L57.9514 58.782C57.9226 58.7671 57.8907 58.7593 57.8583 58.7593C57.8259 58.7593 57.7939 58.7671 57.7651 58.782L56.5917 59.4578C56.5409 59.4869 56.5457 59.5331 56.5917 59.5647L57.9418 60.3475C57.9732 60.3655 58.0088 60.3747 58.0449 60.3743C58.0811 60.3739 58.1165 60.3638 58.1474 60.345L58.1353 60.3499ZM65.6698 55.8674C65.6987 55.8817 65.7306 55.8892 65.7629 55.8892C65.7952 55.8892 65.8271 55.8817 65.8561 55.8674L67.0247 55.1916C67.0731 55.1624 67.0707 55.1138 67.0247 55.0822L65.6746 54.2995C65.6456 54.2851 65.6138 54.2776 65.5815 54.2776C65.5492 54.2776 65.5173 54.2851 65.4883 54.2995L64.3221 54.9777C64.2713 55.0069 64.2737 55.0555 64.3221 55.0846L65.6698 55.8674ZM49.604 65.2918L50.7703 64.616C50.8211 64.5869 50.8186 64.5383 50.7703 64.5067L49.4202 63.7239C49.3912 63.7096 49.3593 63.7021 49.327 63.7021C49.2947 63.7021 49.2628 63.7096 49.2338 63.7239L48.0652 64.3997C48.0168 64.4289 48.0192 64.4775 48.0652 64.5091L49.4153 65.2918C49.4446 65.3066 49.4769 65.3143 49.5097 65.3143C49.5424 65.3143 49.5748 65.3066 49.604 65.2918ZM51.3098 64.3025L52.4785 63.6267C52.5268 63.5975 52.5244 63.5489 52.4785 63.5173L51.1308 62.7346C51.102 62.7196 51.07 62.7118 51.0376 62.7118C51.0052 62.7118 50.9733 62.7196 50.9445 62.7346L49.7758 63.4103C49.7274 63.4395 49.7299 63.4881 49.7758 63.5197L51.1259 64.3025C51.1546 64.3164 51.186 64.3237 51.2179 64.3237C51.2497 64.3237 51.2812 64.3164 51.3098 64.3025ZM47.8983 66.2812L49.0645 65.6054C49.1153 65.5762 49.1129 65.5276 49.0645 65.496L47.7168 64.7133C47.6878 64.6989 47.656 64.6915 47.6236 64.6915C47.5913 64.6915 47.5595 64.6989 47.5305 64.7133L46.3619 65.3891C46.3135 65.4182 46.3159 65.4669 46.3619 65.4985L47.712 66.2812C47.7408 66.2961 47.7727 66.3039 47.8051 66.3039C47.8375 66.3039 47.8695 66.2961 47.8983 66.2812ZM54.7214 62.3237L55.89 61.648C55.9384 61.6188 55.936 61.5702 55.89 61.5386L54.5399 60.7558C54.5109 60.7415 54.479 60.734 54.4467 60.734C54.4144 60.734 54.3826 60.7415 54.3536 60.7558L53.1874 61.4341C53.1366 61.4632 53.139 61.5118 53.1874 61.541L54.5375 62.3237C54.566 62.3383 54.5975 62.3458 54.6294 62.3458C54.6614 62.3458 54.6929 62.3383 54.7214 62.3237ZM53.0277 63.3131L54.1963 62.6373C54.2447 62.6082 54.2423 62.5595 54.1963 62.5279L52.8244 61.7452C52.7956 61.7303 52.7637 61.7225 52.7313 61.7225C52.6989 61.7225 52.6669 61.7303 52.6381 61.7452L51.4719 62.421C51.4211 62.4502 51.4235 62.4988 51.4719 62.5279L52.822 63.3131C52.8519 63.3287 52.8851 63.3368 52.9188 63.3368C52.9525 63.3368 52.9857 63.3287 53.0156 63.3131H53.0277ZM56.4392 61.3344L57.6079 60.6562C57.6563 60.6294 57.6538 60.5808 57.6079 60.5492L56.2578 59.7665C56.229 59.7516 56.197 59.7438 56.1646 59.7438C56.1322 59.7438 56.1003 59.7516 56.0715 59.7665L54.8859 60.4301C54.8351 60.4593 54.8399 60.5079 54.8859 60.5371L56.2336 61.3198C56.2621 61.3383 56.2947 61.3493 56.3285 61.3518C56.3623 61.3544 56.3962 61.3484 56.4271 61.3344H56.4392ZM64.2447 46.6933C64.2735 46.7082 64.3054 46.716 64.3378 46.716C64.3702 46.716 64.4022 46.7082 64.431 46.6933L65.5996 46.0151C65.648 45.9884 65.6456 45.9397 65.5996 45.9081L65.2415 45.6991C65.2125 45.6847 65.1807 45.6772 65.1484 45.6772C65.1161 45.6772 65.0842 45.6847 65.0552 45.6991L63.8866 46.3749C63.8382 46.404 63.8406 46.4527 63.8866 46.4843L64.2447 46.6933ZM55.8513 52.1384C55.8801 52.1534 55.912 52.1611 55.9444 52.1611C55.9768 52.1611 56.0088 52.1534 56.0376 52.1384L57.2038 51.4627C57.2546 51.4335 57.2522 51.3849 57.2038 51.3533L55.8537 50.5705C55.8247 50.5562 55.7929 50.5487 55.7606 50.5487C55.7282 50.5487 55.6964 50.5562 55.6674 50.5705L54.4988 51.2463C54.4504 51.2755 54.4528 51.3241 54.4988 51.3557L55.8513 52.1384ZM59.2628 50.1597C59.2918 50.1741 59.3237 50.1815 59.356 50.1815C59.3883 50.1815 59.4202 50.1741 59.4491 50.1597L60.6178 49.4839C60.6662 49.4548 60.6637 49.4061 60.6178 49.3745L59.2677 48.5918C59.2389 48.5769 59.2069 48.5691 59.1745 48.5691C59.1421 48.5691 59.1102 48.5769 59.0814 48.5918L57.9055 49.2676C57.8547 49.2968 57.8571 49.3454 57.9055 49.377L59.2628 50.1597ZM53.7681 53.3466C53.797 53.3609 53.8289 53.3684 53.8612 53.3684C53.8935 53.3684 53.9254 53.3609 53.9544 53.3466L55.1206 52.6684C55.1714 52.6392 55.169 52.5906 55.1206 52.5614L53.7705 51.7762C53.7415 51.7619 53.7096 51.7544 53.6773 51.7544C53.645 51.7544 53.6132 51.7619 53.5842 51.7762L52.4155 52.452C52.3671 52.4812 52.3696 52.5298 52.4155 52.5614L53.7681 53.3466ZM57.5571 51.1588C57.586 51.1732 57.6179 51.1806 57.6502 51.1806C57.6825 51.1806 57.7144 51.1732 57.7434 51.1588L58.912 50.483C58.9604 50.4538 58.958 50.4052 58.912 50.3736L57.5619 49.5909C57.5329 49.5765 57.5011 49.5691 57.4688 49.5691C57.4364 49.5691 57.4046 49.5765 57.3756 49.5909L56.2094 50.2667C56.1586 50.2958 56.161 50.3445 56.2094 50.3761L57.5571 51.1588ZM50.3444 55.3253C50.3732 55.3402 50.4052 55.348 50.4376 55.348C50.47 55.348 50.5019 55.3402 50.5307 55.3253L51.6969 54.6471C51.7477 54.6179 51.7429 54.5693 51.6969 54.5401L50.3493 53.7574C50.3205 53.7425 50.2885 53.7347 50.2561 53.7347C50.2237 53.7347 50.1918 53.7425 50.163 53.7574L48.9943 54.4356C48.9459 54.4623 48.9483 54.511 48.9943 54.5426L50.3444 55.3253ZM52.0502 54.3359C52.0792 54.3503 52.111 54.3578 52.1433 54.3578C52.1756 54.3578 52.2075 54.3503 52.2365 54.3359L53.4027 53.6577C53.4535 53.6286 53.4511 53.5799 53.4027 53.5508L52.055 52.768C52.0262 52.7531 51.9943 52.7453 51.9619 52.7453C51.9295 52.7453 51.8975 52.7531 51.8687 52.768L50.7001 53.4462C50.6517 53.473 50.6541 53.5216 50.7001 53.5532L52.0502 54.3359ZM60.821 48.6745C60.85 48.6888 60.8819 48.6963 60.9142 48.6963C60.9465 48.6963 60.9784 48.6888 61.0073 48.6745L62.176 47.9987C62.2243 47.9695 62.2219 47.9209 62.176 47.8893L61.8154 47.6802C61.7865 47.6659 61.7546 47.6584 61.7223 47.6584C61.69 47.6584 61.6581 47.6659 61.6291 47.6802L60.4629 48.356C60.4121 48.3852 60.417 48.4338 60.4629 48.4654L60.821 48.6745ZM65.9408 45.7039C65.9691 45.7189 66.0007 45.7266 66.0327 45.7266C66.0647 45.7266 66.0963 45.7189 66.1246 45.7039L67.2933 45.0257C67.3417 44.9966 67.3393 44.9504 67.2933 44.9188L66.9352 44.7097C66.9064 44.6948 66.8745 44.687 66.842 44.687C66.8096 44.687 66.7777 44.6948 66.7489 44.7097L65.5803 45.3855C65.5319 45.4147 65.5343 45.4633 65.5803 45.4949L65.9408 45.7039ZM68.774 47.3496C68.803 47.364 68.8349 47.3715 68.8672 47.3715C68.8995 47.3715 68.9314 47.364 68.9603 47.3496L70.129 46.6714C70.1774 46.6423 70.175 46.5936 70.129 46.5645L68.7789 45.7793C68.7499 45.7649 68.718 45.7575 68.6857 45.7575C68.6534 45.7575 68.6216 45.7649 68.5926 45.7793L67.4264 46.4551C67.3755 46.4843 67.3804 46.5329 67.4264 46.5645L68.774 47.3496ZM73.0397 51.6984L74.2083 51.0202C74.2567 50.9935 74.2543 50.9449 74.2083 50.9133L72.8582 50.1305C72.8293 50.1162 72.7974 50.1087 72.7651 50.1087C72.7328 50.1087 72.7009 50.1162 72.6719 50.1305L71.5057 50.8088C71.4549 50.8379 71.4573 50.8865 71.5057 50.9157L72.8558 51.6984C72.8843 51.713 72.9158 51.7205 72.9478 51.7205C72.9797 51.7205 73.0112 51.713 73.0397 51.6984ZM62.5268 47.6851C62.5558 47.6995 62.5876 47.7069 62.6199 47.7069C62.6522 47.7069 62.6841 47.6995 62.7131 47.6851L63.8817 47.0093C63.9301 46.9801 63.9277 46.9315 63.8817 46.8999L63.5212 46.6909C63.4923 46.6765 63.4604 46.669 63.4281 46.669C63.3958 46.669 63.3639 46.6765 63.3349 46.6909L62.1687 47.3667C62.1203 47.3958 62.1227 47.4444 62.1687 47.476L62.5268 47.6851ZM48.6386 56.3147C48.6674 56.3296 48.6994 56.3374 48.7318 56.3374C48.7642 56.3374 48.7961 56.3296 48.8249 56.3147L49.9912 55.6364C50.0396 55.6073 50.0371 55.5611 49.9912 55.5295L48.6411 54.7467C48.6123 54.7318 48.5803 54.724 48.5479 54.724C48.5155 54.724 48.4836 54.7318 48.4548 54.7467L47.2885 55.425C47.2401 55.4541 47.2426 55.5003 47.2885 55.5319L48.6386 56.3147Z" fill="#455A64"/>
<path d="M55.5762 66.9693L68.3513 59.5576L76.2148 64.1179L63.4373 71.5296L55.5762 66.9693Z" fill="#263238"/>
<path d="M27.1796 29.621L65.2535 7.5366C65.9963 7.10391 66.606 7.45881 66.606 8.32177V37.9467C66.5938 38.1658 66.5305 38.3789 66.4212 38.569C66.312 38.759 66.1598 38.9205 65.9769 39.0406L26.9377 61.6865C26.5917 61.8858 26.3086 61.7229 26.3086 61.3218V31.1354C26.326 30.8322 26.4138 30.5372 26.5651 30.2743C26.7163 30.0113 26.9268 29.7875 27.1796 29.621Z" fill="#F5F5F5"/>
<path d="M66.6181 9.03198V8.32217C66.6181 7.45921 66.0084 7.10674 65.2656 7.537L27.1796 29.6214C26.9268 29.7879 26.7163 30.0117 26.5651 30.2747C26.4138 30.5376 26.326 30.8326 26.3086 31.1358V32.4071L66.6181 9.03198Z" fill="#176CF7"/>
<path d="M60.9357 10.6486C60.7998 10.7375 60.6867 10.8574 60.6055 10.9984C60.5244 11.1395 60.4775 11.2978 60.4688 11.4605C60.4688 11.7595 60.6768 11.8811 60.9357 11.7304C61.0711 11.6417 61.1838 11.5222 61.2645 11.3816C61.3453 11.2409 61.3918 11.083 61.4003 10.9209C61.4003 10.6219 61.1922 10.5003 60.9357 10.6486Z" fill="white"/>
<path d="M62.7868 9.57597C62.6513 9.66512 62.5387 9.78509 62.458 9.92615C62.3773 10.0672 62.3308 10.2254 62.3223 10.3879C62.3223 10.6869 62.5303 10.806 62.7868 10.6577C62.9227 10.5688 63.0359 10.449 63.117 10.3079C63.1982 10.1668 63.245 10.0085 63.2538 9.8458C63.2538 9.5468 63.0457 9.42526 62.7868 9.57597Z" fill="white"/>
<path d="M64.6369 8.50166C64.5014 8.59097 64.3885 8.71092 64.3075 8.85191C64.2264 8.9929 64.1793 9.151 64.1699 9.31357C64.1699 9.61256 64.3804 9.73411 64.6369 9.58339C64.7726 9.4949 64.8857 9.37546 64.9668 9.23481C65.048 9.09415 65.0949 8.93624 65.1039 8.77392C65.1039 8.47492 64.8934 8.35338 64.6369 8.50166Z" fill="white"/>
<path d="M35.71 46.9106L34.2285 46.0513L30.6004 52.3647L32.0819 53.224L35.71 46.9106Z" fill="#37474F"/>
<path d="M35.7143 46.909L34.9746 46.48L31.3465 52.7934L32.0862 53.2225L35.7143 46.909Z" fill="#263238"/>
<path d="M26.6231 64.6932C25.948 65.8722 22.7518 64.0004 23.4245 62.8385L31.7598 49.7775C31.7822 49.7421 31.8174 49.7168 31.858 49.7068C31.8985 49.6968 31.9414 49.703 31.9775 49.724L33.6519 50.6963C33.6879 50.7168 33.7146 50.7506 33.7264 50.7905C33.7381 50.8304 33.7339 50.8733 33.7148 50.9102L26.6231 64.6932Z" fill="#176CF7"/>
<path opacity="0.1" d="M26.6228 64.6932L33.7121 50.9102C33.7312 50.8733 33.7354 50.8304 33.7237 50.7905C33.7119 50.7506 33.6852 50.7168 33.6492 50.6963L32.887 50.2539L24.7598 64.7686C25.5001 65.1356 26.3179 65.2256 26.6228 64.6932Z" fill="black"/>
<path d="M51.1317 33.945C51.1317 33.8453 51.1317 33.7481 51.1172 33.6509C51.1026 33.5536 51.1172 33.4588 51.0954 33.364C51.0736 33.2692 51.0954 33.2376 51.076 33.1744C51.0591 33.0091 51.0349 32.8463 51.0083 32.6882C50.9962 32.6178 50.9841 32.5448 50.9696 32.4743C50.955 32.4038 50.9429 32.3406 50.9284 32.275C50.8873 32.0951 50.8437 31.9201 50.7929 31.7524C50.7663 31.6721 50.7421 31.5919 50.7155 31.5093C50.7104 31.4975 50.7063 31.4853 50.7034 31.4728C50.6744 31.395 50.6478 31.3197 50.6187 31.2467C50.5897 31.1738 50.551 31.0766 50.5123 31.0037C50.4736 30.9307 50.459 30.8845 50.4276 30.8262C50.41 30.7824 50.389 30.7402 50.3647 30.6998C50.3405 30.6488 50.3139 30.5977 50.2848 30.5491C50.2558 30.5005 50.2727 30.5248 50.2655 30.5151C50.2582 30.5053 50.2147 30.4275 50.188 30.3838C50.1614 30.34 50.1518 30.3279 50.1348 30.3011C50.0108 30.1049 49.8717 29.9188 49.7187 29.7445L49.6412 29.657L49.5759 29.5889C49.5493 29.5597 49.5203 29.533 49.4912 29.5038C49.4152 29.4236 49.3344 29.3481 49.2493 29.2777C49.2081 29.2413 49.1646 29.2072 49.121 29.1756L48.988 29.0784C48.9188 29.0275 48.8469 28.9804 48.7726 28.9374L48.7145 28.901H48.7025L45.274 26.9125L45.2546 26.9004C44.5968 26.5318 43.8543 26.3432 43.1012 26.3534C41.9786 26.3534 40.7107 26.7229 39.3679 27.5008C34.7562 30.1747 31.0156 36.6846 31.0156 42.0373C31.0156 44.7113 31.9447 46.583 33.4473 47.463H33.4618L36.8927 49.449H36.9072L36.9483 49.4709C37.0127 49.5091 37.0789 49.544 37.1467 49.5754C37.229 49.6168 37.3137 49.6532 37.3887 49.6873C37.4637 49.7213 37.5411 49.748 37.6185 49.7723L37.7419 49.8088C37.7852 49.8254 37.8297 49.8384 37.875 49.8477C37.9196 49.8613 37.9648 49.8727 38.0105 49.8817C38.043 49.8913 38.0762 49.8987 38.1097 49.9036C38.1678 49.9158 38.2307 49.9279 38.2912 49.9352C38.3048 49.9375 38.3187 49.9375 38.3323 49.9352C38.4049 49.9482 38.4775 49.9579 38.5501 49.9644C39.7937 50.0956 41.2406 49.7432 42.7891 48.8462C47.4032 46.1722 51.1438 39.66 51.1438 34.3096C51.1317 34.1978 51.1317 34.0714 51.1317 33.945ZM45.5353 30.1601C45.7165 30.8253 45.8052 31.5125 45.799 32.2021C45.799 36.9228 42.3608 42.8979 38.2984 45.2655C37.7046 45.6202 37.0634 45.8878 36.3943 46.0604C36.2141 45.3942 36.1254 44.7064 36.1305 44.0161C36.1305 39.2953 39.5687 33.3203 43.6311 30.9526C44.2227 30.5993 44.8614 30.3324 45.528 30.1601H45.5353Z" fill="#176CF7"/>
<path opacity="0.1" d="M36.7536 49.3813L33.4219 47.4512C31.9193 46.5688 30.9902 44.6922 30.9902 42.0279C30.9902 39.6408 31.7355 37.0252 32.967 34.6235L36.3979 36.6071C35.1639 39.0088 34.4211 41.6244 34.4211 44.0115C34.4211 46.6271 35.3067 48.477 36.7536 49.3813Z" fill="black"/>
<path opacity="0.4" d="M51.1338 33.9454C51.1338 33.8457 51.1338 33.7485 51.1193 33.6512C51.1048 33.554 51.1193 33.4592 51.0975 33.3644C51.0757 33.2696 51.0975 33.238 51.0782 33.1748C51.0612 33.0095 51.037 32.8466 51.0104 32.6886C50.9983 32.6181 50.9862 32.5452 50.9717 32.4747C50.9572 32.4042 50.9451 32.341 50.9306 32.2754C50.8894 32.0955 50.8459 31.9205 50.7951 31.7527C50.7685 31.6725 50.7443 31.5923 50.7176 31.5097C50.7125 31.4979 50.7085 31.4857 50.7055 31.4732C50.6765 31.3954 50.6499 31.32 50.6209 31.2471C50.5918 31.1742 50.5531 31.077 50.5144 31.004C50.4757 30.9311 50.4612 30.8849 50.4297 30.8266C50.4122 30.7828 50.3911 30.7405 50.3668 30.7002C50.3426 30.6491 50.316 30.5981 50.287 30.5495C50.2579 30.5008 50.2749 30.5252 50.2676 30.5154C50.2604 30.5057 50.2168 30.4279 50.1902 30.3842C50.1636 30.3404 50.1539 30.3283 50.137 30.3015C50.013 30.1053 49.8738 29.9192 49.7208 29.7448L49.6434 29.6573L49.578 29.5893C49.5514 29.5601 49.5224 29.5334 49.4934 29.5042C49.4174 29.424 49.3366 29.3485 49.2514 29.2781C49.2103 29.2417 49.1667 29.2076 49.1232 29.176L48.9901 29.0788C48.9209 29.0279 48.8491 28.9808 48.7748 28.9378C47.2577 28.0116 45.1454 28.121 42.7961 29.4799C38.182 32.1538 34.4414 38.6637 34.4414 44.0164C34.4414 46.7268 35.4092 48.6205 36.9456 49.481C37.01 49.5192 37.0762 49.5541 37.144 49.5855C37.2263 49.6269 37.311 49.6633 37.386 49.6974C37.461 49.7314 37.5384 49.7581 37.6158 49.7824L37.7392 49.8189C37.7825 49.8355 37.827 49.8485 37.8723 49.8578C37.9169 49.8714 37.9621 49.8828 38.0078 49.8918C38.0403 49.9014 38.0735 49.9087 38.107 49.9137C38.1651 49.9259 38.228 49.938 38.2885 49.9453C38.3021 49.9476 38.316 49.9476 38.3296 49.9453C38.4022 49.9583 38.4748 49.968 38.5474 49.9745C39.791 50.1057 41.2379 49.7533 42.7864 48.8563C47.4005 46.1823 51.1411 39.6701 51.1411 34.3197C51.1338 34.1982 51.1338 34.0718 51.1338 33.9454ZM41.9396 47.3905C40.904 47.9909 39.9071 48.3069 39.0555 48.3069C37.4562 48.3069 36.7206 47.2106 36.394 46.0608C36.2138 45.3946 36.1251 44.7068 36.1302 44.0164C36.1302 39.2957 39.5684 33.3206 43.6308 30.953C44.2247 30.599 44.8659 30.3321 45.535 30.1605C45.8517 30.0817 46.1765 30.0401 46.5028 30.0366C49.1474 30.0366 49.4305 33.0362 49.4305 34.327C49.4401 39.038 46.002 45.0301 41.9396 47.3905Z" fill="white"/>
<path opacity="0.1" d="M49.4407 34.3271C49.4407 39.0478 46.0049 45.0229 41.9401 47.3905C40.9046 47.991 39.9077 48.307 39.056 48.307C37.4567 48.307 36.7212 47.2107 36.3945 46.0609C37.0637 45.8883 37.7049 45.6206 38.2987 45.266C42.3684 42.9056 45.7993 36.9233 45.7993 32.2025C45.8055 31.5129 45.7168 30.8258 45.5355 30.1606C45.8523 30.0817 46.1771 30.0401 46.5034 30.0366C49.1552 30.0439 49.4407 33.0363 49.4407 34.3271Z" fill="black"/>
<path opacity="0.7" d="M47.9883 33.503C47.9883 38.2238 44.5526 44.1988 40.4877 46.5665C39.4522 47.1669 38.4553 47.4829 37.6036 47.4829C37.4342 47.4833 37.2651 47.4695 37.098 47.4416C36.771 47.0358 36.5327 46.5653 36.3987 46.0609C36.2185 45.3947 36.1298 44.7069 36.135 44.0165C36.135 39.2958 39.5731 33.3207 43.6355 30.9531C44.2294 30.5991 44.8707 30.3322 45.5397 30.1606C45.8565 30.0818 46.1812 30.0402 46.5075 30.0366C46.6778 30.0362 46.8477 30.05 47.0156 30.078C47.8528 31.0673 47.9883 32.6547 47.9883 33.503Z" fill="white"/>
<path d="M53.8359 28.5857V33.9677C53.8359 34.3712 54.119 34.5341 54.465 34.3323L89.5725 13.969C89.7554 13.8489 89.9076 13.6874 90.0168 13.4974C90.1261 13.3073 90.1894 13.0942 90.2016 12.8751V7.48586C90.2016 7.08234 89.9185 6.91947 89.5725 7.12123L54.465 27.4846C54.2813 27.6055 54.1287 27.7682 54.0194 27.9595C53.91 28.1509 53.8472 28.3654 53.8359 28.5857Z" fill="#E6E6E6"/>
<path d="M54.465 27.4848L60.7171 23.8604V30.7008L54.465 34.3252C54.119 34.527 53.8359 34.3641 53.8359 33.9606V28.5859C53.8472 28.3656 53.91 28.1511 54.0194 27.9597C54.1287 27.7684 54.2813 27.6057 54.465 27.4848Z" fill="#176CF7"/>
<path d="M58.6478 26.845C58.2534 26.6165 57.755 26.6529 57.2444 26.9495C56.7593 27.2618 56.3557 27.6862 56.0673 28.1874C55.779 28.6886 55.6143 29.2518 55.5871 29.8301C55.57 30.2048 55.6876 30.5732 55.9185 30.868L55.2459 32.0251C55.2021 32.1079 55.1915 32.2044 55.2162 32.2948C55.2409 32.3852 55.2992 32.4627 55.379 32.5113C55.4344 32.5426 55.4968 32.5593 55.5604 32.5599C55.6242 32.56 55.6868 32.5431 55.742 32.5111C55.7973 32.4791 55.8431 32.4331 55.875 32.3776L56.5404 31.2205C56.6122 31.234 56.685 31.2414 56.7581 31.2424C57.0551 31.237 57.3455 31.1531 57.6001 30.9993C58.0844 30.6863 58.4872 30.2616 58.7751 29.7605C59.063 29.2595 59.2275 28.6966 59.2551 28.1187C59.2623 27.528 59.0446 27.0759 58.6478 26.845ZM57.2444 30.3697C57.1595 30.4616 57.046 30.5218 56.9225 30.5404C56.7991 30.5591 56.673 30.5352 56.5648 30.4725C56.4567 30.4099 56.3729 30.3122 56.3271 30.1955C56.2814 30.0788 56.2764 29.95 56.3129 29.8301C56.3411 29.3803 56.4727 28.9432 56.6973 28.553C56.9219 28.1629 57.2334 27.8304 57.6074 27.5815C57.7525 27.4887 57.9194 27.4359 58.0913 27.4284C58.1622 27.4257 58.2324 27.4425 58.2945 27.477C58.3856 27.5552 58.4555 27.6553 58.4978 27.7679C58.5401 27.8805 58.5534 28.002 58.5365 28.1212C58.5085 28.5707 58.3773 29.0077 58.1532 29.3978C57.929 29.7879 57.618 30.1206 57.2444 30.3697Z" fill="white"/>
</svg>
