<svg width="23" height="32" viewBox="0 0 23 32" fill="none" xmlns="http://www.w3.org/2000/svg">
<path fill-rule="evenodd" clip-rule="evenodd" d="M0 0V29.9965C0 31.6751 1.94319 32.607 3.25215 31.556L10.2479 25.9392C10.9793 25.3519 12.0207 25.3519 12.7521 25.9392L19.7479 31.556C21.0568 32.607 23 31.6751 23 29.9965V0H0Z" fill="#176CF7"/>
<path d="M4.47833 6.03429C3.65783 6.19806 3.20133 7.05807 3.49775 7.77996C3.63593 8.11649 3.98162 8.36844 3.9931 8.7482C4.00599 9.1745 3.66108 9.43347 3.42284 9.75102C3.16927 10.089 3.01074 10.5125 3.0006 10.9267C2.98993 11.3629 3.12126 11.8044 3.37296 12.1716C3.60512 12.5103 3.95287 12.7431 3.99093 13.1744C4.02312 13.5393 3.72679 13.776 3.56453 14.0735C3.28743 14.5816 3.38831 15.2653 3.85155 15.6538C4.26471 16.0003 4.73686 15.9754 5.25442 15.9754H7.54574H15.0479H17.3762C17.7503 15.9754 18.195 16.0363 18.5588 15.9491C19.3547 15.7584 19.8013 14.9263 19.5026 14.2118C19.3625 13.8768 19.0185 13.6223 19.0071 13.2436C18.9936 12.7981 19.3623 12.541 19.6029 12.2062C19.8498 11.8626 19.9909 11.4448 19.9996 11.0305C20.0088 10.5946 19.8623 10.1465 19.6029 9.7856C19.3724 9.4648 19.0457 9.23056 19.0093 8.81736C18.9773 8.45437 19.2746 8.21556 19.4357 7.91828C19.73 7.3752 19.6001 6.65919 19.0761 6.27673C18.6669 5.97807 18.1965 6.01638 17.7088 6.01638H15.3066H7.98922H5.66094C5.28363 6.01638 4.84805 5.96047 4.47833 6.03429Z" fill="white"/>
<path d="M9.80014 8.79844C9.0531 8.92731 8.88606 9.9638 9.65232 10.2066C9.79338 10.2513 9.98777 10.2522 10.1328 10.2226C11.061 10.0332 10.7293 8.63816 9.80014 8.79844Z" fill="#176CF7"/>
<path d="M12.9421 9.00865C12.5329 9.08583 12.1887 9.55871 11.9073 9.82197L10.2812 11.3435C10.0111 11.5962 9.67196 11.8436 9.45536 12.1388C9.15154 12.553 9.518 13.0461 10.0225 12.9997C10.4165 12.9635 10.7588 12.4873 11.0204 12.2426L12.6834 10.6865C12.9635 10.4244 13.3195 10.1666 13.5388 9.85655C13.8249 9.452 13.46 8.91096 12.9421 9.00865Z" fill="#176CF7"/>
<path d="M9.14807 9.36022C9.14597 9.36212 9.14383 9.39864 9.16086 9.38325C9.16296 9.38135 9.16511 9.34483 9.14807 9.36022Z" fill="#FFE6AE"/>
<path d="M12.8312 11.7796C11.8982 12.0322 12.3363 13.4199 13.2747 13.1793C14.0944 12.9691 14.0061 11.7782 13.1268 11.758C13.0288 11.7558 12.9262 11.7539 12.8312 11.7796Z" fill="#176CF7"/>
</svg>
