<svg width="49" height="49" viewBox="0 0 49 49" fill="none" xmlns="http://www.w3.org/2000/svg">
<g clip-path="url(#clip0_898_15319)">
<path d="M1.27734 45.654C1.27809 46.464 1.59137 47.2405 2.1484 47.8132C2.70544 48.3859 3.46072 48.708 4.24849 48.7088H24.3299C25.1073 48.7149 25.8559 48.4068 26.4146 47.8511C26.9732 47.2953 27.2973 46.5361 27.317 45.7371C27.3366 44.9381 27.0504 44.1631 26.5198 43.5789C25.9892 42.9948 25.2567 42.6482 24.48 42.6138C24.2693 41.6662 23.7524 40.8201 23.0137 40.2134C22.275 39.6068 21.3582 39.2755 20.4128 39.2736H8.17131C7.22688 39.2768 6.31133 39.6087 5.57379 40.2153C4.83626 40.8218 4.32021 41.6672 4.1097 42.6138C3.34821 42.6497 2.62934 42.9854 2.10205 43.5514C1.57475 44.1174 1.27945 44.8703 1.27734 45.654ZM8.16564 41.2131H20.4184C20.8591 41.2136 21.2903 41.3446 21.6605 41.5904C22.0307 41.8362 22.3242 42.1865 22.5059 42.5992H6.09236C6.27347 42.1878 6.56564 41.8385 6.93417 41.5928C7.30269 41.3471 7.73208 41.2153 8.17131 41.2131H8.16564ZM4.25415 44.5387H24.3356C24.4825 44.531 24.6294 44.554 24.7674 44.6065C24.9054 44.659 25.0316 44.7398 25.1382 44.844C25.2449 44.9482 25.3298 45.0736 25.3878 45.2126C25.4459 45.3516 25.4758 45.5013 25.4758 45.6526C25.4758 45.8038 25.4459 45.9535 25.3878 46.0925C25.3298 46.2315 25.2449 46.3569 25.1382 46.4611C25.0316 46.5653 24.9054 46.6461 24.7674 46.6986C24.6294 46.7511 24.4825 46.7742 24.3356 46.7664H4.25415C4.10722 46.7742 3.9603 46.7511 3.82232 46.6986C3.68433 46.6461 3.55818 46.5653 3.45152 46.4611C3.34487 46.3569 3.25994 46.2315 3.20191 46.0925C3.14387 45.9535 3.11395 45.8038 3.11395 45.6526C3.11395 45.5013 3.14387 45.3516 3.20191 45.2126C3.25994 45.0736 3.34487 44.9482 3.45152 44.844C3.55818 44.7398 3.68433 44.659 3.82232 44.6065C3.9603 44.554 4.10722 44.531 4.25415 44.5387ZM46.9973 43.6825L47.5354 43.0768C48.1769 42.348 48.5122 41.388 48.4681 40.4061C48.4241 39.4243 48.0043 38.5001 47.3004 37.8351L33.0932 24.4948C32.8047 24.2388 32.4553 24.066 32.0807 23.9939C31.7061 23.9217 31.3196 23.9529 30.9605 24.0842L26.9414 20.2984L30.9661 15.7585C31.2961 15.384 31.487 14.9017 31.5051 14.3967C31.5233 13.8917 31.3675 13.3963 31.0653 12.9978C31.1382 12.9395 31.2073 12.8763 31.272 12.8085L32.3823 11.5563C32.7626 11.1259 32.9613 10.5579 32.9347 9.977C32.9082 9.39612 32.6586 8.84978 32.2407 8.45788L25.0975 1.8387C24.6734 1.46181 24.125 1.26628 23.565 1.29227C23.005 1.31827 22.476 1.56383 22.0867 1.97848L20.7838 3.43452C20.3661 3.18138 19.8777 3.0802 19.3973 3.14729C18.9169 3.21438 18.4724 3.44584 18.1355 3.80436L6.31328 17.1505C5.9822 17.5203 5.78827 17.9981 5.76549 18.5002C5.7427 19.0023 5.89251 19.4967 6.18865 19.8966L4.88577 21.3526C4.69678 21.5654 4.55049 21.8145 4.4553 22.0855C4.36011 22.3565 4.31788 22.6442 4.33103 22.9321C4.34419 23.2199 4.41247 23.5023 4.53197 23.7629C4.65146 24.0236 4.81982 24.2574 5.02739 24.4511L12.1734 31.0819C12.3802 31.276 12.6221 31.4262 12.8853 31.5241C13.1485 31.6219 13.428 31.6655 13.7076 31.6522C13.9872 31.639 14.2616 31.5692 14.5149 31.4468C14.7683 31.3245 14.9957 31.152 15.1842 30.9392L16.2945 29.687C16.3549 29.6151 16.4108 29.5392 16.4616 29.4599C16.8767 29.7321 17.3716 29.8457 17.8598 29.7808C18.3481 29.7158 18.7986 29.4765 19.1325 29.1046L23.0639 24.6841L27.0745 28.4348C26.9687 28.8177 26.9694 29.2234 27.0765 29.6058C27.1837 29.9883 27.3929 30.3322 27.6806 30.5985L41.8877 43.9272C42.2388 44.256 42.6495 44.5106 43.0963 44.6763C43.5431 44.842 44.0173 44.9156 44.4918 44.8929C44.9662 44.8701 45.4317 44.7516 45.8616 44.5439C46.2915 44.3362 46.6774 44.0435 46.9973 43.6825ZM23.4802 3.28892C23.6105 3.14331 23.7068 3.1637 23.8286 3.28892L30.9746 9.91975C31.0221 9.96429 31.0505 10.0263 31.0537 10.0923C31.0569 10.1583 31.0346 10.223 30.9916 10.2721L29.8813 11.5243C29.7511 11.6699 29.6548 11.6495 29.533 11.5243L22.2113 4.72167L23.4802 3.28892ZM14.901 28.3911L13.7879 29.6433C13.6576 29.7889 13.5613 29.7686 13.4423 29.6433L6.29629 23.0242C6.24881 22.9796 6.22038 22.9176 6.2172 22.8516C6.21402 22.7856 6.23633 22.721 6.27929 22.6718L7.55668 21.2303L14.9208 28.0737C14.9514 28.1129 14.9701 28.1605 14.9746 28.2106C14.9751 28.2443 14.9688 28.2777 14.9561 28.3088C14.9435 28.3398 14.9247 28.3679 14.901 28.3911ZM17.7334 27.8087C17.7173 27.8339 17.6958 27.8548 17.6705 27.8699C17.6451 27.8849 17.6167 27.8936 17.5875 27.8953C17.5583 27.897 17.5291 27.8917 17.5023 27.8797C17.4755 27.8676 17.4518 27.8493 17.4331 27.8262L16.2067 26.6847C16.1841 26.6614 16.1671 26.6322 16.1416 26.6119L7.71813 18.755C7.69929 18.7361 7.68432 18.7134 7.6741 18.6884C7.66388 18.6634 7.65862 18.6365 7.65862 18.6094C7.65862 18.5823 7.66388 18.5555 7.6741 18.5305C7.68432 18.5055 7.69929 18.4828 7.71813 18.4638L19.5319 5.12645C19.5515 5.10418 19.5756 5.08663 19.6025 5.07505C19.6294 5.06348 19.6585 5.05816 19.6877 5.05947C19.7356 5.06131 19.7815 5.07979 19.818 5.11189L29.5613 14.1831C29.5945 14.2239 29.6126 14.2754 29.6126 14.3287C29.6126 14.3819 29.5945 14.4334 29.5613 14.4743L17.7334 27.8087ZM24.3356 23.2484L25.6696 21.7545L29.4905 25.3364L28.1649 26.8332L24.3356 23.2484ZM28.9523 29.1628C28.9112 29.1203 28.8881 29.0627 28.8881 29.0027C28.8881 28.9427 28.9112 28.8851 28.9523 28.8425L31.5241 25.9304C31.5636 25.8861 31.6186 25.8597 31.677 25.857C31.7354 25.8542 31.7924 25.8754 31.8357 25.9159L46.0286 39.2562C46.367 39.5744 46.569 40.0176 46.5902 40.4887C46.6114 40.9597 46.4502 41.4202 46.1419 41.7693L45.6038 42.375C45.2879 42.7117 44.8586 42.9113 44.4041 42.933C43.9496 42.9546 43.5043 42.7967 43.1594 42.4915L28.9523 29.1628Z" fill="#5EB579" stroke="#5EB579" stroke-width="0.2"/>
</g>
<defs>
<clipPath id="clip0_898_15319">
<rect width="48" height="48" fill="white" transform="translate(1 1)"/>
</clipPath>
</defs>
</svg>
