<svg width="120" height="33" viewBox="0 0 120 33" fill="none" xmlns="http://www.w3.org/2000/svg">
<path d="M41.3104 10.7474C41.3104 12.873 40.68 14.951 39.499 16.7184C38.3181 18.4858 36.6395 19.8633 34.6756 20.6767C32.7117 21.4902 30.5508 21.7029 28.4659 21.2882C26.3811 20.8734 24.4661 19.8497 22.9631 18.3466C21.4601 16.8435 20.4366 14.9284 20.022 12.8435C19.6074 10.7587 19.8204 8.5977 20.634 6.63389C21.4476 4.67008 22.8252 2.99164 24.5927 1.81081C26.3603 0.629985 28.4382 -0.000182515 30.5639 3.96524e-08C31.9753 3.96524e-08 33.3728 0.277989 34.6768 0.818095C35.9807 1.3582 37.1655 2.14985 38.1634 3.14783C39.1614 4.14582 39.9531 5.3306 40.4932 6.63453C41.0333 7.93847 41.3113 9.33601 41.3113 10.7474" fill="#FFC217"/>
<path d="M1.51464 5.47339C1.76442 5.47018 2.01085 5.53101 2.23044 5.6501C2.45003 5.76918 2.63544 5.94254 2.76899 6.15364C3.82614 5.57671 5.04216 5.359 6.23381 5.5333C7.42546 5.7076 8.52818 6.26448 9.3758 7.12002C10.1228 6.3518 11.0798 5.82101 12.127 5.59414C13.1743 5.36726 14.2652 5.45438 15.2631 5.84457C16.2611 6.23477 17.1217 6.9107 17.7373 7.78773C18.3529 8.66477 18.6961 9.70393 18.7239 10.7751V15.7371C18.7116 16.1278 18.5456 16.4978 18.262 16.7667C17.9783 17.0357 17.6 17.1818 17.2093 17.1733C17.0172 17.1771 16.8262 17.1429 16.6474 17.0727C16.4685 17.0025 16.3053 16.8977 16.167 16.7643C16.0288 16.6308 15.9183 16.4714 15.8418 16.2951C15.7653 16.1189 15.7244 15.9292 15.7214 15.7371V10.776C15.7214 10.132 15.4656 9.51428 15.0101 9.05887C14.5547 8.60346 13.9371 8.3476 13.293 8.3476C12.6489 8.3476 12.0313 8.60346 11.5759 9.05887C11.1204 9.51428 10.8646 10.132 10.8646 10.776V15.7371C10.8616 15.9292 10.8207 16.1189 10.7442 16.2951C10.6677 16.4714 10.5572 16.6308 10.419 16.7643C10.2807 16.8977 10.1175 17.0025 9.93864 17.0727C9.75978 17.1429 9.56883 17.1771 9.37673 17.1733C8.98565 17.1823 8.60687 17.0364 8.32284 16.7674C8.03882 16.4984 7.87255 16.1281 7.86024 15.7371V10.776C7.86024 10.132 7.60439 9.51428 7.14898 9.05887C6.69356 8.60346 6.07589 8.3476 5.43184 8.3476C4.78778 8.3476 4.17011 8.60346 3.7147 9.05887C3.25928 9.51428 3.00343 10.132 3.00343 10.776V15.7371C3.00043 15.9292 2.95952 16.1189 2.88305 16.2951C2.80658 16.4714 2.69605 16.6308 2.55781 16.7643C2.41956 16.8977 2.25633 17.0025 2.07747 17.0727C1.89862 17.1429 1.70766 17.1771 1.51556 17.1733C1.12464 17.182 0.746097 17.036 0.462274 16.7671C0.178451 16.4981 0.0123123 16.1279 0 15.7371V6.91142C0.0118358 6.52044 0.177638 6.14996 0.461312 5.88063C0.744987 5.61131 1.12357 5.46494 1.51464 5.47339Z" fill="#176CF7"/>
<path d="M42.4056 11.3242C42.4152 10.5456 42.5783 9.77649 42.8854 9.06097C43.1926 8.34545 43.6378 7.69752 44.1957 7.15425C44.7535 6.61099 45.413 6.18305 46.1364 5.89493C46.8598 5.6068 47.6329 5.46415 48.4115 5.47513C49.5063 5.47532 50.5805 5.77298 51.5193 6.33629C51.6364 6.06994 51.8312 5.8452 52.0783 5.69153C52.3253 5.53786 52.6131 5.46243 52.9038 5.47513C53.0959 5.47122 53.287 5.50531 53.466 5.57545C53.6449 5.64559 53.8083 5.75039 53.9466 5.88385C54.0849 6.0173 54.1955 6.17677 54.2721 6.35309C54.3486 6.52942 54.3895 6.71912 54.3925 6.91131V15.737C54.3895 15.9292 54.3486 16.1189 54.2721 16.2952C54.1955 16.4716 54.0849 16.631 53.9466 16.7645C53.8083 16.8979 53.6449 17.0027 53.466 17.0729C53.287 17.143 53.0959 17.1771 52.9038 17.1732C52.6131 17.1859 52.3253 17.1105 52.0783 16.9568C51.8312 16.8031 51.6364 16.5784 51.5193 16.312C50.5805 16.8754 49.5063 17.1731 48.4115 17.1732C47.6329 17.1842 46.8598 17.0415 46.1364 16.7534C45.413 16.4653 44.7535 16.0373 44.1957 15.4941C43.6378 14.9508 43.1926 14.3029 42.8854 13.5874C42.5783 12.8718 42.4152 12.1028 42.4056 11.3242ZM45.4081 11.3242C45.4008 11.9166 45.5696 12.4979 45.8932 12.9943C46.2168 13.4906 46.6806 13.8797 47.2256 14.112C47.7707 14.3444 48.3725 14.4096 48.9547 14.2994C49.5368 14.1892 50.0731 13.9085 50.4955 13.493C50.9179 13.0774 51.2074 12.5458 51.3272 11.9655C51.4469 11.3852 51.3916 10.7825 51.1682 10.2337C50.9449 9.68486 50.5635 9.21478 50.0725 8.88308C49.5816 8.55138 49.0031 8.373 48.4106 8.37057C48.0194 8.36704 47.6314 8.44068 47.2687 8.58726C46.906 8.73384 46.5758 8.95049 46.2969 9.22482C46.0181 9.49915 45.796 9.82577 45.6435 10.186C45.491 10.5462 45.411 10.933 45.4081 11.3242Z" fill="#176CF7"/>
<path d="M56.429 11.8725V3.59419C56.4413 3.20353 56.6073 2.83352 56.891 2.56459C57.1746 2.29565 57.5529 2.14954 57.9436 2.158C58.1358 2.15409 58.3269 2.18818 58.5058 2.25832C58.6848 2.32846 58.8481 2.43327 58.9865 2.56672C59.1248 2.70017 59.2354 2.85964 59.312 3.03596C59.3885 3.21229 59.4294 3.40199 59.4324 3.59419V5.44941H61.3126C61.5072 5.44246 61.7013 5.4748 61.8832 5.54449C62.0651 5.61419 62.231 5.71981 62.3712 5.85506C62.5113 5.99031 62.6228 6.15241 62.699 6.33168C62.7751 6.51096 62.8143 6.70374 62.8143 6.89851C62.8143 7.09329 62.7751 7.28607 62.699 7.46534C62.6228 7.64462 62.5113 7.80672 62.3712 7.94197C62.231 8.07722 62.0651 8.18284 61.8832 8.25253C61.7013 8.32223 61.5072 8.35457 61.3126 8.34762H59.4324V11.8735C59.4373 12.5134 59.6956 13.1253 60.1508 13.5751C60.606 14.0249 61.2209 14.276 61.8609 14.2733H62.9832C63.1797 14.2633 63.3761 14.2935 63.5605 14.3618C63.745 14.4302 63.9136 14.5353 64.0562 14.6708C64.1987 14.8064 64.3122 14.9695 64.3898 15.1502C64.4673 15.331 64.5073 15.5257 64.5073 15.7224C64.5073 15.9191 64.4673 16.1137 64.3898 16.2945C64.3122 16.4753 64.1987 16.6384 64.0562 16.7739C63.9136 16.9094 63.745 17.0146 63.5605 17.0829C63.3761 17.1513 63.1797 17.1814 62.9832 17.1715H61.8609C61.1562 17.1801 60.4567 17.0499 59.8023 16.7882C59.148 16.5264 58.5516 16.1384 58.0473 15.6461C57.543 15.1539 57.1406 14.5671 56.8631 13.9193C56.5855 13.2715 56.4384 12.5754 56.4299 11.8707" fill="#176CF7"/>
<path d="M65.4625 15.7112V10.775C65.4783 9.34912 66.0589 7.98768 67.077 6.98918C68.095 5.99067 69.4675 5.43659 70.8934 5.44841C71.6271 5.44575 72.354 5.5899 73.0312 5.87237C73.7083 6.15484 74.3221 6.56993 74.8365 7.09319C75.5851 6.32354 76.5445 5.79236 77.5941 5.56642C78.6438 5.34048 79.7367 5.42985 80.7357 5.82331C81.7347 6.21677 82.5951 6.89675 83.2087 7.77778C83.8224 8.65882 84.1619 9.70159 84.1846 10.775V15.7103C84.1812 15.9058 84.1394 16.0987 84.0614 16.278C83.9834 16.4573 83.8709 16.6194 83.7303 16.7552C83.5896 16.891 83.4235 16.9977 83.2416 17.0693C83.0597 17.1408 82.8654 17.1759 82.6699 17.1723C82.4758 17.1755 82.283 17.14 82.1026 17.068C81.9223 16.996 81.7581 16.8889 81.6196 16.7528C81.4811 16.6168 81.371 16.4546 81.2957 16.2756C81.2204 16.0966 81.1815 15.9045 81.1811 15.7103V10.775C81.1811 10.131 80.9253 9.51329 80.4699 9.05788C80.0145 8.60247 79.3968 8.34662 78.7528 8.34662C78.1087 8.34662 77.491 8.60247 77.0356 9.05788C76.5802 9.51329 76.3243 10.131 76.3243 10.775V15.7103C76.324 15.9045 76.2851 16.0966 76.2098 16.2756C76.1345 16.4546 76.0244 16.6168 75.8859 16.7528C75.7474 16.8889 75.5832 16.996 75.4028 17.068C75.2225 17.14 75.0297 17.1755 74.8355 17.1723C74.6401 17.1759 74.4458 17.1408 74.2639 17.0693C74.0819 16.9977 73.9159 16.891 73.7752 16.7552C73.6346 16.6194 73.522 16.4573 73.4441 16.278C73.3661 16.0987 73.3243 15.9058 73.3209 15.7103V10.775C73.3209 10.131 73.0651 9.51329 72.6097 9.05788C72.1542 8.60247 71.5365 8.34662 70.8925 8.34662C70.2484 8.34662 69.6308 8.60247 69.1754 9.05788C68.72 9.51329 68.4641 10.131 68.4641 10.775V15.7103C68.4638 15.9045 68.4248 16.0966 68.3496 16.2756C68.2743 16.4546 68.1642 16.6168 68.0256 16.7528C67.8871 16.8889 67.7229 16.996 67.5426 17.068C67.3623 17.14 67.1694 17.1755 66.9753 17.1723C66.7798 17.1759 66.5856 17.1408 66.4036 17.0693C66.2217 16.9977 66.0557 16.891 65.915 16.7552C65.7743 16.6194 65.6618 16.4573 65.5839 16.278C65.5059 16.0987 65.464 15.9058 65.4607 15.7103" fill="#176CF7"/>
<path d="M85.9379 6.91056C85.9412 6.71508 85.9831 6.52218 86.0611 6.34289C86.139 6.1636 86.2515 6.00143 86.3922 5.86565C86.5329 5.72987 86.6989 5.62314 86.8808 5.55157C87.0628 5.48 87.257 5.44499 87.4525 5.44853C87.6466 5.44535 87.8395 5.4808 88.0198 5.55281C88.2001 5.62482 88.3643 5.73197 88.5029 5.86801C88.6414 6.00406 88.7515 6.16628 88.8268 6.34526C88.902 6.52424 88.941 6.7164 88.9413 6.91056V11.8717C88.9413 12.5157 89.1972 13.1334 89.6526 13.5888C90.108 14.0442 90.7257 14.3001 91.3697 14.3001C92.0138 14.3001 92.6314 14.0442 93.0869 13.5888C93.5423 13.1334 93.7981 12.5157 93.7981 11.8717V6.91056C93.8015 6.71508 93.8433 6.52218 93.9213 6.34289C93.9992 6.1636 94.1118 6.00143 94.2524 5.86565C94.3931 5.72987 94.5591 5.62314 94.7411 5.55157C94.923 5.48 95.1173 5.44499 95.3127 5.44853C95.5069 5.44535 95.6997 5.4808 95.88 5.55281C96.0604 5.62482 96.2246 5.73197 96.3631 5.86801C96.5016 6.00406 96.6117 6.16628 96.687 6.34526C96.7623 6.52424 96.8012 6.7164 96.8015 6.91056V11.8717C96.7695 13.2909 96.1832 14.6413 95.1681 15.6337C94.153 16.6261 92.7898 17.1818 91.3702 17.1818C89.9506 17.1818 88.5873 16.6261 87.5723 15.6337C86.5572 14.6413 85.9709 13.2909 85.9388 11.8717L85.9379 6.91056Z" fill="#176CF7"/>
<path d="M98.1839 11.3242C98.2176 9.7572 98.8637 8.26572 99.9839 7.16939C101.104 6.07305 102.609 5.45911 104.176 5.45911C105.744 5.45911 107.249 6.07305 108.369 7.16939C109.489 8.26572 110.135 9.7572 110.169 11.3242V15.7112C110.169 15.9054 110.13 16.0976 110.054 16.2765C109.979 16.4555 109.869 16.6177 109.731 16.7538C109.592 16.8898 109.428 16.997 109.247 17.069C109.067 17.141 108.874 17.1764 108.68 17.1733C108.39 17.1804 108.105 17.1026 107.859 16.9494C107.613 16.7962 107.417 16.5744 107.296 16.3112C106.356 16.8717 105.282 17.1694 104.188 17.1733C102.617 17.191 101.103 16.5855 99.9769 15.4892C98.8513 14.393 98.2059 12.8953 98.182 11.3242H98.1839ZM104.188 14.2778C104.773 14.2702 105.342 14.0896 105.825 13.7589C106.307 13.4281 106.681 12.962 106.899 12.4193C107.117 11.8765 107.17 11.2813 107.05 10.7087C106.931 10.1361 106.645 9.61171 106.228 9.2015C105.811 8.7913 105.282 8.51366 104.707 8.40356C104.133 8.29346 103.538 8.35582 102.999 8.58278C102.46 8.80975 102 9.19117 101.677 9.67901C101.355 10.1668 101.184 10.7393 101.185 11.3242C101.194 12.1133 101.515 12.8669 102.078 13.4203C102.64 13.9737 103.399 14.282 104.188 14.2778Z" fill="#176CF7"/>
<path d="M111.921 11.8725V3.59419C111.933 3.20353 112.099 2.83352 112.383 2.56459C112.666 2.29565 113.045 2.14954 113.435 2.158C113.628 2.15409 113.819 2.18818 113.998 2.25832C114.177 2.32846 114.34 2.43327 114.478 2.56672C114.617 2.70017 114.727 2.85964 114.804 3.03596C114.88 3.21229 114.921 3.40199 114.924 3.59419V5.44941H116.804C116.999 5.44246 117.193 5.4748 117.375 5.54449C117.557 5.61419 117.723 5.71981 117.863 5.85506C118.003 5.99031 118.115 6.15241 118.191 6.33168C118.267 6.51096 118.306 6.70374 118.306 6.89851C118.306 7.09329 118.267 7.28607 118.191 7.46534C118.115 7.64462 118.003 7.80672 117.863 7.94197C117.723 8.07722 117.557 8.18284 117.375 8.25253C117.193 8.32223 116.999 8.35457 116.804 8.34762H114.924V11.8735C114.929 12.5134 115.187 13.1253 115.643 13.5751C116.098 14.0249 116.713 14.276 117.353 14.2733H118.476C118.672 14.2633 118.869 14.2935 119.053 14.3618C119.238 14.4302 119.406 14.5353 119.549 14.6708C119.691 14.8064 119.805 14.9695 119.882 15.1502C119.96 15.331 120 15.5257 120 15.7224C120 15.9191 119.96 16.1137 119.882 16.2945C119.805 16.4752 119.691 16.6384 119.549 16.7739C119.406 16.9094 119.238 17.0146 119.053 17.0829C118.869 17.1513 118.672 17.1814 118.476 17.1715H117.353C116.648 17.1801 115.948 17.0499 115.294 16.7882C114.64 16.5264 114.043 16.1384 113.539 15.6461C113.035 15.1539 112.632 14.5671 112.355 13.9193C112.077 13.2715 111.93 12.5754 111.922 11.8707" fill="#176CF7"/>
<path d="M61.0004 5.47511H52.8236V8.32994H61.0004V5.47511Z" fill="#176CF7"/>
<path d="M25.13 10.3966C25.1334 10.2011 25.1752 10.0082 25.2532 9.82893C25.3311 9.64964 25.4437 9.48746 25.5843 9.35168C25.725 9.2159 25.891 9.10918 26.073 9.03761C26.2549 8.96604 26.4492 8.93102 26.6447 8.93457C26.8388 8.93139 27.0316 8.96684 27.2119 9.03885C27.3922 9.11086 27.5564 9.21801 27.695 9.35405C27.8335 9.49009 27.9436 9.65232 28.0189 9.8313C28.0942 10.0103 28.1331 10.2024 28.1334 10.3966V11.8734C28.1334 12.5174 28.3893 13.1351 28.8447 13.5905C29.3001 14.046 29.9178 14.3018 30.5618 14.3018C31.2059 14.3018 31.8236 14.046 32.279 13.5905C32.7344 13.1351 32.9903 12.5174 32.9903 11.8734V10.3966C32.9936 10.2011 33.0355 10.0082 33.1134 9.82893C33.1914 9.64964 33.3039 9.48746 33.4446 9.35168C33.5852 9.2159 33.7513 9.10918 33.9332 9.03761C34.1152 8.96604 34.3094 8.93102 34.5049 8.93457C34.699 8.93151 34.8917 8.96705 35.0719 9.03912C35.2521 9.11119 35.4162 9.21835 35.5546 9.35438C35.6931 9.49042 35.8031 9.6526 35.8783 9.83152C35.9535 10.0104 35.9924 10.2025 35.9928 10.3966V11.8734C35.9607 13.2926 35.3744 14.643 34.3593 15.6354C33.3442 16.6278 31.981 17.1835 30.5614 17.1835C29.1418 17.1835 27.7785 16.6278 26.7635 15.6354C25.7484 14.643 25.1621 13.2926 25.13 11.8734V10.3966Z" fill="#176CF7"/>
<path d="M28.1574 6.74521C28.1574 7.04442 28.0687 7.3369 27.9025 7.58568C27.7363 7.83445 27.5 8.02835 27.2236 8.14285C26.9471 8.25735 26.643 8.28731 26.3495 8.22894C26.0561 8.17057 25.7865 8.02649 25.5749 7.81492C25.3634 7.60335 25.2193 7.3338 25.1609 7.04035C25.1025 6.74689 25.1325 6.44272 25.247 6.16629C25.3615 5.88987 25.5554 5.6536 25.8042 5.48737C26.053 5.32115 26.3454 5.23242 26.6446 5.23242C27.0459 5.23242 27.4306 5.39181 27.7143 5.67551C27.998 5.95921 28.1574 6.344 28.1574 6.74521Z" fill="#176CF7"/>
<path d="M35.9957 6.74521C35.9957 7.04442 35.907 7.3369 35.7408 7.58568C35.5745 7.83445 35.3383 8.02835 35.0618 8.14285C34.7854 8.25735 34.4812 8.28731 34.1878 8.22894C33.8943 8.17057 33.6248 8.02649 33.4132 7.81492C33.2016 7.60335 33.0576 7.3338 32.9992 7.04035C32.9408 6.74689 32.9708 6.44272 33.0853 6.16629C33.1998 5.88987 33.3937 5.6536 33.6424 5.48737C33.8912 5.32115 34.1837 5.23242 34.4829 5.23242C34.8841 5.23242 35.2689 5.39181 35.5526 5.67551C35.8363 5.95921 35.9957 6.344 35.9957 6.74521Z" fill="#176CF7"/>
<path d="M25.13 10.3966C25.1334 10.2011 25.1752 10.0082 25.2532 9.82893C25.3311 9.64964 25.4437 9.48746 25.5843 9.35168C25.725 9.2159 25.891 9.10918 26.073 9.03761C26.2549 8.96604 26.4492 8.93102 26.6447 8.93457C26.8388 8.93139 27.0316 8.96684 27.2119 9.03885C27.3922 9.11086 27.5564 9.21801 27.695 9.35405C27.8335 9.49009 27.9436 9.65232 28.0189 9.8313C28.0942 10.0103 28.1331 10.2024 28.1334 10.3966V11.8734C28.1334 12.5174 28.3893 13.1351 28.8447 13.5905C29.3001 14.046 29.9178 14.3018 30.5618 14.3018C31.2059 14.3018 31.8236 14.046 32.279 13.5905C32.7344 13.1351 32.9903 12.5174 32.9903 11.8734V10.3966C32.9936 10.2011 33.0355 10.0082 33.1134 9.82893C33.1914 9.64964 33.3039 9.48746 33.4446 9.35168C33.5852 9.2159 33.7513 9.10918 33.9332 9.03761C34.1152 8.96604 34.3094 8.93102 34.5049 8.93457C34.699 8.93151 34.8917 8.96705 35.0719 9.03912C35.2521 9.11119 35.4162 9.21835 35.5546 9.35438C35.6931 9.49042 35.8031 9.6526 35.8783 9.83152C35.9535 10.0104 35.9924 10.2025 35.9928 10.3966V11.8734C35.9607 13.2926 35.3744 14.643 34.3593 15.6354C33.3442 16.6278 31.981 17.1835 30.5614 17.1835C29.1418 17.1835 27.7785 16.6278 26.7635 15.6354C25.7484 14.643 25.1621 13.2926 25.13 11.8734V10.3966Z" fill="#176CF7"/>
<path d="M28.1574 6.74521C28.1574 7.04442 28.0687 7.3369 27.9025 7.58568C27.7363 7.83445 27.5 8.02835 27.2236 8.14285C26.9471 8.25735 26.643 8.28731 26.3495 8.22894C26.0561 8.17057 25.7865 8.02649 25.5749 7.81492C25.3634 7.60335 25.2193 7.3338 25.1609 7.04035C25.1025 6.74689 25.1325 6.44272 25.247 6.16629C25.3615 5.88987 25.5554 5.6536 25.8042 5.48737C26.053 5.32115 26.3454 5.23242 26.6446 5.23242C27.0459 5.23242 27.4306 5.39181 27.7143 5.67551C27.998 5.95921 28.1574 6.344 28.1574 6.74521Z" fill="#176CF7"/>
<path d="M35.9957 6.74521C35.9957 7.04442 35.907 7.3369 35.7408 7.58568C35.5745 7.83445 35.3383 8.02835 35.0618 8.14285C34.7854 8.25735 34.4812 8.28731 34.1878 8.22894C33.8943 8.17057 33.6248 8.02649 33.4132 7.81492C33.2016 7.60335 33.0576 7.3338 32.9992 7.04035C32.9408 6.74689 32.9708 6.44272 33.0853 6.16629C33.1998 5.88987 33.3937 5.6536 33.6424 5.48737C33.8912 5.32115 34.1837 5.23242 34.4829 5.23242C34.8841 5.23242 35.2689 5.39181 35.5526 5.67551C35.8363 5.95921 35.9957 6.344 35.9957 6.74521Z" fill="#176CF7"/>
<path d="M31.21 23.5C30.67 22.99 29.86 22.74 29.15 22.74C27.87 22.74 26.56 23.38 26.56 24.82C26.56 26.14 27.49 26.56 28.35 26.83C29.24 27.11 29.98 27.32 29.98 28.06C29.98 28.82 29.29 29.11 28.7 29.11C28.14 29.11 27.5 28.81 27.15 28.33L26.25 29.17C26.81 29.83 27.76 30.18 28.68 30.18C30.07 30.18 31.26 29.44 31.26 27.92C31.26 26.53 30.1 26.13 29.19 25.85C28.39 25.6 27.84 25.41 27.84 24.76C27.84 24.07 28.51 23.79 29.09 23.79C29.59 23.79 30.12 24.05 30.39 24.4L31.21 23.5ZM33.3822 27.12C33.4322 26.45 34.0022 25.96 34.7122 25.96C35.4922 25.96 35.8422 26.5 35.8422 27.12H33.3822ZM37.0422 27.66C37.0422 25.93 36.0622 25.06 34.7222 25.06C33.2722 25.06 32.1822 26.08 32.1822 27.63C32.1822 29.19 33.2822 30.14 34.7622 30.14C35.6722 30.14 36.3522 29.82 36.8222 29.18L36.0222 28.54C35.7522 28.92 35.3522 29.16 34.7522 29.16C34.0522 29.16 33.4322 28.66 33.3822 27.98H37.0322C37.0422 27.87 37.0422 27.77 37.0422 27.66ZM38.2244 30H39.4244V22.44H38.2244V30ZM40.9002 30H42.1002V22.44H40.9002V30ZM44.4759 27.12C44.5259 26.45 45.0959 25.96 45.8059 25.96C46.5859 25.96 46.9359 26.5 46.9359 27.12H44.4759ZM48.1359 27.66C48.1359 25.93 47.1559 25.06 45.8159 25.06C44.3659 25.06 43.2759 26.08 43.2759 27.63C43.2759 29.19 44.3759 30.14 45.8559 30.14C46.7659 30.14 47.4459 29.82 47.9159 29.18L47.1159 28.54C46.8459 28.92 46.4459 29.16 45.8459 29.16C45.1459 29.16 44.5259 28.66 44.4759 27.98H48.1259C48.1359 27.87 48.1359 27.77 48.1359 27.66ZM49.2981 30H50.4981V27.43C50.4981 27.08 50.7081 26.14 51.7881 26.14C51.8981 26.14 51.9981 26.15 52.1581 26.19V25.09C52.0781 25.07 51.9581 25.06 51.8681 25.06C51.2381 25.06 50.7281 25.45 50.4681 26H50.4481V25.2H49.2981V30ZM58.5807 22.74L57.7507 22.42L54.6307 30.18L55.4607 30.48L58.5807 22.74ZM61.8874 30H63.1474V27.07H64.1174C65.6174 27.07 66.8674 26.53 66.8674 24.97C66.8674 23.49 65.8174 22.92 64.1974 22.92H61.8874V30ZM63.1474 26.01V23.98H64.0674C64.8474 23.98 65.5974 24.13 65.5974 24.97C65.5974 25.81 64.8474 26.01 64.0274 26.01H63.1474ZM70.3543 30H71.4743V27.08C71.4743 26.12 71.0543 25.06 69.3343 25.06C68.6043 25.06 67.8443 25.32 67.3043 25.82L67.9243 26.55C68.2343 26.24 68.7243 26 69.2343 26C69.8343 26 70.3343 26.29 70.3343 26.88V27C68.8343 27 67.0343 27.2 67.0343 28.63C67.0343 29.75 68.0643 30.12 68.8343 30.12C69.5143 30.12 70.0843 29.81 70.3243 29.39H70.3543V30ZM70.3343 27.98C70.3343 28.74 69.8943 29.21 69.0743 29.21C68.6643 29.21 68.2343 29.07 68.2343 28.61C68.2343 27.9 69.3043 27.81 70.0643 27.81H70.3343V27.98ZM72.8723 30H74.0723V27.43C74.0723 27.08 74.2823 26.14 75.3623 26.14C75.4723 26.14 75.5723 26.15 75.7323 26.19V25.09C75.6523 25.07 75.5323 25.06 75.4423 25.06C74.8123 25.06 74.3023 25.45 74.0423 26H74.0223V25.2H72.8723V30ZM76.5477 26.16V28.4C76.5477 29.32 76.8377 30.1 78.1077 30.1C78.3777 30.1 78.6977 30.05 78.9077 29.97L78.8677 29.03C78.7277 29.1 78.5177 29.13 78.3577 29.13C77.8277 29.13 77.7277 28.82 77.7277 28.39V26.16H78.9277V25.2H77.7277V23.81H76.5477V25.2H75.7077V26.16H76.5477ZM79.7962 30H80.9962V27.36C80.9962 26.72 81.3562 26.06 82.1162 26.06C82.8862 26.06 83.0162 26.77 83.0162 27.34V30H84.2162V27C84.2162 26.02 83.6962 25.06 82.4462 25.06C81.7362 25.06 81.1662 25.49 80.9562 25.97H80.9362V25.2H79.7962V30ZM86.5365 27.12C86.5865 26.45 87.1565 25.96 87.8665 25.96C88.6465 25.96 88.9965 26.5 88.9965 27.12H86.5365ZM90.1965 27.66C90.1965 25.93 89.2165 25.06 87.8765 25.06C86.4265 25.06 85.3365 26.08 85.3365 27.63C85.3365 29.19 86.4365 30.14 87.9165 30.14C88.8265 30.14 89.5065 29.82 89.9765 29.18L89.1765 28.54C88.9065 28.92 88.5065 29.16 87.9065 29.16C87.2065 29.16 86.5865 28.66 86.5365 27.98H90.1865C90.1965 27.87 90.1965 27.77 90.1965 27.66ZM91.3587 30H92.5587V27.43C92.5587 27.08 92.7687 26.14 93.8487 26.14C93.9587 26.14 94.0587 26.15 94.2187 26.19V25.09C94.1387 25.07 94.0187 25.06 93.9287 25.06C93.2987 25.06 92.7887 25.45 92.5287 26H92.5087V25.2H91.3587V30Z" fill="#0C367C"/>
</svg>
