<svg width="180" height="180" viewBox="0 0 180 180" fill="none" xmlns="http://www.w3.org/2000/svg">
<path d="M161.265 41.9663C162.074 36.9942 158.687 32.3094 153.7 31.5024C148.712 30.6955 144.013 34.072 143.204 39.0441C142.394 44.0162 145.781 48.701 150.769 49.508C155.756 50.3149 160.455 46.9384 161.265 41.9663Z" fill="#FFC217"/>
<path d="M135.557 27.4066C135.89 25.358 134.495 23.4278 132.44 23.0953C130.385 22.7628 128.449 24.154 128.116 26.2026C127.782 28.2512 129.178 30.1814 131.232 30.5139C133.287 30.8463 135.223 29.4551 135.557 27.4066Z" fill="#FFC217"/>
<path opacity="0.1" d="M90.4919 175.257C125.903 175.257 154.609 146.639 154.609 111.337C154.609 76.0345 125.903 47.4163 90.4919 47.4163C55.0811 47.4163 26.375 76.0345 26.375 111.337C26.375 146.639 55.0811 175.257 90.4919 175.257Z" fill="#2626BC"/>
<path d="M135 134.587C159.853 109.81 159.853 69.6389 135 44.8621C110.147 20.0854 69.8528 20.0854 45 44.8621C20.1472 69.6389 20.1472 109.81 45 134.587C69.8528 159.363 110.147 159.363 135 134.587Z" fill="#FFC217"/>
<path d="M57.8379 87.6605C57.8379 83.3451 61.3932 79.0249 66.8064 79.0249C72.2196 79.0249 75.6192 83.3403 75.6192 87.6605V96.3687C75.6192 103.923 81.8057 110.551 90.0009 110.551C98.1961 110.551 104.383 103.923 104.383 96.3687V87.6605C104.383 83.3451 107.938 79.0249 113.351 79.0249C118.764 79.0249 122.164 83.3403 122.164 87.6605V96.3687C122.164 112.399 109.022 127.662 90.0009 127.662C70.9793 127.662 57.8379 112.399 57.8379 96.3687V87.6605Z" fill="#176CF7"/>
<path d="M66.7918 75.0248C71.7369 75.0248 75.7457 71.0283 75.7457 66.0983C75.7457 61.1684 71.7369 57.1719 66.7918 57.1719C61.8467 57.1719 57.8379 61.1684 57.8379 66.0983C57.8379 71.0283 61.8467 75.0248 66.7918 75.0248Z" fill="#176CF7"/>
<path d="M113.206 75.0246C118.151 75.0246 122.16 71.0281 122.16 66.0981C122.16 61.1682 118.151 57.1716 113.206 57.1716C108.261 57.1716 104.252 61.1682 104.252 66.0981C104.252 71.0281 108.261 75.0246 113.206 75.0246Z" fill="#176CF7"/>
<path d="M57.8379 87.6605C57.8379 83.3451 61.3932 79.0249 66.8064 79.0249C72.2196 79.0249 75.6192 83.3403 75.6192 87.6605V96.3687C75.6192 103.923 81.8057 110.551 90.0009 110.551C98.1961 110.551 104.383 103.923 104.383 96.3687V87.6605C104.383 83.3451 107.938 79.0249 113.351 79.0249C118.764 79.0249 122.164 83.3403 122.164 87.6605V96.3687C122.164 112.399 109.022 127.662 90.0009 127.662C70.9793 127.662 57.8379 112.399 57.8379 96.3687V87.6605Z" fill="#307CFE"/>
<path d="M66.7918 75.0248C71.7369 75.0248 75.7457 71.0283 75.7457 66.0983C75.7457 61.1684 71.7369 57.1719 66.7918 57.1719C61.8467 57.1719 57.8379 61.1684 57.8379 66.0983C57.8379 71.0283 61.8467 75.0248 66.7918 75.0248Z" fill="#307CFE"/>
<path d="M113.206 75.0246C118.151 75.0246 122.16 71.0281 122.16 66.0981C122.16 61.1682 118.151 57.1716 113.206 57.1716C108.261 57.1716 104.252 61.1682 104.252 66.0981C104.252 71.0281 108.261 75.0246 113.206 75.0246Z" fill="#307CFE"/>
<path d="M89.9998 156.075C53.2991 156.075 23.4414 126.314 23.4414 89.7257C23.4414 53.1373 53.2991 23.3711 89.9998 23.3711C126.701 23.3711 156.558 53.1373 156.558 89.7257C156.553 126.314 126.696 156.075 89.9998 156.075ZM89.9998 29.1895C56.5188 29.1895 29.2777 56.3472 29.2777 89.7257C29.2777 123.104 56.5188 150.262 89.9998 150.262C123.481 150.262 150.722 123.104 150.722 89.7257C150.717 56.3472 123.481 29.1895 89.9998 29.1895Z" fill="white"/>
<path d="M49.1827 157.729C49.9921 152.757 46.6052 148.073 41.6178 147.266C36.6305 146.459 31.9312 149.835 31.1218 154.807C30.3124 159.779 33.6993 164.464 38.6867 165.271C43.674 166.078 48.3732 162.702 49.1827 157.729Z" fill="#FFC217"/>
<path d="M64.6878 160.236C65.0212 158.187 63.6258 156.257 61.5709 155.925C59.5161 155.592 57.5799 156.983 57.2464 159.032C56.9129 161.081 58.3084 163.011 60.3632 163.343C62.4181 163.676 64.3543 162.284 64.6878 160.236Z" fill="#FFC217"/>
</svg>
