<svg width="33" height="37" viewBox="0 0 33 37" fill="none" xmlns="http://www.w3.org/2000/svg">
<g filter="url(#filter0_d_6784_49869)">
<path d="M23.9456 10.45C23.9456 15.5115 17.5693 21.9947 16.4728 21.9947C14.9579 21.9947 9 15.5115 9 10.45C9 8.47416 9.78731 6.57922 11.1887 5.18206C12.5902 3.78491 14.4909 3 16.4728 3C17.4542 3 18.4259 3.1927 19.3325 3.5671C20.2392 3.94151 21.063 4.49027 21.7569 5.18207C22.4508 5.87387 23.0012 6.69516 23.3768 7.59904C23.7523 8.50292 23.9456 9.47168 23.9456 10.45V10.45Z" fill="white"/>
</g>
<path d="M16.4409 21.2427C15.9392 21.1036 14.3459 19.8274 12.6809 17.5607C10.8158 15.0215 9.74609 12.4303 9.74609 10.4502C9.7481 8.67191 10.4576 6.967 11.7189 5.70952C12.9802 4.45204 14.6903 3.7447 16.4741 3.74268C18.2579 3.7447 19.968 4.45204 21.2293 5.70951C22.4906 6.96698 23.2001 8.6719 23.2022 10.4502C23.2022 13.0512 21.3219 15.9486 20.2009 17.4443C18.5645 19.6278 16.939 21.0298 16.4409 21.2427Z" fill="#FFC217"/>
<path d="M13.3984 10.4574C13.4004 10.3437 13.4248 10.2316 13.4702 10.1273C13.5157 10.023 13.5813 9.92866 13.6633 9.84969C13.7454 9.77071 13.8422 9.70863 13.9484 9.667C14.0545 9.62538 14.1678 9.60501 14.2819 9.60708C14.3951 9.60524 14.5076 9.62586 14.6127 9.66776C14.7179 9.70965 14.8137 9.77197 14.8944 9.8511C14.9752 9.93023 15.0394 10.0246 15.0833 10.1287C15.1272 10.2328 15.1498 10.3445 15.15 10.4574V11.3153C15.1538 11.6873 15.3047 12.0427 15.5699 12.3044C15.8351 12.5661 16.1932 12.7129 16.5663 12.7129C16.9395 12.7129 17.2976 12.5661 17.5628 12.3044C17.828 12.0427 17.9789 11.6873 17.9827 11.3153V10.4574C17.9846 10.3438 18.009 10.2316 18.0545 10.1273C18.0999 10.023 18.1656 9.92871 18.2476 9.84974C18.3296 9.77076 18.4265 9.70868 18.5326 9.66705C18.6387 9.62541 18.752 9.60503 18.866 9.60708C18.9793 9.60526 19.0917 9.6259 19.1969 9.6678C19.302 9.7097 19.3978 9.77203 19.4785 9.85116C19.5593 9.93028 19.6235 10.0246 19.6674 10.1287C19.7112 10.2328 19.7339 10.3445 19.734 10.4574V11.3153C19.714 12.1396 19.3714 12.9234 18.7796 13.4994C18.1877 14.0753 17.3934 14.3977 16.5663 14.3977C15.7392 14.3977 14.9449 14.0753 14.3531 13.4994C13.7612 12.9234 13.4186 12.1396 13.3986 11.3153L13.3984 10.4574Z" fill="#176CF7"/>
<path d="M15.1626 8.33454C15.1626 8.50846 15.1108 8.67847 15.0139 8.82307C14.917 8.96767 14.7792 9.08037 14.618 9.14692C14.4569 9.21347 14.2795 9.23088 14.1084 9.19695C13.9373 9.16301 13.7801 9.07926 13.6568 8.95628C13.5334 8.8333 13.4494 8.67662 13.4154 8.50604C13.3814 8.33546 13.3988 8.15865 13.4656 7.99797C13.5323 7.83729 13.6454 7.69995 13.7904 7.60331C13.9355 7.50668 14.106 7.45509 14.2804 7.45508C14.5144 7.4551 14.7388 7.54776 14.9042 7.71269C15.0696 7.87761 15.1626 8.1013 15.1626 8.33454" fill="#176CF7"/>
<path d="M19.7368 8.33454C19.7368 8.50846 19.685 8.67847 19.5881 8.82307C19.4912 8.96767 19.3534 9.08037 19.1923 9.14692C19.0311 9.21347 18.8537 9.23088 18.6826 9.19695C18.5115 9.16301 18.3544 9.07926 18.231 8.95628C18.1077 8.8333 18.0236 8.67662 17.9896 8.50604C17.9556 8.33546 17.973 8.15865 18.0398 7.99797C18.1065 7.83729 18.2196 7.69995 18.3646 7.60331C18.5097 7.50668 18.6802 7.45509 18.8547 7.45508C19.0886 7.4551 19.313 7.54776 19.4784 7.71269C19.6438 7.87761 19.7368 8.1013 19.7368 8.33454" fill="#176CF7"/>
<defs>
<filter id="filter0_d_6784_49869" x="0" y="0" width="32.9453" height="36.9946" filterUnits="userSpaceOnUse" color-interpolation-filters="sRGB">
<feFlood flood-opacity="0" result="BackgroundImageFix"/>
<feColorMatrix in="SourceAlpha" type="matrix" values="0 0 0 0 0 0 0 0 0 0 0 0 0 0 0 0 0 0 127 0" result="hardAlpha"/>
<feOffset dy="6"/>
<feGaussianBlur stdDeviation="4.5"/>
<feColorMatrix type="matrix" values="0 0 0 0 0 0 0 0 0 0 0 0 0 0 0 0 0 0 0.161 0"/>
<feBlend mode="normal" in2="BackgroundImageFix" result="effect1_dropShadow_6784_49869"/>
<feBlend mode="normal" in="SourceGraphic" in2="effect1_dropShadow_6784_49869" result="shape"/>
</filter>
</defs>
</svg>
