<svg width="200" height="35" viewBox="0 0 200 35" fill="none" xmlns="http://www.w3.org/2000/svg">
<path d="M68.8506 17.5C68.8506 20.9612 67.8 24.3447 65.8317 27.2226C63.8634 30.1005 61.0658 32.3435 57.7927 33.668C54.5196 34.9925 50.9179 35.339 47.4432 34.6636C43.9685 33.9883 40.7769 32.3214 38.2719 29.8738C35.7668 27.4263 34.061 24.3079 33.37 20.9132C32.679 17.5184 33.034 13.9997 34.3899 10.802C35.7459 7.60432 38.042 4.87129 40.9879 2.94855C43.9338 1.02581 47.3971 -0.00029719 50.9398 6.45661e-08C53.2921 6.45661e-08 55.6214 0.452651 57.7946 1.33211C59.9678 2.21157 61.9424 3.50061 63.6057 5.12563C65.2691 6.75066 66.5885 8.67984 67.4886 10.803C68.3888 12.9262 68.8521 15.2019 68.8521 17.5" fill="#FFC217"/>
<path d="M2.5244 8.91233C2.94069 8.90709 3.35142 9.00615 3.7174 9.20005C4.08338 9.39396 4.3924 9.67624 4.61498 10.02C6.3769 9.08056 8.4036 8.72606 10.3897 9.00987C12.3758 9.29369 14.2136 10.2005 15.6263 11.5935C16.8713 10.3426 18.4664 9.47836 20.2117 9.10894C21.9571 8.73952 23.7753 8.88137 25.4385 9.51672C27.1018 10.1521 28.5362 11.2527 29.5622 12.6808C30.5882 14.1089 31.1602 15.8009 31.2065 17.5451V25.6248C31.186 26.2609 30.9093 26.8634 30.4366 27.3013C29.9639 27.7392 29.3334 27.9771 28.6821 27.9633C28.362 27.9695 28.0437 27.9138 27.7456 27.7995C27.4475 27.6852 27.1755 27.5146 26.9451 27.2973C26.7147 27.08 26.5304 26.8204 26.403 26.5334C26.2755 26.2464 26.2073 25.9376 26.2023 25.6248V17.5466C26.2023 16.4979 25.7759 15.4921 25.0169 14.7506C24.2579 14.009 23.2284 13.5924 22.155 13.5924C21.0816 13.5924 20.0521 14.009 19.2931 14.7506C18.5341 15.4921 18.1077 16.4979 18.1077 17.5466V25.6248C18.1027 25.9376 18.0345 26.2464 17.907 26.5334C17.7796 26.8204 17.5954 27.08 17.365 27.2973C17.1345 27.5146 16.8625 27.6852 16.5644 27.7995C16.2663 27.9138 15.948 27.9695 15.6279 27.9633C14.9761 27.9779 14.3448 27.7404 13.8714 27.3024C13.398 26.8644 13.1209 26.2614 13.1004 25.6248V17.5466C13.1004 16.4979 12.674 15.4921 11.915 14.7506C11.1559 14.009 10.1265 13.5924 9.05306 13.5924C7.97964 13.5924 6.95018 14.009 6.19116 14.7506C5.43214 15.4921 5.00572 16.4979 5.00572 17.5466V25.6248C5.00072 25.9376 4.93253 26.2464 4.80508 26.5334C4.67763 26.8204 4.49341 27.08 4.26301 27.2973C4.03261 27.5146 3.76055 27.6852 3.46246 27.7995C3.16436 27.9138 2.8461 27.9695 2.52593 27.9633C1.8744 27.9775 1.24349 27.7398 0.770456 27.3018C0.297418 26.8639 0.0205205 26.2612 0 25.6248V11.2539C0.0197263 10.6172 0.296063 10.014 0.768854 9.57544C1.24165 9.13689 1.87261 8.89856 2.5244 8.91233Z" fill="white"/>
<path d="M70.676 18.4392C70.692 17.1714 70.9638 15.9191 71.4757 14.754C71.9877 13.589 72.7297 12.5339 73.6595 11.6493C74.5892 10.7647 75.6884 10.0679 76.894 9.59876C78.0997 9.12961 79.3882 8.89733 80.6859 8.91521C82.5105 8.91552 84.3008 9.40019 85.8654 10.3174C86.0606 9.88374 86.3854 9.51779 86.7971 9.26757C87.2089 9.01734 87.6885 8.89452 88.1729 8.91521C88.4932 8.90883 88.8116 8.96435 89.1099 9.07856C89.4082 9.19276 89.6804 9.36342 89.911 9.58072C90.1416 9.79802 90.3259 10.0577 90.4534 10.3448C90.581 10.6319 90.6492 10.9408 90.6542 11.2537V25.6247C90.6492 25.9376 90.581 26.2465 90.4534 26.5336C90.3259 26.8207 90.1416 27.0804 89.911 27.2977C89.6804 27.515 89.4082 27.6856 89.1099 27.7999C88.8116 27.9141 88.4932 27.9696 88.1729 27.9632C87.6885 27.9839 87.2089 27.8611 86.7971 27.6108C86.3854 27.3606 86.0606 26.9947 85.8654 26.561C84.3009 27.4784 82.5106 27.9631 80.6859 27.9632C79.3882 27.9811 78.0997 27.7488 76.894 27.2797C75.6884 26.8105 74.5892 26.1137 73.6595 25.2291C72.7297 24.3445 71.9877 23.2895 71.4757 22.1244C70.9638 20.9593 70.692 19.707 70.676 18.4392ZM75.6802 18.4392C75.668 19.4039 75.9494 20.3504 76.4887 21.1587C77.028 21.9669 77.8009 22.6003 78.7094 22.9787C79.6178 23.357 80.6208 23.4632 81.5911 23.2838C82.5614 23.1043 83.4552 22.6473 84.1592 21.9707C84.8632 21.2941 85.3457 20.4284 85.5453 19.4835C85.7449 18.5387 85.6527 17.5571 85.2804 16.6635C84.9081 15.7699 84.2725 15.0045 83.4542 14.4644C82.6359 13.9243 81.6718 13.6338 80.6843 13.6299C80.0324 13.6241 79.3857 13.744 78.7812 13.9827C78.1767 14.2214 77.6263 14.5741 77.1616 15.0208C76.6968 15.4675 76.3267 15.9994 76.0725 16.5859C75.8183 17.1725 75.685 17.8023 75.6802 18.4392Z" fill="white"/>
<path d="M94.0483 19.3321V5.85242C94.0689 5.2163 94.3456 4.61382 94.8183 4.17591C95.291 3.73801 95.9215 3.50009 96.5727 3.51387C96.893 3.5075 97.2115 3.56301 97.5097 3.67722C97.808 3.79143 98.0802 3.96209 98.3108 4.17938C98.5414 4.39668 98.7257 4.65635 98.8533 4.94346C98.9808 5.23057 99.0491 5.53947 99.0541 5.85242V8.87328H102.188C102.512 8.86197 102.835 8.91463 103.139 9.02811C103.442 9.1416 103.718 9.31358 103.952 9.53381C104.186 9.75403 104.371 10.018 104.498 10.3099C104.625 10.6018 104.691 10.9157 104.691 11.2329C104.691 11.55 104.625 11.8639 104.498 12.1558C104.371 12.4478 104.186 12.7117 103.952 12.9319C103.718 13.1522 103.442 13.3241 103.139 13.4376C102.835 13.5511 102.512 13.6038 102.188 13.5925H99.0541V19.3336C99.0622 20.3756 99.4927 21.3719 100.251 22.1044C101.01 22.8368 102.035 23.2456 103.101 23.2412H104.972C105.299 23.225 105.627 23.2741 105.934 23.3854C106.242 23.4967 106.523 23.6679 106.76 23.8886C106.998 24.1093 107.187 24.3749 107.316 24.6692C107.446 24.9635 107.512 25.2805 107.512 25.6008C107.512 25.9211 107.446 26.238 107.316 26.5324C107.187 26.8267 106.998 27.0923 106.76 27.313C106.523 27.5337 106.242 27.7049 105.934 27.8162C105.627 27.9275 105.299 27.9765 104.972 27.9604H103.101C101.927 27.9745 100.761 27.7624 99.6706 27.3362C98.58 26.91 97.5861 26.2782 96.7455 25.4766C95.905 24.6751 95.2343 23.7197 94.7718 22.6648C94.3092 21.61 94.0639 20.4765 94.0499 19.3291" fill="white"/>
<path d="M109.104 25.5826V17.545C109.131 15.2232 110.098 13.0063 111.795 11.3805C113.492 9.75461 115.779 8.8524 118.156 8.87164C119.379 8.86732 120.59 9.10204 121.719 9.56198C122.847 10.0219 123.87 10.6978 124.727 11.5498C125.975 10.2966 127.574 9.43171 129.324 9.0638C131.073 8.6959 132.895 8.84143 134.56 9.4821C136.225 10.1228 137.659 11.23 138.681 12.6646C139.704 14.0992 140.27 15.7971 140.308 17.545V25.5811C140.302 25.8994 140.232 26.2135 140.102 26.5054C139.972 26.7974 139.785 27.0614 139.55 27.2825C139.316 27.5036 139.039 27.6774 138.736 27.7939C138.433 27.9105 138.109 27.9675 137.783 27.9617C137.46 27.9669 137.138 27.9092 136.838 27.7919C136.537 27.6747 136.264 27.5002 136.033 27.2787C135.802 27.0572 135.618 26.793 135.493 26.5016C135.367 26.2101 135.302 25.8973 135.302 25.5811V17.545C135.302 16.4963 134.876 15.4905 134.116 14.749C133.357 14.0074 132.328 13.5908 131.255 13.5908C130.181 13.5908 129.152 14.0074 128.393 14.749C127.634 15.4905 127.207 16.4963 127.207 17.545V25.5811C127.207 25.8973 127.142 26.2101 127.016 26.5016C126.891 26.793 126.707 27.0572 126.476 27.2787C126.246 27.5002 125.972 27.6747 125.671 27.7919C125.371 27.9092 125.049 27.9669 124.726 27.9617C124.4 27.9675 124.076 27.9105 123.773 27.7939C123.47 27.6774 123.193 27.5036 122.959 27.2825C122.724 27.0614 122.537 26.7974 122.407 26.5054C122.277 26.2135 122.207 25.8994 122.202 25.5811V17.545C122.202 16.4963 121.775 15.4905 121.016 14.749C120.257 14.0074 119.228 13.5908 118.154 13.5908C117.081 13.5908 116.051 14.0074 115.292 14.749C114.533 15.4905 114.107 16.4963 114.107 17.545V25.5811C114.106 25.8973 114.041 26.2101 113.916 26.5016C113.79 26.793 113.607 27.0572 113.376 27.2787C113.145 27.5002 112.872 27.6747 112.571 27.7919C112.27 27.9092 111.949 27.9669 111.626 27.9617C111.3 27.9675 110.976 27.9105 110.673 27.7939C110.37 27.6774 110.093 27.5036 109.858 27.2825C109.624 27.0614 109.436 26.7974 109.306 26.5054C109.177 26.2135 109.107 25.8994 109.101 25.5811" fill="white"/>
<path d="M143.23 11.2525C143.235 10.9342 143.305 10.6201 143.435 10.3281C143.565 10.0362 143.753 9.77214 143.987 9.55105C144.221 9.32996 144.498 9.15617 144.801 9.03963C145.105 8.92309 145.428 8.86608 145.754 8.87186C146.078 8.86668 146.399 8.9244 146.7 9.04166C147 9.15892 147.274 9.33338 147.505 9.5549C147.736 9.77642 147.919 10.0406 148.045 10.332C148.17 10.6234 148.235 10.9363 148.236 11.2525V19.3307C148.236 20.3794 148.662 21.3852 149.421 22.1267C150.18 22.8683 151.209 23.2849 152.283 23.2849C153.356 23.2849 154.386 22.8683 155.145 22.1267C155.904 21.3852 156.33 20.3794 156.33 19.3307V11.2525C156.336 10.9342 156.406 10.6201 156.535 10.3281C156.665 10.0362 156.853 9.77214 157.087 9.55105C157.322 9.32996 157.599 9.15617 157.902 9.03963C158.205 8.92309 158.529 8.86608 158.855 8.87186C159.178 8.86668 159.5 8.9244 159.8 9.04166C160.101 9.15892 160.374 9.33338 160.605 9.5549C160.836 9.77642 161.02 10.0406 161.145 10.332C161.27 10.6234 161.335 10.9363 161.336 11.2525V19.3307C161.282 21.6417 160.305 23.8404 158.614 25.4564C156.922 27.0724 154.65 27.9772 152.284 27.9772C149.918 27.9772 147.646 27.0724 145.954 25.4564C144.262 23.8404 143.285 21.6417 143.231 19.3307L143.23 11.2525Z" fill="white"/>
<path d="M163.64 18.4393C163.696 15.8877 164.773 13.4591 166.64 11.674C168.507 9.88879 171.015 8.8891 173.627 8.8891C176.24 8.8891 178.748 9.88879 180.615 11.674C182.482 13.4591 183.559 15.8877 183.615 18.4393V25.5827C183.614 25.8988 183.55 26.2117 183.424 26.5032C183.299 26.7946 183.115 27.0587 182.884 27.2803C182.653 27.5018 182.38 27.6762 182.079 27.7935C181.779 27.9108 181.457 27.9685 181.134 27.9633C180.651 27.975 180.175 27.8483 179.765 27.5988C179.355 27.3494 179.028 26.9881 178.826 26.5596C177.259 27.4722 175.471 27.957 173.647 27.9633C171.028 27.9922 168.504 27.0062 166.628 25.2212C164.752 23.4361 163.676 20.9975 163.637 18.4393H163.64ZM173.647 23.2486C174.621 23.2362 175.571 22.9422 176.375 22.4036C177.179 21.8651 177.802 21.1062 178.165 20.2224C178.529 19.3386 178.617 18.3695 178.417 17.4371C178.218 16.5047 177.741 15.6508 177.046 14.9829C176.351 14.3149 175.469 13.8628 174.512 13.6836C173.554 13.5043 172.564 13.6058 171.665 13.9754C170.767 14.345 170 14.966 169.462 15.7604C168.925 16.5547 168.639 17.4868 168.642 18.4393C168.657 19.7242 169.192 20.9512 170.129 21.8524C171.067 22.7535 172.331 23.2555 173.647 23.2486Z" fill="white"/>
<path d="M186.535 19.3321V5.85242C186.555 5.2163 186.832 4.61382 187.305 4.17591C187.777 3.73801 188.408 3.50009 189.059 3.51387C189.379 3.5075 189.698 3.56301 189.996 3.67722C190.294 3.79143 190.567 3.96209 190.797 4.17938C191.028 4.39668 191.212 4.65635 191.34 4.94346C191.467 5.23057 191.535 5.53947 191.54 5.85242V8.87328H194.674C194.998 8.86197 195.322 8.91463 195.625 9.02811C195.928 9.1416 196.205 9.31358 196.438 9.53381C196.672 9.75403 196.858 10.018 196.985 10.3099C197.111 10.6018 197.177 10.9157 197.177 11.2329C197.177 11.55 197.111 11.8639 196.985 12.1558C196.858 12.4478 196.672 12.7117 196.438 12.9319C196.205 13.1522 195.928 13.3241 195.625 13.4376C195.322 13.5511 194.998 13.6038 194.674 13.5925H191.54V19.3336C191.548 20.3756 191.979 21.3719 192.738 22.1044C193.496 22.8368 194.521 23.2456 195.588 23.2412H197.46C197.787 23.225 198.115 23.2741 198.422 23.3854C198.729 23.4967 199.01 23.6679 199.248 23.8886C199.486 24.1093 199.675 24.3749 199.804 24.6692C199.933 24.9635 200 25.2805 200 25.6008C200 25.9211 199.933 26.238 199.804 26.5324C199.675 26.8267 199.486 27.0923 199.248 27.313C199.01 27.5337 198.729 27.7049 198.422 27.8162C198.115 27.9275 197.787 27.9765 197.46 27.9604H195.588C194.413 27.9745 193.247 27.7624 192.157 27.3362C191.066 26.91 190.072 26.2782 189.232 25.4766C188.391 24.6751 187.721 23.7197 187.258 22.6648C186.795 21.61 186.55 20.4765 186.536 19.3291" fill="white"/>
<path d="M101.667 8.91516H88.0393V13.5637H101.667V8.91516Z" fill="white"/>
<path d="M41.8834 16.9288C41.889 16.6105 41.9587 16.2964 42.0886 16.0045C42.2186 15.7125 42.4061 15.4485 42.6406 15.2274C42.875 15.0063 43.1517 14.8325 43.455 14.716C43.7582 14.5994 44.082 14.5424 44.4078 14.5482C44.7313 14.543 45.0527 14.6007 45.3532 14.718C45.6538 14.8352 45.9274 15.0097 46.1583 15.2312C46.3892 15.4527 46.5727 15.7169 46.6982 16.0083C46.8236 16.2998 46.8885 16.6127 46.8891 16.9288V19.3335C46.8891 20.3822 47.3155 21.388 48.0745 22.1295C48.8335 22.8711 49.863 23.2877 50.9364 23.2877C52.0098 23.2877 53.0393 22.8711 53.7983 22.1295C54.5573 21.388 54.9838 20.3822 54.9838 19.3335V16.9288C54.9894 16.6105 55.0591 16.2964 55.1891 16.0045C55.319 15.7125 55.5065 15.4485 55.741 15.2274C55.9754 15.0063 56.2522 14.8325 56.5554 14.716C56.8586 14.5994 57.1824 14.5424 57.5082 14.5482C57.8316 14.5432 58.1528 14.6011 58.4532 14.7184C58.7535 14.8358 59.027 15.0103 59.2577 15.2318C59.4884 15.4533 59.6718 15.7174 59.7972 16.0087C59.9225 16.3 59.9874 16.6128 59.9879 16.9288V19.3335C59.9345 21.6445 58.9574 23.8432 57.2655 25.4592C55.5737 27.0752 53.3017 27.98 50.9357 27.98C48.5696 27.98 46.2976 27.0752 44.6058 25.4592C42.9139 23.8432 41.9368 21.6445 41.8834 19.3335V16.9288Z" fill="#176CF7"/>
<path d="M46.9291 10.9832C46.9291 11.4704 46.7812 11.9467 46.5041 12.3518C46.2271 12.7569 45.8333 13.0726 45.3726 13.259C44.9119 13.4455 44.4049 13.4942 43.9158 13.3992C43.4268 13.3042 42.9775 13.0695 42.6249 12.7251C42.2723 12.3806 42.0321 11.9416 41.9349 11.4638C41.8376 10.986 41.8875 10.4907 42.0783 10.0406C42.2692 9.59048 42.5923 9.20577 43.007 8.9351C43.4216 8.66443 43.9091 8.51996 44.4077 8.51996C45.0764 8.51996 45.7177 8.77948 46.1906 9.24144C46.6634 9.7034 46.9291 10.3299 46.9291 10.9832Z" fill="#176CF7"/>
<path d="M59.9928 10.9832C59.9928 11.4704 59.845 11.9467 59.5679 12.3518C59.2909 12.7569 58.8971 13.0726 58.4364 13.259C57.9757 13.4455 57.4687 13.4942 56.9796 13.3992C56.4906 13.3042 56.0413 13.0695 55.6887 12.7251C55.3361 12.3806 55.0959 11.9416 54.9986 11.4638C54.9014 10.986 54.9513 10.4907 55.1421 10.0406C55.333 9.59048 55.6561 9.20577 56.0707 8.9351C56.4854 8.66443 56.9729 8.51996 57.4715 8.51996C58.1402 8.51996 58.7815 8.77948 59.2544 9.24144C59.7272 9.7034 59.9928 10.3299 59.9928 10.9832Z" fill="#176CF7"/>
<path d="M41.8834 16.9288C41.889 16.6105 41.9587 16.2964 42.0886 16.0045C42.2186 15.7125 42.4061 15.4485 42.6406 15.2274C42.875 15.0063 43.1517 14.8325 43.455 14.716C43.7582 14.5994 44.082 14.5424 44.4078 14.5482C44.7313 14.543 45.0527 14.6007 45.3532 14.718C45.6538 14.8352 45.9274 15.0097 46.1583 15.2312C46.3892 15.4527 46.5727 15.7169 46.6982 16.0083C46.8236 16.2998 46.8885 16.6127 46.8891 16.9288V19.3335C46.8891 20.3822 47.3155 21.388 48.0745 22.1295C48.8335 22.8711 49.863 23.2877 50.9364 23.2877C52.0098 23.2877 53.0393 22.8711 53.7983 22.1295C54.5573 21.388 54.9838 20.3822 54.9838 19.3335V16.9288C54.9894 16.6105 55.0591 16.2964 55.1891 16.0045C55.319 15.7125 55.5065 15.4485 55.741 15.2274C55.9754 15.0063 56.2522 14.8325 56.5554 14.716C56.8586 14.5994 57.1824 14.5424 57.5082 14.5482C57.8316 14.5432 58.1528 14.6011 58.4532 14.7184C58.7535 14.8358 59.027 15.0103 59.2577 15.2318C59.4884 15.4533 59.6718 15.7174 59.7972 16.0087C59.9225 16.3 59.9874 16.6128 59.9879 16.9288V19.3335C59.9345 21.6445 58.9574 23.8432 57.2655 25.4592C55.5737 27.0752 53.3017 27.98 50.9357 27.98C48.5696 27.98 46.2976 27.0752 44.6058 25.4592C42.9139 23.8432 41.9368 21.6445 41.8834 19.3335V16.9288Z" fill="#176CF7"/>
<path d="M46.9291 10.9832C46.9291 11.4704 46.7812 11.9467 46.5041 12.3518C46.2271 12.7569 45.8333 13.0726 45.3726 13.259C44.9119 13.4455 44.4049 13.4942 43.9158 13.3992C43.4268 13.3042 42.9775 13.0695 42.6249 12.7251C42.2723 12.3806 42.0321 11.9416 41.9349 11.4638C41.8376 10.986 41.8875 10.4907 42.0783 10.0406C42.2692 9.59048 42.5923 9.20577 43.007 8.9351C43.4216 8.66443 43.9091 8.51996 44.4077 8.51996C45.0764 8.51996 45.7177 8.77948 46.1906 9.24144C46.6634 9.7034 46.9291 10.3299 46.9291 10.9832Z" fill="#176CF7"/>
<path d="M59.9928 10.9832C59.9928 11.4704 59.845 11.9467 59.5679 12.3518C59.2909 12.7569 58.8971 13.0726 58.4364 13.259C57.9757 13.4455 57.4687 13.4942 56.9796 13.3992C56.4906 13.3042 56.0413 13.0695 55.6887 12.7251C55.3361 12.3806 55.0959 11.9416 54.9986 11.4638C54.9014 10.986 54.9513 10.4907 55.1421 10.0406C55.333 9.59048 55.6561 9.20577 56.0707 8.9351C56.4854 8.66443 56.9729 8.51996 57.4715 8.51996C58.1402 8.51996 58.7815 8.77948 59.2544 9.24144C59.7272 9.7034 59.9928 10.3299 59.9928 10.9832Z" fill="#176CF7"/>
</svg>
