<svg width="16" height="16" viewBox="0 0 16 16" fill="none" xmlns="http://www.w3.org/2000/svg">
<g clip-path="url(#clip0_555_93363)">
<path fill-rule="evenodd" clip-rule="evenodd" d="M9.11889 2.16113H3.75365C3.4323 2.16113 3.12411 2.28168 2.89688 2.49625C2.66965 2.71082 2.54199 3.00184 2.54199 3.30528V12.4585C2.54199 12.7619 2.66965 13.053 2.89688 13.2675C3.12411 13.4821 3.4323 13.6027 3.75365 13.6027H11.0236C11.345 13.6027 11.6532 13.4821 11.8804 13.2675C12.1076 13.053 12.2353 12.7619 12.2353 12.4585V6.11933C12.2353 6.00183 12.197 5.88718 12.1256 5.79095L9.61506 2.40484C9.55918 2.32956 9.48491 2.26811 9.39854 2.22568C9.31217 2.18326 9.21624 2.16112 9.11889 2.16113Z" stroke="#176CF7" stroke-width="1.5" stroke-linecap="round" stroke-linejoin="bevel"/>
<path d="M4.64941 3.91602C4.2352 3.91602 3.89941 4.2518 3.89941 4.66602C3.89941 5.08023 4.2352 5.41602 4.64941 5.41602V3.91602ZM8.33708 5.41602C8.75129 5.41602 9.08708 5.08023 9.08708 4.66602C9.08708 4.2518 8.75129 3.91602 8.33708 3.91602V5.41602ZM4.64941 5.41602H8.33708V3.91602H4.64941V5.41602Z" fill="#176CF7"/>
<path d="M4.64941 5.90332C4.2352 5.90332 3.89941 6.23911 3.89941 6.65332C3.89941 7.06753 4.2352 7.40332 4.64941 7.40332V5.90332ZM9.9175 7.40332C10.3317 7.40332 10.6675 7.06753 10.6675 6.65332C10.6675 6.23911 10.3317 5.90332 9.9175 5.90332V7.40332ZM4.64941 7.40332H9.9175V5.90332H4.64941V7.40332Z" fill="#176CF7"/>
<path d="M4.64941 7.89551C4.2352 7.89551 3.89941 8.23129 3.89941 8.64551C3.89941 9.05972 4.2352 9.39551 4.64941 9.39551V7.89551ZM9.9175 9.39551C10.3317 9.39551 10.6675 9.05972 10.6675 8.64551C10.6675 8.23129 10.3317 7.89551 9.9175 7.89551V9.39551ZM4.64941 9.39551H9.9175V7.89551H4.64941V9.39551Z" fill="#176CF7"/>
<path d="M4.64941 9.69531C4.2352 9.69531 3.89941 10.0311 3.89941 10.4453C3.89941 10.8595 4.2352 11.1953 4.64941 11.1953V9.69531ZM9.9175 11.1953C10.3317 11.1953 10.6675 10.8595 10.6675 10.4453C10.6675 10.0311 10.3317 9.69531 9.9175 9.69531V11.1953ZM4.64941 11.1953H9.9175V9.69531H4.64941V11.1953Z" fill="#176CF7"/>
</g>
<defs>
<clipPath id="clip0_555_93363">
<rect width="10.8372" height="12.8076" fill="white" transform="translate(1.79004 1.33301)"/>
</clipPath>
</defs>
</svg>
