<svg width="180" height="180" viewBox="0 0 180 180" fill="none" xmlns="http://www.w3.org/2000/svg">
<path d="M171.473 22.3972C171.822 20.2854 171.536 18.1177 170.652 16.1685C169.768 14.2192 168.325 12.5761 166.507 11.447C164.689 10.3179 162.577 9.7536 160.437 9.82558C158.298 9.89756 156.229 10.6026 154.49 11.8513C152.752 13.1001 151.423 14.8365 150.672 16.8408C149.922 18.845 149.782 21.027 150.272 23.1106C150.762 25.1941 151.858 27.0856 153.424 28.5455C154.989 30.0053 156.952 30.9681 159.064 31.3117C160.465 31.5435 161.897 31.4966 163.279 31.1738C164.661 30.8509 165.966 30.2584 167.119 29.4302C168.272 28.6021 169.25 27.5545 169.997 26.3476C170.744 25.1408 171.246 23.7983 171.473 22.3972V22.3972Z" fill="#FFC217"/>
<path d="M141.078 5.18281C141.221 4.31259 141.103 3.41934 140.739 2.61612C140.375 1.8129 139.78 1.13582 139.031 0.670571C138.282 0.205327 137.411 -0.0271632 136.53 0.00252705C135.648 0.0322173 134.796 0.322753 134.079 0.837362C133.363 1.35197 132.815 2.06752 132.506 2.89343C132.197 3.71935 132.139 4.6185 132.341 5.47709C132.543 6.33567 132.995 7.11509 133.64 7.7167C134.285 8.3183 135.094 8.71503 135.964 8.85669C136.541 8.95221 137.131 8.93289 137.701 8.79983C138.271 8.66677 138.808 8.42259 139.284 8.08128C139.759 7.73997 140.162 7.30825 140.47 6.81087C140.777 6.31349 140.984 5.76023 141.078 5.18281Z" fill="#FFC217"/>
<path opacity="0.1" d="M87.7929 180C102.731 179.954 117.321 175.482 129.719 167.15C142.117 158.817 151.768 146.997 157.453 133.183C163.138 119.369 164.601 104.18 161.659 89.5341C158.717 74.8885 151.5 61.4433 140.921 50.8966C130.342 40.3499 116.875 33.1747 102.22 30.2773C87.5656 27.3798 72.3811 28.89 58.5843 34.6172C44.7876 40.3444 32.9974 50.0316 24.7029 62.4555C16.4084 74.8793 11.9815 89.4825 11.9814 104.421C12.0126 124.496 20.0173 143.737 34.2346 157.911C48.4519 172.085 67.7174 180.03 87.7929 180V180Z" fill="#2626BC"/>
<path d="M140.416 131.911C150.9 121.395 158.033 108.007 160.914 93.4391C163.794 78.8712 162.293 63.7764 156.599 50.0613C150.906 36.3461 141.276 24.6256 128.926 16.3802C116.575 8.13475 102.058 3.73413 87.2083 3.73413C72.3584 3.73413 57.8415 8.13475 45.4911 16.3802C33.1406 24.6256 23.5107 36.3461 17.8173 50.0613C12.124 63.7764 10.6227 78.8712 13.5031 93.4391C16.3834 108.007 23.5162 121.395 34.0006 131.911C40.9615 138.946 49.2481 144.53 58.3811 148.341C67.514 152.152 77.312 154.114 87.2083 154.114C97.1045 154.114 106.903 152.152 116.036 148.341C125.168 144.53 133.455 138.946 140.416 131.911Z" fill="#FFC217"/>
<path d="M49.1821 76.4277C49.2067 75.0606 49.5007 73.7117 50.0471 72.4583C50.5936 71.2049 51.3818 70.0716 52.3668 69.1231C53.3517 68.1747 54.514 67.4298 55.7872 66.931C57.0603 66.4323 58.4193 66.1895 59.7864 66.2165C61.1439 66.1921 62.4928 66.4381 63.7544 66.94C65.0159 67.4419 66.1651 68.1898 67.1349 69.1401C68.1046 70.0904 68.8757 71.2241 69.4031 72.4753C69.9305 73.7264 70.2038 75.07 70.207 76.4277V86.724C70.2633 91.197 72.0798 95.4676 75.2627 98.6107C78.4457 101.754 82.7388 103.516 87.2121 103.516C91.6854 103.516 95.9786 101.754 99.1615 98.6107C102.345 95.4676 104.161 91.197 104.217 86.724V76.4277C104.242 75.0606 104.536 73.7117 105.082 72.4583C105.629 71.2049 106.417 70.0716 107.402 69.1231C108.387 68.1747 109.549 67.4298 110.822 66.931C112.095 66.4323 113.454 66.1895 114.822 66.2165C116.179 66.1921 117.528 66.4381 118.79 66.94C120.051 67.4419 121.2 68.1898 122.17 69.1401C123.14 70.0904 123.911 71.2241 124.438 72.4753C124.966 73.7264 125.239 75.07 125.242 76.4277V86.724C125.175 91.651 124.139 96.5165 122.191 101.043C120.243 105.569 117.423 109.667 113.892 113.103C110.36 116.539 106.186 119.246 101.608 121.068C97.0299 122.891 92.1377 123.793 87.2108 123.725C82.2841 123.793 77.3922 122.89 72.8146 121.067C68.2369 119.245 64.0632 116.538 60.5317 113.102C57.0003 109.666 54.1804 105.568 52.233 101.042C50.2856 96.516 49.2489 91.6507 49.1821 86.724V76.4277Z" fill="#176CF7"/>
<path d="M59.7688 61.4863C61.8549 61.4799 63.8922 60.8555 65.6236 59.6919C67.355 58.5283 68.7027 56.8777 69.4966 54.9486C70.2904 53.0195 70.4948 50.8984 70.0839 48.8532C69.673 46.808 68.6653 44.9305 67.188 43.4577C65.7106 41.9849 63.83 40.9829 61.7836 40.5783C59.7371 40.1736 57.6167 40.3845 55.69 41.1843C53.7634 41.9841 52.1169 43.3368 50.9586 45.0718C49.8003 46.8067 49.1821 48.846 49.1821 50.932C49.1843 52.3202 49.4598 53.6943 49.993 54.976C50.5261 56.2576 51.3065 57.4217 52.2896 58.4018C53.2727 59.3818 54.4392 60.1587 55.7224 60.6879C57.0057 61.2172 58.3807 61.4885 59.7688 61.4863V61.4863Z" fill="#176CF7"/>
<path d="M114.654 61.4863C116.74 61.4799 118.777 60.8555 120.508 59.6919C122.24 58.5283 123.587 56.8777 124.381 54.9486C125.175 53.0195 125.38 50.8984 124.969 48.8532C124.558 46.808 123.55 44.9305 122.073 43.4577C120.595 41.9849 118.715 40.9829 116.668 40.5783C114.622 40.1736 112.501 40.3845 110.575 41.1843C108.648 41.9841 107.002 43.3368 105.843 45.0718C104.685 46.8067 104.067 48.846 104.067 50.932C104.069 52.3202 104.345 53.6943 104.878 54.976C105.411 56.2576 106.191 57.4217 107.174 58.4018C108.157 59.3818 109.324 60.1587 110.607 60.6879C111.89 61.2172 113.265 61.4885 114.654 61.4863V61.4863Z" fill="#176CF7"/>
<path d="M49.1821 76.4277C49.2067 75.0606 49.5007 73.7117 50.0471 72.4583C50.5936 71.2049 51.3818 70.0716 52.3668 69.1231C53.3517 68.1747 54.514 67.4298 55.7872 66.931C57.0603 66.4323 58.4193 66.1895 59.7864 66.2165C61.1439 66.1921 62.4928 66.4381 63.7544 66.94C65.0159 67.4419 66.1651 68.1898 67.1349 69.1401C68.1046 70.0904 68.8757 71.2241 69.4031 72.4753C69.9305 73.7264 70.2038 75.07 70.207 76.4277V86.724C70.2633 91.197 72.0798 95.4676 75.2627 98.6107C78.4457 101.754 82.7388 103.516 87.2121 103.516C91.6854 103.516 95.9786 101.754 99.1615 98.6107C102.345 95.4676 104.161 91.197 104.217 86.724V76.4277C104.242 75.0606 104.536 73.7117 105.082 72.4583C105.629 71.2049 106.417 70.0716 107.402 69.1231C108.387 68.1747 109.549 67.4298 110.822 66.931C112.095 66.4323 113.454 66.1895 114.822 66.2165C116.179 66.1921 117.528 66.4381 118.79 66.94C120.051 67.4419 121.2 68.1898 122.17 69.1401C123.14 70.0904 123.911 71.2241 124.438 72.4753C124.966 73.7264 125.239 75.07 125.242 76.4277V86.724C125.175 91.651 124.139 96.5165 122.191 101.043C120.243 105.569 117.423 109.667 113.892 113.103C110.36 116.539 106.186 119.246 101.608 121.068C97.0299 122.891 92.1377 123.793 87.2108 123.725C82.2841 123.793 77.3922 122.89 72.8146 121.067C68.2369 119.245 64.0632 116.538 60.5317 113.102C57.0003 109.666 54.1804 105.568 52.233 101.042C50.2856 96.516 49.2489 91.6507 49.1821 86.724V76.4277Z" fill="#307CFE"/>
<path d="M59.7688 61.4863C61.8549 61.4799 63.8922 60.8555 65.6236 59.6919C67.355 58.5283 68.7027 56.8777 69.4966 54.9486C70.2904 53.0195 70.4948 50.8984 70.0839 48.8532C69.673 46.808 68.6653 44.9305 67.188 43.4577C65.7106 41.9849 63.83 40.9829 61.7836 40.5783C59.7371 40.1736 57.6167 40.3845 55.69 41.1843C53.7634 41.9841 52.1169 43.3368 50.9586 45.0718C49.8003 46.8067 49.1821 48.846 49.1821 50.932C49.1843 52.3202 49.4598 53.6943 49.993 54.976C50.5261 56.2576 51.3065 57.4217 52.2896 58.4018C53.2727 59.3818 54.4392 60.1587 55.7224 60.6879C57.0057 61.2172 58.3807 61.4885 59.7688 61.4863V61.4863Z" fill="#307CFE"/>
<path d="M114.654 61.4863C116.74 61.4799 118.777 60.8555 120.508 59.6919C122.24 58.5283 123.587 56.8777 124.381 54.9486C125.175 53.0195 125.38 50.8984 124.969 48.8532C124.558 46.808 123.55 44.9305 122.073 43.4577C120.595 41.9849 118.715 40.9829 116.668 40.5783C114.622 40.1736 112.501 40.3845 110.575 41.1843C108.648 41.9841 107.002 43.3368 105.843 45.0718C104.685 46.8067 104.067 48.846 104.067 50.932C104.069 52.3202 104.345 53.6943 104.878 54.976C105.411 56.2576 106.191 57.4217 107.174 58.4018C108.157 59.3818 109.324 60.1587 110.607 60.6879C111.89 61.2172 113.265 61.4885 114.654 61.4863V61.4863Z" fill="#307CFE"/>
<path d="M87.2103 157.321C71.7038 157.272 56.5594 152.63 43.6897 143.98C30.82 135.33 20.8024 123.06 14.9019 108.72C9.00135 94.3794 7.48268 78.6124 10.5376 63.4097C13.5926 48.2071 21.0842 34.2506 32.0662 23.3031C43.0483 12.3556 57.0282 4.90791 72.2404 1.90078C87.4526 -1.10634 103.215 0.461919 117.536 6.40751C131.858 12.3531 144.096 22.4093 152.706 35.3061C161.315 48.203 165.91 63.3619 165.91 78.8685C165.854 99.7011 157.537 119.661 142.783 134.369C128.029 149.076 108.043 157.331 87.2103 157.321V157.321ZM87.2103 7.29144C73.0629 7.33496 59.2456 11.5699 47.5035 19.4616C35.7615 27.3532 26.6214 38.5474 21.2376 51.6305C15.8537 64.7136 14.4677 79.0987 17.2545 92.9691C20.0413 106.839 26.8759 119.573 36.8952 129.561C46.9144 139.55 59.6689 146.345 73.5478 149.089C87.4267 151.833 101.808 150.402 114.874 144.978C127.94 139.554 139.106 130.379 146.962 118.613C154.817 106.846 159.009 93.0161 159.009 78.8685C158.958 59.8622 151.37 41.6521 137.91 28.2332C124.45 14.8143 106.217 7.28251 87.2103 7.29009V7.29144Z" fill="white"/>
<path d="M38.9487 159.276C39.2972 157.165 39.0114 154.997 38.1275 153.048C37.2435 151.099 35.8011 149.456 33.9829 148.326C32.1647 147.197 30.0524 146.633 27.9134 146.705C25.7743 146.777 23.7047 147.482 21.9664 148.73C20.2281 149.979 18.8994 151.715 18.1483 153.719C17.3973 155.724 17.2576 157.906 17.7472 159.989C18.2367 162.073 19.3333 163.964 20.8983 165.424C22.4632 166.884 24.4262 167.847 26.5386 168.191C27.939 168.423 29.3714 168.376 30.7536 168.053C32.1359 167.73 33.4408 167.137 34.5937 166.309C35.7465 165.481 36.7246 164.433 37.4719 163.227C38.2193 162.02 38.7211 160.677 38.9487 159.276V159.276Z" fill="#FFC217"/>
<path d="M57.2809 162.24C57.4244 161.369 57.3066 160.476 56.9423 159.673C56.578 158.87 55.9836 158.193 55.2343 157.727C54.485 157.262 53.6145 157.03 52.733 157.059C51.8515 157.089 50.9987 157.38 50.2824 157.894C49.5661 158.409 49.0186 159.124 48.7091 159.95C48.3997 160.776 48.3422 161.675 48.544 162.534C48.7458 163.392 49.1978 164.172 49.8427 164.773C50.4877 165.375 51.2966 165.772 52.1672 165.913C52.7443 166.009 53.3346 165.99 53.9042 165.857C54.4738 165.724 55.0116 165.479 55.4867 165.138C55.9617 164.797 56.3648 164.365 56.6727 163.868C56.9806 163.37 57.1872 162.817 57.2809 162.24V162.24Z" fill="#FFC217"/>
</svg>
