<svg width="120" height="120" viewBox="0 0 120 120" fill="none" xmlns="http://www.w3.org/2000/svg">
<path d="M107.117 85.9584L46.6032 51.024C45.5688 50.4264 43.8816 50.4288 42.8472 51.024L8.73118 70.7256C7.32958 71.5344 7.32718 72.8592 8.73118 73.668L68.796 108.343C69.3093 108.603 69.8766 108.738 70.452 108.738C71.0273 108.738 71.5946 108.603 72.108 108.343L107.117 88.128C108.151 87.5304 108.151 86.556 107.117 85.9584Z" fill="#1666EA"/>
<path d="M52.1857 32.4698L104.381 80.4554C105.691 81.6554 105.454 82.901 105.257 84.0122C105.06 85.1234 104.386 86.6402 103.157 87.3602L71.6881 105.519C70.4593 106.227 68.6929 106.095 67.7449 105.223L15.5521 57.2378C14.5921 56.3666 14.5921 55.0226 14.7889 53.909C14.9857 52.7954 15.5449 51.0554 16.7761 50.345L48.2401 32.177C49.4737 31.4666 50.8657 31.2554 52.1857 32.4698Z" fill="#37474F"/>
<path d="M50.4745 33.8928L18.1153 52.5744L70.5361 100.754L69.6121 105.965C68.9249 105.93 68.2685 105.669 67.7449 105.223L15.5521 57.2376C14.5921 56.3664 14.5921 55.0224 14.7889 53.9088C14.9857 52.7952 15.5449 51.0552 16.7761 50.3448L48.2401 32.1768C49.0081 31.7328 49.9201 31.4352 50.8585 31.6968L50.8321 31.8576L50.4745 33.8928Z" fill="#263238"/>
<path d="M103.822 80.712L51.7177 32.808C50.9641 32.1168 49.5577 32.0136 48.5809 32.568L17.8609 50.3064C16.5385 51.0672 16.2913 52.4664 17.3089 53.3952L69.0913 101.006C69.7537 101.614 70.9993 101.707 71.8585 101.208L103.418 82.9896C104.4 82.428 104.575 81.4032 103.822 80.712Z" fill="#455A64"/>
<path d="M31.5624 67.7376C31.7616 67.9648 31.9079 68.2332 31.9909 68.5237C32.0739 68.8142 32.0915 69.1195 32.0424 69.4176C32.0339 69.5274 32.0013 69.634 31.9469 69.7298C31.8926 69.8256 31.8179 69.9083 31.728 69.972C31.6224 70.0296 31.2216 70.2696 31.1136 70.3296C31.0217 70.3726 30.9182 70.3839 30.8191 70.3618C30.7201 70.3396 30.6312 70.2853 30.5664 70.2072L26.4192 66.3936C26.2196 66.1667 26.073 65.8982 25.99 65.6076C25.907 65.3171 25.8897 65.0117 25.9392 64.7136C25.9491 64.6079 25.9803 64.5053 26.0311 64.412C26.0818 64.3188 26.151 64.2368 26.2344 64.1712C26.3448 64.1016 26.76 63.864 26.868 63.8016C26.9599 63.7585 27.0635 63.7472 27.1625 63.7694C27.2616 63.7915 27.3504 63.8459 27.4152 63.924L31.5624 67.7376Z" fill="#455A64"/>
<path d="M30.9601 68.0903L26.8105 64.2767C26.4361 63.9335 26.0497 64.1279 25.9465 64.7135C25.8974 65.0116 25.915 65.3169 25.998 65.6074C26.081 65.8979 26.2273 66.1663 26.4265 66.3935L30.5761 70.2071C30.9505 70.5503 31.3369 70.3559 31.4401 69.7703C31.4903 69.4722 31.4733 69.1667 31.3903 68.876C31.3072 68.5853 31.1602 68.3169 30.9601 68.0903Z" fill="#37474F"/>
<path d="M24.3 61.0632C24.4998 61.29 24.6465 61.5585 24.7295 61.8491C24.8125 62.1397 24.8298 62.4451 24.78 62.7432C24.7709 62.8528 24.7377 62.959 24.683 63.0544C24.6282 63.1498 24.5532 63.232 24.4632 63.2952L23.8488 63.6552C23.7572 63.6972 23.6542 63.708 23.5558 63.6859C23.4574 63.6638 23.3689 63.61 23.304 63.5328L19.164 59.7192C18.9647 59.4921 18.8183 59.2236 18.7353 58.9331C18.6523 58.6426 18.6348 58.3373 18.684 58.0392C18.6908 57.9348 18.7188 57.8329 18.7662 57.7396C18.8137 57.6463 18.8796 57.5637 18.96 57.4968C19.0704 57.4272 19.4856 57.1872 19.5936 57.1272C19.6853 57.0839 19.7887 57.0722 19.8877 57.0939C19.9867 57.1156 20.0757 57.1695 20.1408 57.2472L24.3 61.0632Z" fill="#455A64"/>
<path d="M23.688 61.4159L19.5384 57.5999C19.1664 57.2567 18.7776 57.4511 18.6744 58.0343C18.6252 58.3324 18.6427 58.6377 18.7257 58.9283C18.8087 59.2188 18.9551 59.4872 19.1544 59.7143L23.304 63.5279C23.676 63.8711 24.0624 63.6743 24.168 63.0911C24.217 62.7938 24.1994 62.4893 24.1164 62.1996C24.0334 61.9099 23.887 61.6422 23.688 61.4159Z" fill="#37474F"/>
<path d="M52.56 35.3904L101.213 80.124C101.933 80.784 101.76 81.7608 100.829 82.284L72.2688 98.7696C71.34 99.3096 70.0032 99.2112 69.2808 98.5488L20.2848 53.52C20.151 53.4104 20.0421 53.2734 19.9655 53.1182C19.8889 52.9631 19.8463 52.7934 19.8406 52.6204C19.8349 52.4475 19.8663 52.2753 19.9325 52.1155C19.9988 51.9556 20.0985 51.8118 20.2248 51.6936C20.268 51.6504 20.3064 51.6096 20.352 51.5688C20.4511 51.4862 20.5571 51.4124 20.6688 51.348L28.7016 46.7112L29.2248 46.4088C29.3688 46.3274 29.5337 46.2905 29.6986 46.3029C29.8635 46.3153 30.0211 46.3764 30.1512 46.4784C30.289 46.5794 30.4534 46.6378 30.624 46.6463C30.7947 46.6548 30.9641 46.6132 31.1112 46.5264L40.4712 41.1216C40.776 40.944 40.8504 40.6416 40.6272 40.4304C40.583 40.3812 40.5505 40.3226 40.5322 40.2591C40.5139 40.1955 40.5102 40.1286 40.5216 40.0634C40.5329 39.9982 40.5589 39.9365 40.5975 39.8828C40.6362 39.8292 40.6866 39.785 40.7448 39.7536L48.6024 35.2176L48.768 35.1216C49.9488 34.4304 51.6504 34.56 52.56 35.3904Z" fill="black"/>
<path d="M29.9137 47.8032C29.7833 47.7015 29.6256 47.6409 29.4607 47.6289C29.2958 47.617 29.131 47.6542 28.9873 47.736L28.4641 48.0384L20.4313 52.6752C20.3195 52.7395 20.2135 52.8134 20.1145 52.896C20.0689 52.9344 20.0305 52.9776 19.9873 53.0184C19.9441 53.0592 19.9657 53.0496 19.9513 53.064C20.0317 53.2363 20.145 53.3912 20.2849 53.52L69.2881 98.5608C70.0081 99.2232 71.3473 99.3216 72.2761 98.7816L100.836 82.296C101.016 82.1946 101.178 82.0649 101.316 81.912C101.236 81.7416 101.123 81.589 100.982 81.4632L52.3201 36.72C51.4153 35.8848 49.7137 35.76 48.5377 36.4368L48.3721 36.5352L40.7209 40.9512L40.5193 42.084C40.501 42.1597 40.4666 42.2305 40.4186 42.2918C40.3706 42.353 40.31 42.4033 40.2409 42.4392L30.8809 47.8416C30.7341 47.9319 30.5637 47.9764 30.3915 47.9696C30.2192 47.9627 30.0529 47.9048 29.9137 47.8032Z" fill="white"/>
<path d="M45.5353 70.3968L67.9993 57.4368C68.6041 57.0888 69.4729 57.1512 69.9385 57.5808L74.5897 61.8576C75.0553 62.2848 74.9449 62.916 74.3497 63.2664L51.8833 76.2264C51.5819 76.3962 51.2369 76.4732 50.8919 76.4476C50.5468 76.422 50.2171 76.2949 49.9441 76.0824L45.2929 71.8056C44.8177 71.3784 44.9305 70.7472 45.5353 70.3968Z" fill="#FFC217"/>
<path d="M53.9136 78.1031L76.38 65.1431C76.6811 64.9723 77.0262 64.8948 77.3715 64.9204C77.7167 64.9461 78.0466 65.0737 78.3192 65.2871L82.9704 69.5615C83.436 69.9911 83.3232 70.6223 82.7304 70.9703L60.2664 83.9424C59.6616 84.2904 58.7928 84.2256 58.3272 83.796L53.664 79.5119C53.1984 79.0823 53.3088 78.4511 53.9136 78.1031Z" fill="#FFC217"/>
<path d="M62.2945 85.8096L84.7585 72.8376C85.0603 72.6678 85.4056 72.5909 85.751 72.6165C86.0964 72.6421 86.4265 72.7691 86.7001 72.9816L91.3489 77.2584C91.8169 77.688 91.7041 78.3192 91.1089 78.6672L68.6449 91.6272C68.3438 91.7983 67.9987 91.876 67.6533 91.8504C67.308 91.8247 66.9781 91.6969 66.7057 91.4832L62.0545 87.2088C61.5769 86.7888 61.6801 86.16 62.2945 85.8096Z" fill="#FFC217"/>
<path d="M31.1785 44.4456L35.4673 41.9664C35.5896 41.8934 35.7308 41.8583 35.8731 41.8656C36.0153 41.8728 36.1522 41.9221 36.2665 42.0072C36.4513 42.1776 36.3937 42.4368 36.1393 42.5832L31.8481 45.0624C31.7258 45.1354 31.5845 45.1705 31.4423 45.1633C31.3 45.156 31.1631 45.1067 31.0489 45.0216C30.8641 44.8512 30.9217 44.592 31.1785 44.4456Z" fill="#263238"/>
<path d="M37.5337 40.5719C37.677 40.4901 37.8414 40.4527 38.0059 40.4647C38.1705 40.4767 38.3278 40.5374 38.4577 40.6391C38.5095 40.6842 38.5487 40.7419 38.5716 40.8065C38.5946 40.8712 38.6004 40.9407 38.5886 41.0083C38.5767 41.0759 38.5477 41.1393 38.5041 41.1924C38.4606 41.2454 38.4041 41.2863 38.3401 41.3111C38.1964 41.3929 38.0316 41.4302 37.8667 41.4182C37.7018 41.4062 37.5441 41.3456 37.4137 41.2439C37.362 41.1987 37.3229 41.1409 37.3001 41.0761C37.2773 41.0113 37.2717 40.9417 37.2838 40.874C37.2959 40.8064 37.3252 40.7431 37.369 40.6901C37.4128 40.6372 37.4695 40.5965 37.5337 40.5719Z" fill="#263238"/>
<path d="M59.2852 103.83C59.4919 102.569 59.3174 101.276 58.7837 100.114C58.25 98.9523 57.3811 97.9736 56.2869 97.302C55.1927 96.6304 53.9223 96.296 52.6366 96.3412C51.3509 96.3864 50.1076 96.8091 49.0639 97.5558C48.0203 98.3026 47.2233 99.3398 46.7737 100.536C46.3241 101.733 46.2421 103.035 46.5382 104.277C46.8342 105.52 47.495 106.648 48.4368 107.518C49.3787 108.388 50.5594 108.961 51.8294 109.164C53.5306 109.437 55.2714 109.029 56.6694 108.028C58.0674 107.028 59.0082 105.518 59.2852 103.83Z" fill="#FFC217"/>
<path d="M66.2322 111.24C66.3169 110.72 66.2446 110.188 66.0246 109.71C65.8045 109.231 65.4465 108.829 64.9958 108.552C64.5451 108.276 64.022 108.138 63.4926 108.157C62.9631 108.176 62.4512 108.35 62.0214 108.657C61.5917 108.965 61.2634 109.392 61.0782 109.885C60.8929 110.377 60.859 110.913 60.9807 111.425C61.1023 111.937 61.3742 112.401 61.7618 112.76C62.1494 113.118 62.6353 113.355 63.1582 113.439C63.5056 113.495 63.8606 113.482 64.2031 113.402C64.5456 113.322 64.8688 113.176 65.1542 112.971C65.4397 112.767 65.6818 112.509 65.8668 112.212C66.0517 111.915 66.1759 111.584 66.2322 111.24Z" fill="#FFC217"/>
<path d="M98.1504 102.521L109.661 96.3384L114.374 98.2608L98.1504 102.521Z" fill="#FFC217"/>
<g opacity="0.15">
<path d="M98.1504 102.521L109.661 96.3384L114.374 98.2608L98.1504 102.521Z" fill="white"/>
</g>
<path d="M98.1504 102.521L108.24 95.3423L106.32 92.7479L98.1504 102.521Z" fill="#FFC217"/>
<g opacity="0.15">
<path d="M98.1504 102.521L108.24 95.3423L106.32 92.7479L98.1504 102.521Z" fill="white"/>
</g>
<path d="M108.24 95.3423L108.098 97.1759L98.1504 102.521L108.24 95.3423Z" fill="#FFC217"/>
<g opacity="0.2">
<path d="M108.24 95.3423L108.098 97.1759L98.1504 102.521L108.24 95.3423Z" fill="black"/>
</g>
<path d="M109.68 95.1647C109.666 95.1661 109.652 95.1647 109.638 95.1606C109.624 95.1565 109.612 95.1497 109.601 95.1407C109.575 95.1192 109.558 95.0891 109.553 95.0561C109.547 95.023 109.554 94.9891 109.572 94.9607C109.639 94.8575 109.704 94.7543 109.769 94.6511C109.776 94.6373 109.787 94.6253 109.799 94.6159C109.812 94.6066 109.826 94.6003 109.842 94.5973C109.857 94.5943 109.873 94.5948 109.888 94.5987C109.903 94.6026 109.918 94.6098 109.93 94.6199C109.955 94.6407 109.973 94.6702 109.979 94.7028C109.984 94.7355 109.978 94.7691 109.961 94.7975C109.896 94.9031 109.829 95.0087 109.762 95.1119C109.753 95.1265 109.741 95.1388 109.727 95.148C109.713 95.1572 109.697 95.1629 109.68 95.1647Z" fill="#455A64"/>
<path d="M110.498 93.8063C110.473 93.8094 110.447 93.8025 110.426 93.7871C110.399 93.7653 110.381 93.7337 110.376 93.6988C110.371 93.664 110.379 93.6285 110.4 93.5999C110.518 93.3887 110.64 93.1751 110.741 92.9591C110.747 92.9452 110.757 92.9328 110.768 92.9227C110.78 92.9127 110.794 92.9053 110.808 92.9009C110.823 92.8966 110.839 92.8955 110.854 92.8977C110.869 92.8999 110.884 92.9053 110.897 92.9135C110.925 92.9318 110.945 92.9599 110.953 92.9923C110.962 93.0247 110.958 93.0591 110.942 93.0887C110.832 93.3063 110.717 93.5223 110.597 93.7367C110.589 93.757 110.576 93.7745 110.558 93.787C110.541 93.7994 110.52 93.8062 110.498 93.8063ZM111.365 92.0567C111.343 92.0579 111.321 92.0529 111.302 92.0423C111.274 92.0249 111.253 91.9979 111.243 91.9662C111.233 91.9345 111.234 91.9002 111.247 91.8695C111.346 91.6463 111.439 91.4207 111.528 91.1951C111.533 91.1804 111.541 91.1669 111.551 91.1555C111.562 91.1441 111.575 91.1351 111.589 91.1289C111.603 91.1228 111.619 91.1198 111.634 91.12C111.65 91.1203 111.665 91.1238 111.679 91.1303C111.709 91.1462 111.731 91.1723 111.743 91.2037C111.754 91.2351 111.754 91.2696 111.742 91.3007C111.65 91.5287 111.557 91.7591 111.456 91.9847C111.449 92.0047 111.436 92.0221 111.419 92.0349C111.402 92.0477 111.381 92.0553 111.36 92.0567H111.365ZM112.058 90.2111C112.042 90.2157 112.024 90.2157 112.008 90.2111C111.978 90.197 111.954 90.1722 111.941 90.1417C111.929 90.1111 111.927 90.0769 111.938 90.0455C112.013 89.8055 112.082 89.5655 112.145 89.3255C112.148 89.3101 112.155 89.2956 112.164 89.283C112.174 89.2704 112.186 89.2599 112.2 89.2522C112.214 89.2445 112.229 89.2398 112.245 89.2383C112.26 89.2369 112.276 89.2388 112.291 89.2439C112.322 89.2563 112.347 89.2797 112.361 89.3094C112.375 89.3392 112.378 89.3732 112.368 89.4047C112.303 89.6447 112.231 89.8847 112.157 90.1247C112.151 90.1476 112.139 90.1682 112.121 90.1837C112.104 90.1992 112.082 90.2088 112.058 90.2111ZM112.538 88.2911C112.526 88.2935 112.514 88.2935 112.502 88.2911C112.471 88.2807 112.445 88.2593 112.429 88.2311C112.413 88.2028 112.407 88.1696 112.414 88.1375C112.462 87.8975 112.502 87.6575 112.538 87.4031C112.54 87.3873 112.544 87.3719 112.552 87.3579C112.56 87.344 112.57 87.3318 112.583 87.3221C112.596 87.3124 112.61 87.3054 112.626 87.3016C112.641 87.2978 112.657 87.2972 112.673 87.2999C112.705 87.3089 112.732 87.3293 112.75 87.3572C112.767 87.3851 112.774 87.4185 112.769 87.4511C112.733 87.6911 112.69 87.9455 112.642 88.1951C112.637 88.2163 112.628 88.2359 112.613 88.2519C112.599 88.268 112.58 88.2798 112.56 88.2863L112.538 88.2911ZM112.8 86.3063C112.793 86.3087 112.785 86.3087 112.778 86.3063C112.746 86.301 112.718 86.2836 112.698 86.2577C112.678 86.2318 112.669 86.1994 112.673 86.1671C112.69 85.9271 112.702 85.6703 112.706 85.4207C112.706 85.3887 112.719 85.3579 112.741 85.335C112.764 85.3121 112.794 85.299 112.826 85.2983C112.859 85.302 112.889 85.3179 112.91 85.343C112.931 85.368 112.941 85.4001 112.939 85.4327C112.939 85.6847 112.922 85.9415 112.903 86.1911C112.902 86.2169 112.892 86.2415 112.876 86.2614C112.859 86.2813 112.837 86.2954 112.812 86.3015L112.8 86.3063ZM112.812 84.2975C112.78 84.2969 112.749 84.2838 112.726 84.261C112.703 84.2382 112.69 84.2074 112.69 84.1751C112.69 83.9807 112.663 83.7839 112.646 83.5895L112.63 83.4287C112.627 83.4128 112.628 83.3966 112.632 83.381C112.636 83.3653 112.643 83.3507 112.652 83.3377C112.662 83.3248 112.674 83.3139 112.688 83.3056C112.702 83.2973 112.717 83.2919 112.733 83.2895C112.749 83.2886 112.765 83.2908 112.78 83.2961C112.795 83.3014 112.809 83.3096 112.821 83.3204C112.832 83.3311 112.842 83.3441 112.849 83.3586C112.856 83.3731 112.859 83.3888 112.86 83.4047L112.877 83.5679C112.896 83.7671 112.91 83.9663 112.92 84.1631C112.923 84.1928 112.915 84.2225 112.897 84.2465C112.879 84.2704 112.853 84.2869 112.824 84.2927L112.812 84.2975ZM112.572 82.2983C112.541 82.3004 112.511 82.2906 112.487 82.2709C112.464 82.2513 112.448 82.2233 112.445 82.1927C112.402 81.9527 112.351 81.7127 112.298 81.4607C112.289 81.4292 112.293 81.3955 112.309 81.3667C112.325 81.338 112.351 81.3166 112.382 81.3071C112.398 81.3037 112.414 81.3034 112.429 81.3065C112.445 81.3095 112.46 81.3157 112.473 81.3247C112.486 81.3337 112.497 81.3453 112.505 81.3588C112.514 81.3723 112.519 81.3874 112.522 81.4031C112.577 81.6431 112.63 81.8999 112.673 82.1495C112.679 82.1813 112.674 82.2144 112.657 82.242C112.64 82.2697 112.613 82.2898 112.582 82.2983H112.572ZM112.092 80.3471C112.064 80.3486 112.037 80.3406 112.015 80.3244C111.993 80.3083 111.977 80.2849 111.97 80.2583C111.898 80.0183 111.818 79.7783 111.73 79.5527C111.718 79.522 111.718 79.488 111.73 79.4574C111.742 79.4268 111.765 79.4017 111.794 79.3871C111.809 79.3819 111.825 79.3796 111.841 79.3805C111.856 79.3815 111.872 79.3855 111.886 79.3924C111.9 79.3994 111.912 79.4091 111.923 79.4209C111.933 79.4328 111.941 79.4466 111.946 79.4615C112.032 79.7015 112.114 79.9415 112.186 80.1815C112.197 80.2127 112.196 80.2473 112.183 80.2779C112.169 80.3084 112.145 80.3324 112.114 80.3447L112.092 80.3471ZM111.372 78.4871C111.348 78.4879 111.324 78.4814 111.303 78.4686C111.283 78.4558 111.267 78.4372 111.257 78.4151C111.154 78.1943 111.041 77.9735 110.926 77.7575C110.909 77.7287 110.904 77.6949 110.911 77.6626C110.918 77.6303 110.937 77.6017 110.964 77.5823C110.977 77.5741 110.992 77.5688 111.008 77.5668C111.023 77.5648 111.039 77.5661 111.054 77.5706C111.069 77.5751 111.083 77.5828 111.095 77.5931C111.106 77.6034 111.116 77.6161 111.122 77.6303C111.242 77.8487 111.362 78.0743 111.461 78.2999C111.476 78.3295 111.48 78.3637 111.471 78.3957C111.462 78.4278 111.441 78.4553 111.413 78.4727C111.409 78.4754 111.405 78.4778 111.401 78.4799L111.372 78.4871ZM110.4 76.7663C110.38 76.7682 110.359 76.7643 110.341 76.755C110.322 76.7456 110.307 76.7312 110.297 76.7135C110.162 76.5119 110.021 76.3127 109.877 76.1207C109.856 76.0946 109.846 76.0617 109.848 76.0284C109.85 75.9952 109.865 75.9639 109.889 75.9407C109.9 75.93 109.914 75.9218 109.928 75.9168C109.943 75.9118 109.959 75.91 109.974 75.9116C109.99 75.9132 110.005 75.9181 110.018 75.926C110.032 75.934 110.043 75.9447 110.052 75.9575C110.201 76.1543 110.345 76.3583 110.482 76.5647C110.501 76.5919 110.509 76.6253 110.504 76.6582C110.5 76.6912 110.483 76.7212 110.458 76.7423C110.449 76.7503 110.439 76.7568 110.429 76.7615L110.4 76.7663Z" fill="white"/>
<path d="M17.6929 39.8664L28.5145 33.5496L20.9809 41.8344L17.6929 39.8664Z" fill="#FFC217"/>
<path opacity="0.15" d="M17.6929 39.8664L28.5145 33.5496L20.9809 41.8344L17.6929 39.8664Z" fill="white"/>
<path d="M28.5145 33.5496L16.4377 38.52L13.1497 36.552L28.5145 33.5496Z" fill="#FFC217"/>
<path opacity="0.15" d="M28.5145 33.5496L16.4377 38.52L13.1497 36.552L28.5145 33.5496Z" fill="white"/>
<path d="M16.4376 38.52L17.1528 41.6256L17.6928 39.8664L28.5144 33.5496L16.4376 38.52Z" fill="#FFC217"/>
<path opacity="0.2" d="M16.4376 38.52L17.1528 41.6256L17.6928 39.8664L28.5144 33.5496L16.4376 38.52Z" fill="black"/>
<path d="M17.1528 41.6255L18.7872 40.5215L17.6928 39.8663L17.1528 41.6255Z" fill="#FFC217"/>
<path opacity="0.2" d="M17.6929 39.8663L18.7873 40.5215L18.5281 40.6967L17.6929 39.8663Z" fill="black"/>
<path d="M14.7384 41.28C14.7657 41.2877 14.7894 41.3047 14.8056 41.328C14.8218 41.3572 14.8272 41.3912 14.8211 41.424C14.815 41.4568 14.7976 41.4865 14.772 41.508L14.4816 41.7336C14.4697 41.7438 14.4556 41.7514 14.4405 41.7557C14.4253 41.76 14.4094 41.7609 14.3939 41.7584C14.3783 41.7558 14.3635 41.75 14.3505 41.7411C14.3374 41.7323 14.3265 41.7207 14.3184 41.7072C14.3015 41.6785 14.2955 41.6447 14.3017 41.612C14.3079 41.5793 14.3258 41.55 14.352 41.5296L14.6448 41.2896C14.6584 41.2803 14.674 41.2745 14.6904 41.2729C14.7067 41.2712 14.7232 41.2736 14.7384 41.28Z" fill="#455A64"/>
<path d="M13.5168 42.288C13.5424 42.2937 13.5648 42.3092 13.5792 42.3312C13.5975 42.3584 13.6054 42.3914 13.6015 42.424C13.5975 42.4566 13.5819 42.4867 13.5576 42.5088C13.3752 42.6696 13.1952 42.8328 13.02 42.9888C13.0099 43.0004 12.9973 43.0098 12.9833 43.0162C12.9692 43.0227 12.9539 43.026 12.9384 43.026C12.9229 43.026 12.9076 43.0227 12.8936 43.0162C12.8795 43.0098 12.867 43.0004 12.8568 42.9888C12.8372 42.9618 12.8282 42.9287 12.8312 42.8956C12.8343 42.8624 12.8494 42.8316 12.8736 42.8088C13.0512 42.6408 13.2312 42.4776 13.416 42.3144C13.4292 42.3018 13.4454 42.2928 13.463 42.2882C13.4806 42.2836 13.4992 42.2835 13.5168 42.288ZM12.1128 43.6464C12.1342 43.6504 12.1536 43.6613 12.168 43.6776C12.19 43.7029 12.2021 43.7352 12.2021 43.7688C12.2021 43.8023 12.19 43.8346 12.168 43.86C12 44.0376 11.8368 44.2176 11.676 44.4024C11.6659 44.414 11.6533 44.4234 11.6393 44.4298C11.6252 44.4363 11.6099 44.4396 11.5944 44.4396C11.5789 44.4396 11.5636 44.4363 11.5496 44.4298C11.5355 44.4234 11.523 44.414 11.5128 44.4024C11.4909 44.377 11.4788 44.3447 11.4788 44.3112C11.4788 44.2776 11.4909 44.2453 11.5128 44.22C11.6736 44.0352 11.8392 43.8504 12.0096 43.6704C12.0235 43.6582 12.0402 43.6497 12.0582 43.6455C12.0762 43.6413 12.095 43.6416 12.1128 43.6464ZM10.8384 45.1488C10.8554 45.1529 10.871 45.1611 10.884 45.1728C10.9058 45.1977 10.9178 45.2297 10.9178 45.2628C10.9178 45.2959 10.9058 45.3278 10.884 45.3528C10.7352 45.5472 10.5888 45.7488 10.4496 45.948C10.4414 45.9612 10.4305 45.9727 10.4176 45.9815C10.4048 45.9904 10.3902 45.9965 10.3749 45.9994C10.3595 46.0023 10.3437 46.002 10.3285 45.9986C10.3133 45.9951 10.299 45.9885 10.2864 45.9792C10.2615 45.9573 10.2458 45.927 10.2422 45.8941C10.2387 45.8612 10.2476 45.8282 10.2672 45.8016C10.4088 45.5976 10.5552 45.3936 10.7088 45.1944C10.7218 45.1729 10.7418 45.1566 10.7654 45.1483C10.7891 45.14 10.8149 45.1401 10.8384 45.1488ZM9.72962 46.8L9.76322 46.8168C9.78933 46.8368 9.80701 46.8659 9.81278 46.8983C9.81855 46.9307 9.812 46.9641 9.79442 46.992C9.66722 47.2056 9.55442 47.424 9.42962 47.64C9.42304 47.6541 9.41359 47.6668 9.40186 47.6771C9.39013 47.6874 9.37639 47.6952 9.36149 47.7C9.3466 47.7047 9.33089 47.7063 9.31534 47.7046C9.2998 47.703 9.28478 47.6981 9.27122 47.6904C9.2434 47.673 9.22352 47.6454 9.21588 47.6135C9.20825 47.5816 9.21347 47.548 9.23042 47.52C9.34562 47.2992 9.47042 47.0784 9.60002 46.86C9.61234 46.8374 9.63159 46.8194 9.65492 46.8086C9.67825 46.7978 9.70444 46.7947 9.72962 46.8ZM8.81522 48.5808H8.83442C8.86318 48.5966 8.88487 48.6227 8.89512 48.6539C8.90537 48.6851 8.9034 48.719 8.88962 48.7488C8.78882 48.9744 8.69522 49.2072 8.60642 49.44C8.60154 49.4552 8.59366 49.4693 8.58325 49.4815C8.57284 49.4936 8.5601 49.5035 8.54579 49.5107C8.53148 49.5179 8.51588 49.5221 8.49991 49.5231C8.48395 49.5242 8.46793 49.522 8.45282 49.5168C8.42295 49.5027 8.39986 49.4774 8.38862 49.4463C8.37737 49.4153 8.37888 49.3811 8.39282 49.3512C8.48162 49.1112 8.58002 48.8712 8.67842 48.648C8.68946 48.622 8.70909 48.6007 8.73401 48.5876C8.75893 48.5745 8.78761 48.5704 8.81522 48.576V48.5808ZM8.12882 50.4696C8.15895 50.4809 8.18352 50.5035 8.19739 50.5326C8.21126 50.5617 8.21334 50.595 8.20322 50.6256C8.14802 50.8128 8.09522 51.0024 8.04722 51.192L8.00882 51.348C8.00241 51.3799 7.98377 51.4081 7.95686 51.4265C7.92995 51.4449 7.89691 51.452 7.86482 51.4464C7.83408 51.4369 7.8083 51.4158 7.79303 51.3875C7.77776 51.3592 7.77424 51.326 7.78322 51.2952L7.82402 51.1344C7.87202 50.9424 7.92482 50.7504 7.98242 50.5584C7.98583 50.5426 7.99233 50.5276 8.00155 50.5143C8.01076 50.5011 8.02252 50.4898 8.03612 50.4811C8.04973 50.4724 8.06493 50.4664 8.08084 50.4636C8.09675 50.4608 8.11305 50.4612 8.12882 50.4648V50.4696ZM7.68002 52.428C7.70932 52.4364 7.73421 52.4558 7.74943 52.4823C7.76466 52.5087 7.76902 52.54 7.76162 52.5695C7.72082 52.8096 7.68722 53.0616 7.65602 53.3088C7.65299 53.3414 7.63768 53.3717 7.61318 53.3936C7.58868 53.4154 7.55682 53.4271 7.52402 53.4264C7.50824 53.4241 7.49309 53.4186 7.4795 53.4102C7.46591 53.4019 7.45415 53.3909 7.44495 53.3779C7.43575 53.3648 7.42929 53.3501 7.42596 53.3345C7.42264 53.3189 7.42252 53.3028 7.42562 53.2872C7.45442 53.0472 7.49282 52.7831 7.53362 52.5359C7.53725 52.5037 7.55332 52.4741 7.57842 52.4535C7.60351 52.4329 7.63565 52.4228 7.66802 52.4256L7.68002 52.428ZM7.46642 54.4248C7.49305 54.432 7.51618 54.4486 7.5316 54.4715C7.54702 54.4945 7.55369 54.5221 7.55042 54.5496C7.55042 54.7895 7.53602 55.044 7.53602 55.2912C7.53803 55.3241 7.52713 55.3566 7.50563 55.3817C7.48413 55.4068 7.45371 55.4225 7.42082 55.4256C7.40498 55.4263 7.38917 55.4236 7.37442 55.4178C7.35967 55.412 7.34631 55.4031 7.33522 55.3918C7.32412 55.3805 7.31553 55.367 7.31002 55.3521C7.30451 55.3372 7.30219 55.3214 7.30322 55.3056C7.30322 55.0656 7.30322 54.7992 7.31762 54.5472C7.31817 54.5144 7.3311 54.4831 7.35381 54.4595C7.37652 54.4359 7.40732 54.4218 7.44002 54.42L7.46642 54.4248ZM7.51682 56.4168C7.53996 56.4236 7.56044 56.4374 7.57547 56.4563C7.5905 56.4752 7.59935 56.4983 7.60082 56.5224C7.62482 56.7624 7.65602 57.0023 7.69202 57.2424C7.69804 57.2753 7.69154 57.3093 7.67378 57.3378C7.65602 57.3662 7.62828 57.3869 7.59602 57.396C7.58065 57.399 7.56481 57.3989 7.54951 57.3955C7.5342 57.3922 7.51977 57.3856 7.50712 57.3764C7.49448 57.3671 7.4839 57.3553 7.47606 57.3418C7.46823 57.3282 7.46331 57.3131 7.46162 57.2976C7.42562 57.0576 7.39442 56.8008 7.37042 56.5536C7.36606 56.5206 7.37426 56.4873 7.39338 56.4602C7.41251 56.433 7.44116 56.4141 7.47362 56.4072L7.51682 56.4168ZM7.85282 58.3631C7.87299 58.3688 7.89124 58.3798 7.90562 58.395C7.91999 58.4102 7.92995 58.4291 7.93442 58.4496C7.99202 58.6896 8.05922 58.9296 8.12882 59.148C8.13897 59.1796 8.13727 59.2138 8.12402 59.2443C8.11077 59.2748 8.08688 59.2994 8.05682 59.3136C8.0424 59.3196 8.02686 59.3225 8.01124 59.322C7.99562 59.3216 7.98027 59.3179 7.96621 59.311C7.95214 59.3042 7.93968 59.2945 7.92965 59.2825C7.91962 59.2706 7.91225 59.2566 7.90802 59.2416C7.83602 59.0016 7.76882 58.7616 7.70882 58.5216C7.70061 58.4894 7.70436 58.4554 7.71937 58.4258C7.73438 58.3962 7.75963 58.3731 7.79042 58.3608C7.81101 58.3555 7.83268 58.3564 7.85282 58.3631Z" fill="white"/>
<path d="M66.826 14.7763C67.3198 14.8861 67.7955 15.0653 68.2391 15.3083C68.6639 15.5367 69.0446 15.8389 69.3633 16.2008C69.6683 16.5489 69.8946 16.9587 70.0269 17.4022C70.1619 17.877 70.1718 18.3786 70.0556 18.8582C69.9788 19.2385 69.8282 19.6001 69.6122 19.9223C69.4149 20.1979 69.18 20.4444 68.9142 20.6546C68.6532 20.8573 68.3746 21.0363 68.0818 21.1896L67.258 21.6272C67.0098 21.7566 66.7742 21.9089 66.5543 22.082C66.3553 22.2347 66.2027 22.4397 66.1137 22.6742C66.0702 22.7813 65.9979 22.8743 65.9049 22.9431C65.8609 22.9772 65.8097 23.0009 65.7552 23.0123C65.7007 23.0237 65.6443 23.0225 65.5903 23.0088L64.3774 22.74C64.319 22.7277 64.2636 22.7039 64.2145 22.6701C64.1654 22.6362 64.1235 22.5928 64.0914 22.5426C64.0571 22.4959 64.0344 22.4417 64.0249 22.3846C64.0155 22.3274 64.0196 22.2689 64.037 22.2136C64.1347 21.838 64.3068 21.4859 64.5433 21.1781C64.7591 20.9059 65.0091 20.6627 65.2871 20.4544C65.5579 20.2561 65.845 20.081 66.1452 19.9309C66.4313 19.785 66.7173 19.6449 66.9662 19.5047C67.1977 19.3803 67.4154 19.2317 67.6155 19.0613C67.7912 18.9143 67.9129 18.713 67.9616 18.4892C68.0071 18.2949 68.0049 18.0924 67.9551 17.8991C67.9053 17.7058 67.8094 17.5275 67.6756 17.3793C67.3411 17.0141 66.894 16.7714 66.4055 16.69C65.5016 16.4897 64.7388 16.7939 64.1171 17.6025C64.0571 17.6907 63.9815 17.7673 63.894 17.8284C63.7952 17.8774 63.6812 17.8856 63.5765 17.8513L62.2864 17.5653C62.1943 17.5475 62.1131 17.494 62.0604 17.4165C62.0322 17.3751 62.0133 17.3282 62.0049 17.2788C61.9965 17.2294 61.9989 17.1789 62.0118 17.1305C62.1214 16.733 62.3255 16.3679 62.6068 16.0664C62.9239 15.7166 63.3007 15.4261 63.7195 15.2082C64.1774 14.9686 64.671 14.8044 65.1812 14.7219C65.7278 14.633 66.2865 14.6515 66.826 14.7763ZM65.4558 23.9814C65.5693 24.0081 65.6679 24.078 65.7304 24.1764C65.7929 24.2748 65.8145 24.3937 65.7905 24.5078L65.4816 25.9094C65.4711 25.9681 65.4484 26.0239 65.4149 26.0732C65.3813 26.1225 65.3378 26.1642 65.2871 26.1955C65.2392 26.2285 65.1849 26.2511 65.1278 26.262C65.0707 26.2728 65.0119 26.2716 64.9552 26.2584L63.5707 25.9409C63.5119 25.931 63.4558 25.9084 63.4065 25.8749C63.3571 25.8413 63.3156 25.7975 63.2847 25.7464C63.2526 25.698 63.2308 25.6437 63.2204 25.5866C63.2101 25.5296 63.2115 25.471 63.2246 25.4145L63.5364 24.0129C63.5631 23.8993 63.6329 23.8005 63.7312 23.7375C63.8294 23.6745 63.9484 23.6522 64.0628 23.6753L65.4558 23.9814Z" fill="#FFC217"/>
<path d="M68.3535 28.1949C68.6979 28.1396 69.0484 28.1329 69.3947 28.1748C69.7255 28.2142 70.0469 28.311 70.3444 28.4609C70.6277 28.6079 70.8772 28.8125 71.0767 29.0616C71.2561 29.3054 71.3824 29.5841 71.4474 29.8797C71.5125 30.1754 71.5148 30.4813 71.4543 30.7779C71.3998 31.0059 71.3121 31.2247 71.194 31.4273C71.0802 31.6243 70.948 31.8101 70.7992 31.9822C70.6533 32.1538 70.5132 32.3169 70.3845 32.4742C70.2585 32.6208 70.1464 32.7788 70.0498 32.9462C69.9591 33.0929 69.9134 33.2629 69.9182 33.4353C69.9157 33.5159 69.8931 33.5946 69.8524 33.6642C69.8317 33.6963 69.8044 33.7236 69.7724 33.7443C69.7403 33.765 69.7042 33.7786 69.6665 33.7843L68.8083 33.9216C68.7682 33.9289 68.7271 33.9281 68.6873 33.9193C68.6475 33.9104 68.6099 33.8937 68.5766 33.8701C68.5428 33.8489 68.5146 33.8199 68.4942 33.7856C68.4738 33.7513 68.4618 33.7126 68.4593 33.6728C68.4234 33.4066 68.4428 33.1358 68.5165 32.8775C68.5838 32.6489 68.6799 32.4297 68.8026 32.2253C68.9229 32.0292 69.0608 31.8444 69.2145 31.6733C69.3661 31.5016 69.5006 31.3414 69.6321 31.187C69.7496 31.049 69.8513 30.8984 69.9354 30.7379C70.0098 30.5997 70.0369 30.441 70.0126 30.2859C69.9911 30.1494 69.9369 30.0202 69.8548 29.9091C69.7726 29.7981 69.6648 29.7085 69.5406 29.648C69.2331 29.4995 68.885 29.4572 68.5509 29.5279C68.2483 29.5721 67.9669 29.7088 67.7452 29.9193C67.5234 30.1298 67.3722 30.4037 67.3123 30.7035C67.2955 30.7757 67.2665 30.8444 67.2264 30.9066C67.1754 30.9609 67.1062 30.9945 67.0319 31.001L66.128 31.1469C66.0645 31.1591 65.9987 31.1457 65.9449 31.1097C65.9174 31.0908 65.8942 31.0662 65.8769 31.0376C65.8597 31.009 65.8487 30.977 65.8448 30.9438C65.8179 30.66 65.8622 30.3739 65.9735 30.1114C66.0867 29.806 66.2533 29.5232 66.4655 29.2761C66.6982 29.0057 66.9724 28.7739 67.2779 28.5896C67.6076 28.3897 67.9728 28.2557 68.3535 28.1949ZM69.8295 34.4451C69.8689 34.4389 69.9091 34.4404 69.9479 34.4498C69.9867 34.4591 70.0233 34.476 70.0555 34.4995C70.0892 34.5216 70.1179 34.5507 70.1395 34.5847C70.1612 34.6187 70.1755 34.6569 70.1814 34.6968L70.3416 35.678C70.354 35.7576 70.3345 35.8389 70.2874 35.9042C70.2402 35.9695 70.1693 36.0136 70.0898 36.027L69.1316 36.1843C69.052 36.1966 68.9708 36.1771 68.9056 36.13C68.8724 36.1075 68.8443 36.0783 68.8231 36.0443C68.8019 36.0103 68.7881 35.9723 68.7826 35.9326L68.6224 34.9514C68.6151 34.912 68.6162 34.8716 68.6256 34.8327C68.6349 34.7937 68.6524 34.7572 68.6767 34.7254C68.6992 34.6923 68.7284 34.6642 68.7624 34.643C68.7964 34.6218 68.8344 34.608 68.8741 34.6024L69.8295 34.4451Z" fill="#FFC217"/>
<g opacity="0.2">
<path d="M68.3535 28.1949C68.6979 28.1396 69.0484 28.1329 69.3947 28.1748C69.7255 28.2142 70.0469 28.311 70.3444 28.4609C70.6277 28.6079 70.8772 28.8125 71.0767 29.0616C71.2561 29.3054 71.3824 29.5841 71.4474 29.8797C71.5125 30.1754 71.5148 30.4813 71.4543 30.7779C71.3998 31.0059 71.3121 31.2247 71.194 31.4273C71.0802 31.6243 70.948 31.8101 70.7992 31.9822C70.6533 32.1538 70.5132 32.3169 70.3845 32.4742C70.2585 32.6208 70.1464 32.7788 70.0498 32.9462C69.9591 33.0929 69.9134 33.2629 69.9182 33.4353C69.9157 33.5159 69.8931 33.5946 69.8524 33.6642C69.8317 33.6963 69.8044 33.7236 69.7724 33.7443C69.7403 33.765 69.7042 33.7786 69.6665 33.7843L68.8083 33.9216C68.7682 33.9289 68.7271 33.9281 68.6873 33.9193C68.6475 33.9104 68.6099 33.8937 68.5766 33.8701C68.5428 33.8489 68.5146 33.8199 68.4942 33.7856C68.4738 33.7513 68.4618 33.7126 68.4593 33.6728C68.4234 33.4066 68.4428 33.1358 68.5165 32.8775C68.5838 32.6489 68.6799 32.4297 68.8026 32.2253C68.9229 32.0292 69.0608 31.8444 69.2145 31.6733C69.3661 31.5016 69.5006 31.3414 69.6321 31.187C69.7496 31.049 69.8513 30.8984 69.9354 30.7379C70.0098 30.5997 70.0369 30.441 70.0126 30.2859C69.9911 30.1494 69.9369 30.0202 69.8548 29.9091C69.7726 29.7981 69.6648 29.7085 69.5406 29.648C69.2331 29.4995 68.885 29.4572 68.5509 29.5279C68.2483 29.5721 67.9669 29.7088 67.7452 29.9193C67.5234 30.1298 67.3722 30.4037 67.3123 30.7035C67.2955 30.7757 67.2665 30.8444 67.2264 30.9066C67.1754 30.9609 67.1062 30.9945 67.0319 31.001L66.128 31.1469C66.0645 31.1591 65.9987 31.1457 65.9449 31.1097C65.9174 31.0908 65.8942 31.0662 65.8769 31.0376C65.8597 31.009 65.8487 30.977 65.8448 30.9438C65.8179 30.66 65.8622 30.3739 65.9735 30.1114C66.0867 29.806 66.2533 29.5232 66.4655 29.2761C66.6982 29.0057 66.9724 28.7739 67.2779 28.5896C67.6076 28.3897 67.9728 28.2557 68.3535 28.1949ZM69.8295 34.4451C69.8689 34.4389 69.9091 34.4404 69.9479 34.4498C69.9867 34.4591 70.0233 34.476 70.0555 34.4995C70.0892 34.5216 70.1179 34.5507 70.1395 34.5847C70.1612 34.6187 70.1755 34.6569 70.1814 34.6968L70.3416 35.678C70.354 35.7576 70.3345 35.8389 70.2874 35.9042C70.2402 35.9695 70.1693 36.0136 70.0898 36.027L69.1316 36.1843C69.052 36.1966 68.9708 36.1771 68.9056 36.13C68.8724 36.1075 68.8443 36.0783 68.8231 36.0443C68.8019 36.0103 68.7881 35.9723 68.7826 35.9326L68.6224 34.9514C68.6151 34.912 68.6162 34.8716 68.6256 34.8327C68.6349 34.7937 68.6524 34.7572 68.6767 34.7254C68.6992 34.6923 68.7284 34.6642 68.7624 34.643C68.7964 34.6218 68.8344 34.608 68.8741 34.6024L69.8295 34.4451Z" fill="black"/>
</g>
<path d="M76.4431 29.7368C76.4821 29.7639 76.5151 29.7987 76.5402 29.8391C76.5653 29.8794 76.5819 29.9244 76.5889 29.9714C76.598 30.0179 76.5974 30.0658 76.5871 30.1121C76.5767 30.1584 76.5569 30.202 76.5289 30.2403L75.8481 31.1986C75.821 31.2376 75.7862 31.2706 75.7458 31.2957C75.7055 31.3208 75.6605 31.3374 75.6135 31.3444C75.567 31.3535 75.519 31.3529 75.4728 31.3426C75.4265 31.3322 75.3829 31.3124 75.3446 31.2844L74.4064 30.6179C74.3673 30.5911 74.3343 30.5564 74.3097 30.5159C74.285 30.4755 74.2692 30.4303 74.2633 30.3833C74.2542 30.3368 74.2549 30.2888 74.2652 30.2426C74.2756 30.1963 74.2954 30.1527 74.3234 30.1144L75.0128 29.1561C75.0685 29.0785 75.1527 29.0259 75.2469 29.0098C75.3411 28.9938 75.4379 29.0155 75.5163 29.0703L76.4431 29.7368ZM80.402 23.2463C80.7441 23.4861 81.0487 23.7753 81.3059 24.1045C81.5568 24.4107 81.7506 24.7595 81.878 25.1342C81.9968 25.4934 82.0368 25.8739 81.9953 26.2499C81.9469 26.6508 81.7951 27.0323 81.5548 27.3569C81.3763 27.6193 81.1467 27.8431 80.8797 28.0148C80.6448 28.1621 80.3893 28.2739 80.1217 28.3466C79.861 28.4148 79.5949 28.4607 79.3265 28.4839L78.5656 28.5526C78.3374 28.5708 78.1114 28.6101 77.8905 28.6699C77.6867 28.7161 77.5002 28.8193 77.3527 28.9673C77.2861 29.035 77.2019 29.0826 77.1096 29.1047C77.0656 29.1172 77.0194 29.1191 76.9746 29.1102C76.9298 29.1012 76.8878 29.0817 76.8521 29.0532L76.0226 28.4639C75.9433 28.4073 75.889 28.3222 75.871 28.2265C75.8603 28.1801 75.8606 28.1318 75.8721 28.0856C75.8835 28.0394 75.9057 27.9965 75.9367 27.9604C76.1305 27.709 76.3727 27.4989 76.649 27.3426C76.8978 27.2067 77.1632 27.1038 77.4385 27.0365C77.7043 26.972 77.9751 26.9309 78.248 26.9135C78.5169 26.8963 78.7687 26.8763 79.0032 26.8534C79.2179 26.8345 79.4298 26.7923 79.6354 26.7276C79.8152 26.6677 79.9701 26.55 80.0759 26.3929C80.1715 26.2602 80.2337 26.1064 80.2571 25.9445C80.2805 25.7827 80.2645 25.6175 80.2104 25.4632C80.075 25.082 79.8163 24.7568 79.4752 24.5393C78.8573 24.0987 78.1832 24.0844 77.4528 24.4964C77.3793 24.5431 77.2979 24.5761 77.2125 24.5936C77.1681 24.5967 77.1235 24.591 77.0812 24.5767C77.039 24.5625 77 24.54 76.9665 24.5107L76.0855 23.8842C76.0536 23.863 76.0263 23.8356 76.0051 23.8037C75.984 23.7718 75.9695 23.7359 75.9625 23.6983C75.9556 23.6593 75.9569 23.6194 75.9663 23.581C75.9756 23.5426 75.9929 23.5066 76.0168 23.4751C76.2247 23.2088 76.4949 22.9976 76.8035 22.8601C77.1541 22.7013 77.5296 22.6045 77.9134 22.5741C78.3356 22.5388 78.7607 22.5726 79.172 22.6742C79.616 22.7812 80.0341 22.9757 80.402 23.2463Z" fill="#FFC217"/>
<g opacity="0.6">
<path d="M76.4431 29.7368C76.4821 29.7639 76.5151 29.7987 76.5402 29.8391C76.5653 29.8794 76.5819 29.9244 76.5889 29.9714C76.598 30.0179 76.5974 30.0658 76.5871 30.1121C76.5767 30.1584 76.5569 30.202 76.5289 30.2403L75.8481 31.1986C75.821 31.2376 75.7862 31.2706 75.7458 31.2957C75.7055 31.3208 75.6605 31.3374 75.6135 31.3444C75.567 31.3535 75.519 31.3529 75.4728 31.3426C75.4265 31.3322 75.3829 31.3124 75.3446 31.2844L74.4064 30.6179C74.3673 30.5911 74.3343 30.5564 74.3097 30.5159C74.285 30.4755 74.2692 30.4303 74.2633 30.3833C74.2542 30.3368 74.2549 30.2888 74.2652 30.2426C74.2756 30.1963 74.2954 30.1527 74.3234 30.1144L75.0128 29.1561C75.0685 29.0785 75.1527 29.0259 75.2469 29.0098C75.3411 28.9938 75.4379 29.0155 75.5163 29.0703L76.4431 29.7368ZM80.402 23.2463C80.7441 23.4861 81.0487 23.7753 81.3059 24.1045C81.5568 24.4107 81.7506 24.7595 81.878 25.1342C81.9968 25.4934 82.0368 25.8739 81.9953 26.2499C81.9469 26.6508 81.7951 27.0323 81.5548 27.3569C81.3763 27.6193 81.1467 27.8431 80.8797 28.0148C80.6448 28.1621 80.3893 28.2739 80.1217 28.3466C79.861 28.4148 79.5949 28.4607 79.3265 28.4839L78.5656 28.5526C78.3374 28.5708 78.1114 28.6101 77.8905 28.6699C77.6867 28.7161 77.5002 28.8193 77.3527 28.9673C77.2861 29.035 77.2019 29.0826 77.1096 29.1047C77.0656 29.1172 77.0194 29.1191 76.9746 29.1102C76.9298 29.1012 76.8878 29.0817 76.8521 29.0532L76.0226 28.4639C75.9433 28.4073 75.889 28.3222 75.871 28.2265C75.8603 28.1801 75.8606 28.1318 75.8721 28.0856C75.8835 28.0394 75.9057 27.9965 75.9367 27.9604C76.1305 27.709 76.3727 27.4989 76.649 27.3426C76.8978 27.2067 77.1632 27.1038 77.4385 27.0365C77.7043 26.972 77.9751 26.9309 78.248 26.9135C78.5169 26.8963 78.7687 26.8763 79.0032 26.8534C79.2179 26.8345 79.4298 26.7923 79.6354 26.7276C79.8152 26.6677 79.9701 26.55 80.0759 26.3929C80.1715 26.2602 80.2337 26.1064 80.2571 25.9445C80.2805 25.7827 80.2645 25.6175 80.2104 25.4632C80.075 25.082 79.8163 24.7568 79.4752 24.5393C78.8573 24.0987 78.1832 24.0844 77.4528 24.4964C77.3793 24.5431 77.2979 24.5761 77.2125 24.5936C77.1681 24.5967 77.1235 24.591 77.0812 24.5767C77.039 24.5625 77 24.54 76.9665 24.5107L76.0855 23.8842C76.0536 23.863 76.0263 23.8356 76.0051 23.8037C75.984 23.7718 75.9695 23.7359 75.9625 23.6983C75.9556 23.6593 75.9569 23.6194 75.9663 23.581C75.9756 23.5426 75.9929 23.5066 76.0168 23.4751C76.2247 23.2088 76.4949 22.9976 76.8035 22.8601C77.1541 22.7013 77.5296 22.6045 77.9134 22.5741C78.3356 22.5388 78.7607 22.5726 79.172 22.6742C79.616 22.7812 80.0341 22.9757 80.402 23.2463Z" fill="white"/>
</g>
</svg>
