<svg width="163" height="180" viewBox="0 0 163 180" fill="none" xmlns="http://www.w3.org/2000/svg">
<path d="M162.473 22.3972C162.822 20.2854 162.536 18.1177 161.652 16.1685C160.768 14.2192 159.325 12.5761 157.507 11.447C155.689 10.3179 153.577 9.7536 151.437 9.82558C149.298 9.89756 147.229 10.6026 145.49 11.8513C143.752 13.1001 142.423 14.8365 141.672 16.8408C140.922 18.845 140.782 21.027 141.272 23.1106C141.762 25.1941 142.858 27.0856 144.424 28.5455C145.989 30.0053 147.952 30.9681 150.064 31.3117C151.465 31.5435 152.897 31.4966 154.279 31.1738C155.661 30.8509 156.966 30.2584 158.119 29.4302C159.272 28.6021 160.25 27.5545 160.997 26.3476C161.744 25.1408 162.246 23.7983 162.473 22.3972Z" fill="#FFC217"/>
<path d="M132.078 5.18281C132.221 4.31259 132.103 3.41934 131.739 2.61612C131.375 1.8129 130.78 1.13582 130.031 0.670571C129.282 0.205327 128.411 -0.0271632 127.53 0.00252705C126.648 0.0322173 125.796 0.322753 125.079 0.837362C124.363 1.35197 123.815 2.06752 123.506 2.89343C123.197 3.71935 123.139 4.6185 123.341 5.47709C123.543 6.33567 123.995 7.11509 124.64 7.71669C125.285 8.3183 126.094 8.71503 126.964 8.85669C127.541 8.95221 128.131 8.93289 128.701 8.79983C129.271 8.66677 129.808 8.42259 130.284 8.08128C130.759 7.73997 131.162 7.30825 131.47 6.81087C131.777 6.31349 131.984 5.76023 132.078 5.18281Z" fill="#FFC217"/>
<path opacity="0.1" d="M78.7929 180C93.7311 179.954 108.321 175.482 120.719 167.15C133.117 158.817 142.768 146.997 148.453 133.183C154.138 119.369 155.602 104.18 152.659 89.5341C149.717 74.8885 142.5 61.4433 131.921 50.8966C121.342 40.3499 107.875 33.1747 93.2201 30.2773C78.5656 27.3798 63.3811 28.89 49.5843 34.6172C35.7876 40.3444 23.9974 50.0316 15.7029 62.4555C7.40836 74.8793 2.98152 89.4825 2.98145 104.421C3.01259 124.496 11.0173 143.737 25.2346 157.911C39.4519 172.085 58.7174 180.03 78.7929 180Z" fill="#2626BC"/>
<path d="M131.416 131.911C141.9 121.395 149.033 108.007 151.914 93.4391C154.794 78.8712 153.293 63.7764 147.599 50.0613C141.906 36.3461 132.276 24.6256 119.926 16.3802C107.575 8.13475 93.0582 3.73413 78.2083 3.73413C63.3584 3.73413 48.8415 8.13475 36.4911 16.3802C24.1406 24.6256 14.5107 36.3461 8.81733 50.0613C3.12401 63.7764 1.62272 78.8712 4.50306 93.4391C7.38341 108.007 14.5162 121.395 25.0006 131.911C31.9615 138.946 40.2481 144.53 49.3811 148.341C58.514 152.152 68.312 154.114 78.2083 154.114C88.1045 154.114 97.9026 152.152 107.036 148.341C116.168 144.53 124.455 138.946 131.416 131.911Z" fill="#FFC217"/>
<path d="M40.1821 76.4277C40.2067 75.0606 40.5007 73.7117 41.0471 72.4583C41.5936 71.2049 42.3818 70.0716 43.3668 69.1231C44.3517 68.1747 45.514 67.4298 46.7872 66.931C48.0603 66.4323 49.4193 66.1895 50.7864 66.2165C52.1439 66.1921 53.4928 66.4381 54.7544 66.94C56.0159 67.4419 57.1651 68.1898 58.1349 69.1401C59.1046 70.0904 59.8757 71.2241 60.4031 72.4753C60.9305 73.7264 61.2038 75.07 61.207 76.4277V86.724C61.2633 91.197 63.0798 95.4676 66.2627 98.6107C69.4457 101.754 73.7388 103.516 78.2121 103.516C82.6854 103.516 86.9786 101.754 90.1615 98.6107C93.3445 95.4676 95.1609 91.197 95.2173 86.724V76.4277C95.2419 75.0606 95.5358 73.7117 96.0823 72.4583C96.6288 71.2049 97.417 70.0716 98.4019 69.1231C99.3869 68.1747 100.549 67.4298 101.822 66.931C103.095 66.4323 104.454 66.1895 105.822 66.2165C107.179 66.1921 108.528 66.4381 109.79 66.94C111.051 67.4419 112.2 68.1898 113.17 69.1401C114.14 70.0904 114.911 71.2241 115.438 72.4753C115.966 73.7264 116.239 75.07 116.242 76.4277V86.724C116.175 91.651 115.139 96.5165 113.191 101.043C111.243 105.569 108.423 109.667 104.892 113.103C101.36 116.539 97.1858 119.246 92.6078 121.068C88.0299 122.891 83.1377 123.793 78.2108 123.725C73.2841 123.793 68.3922 122.89 63.8146 121.067C59.2369 119.245 55.0632 116.538 51.5317 113.102C48.0003 109.666 45.1804 105.568 43.233 101.042C41.2856 96.516 40.2489 91.6507 40.1821 86.724V76.4277Z" fill="#176CF7"/>
<path d="M50.7688 61.4863C52.8549 61.4799 54.8922 60.8555 56.6236 59.6919C58.355 58.5283 59.7027 56.8777 60.4966 54.9486C61.2904 53.0195 61.4948 50.8984 61.0839 48.8532C60.673 46.808 59.6653 44.9305 58.188 43.4577C56.7106 41.9849 54.83 40.9829 52.7836 40.5783C50.7371 40.1736 48.6167 40.3845 46.69 41.1843C44.7634 41.9841 43.1169 43.3368 41.9586 45.0718C40.8003 46.8067 40.1821 48.846 40.1821 50.932C40.1843 52.3202 40.4598 53.6943 40.993 54.976C41.5261 56.2576 42.3065 57.4217 43.2896 58.4018C44.2727 59.3818 45.4392 60.1587 46.7224 60.6879C48.0057 61.2172 49.3807 61.4885 50.7688 61.4863Z" fill="#176CF7"/>
<path d="M105.654 61.4863C107.74 61.4799 109.777 60.8555 111.508 59.6919C113.24 58.5283 114.587 56.8777 115.381 54.9486C116.175 53.0195 116.38 50.8984 115.969 48.8532C115.558 46.808 114.55 44.9305 113.073 43.4577C111.595 41.9849 109.715 40.9829 107.668 40.5783C105.622 40.1736 103.501 40.3845 101.575 41.1843C99.6481 41.9841 98.0017 43.3368 96.8434 45.0718C95.6851 46.8067 95.0669 48.846 95.0669 50.932C95.069 52.3202 95.3445 53.6943 95.8777 54.976C96.4109 56.2576 97.1913 57.4217 98.1744 58.4018C99.1574 59.3818 100.324 60.1587 101.607 60.6879C102.89 61.2172 104.265 61.4885 105.654 61.4863Z" fill="#176CF7"/>
<path d="M40.1821 76.4277C40.2067 75.0606 40.5007 73.7117 41.0471 72.4583C41.5936 71.2049 42.3818 70.0716 43.3668 69.1231C44.3517 68.1747 45.514 67.4298 46.7872 66.931C48.0603 66.4323 49.4193 66.1895 50.7864 66.2165C52.1439 66.1921 53.4928 66.4381 54.7544 66.94C56.0159 67.4419 57.1651 68.1898 58.1349 69.1401C59.1046 70.0904 59.8757 71.2241 60.4031 72.4753C60.9305 73.7264 61.2038 75.07 61.207 76.4277V86.724C61.2633 91.197 63.0798 95.4676 66.2627 98.6107C69.4457 101.754 73.7388 103.516 78.2121 103.516C82.6854 103.516 86.9786 101.754 90.1615 98.6107C93.3445 95.4676 95.1609 91.197 95.2173 86.724V76.4277C95.2419 75.0606 95.5358 73.7117 96.0823 72.4583C96.6288 71.2049 97.417 70.0716 98.4019 69.1231C99.3869 68.1747 100.549 67.4298 101.822 66.931C103.095 66.4323 104.454 66.1895 105.822 66.2165C107.179 66.1921 108.528 66.4381 109.79 66.94C111.051 67.4419 112.2 68.1898 113.17 69.1401C114.14 70.0904 114.911 71.2241 115.438 72.4753C115.966 73.7264 116.239 75.07 116.242 76.4277V86.724C116.175 91.651 115.139 96.5165 113.191 101.043C111.243 105.569 108.423 109.667 104.892 113.103C101.36 116.539 97.1858 119.246 92.6078 121.068C88.0299 122.891 83.1377 123.793 78.2108 123.725C73.2841 123.793 68.3922 122.89 63.8146 121.067C59.2369 119.245 55.0632 116.538 51.5317 113.102C48.0003 109.666 45.1804 105.568 43.233 101.042C41.2856 96.516 40.2489 91.6507 40.1821 86.724V76.4277Z" fill="#307CFE"/>
<path d="M50.7688 61.4863C52.8549 61.4799 54.8922 60.8555 56.6236 59.6919C58.355 58.5283 59.7027 56.8777 60.4966 54.9486C61.2904 53.0195 61.4948 50.8984 61.0839 48.8532C60.673 46.808 59.6653 44.9305 58.188 43.4577C56.7106 41.9849 54.83 40.9829 52.7836 40.5783C50.7371 40.1736 48.6167 40.3845 46.69 41.1843C44.7634 41.9841 43.1169 43.3368 41.9586 45.0718C40.8003 46.8067 40.1821 48.846 40.1821 50.932C40.1843 52.3202 40.4598 53.6943 40.993 54.976C41.5261 56.2576 42.3065 57.4217 43.2896 58.4018C44.2727 59.3818 45.4392 60.1587 46.7224 60.6879C48.0057 61.2172 49.3807 61.4885 50.7688 61.4863Z" fill="#307CFE"/>
<path d="M105.654 61.4863C107.74 61.4799 109.777 60.8555 111.508 59.6919C113.24 58.5283 114.587 56.8777 115.381 54.9486C116.175 53.0195 116.38 50.8984 115.969 48.8532C115.558 46.808 114.55 44.9305 113.073 43.4577C111.595 41.9849 109.715 40.9829 107.668 40.5783C105.622 40.1736 103.501 40.3845 101.575 41.1843C99.6481 41.9841 98.0017 43.3368 96.8434 45.0718C95.6851 46.8067 95.0669 48.846 95.0669 50.932C95.069 52.3202 95.3445 53.6943 95.8777 54.976C96.4109 56.2576 97.1913 57.4217 98.1744 58.4018C99.1574 59.3818 100.324 60.1587 101.607 60.6879C102.89 61.2172 104.265 61.4885 105.654 61.4863Z" fill="#307CFE"/>
<path d="M78.2103 157.321C62.7038 157.272 47.5594 152.63 34.6897 143.98C21.82 135.33 11.8024 123.06 5.90186 108.72C0.00135188 94.3794 -1.51732 78.6124 1.53765 63.4097C4.59261 48.2071 12.0842 34.2506 23.0662 23.3031C34.0483 12.3556 48.0282 4.90791 63.2404 1.90078C78.4526 -1.10634 94.2148 0.461919 108.536 6.40751C122.858 12.3531 135.096 22.4093 143.706 35.3061C152.315 48.203 156.91 63.3619 156.91 78.8685C156.854 99.7011 148.537 119.661 133.783 134.369C119.029 149.076 99.043 157.331 78.2103 157.321ZM78.2103 7.29144C64.0629 7.33496 50.2456 11.5699 38.5035 19.4616C26.7615 27.3532 17.6214 38.5474 12.2376 51.6305C6.85374 64.7136 5.4677 79.0987 8.25449 92.9691C11.0413 106.839 17.8759 119.573 27.8952 129.561C37.9144 139.55 50.6689 146.345 64.5478 149.089C78.4267 151.833 92.8075 150.402 105.874 144.978C118.94 139.554 130.106 130.379 137.962 118.613C145.817 106.846 150.009 93.0161 150.009 78.8685C149.958 59.8622 142.37 41.6521 128.91 28.2332C115.45 14.8143 97.2167 7.28251 78.2103 7.29009V7.29144Z" fill="white"/>
<path d="M29.9487 159.276C30.2972 157.165 30.0114 154.997 29.1275 153.048C28.2435 151.099 26.8011 149.456 24.9829 148.326C23.1647 147.197 21.0524 146.633 18.9134 146.705C16.7743 146.777 14.7047 147.482 12.9664 148.73C11.2281 149.979 9.89939 151.715 9.14832 153.719C8.39726 155.724 8.25765 157.906 8.74717 159.989C9.23668 162.073 10.3333 163.964 11.8983 165.424C13.4632 166.884 15.4262 167.847 17.5386 168.191C18.939 168.423 20.3714 168.376 21.7536 168.053C23.1359 167.73 24.4408 167.137 25.5937 166.309C26.7465 165.481 27.7246 164.433 28.4719 163.227C29.2193 162.02 29.7211 160.677 29.9487 159.276Z" fill="#FFC217"/>
<path d="M48.2809 162.24C48.4244 161.369 48.3066 160.476 47.9423 159.673C47.578 158.87 46.9836 158.193 46.2343 157.727C45.485 157.262 44.6145 157.03 43.733 157.059C42.8515 157.089 41.9987 157.38 41.2824 157.894C40.5661 158.409 40.0186 159.124 39.7091 159.95C39.3997 160.776 39.3422 161.675 39.544 162.534C39.7458 163.392 40.1978 164.172 40.8427 164.773C41.4877 165.375 42.2966 165.772 43.1672 165.913C43.7443 166.009 44.3346 165.99 44.9042 165.857C45.4738 165.724 46.0116 165.479 46.4867 165.138C46.9617 164.797 47.3648 164.365 47.6727 163.868C47.9806 163.37 48.1872 162.817 48.2809 162.24Z" fill="#FFC217"/>
</svg>
