<svg width="120" height="21" viewBox="0 0 120 21" fill="none" xmlns="http://www.w3.org/2000/svg">
<path d="M41.3104 10.5C41.3104 12.5767 40.68 14.6068 39.499 16.3336C38.3181 18.0603 36.6395 19.4061 34.6756 20.2008C32.7117 20.9955 30.5508 21.2034 28.466 20.7982C26.3811 20.393 24.4661 19.3928 22.9631 17.9243C21.4601 16.4558 20.4366 14.5848 20.022 12.5479C19.6074 10.511 19.8204 8.39981 20.634 6.4812C21.4476 4.56259 22.8252 2.92278 24.5927 1.76913C26.3603 0.615484 28.4382 -0.000178314 30.5639 3.87397e-08C31.9753 3.87397e-08 33.3728 0.27159 34.6768 0.799265C35.9807 1.32694 37.1655 2.10036 38.1635 3.07538C39.1614 4.05039 39.9531 5.2079 40.4932 6.48182C41.0333 7.75574 41.3113 9.12112 41.3113 10.5" fill="#FFC217"/>
<path d="M1.51464 5.34739C1.76442 5.34424 2.01085 5.40368 2.23044 5.52002C2.45003 5.63636 2.63544 5.80573 2.76899 6.01198C3.82614 5.44833 5.04216 5.23562 6.23381 5.40591C7.42546 5.5762 8.52818 6.12026 9.3758 6.95611C10.1228 6.20557 11.0798 5.687 12.127 5.46535C13.1743 5.2437 14.2652 5.32881 15.2631 5.71002C16.2611 6.09123 17.1217 6.75161 17.7373 7.60846C18.3529 8.4653 18.6961 9.48054 18.7239 10.527V15.3749C18.7116 15.7565 18.5456 16.118 18.262 16.3808C17.9783 16.6435 17.6 16.7863 17.2093 16.778C17.0172 16.7817 16.8262 16.7483 16.6474 16.6797C16.4685 16.6111 16.3053 16.5087 16.167 16.3784C16.0288 16.248 15.9183 16.0922 15.8418 15.92C15.7653 15.7478 15.7244 15.5626 15.7214 15.3749V10.5279C15.7214 9.89872 15.4656 9.29526 15.0101 8.85033C14.5547 8.4054 13.9371 8.15544 13.293 8.15544C12.6489 8.15544 12.0313 8.4054 11.5759 8.85033C11.1204 9.29526 10.8646 9.89872 10.8646 10.5279V15.3749C10.8616 15.5626 10.8207 15.7478 10.7442 15.92C10.6677 16.0922 10.5572 16.248 10.419 16.3784C10.2807 16.5087 10.1175 16.6111 9.93864 16.6797C9.75978 16.7483 9.56883 16.7817 9.37673 16.778C8.98565 16.7867 8.60687 16.6442 8.32284 16.3814C8.03882 16.1186 7.87255 15.7568 7.86024 15.3749V10.5279C7.86024 9.89872 7.60439 9.29526 7.14898 8.85033C6.69356 8.4054 6.07589 8.15544 5.43184 8.15544C4.78778 8.15544 4.17011 8.4054 3.7147 8.85033C3.25928 9.29526 3.00343 9.89872 3.00343 10.5279V15.3749C3.00043 15.5626 2.95952 15.7478 2.88305 15.92C2.80658 16.0922 2.69605 16.248 2.55781 16.3784C2.41956 16.5087 2.25633 16.6111 2.07747 16.6797C1.89862 16.7483 1.70766 16.7817 1.51556 16.778C1.12464 16.7865 0.746097 16.6439 0.462274 16.3811C0.178451 16.1183 0.0123123 15.7567 0 15.3749V6.75231C0.0118358 6.37033 0.177638 6.00838 0.461312 5.74525C0.744987 5.48212 1.12357 5.33912 1.51464 5.34739Z" fill="#176CF7"/>
<path d="M42.4056 11.0634C42.4152 10.3027 42.5783 9.55135 42.8854 8.8523C43.1926 8.15325 43.6378 7.52023 44.1957 6.98947C44.7535 6.45871 45.413 6.04062 46.1364 5.75913C46.8598 5.47764 47.6329 5.33827 48.4115 5.349C49.5063 5.34919 50.5805 5.63999 51.5193 6.19034C51.6364 5.93012 51.8312 5.71055 52.0783 5.56042C52.3253 5.41028 52.6131 5.33659 52.9038 5.349C53.0959 5.34518 53.287 5.37849 53.466 5.44701C53.6449 5.51554 53.8083 5.61793 53.9466 5.74831C54.0849 5.87869 54.1955 6.03449 54.2721 6.20675C54.3486 6.37902 54.3895 6.56436 54.3925 6.75213V15.3747C54.3895 15.5624 54.3486 15.7478 54.2721 15.9201C54.1955 16.0923 54.0849 16.2481 53.9466 16.3785C53.8083 16.5089 53.6449 16.6113 53.466 16.6798C53.287 16.7483 53.0959 16.7816 52.9038 16.7778C52.6131 16.7902 52.3253 16.7165 52.0783 16.5664C51.8312 16.4163 51.6364 16.1967 51.5193 15.9365C50.5805 16.4869 49.5063 16.7777 48.4115 16.7778C47.6329 16.7885 46.8598 16.6492 46.1364 16.3677C45.413 16.0862 44.7535 15.6681 44.1957 15.1373C43.6378 14.6066 43.1926 13.9736 42.8854 13.2745C42.5783 12.5755 42.4152 11.8241 42.4056 11.0634ZM45.4081 11.0634C45.4008 11.6422 45.5696 12.2101 45.8932 12.6951C46.2168 13.18 46.6806 13.5601 47.2256 13.7871C47.7707 14.0141 48.3725 14.0778 48.9547 13.9701C49.5368 13.8625 50.0731 13.5882 50.4955 13.1823C50.9179 12.7763 51.2074 12.2569 51.3272 11.69C51.4469 11.1231 51.3916 10.5342 51.1682 9.99799C50.9449 9.46183 50.5635 9.00257 50.0725 8.67851C49.5816 8.35444 49.0031 8.18016 48.4106 8.1778C48.0194 8.17435 47.6314 8.24629 47.2687 8.38949C46.906 8.5327 46.5758 8.74436 46.2969 9.01238C46.0181 9.28039 45.796 9.5995 45.6435 9.95143C45.491 10.3034 45.411 10.6812 45.4081 11.0634Z" fill="#176CF7"/>
<path d="M56.429 11.5992V3.51138C56.4413 3.12971 56.6073 2.76822 56.891 2.50547C57.1746 2.24273 57.5529 2.09998 57.9437 2.10825C58.1358 2.10443 58.3269 2.13773 58.5059 2.20626C58.6848 2.27478 58.8482 2.37718 58.9865 2.50756C59.1248 2.63794 59.2355 2.79373 59.312 2.966C59.3885 3.13827 59.4294 3.32361 59.4324 3.51138V5.3239H61.3126C61.5072 5.31711 61.7013 5.3487 61.8832 5.41679C62.0651 5.48488 62.231 5.58808 62.3712 5.72021C62.5114 5.85235 62.6228 6.01072 62.699 6.18586C62.7751 6.36101 62.8144 6.54936 62.8144 6.73965C62.8144 6.92994 62.7751 7.11828 62.699 7.29343C62.6228 7.46858 62.5114 7.62695 62.3712 7.75908C62.231 7.89122 62.0651 7.99441 61.8832 8.0625C61.7013 8.13059 61.5072 8.16219 61.3126 8.1554H59.4324V11.6001C59.4373 12.2253 59.6957 12.8231 60.1508 13.2626C60.606 13.702 61.2209 13.9473 61.8609 13.9446H62.9832C63.1797 13.935 63.3761 13.9644 63.5605 14.0312C63.745 14.0979 63.9136 14.2007 64.0562 14.3331C64.1987 14.4655 64.3122 14.6248 64.3898 14.8014C64.4673 14.9781 64.5073 15.1682 64.5073 15.3604C64.5073 15.5526 64.4673 15.7427 64.3898 15.9193C64.3122 16.096 64.1987 16.2553 64.0562 16.3877C63.9136 16.5201 63.745 16.6229 63.5605 16.6896C63.3761 16.7564 63.1797 16.7858 62.9832 16.7761H61.8609C61.1562 16.7846 60.4567 16.6573 59.8024 16.4017C59.148 16.146 58.5517 15.7668 58.0473 15.2859C57.543 14.805 57.1406 14.2317 56.8631 13.5988C56.5856 12.966 56.4384 12.2859 56.4299 11.5974" fill="#176CF7"/>
<path d="M65.4625 15.3495V10.5269C65.4784 9.13386 66.059 7.80376 67.077 6.82824C68.0951 5.85272 69.4675 5.31139 70.8934 5.32293C71.6272 5.32034 72.354 5.46117 73.0312 5.73714C73.7083 6.01311 74.3221 6.41864 74.8365 6.92986C75.5851 6.17793 76.5445 5.65898 77.5942 5.43823C78.6438 5.21749 79.7368 5.30481 80.7357 5.68921C81.7347 6.07361 82.5951 6.73794 83.2088 7.5987C83.8224 8.45945 84.1619 9.47822 84.1846 10.5269V15.3486C84.1812 15.5396 84.1394 15.728 84.0614 15.9032C83.9835 16.0784 83.8709 16.2368 83.7303 16.3695C83.5896 16.5021 83.4236 16.6064 83.2416 16.6763C83.0597 16.7462 82.8654 16.7805 82.67 16.777C82.4758 16.7801 82.283 16.7455 82.1027 16.6751C81.9223 16.6048 81.7582 16.5001 81.6196 16.3672C81.4811 16.2343 81.371 16.0758 81.2957 15.9009C81.2204 15.726 81.1815 15.5383 81.1812 15.3486V10.5269C81.1812 9.89772 80.9253 9.29426 80.4699 8.84933C80.0145 8.40439 79.3968 8.15444 78.7528 8.15444C78.1087 8.15444 77.491 8.40439 77.0356 8.84933C76.5802 9.29426 76.3244 9.89772 76.3244 10.5269V15.3486C76.324 15.5383 76.2851 15.726 76.2098 15.9009C76.1345 16.0758 76.0244 16.2343 75.8859 16.3672C75.7474 16.5001 75.5832 16.6048 75.4029 16.6751C75.2225 16.7455 75.0297 16.7801 74.8356 16.777C74.6401 16.7805 74.4458 16.7462 74.2639 16.6763C74.082 16.6064 73.9159 16.5021 73.7752 16.3695C73.6346 16.2368 73.5221 16.0784 73.4441 15.9032C73.3661 15.728 73.3243 15.5396 73.3209 15.3486V10.5269C73.3209 9.89772 73.0651 9.29426 72.6097 8.84933C72.1543 8.40439 71.5366 8.15444 70.8925 8.15444C70.2485 8.15444 69.6308 8.40439 69.1754 8.84933C68.72 9.29426 68.4641 9.89772 68.4641 10.5269V15.3486C68.4638 15.5383 68.4248 15.726 68.3496 15.9009C68.2743 16.0758 68.1642 16.2343 68.0256 16.3672C67.8871 16.5001 67.7229 16.6048 67.5426 16.6751C67.3623 16.7455 67.1695 16.7801 66.9753 16.777C66.7798 16.7805 66.5856 16.7462 66.4037 16.6763C66.2217 16.6064 66.0557 16.5021 65.915 16.3695C65.7743 16.2368 65.6618 16.0784 65.5839 15.9032C65.5059 15.728 65.4641 15.5396 65.4607 15.3486" fill="#176CF7"/>
<path d="M85.9379 6.75161C85.9412 6.56063 85.9831 6.37217 86.061 6.19701C86.139 6.02184 86.2515 5.8634 86.3922 5.73075C86.5328 5.5981 86.6989 5.49383 86.8808 5.4239C87.0628 5.35398 87.257 5.31977 87.4525 5.32324C87.6466 5.32013 87.8395 5.35476 88.0198 5.42512C88.2001 5.49547 88.3643 5.60015 88.5028 5.73306C88.6414 5.86597 88.7515 6.02447 88.8267 6.19932C88.902 6.37418 88.941 6.56192 88.9413 6.75161V11.5985C88.9413 12.2278 89.1971 12.8312 89.6526 13.2761C90.108 13.7211 90.7257 13.971 91.3697 13.971C92.0138 13.971 92.6314 13.7211 93.0868 13.2761C93.5423 12.8312 93.7981 12.2278 93.7981 11.5985V6.75161C93.8015 6.56063 93.8433 6.37217 93.9213 6.19701C93.9992 6.02184 94.1118 5.8634 94.2524 5.73075C94.3931 5.5981 94.5591 5.49383 94.7411 5.4239C94.923 5.35398 95.1173 5.31977 95.3127 5.32324C95.5069 5.32013 95.6997 5.35476 95.88 5.42512C96.0603 5.49547 96.2245 5.60015 96.3631 5.73306C96.5016 5.86597 96.6117 6.02447 96.687 6.19932C96.7622 6.37418 96.8012 6.56192 96.8015 6.75161V11.5985C96.7695 12.9851 96.1832 14.3044 95.1681 15.274C94.153 16.2435 92.7898 16.7864 91.3702 16.7864C89.9505 16.7864 88.5873 16.2435 87.5722 15.274C86.5571 14.3044 85.9708 12.9851 85.9388 11.5985L85.9379 6.75161Z" fill="#176CF7"/>
<path d="M98.1839 11.0636C98.2176 9.53266 98.8637 8.07551 99.9839 7.00441C101.104 5.93331 102.609 5.3335 104.176 5.3335C105.744 5.3335 107.249 5.93331 108.369 7.00441C109.489 8.07551 110.135 9.53266 110.169 11.0636V15.3496C110.169 15.5393 110.13 15.7271 110.054 15.9019C109.979 16.0768 109.869 16.2353 109.731 16.3682C109.592 16.5011 109.428 16.6058 109.247 16.6761C109.067 16.7465 108.874 16.7811 108.68 16.778C108.39 16.785 108.105 16.709 107.859 16.5593C107.613 16.4097 107.417 16.1929 107.296 15.9358C106.356 16.4834 105.282 16.7742 104.188 16.778C102.617 16.7954 101.103 16.2038 99.9769 15.1327C98.8513 14.0617 98.2059 12.5985 98.182 11.0636H98.1839ZM104.188 13.9492C104.773 13.9417 105.342 13.7653 105.825 13.4422C106.307 13.1191 106.681 12.6637 106.899 12.1335C107.117 11.6032 107.17 11.0217 107.05 10.4623C106.931 9.90287 106.645 9.39051 106.228 8.98975C105.811 8.58899 105.282 8.31774 104.707 8.21017C104.133 8.10261 103.538 8.16353 102.999 8.38527C102.46 8.60701 102 8.97966 101.677 9.45627C101.355 9.93288 101.184 10.4921 101.185 11.0636C101.194 11.8346 101.515 12.5708 102.078 13.1115C102.64 13.6521 103.399 13.9533 104.188 13.9492Z" fill="#176CF7"/>
<path d="M111.921 11.5992V3.51138C111.933 3.12971 112.099 2.76822 112.383 2.50547C112.666 2.24273 113.045 2.09998 113.435 2.10825C113.628 2.10443 113.819 2.13773 113.998 2.20626C114.177 2.27478 114.34 2.37718 114.478 2.50756C114.617 2.63794 114.727 2.79373 114.804 2.966C114.88 3.13827 114.921 3.32361 114.924 3.51138V5.3239H116.804C116.999 5.31711 117.193 5.3487 117.375 5.41679C117.557 5.48488 117.723 5.58808 117.863 5.72021C118.003 5.85235 118.115 6.01071 118.191 6.18586C118.267 6.36101 118.306 6.54936 118.306 6.73965C118.306 6.92994 118.267 7.11828 118.191 7.29343C118.115 7.46858 118.003 7.62695 117.863 7.75908C117.723 7.89122 117.557 7.99441 117.375 8.0625C117.193 8.13059 116.999 8.16219 116.804 8.1554H114.924V11.6001C114.929 12.2253 115.187 12.8231 115.643 13.2625C116.098 13.702 116.713 13.9473 117.353 13.9446H118.476C118.672 13.935 118.869 13.9644 119.053 14.0312C119.238 14.0979 119.406 14.2007 119.549 14.3331C119.691 14.4655 119.805 14.6248 119.882 14.8014C119.96 14.9781 120 15.1682 120 15.3604C120 15.5526 119.96 15.7427 119.882 15.9193C119.805 16.0959 119.691 16.2553 119.549 16.3877C119.406 16.5201 119.238 16.6229 119.053 16.6896C118.869 16.7564 118.672 16.7858 118.476 16.7761H117.353C116.648 16.7846 115.948 16.6573 115.294 16.4016C114.64 16.146 114.043 15.7668 113.539 15.2859C113.035 14.805 112.632 14.2317 112.355 13.5988C112.077 12.9659 111.93 12.2859 111.922 11.5974" fill="#176CF7"/>
<path d="M61.0004 5.34912H52.8236V8.13824H61.0004V5.34912Z" fill="#176CF7"/>
<path d="M25.13 10.1574C25.1334 9.9664 25.1752 9.77794 25.2532 9.60277C25.3311 9.4276 25.4437 9.26917 25.5843 9.13651C25.725 9.00386 25.891 8.89959 26.073 8.82966C26.2549 8.75974 26.4492 8.72553 26.6446 8.729C26.8388 8.72589 27.0316 8.76052 27.2119 8.83088C27.3922 8.90123 27.5564 9.00591 27.695 9.13882C27.8335 9.27173 27.9436 9.43023 28.0189 9.60509C28.0942 9.77994 28.1331 9.96768 28.1334 10.1574V11.6002C28.1334 12.2294 28.3893 12.8329 28.8447 13.2778C29.3001 13.7227 29.9178 13.9727 30.5618 13.9727C31.2059 13.9727 31.8236 13.7227 32.279 13.2778C32.7344 12.8329 32.9902 12.2294 32.9902 11.6002V10.1574C32.9936 9.9664 33.0355 9.77794 33.1134 9.60277C33.1914 9.4276 33.3039 9.26917 33.4446 9.13651C33.5852 9.00386 33.7513 8.89959 33.9332 8.82966C34.1151 8.75974 34.3094 8.72553 34.5049 8.729C34.6989 8.72601 34.8917 8.76073 35.0719 8.83114C35.2521 8.90155 35.4162 9.00625 35.5546 9.13915C35.693 9.27205 35.8031 9.4305 35.8783 9.6053C35.9535 9.7801 35.9924 9.96776 35.9928 10.1574V11.6002C35.9607 12.9868 35.3744 14.306 34.3593 15.2756C33.3442 16.2452 31.981 16.7881 30.5614 16.7881C29.1418 16.7881 27.7785 16.2452 26.7634 15.2756C25.7484 14.306 25.1621 12.9868 25.13 11.6002V10.1574Z" fill="#176CF7"/>
<path d="M28.1574 6.59003C28.1574 6.88235 28.0687 7.1681 27.9025 7.41115C27.7362 7.6542 27.5 7.84363 27.2235 7.9555C26.9471 8.06736 26.6429 8.09663 26.3495 8.0396C26.056 7.98258 25.7865 7.84181 25.5749 7.63512C25.3634 7.42842 25.2193 7.16507 25.1609 6.87837C25.1025 6.59167 25.1325 6.2945 25.247 6.02444C25.3615 5.75437 25.5554 5.52355 25.8042 5.36114C26.0529 5.19874 26.3454 5.11206 26.6446 5.11206C27.0458 5.11206 27.4306 5.26778 27.7143 5.54495C27.998 5.82212 28.1574 6.19805 28.1574 6.59003Z" fill="#176CF7"/>
<path d="M35.9957 6.59003C35.9957 6.88235 35.907 7.1681 35.7408 7.41115C35.5745 7.6542 35.3383 7.84363 35.0618 7.9555C34.7854 8.06736 34.4812 8.09663 34.1878 8.0396C33.8943 7.98258 33.6248 7.84181 33.4132 7.63512C33.2016 7.42842 33.0576 7.16507 32.9992 6.87837C32.9408 6.59167 32.9708 6.2945 33.0853 6.02444C33.1998 5.75437 33.3937 5.52355 33.6425 5.36114C33.8912 5.19874 34.1837 5.11206 34.4829 5.11206C34.8841 5.11206 35.2689 5.26778 35.5526 5.54495C35.8363 5.82212 35.9957 6.19805 35.9957 6.59003Z" fill="#176CF7"/>
<path d="M25.13 10.1574C25.1334 9.9664 25.1752 9.77794 25.2532 9.60277C25.3311 9.4276 25.4437 9.26917 25.5843 9.13651C25.725 9.00386 25.891 8.89959 26.073 8.82966C26.2549 8.75974 26.4492 8.72553 26.6446 8.729C26.8388 8.72589 27.0316 8.76052 27.2119 8.83088C27.3922 8.90123 27.5564 9.00591 27.695 9.13882C27.8335 9.27173 27.9436 9.43023 28.0189 9.60509C28.0942 9.77994 28.1331 9.96768 28.1334 10.1574V11.6002C28.1334 12.2294 28.3893 12.8329 28.8447 13.2778C29.3001 13.7227 29.9178 13.9727 30.5618 13.9727C31.2059 13.9727 31.8236 13.7227 32.279 13.2778C32.7344 12.8329 32.9902 12.2294 32.9902 11.6002V10.1574C32.9936 9.9664 33.0355 9.77794 33.1134 9.60277C33.1914 9.4276 33.3039 9.26917 33.4446 9.13651C33.5852 9.00386 33.7513 8.89959 33.9332 8.82966C34.1151 8.75974 34.3094 8.72553 34.5049 8.729C34.6989 8.72601 34.8917 8.76073 35.0719 8.83114C35.2521 8.90155 35.4162 9.00625 35.5546 9.13915C35.693 9.27205 35.8031 9.4305 35.8783 9.6053C35.9535 9.7801 35.9924 9.96776 35.9928 10.1574V11.6002C35.9607 12.9868 35.3744 14.306 34.3593 15.2756C33.3442 16.2452 31.981 16.7881 30.5614 16.7881C29.1418 16.7881 27.7785 16.2452 26.7634 15.2756C25.7484 14.306 25.1621 12.9868 25.13 11.6002V10.1574Z" fill="#176CF7"/>
<path d="M28.1574 6.59003C28.1574 6.88235 28.0687 7.1681 27.9025 7.41115C27.7362 7.6542 27.5 7.84363 27.2235 7.9555C26.9471 8.06736 26.6429 8.09663 26.3495 8.0396C26.056 7.98258 25.7865 7.84181 25.5749 7.63512C25.3634 7.42842 25.2193 7.16507 25.1609 6.87837C25.1025 6.59167 25.1325 6.2945 25.247 6.02444C25.3615 5.75437 25.5554 5.52355 25.8042 5.36114C26.0529 5.19874 26.3454 5.11206 26.6446 5.11206C27.0458 5.11206 27.4306 5.26778 27.7143 5.54495C27.998 5.82212 28.1574 6.19805 28.1574 6.59003Z" fill="#176CF7"/>
<path d="M35.9957 6.59003C35.9957 6.88235 35.907 7.1681 35.7408 7.41115C35.5745 7.6542 35.3383 7.84363 35.0618 7.9555C34.7854 8.06736 34.4812 8.09663 34.1878 8.0396C33.8943 7.98258 33.6248 7.84181 33.4132 7.63512C33.2016 7.42842 33.0576 7.16507 32.9992 6.87837C32.9408 6.59167 32.9708 6.2945 33.0853 6.02444C33.1998 5.75437 33.3937 5.52355 33.6425 5.36114C33.8912 5.19874 34.1837 5.11206 34.4829 5.11206C34.8841 5.11206 35.2689 5.26778 35.5526 5.54495C35.8363 5.82212 35.9957 6.19805 35.9957 6.59003Z" fill="#176CF7"/>
</svg>
