<svg width="84" height="76" viewBox="0 0 84 76" fill="none" xmlns="http://www.w3.org/2000/svg">
<path d="M21.7899 42.5798C33.2718 42.5798 42.5798 33.2718 42.5798 21.7899C42.5798 10.308 33.2718 1 21.7899 1C10.308 1 1 10.308 1 21.7899C1 33.2718 10.308 42.5798 21.7899 42.5798Z" fill="#FFC217"/>
<path d="M21.7889 42.3698C33.1548 42.3698 42.3688 33.1559 42.3688 21.7899C42.3688 10.424 33.1548 1.21002 21.7889 1.21002C10.4229 1.21002 1.20898 10.424 1.20898 21.7899C1.20898 33.1559 10.4229 42.3698 21.7889 42.3698Z" stroke="#FFC217"/>
<path d="M58.7449 46.6234H3.51655L2.49109 48.1616L18.752 68.3046H73.3943L75.1523 67.4988L58.7449 46.6234Z" fill="#FFC217" stroke="#FFC217"/>
<path d="M58.8909 56.7316H43.7287H42.7032L47.3178 63.6168L63.5787 62.5913L58.8909 56.7316Z" fill="white" stroke="white"/>
<path fill-rule="evenodd" clip-rule="evenodd" d="M23.6108 10.4853C23.3405 10.7732 23.2923 10.9959 23.2923 11.957C23.2923 12.9775 23.3295 13.1268 23.6682 13.4655C23.9714 13.7687 24.1343 13.8241 24.5105 13.7514C25.0553 13.6463 25.4897 13.1842 25.4897 12.7102C25.4897 12.4452 25.5946 12.3567 25.9982 12.2809C26.9281 12.1065 27.2472 11.1581 26.595 10.506C26.2742 10.185 26.1113 10.1464 25.0824 10.1464C24.0665 10.1464 23.8914 10.1866 23.6108 10.4853ZM29.445 10.4394C29.0088 10.8756 29.0543 11.6596 29.5381 12.0401C29.8795 12.3088 30.1255 12.3438 31.6688 12.3438C33.3261 12.3438 33.4317 12.3258 33.7732 11.9841C34.2347 11.5228 34.2433 10.8872 33.7939 10.4648C33.4824 10.1724 33.3028 10.1464 31.5965 10.1464C29.9333 10.1464 29.7073 10.1771 29.445 10.4394ZM36.6487 10.4853C36.2263 10.9352 36.2428 11.537 36.6899 11.9841C37.0317 12.3261 37.1363 12.3438 38.8059 12.3438C40.421 12.3438 40.5918 12.3173 40.9292 12.0142C41.459 11.5381 41.4942 10.9155 41.0181 10.4394C40.7556 10.1768 40.5298 10.1464 38.8462 10.1464C37.0717 10.1464 36.9496 10.1653 36.6487 10.4853ZM43.8681 10.506C43.4367 10.9373 43.4077 11.4544 43.7886 11.9247C44.0578 12.2573 44.1441 12.2705 46.054 12.2705C48.2442 12.2705 48.4056 12.2124 48.5756 11.3627C48.6509 10.9867 48.597 10.8267 48.2926 10.5223C47.9288 10.1585 47.857 10.1464 46.0721 10.1464C44.3091 10.1464 44.2118 10.1622 43.8681 10.506ZM51.1262 10.4394C50.6501 10.9155 50.6852 11.5381 51.2151 12.0142C51.5525 12.3173 51.7233 12.3438 53.3384 12.3438C55.008 12.3438 55.1126 12.3261 55.4544 11.9841C55.9158 11.5228 55.9245 10.8872 55.475 10.4648C55.1636 10.1724 54.984 10.1464 53.2776 10.1464C51.6145 10.1464 51.3884 10.1771 51.1262 10.4394ZM58.3299 10.4853C57.9074 10.9352 57.924 11.537 58.3711 11.9841C58.7125 12.3258 58.8182 12.3438 60.4755 12.3438C62.0188 12.3438 62.2647 12.3088 62.6062 12.0401C63.0899 11.6596 63.1355 10.8756 62.6992 10.4394C62.4367 10.1768 62.211 10.1464 60.5273 10.1464C58.7528 10.1464 58.6308 10.1653 58.3299 10.4853ZM65.5493 10.506C64.8971 11.1581 65.2162 12.1065 66.1461 12.2809C66.5497 12.3567 66.6546 12.4452 66.6546 12.7102C66.6546 13.1842 67.0889 13.6463 67.6338 13.7514C68.01 13.8241 68.1729 13.7687 68.4761 13.4655C68.816 13.1256 68.852 12.9791 68.852 11.9365C68.852 10.9206 68.8117 10.7455 68.513 10.4648C68.2252 10.1946 68.0025 10.1464 67.0413 10.1464C66.0342 10.1464 65.8689 10.1862 65.5493 10.506ZM13.2303 10.8766C12.459 11.1951 12.4149 11.9935 13.1251 12.7796L13.6519 13.3628L13.1251 13.9784C12.5232 14.6815 12.4527 15.2088 12.8969 15.6855C13.3642 16.1871 14.0886 16.1147 14.771 15.4981L15.3334 14.9902L15.8256 15.4981C17.1215 16.8351 18.6242 15.3752 17.3757 13.9923L16.8793 13.4425L17.3825 12.8608C18.0093 12.1363 18.0189 11.4379 17.4086 10.9842C16.9182 10.6195 16.4519 10.7199 15.7431 11.342L15.2204 11.801L14.7517 11.3501C14.2244 10.8429 13.7044 10.6811 13.2303 10.8766ZM39.5432 15.7181C38.1743 15.9424 36.7463 16.974 36.1151 18.1948L35.8833 18.643H30.6864H25.4897V17.5377C25.4897 16.5594 25.4484 16.391 25.13 16.0728C24.6718 15.6144 24.1102 15.6144 23.6519 16.0728C23.3343 16.3902 23.2923 16.56 23.2923 17.5266V18.6209L21.2666 18.6685C19.3407 18.7139 19.2109 18.7362 18.6326 19.1193C17.5191 19.857 17.4325 20.2063 17.4325 23.963V27.2437L16.4271 27.3279C13.8453 27.5445 12.0122 29.5038 12.0122 32.0473C12.0122 34.5922 13.8818 36.5868 16.4437 36.7751L17.4325 36.8477V37.9267C17.4325 38.8105 17.4855 39.0588 17.7255 39.2987C17.8866 39.4599 18.1174 39.5917 18.2382 39.5917C18.4203 39.5917 18.458 39.8689 18.458 41.2077C18.458 42.6145 18.4247 42.8355 18.2016 42.9146C17.5717 43.1381 17.4325 43.4157 17.4325 44.4487V45.4515L10.8769 45.4524C6.59368 45.4528 4.11808 45.5086 3.73529 45.6132C2.04679 46.0744 1.12285 47.959 1.87276 49.4125C2.01662 49.6913 5.58771 54.1634 9.80836 59.3501C16.2493 67.2655 17.5784 68.8244 18.08 69.0522C18.6493 69.3107 19.3901 69.3238 33.6405 69.3268C47.6783 69.3299 48.6225 69.3142 48.9121 69.0737C49.0819 68.9328 49.2615 68.6074 49.311 68.3509C49.3836 67.9747 49.3283 67.8118 49.025 67.5085L48.6491 67.1326H33.8753H19.1014L18.6551 66.6565C18.3353 66.3154 5.2893 50.2997 3.92353 48.5715C3.84692 48.4747 3.82714 48.2604 3.87958 48.0954L3.97481 47.7954H30.6936H57.4123L65.2466 57.4274L73.0809 67.0594L63.133 67.1326C53.1922 67.2059 53.1849 67.2062 52.8698 67.5213C52.46 67.9312 52.4688 68.5217 52.8913 68.9714L53.2282 69.3301H64.6186H76.009L76.3125 68.944L76.6162 68.558V47.5289V26.4997L76.3021 25.8508C76.0934 25.4196 75.7645 25.0602 75.3212 24.7792L74.6544 24.3563H71.811C68.9918 24.3563 68.9638 24.3532 68.5323 23.9901C67.9802 23.5255 67.4729 23.5247 67.01 23.9876L66.6464 24.3512L63.0277 24.3904L59.409 24.4296L59.1131 24.8999L58.8171 25.3705L57.2423 25.3761C55.9377 25.3807 55.6675 25.3441 55.6675 25.162C55.6675 25.0412 55.5357 24.8104 55.3745 24.6493C55.0965 24.3713 54.8863 24.3563 51.2538 24.3563H47.426L46.1442 23.1019L44.8622 21.8474L45.0017 21.2341C45.3249 19.8137 44.6053 17.7576 43.4607 16.8309C42.4722 16.0302 42.1383 15.8971 40.5054 15.6524C40.3442 15.6282 39.9112 15.6578 39.5432 15.7181ZM66.9583 16.5386C66.6886 16.8813 66.6546 17.1255 66.6546 18.7163C66.6546 20.3071 66.6886 20.5513 66.9583 20.8939C67.3551 21.3984 68.0832 21.4201 68.5335 20.9409C68.8268 20.6286 68.852 20.4511 68.852 18.6958C68.852 16.8927 68.8337 16.7724 68.513 16.4711C68.0332 16.0205 67.3422 16.0504 66.9583 16.5386ZM41.4475 18.125C42.4659 18.6517 43.0599 19.9326 42.7754 20.9888C42.5859 21.693 41.9186 22.4932 41.3111 22.7449C40.6706 23.0102 39.404 22.8672 38.8406 22.4661C38.2404 22.0388 37.7952 21.1591 37.7952 20.401C37.7952 19.3989 38.4991 18.3572 39.4067 18.0163C39.8447 17.8517 41.0423 17.9155 41.4475 18.125ZM17.3181 29.6366C19.2643 30.1771 19.8434 32.6401 18.3248 33.918C17.6827 34.4583 16.8555 34.6641 16.1206 34.4662C13.6868 33.8108 13.5472 30.5423 15.917 29.6973C16.6088 29.4506 16.6433 29.4492 17.3181 29.6366ZM47.8758 41.0108C48.8743 41.6281 49.4083 42.4674 49.486 43.5413C49.5208 44.0224 49.5055 44.649 49.4521 44.9338L49.3549 45.4515H46.0777H42.8003L42.6431 44.719C42.3609 43.4025 42.9717 41.8041 44.0196 41.1175C45.1973 40.3459 46.7315 40.3034 47.8758 41.0108ZM43.1068 55.5164C42.2524 55.681 41.5285 57.0522 41.8509 57.8949C42.1205 58.5991 46.1584 63.7473 46.7104 64.0907L47.2441 64.4225L55.1113 64.464C63.8183 64.5098 63.741 64.5173 64.3069 63.5889C64.6798 62.9773 64.6845 62.2131 64.3192 61.6139C63.9128 60.9474 60.4211 56.397 60.0774 56.0859C59.3721 55.4475 59.0608 55.4253 51.0529 55.4395C46.8632 55.4469 43.2874 55.4815 43.1068 55.5164ZM60.3073 59.9399L61.9441 62.1066L59.4283 62.2019C58.0448 62.2545 54.9223 62.2976 52.4895 62.2979C47.2867 62.2985 48.0734 62.6073 45.8672 59.6981L44.3951 57.757L51.5329 57.7651L58.6707 57.7731L60.3073 59.9399ZM33.4048 58.6704C33.2058 58.7747 32.9468 59.0312 32.8293 59.2406C32.5564 59.7268 32.8077 60.4235 33.344 60.6679C33.8246 60.8869 36.6956 60.8832 37.109 60.663C37.8633 60.2612 37.9912 59.6128 37.442 58.9738C37.0983 58.5739 37.0437 58.5616 35.4277 58.5217C34.2814 58.4934 33.6545 58.5396 33.4048 58.6704ZM31.9354 62.3376C31.3814 62.6237 31.1394 63.2246 31.378 63.7224C31.7229 64.4414 32.0134 64.4912 35.8654 64.4935L39.4292 64.4957L39.8574 64.0675C40.3781 63.5468 40.3974 63.1773 39.9323 62.6362L39.5789 62.2251L35.9403 62.1867C33.1922 62.1578 32.212 62.1948 31.9354 62.3376Z" fill="#176CF7"/>
<mask id="path-6-inside-1_631_70915" fill="white">
<path fill-rule="evenodd" clip-rule="evenodd" d="M23.6108 10.4853C23.3405 10.7732 23.2923 10.9959 23.2923 11.957C23.2923 12.9775 23.3295 13.1268 23.6682 13.4655C23.9714 13.7687 24.1343 13.8241 24.5105 13.7514C25.0553 13.6463 25.4897 13.1842 25.4897 12.7102C25.4897 12.4452 25.5946 12.3567 25.9982 12.2809C26.9281 12.1065 27.2472 11.1581 26.595 10.506C26.2742 10.185 26.1113 10.1464 25.0824 10.1464C24.0665 10.1464 23.8914 10.1866 23.6108 10.4853ZM29.445 10.4394C29.0088 10.8756 29.0543 11.6596 29.5381 12.0401C29.8795 12.3088 30.1255 12.3438 31.6688 12.3438C33.3261 12.3438 33.4317 12.3258 33.7732 11.9841C34.2347 11.5228 34.2433 10.8872 33.7939 10.4648C33.4824 10.1724 33.3028 10.1464 31.5965 10.1464C29.9333 10.1464 29.7073 10.1771 29.445 10.4394ZM36.6487 10.4853C36.2263 10.9352 36.2428 11.537 36.6899 11.9841C37.0317 12.3261 37.1363 12.3438 38.8059 12.3438C40.421 12.3438 40.5918 12.3173 40.9292 12.0142C41.459 11.5381 41.4942 10.9155 41.0181 10.4394C40.7556 10.1768 40.5298 10.1464 38.8462 10.1464C37.0717 10.1464 36.9496 10.1653 36.6487 10.4853ZM43.8681 10.506C43.4367 10.9373 43.4077 11.4544 43.7886 11.9247C44.0578 12.2573 44.1441 12.2705 46.054 12.2705C48.2442 12.2705 48.4056 12.2124 48.5756 11.3627C48.6509 10.9867 48.597 10.8267 48.2926 10.5223C47.9288 10.1585 47.857 10.1464 46.0721 10.1464C44.3091 10.1464 44.2118 10.1622 43.8681 10.506ZM51.1262 10.4394C50.6501 10.9155 50.6852 11.5381 51.2151 12.0142C51.5525 12.3173 51.7233 12.3438 53.3384 12.3438C55.008 12.3438 55.1126 12.3261 55.4544 11.9841C55.9158 11.5228 55.9245 10.8872 55.475 10.4648C55.1636 10.1724 54.984 10.1464 53.2776 10.1464C51.6145 10.1464 51.3884 10.1771 51.1262 10.4394ZM58.3299 10.4853C57.9074 10.9352 57.924 11.537 58.3711 11.9841C58.7125 12.3258 58.8182 12.3438 60.4755 12.3438C62.0188 12.3438 62.2647 12.3088 62.6062 12.0401C63.0899 11.6596 63.1355 10.8756 62.6992 10.4394C62.4367 10.1768 62.211 10.1464 60.5273 10.1464C58.7528 10.1464 58.6308 10.1653 58.3299 10.4853ZM65.5493 10.506C64.8971 11.1581 65.2162 12.1065 66.1461 12.2809C66.5497 12.3567 66.6546 12.4452 66.6546 12.7102C66.6546 13.1842 67.0889 13.6463 67.6338 13.7514C68.01 13.8241 68.1729 13.7687 68.4761 13.4655C68.816 13.1256 68.852 12.9791 68.852 11.9365C68.852 10.9206 68.8117 10.7455 68.513 10.4648C68.2252 10.1946 68.0025 10.1464 67.0413 10.1464C66.0342 10.1464 65.8689 10.1862 65.5493 10.506ZM13.2303 10.8766C12.459 11.1951 12.4149 11.9935 13.1251 12.7796L13.6519 13.3628L13.1251 13.9784C12.5232 14.6815 12.4527 15.2088 12.8969 15.6855C13.3642 16.1871 14.0886 16.1147 14.771 15.4981L15.3334 14.9902L15.8256 15.4981C17.1215 16.8351 18.6242 15.3752 17.3757 13.9923L16.8793 13.4425L17.3825 12.8608C18.0093 12.1363 18.0189 11.4379 17.4086 10.9842C16.9182 10.6195 16.4519 10.7199 15.7431 11.342L15.2204 11.801L14.7517 11.3501C14.2244 10.8429 13.7044 10.6811 13.2303 10.8766ZM39.5432 15.7181C38.1743 15.9424 36.7463 16.974 36.1151 18.1948L35.8833 18.643H30.6864H25.4897V17.5377C25.4897 16.5594 25.4484 16.391 25.13 16.0728C24.6718 15.6144 24.1102 15.6144 23.6519 16.0728C23.3343 16.3902 23.2923 16.56 23.2923 17.5266V18.6209L21.2666 18.6685C19.3407 18.7139 19.2109 18.7362 18.6326 19.1193C17.5191 19.857 17.4325 20.2063 17.4325 23.963V27.2437L16.4271 27.3279C13.8453 27.5445 12.0122 29.5038 12.0122 32.0473C12.0122 34.5922 13.8818 36.5868 16.4437 36.7751L17.4325 36.8477V37.9267C17.4325 38.8105 17.4855 39.0588 17.7255 39.2987C17.8866 39.4599 18.1174 39.5917 18.2382 39.5917C18.4203 39.5917 18.458 39.8689 18.458 41.2077C18.458 42.6145 18.4247 42.8355 18.2016 42.9146C17.5717 43.1381 17.4325 43.4157 17.4325 44.4487V45.4515L10.8769 45.4524C6.59368 45.4528 4.11808 45.5086 3.73529 45.6132C2.04679 46.0744 1.12285 47.959 1.87276 49.4125C2.01662 49.6913 5.58771 54.1634 9.80836 59.3501C16.2493 67.2655 17.5784 68.8244 18.08 69.0522C18.6493 69.3107 19.3901 69.3238 33.6405 69.3268C47.6783 69.3299 48.6225 69.3142 48.9121 69.0737C49.0819 68.9328 49.2615 68.6074 49.311 68.3509C49.3836 67.9747 49.3283 67.8118 49.025 67.5086L48.6491 67.1326H33.8753H19.1014L18.6551 66.6565C18.3353 66.3154 5.2893 50.2997 3.92353 48.5715C3.84692 48.4747 3.82714 48.2604 3.87958 48.0954L3.97481 47.7954H30.6936H57.4123L65.2466 57.4274L73.0809 67.0594L63.133 67.1326C53.1922 67.2059 53.1849 67.2062 52.8698 67.5213C52.46 67.9312 52.4688 68.5217 52.8913 68.9714L53.2282 69.3301H64.6186H76.009L76.3125 68.944L76.6162 68.558V47.5289V26.4997L76.3021 25.8508C76.0934 25.4196 75.7645 25.0602 75.3212 24.7792L74.6544 24.3563H71.811C68.9918 24.3563 68.9638 24.3532 68.5323 23.9901C67.9802 23.5255 67.4729 23.5247 67.01 23.9876L66.6464 24.3512L63.0277 24.3904L59.409 24.4296L59.1131 24.9L58.8171 25.3705L57.2423 25.3761C55.9377 25.3807 55.6675 25.3441 55.6675 25.162C55.6675 25.0412 55.5357 24.8104 55.3745 24.6493C55.0965 24.3713 54.8863 24.3563 51.2538 24.3563H47.426L46.1442 23.1019L44.8622 21.8474L45.0017 21.2341C45.3249 19.8137 44.6053 17.7576 43.4607 16.8309C42.4722 16.0302 42.1383 15.8971 40.5054 15.6524C40.3442 15.6282 39.9112 15.6578 39.5432 15.7181ZM66.9583 16.5386C66.6886 16.8813 66.6546 17.1255 66.6546 18.7163C66.6546 20.3071 66.6886 20.5513 66.9583 20.8939C67.3551 21.3984 68.0832 21.4201 68.5335 20.9409C68.8268 20.6286 68.852 20.4511 68.852 18.6958C68.852 16.8927 68.8337 16.7724 68.513 16.4711C68.0332 16.0205 67.3422 16.0504 66.9583 16.5386ZM41.4475 18.125C42.4659 18.6517 43.0599 19.9326 42.7754 20.9888C42.5859 21.693 41.9186 22.4932 41.3111 22.7449C40.6706 23.0102 39.404 22.8672 38.8406 22.4661C38.2404 22.0388 37.7952 21.1591 37.7952 20.401C37.7952 19.3989 38.4991 18.3572 39.4067 18.0163C39.8447 17.8517 41.0423 17.9155 41.4475 18.125ZM17.3181 29.6366C19.2643 30.1771 19.8434 32.6401 18.3248 33.918C17.6827 34.4583 16.8555 34.6641 16.1206 34.4662C13.6868 33.8108 13.5472 30.5423 15.917 29.6973C16.6088 29.4506 16.6433 29.4492 17.3181 29.6366ZM47.8758 41.0108C48.8743 41.6281 49.4083 42.4674 49.486 43.5413C49.5208 44.0224 49.5055 44.649 49.4521 44.9338L49.3549 45.4515H46.0777H42.8003L42.6431 44.719C42.3609 43.4025 42.9717 41.8041 44.0196 41.1175C45.1973 40.3459 46.7315 40.3034 47.8758 41.0108ZM43.1068 55.5164C42.2524 55.681 41.5285 57.0522 41.8509 57.8949C42.1205 58.5991 46.1584 63.7473 46.7104 64.0907L47.2441 64.4225L55.1113 64.464C63.8183 64.5098 63.741 64.5173 64.3069 63.5889C64.6798 62.9773 64.6845 62.2131 64.3192 61.6139C63.9128 60.9474 60.4211 56.397 60.0774 56.0859C59.3721 55.4475 59.0608 55.4253 51.0529 55.4395C46.8632 55.4469 43.2874 55.4815 43.1068 55.5164ZM60.3073 59.9399L61.9441 62.1066L59.4283 62.2019C58.0448 62.2545 54.9223 62.2976 52.4895 62.2979C47.2867 62.2985 48.0734 62.6073 45.8672 59.6981L44.3951 57.757L51.5329 57.7651L58.6707 57.7731L60.3073 59.9399ZM33.4048 58.6704C33.2058 58.7747 32.9468 59.0312 32.8293 59.2406C32.5564 59.7268 32.8077 60.4235 33.344 60.6679C33.8246 60.8869 36.6956 60.8832 37.109 60.663C37.8633 60.2612 37.9912 59.6128 37.442 58.9738C37.0983 58.5739 37.0437 58.5616 35.4277 58.5217C34.2814 58.4934 33.6546 58.5396 33.4048 58.6704ZM31.9354 62.3376C31.3814 62.6237 31.1394 63.2246 31.378 63.7224C31.7229 64.4414 32.0134 64.4912 35.8654 64.4935L39.4292 64.4957L39.8574 64.0675C40.3781 63.5468 40.3974 63.1773 39.9323 62.6362L39.5789 62.2251L35.9403 62.1867C33.1922 62.1578 32.212 62.1948 31.9354 62.3376Z"/>
</mask>
<path fill-rule="evenodd" clip-rule="evenodd" d="M23.6108 10.4853C23.3405 10.7732 23.2923 10.9959 23.2923 11.957C23.2923 12.9775 23.3295 13.1268 23.6682 13.4655C23.9714 13.7687 24.1343 13.8241 24.5105 13.7514C25.0553 13.6463 25.4897 13.1842 25.4897 12.7102C25.4897 12.4452 25.5946 12.3567 25.9982 12.2809C26.9281 12.1065 27.2472 11.1581 26.595 10.506C26.2742 10.185 26.1113 10.1464 25.0824 10.1464C24.0665 10.1464 23.8914 10.1866 23.6108 10.4853ZM29.445 10.4394C29.0088 10.8756 29.0543 11.6596 29.5381 12.0401C29.8795 12.3088 30.1255 12.3438 31.6688 12.3438C33.3261 12.3438 33.4317 12.3258 33.7732 11.9841C34.2347 11.5228 34.2433 10.8872 33.7939 10.4648C33.4824 10.1724 33.3028 10.1464 31.5965 10.1464C29.9333 10.1464 29.7073 10.1771 29.445 10.4394ZM36.6487 10.4853C36.2263 10.9352 36.2428 11.537 36.6899 11.9841C37.0317 12.3261 37.1363 12.3438 38.8059 12.3438C40.421 12.3438 40.5918 12.3173 40.9292 12.0142C41.459 11.5381 41.4942 10.9155 41.0181 10.4394C40.7556 10.1768 40.5298 10.1464 38.8462 10.1464C37.0717 10.1464 36.9496 10.1653 36.6487 10.4853ZM43.8681 10.506C43.4367 10.9373 43.4077 11.4544 43.7886 11.9247C44.0578 12.2573 44.1441 12.2705 46.054 12.2705C48.2442 12.2705 48.4056 12.2124 48.5756 11.3627C48.6509 10.9867 48.597 10.8267 48.2926 10.5223C47.9288 10.1585 47.857 10.1464 46.0721 10.1464C44.3091 10.1464 44.2118 10.1622 43.8681 10.506ZM51.1262 10.4394C50.6501 10.9155 50.6852 11.5381 51.2151 12.0142C51.5525 12.3173 51.7233 12.3438 53.3384 12.3438C55.008 12.3438 55.1126 12.3261 55.4544 11.9841C55.9158 11.5228 55.9245 10.8872 55.475 10.4648C55.1636 10.1724 54.984 10.1464 53.2776 10.1464C51.6145 10.1464 51.3884 10.1771 51.1262 10.4394ZM58.3299 10.4853C57.9074 10.9352 57.924 11.537 58.3711 11.9841C58.7125 12.3258 58.8182 12.3438 60.4755 12.3438C62.0188 12.3438 62.2647 12.3088 62.6062 12.0401C63.0899 11.6596 63.1355 10.8756 62.6992 10.4394C62.4367 10.1768 62.211 10.1464 60.5273 10.1464C58.7528 10.1464 58.6308 10.1653 58.3299 10.4853ZM65.5493 10.506C64.8971 11.1581 65.2162 12.1065 66.1461 12.2809C66.5497 12.3567 66.6546 12.4452 66.6546 12.7102C66.6546 13.1842 67.0889 13.6463 67.6338 13.7514C68.01 13.8241 68.1729 13.7687 68.4761 13.4655C68.816 13.1256 68.852 12.9791 68.852 11.9365C68.852 10.9206 68.8117 10.7455 68.513 10.4648C68.2252 10.1946 68.0025 10.1464 67.0413 10.1464C66.0342 10.1464 65.8689 10.1862 65.5493 10.506ZM13.2303 10.8766C12.459 11.1951 12.4149 11.9935 13.1251 12.7796L13.6519 13.3628L13.1251 13.9784C12.5232 14.6815 12.4527 15.2088 12.8969 15.6855C13.3642 16.1871 14.0886 16.1147 14.771 15.4981L15.3334 14.9902L15.8256 15.4981C17.1215 16.8351 18.6242 15.3752 17.3757 13.9923L16.8793 13.4425L17.3825 12.8608C18.0093 12.1363 18.0189 11.4379 17.4086 10.9842C16.9182 10.6195 16.4519 10.7199 15.7431 11.342L15.2204 11.801L14.7517 11.3501C14.2244 10.8429 13.7044 10.6811 13.2303 10.8766ZM39.5432 15.7181C38.1743 15.9424 36.7463 16.974 36.1151 18.1948L35.8833 18.643H30.6864H25.4897V17.5377C25.4897 16.5594 25.4484 16.391 25.13 16.0728C24.6718 15.6144 24.1102 15.6144 23.6519 16.0728C23.3343 16.3902 23.2923 16.56 23.2923 17.5266V18.6209L21.2666 18.6685C19.3407 18.7139 19.2109 18.7362 18.6326 19.1193C17.5191 19.857 17.4325 20.2063 17.4325 23.963V27.2437L16.4271 27.3279C13.8453 27.5445 12.0122 29.5038 12.0122 32.0473C12.0122 34.5922 13.8818 36.5868 16.4437 36.7751L17.4325 36.8477V37.9267C17.4325 38.8105 17.4855 39.0588 17.7255 39.2987C17.8866 39.4599 18.1174 39.5917 18.2382 39.5917C18.4203 39.5917 18.458 39.8689 18.458 41.2077C18.458 42.6145 18.4247 42.8355 18.2016 42.9146C17.5717 43.1381 17.4325 43.4157 17.4325 44.4487V45.4515L10.8769 45.4524C6.59368 45.4528 4.11808 45.5086 3.73529 45.6132C2.04679 46.0744 1.12285 47.959 1.87276 49.4125C2.01662 49.6913 5.58771 54.1634 9.80836 59.3501C16.2493 67.2655 17.5784 68.8244 18.08 69.0522C18.6493 69.3107 19.3901 69.3238 33.6405 69.3268C47.6783 69.3299 48.6225 69.3142 48.9121 69.0737C49.0819 68.9328 49.2615 68.6074 49.311 68.3509C49.3836 67.9747 49.3283 67.8118 49.025 67.5086L48.6491 67.1326H33.8753H19.1014L18.6551 66.6565C18.3353 66.3154 5.2893 50.2997 3.92353 48.5715C3.84692 48.4747 3.82714 48.2604 3.87958 48.0954L3.97481 47.7954H30.6936H57.4123L65.2466 57.4274L73.0809 67.0594L63.133 67.1326C53.1922 67.2059 53.1849 67.2062 52.8698 67.5213C52.46 67.9312 52.4688 68.5217 52.8913 68.9714L53.2282 69.3301H64.6186H76.009L76.3125 68.944L76.6162 68.558V47.5289V26.4997L76.3021 25.8508C76.0934 25.4196 75.7645 25.0602 75.3212 24.7792L74.6544 24.3563H71.811C68.9918 24.3563 68.9638 24.3532 68.5323 23.9901C67.9802 23.5255 67.4729 23.5247 67.01 23.9876L66.6464 24.3512L63.0277 24.3904L59.409 24.4296L59.1131 24.9L58.8171 25.3705L57.2423 25.3761C55.9377 25.3807 55.6675 25.3441 55.6675 25.162C55.6675 25.0412 55.5357 24.8104 55.3745 24.6493C55.0965 24.3713 54.8863 24.3563 51.2538 24.3563H47.426L46.1442 23.1019L44.8622 21.8474L45.0017 21.2341C45.3249 19.8137 44.6053 17.7576 43.4607 16.8309C42.4722 16.0302 42.1383 15.8971 40.5054 15.6524C40.3442 15.6282 39.9112 15.6578 39.5432 15.7181ZM66.9583 16.5386C66.6886 16.8813 66.6546 17.1255 66.6546 18.7163C66.6546 20.3071 66.6886 20.5513 66.9583 20.8939C67.3551 21.3984 68.0832 21.4201 68.5335 20.9409C68.8268 20.6286 68.852 20.4511 68.852 18.6958C68.852 16.8927 68.8337 16.7724 68.513 16.4711C68.0332 16.0205 67.3422 16.0504 66.9583 16.5386ZM41.4475 18.125C42.4659 18.6517 43.0599 19.9326 42.7754 20.9888C42.5859 21.693 41.9186 22.4932 41.3111 22.7449C40.6706 23.0102 39.404 22.8672 38.8406 22.4661C38.2404 22.0388 37.7952 21.1591 37.7952 20.401C37.7952 19.3989 38.4991 18.3572 39.4067 18.0163C39.8447 17.8517 41.0423 17.9155 41.4475 18.125ZM17.3181 29.6366C19.2643 30.1771 19.8434 32.6401 18.3248 33.918C17.6827 34.4583 16.8555 34.6641 16.1206 34.4662C13.6868 33.8108 13.5472 30.5423 15.917 29.6973C16.6088 29.4506 16.6433 29.4492 17.3181 29.6366ZM47.8758 41.0108C48.8743 41.6281 49.4083 42.4674 49.486 43.5413C49.5208 44.0224 49.5055 44.649 49.4521 44.9338L49.3549 45.4515H46.0777H42.8003L42.6431 44.719C42.3609 43.4025 42.9717 41.8041 44.0196 41.1175C45.1973 40.3459 46.7315 40.3034 47.8758 41.0108ZM43.1068 55.5164C42.2524 55.681 41.5285 57.0522 41.8509 57.8949C42.1205 58.5991 46.1584 63.7473 46.7104 64.0907L47.2441 64.4225L55.1113 64.464C63.8183 64.5098 63.741 64.5173 64.3069 63.5889C64.6798 62.9773 64.6845 62.2131 64.3192 61.6139C63.9128 60.9474 60.4211 56.397 60.0774 56.0859C59.3721 55.4475 59.0608 55.4253 51.0529 55.4395C46.8632 55.4469 43.2874 55.4815 43.1068 55.5164ZM60.3073 59.9399L61.9441 62.1066L59.4283 62.2019C58.0448 62.2545 54.9223 62.2976 52.4895 62.2979C47.2867 62.2985 48.0734 62.6073 45.8672 59.6981L44.3951 57.757L51.5329 57.7651L58.6707 57.7731L60.3073 59.9399ZM33.4048 58.6704C33.2058 58.7747 32.9468 59.0312 32.8293 59.2406C32.5564 59.7268 32.8077 60.4235 33.344 60.6679C33.8246 60.8869 36.6956 60.8832 37.109 60.663C37.8633 60.2612 37.9912 59.6128 37.442 58.9738C37.0983 58.5739 37.0437 58.5616 35.4277 58.5217C34.2814 58.4934 33.6546 58.5396 33.4048 58.6704ZM31.9354 62.3376C31.3814 62.6237 31.1394 63.2246 31.378 63.7224C31.7229 64.4414 32.0134 64.4912 35.8654 64.4935L39.4292 64.4957L39.8574 64.0675C40.3781 63.5468 40.3974 63.1773 39.9323 62.6362L39.5789 62.2251L35.9403 62.1867C33.1922 62.1578 32.212 62.1948 31.9354 62.3376Z" fill="#176CF7" stroke="#003183" stroke-width="6" mask="url(#path-6-inside-1_631_70915)"/>
<circle cx="73.5608" cy="66.2439" r="8.7561" fill="#F71717" stroke="white" stroke-width="2"/>
<path fill-rule="evenodd" clip-rule="evenodd" d="M76.9327 64.3277C77.3233 63.9372 77.3233 63.304 76.9327 62.9135C76.5422 62.523 75.909 62.523 75.5185 62.9135L73.5191 64.9129L71.5196 62.9135C71.1291 62.523 70.4959 62.523 70.1054 62.9135C69.7149 63.304 69.7149 63.9372 70.1054 64.3277L72.1048 66.3272L70.3006 68.1313C69.9101 68.5219 69.9101 69.155 70.3006 69.5456C70.6912 69.9361 71.3243 69.9361 71.7149 69.5456L73.5191 67.7414L75.3233 69.5456C75.7138 69.9361 76.3469 69.9361 76.7375 69.5456C77.128 69.1551 77.128 68.5219 76.7375 68.1314L74.9333 66.3272L76.9327 64.3277Z" fill="white"/>
<rect x="70.5068" y="33.3203" width="1.82927" height="20.1194" rx="0.914634" transform="rotate(-0.0407076 70.5068 33.3203)" fill="white"/>
<rect x="10.0371" y="54.0765" width="1.82927" height="13.126" rx="0.914634" transform="rotate(-39.6108 10.0371 54.0765)" fill="white"/>
<rect x="18.9862" y="64.8885" width="1.82927" height="1.80542" rx="0.902711" transform="rotate(-39.6108 18.9862 64.8885)" fill="white"/>
<rect x="70.5117" y="30.2696" width="1.82927" height="1.75533" rx="0.877666" transform="rotate(-0.0407076 70.5117 30.2696)" fill="white"/>
</svg>
