<svg width="24" height="24" viewBox="0 0 24 24" fill="none" xmlns="http://www.w3.org/2000/svg">
<rect width="24" height="24" fill="white"/>
<path fill-rule="evenodd" clip-rule="evenodd" d="M7.52632 7.25C7.52632 6.69772 7.97404 6.25 8.52632 6.25H13.5704C13.7786 6.25 13.9474 6.41877 13.9474 6.62696C13.9474 6.99274 14.4311 7.15407 14.6873 6.89301C14.7247 6.85497 14.7618 6.81846 14.7987 6.78356C14.8905 6.69668 14.9474 6.57771 14.9474 6.45129V6.25C14.9474 5.69772 14.4997 5.25 13.9474 5.25H7.52632C6.97404 5.25 6.52632 5.69772 6.52632 6.25V15.5C6.52632 16.0523 6.97404 16.5 7.52632 16.5H13.9474C14.4997 16.5 14.9474 16.0523 14.9474 15.5C14.9474 15.3311 14.843 15.1799 14.6859 15.1179C14.5675 15.0712 14.448 15.0231 14.328 14.9738C14.1471 14.8995 13.9474 15.0316 13.9474 15.2272C13.9474 15.3779 13.8252 15.5 13.6746 15.5H8.52632C7.97404 15.5 7.52632 15.0523 7.52632 14.5V7.25Z" fill="#176CF7"/>
<path fill-rule="evenodd" clip-rule="evenodd" d="M6.52632 3C5.14105 3 4 4.01625 4 5.25V18.75C4 19.9837 5.14105 21 6.52632 21H14.9474C16.3326 21 17.4737 19.9837 17.4737 18.75V15.9649C17.0001 16.0389 16.4945 16.0041 15.9889 15.7809C15.9234 15.7519 15.8568 15.7219 15.7895 15.691V18.75C15.7895 19.1663 15.4147 19.5 14.9474 19.5H6.52632C6.05895 19.5 5.68421 19.1663 5.68421 18.75V5.25C5.68421 4.83375 6.05895 4.5 6.52632 4.5H14.9474C15.4147 4.5 15.7895 4.83375 15.7895 5.25V6.10715C16.3062 5.98994 16.9564 5.93475 17.4737 6.1226V5.25C17.4737 4.01625 16.3326 3 14.9474 3H6.52632ZM10.7368 17.25C10.2737 17.25 9.89474 17.5875 9.89474 18C9.89474 18.4125 10.2737 18.75 10.7368 18.75C11.2 18.75 11.5789 18.4125 11.5789 18C11.5789 17.5875 11.2 17.25 10.7368 17.25Z" fill="#176CF7"/>
<g clip-path="url(#clip0_2838_51347)">
<path d="M17.54 13.0187H13.4577L13.6251 12.8614V12.5368V10.4859V10.4565L13.6228 10.4272C13.5921 10.0358 13.7073 9.64119 13.9582 9.31089C14.21 8.97935 14.585 8.73162 15.0249 8.62206L15.5042 8.50269L15.9735 8.62066C16.4134 8.73123 16.7883 8.97951 17.0403 9.31138C17.2913 9.64202 17.407 10.0369 17.377 10.4288L17.3749 10.4573V10.4859V12.5388V12.864L17.54 13.0187Z" fill="white" stroke="#176CF7" stroke-width="1.5"/>
</g>
<defs>
<clipPath id="clip0_2838_51347">
<rect width="7.57895" height="8.25" fill="white" transform="translate(12.4211 6.75)"/>
</clipPath>
</defs>
</svg>
