<svg width="25" height="24" viewBox="0 0 25 24" fill="none" xmlns="http://www.w3.org/2000/svg">
<path d="M12.9358 8C14.0391 8 14.9419 7.1 14.9419 6C14.9419 4.9 14.0391 4 12.9358 4C11.8324 4 10.9297 4.9 10.9297 6C10.9297 7.1 11.8324 8 12.9358 8ZM12.9358 10C11.8324 10 10.9297 10.9 10.9297 12C10.9297 13.1 11.8324 14 12.9358 14C14.0391 14 14.9419 13.1 14.9419 12C14.9419 10.9 14.0391 10 12.9358 10ZM12.9358 16C11.8324 16 10.9297 16.9 10.9297 18C10.9297 19.1 11.8324 20 12.9358 20C14.0391 20 14.9419 19.1 14.9419 18C14.9419 16.9 14.0391 16 12.9358 16Z" fill="#323232"/>
</svg>
