<svg width="22" height="22" viewBox="0 0 22 22" fill="none" xmlns="http://www.w3.org/2000/svg">
<path d="M19.3809 3.14295H2.61904C1.46187 3.14295 0.523804 4.18525 0.523804 5.47099V17.1112C0.523804 18.3969 1.46187 19.4392 2.61904 19.4392H19.3809C20.5381 19.4392 21.4762 18.3969 21.4762 17.1112V5.47099C21.4762 4.18525 20.5381 3.14295 19.3809 3.14295Z" fill="#FFA217"/>
<path fill-rule="evenodd" clip-rule="evenodd" d="M1.68784 4.39651L9.72972 11.4169C9.91122 11.5757 10.1268 11.7017 10.364 11.7877C10.6012 11.8736 10.8556 11.9179 11.1124 11.9179C11.3692 11.9179 11.6235 11.8736 11.8608 11.7877C12.098 11.7017 12.3135 11.5757 12.495 11.4169L20.3122 4.5844" fill="#FFA217"/>
<path d="M1.68784 4.39651L9.72972 11.4169C9.91122 11.5757 10.1268 11.7017 10.364 11.7877C10.6012 11.8736 10.8556 11.9179 11.1124 11.9179C11.3692 11.9179 11.6235 11.8736 11.8608 11.7877C12.098 11.7017 12.3135 11.5757 12.495 11.4169L20.3122 4.5844" stroke="white" stroke-width="2.5" stroke-linecap="round" stroke-linejoin="round"/>
</svg>
