<svg width="24" height="24" viewBox="0 0 24 24" fill="none" xmlns="http://www.w3.org/2000/svg">
<path d="M19.2 5H4.8C3.80589 5 3 5.89543 3 7V17C3 18.1046 3.80589 19 4.8 19H19.2C20.1941 19 21 18.1046 21 17V7C21 5.89543 20.1941 5 19.2 5Z" stroke="#176CF7" stroke-width="1.5" stroke-linecap="round" stroke-linejoin="bevel"/>
<path d="M4 6.07692L10.9087 12.1081C11.0646 12.2445 11.2498 12.3528 11.4536 12.4266C11.6574 12.5005 11.8759 12.5385 12.0965 12.5385C12.3172 12.5385 12.5356 12.5005 12.7395 12.4266C12.9433 12.3528 13.1284 12.2445 13.2844 12.1081L20 6.23834" stroke="#176CF7" stroke-width="1.5" stroke-linecap="round" stroke-linejoin="round"/>
</svg>
