<svg width="22" height="22" viewBox="0 0 22 22" fill="none" xmlns="http://www.w3.org/2000/svg">
<path d="M19.3811 3.14258H2.61916C1.462 3.14258 0.523926 4.18488 0.523926 5.47062V17.1108C0.523926 18.3966 1.462 19.4389 2.61916 19.4389H19.3811C20.5382 19.4389 21.4763 18.3966 21.4763 17.1108V5.47062C21.4763 4.18488 20.5382 3.14258 19.3811 3.14258Z" fill="#FFA217"/>
<path fill-rule="evenodd" clip-rule="evenodd" d="M1.68799 4.39648L9.72987 11.4169C9.91137 11.5757 10.1269 11.7017 10.3642 11.7876C10.6014 11.8736 10.8557 11.9179 11.1125 11.9179C11.3694 11.9179 11.6237 11.8736 11.8609 11.7876C12.0982 11.7017 12.3137 11.5757 12.4952 11.4169L20.3123 4.58438" fill="#FFA217"/>
<path d="M1.68799 4.39648L9.72987 11.4169C9.91137 11.5757 10.1269 11.7017 10.3642 11.7876C10.6014 11.8736 10.8557 11.9179 11.1125 11.9179C11.3694 11.9179 11.6237 11.8736 11.8609 11.7876C12.0982 11.7017 12.3137 11.5757 12.4952 11.4169L20.3123 4.58438" stroke="white" stroke-width="2.5" stroke-linecap="round" stroke-linejoin="round"/>
</svg>
