<svg width="28" height="27" viewBox="0 0 28 27" fill="none" xmlns="http://www.w3.org/2000/svg">
<path d="M21.1943 5.23828H3.81426C3.23078 5.23828 2.6712 5.47007 2.25862 5.88265C1.84604 6.29523 1.61426 6.8548 1.61426 7.43828V17.4173C1.61426 18.0008 1.84604 18.5603 2.25862 18.9729C2.6712 19.3855 3.23078 19.6173 3.81426 19.6173H5.62026L8.16426 24.0283C8.2458 24.1727 8.36422 24.2928 8.50742 24.3764C8.65062 24.4599 8.81345 24.504 8.97926 24.504C9.14506 24.504 9.3079 24.4599 9.45109 24.3764C9.59429 24.2928 9.71272 24.1727 9.79426 24.0283L12.3493 19.6223H21.1613C21.7447 19.6223 22.3043 19.3905 22.7169 18.9779C23.1295 18.5653 23.3613 18.0058 23.3613 17.4223V7.44128C23.3613 6.86297 23.1336 6.30789 22.7275 5.89616C22.3214 5.48443 21.7695 5.24917 21.1913 5.24128L21.1943 5.23828Z" stroke="#176CF7" stroke-width="3" stroke-linecap="round" stroke-linejoin="round"/>
<rect x="18" width="10" height="10" rx="5" fill="#F71717"/>
<path d="M4.80566 10.3153H11.4137" stroke="#176CF7" stroke-width="3" stroke-linecap="round" stroke-linejoin="round"/>
<path d="M4.80566 14.7213H19.1237" stroke="#176CF7" stroke-width="3" stroke-linecap="round" stroke-linejoin="round"/>
</svg>
