<svg width="26" height="26" viewBox="0 0 26 26" fill="none" xmlns="http://www.w3.org/2000/svg">
<path fill-rule="evenodd" clip-rule="evenodd" d="M3.08594 5.04926C2.95703 5.07276 2.6815 5.17149 2.47366 5.26863C1.94936 5.5137 1.53367 5.91604 1.28444 6.41972C1.04542 6.90261 1 7.16986 1 8.09261C1 8.72402 1.01256 8.86598 1.07364 8.92526C1.14025 8.98981 2.28733 8.99667 13 8.99667C23.7127 8.99667 24.8597 8.98981 24.9264 8.92526C24.9874 8.86598 25 8.72402 25 8.09261C25 7.16972 24.9546 6.90266 24.7154 6.41931C24.3724 5.72639 23.6376 5.17899 22.8703 5.04498C22.5115 4.9823 3.4307 4.98643 3.08594 5.04926ZM1.07364 10.5227C1.00778 10.5866 1 11.0215 1 14.6283C1 17.2924 1.01702 18.7541 1.05011 18.9322C1.13383 19.383 1.42314 19.9027 1.7822 20.2475C2.14141 20.5924 2.67302 20.8691 3.12972 20.9489C3.51934 21.017 22.4807 21.017 22.8703 20.9489C23.3351 20.8677 23.871 20.5872 24.2266 20.239C24.5823 19.8906 24.8676 19.3751 24.9499 18.9322C24.983 18.7541 25 17.2924 25 14.6283C25 11.0215 24.9922 10.5866 24.9264 10.5227C24.8597 10.4582 23.7127 10.4513 13 10.4513C2.28733 10.4513 1.14025 10.4582 1.07364 10.5227ZM6.65402 15.2954C6.95341 15.5125 6.97656 15.5825 6.97656 16.2699C6.97656 16.835 6.96663 16.9125 6.87991 17.0252C6.65627 17.3157 6.58398 17.3382 5.875 17.3382C5.29225 17.3382 5.21233 17.3285 5.09617 17.2444C4.81488 17.0408 4.77475 16.9405 4.75745 16.3983C4.73791 15.7852 4.76495 15.6318 4.92531 15.447C5.12898 15.2123 5.26525 15.1775 5.93036 15.1902C6.4465 15.2002 6.54175 15.214 6.65402 15.2954Z" fill="#5AA6E8"/>
</svg>
