<svg width="13" height="19" viewBox="0 0 13 19" fill="none" xmlns="http://www.w3.org/2000/svg">
<path d="M6.34699 18.8041C4.76715 17.1229 3.37963 15.2855 2.20799 13.3232C1.20814 11.8374 0.520381 10.1802 0.182982 8.44373C-0.079561 7.41956 -0.0592739 6.34786 0.24186 5.33342C0.542994 4.31897 1.11467 3.39651 1.90098 2.65622C3.0955 1.53405 4.69477 0.891392 6.37015 0.860313C8.04553 0.829234 9.66974 1.4121 10.909 2.48912C12.1002 3.52266 12.8379 4.94819 12.974 6.47955C12.9775 6.48331 12.9802 6.48769 12.9819 6.49244C12.9836 6.4972 12.9843 6.50222 12.984 6.50724C12.984 6.52538 12.984 6.54353 12.984 6.56262C12.994 6.70777 13 6.84909 13 6.99518V7.02669C13 7.14319 13 7.25682 12.988 7.37331C12.9475 8.00516 12.8034 8.62703 12.561 9.21623C12.2291 10.1599 11.8405 11.0845 11.397 11.9854C10.5262 13.7639 9.42676 15.4319 8.12399 16.9507C7.57464 17.6046 6.98103 18.2234 6.34699 18.8032V18.8041ZM6.50099 4.31103C6.02548 4.31611 5.56217 4.45541 5.1694 4.71139C4.77662 4.96737 4.47193 5.32859 4.29369 5.74957C4.11544 6.17054 4.07161 6.63246 4.16771 7.07718C4.26381 7.52189 4.49554 7.92952 4.83374 8.24874C5.17193 8.56796 5.60147 8.78451 6.06828 8.87113C6.53509 8.95775 7.0183 8.91056 7.45708 8.7355C7.89586 8.56045 8.2706 8.26536 8.53412 7.88737C8.79764 7.50938 8.93816 7.0654 8.93799 6.61132C8.9335 5.99794 8.67441 5.41129 8.21755 4.98006C7.7607 4.54883 7.14338 4.30823 6.50099 4.31103Z" fill="#176CF7"/>
</svg>
