<svg width="143" height="151" viewBox="0 0 143 151" fill="none" xmlns="http://www.w3.org/2000/svg">
<path d="M142.877 20.0463C143.182 18.1923 142.931 16.2894 142.156 14.5783C141.38 12.8672 140.115 11.4249 138.521 10.4339C136.927 9.44295 135.075 8.94784 133.199 9.01127C131.324 9.07471 129.509 9.69383 127.985 10.7903C126.461 11.8867 125.297 13.4112 124.638 15.1708C123.98 16.9304 123.858 18.8459 124.287 20.675C124.717 22.5042 125.679 24.1646 127.051 25.4462C128.423 26.7278 130.144 27.573 131.996 27.8747C133.224 28.0782 134.48 28.037 135.693 27.7535C136.905 27.4699 138.049 26.9496 139.06 26.2223C140.07 25.495 140.928 24.5751 141.583 23.5153C142.238 22.4555 142.678 21.2766 142.877 20.0463Z" fill="#FFC217"/>
<path d="M116.231 4.93251C116.356 4.16856 116.253 3.38442 115.934 2.67931C115.614 1.9742 115.093 1.37983 114.436 0.971431C113.779 0.56303 113.016 0.358954 112.243 0.385034C111.47 0.411113 110.723 0.666176 110.095 1.11794C109.467 1.5697 108.987 2.19786 108.715 2.9229C108.444 3.64794 108.394 4.43728 108.571 5.191C108.748 5.94473 109.144 6.62896 109.709 7.1571C110.275 7.68524 110.984 8.03355 111.747 8.15793C112.253 8.24188 112.771 8.22497 113.27 8.10818C113.77 7.9914 114.241 7.77703 114.658 7.47737C115.074 7.17771 115.428 6.79866 115.698 6.36195C115.967 5.92524 116.149 5.43948 116.231 4.93251Z" fill="#FFC217"/>
<path opacity="0.07" d="M69.5116 150.999C82.6094 150.959 95.4016 147.033 106.272 139.717C117.143 132.402 125.605 122.024 130.589 109.896C135.574 97.7677 136.857 84.4324 134.277 71.5743C131.696 58.7163 125.368 46.9122 116.092 37.653C106.816 28.3938 95.0078 22.0948 82.1585 19.5516C69.3093 17.0083 55.9955 18.3349 43.8987 23.3637C31.802 28.3926 21.4648 36.8981 14.1929 47.8062C6.9209 58.7142 3.04032 71.5354 3.04123 84.6505C3.06965 102.275 10.0885 119.166 22.554 131.609C35.0194 144.051 51.9104 151.026 69.5116 150.999Z" fill="#2626BC"/>
<path d="M115.652 116.191C124.845 106.958 131.099 95.2043 133.624 82.4145C136.15 69.6248 134.834 56.3726 129.842 44.3315C124.85 32.2904 116.406 22.0006 105.578 14.7616C94.749 7.52264 82.0208 3.65918 69.0006 3.65918C55.9803 3.65918 43.2521 7.52264 32.4234 14.7616C21.5947 22.0006 13.1512 32.2904 8.1594 44.3315C3.16756 56.3726 1.85124 69.6248 4.37669 82.4145C6.90214 95.2043 13.1561 106.958 22.3487 116.191C28.4519 122.366 35.7175 127.269 43.7252 130.615C51.7329 133.961 60.3237 135.684 69.0006 135.684C77.6775 135.684 86.2683 133.961 94.276 130.615C102.284 127.269 109.549 122.366 115.652 116.191Z" fill="#FFC217"/>
<path d="M44.9415 54.3629C46.7706 54.3573 48.557 53.8091 50.0751 52.7875C51.5933 51.7659 52.775 50.3167 53.4711 48.623C54.1672 46.9293 54.3464 45.067 53.9861 43.2714C53.6259 41.4757 52.7422 39.8272 51.4469 38.5341C50.1515 37.2411 48.5025 36.3613 46.7081 36.0061C44.9137 35.6508 43.0545 35.836 41.3651 36.5382C39.6758 37.2403 38.2321 38.4281 37.2165 39.9513C36.2008 41.4745 35.6588 43.265 35.6588 45.0965C35.6606 46.3153 35.9021 47.5218 36.3696 48.6471C36.837 49.7724 37.5213 50.7944 38.3833 51.6549C39.2453 52.5154 40.2681 53.1975 41.3934 53.6621C42.5186 54.1267 43.7243 54.3649 44.9415 54.3629Z" fill="#176CF7"/>
<path d="M93.0573 54.363C94.8864 54.3573 96.6728 53.8091 98.191 52.7875C99.7091 51.7659 100.891 50.3167 101.587 48.623C102.283 46.9293 102.462 45.067 102.102 43.2714C101.742 41.4757 100.858 39.8272 99.5627 38.5341C98.2673 37.2411 96.6183 36.3613 94.8239 36.0061C93.0296 35.6508 91.1703 35.836 89.4809 36.5382C87.7916 37.2403 86.3479 38.4281 85.3323 39.9513C84.3167 41.4745 83.7746 43.265 83.7746 45.0965C83.7785 47.5578 84.7587 49.9168 86.4995 51.6546C88.2403 53.3923 90.5992 54.3666 93.0573 54.363Z" fill="#176CF7"/>
<path d="M35.6588 106.212C35.6809 107.412 35.939 108.596 36.4183 109.696C36.8977 110.796 37.5888 111.791 38.4523 112.623C39.3157 113.456 40.3346 114.11 41.4506 114.548C42.5665 114.986 43.7578 115.199 44.9562 115.176C46.1464 115.198 47.329 114.982 48.4351 114.541C49.5412 114.101 50.5487 113.444 51.3989 112.61C52.2492 111.776 52.9251 110.78 53.3875 109.682C53.8499 108.584 54.0895 107.404 54.0922 106.212V97.1728C54.2091 93.2913 55.8312 89.6079 58.6146 86.9037C61.3979 84.1996 65.1236 82.6871 69.0018 82.6871C72.88 82.6871 76.6058 84.1996 79.3891 86.9037C82.1724 89.6079 83.7945 93.2913 83.9114 97.1728V106.212C83.9335 107.412 84.1916 108.596 84.671 109.696C85.1503 110.796 85.8414 111.791 86.7049 112.623C87.5684 113.456 88.5872 114.11 89.7032 114.548C90.8192 114.986 92.0104 115.199 93.2089 115.176C94.3991 115.198 95.5816 114.982 96.6877 114.541C97.7938 114.101 98.8013 113.444 99.6515 112.61C100.502 111.776 101.178 110.78 101.64 109.682C102.103 108.584 102.342 107.404 102.345 106.212V97.1728C102.286 92.8474 101.377 88.576 99.67 84.6025C97.9626 80.6289 95.4902 77.0311 92.3939 74.0145C89.2977 70.9978 85.6383 68.6215 81.6247 67.0212C77.6112 65.4209 73.3221 64.628 69.0024 64.6877C64.6827 64.6278 60.3935 65.4206 56.3798 67.0209C52.366 68.6211 48.7065 70.9974 45.6101 74.014C42.5137 77.0307 40.0412 80.6286 38.3337 84.6022C36.6263 88.5758 35.7173 92.8473 35.6588 97.1728V106.212Z" fill="#307CFE"/>
<path d="M44.9415 54.3629C46.7706 54.3573 48.557 53.8091 50.0751 52.7875C51.5933 51.7659 52.775 50.3167 53.4711 48.623C54.1672 46.9293 54.3464 45.067 53.9861 43.2714C53.6259 41.4757 52.7422 39.8272 51.4469 38.5341C50.1515 37.2411 48.5025 36.3613 46.7081 36.0061C44.9137 35.6508 43.0545 35.836 41.3651 36.5382C39.6758 37.2403 38.2321 38.4281 37.2165 39.9513C36.2008 41.4745 35.6588 43.265 35.6588 45.0965C35.6606 46.3153 35.9021 47.5218 36.3696 48.6471C36.837 49.7724 37.5213 50.7944 38.3833 51.6549C39.2453 52.5154 40.2681 53.1975 41.3934 53.6621C42.5186 54.1267 43.7243 54.3649 44.9415 54.3629Z" fill="#307CFE"/>
<path d="M93.0573 54.363C94.8864 54.3573 96.6728 53.8091 98.191 52.7875C99.7091 51.7659 100.891 50.3167 101.587 48.623C102.283 46.9293 102.462 45.067 102.102 43.2714C101.742 41.4757 100.858 39.8272 99.5627 38.5341C98.2673 37.2411 96.6183 36.3613 94.8239 36.0061C93.0296 35.6508 91.1703 35.836 89.4809 36.5382C87.7916 37.2403 86.3479 38.4281 85.3323 39.9513C84.3167 41.4745 83.7746 43.265 83.7746 45.0965C83.7785 47.5578 84.7587 49.9168 86.4995 51.6546C88.2403 53.3923 90.5992 54.3666 93.0573 54.363Z" fill="#307CFE"/>
<path d="M69.0012 138.499C55.4054 138.457 42.1272 134.381 30.8433 126.787C19.5594 119.193 10.7761 108.421 5.60257 95.831C0.429056 83.2415 -0.902609 69.3992 1.77576 56.0524C4.45413 42.7055 11.0224 30.4527 20.6511 20.8414C30.2797 11.2301 42.5369 4.69136 55.8745 2.05104C69.2122 -0.589273 83.0321 0.787228 95.589 6.0067C108.146 11.2262 118.876 20.0545 126.425 31.3768C133.975 42.699 138.004 56.0073 138.004 69.621C137.955 87.9109 130.663 105.435 117.727 118.348C104.791 131.26 87.2673 138.508 69.0012 138.499ZM69.0012 6.78266C56.597 6.82096 44.4824 10.539 34.1873 17.4673C23.8922 24.3956 15.8784 34.2233 11.1581 45.7093C6.43769 57.1953 5.22244 69.8243 7.66581 82.0014C10.1092 94.1786 16.1016 105.358 24.8861 114.127C33.6707 122.896 44.8535 128.862 57.0222 131.271C69.1908 133.68 81.7995 132.424 93.2559 127.662C104.712 122.9 114.502 114.846 121.39 104.516C128.277 94.1858 131.953 82.0439 131.953 69.6235C131.909 52.9372 125.256 36.9501 113.454 25.1693C101.652 13.3885 85.6656 6.77606 69.0012 6.78266Z" fill="white"/>
<path d="M26.6867 140.216C26.9919 138.362 26.7409 136.459 25.9656 134.748C25.1902 133.037 23.9254 131.595 22.3312 130.604C20.7369 129.613 18.8849 129.118 17.0095 129.181C15.1341 129.245 13.3197 129.864 11.7958 130.96C10.2718 132.056 9.10699 133.581 8.44862 135.34C7.79025 137.1 7.66795 139.015 8.09721 140.844C8.52646 142.673 9.48797 144.334 10.8601 145.615C12.2321 146.897 13.9531 147.742 15.8052 148.044C17.0332 148.248 18.2893 148.206 19.5014 147.923C20.7135 147.639 21.8577 147.119 22.8686 146.392C23.8795 145.664 24.7371 144.745 25.3923 143.685C26.0475 142.625 26.4874 141.446 26.6867 140.216Z" fill="#FFC217"/>
<path d="M42.7595 142.818C42.8853 142.054 42.7819 141.27 42.4625 140.565C42.1431 139.86 41.6219 139.266 40.965 138.857C40.308 138.449 39.5449 138.245 38.7721 138.271C37.9993 138.297 37.2515 138.552 36.6236 139.004C35.9956 139.455 35.5156 140.084 35.2443 140.809C34.973 141.534 34.9226 142.323 35.0995 143.077C35.2764 143.83 35.6726 144.515 36.2381 145.043C36.8035 145.571 37.5127 145.919 38.2759 146.044C38.7819 146.127 39.2994 146.11 39.7988 145.994C40.2982 145.877 40.7697 145.662 41.1862 145.363C41.6027 145.063 41.9561 144.684 42.2261 144.247C42.496 143.811 42.6773 143.325 42.7595 142.818Z" fill="#FFC217"/>
</svg>
