<svg width="22" height="22" viewBox="0 0 22 22" fill="none" xmlns="http://www.w3.org/2000/svg">
<g clip-path="url(#clip0_991_34056)">
<g clip-path="url(#clip1_991_34056)">
<path fill-rule="evenodd" clip-rule="evenodd" d="M3.52393 3.06445C1.86707 3.06445 0.523926 4.4076 0.523926 6.06445V12.9366C0.523926 14.5935 1.86708 15.9366 3.52393 15.9366C4.02442 15.9366 4.48522 16.2091 4.72639 16.6477L5.84985 18.6907C6.60967 20.0724 8.59505 20.0724 9.35486 18.6907L10.2995 16.9729C10.651 16.3338 11.3225 15.9366 12.052 15.9366H18.2536C19.9105 15.9366 21.2536 14.5935 21.2536 12.9366V6.06445C21.2536 4.4076 19.9105 3.06445 18.2536 3.06445H3.52393Z" fill="#176CF7"/>
<path d="M19.3996 2.83203H2.76461C2.20544 2.83203 1.66917 3.04954 1.27378 3.43671C0.878381 3.82388 0.65625 4.34899 0.65625 4.89653V14.2487C0.65625 14.5198 0.710785 14.7883 0.81674 15.0388C0.922695 15.2893 1.078 15.5168 1.27378 15.7086C1.46956 15.9003 1.70198 16.0523 1.95778 16.1561C2.21358 16.2598 2.48774 16.3132 2.76461 16.3132H4.49347L6.92864 20.4422C7.00671 20.5775 7.12008 20.6901 7.25714 20.7684C7.3942 20.8467 7.55004 20.888 7.70873 20.888C7.86742 20.888 8.02326 20.8467 8.16032 20.7684C8.29738 20.6901 8.41075 20.5775 8.48882 20.4422L10.9345 16.3132H19.368C19.9272 16.3132 20.4634 16.0957 20.8588 15.7086C21.2542 15.3214 21.4764 14.7963 21.4764 14.2487V4.89653C21.4764 4.35432 21.2586 3.83384 20.87 3.44755C20.4815 3.06126 19.9533 2.84016 19.3996 2.83203Z" stroke="#176CF7" stroke-width="1.5" stroke-linecap="round" stroke-linejoin="round"/>
<path d="M3.71338 7.58984H10.0385M3.71338 11.7189H17.4177" stroke="white" stroke-width="2.5" stroke-linecap="round" stroke-linejoin="round"/>
</g>
</g>
<defs>
<clipPath id="clip0_991_34056">
<rect width="22" height="22" fill="white"/>
</clipPath>
<clipPath id="clip1_991_34056">
<rect width="22" height="22" fill="white" transform="translate(0 0.458984)"/>
</clipPath>
</defs>
</svg>
