<svg width="84" height="95" viewBox="0 0 84 95" fill="none" xmlns="http://www.w3.org/2000/svg">
<path d="M25.0962 50.452C38.9564 50.452 50.1923 39.1579 50.1923 25.226C50.1923 11.2941 38.9564 0 25.0962 0C11.2359 0 0 11.2941 0 25.226C0 39.1579 11.2359 50.452 25.0962 50.452Z" fill="#FFC217"/>
<path d="M38.0307 72.3903C51.891 72.3903 63.1269 61.0962 63.1269 47.1643C63.1269 33.2324 51.891 21.9383 38.0307 21.9383C24.1705 21.9383 12.9346 33.2324 12.9346 47.1643C12.9346 61.0962 24.1705 72.3903 38.0307 72.3903Z" fill="white"/>
<mask id="path-3-outside-1_631_71713" maskUnits="userSpaceOnUse" x="5.08838" y="14.6572" width="78" height="81" fill="black">
<rect fill="white" x="5.08838" y="14.6572" width="78" height="81"/>
<path fill-rule="evenodd" clip-rule="evenodd" d="M58.6672 73.8823C57.5946 72.8041 55.893 72.7133 54.62 73.5454C49.7986 76.6969 44.0443 78.5278 37.8645 78.5278C20.8673 78.5278 7.08838 64.6776 7.08838 47.5925C7.08838 30.5074 20.8673 16.6572 37.8645 16.6572C54.8616 16.6572 68.6405 30.5074 68.6405 47.5925C68.6405 54.7714 66.2078 61.3792 62.1257 66.6283C61.1327 67.9052 61.1457 69.7415 62.2865 70.8883L65.3805 73.9983C65.676 74.2953 66.1566 74.2953 66.452 73.9983C66.7475 73.7013 67.2281 73.7013 67.5235 73.9983L80.1285 86.6685C81.2928 87.8388 81.2928 89.7298 80.1285 90.9001L78.92 92.115C77.7471 93.2938 75.8392 93.2938 74.6664 92.115L62.0824 79.4659C61.7865 79.1685 61.7865 78.6879 62.0824 78.3905C62.3783 78.0931 62.3783 77.6126 62.0824 77.3152L58.6672 73.8823ZM13.0679 47.5925C13.0679 61.3581 24.1697 72.5174 37.8645 72.5174C51.5592 72.5174 62.661 61.3581 62.661 47.5925C62.661 33.8269 51.5592 22.6676 37.8645 22.6676C24.1697 22.6676 13.0679 33.8269 13.0679 47.5925Z"/>
</mask>
<path fill-rule="evenodd" clip-rule="evenodd" d="M58.6672 73.8823C57.5946 72.8041 55.893 72.7133 54.62 73.5454C49.7986 76.6969 44.0443 78.5278 37.8645 78.5278C20.8673 78.5278 7.08838 64.6776 7.08838 47.5925C7.08838 30.5074 20.8673 16.6572 37.8645 16.6572C54.8616 16.6572 68.6405 30.5074 68.6405 47.5925C68.6405 54.7714 66.2078 61.3792 62.1257 66.6283C61.1327 67.9052 61.1457 69.7415 62.2865 70.8883L65.3805 73.9983C65.676 74.2953 66.1566 74.2953 66.452 73.9983C66.7475 73.7013 67.2281 73.7013 67.5235 73.9983L80.1285 86.6685C81.2928 87.8388 81.2928 89.7298 80.1285 90.9001L78.92 92.115C77.7471 93.2938 75.8392 93.2938 74.6664 92.115L62.0824 79.4659C61.7865 79.1685 61.7865 78.6879 62.0824 78.3905C62.3783 78.0931 62.3783 77.6126 62.0824 77.3152L58.6672 73.8823ZM13.0679 47.5925C13.0679 61.3581 24.1697 72.5174 37.8645 72.5174C51.5592 72.5174 62.661 61.3581 62.661 47.5925C62.661 33.8269 51.5592 22.6676 37.8645 22.6676C24.1697 22.6676 13.0679 33.8269 13.0679 47.5925Z" fill="#176CF7"/>
<path d="M78.92 92.115L77.5021 90.7044L78.92 92.115ZM74.6664 92.115L76.0842 90.7044L74.6664 92.115ZM80.1285 86.6685L78.7107 88.079L80.1285 86.6685ZM80.1285 90.9001L81.5464 92.3107L80.1285 90.9001ZM67.5235 73.9983L66.1057 75.4089L67.5235 73.9983ZM62.1257 66.6283L63.7045 67.8561L62.1257 66.6283ZM65.3805 73.9983L63.9627 75.4089L65.3805 73.9983ZM58.6672 73.8823L60.085 72.4717L58.6672 73.8823ZM37.8645 80.5278C44.4452 80.5278 50.578 78.5769 55.7143 75.2195L53.5258 71.8713C49.0193 74.817 43.6433 76.5278 37.8645 76.5278V80.5278ZM5.08838 47.5925C5.08838 65.7724 19.753 80.5278 37.8645 80.5278V76.5278C21.9816 76.5278 9.08838 63.5827 9.08838 47.5925H5.08838ZM37.8645 14.6572C19.753 14.6572 5.08838 29.4126 5.08838 47.5925H9.08838C9.08838 31.6022 21.9816 18.6572 37.8645 18.6572V14.6572ZM70.6405 47.5925C70.6405 29.4126 55.9759 14.6572 37.8645 14.6572V18.6572C53.7473 18.6572 66.6405 31.6022 66.6405 47.5925H70.6405ZM63.7045 67.8561C68.0504 62.2676 70.6405 55.2307 70.6405 47.5925H66.6405C66.6405 54.3121 64.3651 60.4907 60.5469 65.4005L63.7045 67.8561ZM60.8687 72.2989L63.9627 75.4089L66.7984 72.5877L63.7044 69.4777L60.8687 72.2989ZM81.5464 85.2579L68.9414 72.5877L66.1057 75.4089L78.7107 88.079L81.5464 85.2579ZM80.3378 93.5255L81.5464 92.3107L78.7107 89.4896L77.5021 90.7044L80.3378 93.5255ZM60.6646 80.8764L73.2485 93.5255L76.0842 90.7044L63.5003 78.0553L60.6646 80.8764ZM63.5003 75.9046L60.085 72.4717L57.2493 75.2928L60.6646 78.7257L63.5003 75.9046ZM37.8645 70.5174C25.284 70.5174 15.0679 60.2633 15.0679 47.5925H11.0679C11.0679 62.4529 23.0554 74.5174 37.8645 74.5174V70.5174ZM60.661 47.5925C60.661 60.2633 50.445 70.5174 37.8645 70.5174V74.5174C52.6735 74.5174 64.661 62.4529 64.661 47.5925H60.661ZM37.8645 24.6676C50.445 24.6676 60.661 34.9217 60.661 47.5925H64.661C64.661 32.732 52.6735 20.6676 37.8645 20.6676V24.6676ZM15.0679 47.5925C15.0679 34.9217 25.284 24.6676 37.8645 24.6676V20.6676C23.0554 20.6676 11.0679 32.732 11.0679 47.5925H15.0679ZM63.5003 79.8011C64.5723 78.7235 64.5723 76.9822 63.5003 75.9046L60.6646 78.7257C60.1842 78.2429 60.1842 77.4628 60.6646 76.98L63.5003 79.8011ZM63.5003 78.0553C63.9806 78.5381 63.9806 79.3183 63.5003 79.8011L60.6646 76.98C59.5925 78.0576 59.5925 79.7988 60.6646 80.8764L63.5003 78.0553ZM77.5021 90.7044C77.1112 91.0974 76.4752 91.0974 76.0842 90.7044L73.2485 93.5255C75.2032 95.4903 78.3831 95.4903 80.3378 93.5255L77.5021 90.7044ZM78.7107 88.079C79.0988 88.4691 79.0988 89.0995 78.7107 89.4896L81.5464 92.3107C83.4869 90.3602 83.4868 87.2084 81.5464 85.2579L78.7107 88.079ZM67.8699 75.4089C67.3835 75.8978 66.5921 75.8978 66.1057 75.4089L68.9414 72.5877C67.8641 71.5048 66.1115 71.5048 65.0342 72.5877L67.8699 75.4089ZM60.5469 65.4005C59.0079 67.3795 58.9381 70.3583 60.8687 72.2989L63.7044 69.4777C63.3532 69.1247 63.2574 68.431 63.7045 67.8561L60.5469 65.4005ZM63.9627 75.4089C65.04 76.4917 66.7926 76.4917 67.8699 75.4089L65.0342 72.5877C65.5206 72.0988 66.312 72.0988 66.7984 72.5877L63.9627 75.4089ZM55.7143 75.2195C56.2821 74.8484 56.9177 74.9595 57.2493 75.2928L60.085 72.4717C58.2714 70.6487 55.504 70.5783 53.5258 71.8713L55.7143 75.2195Z" fill="#003183" mask="url(#path-3-outside-1_631_71713)"/>
<ellipse cx="29.1011" cy="41.4388" rx="3.23339" ry="3.24986" fill="#FFC217"/>
<ellipse cx="45.2666" cy="41.4388" rx="3.23339" ry="3.24986" fill="#FFC217"/>
<path d="M48.1664 61.401C49.2443 61.401 50.134 60.5216 49.963 59.4574C49.5593 56.9453 48.3797 54.6052 46.5667 52.7828C44.2928 50.4971 41.2087 49.213 37.9929 49.213C34.7771 49.213 31.693 50.4971 29.4191 52.7828C27.6061 54.6052 26.4265 56.9453 26.0228 59.4574C25.8518 60.5216 26.7415 61.401 27.8194 61.401C28.8973 61.401 29.7483 60.5153 29.9994 59.4671C30.351 57.9988 31.0994 56.6426 32.1792 55.5572C33.7211 54.0073 35.8123 53.1366 37.9929 53.1366C40.1735 53.1366 42.2647 54.0073 43.8066 55.5572C44.8864 56.6426 45.6348 57.9988 45.9864 59.4671C46.2375 60.5153 47.0885 61.401 48.1664 61.401Z" fill="#FFC217"/>
</svg>
