<svg width="12" height="16" viewBox="0 0 12 16" fill="none" xmlns="http://www.w3.org/2000/svg">
<path d="M6.50808 1.04492H5.49508C4.7253 1.14486 3.99172 1.43181 3.35844 1.88069C2.72515 2.32957 2.21145 2.92673 1.86221 3.61996C1.51298 4.3132 1.33885 5.08142 1.35504 5.85749C1.37123 6.63356 1.57724 7.39385 1.95508 8.07192L5.48808 14.6449C5.53725 14.7385 5.61108 14.8169 5.70158 14.8716C5.79209 14.9263 5.89583 14.9553 6.00158 14.9553C6.10733 14.9553 6.21107 14.9263 6.30158 14.8716C6.39208 14.8169 6.46591 14.7385 6.51508 14.6449L10.0481 8.09192C10.425 7.41232 10.6303 6.65097 10.6462 5.87401C10.662 5.09705 10.488 4.32796 10.1392 3.63353C9.79031 2.9391 9.27722 2.34033 8.64443 1.88921C8.01165 1.43809 7.2783 1.14828 6.50808 1.04492V1.04492Z" stroke="#176CF7" stroke-linecap="round" stroke-linejoin="bevel"/>
<path d="M7.66503 5.64404C7.66503 4.72366 6.91891 3.97754 5.99853 3.97754C5.07815 3.97754 4.33203 4.72366 4.33203 5.64404C4.33203 6.56442 5.07815 7.31054 5.99853 7.31054C6.91891 7.31054 7.66503 6.56442 7.66503 5.64404Z" stroke="#176CF7" stroke-linecap="round" stroke-linejoin="bevel"/>
</svg>
