<svg width="76" height="76" viewBox="0 0 76 76" fill="none" xmlns="http://www.w3.org/2000/svg">
<path d="M37.5078 74C32.7178 74 28.0718 73.0497 23.699 71.1755C19.4726 69.3641 15.6761 66.7699 12.4149 63.4652C9.15182 60.1587 6.58996 56.3083 4.80042 52.0209C2.94738 47.5814 2.00781 42.8641 2.00781 38C2.00781 33.1359 2.94738 28.4186 4.80042 23.9791C6.58996 19.6917 9.15182 15.8413 12.4149 12.5348C15.6761 9.23006 19.4726 6.63594 23.699 4.8245C28.0718 2.9503 32.7178 2 37.5078 2C42.2979 2 46.9438 2.9503 51.3166 4.8245C55.543 6.63594 59.3395 9.23006 62.6008 12.5348C65.8638 15.8413 68.4257 19.6917 70.2152 23.9791C72.0682 28.4186 73.0078 33.1359 73.0078 38C73.0078 42.8641 72.0682 47.5814 70.2152 52.0209C68.4257 56.3083 65.8638 60.1587 62.6008 63.4652C59.3395 66.7699 55.543 69.3641 51.3166 71.1755C46.9438 73.0497 42.2979 74 37.5078 74Z" fill="#FFC217"/>
<path d="M37.5078 4C32.9902 4 28.6093 4.89588 24.4869 6.66276C20.4996 8.37175 16.9169 10.82 13.8384 13.9396C10.7563 17.0628 8.33643 20.6998 6.6461 24.7495C4.89545 28.9436 4.00781 33.4017 4.00781 38C4.00781 42.5983 4.89545 47.0564 6.6461 51.2505C8.33643 55.3002 10.7563 58.9372 13.8384 62.0604C16.9169 65.18 20.4996 67.6283 24.4869 69.3372C28.6093 71.1041 32.9902 72 37.5078 72C42.0255 72 46.4063 71.1041 50.5287 69.3372C54.516 67.6283 58.0987 65.18 61.1772 62.0604C64.2594 58.9372 66.6792 55.3002 68.3695 51.2505C70.1202 47.0564 71.0078 42.5983 71.0078 38C71.0078 33.4017 70.1202 28.9436 68.3695 24.7495C66.6792 20.6998 64.2594 17.0628 61.1772 13.9396C58.0987 10.82 54.516 8.37175 50.5287 6.66276C46.4063 4.89588 42.0255 4 37.5078 4ZM37.5078 0C58.2185 0 75.0078 17.0132 75.0078 38C75.0078 58.9868 58.2185 76 37.5078 76C16.7971 76 0.0078125 58.9868 0.0078125 38C0.0078125 17.0132 16.7971 0 37.5078 0Z" fill="white"/>
<path d="M23.0041 37.3658C23.0126 36.8621 23.1202 36.3651 23.3207 35.903C23.5213 35.441 23.811 35.023 24.1731 34.6729C24.5353 34.3228 24.9629 34.0475 25.4315 33.8627C25.9001 33.6779 26.4005 33.5872 26.9041 33.5958C27.4046 33.5876 27.9018 33.679 28.3666 33.8647C28.8315 34.0504 29.2547 34.3267 29.6118 34.6775C29.9689 35.0284 30.2526 35.4467 30.4465 35.9082C30.6404 36.3697 30.7405 36.8652 30.7411 37.3658V41.1658C30.7619 42.8122 31.4305 44.3841 32.6022 45.541C33.7738 46.6979 35.354 47.3467 37.0006 47.3467C38.6471 47.3467 40.2274 46.6979 41.399 45.541C42.5706 44.3841 43.2393 42.8122 43.2601 41.1658V37.3658C43.2686 36.8621 43.3762 36.3651 43.5767 35.903C43.7773 35.441 44.067 35.023 44.4291 34.6729C44.7913 34.3228 45.2189 34.0475 45.6875 33.8627C46.1561 33.6779 46.6564 33.5872 47.1601 33.5958C47.6605 33.5877 48.1576 33.6792 48.6223 33.865C49.087 34.0507 49.5102 34.3271 49.8672 34.6779C50.2241 35.0287 50.5078 35.447 50.7016 35.9085C50.8954 36.3699 50.9955 36.8653 50.9961 37.3658V41.1658C50.9961 44.8788 49.5211 48.4398 46.8956 51.0653C44.2701 53.6908 40.7091 55.1658 36.9961 55.1658C33.2831 55.1658 29.7221 53.6908 27.0966 51.0653C24.4711 48.4398 22.9961 44.8788 22.9961 41.1658L23.0041 37.3658Z" fill="#176CF7"/>
<path d="M30.8039 27.9518C30.8039 28.7231 30.5752 29.4771 30.1466 30.1185C29.7181 30.7598 29.109 31.2597 28.3964 31.5549C27.6837 31.8501 26.8996 31.9273 26.1431 31.7768C25.3865 31.6263 24.6916 31.2549 24.1462 30.7095C23.6008 30.164 23.2293 29.4691 23.0788 28.7126C22.9284 27.9561 23.0056 27.1719 23.3008 26.4593C23.596 25.7467 24.0958 25.1376 24.7372 24.709C25.3785 24.2805 26.1326 24.0518 26.9039 24.0518C27.9382 24.0518 28.9302 24.4626 29.6616 25.194C30.393 25.9254 30.8039 26.9174 30.8039 27.9518" fill="#176CF7"/>
<path d="M51.007 27.9518C51.007 28.7231 50.7783 29.4771 50.3498 30.1185C49.9212 30.7598 49.3121 31.2597 48.5995 31.5549C47.8869 31.8501 47.1027 31.9273 46.3462 31.7768C45.5897 31.6263 44.8947 31.2549 44.3493 30.7095C43.8039 30.164 43.4325 29.4691 43.282 28.7126C43.1315 27.9561 43.2087 27.1719 43.5039 26.4593C43.7991 25.7467 44.299 25.1376 44.9403 24.709C45.5817 24.2805 46.3357 24.0518 47.107 24.0518C48.1414 24.0518 49.1334 24.4626 49.8647 25.194C50.5961 25.9254 51.007 26.9174 51.007 27.9518" fill="#176CF7"/>
</svg>
