<svg width="25" height="24" viewBox="0 0 25 24" fill="none" xmlns="http://www.w3.org/2000/svg">
<path fill-rule="evenodd" clip-rule="evenodd" d="M12.2767 13.4655C11.6077 13.4655 10.9407 13.2445 10.3827 12.8025L5.89773 9.18648C5.57473 8.92648 5.52473 8.45348 5.78373 8.13148C6.04473 7.81048 6.51673 7.75948 6.83873 8.01848L11.3197 11.6305C11.8827 12.0765 12.6757 12.0765 13.2427 11.6265L17.6787 8.02048C18.0007 7.75748 18.4727 7.80748 18.7347 8.12948C18.9957 8.45048 18.9467 8.92248 18.6257 9.18448L14.1817 12.7965C13.6197 13.2425 12.9477 13.4655 12.2767 13.4655Z" fill="#9DB2CE"/>
<mask id="mask0_1330_79368" style="mask-type:alpha" maskUnits="userSpaceOnUse" x="1" y="2" width="22" height="20">
<path fill-rule="evenodd" clip-rule="evenodd" d="M1.5 2H22.9999V21.5H1.5V2Z" fill="white"/>
</mask>
<g mask="url(#mask0_1330_79368)">
<path fill-rule="evenodd" clip-rule="evenodd" d="M7.339 20H17.159C17.161 19.998 17.169 20 17.175 20C18.316 20 19.328 19.592 20.104 18.817C21.005 17.92 21.5 16.631 21.5 15.188V8.32C21.5 5.527 19.674 3.5 17.159 3.5H7.341C4.826 3.5 3 5.527 3 8.32V15.188C3 16.631 3.496 17.92 4.396 18.817C5.172 19.592 6.185 20 7.325 20H7.339ZM7.322 21.5C5.779 21.5 4.401 20.94 3.337 19.88C2.152 18.698 1.5 17.032 1.5 15.188V8.32C1.5 4.717 4.011 2 7.341 2H17.159C20.489 2 23 4.717 23 8.32V15.188C23 17.032 22.348 18.698 21.163 19.88C20.1 20.939 18.721 21.5 17.175 21.5H17.159H7.341H7.322Z" fill="#9DB2CE"/>
</g>
</svg>
