<svg width="24" height="24" viewBox="0 0 24 24" fill="none" xmlns="http://www.w3.org/2000/svg">
<path fill-rule="evenodd" clip-rule="evenodd" d="M19.253 17.9205H5.06641L7.31212 6.69539C7.53623 5.57485 8.14165 4.56657 9.02537 3.84208C9.90909 3.1176 11.0165 2.72168 12.1593 2.72168V2.72168C13.302 2.72168 14.4094 3.1176 15.2932 3.84208C16.1769 4.56657 16.7823 5.57485 17.0064 6.69539L19.253 17.9205Z" stroke="white" stroke-width="2" stroke-linecap="round" stroke-linejoin="round"/>
<path d="M3.24414 18.1621H21.4061" stroke="white" stroke-width="2" stroke-linecap="round" stroke-linejoin="round"/>
<path d="M15.2008 17.9209C15.2008 18.7271 14.8805 19.5003 14.3105 20.0704C13.7404 20.6405 12.9672 20.9608 12.161 20.9608C11.3547 20.9608 10.5815 20.6405 10.0114 20.0704C9.44136 19.5003 9.12109 18.7271 9.12109 17.9209" stroke="white" stroke-width="2" stroke-linecap="round" stroke-linejoin="round"/>
<path d="M17 9C19.2091 9 21 7.20914 21 5C21 2.79086 19.2091 1 17 1C14.7909 1 13 2.79086 13 5C13 7.20914 14.7909 9 17 9Z" fill="#F71717" stroke="white"/>
</svg>
