<svg width="120" height="120" viewBox="0 0 120 120" fill="none" xmlns="http://www.w3.org/2000/svg">
<path d="M60.0003 115.049C90.5023 115.049 115.229 100.775 115.229 83.1672C115.229 65.5595 90.5023 51.2856 60.0003 51.2856C29.4983 51.2856 4.77148 65.5595 4.77148 83.1672C4.77148 100.775 29.4983 115.049 60.0003 115.049Z" fill="#1666EA"/>
<path d="M42.1512 18.1827L40.3248 19.2387C40.3342 19.159 40.339 19.0789 40.3392 18.9987V18.4707C40.3392 17.5275 39.6768 17.1459 38.8608 17.6163C38.5107 17.8333 38.2105 18.122 37.98 18.4635C37.848 17.2779 36.9168 16.8363 35.7888 17.4891C34.5672 18.1947 33.576 19.9083 33.576 21.3291V22.1211C33.569 22.4368 33.633 22.7502 33.7632 23.0379L32.2368 23.9019C31.9979 24.0574 31.799 24.2672 31.6564 24.5141C31.5138 24.7609 31.4314 25.038 31.416 25.3227C31.416 25.8459 31.7832 26.0571 32.2368 25.8027L42.1416 20.0835C42.3802 19.9282 42.5789 19.7188 42.7215 19.4724C42.8641 19.2259 42.9467 18.9494 42.9624 18.6651C42.972 18.1347 42.6048 17.9211 42.1512 18.1827Z" fill="#E6E6E6"/>
<path d="M19.0702 20.5418L20.0782 19.7618V17.5442C20.0782 15.7826 21.4822 13.7378 23.0062 12.857C24.5326 11.9762 25.7686 12.6914 25.7686 14.453V14.7746C26.0895 14.253 26.5285 13.814 27.0502 13.493C28.147 12.8594 29.0374 13.373 29.0374 14.6402V14.7866L30.4438 13.9754C31.1638 13.5578 31.7518 13.8962 31.7518 14.7314C31.7269 15.1852 31.5956 15.6268 31.3683 16.0204C31.1411 16.414 30.8244 16.7486 30.4438 16.997L19.0702 23.5634C18.3502 23.981 17.7598 23.6426 17.7598 22.8074C17.7837 22.3531 17.915 21.911 18.1427 21.5172C18.3705 21.1234 18.6883 20.7891 19.0702 20.5418Z" fill="#E6E6E6"/>
<path d="M54.11 107.177L19.8548 87.4013C19.2932 87.0773 19.2932 86.5517 19.8548 86.2253L69.3764 57.6365C69.6915 57.4755 70.0402 57.3916 70.394 57.3916C70.7478 57.3916 71.0965 57.4755 71.4116 57.6365L105.657 77.4077C106.219 77.7317 106.219 78.2573 105.657 78.5813L56.1452 107.177C55.8298 107.337 55.4812 107.42 55.1276 107.42C54.774 107.42 54.4254 107.337 54.11 107.177Z" fill="#135FDD"/>
<path d="M21.9697 84.6796C21.9971 85.0522 22.1117 85.4132 22.3043 85.7334C22.497 86.0536 22.7622 86.324 23.0785 86.5228L54.1561 104.465C54.5003 104.639 54.8805 104.73 55.2661 104.73C55.6518 104.73 56.032 104.639 56.3761 104.465L102.435 77.8756C102.769 77.698 103.049 77.4327 103.244 77.1082C103.439 76.7837 103.542 76.4122 103.542 76.0336C103.542 75.655 103.439 75.2835 103.244 74.959C103.049 74.6345 102.769 74.3692 102.435 74.1916L71.3569 56.242C71.0131 56.0669 70.6328 55.9756 70.2469 55.9756C69.8611 55.9756 69.4807 56.0669 69.1369 56.242L23.0785 82.8388C22.7622 83.0371 22.497 83.307 22.3044 83.6268C22.1117 83.9466 21.9971 84.3073 21.9697 84.6796Z" fill="#37474F"/>
<path d="M55.2763 102.322V104.722C54.8902 104.731 54.5083 104.64 54.1675 104.458L23.0779 86.5226C22.7532 86.3512 22.4797 86.0969 22.2852 85.7854C22.0907 85.4739 21.9822 85.1165 21.9707 84.7495C21.9593 84.3824 22.0453 84.0189 22.2199 83.6959C22.3946 83.3729 22.6517 83.102 22.9651 82.9106C22.4683 83.2658 22.5067 83.789 23.0779 84.1106L54.1579 102.055C54.5013 102.24 54.8867 102.331 55.2763 102.322Z" fill="#263238"/>
<path d="M20.9279 82.8819C20.6191 82.6719 20.3641 82.3921 20.1836 82.0652C20.003 81.7383 19.902 81.3735 19.8887 81.0003V43.9083C19.9097 43.5237 20.0211 43.1495 20.2137 42.8159C20.4064 42.4823 20.6749 42.1988 20.9975 41.9883L67.0559 15.3987C67.3873 15.2225 67.7557 15.1269 68.131 15.1198C68.5063 15.1127 68.878 15.1943 69.2159 15.3579C69.5242 15.5684 69.7789 15.8483 69.9594 16.1751C70.1399 16.5019 70.2412 16.8665 70.2551 17.2395V54.3219C70.2342 54.7066 70.1229 55.0809 69.9303 55.4145C69.7376 55.7481 69.469 56.0316 69.1463 56.2419L23.0783 82.8387C22.7483 83.014 22.3818 83.1092 22.0082 83.1167C21.6347 83.1242 21.2646 83.0438 20.9279 82.8819Z" fill="#455A64"/>
<path d="M22.9487 82.906C22.63 83.0484 22.2841 83.1197 21.9351 83.1147C21.5861 83.1097 21.2423 83.0287 20.9279 82.8772C20.6191 82.6672 20.3641 82.3874 20.1836 82.0605C20.003 81.7336 19.902 81.3688 19.8887 80.9956V43.9084C19.9009 43.5223 20.0134 43.1459 20.2151 42.8164L22.2935 44.0164C22.0949 44.3463 21.9834 44.7212 21.9695 45.106V82.198C21.9695 82.8532 22.3967 83.1484 22.9487 82.906Z" fill="#263238"/>
<path d="M21.9697 45.1108V82.198C21.9697 82.918 22.4665 83.1916 23.0785 82.8388L69.1369 56.242C69.4597 56.0317 69.7282 55.7482 69.9209 55.4146C70.1136 55.081 70.2248 54.7067 70.2457 54.322V17.2396C70.2457 16.534 69.7513 16.246 69.1369 16.6012L23.0785 43.1884C22.7559 43.3994 22.4874 43.6834 22.2948 44.0173C22.1022 44.3513 21.9908 44.7259 21.9697 45.1108Z" fill="#37474F"/>
<path d="M23.0781 84.118L54.1557 102.063C54.4999 102.237 54.8801 102.327 55.2657 102.327C55.6514 102.327 56.0316 102.237 56.3757 102.063L102.434 75.4732C103.046 75.118 103.046 74.5444 102.434 74.1916L71.3565 56.242C71.0127 56.0669 70.6324 55.9756 70.2465 55.9756C69.8607 55.9756 69.4803 56.0669 69.1365 56.242L23.0781 82.8388C22.4661 83.1916 22.4661 83.7652 23.0781 84.118Z" fill="#455A64"/>
<path d="M23.676 44.6139L68.208 18.9099C68.5752 18.6987 68.8752 18.8715 68.8752 19.2963V53.5131C68.8624 53.7441 68.7953 53.9687 68.6793 54.1689C68.5634 54.369 68.4019 54.5391 68.208 54.6651L23.676 80.3691C23.3088 80.5803 23.0088 80.4075 23.0088 79.9827V45.7659C23.0216 45.535 23.0887 45.3103 23.2046 45.1101C23.3206 44.91 23.482 44.74 23.676 44.6139Z" fill="#FFFBEF"/>
<path d="M26.6856 83.1579L69.6936 58.3323C69.8653 58.2447 70.0553 58.199 70.248 58.199C70.4408 58.199 70.6308 58.2447 70.8024 58.3323L72.8208 59.4963C73.1256 59.6739 73.1256 59.9595 72.8208 60.1371L29.808 84.9603C29.6364 85.048 29.4464 85.0937 29.2536 85.0937C29.0609 85.0937 28.8709 85.048 28.6992 84.9603L26.6856 83.7987C26.3808 83.6211 26.3808 83.3355 26.6856 83.1579Z" fill="#37474F"/>
<path d="M31.8884 86.1628L74.894 61.3348C75.0656 61.2471 75.2556 61.2014 75.4484 61.2014C75.6411 61.2014 75.8311 61.2471 76.0028 61.3348L88.4204 68.5036C88.7276 68.6812 88.7276 68.9692 88.4204 69.1444L45.4604 93.9412C45.2881 94.0281 45.0978 94.0734 44.9048 94.0734C44.7118 94.0734 44.5215 94.0281 44.3492 93.9412L31.8908 86.8012C31.5836 86.626 31.5812 86.338 31.8884 86.1628Z" fill="#263238"/>
<path d="M69.6766 71.8923L71.0302 71.1099C71.0878 71.0763 71.0902 71.0235 71.0302 70.9899L69.6094 70.1619C69.5771 70.1465 69.5419 70.1386 69.5062 70.1386C69.4705 70.1386 69.4352 70.1465 69.403 70.1619L68.047 70.9443C67.9918 70.9779 67.9894 71.0307 68.047 71.0619L69.487 71.8875C69.5166 71.9011 69.5487 71.9086 69.5813 71.9094C69.6139 71.9102 69.6463 71.9044 69.6766 71.8923ZM67.3558 68.9883L66.0022 69.7707C65.99 69.775 65.9795 69.783 65.9721 69.7935C65.9646 69.804 65.9606 69.8166 65.9606 69.8295C65.9606 69.8424 65.9646 69.8549 65.9721 69.8655C65.9795 69.876 65.99 69.884 66.0022 69.8883L67.4422 70.7139C67.4744 70.7292 67.5096 70.7372 67.5454 70.7372C67.5811 70.7372 67.6163 70.7292 67.6486 70.7139L69.0046 69.9315C69.0176 69.9278 69.0291 69.9199 69.0372 69.9091C69.0454 69.8982 69.0498 69.885 69.0498 69.8715C69.0498 69.8579 69.0454 69.8447 69.0372 69.8339C69.0291 69.8231 69.0176 69.8152 69.0046 69.8115L67.5646 68.9859C67.5325 68.9713 67.4975 68.9639 67.4623 68.9643C67.427 68.9647 67.3923 68.9729 67.3606 68.9883H67.3558ZM62.9806 71.5131L60.691 72.8355C60.6334 72.8691 60.631 72.9243 60.691 72.9555L62.131 73.7811C62.1632 73.7964 62.1985 73.8044 62.2342 73.8044C62.2699 73.8044 62.3051 73.7964 62.3374 73.7811L64.6294 72.4587C64.687 72.4251 64.687 72.3723 64.6294 72.3387L63.1894 71.5155C63.158 71.4989 63.1231 71.49 63.0876 71.4896C63.0522 71.4892 63.0171 71.4972 62.9854 71.5131H62.9806ZM65.3806 70.1307L64.0246 70.9131C63.967 70.9467 63.967 70.9995 64.0246 71.0307L65.4646 71.8563C65.4968 71.8716 65.5321 71.8796 65.5678 71.8796C65.6035 71.8796 65.6387 71.8716 65.671 71.8563L67.0246 71.0739C67.0822 71.0403 67.0822 70.9875 67.0246 70.9539L65.5846 70.1283C65.5531 70.113 65.5185 70.1053 65.4835 70.1057C65.4485 70.1061 65.4141 70.1147 65.383 70.1307H65.3806ZM60.0766 73.1979L58.723 73.9779C58.6654 74.0115 58.6654 74.0667 58.723 74.0979L60.163 74.9235C60.1952 74.9388 60.2304 74.9468 60.2662 74.9468C60.3019 74.9468 60.3371 74.9388 60.3694 74.9235L61.723 74.1435C61.7806 74.1099 61.7806 74.0571 61.723 74.0235L60.283 73.1979C60.2507 73.1825 60.2155 73.1746 60.1798 73.1746C60.144 73.1746 60.1088 73.1825 60.0766 73.1979ZM58.099 74.3403L56.743 75.1227C56.7308 75.127 56.7203 75.135 56.7129 75.1455C56.7054 75.156 56.7014 75.1686 56.7014 75.1815C56.7014 75.1944 56.7054 75.2069 56.7129 75.2175C56.7203 75.228 56.7308 75.236 56.743 75.2403L58.1566 76.0659C58.1884 76.0825 58.2238 76.0912 58.2598 76.0912C58.2957 76.0912 58.3311 76.0825 58.363 76.0659L59.7166 75.2859C59.7742 75.2523 59.7742 75.1995 59.7166 75.1659L58.2886 74.3403C58.2576 74.3264 58.2241 74.3192 58.1902 74.3192C58.1562 74.3192 58.1227 74.3264 58.0918 74.3403H58.099ZM63.7102 77.7003L65.0638 76.9179C65.1214 76.8843 65.1214 76.8315 65.0638 76.8003L63.6358 75.9747C63.6035 75.9593 63.5683 75.9514 63.5326 75.9514C63.4968 75.9514 63.4616 75.9593 63.4294 75.9747L62.0734 76.7571C62.0603 76.7608 62.0488 76.7687 62.0407 76.7795C62.0325 76.7903 62.0281 76.8035 62.0281 76.8171C62.0281 76.8307 62.0325 76.8438 62.0407 76.8547C62.0488 76.8655 62.0603 76.8734 62.0734 76.8771L63.5014 77.7027C63.5331 77.7169 63.5676 77.7241 63.6024 77.7237C63.6372 77.7233 63.6715 77.7153 63.703 77.7003H63.7102ZM61.7302 78.8427L63.0862 78.0603C63.1438 78.0267 63.1438 77.9739 63.0862 77.9427L61.651 77.1219C61.6187 77.1065 61.5835 77.0986 61.5478 77.0986C61.5121 77.0986 61.4768 77.1065 61.4446 77.1219L60.091 77.9043C60.0334 77.9379 60.0334 77.9907 60.091 78.0243L61.519 78.8499C61.5514 78.8638 61.5865 78.8703 61.6218 78.8691C61.657 78.8678 61.6916 78.8588 61.723 78.8427H61.7302ZM59.7526 79.9851L61.1062 79.2027C61.1183 79.1984 61.1288 79.1904 61.1362 79.1799C61.1437 79.1693 61.1477 79.1568 61.1477 79.1439C61.1477 79.131 61.1437 79.1184 61.1362 79.1079C61.1288 79.0974 61.1183 79.0894 61.1062 79.0851L59.6662 78.2595C59.6343 78.2429 59.5989 78.2342 59.563 78.2342C59.527 78.2342 59.4916 78.2429 59.4598 78.2595L58.111 79.0419C58.0534 79.0755 58.0534 79.1283 58.111 79.1619L59.551 79.9875C59.5817 80.0007 59.6149 80.0073 59.6484 80.0069C59.6819 80.0064 59.7149 79.999 59.7454 79.9851H59.7526ZM57.7726 81.1275L59.1262 80.3451C59.1838 80.3139 59.1862 80.2587 59.1262 80.2275L57.6862 79.4019C57.6539 79.3865 57.6187 79.3786 57.583 79.3786C57.5472 79.3786 57.512 79.3865 57.4798 79.4019L56.1262 80.1819C56.0686 80.2155 56.0662 80.2683 56.1262 80.3019L57.5542 81.1275C57.587 81.1436 57.6231 81.152 57.6598 81.152C57.6964 81.152 57.7325 81.1436 57.7654 81.1275H57.7726ZM67.7014 73.0419L69.0574 72.2595C69.0704 72.2558 69.0819 72.2479 69.09 72.2371C69.0982 72.2262 69.1026 72.213 69.1026 72.1995C69.1026 72.1859 69.0982 72.1727 69.09 72.1619C69.0819 72.1511 69.0704 72.1432 69.0574 72.1395L67.6174 71.3163C67.5855 71.2997 67.5501 71.291 67.5142 71.291C67.4782 71.291 67.4428 71.2997 67.411 71.3163L66.0766 72.0819C66.019 72.1155 66.019 72.1683 66.0766 72.1995L67.5046 73.0251C67.5343 73.0417 67.5672 73.0518 67.6011 73.0547C67.6351 73.0576 67.6692 73.0532 67.7014 73.0419ZM65.683 76.5651L68.7022 74.8203C68.7598 74.7867 68.7598 74.7339 68.7022 74.7027L65.2318 72.6987C65.1995 72.6833 65.1643 72.6754 65.1286 72.6754C65.0928 72.6754 65.0576 72.6833 65.0254 72.6987L63.463 73.6011C63.4054 73.6347 63.4054 73.6875 63.463 73.7211L65.3014 74.7819C65.3135 74.7862 65.324 74.7942 65.3314 74.8047C65.3389 74.8152 65.3429 74.8278 65.3429 74.8407C65.3429 74.8536 65.3389 74.8661 65.3314 74.8767C65.324 74.8872 65.3135 74.8952 65.3014 74.8995L64.051 75.6195C63.9934 75.6531 63.9934 75.7059 64.051 75.7395L65.491 76.5627C65.5213 76.5762 65.5543 76.5828 65.5875 76.582C65.6207 76.5812 65.6533 76.5729 65.683 76.5579V76.5651ZM56.1118 75.4899L54.7582 76.2723C54.746 76.2766 54.7355 76.2846 54.7281 76.2951C54.7206 76.3056 54.7166 76.3182 54.7166 76.3311C54.7166 76.344 54.7206 76.3565 54.7281 76.3671C54.7355 76.3776 54.746 76.3856 54.7582 76.3899L56.1862 77.2155C56.2184 77.2308 56.2536 77.2388 56.2894 77.2388C56.3251 77.2388 56.3603 77.2308 56.3926 77.2155L57.7486 76.4331C57.7616 76.4294 57.7731 76.4215 57.7812 76.4107C57.7894 76.3998 57.7938 76.3866 57.7938 76.3731C57.7938 76.3595 57.7894 76.3463 57.7812 76.3355C57.7731 76.3247 57.7616 76.3168 57.7486 76.3131L56.3206 75.4875C56.2884 75.471 56.2529 75.462 56.2167 75.4612C56.1805 75.4604 56.1447 75.4677 56.1118 75.4827V75.4899ZM54.1342 76.6323L52.7782 77.4147C52.7206 77.4483 52.7206 77.5011 52.7782 77.5323L54.2182 78.3579C54.2504 78.3732 54.2857 78.3812 54.3214 78.3812C54.3571 78.3812 54.3923 78.3732 54.4246 78.3579L55.7782 77.5755C55.8358 77.5419 55.8358 77.4891 55.7782 77.4555L54.3382 76.6299C54.3069 76.6131 54.2722 76.6039 54.2367 76.6031C54.2013 76.6023 54.1661 76.6098 54.1342 76.6251V76.6323ZM43.7062 89.1219C43.7384 89.1372 43.7737 89.1452 43.8094 89.1452C43.8451 89.1452 43.8803 89.1372 43.9126 89.1219L45.2662 88.3395C45.3238 88.3059 45.3262 88.2531 45.2662 88.2195L43.8262 87.3963C43.7943 87.3797 43.7589 87.371 43.723 87.371C43.687 87.371 43.6516 87.3797 43.6198 87.3963L42.2662 88.1787C42.2086 88.2123 42.2062 88.2651 42.2662 88.2963L43.7062 89.1219ZM38.3014 85.7619L36.9478 86.5419C36.8902 86.5755 36.8878 86.6283 36.9478 86.6619L38.3758 87.4875C38.408 87.5028 38.4432 87.5108 38.479 87.5108C38.5147 87.5108 38.5499 87.5028 38.5822 87.4875L39.9358 86.7051C39.9934 86.6739 39.9958 86.6187 39.9358 86.5875L38.4958 85.7619C38.4655 85.7472 38.4322 85.7396 38.3986 85.7396C38.3649 85.7396 38.3317 85.7472 38.3014 85.7619ZM41.1454 88.2435C41.1772 88.2601 41.2126 88.2688 41.2486 88.2688C41.2845 88.2688 41.3199 88.2601 41.3518 88.2435L42.7054 87.4611C42.763 87.4275 42.763 87.3747 42.7054 87.3435L41.2654 86.5179C41.2335 86.5013 41.1981 86.4926 41.1622 86.4926C41.1262 86.4926 41.0908 86.5013 41.059 86.5179L39.7054 87.3003C39.6478 87.3339 39.6478 87.3867 39.7054 87.4203L41.1454 88.2435ZM46.9966 89.6979L48.3502 88.9155C48.3623 88.9112 48.3728 88.9032 48.3802 88.8927C48.3877 88.8821 48.3917 88.8696 48.3917 88.8567C48.3917 88.8438 48.3877 88.8312 48.3802 88.8207C48.3728 88.8102 48.3623 88.8022 48.3502 88.7979L46.9102 87.9723C46.8779 87.9569 46.8427 87.949 46.807 87.949C46.7713 87.949 46.736 87.9569 46.7038 87.9723L45.3502 88.7523C45.2926 88.7859 45.2926 88.8387 45.3502 88.8723L46.7902 89.6979C46.822 89.714 46.8571 89.7228 46.8928 89.7236C46.9285 89.7244 46.964 89.7173 46.9966 89.7027V89.6979ZM44.8102 90.8427C44.8424 90.858 44.8777 90.866 44.9134 90.866C44.9491 90.866 44.9843 90.858 45.0166 90.8427L46.3702 90.0603C46.4278 90.0291 46.4302 89.9739 46.3702 89.9427L44.9566 89.1219C44.9243 89.1065 44.8891 89.0986 44.8534 89.0986C44.8177 89.0986 44.7824 89.1065 44.7502 89.1219L43.3966 89.9019C43.339 89.9355 43.3366 89.9883 43.3966 90.0219L44.8102 90.8427ZM40.2814 84.6171L38.9254 85.3995C38.9123 85.4032 38.9008 85.4111 38.8927 85.4219C38.8845 85.4327 38.8801 85.4459 38.8801 85.4595C38.8801 85.473 38.8845 85.4862 38.8927 85.4971C38.9008 85.5079 38.9123 85.5158 38.9254 85.5195L40.3534 86.3451C40.3856 86.3604 40.4208 86.3684 40.4566 86.3684C40.4923 86.3684 40.5275 86.3604 40.5598 86.3451L41.9134 85.5627C41.971 85.5291 41.971 85.4763 41.9134 85.4451L40.4734 84.6195C40.4431 84.6057 40.4103 84.5988 40.3771 84.5992C40.3439 84.5997 40.3112 84.6074 40.2814 84.6219V84.6171ZM50.1742 78.9051L48.8206 79.6875C48.763 79.7211 48.763 79.7739 48.8206 79.8051L50.2606 80.6307C50.2924 80.6473 50.3278 80.656 50.3638 80.656C50.3997 80.656 50.4351 80.6473 50.467 80.6307L51.8206 79.8483C51.8782 79.8147 51.8782 79.7619 51.8206 79.7283L50.3806 78.9051C50.3483 78.8892 50.3127 78.8814 50.2768 78.8822C50.2408 78.883 50.2056 78.8925 50.1742 78.9099V78.9051ZM42.2542 83.4651L40.9006 84.2475C40.843 84.2811 40.843 84.3339 40.9006 84.3675L42.3286 85.1907C42.3604 85.2073 42.3958 85.216 42.4318 85.216C42.4677 85.216 42.5031 85.2073 42.535 85.1907L43.891 84.4083C43.9486 84.3747 43.9486 84.3219 43.891 84.2907L42.463 83.4651C42.43 83.4523 42.3946 83.447 42.3593 83.4495C42.3241 83.452 42.2898 83.4622 42.259 83.4795L42.2542 83.4651ZM52.1566 77.7675L50.8006 78.5619C50.743 78.5955 50.7406 78.6483 50.8006 78.6795L52.2286 79.5051C52.2604 79.5217 52.2958 79.5304 52.3318 79.5304C52.3677 79.5304 52.4031 79.5217 52.435 79.5051L53.7886 78.7227C53.8462 78.6891 53.8486 78.6363 53.7886 78.6027L52.3486 77.7795C52.3195 77.7633 52.2871 77.7538 52.2539 77.7517C52.2207 77.7497 52.1874 77.755 52.1566 77.7675ZM48.199 80.0523L46.8454 80.8347C46.7878 80.8683 46.7854 80.9211 46.8454 80.9547L48.2854 81.7779C48.3172 81.7945 48.3526 81.8032 48.3886 81.8032C48.4245 81.8032 48.4599 81.7945 48.4918 81.7779L49.8454 80.9955C49.903 80.9619 49.9054 80.9091 49.8454 80.8755L48.4174 80.0523C48.3837 80.0331 48.3457 80.0231 48.307 80.0231C48.2682 80.0231 48.2302 80.0331 48.1966 80.0523H48.199ZM46.2166 81.2019L44.863 81.9843C44.8054 82.0179 44.8054 82.0707 44.863 82.1043L46.303 82.9275C46.3348 82.9441 46.3702 82.9528 46.4062 82.9528C46.4421 82.9528 46.4775 82.9441 46.5094 82.9275L47.863 82.1451C47.9206 82.1115 47.9206 82.0587 47.863 82.0275L46.423 81.2019C46.3911 81.1853 46.3557 81.1766 46.3198 81.1766C46.2838 81.1766 46.2484 81.1853 46.2166 81.2019ZM44.2366 82.3371L42.8854 83.1219C42.8278 83.1555 42.8254 83.2083 42.8854 83.2419L44.3134 84.0651C44.3452 84.0817 44.3806 84.0904 44.4166 84.0904C44.4525 84.0904 44.4879 84.0817 44.5198 84.0651L45.8734 83.2827C45.931 83.2491 45.9334 83.1963 45.8734 83.1651L44.4454 82.3395C44.413 82.3234 44.3774 82.3148 44.3412 82.3144C44.3051 82.314 44.2693 82.3217 44.2366 82.3371ZM53.8054 83.4123L55.159 82.6323C55.2166 82.5987 55.219 82.5459 55.159 82.5123L53.7358 81.6819C53.7035 81.6665 53.6683 81.6586 53.6326 81.6586C53.5968 81.6586 53.5616 81.6665 53.5294 81.6819L52.1758 82.4619C52.1182 82.4955 52.1158 82.5483 52.1758 82.5819L53.6158 83.4075C53.6457 83.4215 53.6782 83.4291 53.7113 83.4299C53.7443 83.4308 53.7771 83.4247 53.8078 83.4123H53.8054ZM71.7334 66.4635L70.3798 67.2435C70.3222 67.2771 70.3198 67.3299 70.3798 67.3635L71.8078 68.1891C71.84 68.2044 71.8752 68.2124 71.911 68.2124C71.9467 68.2124 71.9819 68.2044 72.0142 68.1891L73.3678 67.4067C73.4254 67.3755 73.4278 67.3203 73.3678 67.2891L71.9398 66.4635C71.9082 66.4473 71.8732 66.4388 71.8378 66.4388C71.8023 66.4388 71.7673 66.4473 71.7358 66.4635H71.7334ZM69.3334 67.8459L67.9966 68.6283C67.9844 68.6326 67.9739 68.6406 67.9665 68.6511C67.959 68.6616 67.955 68.6742 67.955 68.6871C67.955 68.7 67.959 68.7125 67.9665 68.7231C67.9739 68.7336 67.9844 68.7416 67.9966 68.7459L69.4246 69.5715C69.4568 69.5868 69.4921 69.5948 69.5278 69.5948C69.5635 69.5948 69.5987 69.5868 69.631 69.5715L70.9846 68.7915C71.0422 68.7579 71.0422 68.7051 70.9846 68.6715L69.5446 67.8459C69.5126 67.8309 69.4778 67.8231 69.4426 67.8231C69.4073 67.8231 69.3725 67.8309 69.3406 67.8459H69.3334ZM73.7062 65.3187L72.3526 66.1011C72.295 66.1347 72.295 66.1875 72.3526 66.2211L73.7926 67.0467C73.8248 67.062 73.86 67.07 73.8958 67.07C73.9315 67.07 73.9667 67.062 73.999 67.0467L75.3526 66.2643C75.4102 66.2307 75.4102 66.1779 75.3526 66.1467L73.9126 65.3211C73.8815 65.3064 73.8476 65.2987 73.8132 65.2982C73.7789 65.2978 73.7448 65.3048 73.7134 65.3187H73.7062ZM63.1198 75.6819L64.4734 74.8995C64.4855 74.8952 64.496 74.8872 64.5034 74.8767C64.5109 74.8661 64.5149 74.8536 64.5149 74.8407C64.5149 74.8278 64.5109 74.8152 64.5034 74.8047C64.496 74.7942 64.4855 74.7862 64.4734 74.7819L63.0334 73.9563C63.0011 73.9409 62.9659 73.933 62.9302 73.933C62.8944 73.933 62.8592 73.9409 62.827 73.9563L61.471 74.7387C61.4579 74.7424 61.4464 74.7503 61.4383 74.7611C61.4301 74.7719 61.4257 74.7851 61.4257 74.7987C61.4257 74.8122 61.4301 74.8254 61.4383 74.8363C61.4464 74.8471 61.4579 74.855 61.471 74.8587L62.899 75.6843C62.9333 75.7016 62.9712 75.7104 63.0096 75.71C63.0481 75.7096 63.0858 75.6999 63.1198 75.6819ZM75.8998 64.1787C75.8675 64.1633 75.8323 64.1554 75.7966 64.1554C75.7608 64.1554 75.7256 64.1633 75.6934 64.1787L74.3398 64.9611C74.2822 64.9947 74.2798 65.0475 74.3398 65.0811L75.7678 65.9067C75.8 65.922 75.8352 65.93 75.871 65.93C75.9067 65.93 75.9419 65.922 75.9742 65.9067L77.3278 65.1243C77.3854 65.0907 77.3878 65.0379 77.3278 65.0067L75.8998 64.1787ZM55.7878 82.2723L57.1414 81.4923C57.199 81.4587 57.199 81.4035 57.1414 81.3723L55.7014 80.5467C55.6691 80.5313 55.6339 80.5234 55.5982 80.5234C55.5624 80.5234 55.5272 80.5313 55.495 80.5467L54.1414 81.3267C54.0838 81.3603 54.0838 81.4131 54.1414 81.4467L55.5814 82.2723C55.6138 82.2873 55.6491 82.2948 55.6848 82.2944C55.7205 82.294 55.7557 82.2856 55.7878 82.2699V82.2723ZM80.0542 68.2611L81.4102 67.4787C81.4223 67.4744 81.4328 67.4664 81.4402 67.4559C81.4477 67.4453 81.4517 67.4328 81.4517 67.4199C81.4517 67.407 81.4477 67.3944 81.4402 67.3839C81.4328 67.3734 81.4223 67.3654 81.4102 67.3611L79.9702 66.5355C79.9379 66.5201 79.9027 66.5122 79.867 66.5122C79.8312 66.5122 79.796 66.5201 79.7638 66.5355L78.4102 67.3155C78.3526 67.3491 78.3526 67.4019 78.4102 67.4355L79.8502 68.2611C79.882 68.2767 79.917 68.2847 79.9524 68.2843C79.9879 68.2838 80.0227 68.2751 80.0542 68.2587V68.2611ZM76.0342 68.2251L77.3902 67.4427C77.4023 67.4384 77.4128 67.4304 77.4202 67.4199C77.4277 67.4093 77.4317 67.3968 77.4317 67.3839C77.4317 67.371 77.4277 67.3584 77.4202 67.3479C77.4128 67.3374 77.4023 67.3294 77.3902 67.3251L75.9622 66.4995C75.9299 66.4841 75.8947 66.4762 75.859 66.4762C75.8232 66.4762 75.788 66.4841 75.7558 66.4995L74.4022 67.2819C74.3446 67.3155 74.3422 67.3683 74.4022 67.4019L75.8302 68.2275C75.8624 68.2417 75.8974 68.2487 75.9327 68.2478C75.9679 68.247 76.0026 68.2384 76.0342 68.2227V68.2251ZM77.9398 65.3619C77.9081 65.3459 77.8732 65.3375 77.8378 65.3375C77.8023 65.3375 77.7674 65.3459 77.7358 65.3619L76.3798 66.1443C76.3667 66.148 76.3552 66.1559 76.3471 66.1667C76.3389 66.1775 76.3345 66.1907 76.3345 66.2043C76.3345 66.2179 76.3389 66.231 76.3471 66.2419C76.3552 66.2527 76.3667 66.2606 76.3798 66.2643L77.8078 67.0899C77.84 67.1052 77.8752 67.1132 77.911 67.1132C77.9467 67.1132 77.9819 67.1052 78.0142 67.0899L79.3678 66.3075C79.3799 66.3032 79.3904 66.2952 79.3978 66.2847C79.4053 66.2741 79.4093 66.2616 79.4093 66.2487C79.4093 66.2358 79.4053 66.2232 79.3978 66.2127C79.3904 66.2022 79.3799 66.1942 79.3678 66.1899L77.9398 65.3619ZM78.3574 65.1219L81.8278 67.1259C81.86 67.1412 81.8952 67.1492 81.931 67.1492C81.9667 67.1492 82.0019 67.1412 82.0342 67.1259L83.3878 66.3435C83.4454 66.3123 83.4478 66.2571 83.3878 66.2259L79.9174 64.2219C79.8851 64.2065 79.8499 64.1986 79.8142 64.1986C79.7784 64.1986 79.7432 64.2065 79.711 64.2219L78.3574 65.0043C78.3022 65.0283 78.3022 65.0811 78.3574 65.1219ZM73.7758 67.6419L72.4222 68.4219C72.3646 68.4555 72.3646 68.5083 72.4222 68.5419L73.8622 69.3675C73.8944 69.3828 73.9296 69.3908 73.9654 69.3908C74.0011 69.3908 74.0363 69.3828 74.0686 69.3675L75.4222 68.5875C75.4798 68.5539 75.4798 68.4987 75.4222 68.4675L73.9822 67.6419C73.9499 67.6265 73.9147 67.6186 73.879 67.6186C73.8433 67.6186 73.808 67.6265 73.7758 67.6419ZM58.8766 76.2411L57.523 77.0211C57.4654 77.0547 57.4654 77.1075 57.523 77.1411L58.963 77.9667C58.9952 77.982 59.0304 77.99 59.0662 77.99C59.1019 77.99 59.1371 77.982 59.1694 77.9667L60.523 77.1867C60.5806 77.1531 60.5806 77.0979 60.523 77.0667L59.083 76.2411C59.0507 76.2257 59.0155 76.2178 58.9798 76.2178C58.944 76.2178 58.9088 76.2257 58.8766 76.2411ZM77.8654 69.4035C77.8976 69.4188 77.9328 69.4268 77.9686 69.4268C78.0043 69.4268 78.0395 69.4188 78.0718 69.4035L79.4254 68.6235C79.483 68.5899 79.483 68.5347 79.4254 68.5035L77.9974 67.6779C77.9651 67.6625 77.9299 67.6546 77.8942 67.6546C77.8584 67.6546 77.8232 67.6625 77.791 67.6779L76.435 68.4579C76.4219 68.4616 76.4104 68.4695 76.4023 68.4803C76.3941 68.4911 76.3897 68.5043 76.3897 68.5179C76.3897 68.5314 76.3941 68.5446 76.4023 68.5555C76.4104 68.5663 76.4219 68.5742 76.435 68.5779L77.8654 69.4035ZM60.8566 75.0987L59.503 75.8787C59.4454 75.9123 59.4454 75.9651 59.503 75.9987L60.931 76.8243C60.9632 76.8396 60.9985 76.8476 61.0342 76.8476C61.0699 76.8476 61.1051 76.8396 61.1374 76.8243L62.4934 76.0419C62.5055 76.0376 62.516 76.0296 62.5234 76.0191C62.5309 76.0085 62.5349 75.996 62.5349 75.9831C62.5349 75.9702 62.5309 75.9576 62.5234 75.9471C62.516 75.9366 62.5055 75.9286 62.4934 75.9243L61.0534 75.0987C61.0234 75.0844 60.9906 75.077 60.9574 75.077C60.9241 75.077 60.8913 75.0844 60.8614 75.0987H60.8566ZM45.6766 87.9843C45.7088 87.9996 45.744 88.0076 45.7798 88.0076C45.8155 88.0076 45.8507 87.9996 45.883 87.9843L47.2366 87.2019C47.2942 87.1683 47.2942 87.1155 47.2366 87.0819L45.7966 86.2563C45.7649 86.2403 45.73 86.2319 45.6946 86.2319C45.6591 86.2319 45.6242 86.2403 45.5926 86.2563L44.2366 87.0387C44.179 87.0723 44.179 87.1251 44.2366 87.1563L45.6766 87.9843ZM43.0366 85.3803L41.683 86.1627C41.6254 86.1963 41.623 86.2491 41.683 86.2803L43.123 87.1059C43.1548 87.1225 43.1902 87.1312 43.2262 87.1312C43.2621 87.1312 43.2975 87.1225 43.3294 87.1059L44.683 86.3235C44.7406 86.2899 44.743 86.2371 44.683 86.2035L43.243 85.3803C43.213 85.366 43.1802 85.3586 43.147 85.3586C43.1137 85.3586 43.0809 85.366 43.051 85.3803H43.0366ZM47.8558 86.8395L49.2118 86.0595C49.2248 86.0558 49.2363 86.0479 49.2444 86.0371C49.2526 86.0262 49.257 86.013 49.257 85.9995C49.257 85.9859 49.2526 85.9727 49.2444 85.9619C49.2363 85.9511 49.2248 85.9432 49.2118 85.9395L47.7838 85.1139C47.7515 85.0985 47.7163 85.0906 47.6806 85.0906C47.6449 85.0906 47.6096 85.0985 47.5774 85.1139L46.2238 85.8963C46.2116 85.9006 46.2011 85.9086 46.1937 85.9191C46.1862 85.9296 46.1822 85.9422 46.1822 85.9551C46.1822 85.968 46.1862 85.9805 46.1937 85.9911C46.2011 86.0016 46.2116 86.0096 46.2238 86.0139L47.6518 86.8395C47.6851 86.8582 47.7227 86.868 47.761 86.868C47.7992 86.868 47.8368 86.8582 47.8702 86.8395H47.8558ZM49.8358 85.6971L51.1894 84.9171C51.247 84.8835 51.2494 84.8307 51.1894 84.7971L49.7614 83.9715C49.7291 83.9561 49.6939 83.9482 49.6582 83.9482C49.6224 83.9482 49.5872 83.9561 49.555 83.9715L48.199 84.7539C48.1868 84.7582 48.1763 84.7662 48.1689 84.7767C48.1614 84.7872 48.1574 84.7998 48.1574 84.8127C48.1574 84.8256 48.1614 84.8381 48.1689 84.8487C48.1763 84.8592 48.1868 84.8672 48.199 84.8715L49.627 85.6971C49.6609 85.7167 49.6994 85.727 49.7386 85.727C49.7777 85.727 49.8162 85.7167 49.8502 85.6971H49.8358ZM51.8158 84.5547L53.1694 83.7747C53.227 83.7411 53.227 83.6883 53.1694 83.6547L51.7294 82.8291C51.6971 82.8137 51.6619 82.8058 51.6262 82.8058C51.5904 82.8058 51.5552 82.8137 51.523 82.8291L50.1958 83.6019C50.1382 83.6355 50.1382 83.6907 50.1958 83.7219L51.6358 84.5475C51.6653 84.5634 51.6979 84.5728 51.7314 84.5753C51.7649 84.5778 51.7985 84.5732 51.8302 84.5619L51.8158 84.5547ZM45.0142 84.2379L43.6606 85.0203C43.603 85.0539 43.603 85.1067 43.6606 85.1379L45.1006 85.9635C45.1324 85.9801 45.1678 85.9888 45.2038 85.9888C45.2397 85.9888 45.2751 85.9801 45.307 85.9635L46.6606 85.1811C46.7182 85.1475 46.7182 85.0947 46.6606 85.0611L45.2206 84.2379C45.1906 84.2236 45.1578 84.2162 45.1246 84.2162C45.0913 84.2162 45.0585 84.2236 45.0286 84.2379H45.0142ZM46.9942 83.0955L45.6406 83.8779C45.583 83.9115 45.5806 83.9643 45.6406 83.9955L47.0686 84.8211C47.1008 84.8364 47.136 84.8444 47.1718 84.8444C47.2075 84.8444 47.2427 84.8364 47.275 84.8211L48.631 84.0387C48.6862 84.0051 48.6886 83.9523 48.631 83.9187L47.191 83.0955C47.1623 83.0826 47.1312 83.076 47.0998 83.076C47.0683 83.076 47.0372 83.0826 47.0086 83.0955H46.9942ZM54.9142 78.5355L53.5606 79.3155C53.503 79.3491 53.503 79.4043 53.5606 79.4355L55.0006 80.2611C55.0328 80.2764 55.068 80.2844 55.1038 80.2844C55.1395 80.2844 55.1747 80.2764 55.207 80.2611L56.5606 79.4811C56.6182 79.4475 56.6182 79.3947 56.5606 79.3611L55.1206 78.5355C55.0903 78.5201 55.0571 78.5112 55.0232 78.5096C54.9893 78.5079 54.9554 78.5135 54.9238 78.5259L54.9142 78.5355ZM52.9366 79.6779L51.583 80.4603C51.5254 80.4915 51.523 80.5467 51.583 80.5779L53.023 81.4035C53.0548 81.4201 53.0902 81.4288 53.1262 81.4288C53.1621 81.4288 53.1975 81.4201 53.2294 81.4035L54.583 80.6235C54.6406 80.5899 54.643 80.5371 54.583 80.5035L53.155 79.6779C53.1231 79.6606 53.0878 79.6508 53.0517 79.6492C53.0155 79.6475 52.9794 79.654 52.9462 79.6683L52.9366 79.6779ZM56.8942 77.3931L55.5406 78.1731C55.483 78.2067 55.4806 78.2595 55.5406 78.2931L56.9806 79.1187C57.0128 79.134 57.048 79.142 57.0838 79.142C57.1195 79.142 57.1547 79.134 57.187 79.1187L58.5406 78.3387C58.5982 78.3051 58.6006 78.2523 58.5406 78.2187L57.1006 77.3931C57.0703 77.3777 57.0371 77.3688 57.0032 77.3672C56.9693 77.3655 56.9354 77.3711 56.9038 77.3835L56.8942 77.3931ZM48.9742 81.9531L47.6182 82.7355C47.5606 82.7691 47.5606 82.8219 47.6182 82.8531L49.0462 83.6787C49.0784 83.694 49.1136 83.702 49.1494 83.702C49.1851 83.702 49.2203 83.694 49.2526 83.6787L50.6062 82.8963C50.6638 82.8627 50.6638 82.8099 50.6062 82.7763L49.1662 81.9507C49.1088 81.9287 49.0453 81.9296 48.9886 81.9531H48.9742ZM50.9518 80.8107L49.5982 81.5931C49.586 81.5974 49.5755 81.6054 49.5681 81.6159C49.5606 81.6264 49.5566 81.639 49.5566 81.6519C49.5566 81.6648 49.5606 81.6773 49.5681 81.6879C49.5755 81.6984 49.586 81.7064 49.5982 81.7107L51.0382 82.5363C51.0698 82.5523 51.1047 82.5607 51.1402 82.5607C51.1756 82.5607 51.2105 82.5523 51.2422 82.5363L52.5982 81.7539C52.6558 81.7203 52.6558 81.6675 52.5982 81.6339L51.1582 80.8083C51.1264 80.794 51.0919 80.7869 51.0571 80.7873C51.0223 80.7877 50.988 80.7957 50.9566 80.8107H50.9518ZM48.9598 88.5603L50.3158 87.7779C50.3279 87.7736 50.3384 87.7656 50.3458 87.7551C50.3533 87.7445 50.3573 87.732 50.3573 87.7191C50.3573 87.7062 50.3533 87.6936 50.3458 87.6831C50.3384 87.6726 50.3279 87.6646 50.3158 87.6603L48.8878 86.8347C48.8559 86.8181 48.8205 86.8094 48.7846 86.8094C48.7486 86.8094 48.7132 86.8181 48.6814 86.8347L47.3278 87.6147C47.2702 87.6483 47.2702 87.7011 47.3278 87.7347L48.7558 88.5603C48.7896 88.5776 48.827 88.5866 48.865 88.5866C48.9029 88.5866 48.9403 88.5776 48.9742 88.5603H48.9598ZM37.9438 87.7323L36.5038 86.9067C36.4715 86.8913 36.4363 86.8834 36.4006 86.8834C36.3648 86.8834 36.3296 86.8913 36.2974 86.9067L34.9678 87.6819C34.9102 87.7155 34.9102 87.7683 34.9678 87.8019L36.4078 88.6275C36.44 88.6428 36.4752 88.6508 36.511 88.6508C36.5467 88.6508 36.5819 88.6428 36.6142 88.6275L37.9678 87.8451C37.9781 87.8392 37.9865 87.8304 37.992 87.8199C37.9976 87.8094 38 87.7975 37.999 87.7856C37.998 87.7738 37.9936 87.7624 37.9863 87.753C37.9791 87.7435 37.9693 87.7364 37.9582 87.7323H37.9438ZM40.7134 88.4907L39.2854 87.6651C39.2535 87.6485 39.2181 87.6398 39.1822 87.6398C39.1462 87.6398 39.1108 87.6485 39.079 87.6651L36.9958 88.8651C36.9382 88.8987 36.9358 88.9515 36.9958 88.9851L38.4358 89.8107C38.468 89.826 38.5032 89.834 38.539 89.834C38.5747 89.834 38.6099 89.826 38.6422 89.8107L40.7254 88.6107C40.783 88.5747 40.7854 88.5219 40.7278 88.4907H40.7134ZM35.779 86.1219L34.339 85.2963C34.3067 85.2809 34.2715 85.273 34.2358 85.273C34.2001 85.273 34.1648 85.2809 34.1326 85.2963L32.467 86.2563C32.4094 86.2899 32.407 86.3427 32.467 86.3763L33.907 87.2019C33.9392 87.2172 33.9744 87.2252 34.0102 87.2252C34.0459 87.2252 34.0811 87.2172 34.1134 87.2019L35.7934 86.2419C35.8486 86.2059 35.8486 86.1531 35.7934 86.1219H35.779ZM37.0558 85.3827C37.0876 85.3993 37.123 85.408 37.159 85.408C37.1949 85.408 37.2303 85.3993 37.2622 85.3827L38.6158 84.6003C38.6734 84.5667 38.6734 84.5139 38.6158 84.4803L37.1758 83.6571C37.1443 83.6405 37.1093 83.6318 37.0738 83.6318C37.0382 83.6318 37.0032 83.6405 36.9718 83.6571L35.6158 84.4395C35.5582 84.4731 35.5582 84.5259 35.6158 84.5571L37.0558 85.3827ZM43.291 89.3619L41.851 88.5387C41.8191 88.5221 41.7837 88.5134 41.7478 88.5134C41.7118 88.5134 41.6764 88.5221 41.6446 88.5387L39.0406 90.0411C38.983 90.0747 38.983 90.1299 39.0406 90.1611L40.4806 90.9867C40.5128 91.002 40.548 91.01 40.5838 91.01C40.6195 91.01 40.6547 91.002 40.687 90.9867L43.291 89.4843C43.3462 89.4531 43.3462 89.4003 43.291 89.3619ZM44.395 91.0827L42.955 90.2571C42.9227 90.2417 42.8875 90.2338 42.8518 90.2338C42.816 90.2338 42.7808 90.2417 42.7486 90.2571L41.083 91.2171C41.0708 91.2214 41.0603 91.2294 41.0529 91.2399C41.0454 91.2504 41.0414 91.263 41.0414 91.2759C41.0414 91.2888 41.0454 91.3013 41.0529 91.3119C41.0603 91.3224 41.0708 91.3304 41.083 91.3347L42.523 92.1603C42.5548 92.1769 42.5902 92.1856 42.6262 92.1856C42.6621 92.1856 42.6975 92.1769 42.7294 92.1603L44.395 91.2003C44.4502 91.1739 44.4502 91.1211 44.395 91.0875V91.0827ZM51.7846 76.8819C51.8168 76.8972 51.8521 76.9052 51.8878 76.9052C51.9235 76.9052 51.9587 76.8972 51.991 76.8819L53.3446 76.0995C53.3567 76.0952 53.3672 76.0872 53.3746 76.0767C53.3821 76.0661 53.3861 76.0536 53.3861 76.0407C53.3861 76.0278 53.3821 76.0152 53.3746 76.0047C53.3672 75.9942 53.3567 75.9862 53.3446 75.9819L51.9046 75.1563C51.8723 75.1409 51.8371 75.133 51.8014 75.133C51.7656 75.133 51.7304 75.1409 51.6982 75.1563L50.3446 75.9363C50.287 75.9699 50.287 76.0227 50.3446 76.0563L51.7846 76.8819ZM47.8366 79.1739C47.8682 79.1899 47.9031 79.1983 47.9386 79.1983C47.974 79.1983 48.0089 79.1899 48.0406 79.1739L49.3966 78.3939C49.4096 78.3902 49.4211 78.3823 49.4292 78.3715C49.4374 78.3606 49.4418 78.3474 49.4418 78.3339C49.4418 78.3203 49.4374 78.3071 49.4292 78.2963C49.4211 78.2855 49.4096 78.2776 49.3966 78.2739L47.9566 77.4483C47.9243 77.4329 47.8891 77.425 47.8534 77.425C47.8177 77.425 47.7824 77.4329 47.7502 77.4483L46.3966 78.2283C46.339 78.2619 46.339 78.3147 46.3966 78.3483L47.8366 79.1739ZM39.0574 84.2403C39.0892 84.2569 39.1246 84.2656 39.1606 84.2656C39.1965 84.2656 39.2319 84.2569 39.2638 84.2403L40.6198 83.4579C40.6328 83.4542 40.6443 83.4463 40.6524 83.4355C40.6606 83.4246 40.665 83.4114 40.665 83.3979C40.665 83.3843 40.6606 83.3711 40.6524 83.3603C40.6443 83.3495 40.6328 83.3416 40.6198 83.3379L39.1918 82.5147C39.1599 82.4981 39.1245 82.4894 39.0886 82.4894C39.0526 82.4894 39.0172 82.4981 38.9854 82.5147L37.6318 83.2971C37.5742 83.3307 37.5742 83.3835 37.6318 83.4147L39.0574 84.2403ZM49.8142 78.0315C49.8464 78.0468 49.8816 78.0548 49.9174 78.0548C49.9531 78.0548 49.9883 78.0468 50.0206 78.0315L51.3742 77.2515C51.4318 77.2179 51.4342 77.1627 51.3742 77.1315L49.9342 76.3059C49.9019 76.2905 49.8667 76.2826 49.831 76.2826C49.7952 76.2826 49.76 76.2905 49.7278 76.3059L48.3742 77.0859C48.3166 77.1195 48.3142 77.1723 48.3742 77.2059L49.8142 78.0315ZM45.8566 80.3163C45.8888 80.3316 45.924 80.3396 45.9598 80.3396C45.9955 80.3396 46.0307 80.3316 46.063 80.3163L47.4166 79.5363C47.4742 79.5027 47.4742 79.4499 47.4166 79.4163L45.9886 78.5907C45.9563 78.5753 45.9211 78.5674 45.8854 78.5674C45.8496 78.5674 45.8144 78.5753 45.7822 78.5907L44.4262 79.3731C44.414 79.3774 44.4035 79.3854 44.3961 79.3959C44.3886 79.4064 44.3846 79.419 44.3846 79.4319C44.3846 79.4448 44.3886 79.4573 44.3961 79.4679C44.4035 79.4784 44.414 79.4864 44.4262 79.4907L45.8566 80.3163ZM45.4366 91.2003C45.4043 91.1849 45.3691 91.177 45.3334 91.177C45.2977 91.177 45.2624 91.1849 45.2302 91.2003L43.147 92.4003C43.0894 92.4339 43.087 92.4867 43.147 92.5179L44.575 93.3435C44.6072 93.3588 44.6424 93.3668 44.6782 93.3668C44.7139 93.3668 44.7491 93.3588 44.7814 93.3435L46.8646 92.1435C46.8767 92.1392 46.8872 92.1312 46.8946 92.1207C46.9021 92.1101 46.9061 92.0976 46.9061 92.0847C46.9061 92.0718 46.9021 92.0592 46.8946 92.0487C46.8872 92.0382 46.8767 92.0302 46.8646 92.0259L45.4366 91.2003ZM43.0198 81.9555C43.052 81.9708 43.0872 81.9788 43.123 81.9788C43.1587 81.9788 43.1939 81.9708 43.2262 81.9555L44.5798 81.1731C44.6374 81.1395 44.6374 81.0867 44.5798 81.0531L43.1398 80.2275C43.1075 80.2121 43.0723 80.2042 43.0366 80.2042C43.0008 80.2042 42.9656 80.2121 42.9334 80.2275L41.5798 81.0099C41.5222 81.0435 41.5222 81.0963 41.5798 81.1275L43.0198 81.9555ZM41.0398 83.0979C41.0716 83.1145 41.107 83.1232 41.143 83.1232C41.1789 83.1232 41.2143 83.1145 41.2462 83.0979L42.5998 82.3155C42.6574 82.2819 42.6598 82.2291 42.5998 82.1955L41.1718 81.3723C41.1399 81.3557 41.1045 81.347 41.0686 81.347C41.0326 81.347 40.9972 81.3557 40.9654 81.3723L39.5998 82.1619C39.5446 82.1955 39.5422 82.2483 39.5998 82.2795L41.0398 83.0979ZM82.099 70.0323C82.0667 70.0169 82.0315 70.009 81.9958 70.009C81.96 70.009 81.9248 70.0169 81.8926 70.0323L78.559 71.9523C78.5468 71.9566 78.5363 71.9646 78.5289 71.9751C78.5214 71.9856 78.5174 71.9982 78.5174 72.0111C78.5174 72.024 78.5214 72.0365 78.5289 72.0471C78.5363 72.0576 78.5468 72.0656 78.559 72.0699L79.999 72.8955C80.0308 72.9121 80.0662 72.9208 80.1022 72.9208C80.1381 72.9208 80.1735 72.9121 80.2054 72.8955L83.5366 70.9755C83.5942 70.9419 83.5966 70.8891 83.5366 70.8555L82.099 70.0323ZM77.7118 72.5619C77.6799 72.5453 77.6445 72.5366 77.6086 72.5366C77.5726 72.5366 77.5372 72.5453 77.5054 72.5619L76.1566 73.3419C76.099 73.3755 76.099 73.4283 76.1566 73.4619L77.5846 74.2851C77.6164 74.3017 77.6518 74.3104 77.6878 74.3104C77.7237 74.3104 77.7591 74.3017 77.791 74.2851L79.147 73.5027C79.16 73.499 79.1715 73.4911 79.1796 73.4803C79.1878 73.4694 79.1922 73.4563 79.1922 73.4427C79.1922 73.4291 79.1878 73.4159 79.1796 73.4051C79.1715 73.3943 79.16 73.3864 79.147 73.3827L77.7118 72.5619ZM50.9566 87.4179L52.3102 86.6355C52.3678 86.6019 52.3702 86.5491 52.3102 86.5179L50.8822 85.6923C50.8499 85.6769 50.8147 85.669 50.779 85.669C50.7432 85.669 50.708 85.6769 50.6758 85.6923L49.3198 86.4819C49.2646 86.5155 49.2622 86.5683 49.3198 86.6019L50.7478 87.4275C50.781 87.4417 50.8171 87.4483 50.8533 87.4466C50.8894 87.4449 50.9247 87.4351 50.9566 87.4179ZM73.7566 74.8443C73.7243 74.8289 73.6891 74.821 73.6534 74.821C73.6176 74.821 73.5824 74.8289 73.5502 74.8443L72.1966 75.6267C72.139 75.6603 72.1366 75.7131 72.1966 75.7467L73.6246 76.5699C73.6564 76.5865 73.6918 76.5952 73.7278 76.5952C73.7637 76.5952 73.7991 76.5865 73.831 76.5699L75.1846 75.7875C75.2422 75.7539 75.2446 75.7011 75.1846 75.6699L73.7566 74.8443ZM84.0766 68.8899C84.0443 68.8745 84.0091 68.8666 83.9734 68.8666C83.9376 68.8666 83.9024 68.8745 83.8702 68.8899L82.5046 69.6819C82.4924 69.6862 82.4819 69.6942 82.4745 69.7047C82.467 69.7152 82.463 69.7278 82.463 69.7407C82.463 69.7536 82.467 69.7661 82.4745 69.7767C82.4819 69.7872 82.4924 69.7952 82.5046 69.7995L83.9446 70.6251C83.9768 70.6404 84.0121 70.6484 84.0478 70.6484C84.0835 70.6484 84.1187 70.6404 84.151 70.6251L85.5046 69.8451C85.5622 69.8115 85.5622 69.7587 85.5046 69.7251L84.0766 68.8899ZM87.4846 68.5731L84.0022 66.5619C83.9699 66.5465 83.9347 66.5386 83.899 66.5386C83.8633 66.5386 83.828 66.5465 83.7958 66.5619L82.4422 67.3419C82.3846 67.3755 82.3846 67.4283 82.4422 67.4619L85.9126 69.4659C85.9448 69.4812 85.98 69.4892 86.0158 69.4892C86.0515 69.4892 86.0867 69.4812 86.119 69.4659L87.4726 68.6859C87.5278 68.6595 87.5302 68.6067 87.4726 68.5731H87.4846ZM66.3646 79.1139C66.3327 79.0973 66.2973 79.0886 66.2614 79.0886C66.2254 79.0886 66.19 79.0973 66.1582 79.1139L64.4902 80.0739C64.4326 80.1075 64.4326 80.1603 64.4902 80.1939L65.9302 81.0195C65.9624 81.0348 65.9977 81.0428 66.0334 81.0428C66.0691 81.0428 66.1043 81.0348 66.1366 81.0195L67.8022 80.0595C67.8598 80.0259 67.8622 79.9731 67.8022 79.9419L66.3646 79.1139ZM71.3638 76.2339C71.3315 76.2185 71.2963 76.2106 71.2606 76.2106C71.2248 76.2106 71.1896 76.2185 71.1574 76.2339L69.0742 77.4339C69.0166 77.4675 69.0142 77.5203 69.0742 77.5515L70.5142 78.3771C70.5464 78.3924 70.5817 78.4004 70.6174 78.4004C70.6531 78.4004 70.6883 78.3924 70.7206 78.3771L72.8038 77.1771C72.8614 77.1459 72.8638 77.0907 72.8038 77.0595L71.3638 76.2339ZM61.7806 81.7659C61.7483 81.7505 61.7131 81.7426 61.6774 81.7426C61.6416 81.7426 61.6064 81.7505 61.5742 81.7659L50.431 88.2003C50.3734 88.2339 50.371 88.2867 50.431 88.3179L51.859 89.1435C51.8908 89.1601 51.9262 89.1688 51.9622 89.1688C51.9981 89.1688 52.0335 89.1601 52.0654 89.1435L63.1966 82.7043C63.2096 82.7006 63.2211 82.6927 63.2292 82.6819C63.2374 82.671 63.2418 82.6579 63.2418 82.6443C63.2418 82.6307 63.2374 82.6175 63.2292 82.6067C63.2211 82.5959 63.2096 82.588 63.1966 82.5843L61.7806 81.7659ZM50.0206 88.5627C49.9887 88.5461 49.9533 88.5374 49.9174 88.5374C49.8814 88.5374 49.846 88.5461 49.8142 88.5627L48.1486 89.5227C48.091 89.5563 48.0886 89.6091 48.1486 89.6427L49.5886 90.4659C49.6204 90.4825 49.6558 90.4912 49.6918 90.4912C49.7277 90.4912 49.7631 90.4825 49.795 90.4659L51.475 89.5059C51.488 89.5022 51.4995 89.4943 51.5076 89.4835C51.5158 89.4726 51.5202 89.4594 51.5202 89.4459C51.5202 89.4323 51.5158 89.4191 51.5076 89.4083C51.4995 89.3975 51.488 89.3896 51.475 89.3859L50.0206 88.5627ZM64.0822 80.4435C64.0503 80.4269 64.0149 80.4182 63.979 80.4182C63.943 80.4182 63.9076 80.4269 63.8758 80.4435L62.2102 81.4035C62.1526 81.4371 62.1502 81.4899 62.2102 81.5235L63.6502 82.3491C63.6824 82.3644 63.7177 82.3724 63.7534 82.3724C63.7891 82.3724 63.8243 82.3644 63.8566 82.3491L65.5222 81.3891C65.5798 81.3579 65.5822 81.3027 65.5222 81.2715L64.0822 80.4435ZM47.7286 89.8851C47.6963 89.8697 47.6611 89.8618 47.6254 89.8618C47.5896 89.8618 47.5544 89.8697 47.5222 89.8851L45.8566 90.8451C45.799 90.8787 45.799 90.9315 45.8566 90.9651L47.2966 91.7907C47.3282 91.8067 47.3631 91.8151 47.3986 91.8151C47.434 91.8151 47.4689 91.8067 47.5006 91.7907L49.1686 90.8307C49.2262 90.7971 49.2262 90.7443 49.1686 90.7131L47.7286 89.8851ZM68.6638 77.7987C68.6319 77.7821 68.5965 77.7734 68.5606 77.7734C68.5246 77.7734 68.4892 77.7821 68.4574 77.7987L66.7918 78.7587C66.7342 78.7923 66.7342 78.8451 66.7918 78.8787L68.2318 79.7019C68.2636 79.7185 68.299 79.7272 68.335 79.7272C68.3709 79.7272 68.4063 79.7185 68.4382 79.7019L70.1038 78.7419C70.1614 78.7083 70.1614 78.6555 70.1038 78.6219L68.6638 77.7987ZM75.7462 73.7187C75.7143 73.7021 75.6789 73.6934 75.643 73.6934C75.607 73.6934 75.5716 73.7021 75.5398 73.7187L74.1718 74.4819C74.1142 74.5155 74.1142 74.5683 74.1718 74.6019L75.6118 75.4251C75.6436 75.4417 75.679 75.4504 75.715 75.4504C75.7509 75.4504 75.7863 75.4417 75.8182 75.4251L77.1718 74.6427C77.2294 74.6091 77.2294 74.5563 77.1718 74.5251L75.7462 73.7187ZM80.131 70.5987L81.487 69.8187C81.5446 69.7851 81.5446 69.7323 81.487 69.6987L80.047 68.8731C80.0147 68.8577 79.9795 68.8498 79.9438 68.8498C79.908 68.8498 79.8728 68.8577 79.8406 68.8731L78.487 69.6531C78.4294 69.6867 78.4294 69.7419 78.487 69.7731L79.927 70.5987C79.958 70.6095 79.9911 70.6134 80.0239 70.6101C80.0566 70.6068 80.0883 70.5963 80.1166 70.5795L80.131 70.5987ZM71.6758 70.7667L73.0294 69.9867C73.087 69.9531 73.087 69.9003 73.0294 69.8667L71.5894 69.0411C71.5571 69.0257 71.5219 69.0178 71.4862 69.0178C71.4505 69.0178 71.4152 69.0257 71.383 69.0411L70.0294 69.8235C69.9718 69.8571 69.9718 69.9099 70.0294 69.9411L71.4694 70.7667C71.5008 70.7781 71.5343 70.7822 71.5675 70.7789C71.6008 70.7756 71.6328 70.7648 71.6614 70.7475L71.6758 70.7667ZM66.7966 78.2787L70.7542 75.9915C70.7663 75.9872 70.7768 75.9792 70.7842 75.9687C70.7917 75.9581 70.7957 75.9456 70.7957 75.9327C70.7957 75.9198 70.7917 75.9072 70.7842 75.8967C70.7768 75.8862 70.7663 75.8782 70.7542 75.8739L69.3142 75.0483C69.2823 75.0317 69.2469 75.023 69.211 75.023C69.175 75.023 69.1396 75.0317 69.1078 75.0483L65.1502 77.3331C65.138 77.3374 65.1275 77.3454 65.1201 77.3559C65.1126 77.3664 65.1086 77.379 65.1086 77.3919C65.1086 77.4048 65.1126 77.4173 65.1201 77.4279C65.1275 77.4384 65.138 77.4464 65.1502 77.4507L66.5902 78.2763C66.6222 78.292 66.6574 78.3004 66.6931 78.3008C66.7288 78.3012 66.7641 78.2937 66.7966 78.2787ZM77.9422 71.7243C77.9744 71.7396 78.0096 71.7476 78.0454 71.7476C78.0811 71.7476 78.1163 71.7396 78.1486 71.7243L79.5022 70.9443C79.5598 70.9107 79.5598 70.8579 79.5022 70.8243L78.0622 69.9987C78.0299 69.9833 77.9947 69.9754 77.959 69.9754C77.9233 69.9754 77.888 69.9833 77.8558 69.9987L76.4998 70.7811C76.4876 70.7854 76.4771 70.7934 76.4697 70.8039C76.4622 70.8144 76.4582 70.827 76.4582 70.8399C76.4582 70.8528 76.4622 70.8653 76.4697 70.8759C76.4771 70.8864 76.4876 70.8944 76.4998 70.8987L77.9422 71.7243ZM76.1062 70.5435L77.4622 69.7635C77.5174 69.7299 77.5198 69.6771 77.4622 69.6435L76.0342 68.8179C76.0019 68.8025 75.9667 68.7946 75.931 68.7946C75.8952 68.7946 75.86 68.8025 75.8278 68.8179L74.4766 69.6003C74.419 69.6339 74.4166 69.6867 74.4766 69.7203L75.9046 70.5459C75.935 70.5587 75.9678 70.5651 76.0008 70.5647C76.0338 70.5643 76.0664 70.5571 76.0966 70.5435H76.1062ZM64.8262 79.4235L66.1798 78.6411C66.2374 78.6075 66.2374 78.5547 66.1798 78.5211L64.7398 77.6955C64.7075 77.6801 64.6723 77.6722 64.6366 77.6722C64.6008 77.6722 64.5656 77.6801 64.5334 77.6955L63.1774 78.4779C63.1198 78.5115 63.1198 78.5643 63.1774 78.5955L64.6054 79.4211C64.6369 79.4357 64.6713 79.4433 64.7062 79.4433C64.741 79.4433 64.7754 79.4357 64.807 79.4211L64.8262 79.4235ZM73.5574 74.2419C73.5892 74.2585 73.6246 74.2672 73.6606 74.2672C73.6965 74.2672 73.7319 74.2585 73.7638 74.2419L75.1174 73.4595C75.175 73.4259 75.1774 73.3731 75.1174 73.3395L73.6894 72.5163C73.6575 72.4997 73.6221 72.491 73.5862 72.491C73.5502 72.491 73.5148 72.4997 73.483 72.5163L72.1294 73.2987C72.0718 73.3323 72.0694 73.3851 72.1294 73.4187L73.5574 74.2419ZM54.9118 85.1259L56.2654 84.3435C56.323 84.3099 56.3254 84.2571 56.2654 84.2259L54.8374 83.4003C54.8055 83.3837 54.7701 83.375 54.7342 83.375C54.6982 83.375 54.6628 83.3837 54.631 83.4003L53.2774 84.1827C53.2198 84.2163 53.2174 84.2691 53.2774 84.3027L54.7174 85.1259C54.7471 85.1417 54.7801 85.1505 54.8137 85.1518C54.8474 85.153 54.8809 85.1466 54.9118 85.1331V85.1259ZM56.8918 83.9835L58.2454 83.2011C58.303 83.1675 58.303 83.1147 58.2454 83.0835L56.8054 82.2579C56.7735 82.2413 56.7381 82.2326 56.7022 82.2326C56.6662 82.2326 56.6308 82.2413 56.599 82.2579L55.2454 83.0403C55.1878 83.0739 55.1878 83.1267 55.2454 83.1603L56.6854 83.9835C56.7166 84.0012 56.7517 84.0111 56.7877 84.0124C56.8236 84.0136 56.8593 84.0062 56.8918 83.9907V83.9835ZM52.9342 86.2683L54.2878 85.4859C54.3454 85.4523 54.3454 85.3995 54.2878 85.3683L52.8478 84.5427C52.8155 84.5273 52.7803 84.5194 52.7446 84.5194C52.7088 84.5194 52.6736 84.5273 52.6414 84.5427L51.2878 85.3251C51.2302 85.3587 51.2302 85.4115 51.2878 85.4451L52.7278 86.2707C52.7596 86.2868 52.7947 86.2956 52.8304 86.2964C52.8661 86.2972 52.9016 86.2901 52.9342 86.2755V86.2683ZM60.8542 81.7083L62.2078 80.9259C62.2654 80.8923 62.2654 80.8395 62.2078 80.8059L60.7678 79.9827C60.7363 79.9661 60.7013 79.9574 60.6658 79.9574C60.6302 79.9574 60.5952 79.9661 60.5638 79.9827L59.2078 80.7651C59.1502 80.7987 59.1502 80.8515 59.2078 80.8827L60.6478 81.7083C60.6792 81.7237 60.7138 81.7316 60.7488 81.7311C60.7839 81.7307 60.8183 81.7221 60.8494 81.7059L60.8542 81.7083ZM58.8766 82.8483L60.2302 82.0659C60.2878 82.0323 60.2902 81.9795 60.2302 81.9459L58.7902 81.1227C58.7583 81.1061 58.7229 81.0974 58.687 81.0974C58.651 81.0974 58.6156 81.1061 58.5838 81.1227L57.2302 81.9051C57.1726 81.9387 57.1702 81.9915 57.2302 82.0251L58.6702 82.8483C58.702 82.8649 58.7374 82.8736 58.7734 82.8736C58.8093 82.8736 58.8447 82.8649 58.8766 82.8483ZM62.8342 80.5635L64.1902 79.7811C64.2032 79.7774 64.2147 79.7695 64.2228 79.7587C64.231 79.7478 64.2354 79.7346 64.2354 79.7211C64.2354 79.7075 64.231 79.6943 64.2228 79.6835C64.2147 79.6727 64.2032 79.6648 64.1902 79.6611L62.7502 78.8379C62.7183 78.8213 62.6829 78.8126 62.647 78.8126C62.611 78.8126 62.5756 78.8213 62.5438 78.8379L61.1902 79.6203C61.1326 79.6539 61.1326 79.7067 61.1902 79.7379L62.6182 80.5635C62.6503 80.5805 62.6862 80.5894 62.7226 80.5894C62.7589 80.5894 62.7948 80.5805 62.827 80.5635H62.8342ZM72.763 64.1619C72.7948 64.1785 72.8302 64.1872 72.8662 64.1872C72.9021 64.1872 72.9375 64.1785 72.9694 64.1619L74.3254 63.3795C74.383 63.3459 74.383 63.2931 74.3254 63.2619L73.9462 63.0411C73.9139 63.0257 73.8787 63.0178 73.843 63.0178C73.8072 63.0178 73.772 63.0257 73.7398 63.0411L72.3862 63.8235C72.3286 63.8571 72.3286 63.9099 72.3862 63.9435L72.763 64.1619ZM62.9782 70.4259C63.0098 70.4419 63.0447 70.4503 63.0802 70.4503C63.1156 70.4503 63.1505 70.4419 63.1822 70.4259L64.5382 69.6435C64.5958 69.6099 64.5958 69.5571 64.5382 69.5235L63.0982 68.6979C63.0659 68.6825 63.0307 68.6746 62.995 68.6746C62.9592 68.6746 62.924 68.6825 62.8918 68.6979L61.5382 69.4803C61.526 69.4846 61.5155 69.4926 61.5081 69.5031C61.5006 69.5136 61.4966 69.5262 61.4966 69.5391C61.4966 69.552 61.5006 69.5645 61.5081 69.5751C61.5155 69.5856 61.526 69.5936 61.5382 69.5979L62.9782 70.4259ZM66.9358 68.1411C66.968 68.1564 67.0032 68.1644 67.039 68.1644C67.0747 68.1644 67.1099 68.1564 67.1422 68.1411L68.4958 67.3611C68.5534 67.3275 68.5534 67.2747 68.4958 67.2411L67.0558 66.4155C67.0235 66.4001 66.9883 66.3922 66.9526 66.3922C66.9168 66.3922 66.8816 66.4001 66.8494 66.4155L65.4958 67.1979C65.4836 67.2022 65.4731 67.2102 65.4657 67.2207C65.4582 67.2312 65.4542 67.2438 65.4542 67.2567C65.4542 67.2696 65.4582 67.2821 65.4657 67.2927C65.4731 67.3032 65.4836 67.3112 65.4958 67.3155L66.9358 68.1411ZM60.5566 71.8203C60.5884 71.8369 60.6238 71.8456 60.6598 71.8456C60.6957 71.8456 60.7311 71.8369 60.763 71.8203L62.1166 71.0379C62.1742 71.0043 62.1742 70.9515 62.1166 70.9179L60.6766 70.0947C60.6447 70.0781 60.6093 70.0694 60.5734 70.0694C60.5374 70.0694 60.502 70.0781 60.4702 70.0947L59.1334 70.8819C59.0758 70.9155 59.0758 70.9683 59.1334 71.0019L60.5566 71.8203ZM64.951 69.2835C64.9828 69.3001 65.0182 69.3088 65.0542 69.3088C65.0901 69.3088 65.1255 69.3001 65.1574 69.2835L66.511 68.5035C66.5686 68.4699 66.571 68.4171 66.511 68.3835L65.071 67.5579C65.0387 67.5425 65.0035 67.5346 64.9678 67.5346C64.932 67.5346 64.8968 67.5425 64.8646 67.5579L63.511 68.3403C63.4534 68.3715 63.451 68.4267 63.511 68.4579L64.951 69.2835ZM56.599 74.1051C56.6304 74.1217 56.6654 74.1304 56.701 74.1304C56.7365 74.1304 56.7715 74.1217 56.803 74.1051L58.159 73.3227C58.2166 73.2891 58.2166 73.2363 58.159 73.2051L56.719 72.3795C56.6871 72.3629 56.6517 72.3542 56.6158 72.3542C56.5798 72.3542 56.5444 72.3629 56.5126 72.3795L55.159 73.1619C55.1014 73.1955 55.1014 73.2483 55.159 73.2819L56.599 74.1051ZM58.5766 72.9627C58.6084 72.9793 58.6438 72.988 58.6798 72.988C58.7157 72.988 58.7511 72.9793 58.783 72.9627L60.1366 72.1803C60.1942 72.1467 60.1966 72.0939 60.1366 72.0627L58.7086 71.2371C58.6767 71.2205 58.6413 71.2118 58.6054 71.2118C58.5694 71.2118 58.534 71.2205 58.5022 71.2371L57.1486 72.0195C57.091 72.0531 57.0886 72.1059 57.1486 72.1395L58.5766 72.9627ZM68.8006 66.4539C68.8324 66.4705 68.8678 66.4792 68.9038 66.4792C68.9397 66.4792 68.9751 66.4705 69.007 66.4539L70.363 65.6715C70.4182 65.6379 70.4206 65.5851 70.363 65.5539L69.9838 65.3331C69.9515 65.3177 69.9163 65.3098 69.8806 65.3098C69.8448 65.3098 69.8096 65.3177 69.7774 65.3331L68.4238 66.1131C68.3662 66.1467 68.3638 66.1995 68.4238 66.2331L68.8006 66.4539ZM74.7382 63.0267C74.77 63.0433 74.8054 63.052 74.8414 63.052C74.8773 63.052 74.9127 63.0433 74.9446 63.0267L76.2982 62.2443C76.3558 62.2107 76.3582 62.1579 76.2982 62.1243L75.9166 61.9059C75.8843 61.8905 75.8491 61.8826 75.8134 61.8826C75.7776 61.8826 75.7424 61.8905 75.7102 61.9059L74.3542 62.6883C74.3411 62.692 74.3296 62.6999 74.3215 62.7107C74.3133 62.7215 74.3089 62.7347 74.3089 62.7483C74.3089 62.7618 74.3133 62.775 74.3215 62.7859C74.3296 62.7967 74.3411 62.8046 74.3542 62.8083L74.7382 63.0267ZM77.7406 64.7595C77.7724 64.7761 77.8078 64.7848 77.8438 64.7848C77.8797 64.7848 77.9151 64.7761 77.947 64.7595L79.3006 63.9771C79.3582 63.9435 79.3582 63.8907 79.3006 63.8595L77.8606 63.0339C77.8291 63.0173 77.7941 63.0086 77.7586 63.0086C77.723 63.0086 77.688 63.0173 77.6566 63.0339L76.3006 63.8163C76.243 63.8499 76.243 63.9027 76.3006 63.9363L77.7406 64.7595ZM82.0966 69.4419L83.4502 68.6619C83.5078 68.6283 83.5102 68.5755 83.4502 68.5419L82.0222 67.7163C81.9899 67.7009 81.9547 67.693 81.919 67.693C81.8833 67.693 81.848 67.7009 81.8158 67.7163L80.4766 68.4939C80.419 68.5275 80.4166 68.5803 80.4766 68.6139L81.9046 69.4395C81.9347 69.4531 81.9673 69.4603 82.0003 69.4607C82.0333 69.4611 82.0661 69.4547 82.0966 69.4419ZM70.7854 65.3163C70.8172 65.3329 70.8526 65.3416 70.8886 65.3416C70.9245 65.3416 70.9599 65.3329 70.9918 65.3163L72.3454 64.5339C72.403 64.5003 72.403 64.4475 72.3454 64.4163L71.9638 64.1955C71.9319 64.1789 71.8965 64.1702 71.8606 64.1702C71.8246 64.1702 71.7892 64.1789 71.7574 64.1955L70.3966 64.9731C70.339 65.0067 70.339 65.0595 70.3966 65.0931L70.7854 65.3163ZM54.6238 75.2523C54.6556 75.2689 54.691 75.2776 54.727 75.2776C54.7629 75.2776 54.7983 75.2689 54.8302 75.2523L56.1838 74.4699C56.2414 74.4363 56.2414 74.3835 56.1838 74.3523L54.7582 73.5219C54.7259 73.5065 54.6907 73.4986 54.655 73.4986C54.6192 73.4986 54.584 73.5065 54.5518 73.5219L53.1958 74.3043C53.1406 74.3379 53.1382 74.3907 53.1958 74.4243L54.6238 75.2523Z" fill="#455A64"/>
<path d="M61.8722 86.8827L74.069 79.8411C74.2752 79.7369 74.5029 79.6826 74.7339 79.6826C74.9648 79.6826 75.1925 79.7369 75.3986 79.8411L82.397 83.8779C82.7642 84.0915 82.7642 84.4347 82.397 84.6483L70.2026 91.6875C69.9964 91.7928 69.7682 91.8478 69.5367 91.8478C69.3051 91.8478 69.0769 91.7928 68.8707 91.6875L61.877 87.6507C61.517 87.4419 61.517 87.0939 61.8722 86.8827Z" fill="#263238"/>
<path d="M59.8079 33.4995C55.9967 36.9243 52.7039 36.7443 50.6447 35.1579C48.5879 39.1227 45.2951 43.1019 41.4839 44.0787L39.3071 49.9587C39.3071 49.9587 40.4735 51.3027 40.4735 54.5187C40.462 55.8665 40.2805 57.2075 39.9335 58.5099C39.5375 60.0963 39.0263 61.7379 39.0263 64.4811C39.0263 66.3387 39.2663 68.1459 40.2119 69.7899C40.7825 70.7847 41.6043 71.6123 42.5951 72.1899L39.2855 70.2699C38.2418 69.6926 37.3748 68.8422 36.7775 67.8099C35.8367 66.1635 35.5967 64.3587 35.5967 62.4987C35.5967 59.7579 36.1079 58.1139 36.5039 56.5251C36.849 55.2233 37.028 53.883 37.0367 52.5363C37.0367 49.3203 35.8703 47.9763 35.8703 47.9763L38.0447 42.0963C41.8559 41.1195 45.1487 37.1403 47.2055 33.1755C49.2647 34.7619 52.5575 34.9419 56.3687 31.5171L59.8079 33.4995Z" fill="#FFC217"/>
<path opacity="0.8" d="M48.4178 33.8739L47.2178 33.1755C47.5853 33.4601 47.9888 33.695 48.4178 33.8739Z" fill="white"/>
<path opacity="0.85" d="M56.373 31.522C53.2362 34.3396 50.4522 34.7164 48.417 33.8788L50.6442 35.1628C52.7034 36.7492 55.9962 36.9292 59.8074 33.5044L56.373 31.522Z" fill="white"/>
<path opacity="0.65" d="M47.2106 33.1755C45.1538 37.1403 41.861 41.1195 38.0498 42.0963L41.4842 44.0787C45.2954 43.1019 48.5882 39.1227 50.645 35.1579L47.2106 33.1755Z" fill="white"/>
<path opacity="0.55" d="M38.0494 42.0962L35.875 47.9762L39.307 49.9586L41.4838 44.0786L38.0494 42.0962Z" fill="white"/>
<path opacity="0.4" d="M40.2118 69.7899C39.271 68.1459 39.0262 66.3387 39.0262 64.4811C39.0262 61.7379 39.5374 60.0963 39.9334 58.5099C40.2805 57.2075 40.4619 55.8665 40.4734 54.5187C40.4734 51.3027 39.307 49.9587 39.307 49.9587L35.875 47.9763C35.875 47.9763 37.0414 49.3203 37.0414 52.5363C37.0296 53.8835 36.8474 55.2237 36.499 56.5251C36.103 58.1139 35.5918 59.7579 35.5918 62.4987C35.5918 64.3587 35.8318 66.1635 36.7774 67.8075C37.3747 68.8399 38.2417 69.6902 39.2854 70.2675L42.595 72.1875C41.6045 71.6105 40.7828 70.7838 40.2118 69.7899Z" fill="white"/>
<path opacity="0.05" d="M40.2118 69.7899C39.271 68.1459 39.0262 66.3387 39.0262 64.4811C39.0262 61.7379 39.5374 60.0963 39.9334 58.5099C40.2805 57.2075 40.4619 55.8665 40.4734 54.5187C40.4734 51.3027 39.307 49.9587 39.307 49.9587L35.875 47.9763C35.875 47.9763 37.0414 49.3203 37.0414 52.5363C37.0296 53.8835 36.8474 55.2237 36.499 56.5251C36.103 58.1139 35.5918 59.7579 35.5918 62.4987C35.5918 64.3587 35.8318 66.1635 36.7774 67.8075C37.3747 68.8399 38.2417 69.6902 39.2854 70.2675L42.595 72.1875C41.6045 71.6105 40.7828 70.7838 40.2118 69.7899Z" fill="black"/>
<path d="M50.6448 73.8171C44.952 73.8819 41.6904 72.3771 40.2096 69.7899C39.2712 68.1459 39.0264 66.3387 39.0264 64.4787C39.0264 61.7379 39.5352 60.0987 39.9336 58.5099C40.2806 57.2083 40.4621 55.8681 40.4736 54.5211C40.4736 51.3051 39.3072 49.9611 39.3072 49.9611L41.484 44.0787C45.2952 43.1019 48.588 39.1203 50.6448 35.1579C52.704 36.7443 55.9968 36.9243 59.808 33.4995L61.9848 36.8595C61.2368 38.7401 60.8406 40.7422 60.816 42.7659C60.7958 43.9092 60.9795 45.047 61.3584 46.1259C61.7544 47.2539 62.2656 48.3075 62.2656 51.0483C62.2593 53.3265 61.8582 55.5864 61.08 57.7275C59.5968 62.0379 56.34 67.3059 50.6448 73.8171Z" fill="#FFC217"/>
<path opacity="0.75" d="M50.6448 73.8171C44.952 73.8819 41.6904 72.3771 40.2096 69.7899C39.2712 68.1459 39.0264 66.3387 39.0264 64.4787C39.0264 61.7379 39.5352 60.0987 39.9336 58.5099C40.2806 57.2083 40.4621 55.8681 40.4736 54.5211C40.4736 51.3051 39.3072 49.9611 39.3072 49.9611L41.484 44.0787C45.2952 43.1019 48.588 39.1203 50.6448 35.1579C52.704 36.7443 55.9968 36.9243 59.808 33.4995L61.9848 36.8595C61.2368 38.7401 60.8406 40.7422 60.816 42.7659C60.7958 43.9092 60.9795 45.047 61.3584 46.1259C61.7544 47.2539 62.2656 48.3075 62.2656 51.0483C62.2593 53.3265 61.8582 55.5864 61.08 57.7275C59.5968 62.0379 56.34 67.3059 50.6448 73.8171Z" fill="white"/>
<path d="M49.9705 72.3386C45.5617 72.2858 42.7105 71.1818 41.4961 69.0578C40.8097 67.8578 40.5049 66.4466 40.5049 64.4786C40.5047 62.7627 40.7471 61.0554 41.2249 59.4074C41.2705 59.225 41.3185 59.0474 41.3617 58.8674C41.7411 57.4494 41.9379 55.9888 41.9473 54.521C41.9473 52.1762 41.3857 50.6426 40.9393 49.793L42.6193 45.281C46.6993 43.8626 49.6489 39.833 51.2113 37.1906C52.0529 37.5484 52.9584 37.7313 53.8729 37.7282C55.7161 37.7282 57.5905 37.0418 59.4625 35.6858L60.3385 37.0442C59.7005 38.8887 59.3634 40.8238 59.3401 42.7754C59.3188 44.0877 59.53 45.3935 59.9641 46.6322C60.0097 46.7618 60.0577 46.8914 60.1057 47.021C60.4561 47.981 60.7873 48.8858 60.7873 51.0626C60.7792 53.1764 60.4057 55.2729 59.6833 57.2594C58.2265 61.4882 54.9601 66.5618 49.9705 72.3386Z" fill="#FFC217"/>
<path opacity="0.4" d="M49.9705 72.3386C45.5617 72.2858 42.7105 71.1818 41.4961 69.0578C40.8097 67.8578 40.5049 66.4466 40.5049 64.4786C40.5047 62.7627 40.7471 61.0554 41.2249 59.4074C41.2705 59.225 41.3185 59.0474 41.3617 58.8674C41.7411 57.4494 41.9379 55.9888 41.9473 54.521C41.9473 52.1762 41.3857 50.6426 40.9393 49.793L42.6193 45.281C46.6993 43.8626 49.6489 39.833 51.2113 37.1906C52.0529 37.5484 52.9584 37.7313 53.8729 37.7282C55.7161 37.7282 57.5905 37.0418 59.4625 35.6858L60.3385 37.0442C59.7005 38.8887 59.3634 40.8238 59.3401 42.7754C59.3188 44.0877 59.53 45.3935 59.9641 46.6322C60.0097 46.7618 60.0577 46.8914 60.1057 47.021C60.4561 47.981 60.7873 48.8858 60.7873 51.0626C60.7792 53.1764 60.4057 55.2729 59.6833 57.2594C58.2265 61.4882 54.9601 66.5618 49.9705 72.3386Z" fill="white"/>
<path opacity="0.15" d="M49.9705 72.3386C45.5617 72.2858 42.7105 71.1818 41.4961 69.0578C40.8097 67.8578 40.5049 66.4466 40.5049 64.4786C40.5047 62.7627 40.7471 61.0554 41.2249 59.4074C41.2705 59.225 41.3185 59.0474 41.3617 58.8674C41.7411 57.4494 41.9379 55.9888 41.9473 54.521C41.9473 52.1762 41.3857 50.6426 40.9393 49.793L42.6193 45.281C46.6993 43.8626 49.6489 39.833 51.2113 37.1906C52.0529 37.5484 52.9584 37.7313 53.8729 37.7282C55.7161 37.7282 57.5905 37.0418 59.4625 35.6858L60.3385 37.0442C59.7005 38.8887 59.3634 40.8238 59.3401 42.7754C59.3188 44.0877 59.53 45.3935 59.9641 46.6322C60.0097 46.7618 60.0577 46.8914 60.1057 47.021C60.4561 47.981 60.7873 48.8858 60.7873 51.0626C60.7792 53.1764 60.4057 55.2729 59.6833 57.2594C58.2265 61.4882 54.9601 66.5618 49.9705 72.3386Z" fill="black"/>
<path opacity="0.8" d="M42.5059 70.2795C44.0083 71.6043 46.5043 72.2979 49.9699 72.3387L47.7595 71.0787C45.9762 71.1029 44.2012 70.8329 42.5059 70.2795Z" fill="white"/>
<path opacity="0.15" d="M59.1836 36.3794L60.3356 37.0442L59.4596 35.6858L58.958 36.0314L59.1836 36.3794Z" fill="black"/>
<path d="M58.8092 45.9675C58.3751 44.7288 58.1638 43.4231 58.1852 42.1107C58.2085 40.1591 58.5456 38.224 59.1836 36.3795L58.958 36.0315C57.254 37.1571 55.55 37.7283 53.87 37.7283C52.9555 37.7314 52.0499 37.5485 51.2084 37.1907C49.646 39.8307 46.6964 43.8627 42.6164 45.2811L40.9364 49.7931C41.3828 50.6427 41.9444 52.1763 41.9444 54.5211C41.9349 55.9889 41.7381 57.4495 41.3588 58.8675C41.3156 59.0475 41.2676 59.2251 41.222 59.4075C40.7442 61.0555 40.5018 62.7628 40.502 64.4787C40.502 66.4467 40.8068 67.8579 41.4932 69.0579C41.8546 69.676 42.3459 70.2082 42.9332 70.6179C44.4068 71.2899 46.37 71.6419 48.8228 71.6739C53.81 65.8947 57.0764 60.8235 58.5332 56.5947C59.2558 54.6082 59.6293 52.5117 59.6372 50.3979C59.6372 48.2211 59.3036 47.3163 58.9532 46.3563C58.9028 46.2267 58.8548 46.0971 58.8092 45.9675Z" fill="#455A64"/>
<path d="M42.6164 45.2811L40.9364 49.7931C41.3828 50.6427 41.9444 52.1763 41.9444 54.5211C41.9349 55.9889 41.7381 57.4495 41.3588 58.8675C41.3156 59.0475 41.2676 59.2251 41.222 59.4075C40.7442 61.0555 40.5018 62.7628 40.502 64.4787C40.502 66.4467 40.8068 67.8579 41.4932 69.0579C41.8546 69.676 42.3459 70.2082 42.9332 70.6179C44.4068 71.2899 46.37 71.6419 48.8228 71.6739V55.0419L51.2228 54.3219V37.1907C50.5143 38.3915 49.7117 39.5342 48.8228 40.6083C47.222 42.5355 45.134 44.4051 42.6164 45.2811Z" fill="#37474F"/>
<path d="M54.5858 48.9026C54.5601 48.8555 54.5296 48.8113 54.4946 48.7706L54.4826 48.7562C54.4126 48.68 54.3317 48.6145 54.2426 48.5618L53.4434 48.101C53.2991 48.0201 53.1439 47.9603 52.9826 47.9234C52.8861 47.9022 52.7883 47.887 52.6898 47.8778V45.5114C52.6898 44.3234 52.241 43.385 51.4586 42.9338C50.6762 42.4826 49.7786 42.5594 48.8594 43.097C47.1506 44.0834 45.8138 46.4906 45.8138 48.5762V51.3698L44.2202 52.289C44.1728 52.3163 44.1279 52.3476 44.0858 52.3826L44.0426 52.4162C43.9774 52.4684 43.9242 52.5339 43.8865 52.6085C43.8488 52.683 43.8276 52.7648 43.8242 52.8482V62.4314C43.8251 62.4727 43.8307 62.5138 43.841 62.5538C43.8912 62.7151 43.9977 62.8531 44.141 62.9426L44.2298 63.0002L44.621 63.2258L45.0314 63.4658C45.1917 63.5544 45.3651 63.6168 45.545 63.6506C46.0361 63.7591 46.5496 63.6929 46.997 63.4634L54.2522 59.2754C54.3644 59.2257 54.4613 59.147 54.533 59.0475C54.6047 58.948 54.6486 58.8311 54.6602 58.709V49.1306C54.6545 49.0497 54.629 48.9713 54.5858 48.9026ZM47.3738 48.5762C47.3738 47.0498 48.4106 45.1634 49.637 44.4554C50.0546 44.2154 50.429 44.153 50.6666 44.2922C50.9474 44.453 51.113 44.909 51.113 45.5114V48.305L49.0514 49.505L47.3714 50.465L47.3738 48.5762Z" fill="#263238"/>
<path d="M55.4883 49.5533C55.477 49.4311 55.4331 49.3141 55.3614 49.2145C55.2897 49.115 55.1926 49.0364 55.0803 48.9869L54.2811 48.5236C53.9769 48.3682 53.64 48.2871 53.2983 48.2871C52.9566 48.2871 52.6198 48.3682 52.3155 48.5236L45.0603 52.7116C44.948 52.7618 44.851 52.8409 44.7793 52.9408C44.7076 53.0408 44.6638 53.158 44.6523 53.2805V62.8636C44.6631 62.9863 44.7066 63.1039 44.7784 63.204C44.8502 63.304 44.9476 63.383 45.0603 63.4324L45.8595 63.8957C46.1643 64.0494 46.501 64.1296 46.8423 64.1296C47.1837 64.1296 47.5204 64.0494 47.8251 63.8957L55.0803 59.7052C55.1925 59.6555 55.2894 59.5769 55.3611 59.4773C55.4328 59.3778 55.4767 59.261 55.4883 59.1389V49.5533Z" fill="#FFC217"/>
<path opacity="0.4" d="M45.8592 54.322L45.06 53.842C44.5152 53.53 44.5152 53.0212 45.06 52.7068L52.3152 48.5188C52.6194 48.3633 52.9563 48.2822 53.298 48.2822C53.6397 48.2822 53.9765 48.3633 54.2808 48.5188L55.08 48.982C55.6224 49.294 55.6224 49.8028 55.08 50.1148L47.8368 54.322C47.5304 54.4777 47.1916 54.5589 46.848 54.5589C46.5043 54.5589 46.1655 54.4777 45.8592 54.322Z" fill="white"/>
<path opacity="0.1" d="M46.8435 54.5453V64.1285C46.5005 64.1337 46.1617 64.051 45.8595 63.8885L45.0579 63.4421C44.9451 63.3923 44.8479 63.3129 44.7765 63.2124C44.7051 63.1118 44.6622 62.9938 44.6523 62.8709V53.2805C44.6633 53.4025 44.7066 53.5194 44.7779 53.619C44.8493 53.7186 44.9459 53.7973 45.0579 53.8469L45.8595 54.3101C46.1618 54.472 46.5008 54.553 46.8435 54.5453Z" fill="black"/>
<path d="M52.1227 59.2852L50.3899 60.286L50.6587 57.1516C50.4523 57.0412 50.3203 56.7724 50.3203 56.386C50.3203 55.6948 50.7379 54.8932 51.2563 54.5956C51.7747 54.298 52.1923 54.6124 52.1923 55.3156C52.1817 55.724 52.0651 56.1227 51.8539 56.4724L52.1227 59.2852Z" fill="#455A64"/>
<path d="M52.1234 59.2852L50.5538 58.3804L50.3906 60.286L52.1234 59.2852Z" fill="#37474F"/>
<path d="M51.2572 54.5956C50.8799 54.8501 50.5986 55.2235 50.458 55.6564L51.8548 56.4628C52.066 56.113 52.1826 55.7144 52.1932 55.306C52.1932 54.6124 51.7756 54.2956 51.2572 54.5956Z" fill="#37474F"/>
<path d="M53.5274 49.762V45.922C53.5274 44.722 53.0786 43.7956 52.2962 43.3444C51.5138 42.8932 50.6162 42.9724 49.697 43.5076C47.9882 44.494 46.6514 46.9012 46.6514 48.9868V52.8388C46.6583 52.9092 46.6844 52.9763 46.7267 53.033C46.769 53.0896 46.8259 53.1337 46.8914 53.1604C47.063 53.2467 47.2525 53.2917 47.4446 53.2917C47.6367 53.2917 47.8261 53.2467 47.9978 53.1604C48.0632 53.1337 48.1202 53.0896 48.1625 53.033C48.2048 52.9763 48.2308 52.9092 48.2378 52.8388V48.9988C48.2378 47.4724 49.2746 45.586 50.501 44.878C50.9186 44.638 51.2954 44.578 51.533 44.7148C51.8114 44.8756 51.9794 45.3316 51.9794 45.934V49.774C51.9869 49.8436 52.0132 49.9098 52.0555 49.9656C52.0978 50.0214 52.1544 50.0647 52.2194 50.0908C52.391 50.1771 52.5805 50.2221 52.7726 50.2221C52.9647 50.2221 53.1541 50.1771 53.3258 50.0908C53.3901 50.0638 53.4462 50.0203 53.4884 49.9647C53.5305 49.9091 53.5572 49.8433 53.5658 49.774L53.5274 49.762Z" fill="#E0E0E0"/>
<path d="M62.8535 66.6123L63.9095 66.0027L64.3271 65.4939L63.2711 66.1035L62.8535 66.6123Z" fill="#FFC217"/>
<path opacity="0.4" d="M62.8535 66.6123L63.9095 66.0027L64.3271 65.4939L63.2711 66.1035L62.8535 66.6123Z" fill="black"/>
<path d="M65.7266 68.2707L66.7826 67.6611L67.6658 66.8787L66.6098 67.4883L65.7266 68.2707Z" fill="#FFC217"/>
<path opacity="0.4" d="M65.7266 68.2707L66.7826 67.6611L67.6658 66.8787L66.6098 67.4883L65.7266 68.2707Z" fill="black"/>
<path d="M74.7169 70.3779C74.9668 70.7129 75.1181 71.1111 75.1537 71.5275C74.9057 71.1915 74.7546 70.7939 74.7169 70.3779ZM77.1721 70.4091C76.8169 67.9899 75.5185 65.6091 73.9681 64.7019C73.2241 64.2723 72.5281 64.2579 71.9857 64.5795L70.9921 65.1531L70.9344 65.1867C70.8901 65.2108 70.8476 65.2381 70.8072 65.2683C70.7222 65.324 70.642 65.3867 70.5672 65.4556L70.5337 65.4867C70.5025 65.5179 70.4713 65.5539 70.4425 65.5875C70.4137 65.6211 70.3681 65.6739 70.3369 65.7171C70.2652 65.8117 70.2002 65.9111 70.1425 66.0147C70.1137 66.0675 70.0824 66.1227 70.056 66.1803L61.3705 61.1667L60.3145 61.7739V62.4483L60.4057 62.4987L60.4897 62.5491V62.6907L60.3145 62.7915V63.1828L61.5913 65.8828L62.8537 66.6028L63.2713 66.0939L64.3849 66.7611L65.0233 67.8556L65.7289 68.2611L66.6097 67.4787L67.6921 68.1051L68.0569 69.6051L69.8713 70.6539C69.9634 71.0363 70.078 71.413 70.2144 71.7819L70.2553 71.8995C70.8601 73.4835 71.8201 74.8419 72.8953 75.4683C73.0261 75.5434 73.1625 75.6084 73.3032 75.6628C73.3779 75.6923 73.454 75.7179 73.5313 75.7395C73.5976 75.7582 73.6649 75.7734 73.7329 75.7851C73.9454 75.8248 74.1635 75.8248 74.376 75.7851L74.4649 75.7635C74.5069 75.7563 74.548 75.7443 74.5872 75.7275L74.6809 75.6915C74.7148 75.6788 74.7476 75.6636 74.7793 75.6459L74.8681 75.6003L74.9137 75.5739L74.9353 75.5619L75.9313 74.9883C76.7329 74.5227 77.2537 73.3467 77.2537 71.6835C77.2545 71.2546 77.2232 70.8262 77.16 70.4019L77.1721 70.4091Z" fill="#FFC217"/>
<path d="M74.3948 72.4179C73.9796 72.1779 73.6412 71.4579 73.6412 70.8219C73.6412 70.1859 73.9796 69.8619 74.3948 70.1019C74.81 70.3419 75.1508 71.0619 75.1508 71.7003C75.1508 72.3387 74.8124 72.6579 74.3948 72.4179ZM76.106 71.0187C75.7508 68.5995 74.45 66.2067 72.8996 65.3115C72.1796 64.8987 71.5196 64.8675 70.9796 65.1531L70.922 65.1867C70.8777 65.2108 70.8352 65.2381 70.7948 65.2683C70.7098 65.324 70.6295 65.3866 70.5548 65.4555L70.5212 65.4867C70.49 65.5179 70.4588 65.5539 70.43 65.5875C70.4012 65.6211 70.3556 65.6739 70.3244 65.7171C70.2527 65.8117 70.1878 65.9111 70.13 66.0147C70.1012 66.0675 70.07 66.1227 70.0436 66.1803C69.8878 66.5068 69.7748 66.8521 69.7076 67.2075L60.3164 61.7739V62.4483L60.4076 62.4987L60.4916 62.5491V62.6907L60.3164 62.7915V63.1827L61.5932 65.8827L62.8556 66.6027L63.2732 66.0939L64.3868 66.7611L65.0252 67.8555L65.7308 68.2611L66.6116 67.4787L67.694 68.1051L68.0588 69.6051L69.8732 70.6539C69.9654 71.0363 70.08 71.413 70.2164 71.7819L70.2572 71.8995C70.862 73.4835 71.822 74.8419 72.8972 75.4683C73.0281 75.5434 73.1645 75.6084 73.3052 75.6627C73.3798 75.6923 73.4559 75.7179 73.5332 75.7395C73.5996 75.7581 73.6669 75.7734 73.7348 75.7851C73.9474 75.8248 74.1654 75.8248 74.378 75.7851L74.4668 75.7635C74.5089 75.7563 74.5499 75.7442 74.5892 75.7275L74.6828 75.6915C74.7167 75.6788 74.7496 75.6636 74.7812 75.6459L74.87 75.6003L74.9156 75.5739L74.9372 75.5619C75.7052 75.0819 76.1996 73.9179 76.1996 72.2931C76.1989 71.8666 76.1676 71.4408 76.106 71.0187Z" fill="#FFC217"/>
<path opacity="0.4" d="M75.1512 71.6908C75.1512 72.334 74.8128 72.6508 74.3976 72.4108C73.9824 72.1708 73.6416 71.4508 73.6416 70.8148C73.6416 70.1788 73.98 69.8548 74.3976 70.0948C74.5216 70.1674 74.63 70.2636 74.7168 70.378C74.7535 70.7942 74.9047 71.1921 75.1536 71.5276C75.1563 71.582 75.1555 71.6365 75.1512 71.6908Z" fill="black"/>
<path opacity="0.4" d="M77.2589 71.6907C77.2589 73.3539 76.7381 74.5299 75.9365 74.9955L74.9405 75.5691C75.7085 75.0891 76.2029 73.9251 76.2029 72.3003C76.2017 71.8714 76.1696 71.4431 76.1069 71.0187C75.7517 68.5995 74.4509 66.2067 72.9005 65.3115C72.1805 64.8987 71.5205 64.8675 70.9805 65.1531L71.9741 64.5795C72.5261 64.2579 73.2125 64.2723 73.9565 64.7019C75.5069 65.6019 76.8053 68.0019 77.1605 70.4019C77.2256 70.8285 77.2585 71.2593 77.2589 71.6907Z" fill="white"/>
<path d="M76.2028 72.3003C76.2028 73.9251 75.7084 75.0843 74.9404 75.5691L75.9364 74.9955C76.738 74.5299 77.2588 73.3539 77.2588 71.6907C77.2588 71.6283 77.2588 71.5659 77.2588 71.5059L76.2052 72.1155C76.2004 72.1755 76.2028 72.2379 76.2028 72.3003Z" fill="#FFC217"/>
<path opacity="0.1" d="M76.2028 72.3003C76.2028 73.9251 75.7084 75.0843 74.9404 75.5691L75.9364 74.9955C76.738 74.5299 77.2588 73.3539 77.2588 71.6907C77.2588 71.6283 77.2588 71.5659 77.2588 71.5059L76.2052 72.1155C76.2004 72.1755 76.2028 72.2379 76.2028 72.3003Z" fill="black"/>
<path opacity="0.15" d="M69.7585 67.8986V68.2418L60.3145 62.7914L60.4897 62.6906V62.5466L69.7585 67.8986Z" fill="black"/>
<path opacity="0.15" d="M69.7585 68.0426V68.2418L60.3145 62.7914L60.4897 62.6906V62.6882L69.7585 68.0426Z" fill="black"/>
<path opacity="0.15" d="M73.8675 75.0051C73.5099 74.9953 73.1613 74.891 72.8571 74.7027C71.3163 73.8123 70.0635 71.1675 70.0635 68.8059C70.0635 67.4283 70.4811 66.4059 71.2083 65.9787C71.7171 65.6859 72.3171 65.7219 72.9459 66.0843C74.4843 66.9747 75.7371 69.6195 75.7371 71.9811C75.7371 73.3587 75.3195 74.3811 74.5923 74.8083C74.3728 74.9379 74.1224 75.0058 73.8675 75.0051ZM71.9475 65.9595C71.7234 65.9591 71.5032 66.0179 71.3091 66.1299C70.6467 66.5115 70.2531 67.5123 70.2531 68.8059C70.2531 71.1123 71.4531 73.6875 72.9579 74.5491C73.5291 74.8803 74.0667 74.9163 74.5179 74.6571C75.1803 74.2755 75.5739 73.2747 75.5739 71.9811C75.5739 69.6747 74.3739 67.0971 72.8691 66.2379C72.5882 66.0637 72.2659 65.9676 71.9355 65.9595H71.9475Z" fill="black"/>
<path opacity="0.5" d="M70.0556 66.1803C69.8998 66.5068 69.7868 66.8521 69.7196 67.2075L60.3164 61.7739L61.3724 61.1667L70.0556 66.1803Z" fill="white"/>
</svg>
