<svg width="16" height="16" viewBox="0 0 16 16" fill="none" xmlns="http://www.w3.org/2000/svg">
<path fill-rule="evenodd" clip-rule="evenodd" d="M8.00065 0.833008C6.25175 0.833008 4.83398 2.25077 4.83398 3.99967C4.83398 5.74858 6.25175 7.16634 8.00065 7.16634C9.74955 7.16634 11.1673 5.74858 11.1673 3.99967C11.1673 2.25077 9.74955 0.833008 8.00065 0.833008ZM5.83398 3.99967C5.83398 2.80306 6.80403 1.83301 8.00065 1.83301C9.19727 1.83301 10.1673 2.80306 10.1673 3.99967C10.1673 5.19629 9.19727 6.16634 8.00065 6.16634C6.80403 6.16634 5.83398 5.19629 5.83398 3.99967Z" fill="#676767"/>
<path fill-rule="evenodd" clip-rule="evenodd" d="M6.00065 8.16634C4.25175 8.16634 2.83398 9.58411 2.83398 11.333C2.83398 13.0819 4.25175 14.4997 6.00065 14.4997H10.0007C11.7496 14.4997 13.1673 13.0819 13.1673 11.333C13.1673 9.58411 11.7496 8.16634 10.0007 8.16634H6.00065ZM3.83398 11.333C3.83398 10.1364 4.80403 9.16634 6.00065 9.16634H10.0007C11.1973 9.16634 12.1673 10.1364 12.1673 11.333C12.1673 12.5296 11.1973 13.4997 10.0007 13.4997H6.00065C4.80403 13.4997 3.83398 12.5296 3.83398 11.333Z" fill="#676767"/>
</svg>
