<svg width="24" height="24" viewBox="0 0 24 24" fill="none" xmlns="http://www.w3.org/2000/svg">
<path fill-rule="evenodd" clip-rule="evenodd" d="M16.8847 1.22404C14.9445 1.90409 13.6158 3.81233 13.7329 5.75054L13.9021 6.65646H7.47075C2.67573 6.68527 1.03931 6.64861 1.03931 6.65646C1.03924 6.72885 1 20.9869 1 20.9869C1.07392 20.9869 3.41185 21.0163 11.6451 20.9869H22.1423L22.1815 14.6889C22.1787 14.4375 22.1815 8.53559 22.1787 8.46494C22.1815 8.4632 22.5028 7.80452 22.6077 7.56033C23.0389 6.55655 23.1283 4.9816 22.8076 4.03617C22.4883 3.09479 21.4369 1.94087 20.4502 1.44889C19.4503 0.95026 17.9381 0.854848 16.8847 1.22404ZM20.2933 2.88218C21.5602 3.75406 21.9132 5.10336 21.3989 6.62489C20.9332 8.00337 18.7829 11.5235 18.3979 11.5377C18.2087 11.5446 16.412 8.76623 15.8305 7.56714C14.931 5.71218 15.0218 4.34383 16.1114 3.33281C16.5971 2.88218 17.4841 2.26636 18.4452 2.30305C19.4062 2.33974 19.7505 2.5085 20.2933 2.88218ZM17.3294 3.86663C16.4157 4.45531 16.1256 5.57608 16.6634 6.43957C17.7814 8.23531 20.3581 7.54151 20.3597 5.44433C20.361 3.97087 18.5947 3.05121 17.3294 3.86663ZM18.7974 5.1093C19.1105 5.48828 18.9155 6.10584 18.2616 6.01506C17.822 5.95396 17.7058 5.34081 18.0829 5.07093C18.3712 4.90914 18.7084 5.00155 18.7974 5.1093ZM14.7211 8.59481C14.9046 8.96458 15.3917 9.78174 15.8038 10.4107C16.2158 11.0398 16.4805 11.474 16.4502 11.5036C16.4198 11.5332 15.5144 12.2213 14.3803 12.905C11.3707 14.7193 11.8443 14.7999 6.58884 11.5778L2.36985 8.97298V8.46624V7.92229H8.34617H14.3874L14.7211 8.59481ZM4.81126 12.1196C6.04476 12.8752 7.05397 13.538 7.05397 13.5924C7.05397 13.7002 2.71793 16.999 2.47856 17.0778C2.47856 17.0778 2.47856 15.9997 2.47856 13.8926C2.47856 12.0876 2.47856 10.7797 2.47856 10.7073C2.54613 10.7338 3.57777 11.3638 4.81126 12.1196ZM20.7378 14.1097C20.7378 16.0436 20.7378 16.7158 20.7378 17.2226C20.5134 17.1463 16.0727 13.6819 16.0727 13.5832C16.1208 13.5832 16.4502 13.3134 16.7506 13.0934L17.4112 12.5895L17.7224 13.0582C18.2959 13.7723 18.7486 13.5277 20.0609 11.7952C20.4078 11.3374 20.7378 10.9245 20.7378 10.9245C20.7378 10.9413 20.7378 12.3912 20.7378 14.1097ZM9.65196 15.0313C10.7234 15.5741 10.8995 15.6197 11.7109 15.5629C12.6017 15.5007 13.1749 15.3035 14.168 14.718L14.7029 14.4026L17.7533 16.7599C20.1665 18.6247 20.8117 19.4667 20.8039 19.4559V19.7945H11.5633L2.47856 19.8287V19.2495C2.47856 19.2495 3.2178 18.582 3.29173 18.5256C3.75937 18.169 4.84413 17.295 6.21198 16.129C7.41576 15.1987 8.44453 14.3993 8.46641 14.3993C8.48829 14.3993 9.00764 14.7047 9.65196 15.0313Z" fill="#176CF7"/>
</svg>
