<svg width="24" height="24" viewBox="0 0 24 24" fill="none" xmlns="http://www.w3.org/2000/svg">
<path d="M12 24C18.6274 24 24 18.6274 24 12C24 5.37258 18.6274 0 12 0C5.37258 0 0 5.37258 0 12C0 18.6274 5.37258 24 12 24Z" fill="#516ABB"/>
<g clip-path="url(#clip0_1289_63580)">
<g clip-path="url(#clip1_1289_63580)">
<path d="M12.2681 6.57935H11.6999C11.2687 6.63488 10.8579 6.79399 10.5032 7.04276C10.1486 7.29154 9.86092 7.62242 9.66538 8.00649C9.46983 8.39057 9.37235 8.81616 9.38144 9.24609C9.39054 9.67602 9.50593 10.0972 9.71755 10.4729L11.6973 14.1155C11.7248 14.1674 11.7662 14.2109 11.8169 14.2413C11.8676 14.2716 11.9257 14.2876 11.985 14.2876C12.0443 14.2876 12.1024 14.2716 12.1531 14.2413C12.2038 14.2109 12.2452 14.1674 12.2727 14.1155L14.2515 10.4839C14.4625 10.1073 14.5773 9.6855 14.5861 9.25504C14.595 8.82459 14.4974 8.39851 14.302 8.01379C14.1066 7.62907 13.8192 7.29732 13.4647 7.04735C13.1103 6.79738 12.6996 6.63673 12.2681 6.57935Z" stroke="white" stroke-linecap="round" stroke-linejoin="bevel"/>
<path fill-rule="evenodd" clip-rule="evenodd" d="M9.9692 10.9371L9.74523 11.0703L8.74523 11.6649L8.55504 11.778L8.51084 11.9948L7.51084 16.9002L7.28516 18.0073L8.2563 17.4298L10.0008 16.3926L11.7452 17.4298L12.0008 17.5818L12.2563 17.4298L14.0008 16.3926L15.7452 17.4298L16.7164 18.0073L16.4907 16.9002L15.4907 11.9948L15.4465 11.778L15.2563 11.6649L14.2563 11.0703L14.0108 10.9243L13.0827 12.6276L14.0008 12.0818L14.555 12.4113L15.2852 15.9928L14.2563 15.3811L14.0008 15.2292L13.7452 15.3811L12.0008 16.4183L10.2563 15.3811L10.0008 15.2292L9.74523 15.3811L8.71638 15.9928L9.44649 12.4113L10.0008 12.0818L10.8733 12.6006L9.9692 10.9371Z" fill="white"/>
<path d="M12.9163 9.12783C12.9163 8.6178 12.4982 8.20435 11.9825 8.20435C11.4669 8.20435 11.0488 8.6178 11.0488 9.12783C11.0488 9.63785 11.4669 10.0513 11.9825 10.0513C12.4982 10.0513 12.9163 9.63785 12.9163 9.12783Z" stroke="white" stroke-linecap="round" stroke-linejoin="bevel"/>
</g>
</g>
<defs>
<clipPath id="clip0_1289_63580">
<rect width="12" height="12" fill="white" transform="translate(6 6)"/>
</clipPath>
<clipPath id="clip1_1289_63580">
<rect width="12" height="12" fill="white" transform="translate(6 6)"/>
</clipPath>
</defs>
</svg>
