<svg width="32" height="33" viewBox="0 0 32 33" fill="none" xmlns="http://www.w3.org/2000/svg">
<circle cx="16" cy="16.5" r="16" fill="#65BCFF"/>
<path fill-rule="evenodd" clip-rule="evenodd" d="M15.6741 9.51115C14.8062 9.57021 13.9788 9.85142 13.2585 10.3322C12.9352 10.548 12.7076 10.7394 12.4181 11.039C11.638 11.8464 11.1668 12.8486 11.0239 14.0039C10.9898 14.28 10.9927 14.9097 11.0294 15.1953C11.0821 15.6047 11.1323 15.8202 11.2929 16.3258C11.5036 16.989 11.7023 17.4933 12.0311 18.1992C12.7758 19.7984 14.0649 21.8948 15.5204 23.8741C15.8271 24.2912 15.9872 24.5 16.0003 24.5C16.0145 24.5 16.105 24.3826 16.4353 23.9353C18.2046 21.5391 19.6315 19.1291 20.3624 17.3023C20.5428 16.8514 20.7879 16.1142 20.8657 15.7883C20.9678 15.361 20.9997 15.0719 21 14.5735C21.0002 14.1595 20.9886 14.0173 20.9256 13.6659C20.7479 12.6738 20.286 11.768 19.5893 11.0451C19.296 10.7408 19.0695 10.5499 18.7432 10.3322C17.8383 9.72824 16.7525 9.43776 15.6741 9.51115ZM16.2784 12.1076C17.2772 12.2255 18.0831 12.9218 18.3678 13.9128C18.4336 14.1418 18.4483 14.2666 18.4477 14.5922C18.4472 14.8775 18.4448 14.9103 18.4133 15.0616C18.3079 15.5686 18.0851 15.993 17.7395 16.3452C17.3764 16.7151 16.9199 16.9544 16.4009 17.0469C16.1736 17.0874 15.8281 17.0874 15.6009 17.0469C15.0818 16.9544 14.6254 16.7151 14.2623 16.3452C13.9069 15.9831 13.6897 15.564 13.583 15.0343C13.551 14.8757 13.5377 14.487 13.5582 14.3099C13.6441 13.5682 14.0363 12.916 14.6426 12.5062C15.1207 12.1831 15.7072 12.0402 16.2784 12.1076Z" fill="white"/>
</svg>
