<svg width="24" height="24" viewBox="0 0 24 24" fill="none" xmlns="http://www.w3.org/2000/svg">
<path d="M4 2H12C12.5304 2 13.0391 2.21071 13.4142 2.58579C13.7893 2.96086 14 3.46957 14 4V22H4C3.46957 22 2.96086 21.7893 2.58579 21.4142C2.21071 21.0391 2 20.5304 2 20V4C2 3.46957 2.21071 2.96086 2.58579 2.58579C2.96086 2.21071 3.46957 2 4 2V2Z" stroke="#979797" stroke-width="1.5" stroke-linecap="round" stroke-linejoin="round"/>
<path d="M14 10H20C20.5304 10 21.0391 10.2107 21.4142 10.5858C21.7893 10.9609 22 11.4696 22 12V20C22 20.5304 21.7893 21.0391 21.4142 21.4142C21.0391 21.7893 20.5304 22 20 22H14" stroke="#979797" stroke-width="1.5" stroke-linecap="round" stroke-linejoin="round"/>
<path d="M5 6H6" stroke="#979797" stroke-width="1.5" stroke-linecap="round" stroke-linejoin="round"/>
<path d="M9 6H11" stroke="#979797" stroke-width="1.5" stroke-linecap="round" stroke-linejoin="round"/>
<path d="M5 10H6" stroke="#979797" stroke-width="1.5" stroke-linecap="round" stroke-linejoin="round"/>
<path d="M9 10H11" stroke="#979797" stroke-width="1.5" stroke-linecap="round" stroke-linejoin="round"/>
<path d="M5 14H6" stroke="#979797" stroke-width="1.5" stroke-linecap="round" stroke-linejoin="round"/>
<path d="M9 14H11" stroke="#979797" stroke-width="1.5" stroke-linecap="round" stroke-linejoin="round"/>
<path d="M5 18H6" stroke="#979797" stroke-width="1.5" stroke-linecap="round" stroke-linejoin="round"/>
<path d="M9 18H11" stroke="#979797" stroke-width="1.5" stroke-linecap="round" stroke-linejoin="round"/>
<path d="M17 14H19" stroke="#979797" stroke-width="1.5" stroke-linecap="round" stroke-linejoin="round"/>
<path d="M17 18H19" stroke="#979797" stroke-width="1.5" stroke-linecap="round" stroke-linejoin="round"/>
</svg>
