<svg width="12" height="17" viewBox="0 0 12 17" fill="none" xmlns="http://www.w3.org/2000/svg">
<path d="M5.8823 16C4.66704 14.5946 3.59972 13.0588 2.69845 11.4185C1.92934 10.1766 1.40029 8.79133 1.14076 7.33987C0.938799 6.48378 0.954405 5.58796 1.18605 4.74C1.41769 3.89204 1.85744 3.12096 2.4623 2.50217C3.38115 1.56416 4.61136 1.02697 5.90012 1.00099C7.18887 0.975009 8.43826 1.46222 9.39154 2.36249C10.3078 3.22641 10.8753 4.41799 10.98 5.69804C10.9827 5.70118 10.9847 5.70484 10.9861 5.70881C10.9874 5.71278 10.9879 5.71699 10.9877 5.72118C10.9877 5.73635 10.9877 5.75151 10.9877 5.76748C10.9954 5.8888 11 6.00693 11 6.12905V6.15539C11 6.25276 11 6.34774 10.9908 6.44512C10.9596 6.97327 10.8488 7.49308 10.6623 7.98559C10.407 8.77438 10.1081 9.54723 9.76692 10.3003C9.0971 11.7869 8.25135 13.1811 7.24923 14.4508C6.82664 14.9973 6.37002 15.5154 5.8823 16ZM6.00076 3.88539C5.63499 3.88965 5.2786 4.00609 4.97646 4.22006C4.67432 4.43403 4.43995 4.73596 4.30284 5.08785C4.16573 5.43974 4.13201 5.82585 4.20593 6.19758C4.27985 6.56931 4.45811 6.91004 4.71826 7.17688C4.97841 7.44371 5.30882 7.62472 5.66791 7.69713C6.02699 7.76953 6.39869 7.73008 6.73622 7.58376C7.07374 7.43743 7.362 7.19077 7.56471 6.87481C7.76742 6.55886 7.87551 6.18774 7.87538 5.80818C7.87192 5.29546 7.67262 4.80509 7.3212 4.44463C6.96977 4.08417 6.4949 3.88306 6.00076 3.88539Z" stroke="#176CF7" stroke-width="1.5"/>
</svg>
