<svg width="22" height="23" viewBox="0 0 22 23" fill="none" xmlns="http://www.w3.org/2000/svg">
<path d="M16.3977 19.4743L18.6763 17.1943C18.8579 17.0166 19.0022 16.8044 19.1007 16.5701C19.1993 16.3359 19.25 16.0843 19.25 15.8301C19.25 15.5759 19.1993 15.3243 19.1007 15.0901C19.0022 14.8558 18.8579 14.6436 18.6763 14.4659L17.3797 13.1685C17.2026 12.9911 16.9923 12.8503 16.7609 12.7543C16.5294 12.6583 16.2813 12.6089 16.0307 12.6089C15.7801 12.6089 15.532 12.6583 15.3005 12.7543C15.0691 12.8503 14.8588 12.9911 14.6817 13.1685L13.8236 14.0175C11.6146 12.6929 9.76478 10.8452 8.43708 8.63702L9.29511 7.78796C9.4724 7.61076 9.61304 7.40034 9.70899 7.16871C9.80495 6.93709 9.85434 6.68881 9.85434 6.43807C9.85434 6.18733 9.80495 5.93905 9.70899 5.70743C9.61304 5.4758 9.4724 5.26537 9.29511 5.08817L8.02713 3.80983C7.85004 3.63243 7.63975 3.4917 7.40828 3.39568C7.1768 3.29966 6.92868 3.25024 6.67811 3.25024C6.42753 3.25024 6.17941 3.29966 5.94793 3.39568C5.71646 3.4917 5.50617 3.63243 5.32908 3.80983L3.03145 6.08986C2.87529 6.2451 2.77763 6.44963 2.75504 6.66874C2.73244 6.88784 2.78632 7.10801 2.90751 7.29189C6.14304 12.1701 10.3214 16.3512 15.1965 19.5888C15.3792 19.7113 15.5986 19.7668 15.8175 19.7459C16.0364 19.7251 16.2414 19.6291 16.3977 19.4743Z" fill="#23BB20"/>
</svg>
