<svg width="16" height="16" viewBox="0 0 16 16" fill="none" xmlns="http://www.w3.org/2000/svg">
<mask id="path-1-outside-1_842_2754" maskUnits="userSpaceOnUse" x="0" y="1" width="16" height="14" fill="black">
<rect fill="white" y="1" width="16" height="14"/>
<path fill-rule="evenodd" clip-rule="evenodd" d="M10.8594 2.10238C10.4256 2.32025 10.423 2.32522 10.3974 2.98726C10.3764 3.53399 10.3281 3.92266 10.2469 4.19971C10.1619 4.49002 10.1713 4.4846 9.95513 4.3669C9.67997 4.21708 9.15125 3.81005 9.15125 3.74803C9.15125 3.7339 9.20664 3.58547 9.27434 3.41817C9.44895 2.98665 9.44053 2.81832 9.23273 2.585C9.11165 2.44905 9.00853 2.42541 8.70071 2.46306L8.42284 2.49702L8.12544 2.32996L7.82801 2.16286L7.47077 2.1835C7.01092 2.21005 6.86582 2.24016 6.75349 2.33237C6.62876 2.43474 6.58015 2.54856 6.58015 2.73835C6.58015 2.85199 6.55143 2.97894 6.48158 3.17396C6.42737 3.32531 6.37674 3.46026 6.36908 3.4738C6.36142 3.48734 6.31656 3.45835 6.26935 3.40937C6.16599 3.30208 6.11312 3.27927 5.8175 3.2144C5.4678 3.13764 5.44928 3.14609 5.05049 3.56404C4.80648 3.81976 4.61458 3.98891 4.3901 4.14626C4.01816 4.40693 3.9817 4.46408 3.9817 4.78688C3.9817 4.97575 3.97221 5.01319 3.88887 5.15338C3.79743 5.3072 3.79161 5.31121 3.4991 5.42135C3.33578 5.48286 3.1037 5.57564 2.98335 5.62756C2.72501 5.73899 2.67641 5.75262 2.40685 5.78941C2.22789 5.81381 2.14599 5.84887 1.75787 6.06703C1.0771 6.44972 1.1091 6.39079 1.09469 7.2876C1.08646 7.79995 1.07417 7.98111 1.04215 8.06364C0.959925 8.27535 0.990121 8.39444 1.20306 8.69846C1.29791 8.83388 1.32513 8.90211 1.34915 9.06449C1.36835 9.1945 1.40721 9.3125 1.46058 9.40298C1.53913 9.53613 1.5414 9.54917 1.51547 9.71847C1.47349 9.99253 1.49685 10.1069 1.65286 10.3912C1.77589 10.6153 1.79354 10.6676 1.79354 10.808C1.79354 10.9355 1.77633 10.9986 1.70997 11.1146C1.60874 11.2917 1.58484 11.4274 1.62931 11.5725C1.67059 11.707 1.97912 12.0644 2.1434 12.168C2.26022 12.2417 2.27854 12.2442 2.66186 12.2384C2.94391 12.2341 3.08122 12.2201 3.13499 12.1902C3.17668 12.167 3.31831 12.0471 3.44976 11.9238L3.68876 11.6996L4.19765 11.7199C4.54729 11.7339 4.73088 11.7301 4.7843 11.7077C4.82708 11.6898 4.96862 11.5655 5.09885 11.4314C5.47972 11.0394 5.47291 11.043 5.84165 11.043H6.1562L6.41612 10.8744C6.64041 10.729 6.70504 10.7016 6.88762 10.6743L7.09922 10.6426L7.29738 10.7692C7.4866 10.8901 7.50487 10.8956 7.70145 10.8918L7.90731 10.8879L8.09316 11.1495C8.20224 11.3031 8.29516 11.4688 8.31813 11.5508C8.3724 11.7446 8.42738 11.8247 8.62568 11.9993C8.8399 12.1878 8.94291 12.2349 9.14354 12.2357C9.40875 12.2368 9.6948 12.412 9.7547 12.61C9.82168 12.8315 10.0322 13.2532 10.1307 13.3634C10.2584 13.5061 10.3798 13.5735 10.6156 13.6323C10.7186 13.658 10.8974 13.725 11.013 13.7812C11.2695 13.9058 11.345 13.9079 11.5421 13.7964L11.6956 13.7095L11.9186 13.8553C12.2586 14.0774 12.378 14.055 12.6926 13.7099L12.8833 13.5007H13.0403C13.2378 13.5007 13.4766 13.407 13.5639 13.2953C13.6013 13.2475 13.6788 13.0452 13.7429 12.8288C13.8586 12.4373 14.2588 11.3357 14.576 10.5352C14.6739 10.2883 14.7675 10.0168 14.784 9.93184C14.8005 9.84686 14.8584 9.61248 14.9126 9.41101C14.9923 9.115 15.0084 9.01328 14.9965 8.88121C14.9802 8.70105 14.6989 7.73087 14.6291 7.61399C14.6049 7.57351 14.4782 7.40795 14.3476 7.24607C14.1445 6.99432 14.1074 6.93184 14.0911 6.81437C14.0578 6.57481 13.9532 6.46061 13.6107 6.28972C13.5887 6.27877 13.5272 6.14132 13.474 5.98429C13.4207 5.82723 13.345 5.66279 13.3057 5.61884C13.2665 5.5749 13.086 5.44018 12.9048 5.31951L12.5752 5.10005L12.5419 4.86329C12.5 4.5656 12.4664 4.47686 12.3417 4.33467C12.2517 4.23194 12.242 4.20492 12.2414 4.05578C12.2403 3.75689 12.1339 3.59698 11.8486 3.46532C11.7792 3.4333 11.7217 3.40334 11.7209 3.39871C11.7201 3.39406 11.6906 3.15059 11.6554 2.85758C11.587 2.28899 11.5546 2.1825 11.4184 2.07816C11.2733 1.96699 11.1154 1.97384 10.8594 2.10238ZM11.1971 2.7354C11.2137 2.86894 11.2417 3.10794 11.2595 3.26647C11.3004 3.63215 11.3448 3.70744 11.6065 3.85531L11.8044 3.96713V4.15895C11.8044 4.3782 11.8252 4.43344 11.969 4.59706C12.0591 4.69952 12.0766 4.74341 12.1045 4.93555C12.1675 5.36996 12.1794 5.3865 12.6669 5.71677L12.9902 5.93578L13.0935 6.23771C13.204 6.56077 13.3127 6.71029 13.4647 6.74829C13.6008 6.78232 13.6644 6.84292 13.6644 6.93864C13.6644 7.08639 13.7296 7.20224 14.0033 7.5404L14.2653 7.86417L14.4052 8.33407C14.482 8.5925 14.5511 8.84468 14.5586 8.89443C14.5666 8.94729 14.5431 9.08848 14.5021 9.23397C14.4636 9.37092 14.4086 9.58897 14.38 9.71847C14.3515 9.84798 14.1841 10.3248 14.008 10.7781C13.6673 11.6555 13.3699 12.4897 13.2946 12.7795C13.2693 12.8767 13.229 12.9727 13.2051 12.9929C13.1798 13.0143 13.0823 13.0297 12.9726 13.0297C12.7259 13.0297 12.6353 13.0788 12.4254 13.3263L12.2554 13.5268L12.0372 13.3813C11.7696 13.2029 11.6465 13.1901 11.4381 13.3191L11.3042 13.4019L11.053 13.2905C10.9148 13.2293 10.7474 13.1702 10.6808 13.1591C10.6143 13.148 10.5269 13.1141 10.4866 13.0838C10.4142 13.0293 10.2669 12.7302 10.1569 12.4144C10.0427 12.0867 9.64578 11.8039 9.24947 11.7681C9.0617 11.7511 9.02992 11.7385 8.90443 11.6316C8.79242 11.5363 8.7584 11.4851 8.72508 11.3623C8.68104 11.2 8.32642 10.6624 8.16981 10.5206C8.07544 10.4352 7.8933 10.3929 7.7372 10.4201C7.65597 10.4343 7.60805 10.4175 7.45838 10.3225C7.21957 10.1708 7.17613 10.1624 6.84851 10.2033C6.55794 10.2397 6.49077 10.2667 6.17789 10.4728L5.99955 10.5902L5.7856 10.5701C5.66793 10.5591 5.52866 10.5587 5.47606 10.5694C5.344 10.596 5.04565 10.8188 4.81124 11.0657L4.6151 11.2724L4.14111 11.2432C3.8543 11.2254 3.6316 11.2244 3.57708 11.2406C3.52752 11.2552 3.36751 11.3786 3.22151 11.5148L2.956 11.7623L2.65907 11.7632C2.36837 11.7641 2.35992 11.7622 2.25614 11.6738C2.19785 11.6241 2.12614 11.5471 2.09676 11.5028L2.0434 11.4221L2.13043 11.2781C2.21495 11.1383 2.21749 11.1246 2.21749 10.809V10.4837L2.0725 10.2228L1.92751 9.9618L1.95825 9.74361C1.99466 9.4851 1.98136 9.40233 1.8742 9.22049C1.8219 9.13175 1.78254 9.01066 1.76156 8.87397C1.73369 8.69234 1.70992 8.63612 1.58607 8.45896L1.44283 8.25407L1.48528 8.13269C1.51476 8.04845 1.52639 7.92133 1.52332 7.717C1.52092 7.55512 1.52641 7.26373 1.53555 7.06947L1.55218 6.71627L1.93886 6.49787C2.28913 6.30005 2.34996 6.27559 2.58491 6.23833C2.7525 6.21172 2.95116 6.15224 3.14632 6.07021C3.31243 6.00039 3.56363 5.89958 3.70457 5.84622C3.84549 5.79283 3.99855 5.72171 4.0447 5.68819C4.09084 5.65467 4.19095 5.52145 4.26712 5.39215C4.39986 5.16692 4.40604 5.14709 4.4151 4.91936L4.42454 4.68169L4.7311 4.46909C4.94707 4.31933 5.12078 4.16675 5.31903 3.95271L5.6004 3.64887L5.76651 3.68619C5.89233 3.71445 5.95251 3.74638 6.01462 3.8179C6.16804 3.99456 6.36462 4.03812 6.54971 3.93652C6.68125 3.86429 6.71287 3.81113 6.86823 3.40086C6.95154 3.18088 7.00001 3.00404 7.00997 2.88378L7.02509 2.70102L7.1377 2.68607C7.19963 2.67783 7.35696 2.66294 7.48732 2.65299L7.72435 2.63486L8.02839 2.80345L8.33244 2.97205L8.56797 2.95256C8.69751 2.94185 8.83238 2.92528 8.86772 2.91574C8.97874 2.88575 8.97418 2.97687 8.84948 3.28119C8.70451 3.63503 8.68463 3.72654 8.72005 3.87677C8.75399 4.02064 8.97987 4.25443 9.34474 4.52336C9.8623 4.90482 10.1981 5.0096 10.4018 4.85319C10.5615 4.73069 10.7214 4.26567 10.7898 3.72551C10.8054 3.6023 10.8264 3.30429 10.8365 3.06323L10.8549 2.625L10.9809 2.56139C11.0502 2.52643 11.1204 2.49664 11.137 2.4952C11.1544 2.49367 11.1797 2.59474 11.1971 2.7354ZM6.62118 5.71191C6.54596 5.75009 6.45748 5.81287 6.42458 5.85146C6.25983 6.04445 6.20477 6.396 6.30297 6.62797C6.35636 6.75415 6.53724 6.94782 6.63182 6.98014C6.68573 6.99853 6.68956 7.02032 6.68956 7.30826C6.68956 7.59644 6.69397 7.6214 6.75671 7.68889C6.83004 7.76783 6.89722 7.77878 6.99982 7.72848C7.09952 7.67959 7.1272 7.58126 7.1272 7.27609C7.1272 7.02279 7.13187 6.99824 7.18371 6.98055C7.21478 6.96995 7.28319 6.92062 7.33576 6.87097C7.68316 6.54276 7.61439 5.93829 7.20466 5.71856C7.01661 5.61773 6.81139 5.6154 6.62118 5.71191ZM7.06005 6.18514C7.09722 6.22511 7.1272 6.29187 7.1272 6.33455C7.1272 6.42105 6.99372 6.58382 6.92279 6.58382C6.85521 6.58382 6.7257 6.5037 6.70655 6.45004C6.61727 6.19971 6.88628 5.99812 7.06005 6.18514ZM11.0867 8.50764C10.868 8.59547 10.7338 8.74867 10.6655 8.98867C10.5777 9.2974 10.7016 9.60901 10.9907 9.80636C11.0628 9.85557 11.0659 9.86773 11.0659 10.1001C11.0659 10.3692 11.101 10.5145 11.1764 10.5579C11.2626 10.6076 11.3882 10.5911 11.4478 10.5223C11.4964 10.4662 11.5035 10.4192 11.5035 10.155V9.85213L11.6095 9.79394C11.8255 9.67538 11.9412 9.4564 11.9412 9.16624C11.9412 8.80056 11.6873 8.50608 11.3488 8.47924C11.2508 8.47144 11.1494 8.48245 11.0867 8.50764ZM11.4364 9.01075C11.6112 9.19883 11.4242 9.48777 11.1902 9.39114C11.1235 9.36359 11.0621 9.2151 11.0821 9.1296C11.1039 9.03609 11.2169 8.93849 11.3033 8.93849C11.3396 8.93849 11.3995 8.97101 11.4364 9.01075Z"/>
</mask>
<path fill-rule="evenodd" clip-rule="evenodd" d="M10.8594 2.10238C10.4256 2.32025 10.423 2.32522 10.3974 2.98726C10.3764 3.53399 10.3281 3.92266 10.2469 4.19971C10.1619 4.49002 10.1713 4.4846 9.95513 4.3669C9.67997 4.21708 9.15125 3.81005 9.15125 3.74803C9.15125 3.7339 9.20664 3.58547 9.27434 3.41817C9.44895 2.98665 9.44053 2.81832 9.23273 2.585C9.11165 2.44905 9.00853 2.42541 8.70071 2.46306L8.42284 2.49702L8.12544 2.32996L7.82801 2.16286L7.47077 2.1835C7.01092 2.21005 6.86582 2.24016 6.75349 2.33237C6.62876 2.43474 6.58015 2.54856 6.58015 2.73835C6.58015 2.85199 6.55143 2.97894 6.48158 3.17396C6.42737 3.32531 6.37674 3.46026 6.36908 3.4738C6.36142 3.48734 6.31656 3.45835 6.26935 3.40937C6.16599 3.30208 6.11312 3.27927 5.8175 3.2144C5.4678 3.13764 5.44928 3.14609 5.05049 3.56404C4.80648 3.81976 4.61458 3.98891 4.3901 4.14626C4.01816 4.40693 3.9817 4.46408 3.9817 4.78688C3.9817 4.97575 3.97221 5.01319 3.88887 5.15338C3.79743 5.3072 3.79161 5.31121 3.4991 5.42135C3.33578 5.48286 3.1037 5.57564 2.98335 5.62756C2.72501 5.73899 2.67641 5.75262 2.40685 5.78941C2.22789 5.81381 2.14599 5.84887 1.75787 6.06703C1.0771 6.44972 1.1091 6.39079 1.09469 7.2876C1.08646 7.79995 1.07417 7.98111 1.04215 8.06364C0.959925 8.27535 0.990121 8.39444 1.20306 8.69846C1.29791 8.83388 1.32513 8.90211 1.34915 9.06449C1.36835 9.1945 1.40721 9.3125 1.46058 9.40298C1.53913 9.53613 1.5414 9.54917 1.51547 9.71847C1.47349 9.99253 1.49685 10.1069 1.65286 10.3912C1.77589 10.6153 1.79354 10.6676 1.79354 10.808C1.79354 10.9355 1.77633 10.9986 1.70997 11.1146C1.60874 11.2917 1.58484 11.4274 1.62931 11.5725C1.67059 11.707 1.97912 12.0644 2.1434 12.168C2.26022 12.2417 2.27854 12.2442 2.66186 12.2384C2.94391 12.2341 3.08122 12.2201 3.13499 12.1902C3.17668 12.167 3.31831 12.0471 3.44976 11.9238L3.68876 11.6996L4.19765 11.7199C4.54729 11.7339 4.73088 11.7301 4.7843 11.7077C4.82708 11.6898 4.96862 11.5655 5.09885 11.4314C5.47972 11.0394 5.47291 11.043 5.84165 11.043H6.1562L6.41612 10.8744C6.64041 10.729 6.70504 10.7016 6.88762 10.6743L7.09922 10.6426L7.29738 10.7692C7.4866 10.8901 7.50487 10.8956 7.70145 10.8918L7.90731 10.8879L8.09316 11.1495C8.20224 11.3031 8.29516 11.4688 8.31813 11.5508C8.3724 11.7446 8.42738 11.8247 8.62568 11.9993C8.8399 12.1878 8.94291 12.2349 9.14354 12.2357C9.40875 12.2368 9.6948 12.412 9.7547 12.61C9.82168 12.8315 10.0322 13.2532 10.1307 13.3634C10.2584 13.5061 10.3798 13.5735 10.6156 13.6323C10.7186 13.658 10.8974 13.725 11.013 13.7812C11.2695 13.9058 11.345 13.9079 11.5421 13.7964L11.6956 13.7095L11.9186 13.8553C12.2586 14.0774 12.378 14.055 12.6926 13.7099L12.8833 13.5007H13.0403C13.2378 13.5007 13.4766 13.407 13.5639 13.2953C13.6013 13.2475 13.6788 13.0452 13.7429 12.8288C13.8586 12.4373 14.2588 11.3357 14.576 10.5352C14.6739 10.2883 14.7675 10.0168 14.784 9.93184C14.8005 9.84686 14.8584 9.61248 14.9126 9.41101C14.9923 9.115 15.0084 9.01328 14.9965 8.88121C14.9802 8.70105 14.6989 7.73087 14.6291 7.61399C14.6049 7.57351 14.4782 7.40795 14.3476 7.24607C14.1445 6.99432 14.1074 6.93184 14.0911 6.81437C14.0578 6.57481 13.9532 6.46061 13.6107 6.28972C13.5887 6.27877 13.5272 6.14132 13.474 5.98429C13.4207 5.82723 13.345 5.66279 13.3057 5.61884C13.2665 5.5749 13.086 5.44018 12.9048 5.31951L12.5752 5.10005L12.5419 4.86329C12.5 4.5656 12.4664 4.47686 12.3417 4.33467C12.2517 4.23194 12.242 4.20492 12.2414 4.05578C12.2403 3.75689 12.1339 3.59698 11.8486 3.46532C11.7792 3.4333 11.7217 3.40334 11.7209 3.39871C11.7201 3.39406 11.6906 3.15059 11.6554 2.85758C11.587 2.28899 11.5546 2.1825 11.4184 2.07816C11.2733 1.96699 11.1154 1.97384 10.8594 2.10238ZM11.1971 2.7354C11.2137 2.86894 11.2417 3.10794 11.2595 3.26647C11.3004 3.63215 11.3448 3.70744 11.6065 3.85531L11.8044 3.96713V4.15895C11.8044 4.3782 11.8252 4.43344 11.969 4.59706C12.0591 4.69952 12.0766 4.74341 12.1045 4.93555C12.1675 5.36996 12.1794 5.3865 12.6669 5.71677L12.9902 5.93578L13.0935 6.23771C13.204 6.56077 13.3127 6.71029 13.4647 6.74829C13.6008 6.78232 13.6644 6.84292 13.6644 6.93864C13.6644 7.08639 13.7296 7.20224 14.0033 7.5404L14.2653 7.86417L14.4052 8.33407C14.482 8.5925 14.5511 8.84468 14.5586 8.89443C14.5666 8.94729 14.5431 9.08848 14.5021 9.23397C14.4636 9.37092 14.4086 9.58897 14.38 9.71847C14.3515 9.84798 14.1841 10.3248 14.008 10.7781C13.6673 11.6555 13.3699 12.4897 13.2946 12.7795C13.2693 12.8767 13.229 12.9727 13.2051 12.9929C13.1798 13.0143 13.0823 13.0297 12.9726 13.0297C12.7259 13.0297 12.6353 13.0788 12.4254 13.3263L12.2554 13.5268L12.0372 13.3813C11.7696 13.2029 11.6465 13.1901 11.4381 13.3191L11.3042 13.4019L11.053 13.2905C10.9148 13.2293 10.7474 13.1702 10.6808 13.1591C10.6143 13.148 10.5269 13.1141 10.4866 13.0838C10.4142 13.0293 10.2669 12.7302 10.1569 12.4144C10.0427 12.0867 9.64578 11.8039 9.24947 11.7681C9.0617 11.7511 9.02992 11.7385 8.90443 11.6316C8.79242 11.5363 8.7584 11.4851 8.72508 11.3623C8.68104 11.2 8.32642 10.6624 8.16981 10.5206C8.07544 10.4352 7.8933 10.3929 7.7372 10.4201C7.65597 10.4343 7.60805 10.4175 7.45838 10.3225C7.21957 10.1708 7.17613 10.1624 6.84851 10.2033C6.55794 10.2397 6.49077 10.2667 6.17789 10.4728L5.99955 10.5902L5.7856 10.5701C5.66793 10.5591 5.52866 10.5587 5.47606 10.5694C5.344 10.596 5.04565 10.8188 4.81124 11.0657L4.6151 11.2724L4.14111 11.2432C3.8543 11.2254 3.6316 11.2244 3.57708 11.2406C3.52752 11.2552 3.36751 11.3786 3.22151 11.5148L2.956 11.7623L2.65907 11.7632C2.36837 11.7641 2.35992 11.7622 2.25614 11.6738C2.19785 11.6241 2.12614 11.5471 2.09676 11.5028L2.0434 11.4221L2.13043 11.2781C2.21495 11.1383 2.21749 11.1246 2.21749 10.809V10.4837L2.0725 10.2228L1.92751 9.9618L1.95825 9.74361C1.99466 9.4851 1.98136 9.40233 1.8742 9.22049C1.8219 9.13175 1.78254 9.01066 1.76156 8.87397C1.73369 8.69234 1.70992 8.63612 1.58607 8.45896L1.44283 8.25407L1.48528 8.13269C1.51476 8.04845 1.52639 7.92133 1.52332 7.717C1.52092 7.55512 1.52641 7.26373 1.53555 7.06947L1.55218 6.71627L1.93886 6.49787C2.28913 6.30005 2.34996 6.27559 2.58491 6.23833C2.7525 6.21172 2.95116 6.15224 3.14632 6.07021C3.31243 6.00039 3.56363 5.89958 3.70457 5.84622C3.84549 5.79283 3.99855 5.72171 4.0447 5.68819C4.09084 5.65467 4.19095 5.52145 4.26712 5.39215C4.39986 5.16692 4.40604 5.14709 4.4151 4.91936L4.42454 4.68169L4.7311 4.46909C4.94707 4.31933 5.12078 4.16675 5.31903 3.95271L5.6004 3.64887L5.76651 3.68619C5.89233 3.71445 5.95251 3.74638 6.01462 3.8179C6.16804 3.99456 6.36462 4.03812 6.54971 3.93652C6.68125 3.86429 6.71287 3.81113 6.86823 3.40086C6.95154 3.18088 7.00001 3.00404 7.00997 2.88378L7.02509 2.70102L7.1377 2.68607C7.19963 2.67783 7.35696 2.66294 7.48732 2.65299L7.72435 2.63486L8.02839 2.80345L8.33244 2.97205L8.56797 2.95256C8.69751 2.94185 8.83238 2.92528 8.86772 2.91574C8.97874 2.88575 8.97418 2.97687 8.84948 3.28119C8.70451 3.63503 8.68463 3.72654 8.72005 3.87677C8.75399 4.02064 8.97987 4.25443 9.34474 4.52336C9.8623 4.90482 10.1981 5.0096 10.4018 4.85319C10.5615 4.73069 10.7214 4.26567 10.7898 3.72551C10.8054 3.6023 10.8264 3.30429 10.8365 3.06323L10.8549 2.625L10.9809 2.56139C11.0502 2.52643 11.1204 2.49664 11.137 2.4952C11.1544 2.49367 11.1797 2.59474 11.1971 2.7354ZM6.62118 5.71191C6.54596 5.75009 6.45748 5.81287 6.42458 5.85146C6.25983 6.04445 6.20477 6.396 6.30297 6.62797C6.35636 6.75415 6.53724 6.94782 6.63182 6.98014C6.68573 6.99853 6.68956 7.02032 6.68956 7.30826C6.68956 7.59644 6.69397 7.6214 6.75671 7.68889C6.83004 7.76783 6.89722 7.77878 6.99982 7.72848C7.09952 7.67959 7.1272 7.58126 7.1272 7.27609C7.1272 7.02279 7.13187 6.99824 7.18371 6.98055C7.21478 6.96995 7.28319 6.92062 7.33576 6.87097C7.68316 6.54276 7.61439 5.93829 7.20466 5.71856C7.01661 5.61773 6.81139 5.6154 6.62118 5.71191ZM7.06005 6.18514C7.09722 6.22511 7.1272 6.29187 7.1272 6.33455C7.1272 6.42105 6.99372 6.58382 6.92279 6.58382C6.85521 6.58382 6.7257 6.5037 6.70655 6.45004C6.61727 6.19971 6.88628 5.99812 7.06005 6.18514ZM11.0867 8.50764C10.868 8.59547 10.7338 8.74867 10.6655 8.98867C10.5777 9.2974 10.7016 9.60901 10.9907 9.80636C11.0628 9.85557 11.0659 9.86773 11.0659 10.1001C11.0659 10.3692 11.101 10.5145 11.1764 10.5579C11.2626 10.6076 11.3882 10.5911 11.4478 10.5223C11.4964 10.4662 11.5035 10.4192 11.5035 10.155V9.85213L11.6095 9.79394C11.8255 9.67538 11.9412 9.4564 11.9412 9.16624C11.9412 8.80056 11.6873 8.50608 11.3488 8.47924C11.2508 8.47144 11.1494 8.48245 11.0867 8.50764ZM11.4364 9.01075C11.6112 9.19883 11.4242 9.48777 11.1902 9.39114C11.1235 9.36359 11.0621 9.2151 11.0821 9.1296C11.1039 9.03609 11.2169 8.93849 11.3033 8.93849C11.3396 8.93849 11.3995 8.97101 11.4364 9.01075Z" fill="#176CF7"/>
<path fill-rule="evenodd" clip-rule="evenodd" d="M10.8594 2.10238C10.4256 2.32025 10.423 2.32522 10.3974 2.98726C10.3764 3.53399 10.3281 3.92266 10.2469 4.19971C10.1619 4.49002 10.1713 4.4846 9.95513 4.3669C9.67997 4.21708 9.15125 3.81005 9.15125 3.74803C9.15125 3.7339 9.20664 3.58547 9.27434 3.41817C9.44895 2.98665 9.44053 2.81832 9.23273 2.585C9.11165 2.44905 9.00853 2.42541 8.70071 2.46306L8.42284 2.49702L8.12544 2.32996L7.82801 2.16286L7.47077 2.1835C7.01092 2.21005 6.86582 2.24016 6.75349 2.33237C6.62876 2.43474 6.58015 2.54856 6.58015 2.73835C6.58015 2.85199 6.55143 2.97894 6.48158 3.17396C6.42737 3.32531 6.37674 3.46026 6.36908 3.4738C6.36142 3.48734 6.31656 3.45835 6.26935 3.40937C6.16599 3.30208 6.11312 3.27927 5.8175 3.2144C5.4678 3.13764 5.44928 3.14609 5.05049 3.56404C4.80648 3.81976 4.61458 3.98891 4.3901 4.14626C4.01816 4.40693 3.9817 4.46408 3.9817 4.78688C3.9817 4.97575 3.97221 5.01319 3.88887 5.15338C3.79743 5.3072 3.79161 5.31121 3.4991 5.42135C3.33578 5.48286 3.1037 5.57564 2.98335 5.62756C2.72501 5.73899 2.67641 5.75262 2.40685 5.78941C2.22789 5.81381 2.14599 5.84887 1.75787 6.06703C1.0771 6.44972 1.1091 6.39079 1.09469 7.2876C1.08646 7.79995 1.07417 7.98111 1.04215 8.06364C0.959925 8.27535 0.990121 8.39444 1.20306 8.69846C1.29791 8.83388 1.32513 8.90211 1.34915 9.06449C1.36835 9.1945 1.40721 9.3125 1.46058 9.40298C1.53913 9.53613 1.5414 9.54917 1.51547 9.71847C1.47349 9.99253 1.49685 10.1069 1.65286 10.3912C1.77589 10.6153 1.79354 10.6676 1.79354 10.808C1.79354 10.9355 1.77633 10.9986 1.70997 11.1146C1.60874 11.2917 1.58484 11.4274 1.62931 11.5725C1.67059 11.707 1.97912 12.0644 2.1434 12.168C2.26022 12.2417 2.27854 12.2442 2.66186 12.2384C2.94391 12.2341 3.08122 12.2201 3.13499 12.1902C3.17668 12.167 3.31831 12.0471 3.44976 11.9238L3.68876 11.6996L4.19765 11.7199C4.54729 11.7339 4.73088 11.7301 4.7843 11.7077C4.82708 11.6898 4.96862 11.5655 5.09885 11.4314C5.47972 11.0394 5.47291 11.043 5.84165 11.043H6.1562L6.41612 10.8744C6.64041 10.729 6.70504 10.7016 6.88762 10.6743L7.09922 10.6426L7.29738 10.7692C7.4866 10.8901 7.50487 10.8956 7.70145 10.8918L7.90731 10.8879L8.09316 11.1495C8.20224 11.3031 8.29516 11.4688 8.31813 11.5508C8.3724 11.7446 8.42738 11.8247 8.62568 11.9993C8.8399 12.1878 8.94291 12.2349 9.14354 12.2357C9.40875 12.2368 9.6948 12.412 9.7547 12.61C9.82168 12.8315 10.0322 13.2532 10.1307 13.3634C10.2584 13.5061 10.3798 13.5735 10.6156 13.6323C10.7186 13.658 10.8974 13.725 11.013 13.7812C11.2695 13.9058 11.345 13.9079 11.5421 13.7964L11.6956 13.7095L11.9186 13.8553C12.2586 14.0774 12.378 14.055 12.6926 13.7099L12.8833 13.5007H13.0403C13.2378 13.5007 13.4766 13.407 13.5639 13.2953C13.6013 13.2475 13.6788 13.0452 13.7429 12.8288C13.8586 12.4373 14.2588 11.3357 14.576 10.5352C14.6739 10.2883 14.7675 10.0168 14.784 9.93184C14.8005 9.84686 14.8584 9.61248 14.9126 9.41101C14.9923 9.115 15.0084 9.01328 14.9965 8.88121C14.9802 8.70105 14.6989 7.73087 14.6291 7.61399C14.6049 7.57351 14.4782 7.40795 14.3476 7.24607C14.1445 6.99432 14.1074 6.93184 14.0911 6.81437C14.0578 6.57481 13.9532 6.46061 13.6107 6.28972C13.5887 6.27877 13.5272 6.14132 13.474 5.98429C13.4207 5.82723 13.345 5.66279 13.3057 5.61884C13.2665 5.5749 13.086 5.44018 12.9048 5.31951L12.5752 5.10005L12.5419 4.86329C12.5 4.5656 12.4664 4.47686 12.3417 4.33467C12.2517 4.23194 12.242 4.20492 12.2414 4.05578C12.2403 3.75689 12.1339 3.59698 11.8486 3.46532C11.7792 3.4333 11.7217 3.40334 11.7209 3.39871C11.7201 3.39406 11.6906 3.15059 11.6554 2.85758C11.587 2.28899 11.5546 2.1825 11.4184 2.07816C11.2733 1.96699 11.1154 1.97384 10.8594 2.10238ZM11.1971 2.7354C11.2137 2.86894 11.2417 3.10794 11.2595 3.26647C11.3004 3.63215 11.3448 3.70744 11.6065 3.85531L11.8044 3.96713V4.15895C11.8044 4.3782 11.8252 4.43344 11.969 4.59706C12.0591 4.69952 12.0766 4.74341 12.1045 4.93555C12.1675 5.36996 12.1794 5.3865 12.6669 5.71677L12.9902 5.93578L13.0935 6.23771C13.204 6.56077 13.3127 6.71029 13.4647 6.74829C13.6008 6.78232 13.6644 6.84292 13.6644 6.93864C13.6644 7.08639 13.7296 7.20224 14.0033 7.5404L14.2653 7.86417L14.4052 8.33407C14.482 8.5925 14.5511 8.84468 14.5586 8.89443C14.5666 8.94729 14.5431 9.08848 14.5021 9.23397C14.4636 9.37092 14.4086 9.58897 14.38 9.71847C14.3515 9.84798 14.1841 10.3248 14.008 10.7781C13.6673 11.6555 13.3699 12.4897 13.2946 12.7795C13.2693 12.8767 13.229 12.9727 13.2051 12.9929C13.1798 13.0143 13.0823 13.0297 12.9726 13.0297C12.7259 13.0297 12.6353 13.0788 12.4254 13.3263L12.2554 13.5268L12.0372 13.3813C11.7696 13.2029 11.6465 13.1901 11.4381 13.3191L11.3042 13.4019L11.053 13.2905C10.9148 13.2293 10.7474 13.1702 10.6808 13.1591C10.6143 13.148 10.5269 13.1141 10.4866 13.0838C10.4142 13.0293 10.2669 12.7302 10.1569 12.4144C10.0427 12.0867 9.64578 11.8039 9.24947 11.7681C9.0617 11.7511 9.02992 11.7385 8.90443 11.6316C8.79242 11.5363 8.7584 11.4851 8.72508 11.3623C8.68104 11.2 8.32642 10.6624 8.16981 10.5206C8.07544 10.4352 7.8933 10.3929 7.7372 10.4201C7.65597 10.4343 7.60805 10.4175 7.45838 10.3225C7.21957 10.1708 7.17613 10.1624 6.84851 10.2033C6.55794 10.2397 6.49077 10.2667 6.17789 10.4728L5.99955 10.5902L5.7856 10.5701C5.66793 10.5591 5.52866 10.5587 5.47606 10.5694C5.344 10.596 5.04565 10.8188 4.81124 11.0657L4.6151 11.2724L4.14111 11.2432C3.8543 11.2254 3.6316 11.2244 3.57708 11.2406C3.52752 11.2552 3.36751 11.3786 3.22151 11.5148L2.956 11.7623L2.65907 11.7632C2.36837 11.7641 2.35992 11.7622 2.25614 11.6738C2.19785 11.6241 2.12614 11.5471 2.09676 11.5028L2.0434 11.4221L2.13043 11.2781C2.21495 11.1383 2.21749 11.1246 2.21749 10.809V10.4837L2.0725 10.2228L1.92751 9.9618L1.95825 9.74361C1.99466 9.4851 1.98136 9.40233 1.8742 9.22049C1.8219 9.13175 1.78254 9.01066 1.76156 8.87397C1.73369 8.69234 1.70992 8.63612 1.58607 8.45896L1.44283 8.25407L1.48528 8.13269C1.51476 8.04845 1.52639 7.92133 1.52332 7.717C1.52092 7.55512 1.52641 7.26373 1.53555 7.06947L1.55218 6.71627L1.93886 6.49787C2.28913 6.30005 2.34996 6.27559 2.58491 6.23833C2.7525 6.21172 2.95116 6.15224 3.14632 6.07021C3.31243 6.00039 3.56363 5.89958 3.70457 5.84622C3.84549 5.79283 3.99855 5.72171 4.0447 5.68819C4.09084 5.65467 4.19095 5.52145 4.26712 5.39215C4.39986 5.16692 4.40604 5.14709 4.4151 4.91936L4.42454 4.68169L4.7311 4.46909C4.94707 4.31933 5.12078 4.16675 5.31903 3.95271L5.6004 3.64887L5.76651 3.68619C5.89233 3.71445 5.95251 3.74638 6.01462 3.8179C6.16804 3.99456 6.36462 4.03812 6.54971 3.93652C6.68125 3.86429 6.71287 3.81113 6.86823 3.40086C6.95154 3.18088 7.00001 3.00404 7.00997 2.88378L7.02509 2.70102L7.1377 2.68607C7.19963 2.67783 7.35696 2.66294 7.48732 2.65299L7.72435 2.63486L8.02839 2.80345L8.33244 2.97205L8.56797 2.95256C8.69751 2.94185 8.83238 2.92528 8.86772 2.91574C8.97874 2.88575 8.97418 2.97687 8.84948 3.28119C8.70451 3.63503 8.68463 3.72654 8.72005 3.87677C8.75399 4.02064 8.97987 4.25443 9.34474 4.52336C9.8623 4.90482 10.1981 5.0096 10.4018 4.85319C10.5615 4.73069 10.7214 4.26567 10.7898 3.72551C10.8054 3.6023 10.8264 3.30429 10.8365 3.06323L10.8549 2.625L10.9809 2.56139C11.0502 2.52643 11.1204 2.49664 11.137 2.4952C11.1544 2.49367 11.1797 2.59474 11.1971 2.7354ZM6.62118 5.71191C6.54596 5.75009 6.45748 5.81287 6.42458 5.85146C6.25983 6.04445 6.20477 6.396 6.30297 6.62797C6.35636 6.75415 6.53724 6.94782 6.63182 6.98014C6.68573 6.99853 6.68956 7.02032 6.68956 7.30826C6.68956 7.59644 6.69397 7.6214 6.75671 7.68889C6.83004 7.76783 6.89722 7.77878 6.99982 7.72848C7.09952 7.67959 7.1272 7.58126 7.1272 7.27609C7.1272 7.02279 7.13187 6.99824 7.18371 6.98055C7.21478 6.96995 7.28319 6.92062 7.33576 6.87097C7.68316 6.54276 7.61439 5.93829 7.20466 5.71856C7.01661 5.61773 6.81139 5.6154 6.62118 5.71191ZM7.06005 6.18514C7.09722 6.22511 7.1272 6.29187 7.1272 6.33455C7.1272 6.42105 6.99372 6.58382 6.92279 6.58382C6.85521 6.58382 6.7257 6.5037 6.70655 6.45004C6.61727 6.19971 6.88628 5.99812 7.06005 6.18514ZM11.0867 8.50764C10.868 8.59547 10.7338 8.74867 10.6655 8.98867C10.5777 9.2974 10.7016 9.60901 10.9907 9.80636C11.0628 9.85557 11.0659 9.86773 11.0659 10.1001C11.0659 10.3692 11.101 10.5145 11.1764 10.5579C11.2626 10.6076 11.3882 10.5911 11.4478 10.5223C11.4964 10.4662 11.5035 10.4192 11.5035 10.155V9.85213L11.6095 9.79394C11.8255 9.67538 11.9412 9.4564 11.9412 9.16624C11.9412 8.80056 11.6873 8.50608 11.3488 8.47924C11.2508 8.47144 11.1494 8.48245 11.0867 8.50764ZM11.4364 9.01075C11.6112 9.19883 11.4242 9.48777 11.1902 9.39114C11.1235 9.36359 11.0621 9.2151 11.0821 9.1296C11.1039 9.03609 11.2169 8.93849 11.3033 8.93849C11.3396 8.93849 11.3995 8.97101 11.4364 9.01075Z" stroke="#176CF7" stroke-width="0.8" mask="url(#path-1-outside-1_842_2754)"/>
</svg>
