<svg width="16" height="16" viewBox="0 0 16 16" fill="none" xmlns="http://www.w3.org/2000/svg">
<path fill-rule="evenodd" clip-rule="evenodd" d="M5.93092 3.36252C5.40487 2.87916 4.59629 2.87916 4.07025 3.36252C4.04871 3.38232 4.02571 3.40532 3.99584 3.4352L3.5471 3.88394C3.09554 4.3355 2.90598 4.98646 3.04451 5.60985C3.8305 9.14678 6.59276 11.909 10.1297 12.695C10.7531 12.8336 11.404 12.644 11.8556 12.1924L12.3043 11.7437C12.3342 11.7139 12.3572 11.6908 12.377 11.6693C12.8604 11.1432 12.8604 10.3347 12.377 9.80863C12.3572 9.78707 12.3342 9.76407 12.3043 9.73418L11.5697 8.99955C11.0596 8.4895 10.2894 8.34362 9.62813 8.63185C9.24958 8.79686 8.8086 8.71335 8.5166 8.42135L7.3182 7.22294C7.02619 6.93094 6.94268 6.48997 7.10769 6.11142C7.39592 5.45018 7.25005 4.67992 6.74 4.16987L6.00533 3.4352C5.97546 3.40533 5.95246 3.38232 5.93092 3.36252ZM4.5777 3.91478C4.81682 3.69507 5.18435 3.69507 5.42346 3.91478C5.43172 3.92237 5.44253 3.93307 5.48057 3.9711L6.20967 4.7002C6.50167 4.9922 6.58518 5.43317 6.42017 5.81173C6.13194 6.47296 6.27782 7.24322 6.78787 7.75327L7.98627 8.95168C8.49632 9.46173 9.26659 9.6076 9.92782 9.31937C10.3064 9.15436 10.7473 9.23788 11.0393 9.52988L11.7684 10.259C11.8065 10.297 11.8172 10.3078 11.8248 10.3161C12.0445 10.5552 12.0445 10.9227 11.8248 11.1618C11.8172 11.1701 11.8065 11.1809 11.7684 11.2189L11.3253 11.6621C11.055 11.9324 10.6655 12.0458 10.2924 11.9629C7.03973 11.2401 4.49947 8.69982 3.77665 5.44715C3.69375 5.07408 3.80719 4.68451 4.07743 4.41427L4.5206 3.9711C4.55863 3.93307 4.56945 3.92237 4.5777 3.91478Z" fill="#676767"/>
</svg>
