<svg width="30" height="30" viewBox="0 0 30 30" fill="none" xmlns="http://www.w3.org/2000/svg">
<rect width="30" height="30" rx="2" fill="#5EC6CD"/>
<path d="M10.1088 14.1C10.1088 12.48 8.88877 11.92 7.33877 11.92H4.73877V19H6.44877V16.33H7.29877C8.77877 16.33 10.1088 15.74 10.1088 14.1ZM8.39877 14.11C8.39877 14.78 7.80877 14.97 7.16877 14.97H6.44877V13.3H7.19877C7.80877 13.3 8.39877 13.43 8.39877 14.11Z" fill="white"/>
<path d="M17.5753 19V11.92H15.9153L15.9553 16.54H15.9253L13.0853 11.92H11.1353V19H12.7953L12.7553 14.37H12.7853L15.6353 19H17.5753Z" fill="white"/>
<path d="M25.3256 18.57V14.82H22.4056V16.2H23.7556V17.49C23.4556 17.62 23.0856 17.68 22.6856 17.68C21.2956 17.68 20.5256 16.75 20.5256 15.45C20.5256 14.18 21.4056 13.24 22.6056 13.24C23.2956 13.24 23.8656 13.52 24.1956 13.9L25.2756 12.67C24.6856 12.1 23.6556 11.73 22.5456 11.73C20.3856 11.73 18.7056 13.18 18.7056 15.45C18.7056 17.68 20.3356 19.18 22.5956 19.18C23.6856 19.18 24.6356 18.93 25.3256 18.57Z" fill="white"/>
</svg>
