<svg width="24" height="24" viewBox="0 0 24 24" fill="none" xmlns="http://www.w3.org/2000/svg">
<path d="M12 24C18.6274 24 24 18.6274 24 12C24 5.37258 18.6274 0 12 0C5.37258 0 0 5.37258 0 12C0 18.6274 5.37258 24 12 24Z" fill="#53B5EE"/>
<g clip-path="url(#clip0_1289_63570)">
<g clip-path="url(#clip1_1289_63570)">
<path d="M7.25 16.5211L7.6449 15.0966C8.29924 12.7569 10.0248 11.5747 11.7498 11.5747" stroke="white" stroke-linecap="round" stroke-linejoin="round"/>
<path d="M11.7501 11.5648C13.1308 11.5648 14.2501 10.4575 14.2501 9.09161C14.2501 7.7257 13.1308 6.61841 11.7501 6.61841C10.3693 6.61841 9.25 7.7257 9.25 9.09161C9.25 10.4575 10.3693 11.5648 11.7501 11.5648Z" stroke="white" stroke-linecap="round" stroke-linejoin="bevel"/>
<path d="M15.8837 12.6643L15.9241 12.6507L15.9302 12.6487L15.9578 12.6394C15.9548 12.6305 15.9496 12.6211 15.9416 12.6122C15.9406 12.6111 15.9395 12.6099 15.9383 12.6087C15.9313 12.6018 15.9225 12.5953 15.912 12.5903C15.9115 12.5901 15.9111 12.5899 15.9107 12.5897C15.9102 12.5895 15.9097 12.5893 15.9092 12.5891C15.9081 12.5886 15.907 12.5882 15.9058 12.5878C15.905 12.5875 15.9042 12.5872 15.9033 12.5869C15.9012 12.5863 15.899 12.5857 15.8967 12.5852C15.8918 12.5841 15.8866 12.5835 15.8812 12.5834C15.8701 12.5832 15.8594 12.5853 15.85 12.5892L15.8563 12.6045L15.8668 12.6301L15.8784 12.6584L15.8797 12.6616L15.8798 12.6619L15.8812 12.6651L15.8837 12.6643ZM15.8837 12.6643L15.9172 12.6342L15.8837 12.6643ZM14.1271 16.3942L14.124 16.3969L14.1271 16.3942M14.1271 16.3942L14.1271 16.3942M14.1271 16.3942L14.125 16.3948L14.1205 16.3962L14.1276 16.3941L14.1271 16.3942M14.1271 16.3942L14.1278 16.3936L14.1271 16.3942M16.7477 16.4386C16.8881 16.3135 16.9842 16.148 17.0258 15.9673C17.0642 15.8003 17.0549 15.6256 16.9988 15.4638C17.162 15.4043 17.3032 15.2987 17.4073 15.1617L17.0091 14.8593L17.4073 15.1617C17.519 15.0147 17.5831 14.8378 17.5935 14.6552L17.5937 14.6552L17.5941 14.6425C17.5999 14.459 17.551 14.2767 17.4521 14.1204C17.3611 13.9766 17.2311 13.8602 17.0756 13.7868C17.1458 13.6301 17.1699 13.4565 17.1456 13.2867C17.1193 13.1026 17.0368 12.9294 16.907 12.793C16.7815 12.6605 16.6192 12.5668 16.439 12.5262C16.2696 12.488 16.0935 12.4989 15.9307 12.5569C15.8669 12.3956 15.7596 12.2536 15.6184 12.1488L15.3204 12.5502L15.6184 12.1488C15.472 12.04 15.2961 11.9767 15.1123 11.9688C14.9284 11.961 14.7476 12.0092 14.5923 12.1055C14.4434 12.1979 14.3251 12.33 14.2484 12.4848C14.09 12.413 13.9142 12.3871 13.7409 12.4115C13.5598 12.437 13.3917 12.5157 13.2562 12.6357C13.1165 12.7592 13.02 12.9225 12.9771 13.1014C12.937 13.2688 12.945 13.4445 13.0003 13.6075C12.837 13.667 12.6957 13.7726 12.5916 13.9097C12.4799 14.0567 12.4157 14.2336 12.4053 14.4162L12.4052 14.4162L12.4048 14.4289C12.399 14.6124 12.4478 14.7947 12.5468 14.951C12.6376 15.0946 12.7673 15.2108 12.9225 15.2842C12.8525 15.4407 12.8285 15.6142 12.8528 15.7837L13.3477 15.7128L12.8528 15.7837C12.8791 15.9677 12.9616 16.1409 13.0913 16.2773C13.2169 16.4098 13.3791 16.5036 13.5593 16.5442C13.7287 16.5824 13.9046 16.5715 14.0673 16.5136C14.1308 16.6773 14.239 16.8215 14.3818 16.9276C14.5283 17.0363 14.7041 17.0996 14.888 17.1075C15.0719 17.1153 15.2527 17.0671 15.408 16.9708C15.5567 16.8785 15.6749 16.7466 15.7516 16.5921C15.9101 16.6642 16.0862 16.6902 16.2598 16.6658C16.4424 16.6401 16.6117 16.5602 16.7477 16.4386ZM15.4344 16.1851L15.7001 16.4675L15.7001 16.4675L15.4344 16.1851ZM15.7082 16.4761L15.703 16.4705L15.7082 16.4761ZM15.7482 16.5186L15.7152 16.4835L15.7152 16.4835L15.7482 16.5186ZM14.2129 12.5623C14.2146 12.5583 14.2168 12.5542 14.2196 12.5502L14.2153 12.5607L14.2129 12.5623ZM14.569 12.8965L14.2971 12.6076L14.2971 12.6076L14.569 12.8965ZM14.2901 12.6002L14.2954 12.6058L14.2901 12.6002ZM14.2832 12.5928L14.2854 12.5951L14.2832 12.5928ZM16.9539 13.8329L16.9566 13.8304L16.9539 13.8329ZM16.8782 15.4035L16.8789 15.4044L16.8782 15.4035Z" stroke="white" stroke-linecap="round" stroke-linejoin="bevel"/>
<path d="M15.0001 15.3415C15.45 15.3415 15.8147 14.9808 15.8147 14.5358C15.8147 14.0907 15.45 13.73 15.0001 13.73C14.5503 13.73 14.1855 14.0907 14.1855 14.5358C14.1855 14.9808 14.5503 15.3415 15.0001 15.3415Z" stroke="white" stroke-linecap="round" stroke-linejoin="bevel"/>
</g>
</g>
<defs>
<clipPath id="clip0_1289_63570">
<rect width="12" height="12" fill="white" transform="translate(6 6)"/>
</clipPath>
<clipPath id="clip1_1289_63570">
<rect width="12" height="12" fill="white" transform="translate(6 6)"/>
</clipPath>
</defs>
</svg>
