<svg width="68" height="77" viewBox="0 0 68 77" fill="none" xmlns="http://www.w3.org/2000/svg">
<path d="M20.3419 40.6839C31.5765 40.6839 40.6839 31.5765 40.6839 20.3419C40.6839 9.10739 31.5765 0 20.3419 0C9.10739 0 0 9.10739 0 20.3419C0 31.5765 9.10739 40.6839 20.3419 40.6839Z" fill="#FFC217"/>
<path d="M30.8263 58.3743C42.0608 58.3743 51.1682 49.2669 51.1682 38.0324C51.1682 26.7978 42.0608 17.6904 30.8263 17.6904C19.5918 17.6904 10.4844 26.7978 10.4844 38.0324C10.4844 49.2669 19.5918 58.3743 30.8263 58.3743Z" fill="white"/>
<mask id="path-3-outside-1_3327_93554" maskUnits="userSpaceOnUse" x="3.74609" y="11.4326" width="64" height="66" fill="black">
<rect fill="white" x="3.74609" y="11.4326" width="64" height="66"/>
<path fill-rule="evenodd" clip-rule="evenodd" d="M47.9053 59.9297C46.8341 58.8584 45.1417 58.7719 43.8555 59.5725C40.0346 61.9506 35.5237 63.3243 30.6919 63.3243C16.9147 63.3243 5.74609 52.1557 5.74609 38.3785C5.74609 24.6012 16.9147 13.4326 30.6919 13.4326C44.4691 13.4326 55.6378 24.6012 55.6378 38.3785C55.6378 43.9622 53.8032 49.1175 50.7039 53.2744C49.7335 54.5761 49.7429 56.4193 50.891 57.5673L52.9956 59.672C53.2355 59.9118 53.6244 59.9119 53.8643 59.672V59.672C54.1042 59.4321 54.4931 59.4321 54.733 59.672L64.5353 69.4743C65.7069 70.6459 65.7069 72.5454 64.5353 73.717L64.3681 73.8842C63.1966 75.0557 61.2971 75.0557 60.1255 73.8842L50.3224 64.0811C50.0829 63.8416 50.0829 63.4534 50.3224 63.2139V63.2139C50.5618 62.9744 50.5618 62.5862 50.3224 62.3467L47.9053 59.9297ZM10.5928 38.3785C10.5928 49.4789 19.5915 58.4776 30.6919 58.4776C41.7924 58.4776 50.791 49.4789 50.791 38.3785C50.791 27.278 41.7924 18.2793 30.6919 18.2793C19.5915 18.2793 10.5928 27.278 10.5928 38.3785Z"/>
</mask>
<path fill-rule="evenodd" clip-rule="evenodd" d="M47.9053 59.9297C46.8341 58.8584 45.1417 58.7719 43.8555 59.5725C40.0346 61.9506 35.5237 63.3243 30.6919 63.3243C16.9147 63.3243 5.74609 52.1557 5.74609 38.3785C5.74609 24.6012 16.9147 13.4326 30.6919 13.4326C44.4691 13.4326 55.6378 24.6012 55.6378 38.3785C55.6378 43.9622 53.8032 49.1175 50.7039 53.2744C49.7335 54.5761 49.7429 56.4193 50.891 57.5673L52.9956 59.672C53.2355 59.9118 53.6244 59.9119 53.8643 59.672V59.672C54.1042 59.4321 54.4931 59.4321 54.733 59.672L64.5353 69.4743C65.7069 70.6459 65.7069 72.5454 64.5353 73.717L64.3681 73.8842C63.1966 75.0557 61.2971 75.0557 60.1255 73.8842L50.3224 64.0811C50.0829 63.8416 50.0829 63.4534 50.3224 63.2139V63.2139C50.5618 62.9744 50.5618 62.5862 50.3224 62.3467L47.9053 59.9297ZM10.5928 38.3785C10.5928 49.4789 19.5915 58.4776 30.6919 58.4776C41.7924 58.4776 50.791 49.4789 50.791 38.3785C50.791 27.278 41.7924 18.2793 30.6919 18.2793C19.5915 18.2793 10.5928 27.278 10.5928 38.3785Z" fill="#176CF7"/>
<path d="M50.3224 62.3467L48.9082 63.7609L50.3224 62.3467ZM50.7039 53.2744L52.3074 54.4699L50.7039 53.2744ZM47.9053 59.9297L46.4911 61.3439L47.9053 59.9297ZM30.6919 65.3243C35.908 65.3243 40.7835 63.8402 44.9123 61.2704L42.7986 57.8745C39.2857 60.061 35.1394 61.3243 30.6919 61.3243V65.3243ZM3.74609 38.3785C3.74609 53.2602 15.8102 65.3243 30.6919 65.3243V61.3243C18.0193 61.3243 7.74609 51.0511 7.74609 38.3785H3.74609ZM30.6919 11.4326C15.8102 11.4326 3.74609 23.4967 3.74609 38.3785H7.74609C7.74609 25.7058 18.0193 15.4326 30.6919 15.4326V11.4326ZM57.6378 38.3785C57.6378 23.4967 45.5737 11.4326 30.6919 11.4326V15.4326C43.3646 15.4326 53.6378 25.7058 53.6378 38.3785H57.6378ZM52.3074 54.4699C55.6553 49.9794 57.6378 44.4075 57.6378 38.3785H53.6378C53.6378 43.5169 51.9511 48.2556 49.1005 52.079L52.3074 54.4699ZM49.4768 58.9816L51.5814 61.0862L54.4098 58.2578L52.3052 56.1531L49.4768 58.9816ZM65.9496 68.0601L56.1472 58.2578L53.3188 61.0862L63.1211 70.8885L65.9496 68.0601ZM65.7823 75.2984L65.9496 75.1312L63.1211 72.3027L62.9539 72.47L65.7823 75.2984ZM48.9082 65.4953L58.7113 75.2984L61.5397 72.47L51.7366 62.6668L48.9082 65.4953ZM51.7366 60.9325L49.3196 58.5155L46.4911 61.3439L48.9082 63.7609L51.7366 60.9325ZM30.6919 56.4776C20.6961 56.4776 12.5928 48.3743 12.5928 38.3785H8.59282C8.59282 50.5835 18.4869 60.4776 30.6919 60.4776V56.4776ZM48.791 38.3785C48.791 48.3743 40.6878 56.4776 30.6919 56.4776V60.4776C42.8969 60.4776 52.791 50.5835 52.791 38.3785H48.791ZM30.6919 20.2793C40.6878 20.2793 48.791 28.3826 48.791 38.3785H52.791C52.791 26.1734 42.8969 16.2793 30.6919 16.2793V20.2793ZM12.5928 38.3785C12.5928 28.3826 20.6961 20.2793 30.6919 20.2793V16.2793C18.4869 16.2793 8.59282 26.1734 8.59282 38.3785H12.5928ZM51.7366 64.6281C52.7571 63.6076 52.7571 61.953 51.7366 60.9325L48.9082 63.7609C48.3666 63.2194 48.3666 62.3413 48.9082 61.7997L51.7366 64.6281ZM51.7366 62.6668C52.2782 63.2084 52.2782 64.0865 51.7366 64.6281L48.9082 61.7997C47.8876 62.8202 47.8876 64.4748 48.9082 65.4953L51.7366 62.6668ZM62.9539 72.47C62.5634 72.8605 61.9302 72.8605 61.5397 72.47L58.7113 75.2984C60.6639 77.251 63.8297 77.251 65.7823 75.2984L62.9539 72.47ZM63.1211 70.8885C63.5117 71.279 63.5117 71.9122 63.1211 72.3027L65.9496 75.1312C67.9022 73.1785 67.9022 70.0127 65.9496 68.0601L63.1211 70.8885ZM55.2785 61.0862C54.7373 61.6273 53.8599 61.6273 53.3188 61.0862L56.1472 58.2578C55.1263 57.2368 53.471 57.2368 52.4501 58.2578L55.2785 61.0862ZM49.1005 52.079C47.6235 54.0601 47.5282 57.033 49.4768 58.9816L52.3052 56.1531C51.9576 55.8056 51.8435 55.092 52.3074 54.4699L49.1005 52.079ZM51.5814 61.0862C52.6023 62.1071 54.2576 62.1071 55.2785 61.0862L52.4501 58.2578C52.9912 57.7166 53.8686 57.7166 54.4098 58.2578L51.5814 61.0862ZM44.9123 61.2704C45.519 60.8928 46.1649 61.0176 46.4911 61.3439L49.3196 58.5155C47.5033 56.6992 44.7643 56.651 42.7986 57.8745L44.9123 61.2704Z" fill="#003183" mask="url(#path-3-outside-1_3327_93554)"/>
<circle cx="23.5877" cy="33.4168" r="2.62086" fill="#FFC217"/>
<circle cx="36.6912" cy="33.4168" r="2.62086" fill="#FFC217"/>
<path d="M39.0412 49.5128C39.9149 49.5128 40.6362 48.7999 40.4962 47.9375C40.1678 45.9148 39.2122 44.0308 37.7446 42.5632C35.9015 40.72 33.4016 39.6846 30.795 39.6846C28.1884 39.6846 25.6886 40.72 23.8454 42.5632C22.3778 44.0308 21.4223 45.9148 21.0938 47.9375C20.9538 48.7999 21.6751 49.5128 22.5488 49.5128V49.5128C23.4225 49.5128 24.1122 48.7948 24.3176 47.9456C24.6034 46.7646 25.2093 45.6738 26.0827 44.8005C27.3325 43.5507 29.0275 42.8485 30.795 42.8485C32.5625 42.8485 34.2576 43.5507 35.5073 44.8005C36.3807 45.6738 36.9866 46.7646 37.2724 47.9456C37.4779 48.7948 38.1675 49.5128 39.0412 49.5128V49.5128Z" fill="#FFC217"/>
</svg>
