<svg width="24" height="24" viewBox="0 0 24 24" fill="none" xmlns="http://www.w3.org/2000/svg">
<path d="M12 16.5171C12.2479 16.5171 12.4559 16.4297 12.6239 16.2549C12.7913 16.0808 12.875 15.8647 12.875 15.6068V11.9659C12.875 11.708 12.7913 11.4916 12.6239 11.3169C12.4559 11.1427 12.2479 11.0556 12 11.0556C11.7521 11.0556 11.5444 11.1427 11.377 11.3169C11.209 11.4916 11.125 11.708 11.125 11.9659V15.6068C11.125 15.8647 11.209 16.0808 11.377 16.2549C11.5444 16.4297 11.7521 16.5171 12 16.5171ZM12 9.23515C12.2479 9.23515 12.4559 9.14776 12.6239 8.973C12.7913 8.79884 12.875 8.58281 12.875 8.32491C12.875 8.067 12.7913 7.85067 12.6239 7.6759C12.4559 7.50174 12.2479 7.41467 12 7.41467C11.7521 7.41467 11.5444 7.50174 11.377 7.6759C11.209 7.85067 11.125 8.067 11.125 8.32491C11.125 8.58281 11.209 8.79884 11.377 8.973C11.5444 9.14776 11.7521 9.23515 12 9.23515ZM12 21H11.7812C11.7083 21 11.6427 20.9848 11.5844 20.9545C9.67396 20.3325 8.09896 19.0997 6.85938 17.2562C5.61979 15.4132 5 13.3767 5 11.1467V6.84576C5 6.4665 5.10587 6.12516 5.31762 5.82174C5.52879 5.51833 5.80208 5.29836 6.1375 5.16182L11.3875 3.11378C11.5917 3.03793 11.7958 3 12 3C12.2042 3 12.4083 3.03793 12.6125 3.11378L17.8625 5.16182C18.1979 5.29836 18.4715 5.51833 18.6833 5.82174C18.8944 6.12516 19 6.4665 19 6.84576V11.1467C19 13.3767 18.3802 15.4132 17.1406 17.2562C15.901 19.0997 14.326 20.3325 12.4156 20.9545C12.3427 20.9848 12.2042 21 12 21ZM12 19.1568C13.5167 18.6561 14.7708 17.6549 15.7625 16.153C16.7542 14.6511 17.25 12.9823 17.25 11.1467V6.84576L12 4.79772L6.75 6.84576V11.1467C6.75 12.9823 7.24583 14.6511 8.2375 16.153C9.22917 17.6549 10.4833 18.6561 12 19.1568Z" fill="black"/>
</svg>
