<svg width="24" height="24" viewBox="0 0 24 24" fill="none" xmlns="http://www.w3.org/2000/svg">
<path d="M12 24C18.6274 24 24 18.6274 24 12C24 5.37258 18.6274 0 12 0C5.37258 0 0 5.37258 0 12C0 18.6274 5.37258 24 12 24Z" fill="#EE7353"/>
<g clip-path="url(#clip0_1289_63600)">
<path d="M5.12109 14.3226L5.38599 13.3717C5.52652 12.7197 5.87368 12.1346 6.37261 11.7088C6.87154 11.2831 7.49378 11.0411 8.14096 11.021" stroke="white" stroke-linecap="round" stroke-linejoin="round"/>
<path d="M8.14059 11.0145C9.06717 11.0145 9.8183 10.2754 9.8183 9.3637C9.8183 8.45198 9.06717 7.71289 8.14059 7.71289C7.21402 7.71289 6.46289 8.45198 6.46289 9.3637C6.46289 10.2754 7.21402 11.0145 8.14059 11.0145Z" stroke="white" stroke-linecap="round" stroke-linejoin="bevel"/>
<path d="M18.8773 14.3226L18.6124 13.3717C18.4719 12.7197 18.1247 12.1346 17.6258 11.7088C17.1268 11.2831 16.5046 11.0411 15.8574 11.021" stroke="white" stroke-linecap="round" stroke-linejoin="round"/>
<path d="M15.8574 11.0145C16.784 11.0145 17.5351 10.2754 17.5351 9.3637C17.5351 8.45198 16.784 7.71289 15.8574 7.71289C14.9308 7.71289 14.1797 8.45198 14.1797 9.3637C14.1797 10.2754 14.9308 11.0145 15.8574 11.0145Z" stroke="white" stroke-linecap="round" stroke-linejoin="bevel"/>
<path d="M8.95508 16.5029L9.21998 15.552C10.0956 12.4143 13.8533 12.4143 14.7289 15.552L14.9938 16.5029" stroke="white" stroke-linecap="round" stroke-linejoin="round"/>
<path d="M11.9746 13.1947C12.9011 13.1947 13.6523 12.4556 13.6523 11.5439C13.6523 10.6322 12.9011 9.89307 11.9746 9.89307C11.048 9.89307 10.2969 10.6322 10.2969 11.5439C10.2969 12.4556 11.048 13.1947 11.9746 13.1947Z" stroke="white" stroke-linecap="round" stroke-linejoin="bevel"/>
<path d="M11.9746 13.1947C12.9011 13.1947 13.6523 12.4556 13.6523 11.5439C13.6523 10.6322 12.9011 9.89307 11.9746 9.89307C11.048 9.89307 10.2969 10.6322 10.2969 11.5439C10.2969 12.4556 11.048 13.1947 11.9746 13.1947Z" stroke="white" stroke-linecap="round" stroke-linejoin="bevel"/>
</g>
<defs>
<clipPath id="clip0_1289_63600">
<rect width="14.6667" height="10.6667" fill="white" transform="translate(4.66602 6.6665)"/>
</clipPath>
</defs>
</svg>
