<svg width="48" height="48" viewBox="0 0 48 48" fill="none" xmlns="http://www.w3.org/2000/svg">
<path d="M37.7522 7.34336L23.0133 6.00269C22.9591 5.99585 22.904 6.00211 22.8527 6.02093C22.8014 6.03975 22.7554 6.0706 22.7184 6.11087L7.10765 21.7217C6.39801 22.4324 5.9996 23.3959 6 24.4003C6.0004 25.4047 6.39956 26.3678 7.10977 27.078L19.6828 39.6511C20.3934 40.3616 21.3572 40.7608 22.3621 40.7608C23.367 40.7608 24.3307 40.3616 25.0413 39.6511L40.4612 24.2312C40.5026 24.1925 40.5348 24.1449 40.5554 24.092C40.576 24.0391 40.5844 23.9823 40.58 23.9257L39.3602 9.06587C39.324 8.64097 39.1456 8.24068 38.8538 7.92967C38.5621 7.61866 38.174 7.41509 37.7522 7.35185V7.34336Z" stroke="#E4AD13" stroke-width="2.5" stroke-linecap="round" stroke-linejoin="round"/>
<path d="M25.7396 20.8795C26.3941 21.534 27.228 21.9797 28.1358 22.1603C29.0436 22.3408 29.9846 22.2482 30.8398 21.8939C31.6949 21.5397 32.4259 20.9399 32.9401 20.1703C33.4543 19.4006 33.7288 18.4958 33.7288 17.5702C33.7288 16.6446 33.4543 15.7397 32.9401 14.9701C32.4259 14.2005 31.6949 13.6007 30.8398 13.2464C29.9846 12.8922 29.0436 12.7995 28.1358 12.9801C27.228 13.1607 26.3941 13.6064 25.7396 14.2609C24.8619 15.1386 24.3688 16.329 24.3688 17.5702C24.3688 18.8114 24.8619 20.0018 25.7396 20.8795Z" stroke="#E4AD13" stroke-width="2.5" stroke-linecap="round" stroke-linejoin="round"/>
</svg>
