<svg width="14" height="14" viewBox="0 0 14 14" fill="none" xmlns="http://www.w3.org/2000/svg">
<g clip-path="url(#clip0_1155_22750)">
<path fill-rule="evenodd" clip-rule="evenodd" d="M5.15769 2.57072L3.58055 2.15568C2.71651 1.92831 1.92801 2.7168 2.15539 3.58085L2.57043 5.15799L1.16183 5.97967C0.390068 6.42988 0.390069 7.54498 1.16183 7.99514L2.57043 8.81683L2.1554 10.394C1.92802 11.258 2.71651 12.0465 3.58056 11.8191L5.15768 11.4041L5.97942 12.8128C6.42958 13.5845 7.54468 13.5845 7.9949 12.8128L8.81658 11.4041L10.3937 11.8191C11.2577 12.0465 12.0462 11.258 11.8188 10.394L11.4038 8.81688L12.8125 7.99514C13.5843 7.54498 13.5843 6.42988 12.8125 5.97967L11.4038 5.15793L11.8188 3.58083C12.0462 2.71679 11.2577 1.92829 10.3937 2.15567L8.81658 2.5707L7.9949 1.16207C7.54468 0.390312 6.42958 0.390313 5.97942 1.16207L5.15769 2.57072Z" fill="#36B100"/>
<path d="M6.30341 8.74804C6.19432 8.74629 6.0899 8.70779 6.01104 8.64018L4.21553 7.10356C4.17458 7.06874 4.14178 7.02691 4.11904 6.9806C4.0963 6.93422 4.08407 6.88435 4.08308 6.83371C4.08207 6.78314 4.09231 6.73285 4.1132 6.68584C4.13409 6.63882 4.16521 6.59595 4.20475 6.55984C4.28507 6.48645 4.39436 6.44428 4.50905 6.44247C4.62375 6.44066 4.73464 6.47934 4.81778 6.55015L6.29985 7.81797L9.15258 4.80304C9.22707 4.72541 9.33248 4.677 9.44635 4.6682C9.56016 4.6594 9.67332 4.6909 9.76152 4.75596C9.8051 4.78817 9.84103 4.82783 9.86734 4.8726C9.89359 4.91739 9.90969 4.9664 9.91471 5.0168C9.91966 5.0672 9.91342 5.11798 9.89627 5.1662C9.87918 5.21442 9.85153 5.25911 9.81501 5.29768L6.67931 8.61282C6.63841 8.65599 6.58743 8.69064 6.53003 8.71432C6.47269 8.738 6.41021 8.7502 6.34698 8.75008C6.33245 8.75008 6.31793 8.74938 6.30341 8.74804Z" fill="white"/>
</g>
<defs>
<clipPath id="clip0_1155_22750">
<rect width="14" height="14" fill="white"/>
</clipPath>
</defs>
</svg>
