<svg width="24" height="24" viewBox="0 0 24 24" fill="none" xmlns="http://www.w3.org/2000/svg">
<path d="M12 24C18.6274 24 24 18.6274 24 12C24 5.37258 18.6274 0 12 0C5.37258 0 0 5.37258 0 12C0 18.6274 5.37258 24 12 24Z" fill="#E4AD13"/>
<path d="M7.76172 8.36719H13.3575" stroke="white" stroke-linecap="round" stroke-linejoin="round"/>
<path d="M7.80273 9.85156H10.9487" stroke="white" stroke-linecap="round" stroke-linejoin="round"/>
<path d="M7.76172 11.3359H11.9577" stroke="white" stroke-linecap="round" stroke-linejoin="round"/>
<path d="M7.76172 12.8203H11.1625" stroke="white" stroke-linecap="round" stroke-linejoin="round"/>
<path d="M7.76172 14.3047H11.2575" stroke="white" stroke-linecap="round" stroke-linejoin="round"/>
<path d="M7.76172 15.5938H15.0484" stroke="white" stroke-linecap="round" stroke-linejoin="round"/>
<path d="M13.9291 14.2985C15.0247 14.2985 15.9128 13.4416 15.9128 12.3846C15.9128 11.3276 15.0247 10.4707 13.9291 10.4707C12.8335 10.4707 11.9453 11.3276 11.9453 12.3846C11.9453 13.4416 12.8335 14.2985 13.9291 14.2985Z" stroke="white" stroke-linecap="round" stroke-linejoin="bevel"/>
<path d="M15.3125 13.7578L16.6952 15.0923" stroke="white" stroke-linecap="round" stroke-linejoin="bevel"/>
</svg>
