<svg width="24" height="24" viewBox="0 0 24 24" fill="none" xmlns="http://www.w3.org/2000/svg">
<path d="M12 24C18.6274 24 24 18.6274 24 12C24 5.37258 18.6274 0 12 0C5.37258 0 0 5.37258 0 12C0 18.6274 5.37258 24 12 24Z" fill="#6DD894"/>
<g clip-path="url(#clip0_1289_63560)">
<g clip-path="url(#clip1_1289_63560)">
<path d="M7.41211 16.9368L7.8109 15.4828C9.12876 10.6867 14.783 10.6867 16.1008 15.4828L16.4996 16.9368" stroke="white" stroke-linecap="round" stroke-linejoin="round"/>
<path d="M11.9951 11.537C13.2609 11.537 14.287 10.5109 14.287 9.24505C14.287 7.97926 13.2609 6.95312 11.9951 6.95312C10.7293 6.95312 9.70312 7.97926 9.70312 9.24505C9.70312 10.5109 10.7293 11.537 11.9951 11.537Z" stroke="white" stroke-linecap="round" stroke-linejoin="bevel"/>
</g>
</g>
<defs>
<clipPath id="clip0_1289_63560">
<rect width="12" height="12" fill="white" transform="translate(6 6)"/>
</clipPath>
<clipPath id="clip1_1289_63560">
<rect width="12" height="12" fill="white" transform="translate(6 6)"/>
</clipPath>
</defs>
</svg>
