<svg width="18" height="18" viewBox="0 0 18 18" fill="none" xmlns="http://www.w3.org/2000/svg">
<path fill-rule="evenodd" clip-rule="evenodd" d="M11.7399 3.57666H6.11854C5.782 3.57666 5.45924 3.70762 5.22127 3.94074C4.9833 4.17385 4.84961 4.49002 4.84961 4.8197V14.764C4.84961 15.0937 4.9833 15.4098 5.22127 15.6429C5.45924 15.8761 5.782 16.007 6.11854 16.007H13.7321C14.0687 16.007 14.3914 15.8761 14.6294 15.6429C14.8674 15.4098 15.0011 15.0937 15.0011 14.764V7.87756C15.0034 7.75045 14.9633 7.62607 14.8869 7.5233L12.2538 3.84391C12.1961 3.76244 12.1194 3.69567 12.03 3.64918C11.9406 3.60268 11.8411 3.57782 11.7399 3.57666V3.57666Z" stroke="white" stroke-linecap="round" stroke-linejoin="bevel"/>
<path fill-rule="evenodd" clip-rule="evenodd" d="M3.89589 1.52319C3.43002 1.52319 2.98122 1.70438 2.64872 2.03009C2.31588 2.35614 2.12695 2.80058 2.12695 3.26623V13.2105C2.12695 13.6762 2.31588 14.1206 2.64872 14.4467C2.98122 14.7724 3.43002 14.9536 3.89589 14.9536H4.86366C4.85384 14.8912 4.84882 14.8279 4.84882 14.764V13.9536H3.89589C3.68866 13.9536 3.49195 13.8728 3.3485 13.7323C3.20541 13.5921 3.12695 13.4042 3.12695 13.2105V3.26623C3.12695 3.07253 3.20541 2.88463 3.3485 2.74445C3.49195 2.60393 3.68866 2.52319 3.89589 2.52319H9.51338C9.53593 2.52373 9.55762 2.52942 9.57665 2.53931C9.59615 2.54945 9.61185 2.56347 9.62311 2.57938L9.6231 2.57938L9.62456 2.58142L10.3368 3.57669H11.5665L10.4392 2.00151L10.4384 2.00032C10.3344 1.85382 10.1969 1.73472 10.038 1.65211C9.87876 1.56929 9.7022 1.52528 9.52298 1.52323L9.51726 2.02319V1.52319H3.89589Z" fill="white"/>
</svg>
