<svg width="14" height="13" viewBox="0 0 14 13" fill="none" xmlns="http://www.w3.org/2000/svg">
<path d="M2.667 11.244H2.2C1.88174 11.244 1.57652 11.1176 1.35147 10.8926C1.12643 10.6675 1 10.3623 1 10.044V4.36504C1 4.04678 1.12643 3.74155 1.35147 3.51651C1.57652 3.29147 1.88174 3.16504 2.2 3.16504H8.04C8.35826 3.16504 8.66348 3.29147 8.88853 3.51651C9.11357 3.74155 9.24 4.04678 9.24 4.36504V8.49504" stroke="#176CF7" stroke-linecap="round" stroke-linejoin="round"/>
<path d="M9.21875 5.38086H10.8797C10.9868 5.38056 11.0924 5.40463 11.1888 5.45123C11.2851 5.49784 11.3696 5.56577 11.4357 5.64986L12.7868 7.44286C12.9246 7.62753 13 7.8514 13.0018 8.08186V11.0699C13.0018 11.0856 12.9986 11.1012 12.9926 11.1158C12.9866 11.1303 12.9777 11.1436 12.9666 11.1547C12.9555 11.1659 12.9422 11.1747 12.9277 11.1807C12.9131 11.1868 12.8975 11.1899 12.8818 11.1899H11.0597" stroke="#176CF7" stroke-linecap="round" stroke-linejoin="round"/>
<path d="M9.67103 12.4749C10.4105 12.4749 11.01 11.8754 11.01 11.1359C11.01 10.3964 10.4105 9.79688 9.67103 9.79688C8.93152 9.79688 8.33203 10.3964 8.33203 11.1359C8.33203 11.8754 8.93152 12.4749 9.67103 12.4749Z" stroke="#176CF7" stroke-linecap="round" stroke-linejoin="round"/>
<path d="M3.99916 12.4749C4.73867 12.4749 5.33816 11.8754 5.33816 11.1359C5.33816 10.3964 4.73867 9.79688 3.99916 9.79688C3.25965 9.79688 2.66016 10.3964 2.66016 11.1359C2.66016 11.8754 3.25965 12.4749 3.99916 12.4749Z" stroke="#176CF7" stroke-linecap="round" stroke-linejoin="round"/>
<path d="M8.33944 11.2139H5.27344" stroke="#176CF7" stroke-linecap="round" stroke-linejoin="round"/>
<path d="M5.62755 0.567871H5.07755C4.65882 0.622189 4.25977 0.778209 3.91524 1.0223C3.57072 1.2664 3.2912 1.59114 3.10111 1.96816C2.91102 2.34519 2.81614 2.76302 2.82476 3.18516C2.83338 3.60731 2.94523 4.02092 3.15055 4.38987L5.07755 7.96787C5.10423 8.01878 5.14433 8.06142 5.19351 8.09116C5.24269 8.12091 5.29907 8.13664 5.35655 8.13664C5.41402 8.13664 5.4704 8.12091 5.51958 8.09116C5.56876 8.06142 5.60886 8.01878 5.63555 7.96787L7.55355 4.40087C7.75773 4.03105 7.86873 3.61704 7.87693 3.19467C7.88513 2.77231 7.7903 2.3543 7.60062 1.97683C7.41095 1.59936 7.13216 1.27379 6.78837 1.02829C6.44458 0.78279 6.04614 0.624759 5.62755 0.567871Z" fill="white" stroke="#176CF7" stroke-linecap="round" stroke-linejoin="bevel"/>
<path d="M6.25831 3.07056C6.25831 2.56992 5.85246 2.16406 5.35181 2.16406C4.85117 2.16406 4.44531 2.56992 4.44531 3.07056C4.44531 3.57121 4.85117 3.97706 5.35181 3.97706C5.85246 3.97706 6.25831 3.57121 6.25831 3.07056Z" fill="white" stroke="#176CF7" stroke-linecap="round" stroke-linejoin="bevel"/>
</svg>
