<svg width="14" height="14" viewBox="0 0 14 14" fill="none" xmlns="http://www.w3.org/2000/svg">
<path d="M7.61905 1.33301C6.10352 1.33301 4.65007 1.93003 3.57844 2.99274C2.5068 4.05544 1.90476 5.49678 1.90476 6.99967H0L2.46952 9.44862L2.51429 9.53645L5.07905 6.99967H3.17429C3.16937 5.97421 3.52348 4.97883 4.17618 4.18343C4.82888 3.38803 5.73971 2.84192 6.75322 2.63829C7.76673 2.43467 8.82008 2.58616 9.7335 3.06691C10.6469 3.54766 11.3638 4.32787 11.7617 5.27437C12.1597 6.22088 12.2141 7.275 11.9156 8.25684C11.6171 9.23867 10.9843 10.0874 10.1251 10.658C9.26593 11.2287 8.23366 11.486 7.20449 11.386C6.17533 11.286 5.21305 10.8349 4.4819 10.1097L3.58 11.0041C4.2443 11.6637 5.06242 12.1506 5.96186 12.4216C6.8613 12.6926 7.81427 12.7394 8.73631 12.5578C9.65834 12.3762 10.521 11.9718 11.2477 11.3805C11.9744 10.7892 12.5428 10.0292 12.9025 9.16797C13.2622 8.30671 13.4021 7.37075 13.3098 6.44304C13.2174 5.51534 12.8957 4.62456 12.3732 3.84966C11.8506 3.07475 11.1433 2.43965 10.3141 2.00066C9.48478 1.56167 8.55909 1.33234 7.61905 1.33301ZM6.98381 4.48084V7.62962L9.70095 9.22856L10.1581 8.4664L7.93619 7.1574V4.48084H6.98381Z" fill="#176CF7"/>
</svg>
