<svg width="24" height="24" viewBox="0 0 24 24" fill="none" xmlns="http://www.w3.org/2000/svg">
<g clip-path="url(#clip0_1142_133569)">
<path fill-rule="evenodd" clip-rule="evenodd" d="M6.7 1C4.48 1 2.69 2.78 2.69 5C2.69 7.22 4.48 9.01 6.7 9.01C8.92 9.01 10.71 7.23 10.71 5C10.71 2.77 8.92 1 6.7 1Z" fill="#74A7FA"/>
<path fill-rule="evenodd" clip-rule="evenodd" d="M17.3 1C15.08 1 13.29 2.78 13.29 5C13.29 7.22 15.08 9.01 17.3 9.01C19.52 9.01 21.31 7.23 21.31 5C21.31 2.77 19.52 1 17.3 1ZM17.3 10.96C15.74 10.96 14.29 11.07 13.21 11.43C13.71 11.96 14.02 12.65 14.02 13.56C14.02 14.47 13.72 15.15 13.23 15.68C14.31 16.02 15.75 16.13 17.3 16.13C20.57 16.13 23.35 15.61 23.35 13.56C23.35 11.51 20.58 10.96 17.3 10.96Z" fill="#74A7FA"/>
<path fill-rule="evenodd" clip-rule="evenodd" d="M12.76 13.56C12.76 14.22 12.48 14.71 12 15.07C10.95 15.89 8.94002 16.13 6.70002 16.13C3.42002 16.13 0.650024 15.6 0.650024 13.53C0.650024 11.46 3.44002 10.96 6.70002 10.96C8.93002 10.96 10.94 11.21 11.98 12.03C12.47 12.4 12.75 12.9 12.75 13.56H12.76Z" fill="#74A7FA"/>
<path d="M18.21 17.5298H15.53C15.01 17.5298 14.58 17.9498 14.58 18.4798C14.58 19.0098 15 19.4298 15.53 19.4298H15.92C14.83 20.4898 13.37 21.1098 11.8 21.1098C9.64001 21.1098 7.65001 19.9298 6.61001 18.0298C6.36001 17.5698 5.79001 17.3998 5.33001 17.6498C4.87001 17.8998 4.70001 18.4798 4.95001 18.9298C6.32001 21.4398 8.94001 22.9998 11.8 22.9998C13.88 22.9998 15.83 22.1698 17.27 20.7498V21.1298C17.27 21.6498 17.69 22.0798 18.22 22.0798C18.75 22.0798 19.17 21.6598 19.17 21.1298V18.4798C19.17 17.9598 18.75 17.5298 18.22 17.5298H18.21Z" fill="#74A7FA"/>
</g>
<defs>
<clipPath id="clip0_1142_133569">
<rect width="24" height="24" fill="white"/>
</clipPath>
</defs>
</svg>
