<svg width="32" height="32" viewBox="0 0 32 32" fill="none" xmlns="http://www.w3.org/2000/svg">
<path d="M14.2824 1.11499L10.3773 9.39415L1.64128 10.727C1.28137 10.7966 0.947071 10.9626 0.674031 11.2074C0.400991 11.4522 0.199443 11.7666 0.0908755 12.117C-0.0176921 12.4674 -0.02921 12.8408 0.0575501 13.1972C0.14431 13.5537 0.326096 13.8799 0.583526 14.1411L6.90408 20.5811L5.40842 29.6788C5.33533 30.0359 5.36459 30.4064 5.49284 30.7476C5.62109 31.0887 5.8431 31.3866 6.13325 31.6069C6.4234 31.8272 6.76987 31.961 7.13268 31.9927C7.4955 32.0244 7.85988 31.9528 8.18379 31.7861L16 27.4894L23.8162 31.7861C24.1402 31.9519 24.5043 32.0229 24.8668 31.9908C25.2292 31.9587 25.5753 31.825 25.8652 31.6049C26.1551 31.3847 26.377 31.0872 26.5055 30.7465C26.634 30.4058 26.6638 30.0357 26.5916 29.6788L25.0959 20.5811L31.4165 14.1411C31.6739 13.8799 31.8557 13.5537 31.9424 13.1972C32.0292 12.8408 32.0177 12.4674 31.9091 12.117C31.8006 11.7666 31.599 11.4522 31.326 11.2074C31.0529 10.9626 30.7186 10.7966 30.3587 10.727L21.6227 9.39415L17.7156 1.11499C17.5677 0.783019 17.3268 0.501051 17.0222 0.303177C16.7176 0.105304 16.3622 0 15.999 0C15.6358 0 15.2804 0.105304 14.9758 0.303177C14.6712 0.501051 14.4303 0.783019 14.2824 1.11499Z" fill="#FFC217"/>
</svg>
