<svg width="24" height="24" viewBox="0 0 24 24" fill="none" xmlns="http://www.w3.org/2000/svg">
<g clip-path="url(#clip0_556_5309)">
<g filter="url(#filter0_d_556_5309)">
<path fill-rule="evenodd" clip-rule="evenodd" d="M12 24C18.6274 24 24 18.6274 24 12C24 5.37258 18.6274 0 12 0C5.37258 0 0 5.37258 0 12C0 18.6274 5.37258 24 12 24Z" fill="#3ECD00"/>
</g>
<g filter="url(#filter1_d_556_5309)">
<path fill-rule="evenodd" clip-rule="evenodd" d="M12.0002 18.6634C15.6821 18.6634 18.6668 15.6786 18.6668 11.9967C18.6668 8.31485 15.6821 5.33008 12.0002 5.33008C8.31826 5.33008 5.3335 8.31485 5.3335 11.9967C5.3335 15.6786 8.31826 18.6634 12.0002 18.6634Z" fill="#DCFFE0"/>
<path d="M18.4168 11.9967C18.4168 15.5406 15.544 18.4134 12.0002 18.4134C8.45634 18.4134 5.5835 15.5406 5.5835 11.9967C5.5835 8.45292 8.45634 5.58008 12.0002 5.58008C15.544 5.58008 18.4168 8.45292 18.4168 11.9967Z" stroke="#DCFFE0" stroke-width="0.5"/>
</g>
</g>
<defs>
<filter id="filter0_d_556_5309" x="-8" y="-4" width="40" height="40" filterUnits="userSpaceOnUse" color-interpolation-filters="sRGB">
<feFlood flood-opacity="0" result="BackgroundImageFix"/>
<feColorMatrix in="SourceAlpha" type="matrix" values="0 0 0 0 0 0 0 0 0 0 0 0 0 0 0 0 0 0 127 0" result="hardAlpha"/>
<feOffset dy="4"/>
<feGaussianBlur stdDeviation="4"/>
<feColorMatrix type="matrix" values="0 0 0 0 0.172549 0 0 0 0 0.152941 0 0 0 0 0.219608 0 0 0 0.08 0"/>
<feBlend mode="normal" in2="BackgroundImageFix" result="effect1_dropShadow_556_5309"/>
<feBlend mode="normal" in="SourceGraphic" in2="effect1_dropShadow_556_5309" result="shape"/>
</filter>
<filter id="filter1_d_556_5309" x="-2.6665" y="1.33008" width="29.3335" height="29.333" filterUnits="userSpaceOnUse" color-interpolation-filters="sRGB">
<feFlood flood-opacity="0" result="BackgroundImageFix"/>
<feColorMatrix in="SourceAlpha" type="matrix" values="0 0 0 0 0 0 0 0 0 0 0 0 0 0 0 0 0 0 127 0" result="hardAlpha"/>
<feOffset dy="4"/>
<feGaussianBlur stdDeviation="4"/>
<feColorMatrix type="matrix" values="0 0 0 0 0.172549 0 0 0 0 0.152941 0 0 0 0 0.219608 0 0 0 0.08 0"/>
<feBlend mode="normal" in2="BackgroundImageFix" result="effect1_dropShadow_556_5309"/>
<feBlend mode="normal" in="SourceGraphic" in2="effect1_dropShadow_556_5309" result="shape"/>
</filter>
<clipPath id="clip0_556_5309">
<rect width="24" height="24" fill="white"/>
</clipPath>
</defs>
</svg>
