<svg width="78" height="19" viewBox="0 0 78 19" fill="none" xmlns="http://www.w3.org/2000/svg">
<rect x="48" y="8.00003" width="12" height="2" fill="#FFC217"/>
<path d="M48 9.50003C48 14.1945 44.1944 18 39.5 18C34.8056 18 31 14.1945 31 9.50003C31 4.80561 34.8056 1.00003 39.5 1.00003C44.1944 1.00003 48 4.80561 48 9.50003Z" fill="#176CF7" stroke="#FFC217" stroke-width="2"/>
<path d="M42.5811 14V12.248H39.1131L41.0811 10.496C41.8611 9.80003 42.5691 9.09203 42.5691 7.88003C42.5691 6.10403 41.0571 5.27603 39.4971 5.27603C37.8411 5.27603 36.4491 6.29603 36.2571 8.01203L38.1891 8.27603C38.2731 7.52003 38.7171 6.99203 39.3891 6.99203C40.0251 6.99203 40.4451 7.41203 40.4451 8.01203C40.4451 8.52803 40.1691 8.92403 39.7491 9.32003L36.4371 12.32V14H42.5811Z" fill="white"/>
<rect x="19" y="8.00003" width="12" height="2" fill="#FFC217"/>
<circle cx="9.5" cy="9.50003" r="8.5" fill="#176CF7" stroke="#FFC217" stroke-width="2"/>
<path d="M11.0331 14V5.50403H9.18509L6.38909 7.55603L7.43309 8.98403L9.01709 7.76003V14H11.0331Z" fill="white"/>
<circle cx="68.5" cy="9.50003" r="8.5" fill="#FFC217" stroke="#FFC217" stroke-width="2"/>
<path d="M71.6171 11.528C71.6171 10.58 70.9451 9.78803 69.9851 9.56003V9.52403C70.8131 9.30803 71.4131 8.61203 71.4131 7.67603C71.4131 6.04403 69.9251 5.27603 68.4251 5.27603C67.0091 5.27603 65.6651 6.00803 65.2571 7.43603L67.1291 7.86803C67.2611 7.29203 67.7171 6.92003 68.2931 6.92003C68.8451 6.92003 69.3611 7.24403 69.3611 7.85603C69.3611 8.67203 68.6291 8.86403 67.8731 8.86403H67.2851V10.34H67.8251C68.6651 10.34 69.5531 10.592 69.5531 11.456C69.5531 12.248 68.8931 12.536 68.3171 12.536C67.5491 12.536 67.0331 12.044 66.8771 11.48L65.0051 11.972C65.4611 13.556 66.8651 14.228 68.4131 14.228C69.9731 14.228 71.6171 13.388 71.6171 11.528Z" fill="#176CF7"/>
</svg>
