<svg width="20" height="21" viewBox="0 0 20 21" fill="none" xmlns="http://www.w3.org/2000/svg">
<path d="M15.4165 6.76669C17.009 6.76669 18.2999 5.47577 18.2999 3.88335C18.2999 2.29092 17.009 1 15.4165 1C13.8241 1 12.5332 2.29092 12.5332 3.88335C12.5332 5.47577 13.8241 6.76669 15.4165 6.76669Z" stroke="#D7D7D7" stroke-width="1.5" stroke-linecap="round" stroke-linejoin="round"/>
<path d="M3.88335 13.4942C5.47577 13.4942 6.76669 12.2033 6.76669 10.6109C6.76669 9.01846 5.47577 7.72754 3.88335 7.72754C2.29092 7.72754 1 9.01846 1 10.6109C1 12.2033 2.29092 13.4942 3.88335 13.4942Z" stroke="#D7D7D7" stroke-width="1.5" stroke-linecap="round" stroke-linejoin="round"/>
<path d="M15.4165 20.2223C17.009 20.2223 18.2999 18.9313 18.2999 17.3389C18.2999 15.7465 17.009 14.4556 15.4165 14.4556C13.8241 14.4556 12.5332 15.7465 12.5332 17.3389C12.5332 18.9313 13.8241 20.2223 15.4165 20.2223Z" stroke="#D7D7D7" stroke-width="1.5" stroke-linecap="round" stroke-linejoin="round"/>
<path d="M6.37354 12.0625L12.938 15.8877" stroke="#D7D7D7" stroke-width="1.5" stroke-linecap="round" stroke-linejoin="round"/>
<path d="M12.9283 5.33496L6.37354 9.1602" stroke="#D7D7D7" stroke-width="1.5" stroke-linecap="round" stroke-linejoin="round"/>
</svg>
