<svg width="176" height="176" viewBox="0 0 176 176" fill="none" xmlns="http://www.w3.org/2000/svg">
<circle cx="88" cy="88" r="88" fill="#F3F3F3"/>
<path d="M77.7383 80.726L66.7294 66.3687C66.7294 66.3687 66.9819 63.7661 74.0883 64.0165C81.1946 64.267 91.4908 62.3139 98.1404 62.1641C103.277 62.1173 108.408 62.5481 113.467 63.4513L101.962 80.726H77.744" fill="#BBBCBD"/>
<path d="M113.271 45.1234C106.327 57.2492 99.5658 69.52 95.7809 82.4871C89.6179 80.6347 83.4653 78.7811 77.2505 76.9216C80.4438 63.8211 81.4172 50.5532 84.17 36.6218C94.1693 38.27 103.939 41.1241 113.271 45.1234Z" fill="#80CC2B"/>
<path d="M113.271 45.1235L112.216 44.501C105.267 56.6396 98.4518 68.9865 94.6115 82.1338L95.7763 82.4849L96.1222 81.303C89.9593 79.4505 83.8056 77.5969 77.5907 75.7363L77.2447 76.9182L78.4245 77.2143C80.039 70.5979 81.0827 63.9663 82.0711 57.2621C83.0594 50.558 83.9878 43.7801 85.3555 36.8607L84.1642 36.6184L83.9739 37.8366C93.8807 39.47 103.56 42.2985 112.805 46.2621L113.266 45.1235L112.216 44.501L113.266 45.12L113.728 43.9814C104.307 39.9447 94.445 37.0639 84.351 35.4002L83.1978 35.2153L82.9671 36.3762C81.5832 43.3881 80.648 50.2104 79.6631 56.897C78.6782 63.5836 77.6414 70.138 76.0603 76.6221L75.7812 77.7666L76.8964 78.1001C83.109 79.9596 89.2616 81.812 95.4257 83.6656L96.5905 84.0167L96.9364 82.8348C100.666 70.0479 107.373 57.8543 114.312 45.7391L115.004 44.5209L113.722 43.9814L113.261 45.12" fill="#1F6533"/>
<path d="M94.5261 52.5742C100.039 54.1762 102.84 58.9507 100.951 62.9224C99.9367 64.9156 98.2761 66.4929 96.2492 67.3882C94.2223 68.2836 91.9531 68.4422 89.8243 67.8373C85.4673 66.5395 82.372 62.0787 83.0317 57.7898C83.7075 53.5209 89.0124 51.0061 94.5261 52.5742Z" fill="#1F6533"/>
<path d="M76.9956 77.1661C78.6501 77.6615 80.2981 78.1557 81.9396 78.6488C82.1115 77.9687 82.1496 77.2609 82.0518 76.5658C81.954 75.8708 81.7222 75.2021 81.3696 74.598C81.0171 73.9939 80.5506 73.4662 79.997 73.045C79.4434 72.6239 78.8134 72.3176 78.1431 72.1436C77.7994 73.824 77.4223 75.4986 76.9956 77.1661Z" fill="#1F6533"/>
<path d="M90.1508 57.9675C89.4439 57.8248 88.9549 58.273 88.6896 59.3016C88.4244 60.3302 88.6043 60.9399 89.2305 61.1166C89.3999 61.1742 89.5822 61.18 89.7548 61.1334C89.9274 61.0868 90.0827 60.9898 90.2015 60.8545C90.656 60.2868 91.0503 59.6722 91.3779 59.0207C91.7685 58.2114 92.4064 57.5518 93.1965 57.1402C93.9482 56.824 94.7874 56.7953 95.5584 57.0594C96.0111 57.1625 96.4289 57.3854 96.7692 57.7054C97.1095 58.0254 97.3602 58.4312 97.4958 58.8815C97.758 59.7966 97.7006 60.7755 97.3332 61.6525C96.4452 63.9333 94.9783 64.9291 92.9117 64.6764C93.0608 64.0195 93.2108 63.363 93.3614 62.7069C93.8726 62.8032 94.4006 62.6928 94.8326 62.3993C95.2647 62.1059 95.5665 61.6527 95.6737 61.1365C96.09 59.9932 95.834 59.277 94.8964 58.9997C94.7205 58.9353 94.5318 58.9153 94.3465 58.9414C94.1613 58.9675 93.9851 59.0389 93.8331 59.1495C93.3102 59.6702 92.8747 60.2742 92.5438 60.9375C92.1458 61.7313 91.5447 62.4019 90.8035 62.8789C90.5084 63.0396 90.1848 63.1394 89.8515 63.1725C89.5182 63.2056 89.1817 63.1715 88.8615 63.072C88.4964 62.9686 88.1572 62.7872 87.8668 62.54C87.5764 62.2928 87.3415 61.9854 87.1777 61.6385C86.7803 60.7477 86.7163 59.7406 86.9978 58.8054C87.5225 56.5305 88.745 55.5674 90.611 55.9595C90.4572 56.628 90.3034 57.2962 90.1496 57.964" fill="#80CC2B"/>
<path d="M87.4199 57.8472C87.2711 58.4697 87.1212 59.0923 86.9759 59.7113C86.317 59.5335 85.655 59.3572 84.99 59.1824C85.1222 58.5583 85.2533 57.9342 85.3833 57.3101C86.0691 57.4879 86.7479 57.667 87.4199 57.8472Z" fill="#80CC2B"/>
<path d="M99.2983 61.3005C99.0507 61.8958 98.8055 62.4914 98.5625 63.0874C97.9182 62.8885 97.2763 62.6934 96.6366 62.5023C96.8619 61.8993 97.0925 61.2966 97.3286 60.6943C97.9844 60.8956 98.6425 61.0985 99.3029 61.3029" fill="#80CC2B"/>
<path d="M95.3254 82.6756C95.8267 81.0201 96.3649 79.3748 96.94 77.7396C95.6234 77.3229 94.1977 77.4528 92.9753 78.1007C91.7529 78.7487 90.8334 79.8619 90.4183 81.1964L95.3254 82.6756Z" fill="#1F6533"/>
<path d="M112.821 44.935C110.315 43.89 107.808 42.921 105.283 42.0305C104.062 44.839 106.254 48.1156 110.222 49.6147C111.089 48.0536 111.962 46.4937 112.821 44.935Z" fill="#1F6533"/>
<path d="M83.9659 36.6218C83.6322 38.4052 83.3147 40.1762 83.0133 41.9346C87.2077 42.7058 91.0791 41.1541 91.9452 38.1899C89.3204 37.5791 86.6607 37.0568 83.9659 36.623" fill="#1F6533"/>
<path d="M88.8407 71.2226C89.0678 71.2832 89.2807 71.3892 89.4669 71.5345C89.653 71.6797 89.8088 71.8611 89.9249 72.0683C90.041 72.2754 90.1152 72.5039 90.1431 72.7405C90.171 72.9771 90.152 73.217 90.0873 73.446C89.9387 73.8979 89.6233 74.2738 89.2072 74.4945C88.7912 74.7153 88.307 74.7638 87.8565 74.6299C87.4059 74.4959 87.0241 74.1899 86.7913 73.7762C86.5585 73.3626 86.4928 72.8734 86.608 72.4116C86.6761 72.1838 86.7883 71.9721 86.9379 71.7888C87.0875 71.6055 87.2716 71.4543 87.4795 71.344C87.6873 71.2336 87.9147 71.1664 88.1484 71.1461C88.3821 71.1259 88.6174 71.1531 88.8407 71.2261" fill="#1F6533"/>
<path d="M96.8731 45.5541C98.227 45.9461 99.0077 47.0636 98.641 48.0232C98.3483 48.5285 97.8882 48.9119 97.3428 49.1048C96.7973 49.2977 96.2021 49.2876 95.6633 49.0764C94.3867 48.709 93.5759 47.6359 93.8689 46.6505C94.1447 46.1207 94.6059 45.7145 95.1617 45.5119C95.7175 45.3092 96.3279 45.3247 96.8731 45.5552" fill="#1F6533"/>
<path d="M108.687 38.4311C103.53 51.4427 98.5683 64.5689 96.6528 77.9538C90.2926 77.0177 83.9393 76.0733 77.5284 75.1371C78.8385 61.7089 77.9298 48.434 78.6886 34.2476C88.8165 34.4255 98.8872 35.8299 108.687 38.4311Z" fill="#80CC2B"/>
<path d="M108.698 38.4321L107.572 37.9722C102.411 50.9967 97.407 64.2061 95.4626 77.7782L96.6654 77.9549L96.8407 76.7344C90.4806 75.7982 84.1273 74.8538 77.7141 73.9177L77.5411 75.1382L78.7509 75.2552C79.4128 68.468 79.512 61.758 79.5431 54.9789C79.5743 48.1999 79.5431 41.3565 79.9145 34.3106L78.7013 34.2439L78.6851 35.4773C88.7177 35.6535 98.6936 37.045 108.401 39.6222L108.701 38.4274L107.574 37.9676L108.701 38.4274L109.001 37.2327C99.1066 34.608 88.939 33.1918 78.714 33.014L77.5434 33L77.48 34.1843C77.0983 41.3226 77.134 48.2128 77.1052 54.9743C77.0763 61.7357 76.9737 68.372 76.3244 75.0188L76.2091 76.189L77.3624 76.3576C83.7721 77.2937 90.1242 78.2299 96.4844 79.1731L97.6872 79.351L97.8625 78.1304C99.7492 64.9328 104.667 51.8896 109.822 38.8909L110.339 37.5837L108.994 37.2327L108.698 38.4321Z" fill="#1F6533"/>
<path d="M91.2913 48.3812C96.9756 49.1641 100.418 53.4834 99.1103 57.6868C98.3889 59.807 96.9686 61.6097 95.0892 62.7905C93.2099 63.9714 90.9865 64.4582 88.7945 64.1686C84.2968 63.5179 80.6064 59.5521 80.6514 55.2118C80.716 50.8902 85.6104 47.6311 91.2913 48.3812Z" fill="#1F6533"/>
<path d="M77.4188 75.3711L82.5196 76.1189C82.6683 74.7095 82.2593 73.2978 81.3826 72.1943C80.5059 71.0908 79.2333 70.3856 77.8444 70.2339C77.7417 71.9459 77.6056 73.6579 77.4188 75.3711Z" fill="#1F6533"/>
<path d="M96.3379 78.1573C96.6024 76.4465 96.9014 74.7403 97.2351 73.0388C95.8732 72.8173 94.4804 73.1528 93.3619 73.9717C92.2434 74.7905 91.4904 76.026 91.2682 77.4072C92.9596 77.6569 94.6511 77.9069 96.3425 78.1573" fill="#1F6533"/>
<path d="M108.269 38.3163C105.642 37.6462 103.018 37.0533 100.397 36.5376C99.5901 39.4994 102.218 42.4238 106.357 43.3248C106.995 41.6491 107.637 39.9792 108.269 38.3163Z" fill="#1F6533"/>
<path d="M78.5941 34.2485C78.5118 36.0624 78.4468 37.861 78.3992 39.6444C82.6604 39.7989 86.2713 37.7007 86.7118 34.6406C84.0278 34.419 81.3219 34.2883 78.5941 34.2485Z" fill="#1F6533"/>
<path d="M88.301 67.767C88.534 67.794 88.7593 67.8679 88.9638 67.9844C89.1683 68.1008 89.3478 68.2576 89.4918 68.4454C89.6359 68.6331 89.7415 68.8482 89.8026 69.078C89.8636 69.3077 89.8789 69.5475 89.8475 69.7833C89.7626 70.2506 89.5029 70.6665 89.1227 70.944C88.7426 71.2214 88.2714 71.339 87.8078 71.272C87.3442 71.2051 86.9241 70.9588 86.6353 70.5847C86.3466 70.2106 86.2116 69.7377 86.2586 69.2649C86.294 69.0296 86.3752 68.8038 86.4974 68.6007C86.6196 68.3975 86.7805 68.2211 86.9705 68.0816C87.1606 67.9421 87.3761 67.8423 87.6045 67.7881C87.8329 67.7339 88.0697 67.7264 88.301 67.7659" fill="#1F6533"/>
<path d="M92.636 41.2243C94.0326 41.4151 94.9621 42.4086 94.7338 43.4103C94.5159 43.9533 94.1146 44.3998 93.6016 44.6698C93.0887 44.9398 92.4978 45.0156 91.9349 44.8836C90.6202 44.7069 89.6664 43.7602 89.8175 42.7444C90.0156 42.1798 90.4147 41.7109 90.9362 41.4296C91.4577 41.1483 92.064 41.0751 92.636 41.2243Z" fill="#1F6533"/>
<path d="M88.1325 143C70.3725 143 57.6868 141.191 57.6868 138.957C57.6868 136.723 70.3725 134.916 88.1325 134.916C105.893 134.916 122 136.727 122 138.957C122 141.187 105.893 143 88.1325 143Z" fill="#A8A8A8"/>
<path d="M77.7383 80.7213L66.7294 66.364C66.7294 66.364 66.9819 61.9172 74.0883 62.1711C81.1946 62.4251 88.7714 65.525 95.4233 65.8409C101.527 66.0385 107.622 65.2299 113.471 63.4466L101.962 80.7213H77.744" fill="#EAE9E9"/>
<path d="M115.859 107.565C112.298 98.7401 106.822 89.52 101.773 81.1682H77.3843C72.2497 89.6986 67.5846 98.5109 63.4104 107.565C54.9916 126.144 59.7915 132.267 69.6656 136.656C76.9899 139.912 102.278 139.912 109.603 136.656C119.478 132.267 121.968 122.703 115.859 107.565Z" fill="#EAE9E9"/>
<path d="M104.021 81.3334C103.991 81.5955 103.861 81.8352 103.658 82.0012C103.456 82.1672 103.198 82.2463 102.939 82.2216H76.0465C75.7874 82.2467 75.5289 82.1677 75.3265 82.0017C75.1241 81.8356 74.9938 81.5957 74.9636 81.3334V80.6032C74.9938 80.3409 75.1241 80.101 75.3265 79.935C75.5289 79.7689 75.7874 79.69 76.0465 79.715H102.939C103.198 79.6903 103.456 79.7694 103.658 79.9354C103.861 80.1014 103.991 80.3411 104.021 80.6032V81.3334Z" fill="#FFC217"/>
<path d="M96.7358 135.163C101.213 138.434 109.201 135.652 112.16 133.525C116.274 130.564 118.157 124.664 117.685 120.443C117.355 116.64 116.407 112.918 114.879 109.429C115.776 113.414 115.367 117.587 113.714 121.315C111.323 127.006 104.405 128.453 99.8184 128.982C96.6112 129.352 92.2819 131.91 96.7358 135.163Z" fill="#D3D4D3"/>
<path d="M93.9115 78.9134C93.9115 78.9134 102.382 75.7901 106.566 71.424C111.294 66.4916 101.918 78.9134 101.918 78.9134H93.9115Z" fill="#D3D4D3"/>
<path d="M69.6794 67.4299C69.6794 67.4299 69.8397 67.5551 70.0992 67.7904C70.3587 68.0256 70.722 68.3673 71.1371 68.7921C72.1371 69.836 73.0727 70.9416 73.9384 72.1026C74.8106 73.2599 75.6106 74.4715 76.3337 75.7303C76.6266 76.251 76.8549 76.6957 77.0072 77.0175C77.1594 77.3393 77.2378 77.5254 77.2378 77.5254C77.2378 77.5254 77.0775 77.4002 76.818 77.1661C76.5586 76.9321 76.1941 76.5892 75.7801 76.1644C74.7759 75.1243 73.8405 74.018 72.98 72.8527C72.1089 71.6948 71.3093 70.4833 70.5859 69.225C70.293 68.7043 70.0646 68.2596 69.9124 67.9378C69.7602 67.616 69.6817 67.4311 69.6817 67.4311" fill="#FAFBFB"/>
<path d="M78.1247 84.1254C78.1247 84.1254 77.9898 84.5432 77.7257 85.2605C77.4616 85.9779 77.0753 86.9983 76.5725 88.2024C75.5887 90.6224 74.1506 93.782 72.6007 96.8866C71.0507 99.9911 69.3946 103.04 68.0534 105.275C67.3938 106.398 66.8102 107.318 66.3962 107.958C65.9822 108.598 65.7296 108.956 65.7296 108.956C65.7296 108.956 65.8645 108.538 66.1286 107.82C66.3927 107.101 66.7779 106.082 67.2819 104.877C68.2645 102.456 69.7037 99.2972 71.256 96.1926C72.8083 93.088 74.4643 90.0408 75.8055 87.8045C76.4664 86.6811 77.0476 85.7613 77.4616 85.1212C77.8756 84.4811 78.1282 84.123 78.1282 84.123" fill="#FAFBFB"/>
<path d="M76.8457 130.801C76.1939 133.036 74.9035 135.024 73.1379 136.515C71.3722 138.006 69.2105 138.932 66.926 139.177C64.6416 139.421 62.3371 138.972 60.3039 137.888C58.2707 136.803 56.6002 135.131 55.5035 133.083C54.4068 131.035 53.9333 128.703 54.1428 126.382C54.3522 124.061 55.2353 121.855 56.6803 120.043C58.1253 118.231 60.0674 116.894 62.2609 116.202C64.4544 115.51 66.8009 115.494 69.0036 116.155C70.4662 116.594 71.8293 117.322 73.015 118.295C74.2007 119.269 75.1857 120.47 75.914 121.83C76.6422 123.19 77.0993 124.682 77.2591 126.221C77.419 127.76 77.2785 129.316 76.8457 130.801Z" fill="#E5AB17"/>
<path d="M74.8321 130.196C74.2978 132.027 73.2404 133.656 71.7936 134.877C70.3468 136.098 68.5756 136.857 66.7039 137.057C64.8323 137.257 62.9443 136.889 61.2786 136C59.613 135.111 58.2446 133.741 57.3464 132.062C56.4482 130.384 56.0606 128.474 56.2326 126.572C56.4046 124.67 57.1284 122.863 58.3126 121.379C59.4968 119.895 61.0882 118.8 62.8854 118.233C64.6827 117.667 66.6051 117.654 68.4097 118.196C69.6079 118.556 70.7244 119.152 71.6956 119.95C72.6668 120.748 73.4736 121.732 74.07 122.846C74.6664 123.96 75.0407 125.183 75.1714 126.444C75.3022 127.705 75.1869 128.98 74.8321 130.196Z" fill="#FFC217"/>
<path d="M56.7306 124.817C56.7399 123.891 56.982 122.983 57.4341 122.178C58.2272 121.721 59.1214 121.476 60.0335 121.463C59.1191 121.47 58.2204 121.223 57.4341 120.75C56.9622 119.954 56.7186 119.04 56.7306 118.111C56.7432 119.06 56.4826 119.993 55.981 120.794C55.2134 121.269 54.3245 121.502 53.4265 121.463C54.3408 121.459 55.2392 121.706 56.0259 122.178C56.4933 122.977 56.737 123.889 56.7306 124.817Z" fill="white"/>
<path d="M58.9388 125.451C58.9425 125.123 59.0286 124.801 59.189 124.515C59.4704 124.353 59.7877 124.266 60.1113 124.261C59.7869 124.263 59.468 124.176 59.189 124.007C59.0218 123.725 58.9352 123.401 58.9388 123.071C58.9432 123.409 58.8507 123.742 58.6725 124.027C58.3989 124.195 58.0823 124.277 57.7629 124.261C58.0873 124.26 58.406 124.348 58.6852 124.515C58.8512 124.798 58.9381 125.122 58.9365 125.451" fill="white"/>
<path d="M54.633 127.976C54.6368 127.518 54.7559 127.069 54.979 126.672C55.3707 126.447 55.8123 126.326 56.2625 126.321C55.8112 126.324 55.3675 126.203 54.979 125.97C54.7464 125.576 54.6266 125.125 54.633 124.666C54.6393 125.135 54.5107 125.596 54.2628 125.992C53.8833 126.226 53.4438 126.341 53 126.322C53.4517 126.319 53.8957 126.44 54.2847 126.673C54.5154 127.067 54.6358 127.517 54.633 127.976Z" fill="white"/>
<path d="M77.3682 98.3996H83.7341C84.5312 98.3953 85.3262 98.4825 86.104 98.6594C86.8108 98.7946 87.4827 99.0754 88.0784 99.4844C88.6582 99.8696 89.1238 100.408 89.4254 101.041C89.7903 101.795 89.9658 102.629 89.9363 103.469C89.9665 104.548 89.6482 105.608 89.0298 106.487C88.3772 107.334 87.4265 107.892 86.3773 108.043L90.559 115.093H86.2205L82.7815 108.422H80.9928V115.093H77.3682V98.3996ZM80.9928 105.304H83.1298C83.455 105.304 83.7956 105.296 84.1516 105.28C84.4923 105.256 84.8283 105.184 85.1503 105.069C85.4364 104.95 85.6854 104.754 85.8711 104.503C86.0898 104.196 86.1967 103.821 86.1732 103.442C86.1914 103.086 86.1021 102.732 85.9172 102.429C85.7546 102.184 85.5299 101.988 85.2668 101.862C84.9834 101.714 84.6765 101.618 84.3603 101.579C84.0294 101.533 83.6957 101.509 83.3616 101.509H80.9917L80.9928 105.304ZM92.3177 103.63H95.5237V105.139H95.5699C95.7256 104.916 95.9046 104.71 96.1038 104.526C96.3446 104.301 96.6096 104.105 96.8938 103.941C97.2113 103.764 97.546 103.622 97.8925 103.516C98.2618 103.404 98.6454 103.348 99.0308 103.351C99.8119 103.34 100.587 103.492 101.307 103.799C101.972 104.07 102.567 104.489 103.05 105.025C103.554 105.558 103.942 106.193 104.188 106.888C104.458 107.652 104.592 108.458 104.583 109.27C104.585 110.055 104.46 110.836 104.211 111.58C103.99 112.282 103.644 112.937 103.189 113.513C102.756 114.078 102.21 114.544 101.586 114.88C100.916 115.218 100.174 115.388 99.4252 115.375C98.7303 115.38 98.0394 115.269 97.3805 115.045C96.7662 114.813 96.2328 114.403 95.8467 113.866H95.8005V120.467H92.3154L92.3177 103.63ZM95.5237 109.364C95.4898 110.132 95.7479 110.883 96.2445 111.463C96.5139 111.737 96.8374 111.95 97.1938 112.088C97.5502 112.226 97.9314 112.286 98.3123 112.264C98.6899 112.288 99.0681 112.229 99.421 112.09C99.7739 111.952 100.093 111.738 100.357 111.463C100.838 110.872 101.1 110.13 101.1 109.364C101.1 108.599 100.838 107.857 100.357 107.266C100.093 106.991 99.7739 106.777 99.421 106.639C99.0681 106.5 98.6899 106.441 98.3123 106.465C97.9314 106.443 97.5502 106.503 97.1938 106.641C96.8374 106.779 96.5139 106.992 96.2445 107.266C95.7484 107.845 95.4904 108.596 95.5237 109.362V109.364Z" fill="#E5AB17"/>
<path d="M61.1788 124.004H63.37C63.6442 124.002 63.9177 124.032 64.1854 124.093C64.4289 124.139 64.6605 124.236 64.8658 124.377C65.0645 124.51 65.224 124.695 65.3271 124.913C65.4528 125.173 65.5134 125.46 65.5035 125.749C65.5142 126.12 65.4049 126.485 65.1921 126.788C64.9678 127.079 64.6408 127.272 64.2799 127.324L65.7192 129.751H64.22L63.0367 127.454H62.4209V129.751H61.1788V124.004ZM62.4266 126.382H63.1624C63.2747 126.382 63.3919 126.379 63.5142 126.374C63.6322 126.365 63.7486 126.341 63.8601 126.301C63.9585 126.26 64.0442 126.193 64.1081 126.107C64.1832 126.001 64.2198 125.872 64.2119 125.742C64.2186 125.618 64.188 125.496 64.1242 125.391C64.0683 125.307 63.991 125.24 63.9005 125.196C63.8031 125.146 63.6977 125.113 63.5891 125.099C63.4745 125.083 63.3589 125.075 63.2431 125.075H62.4278L62.4266 126.382ZM66.3258 125.806H67.4294V126.326H67.4456C67.4994 126.249 67.5613 126.178 67.6301 126.115C67.713 126.037 67.8043 125.969 67.9023 125.913C68.0123 125.852 68.1282 125.803 68.2482 125.766C68.3754 125.728 68.5076 125.708 68.6404 125.709C68.9094 125.705 69.1764 125.758 69.4246 125.863C69.6532 125.957 69.8581 126.101 70.0243 126.286C70.198 126.469 70.3316 126.688 70.4164 126.927C70.5093 127.19 70.5554 127.467 70.5524 127.746C70.5532 128.017 70.51 128.286 70.4244 128.542C70.3483 128.784 70.2291 129.01 70.0727 129.208C69.9231 129.402 69.7349 129.561 69.5203 129.676C69.2893 129.792 69.0343 129.851 68.7764 129.847C68.5372 129.848 68.2995 129.808 68.073 129.73C67.8615 129.65 67.6779 129.509 67.5448 129.324H67.5286V131.596H66.3292L66.3258 125.806ZM67.4294 127.778C67.4178 128.042 67.5066 128.3 67.6774 128.5C67.77 128.594 67.8814 128.668 68.004 128.715C68.1266 128.763 68.2578 128.784 68.3889 128.776C68.5189 128.784 68.649 128.764 68.7704 128.716C68.8918 128.668 69.0017 128.595 69.0924 128.5C69.2578 128.297 69.3482 128.041 69.3482 127.778C69.3482 127.514 69.2578 127.259 69.0924 127.056C69.0017 126.961 68.8918 126.887 68.7704 126.84C68.649 126.792 68.5189 126.772 68.3889 126.78C68.2578 126.772 68.1266 126.793 68.004 126.84C67.8814 126.888 67.77 126.961 67.6774 127.056C67.5066 127.255 67.4178 127.514 67.4294 127.778Z" fill="#C78D00"/>
<path d="M86.2021 60.4181V58.1947C86.2005 57.9165 86.2299 57.6389 86.2897 57.3674C86.3356 57.1202 86.431 56.8852 86.57 56.677C86.701 56.4753 86.8836 56.3135 87.0982 56.2089C87.3539 56.0813 87.6368 56.0198 87.9216 56.0298C88.2878 56.019 88.6474 56.1299 88.9457 56.3458C89.233 56.5735 89.4223 56.9052 89.4738 57.2714L91.8657 55.811V57.3323L89.6019 58.5329V59.1578H91.8657V60.4181H86.2021ZM88.5455 59.1519V58.4054C88.5455 58.2915 88.5428 58.1725 88.5374 58.0484C88.5293 57.9287 88.5053 57.8106 88.4659 57.6974C88.4256 57.5975 88.3594 57.5106 88.2745 57.4458C88.1701 57.3696 88.043 57.3324 87.9146 57.3405C87.7931 57.3336 87.6724 57.3647 87.5687 57.4294C87.4859 57.4862 87.4197 57.5646 87.3772 57.6564C87.3273 57.7552 87.2949 57.8622 87.2815 57.9724C87.2656 58.0887 87.2575 58.206 87.2573 58.3234V59.1508L88.5455 59.1519ZM87.9781 55.1955V54.0756H88.4901V54.0592C88.4145 54.0045 88.3449 53.9418 88.2825 53.8719C88.2059 53.7878 88.139 53.6952 88.083 53.5958C88.023 53.4842 87.9747 53.3665 87.9389 53.2447C87.9007 53.1157 87.8816 52.9816 87.8824 52.8468C87.8787 52.5738 87.9306 52.3029 88.0346 52.0511C88.1266 51.8191 88.2689 51.6111 88.4509 51.4426C88.6317 51.2664 88.847 51.1308 89.0829 51.0447C89.3417 50.9504 89.6151 50.9036 89.8902 50.9066C90.1568 50.9057 90.4218 50.9496 90.6744 51.0365C90.9128 51.1138 91.1352 51.2347 91.3306 51.3934C91.5215 51.5452 91.6787 51.7362 91.7919 51.954C91.9066 52.1883 91.9643 52.4471 91.9603 52.7088C91.961 52.9515 91.922 53.1927 91.8449 53.4226C91.7661 53.6371 91.6269 53.8235 91.4447 53.9585V53.982H93.6844V55.199L87.9781 55.1955ZM89.9213 54.0756C90.1815 54.0873 90.4362 53.9973 90.6329 53.824C90.7259 53.7299 90.7982 53.6169 90.8451 53.4925C90.892 53.3681 90.9124 53.235 90.905 53.102C90.913 52.9701 90.8928 52.8381 90.8458 52.7149C90.7988 52.5917 90.7262 52.4802 90.6329 52.3881C90.4325 52.22 90.1807 52.1281 89.9207 52.1281C89.6608 52.1281 89.4089 52.22 89.2086 52.3881C89.1153 52.4802 89.0426 52.5917 88.9957 52.7149C88.9487 52.8381 88.9285 52.9701 88.9364 53.102C88.929 53.235 88.9495 53.3681 88.9964 53.4925C89.0433 53.6169 89.1156 53.7299 89.2086 53.824C89.4054 53.998 89.6606 54.0885 89.9213 54.0767V54.0756Z" fill="#80CC2B"/>
</svg>
