<svg width="176" height="176" viewBox="0 0 176 176" fill="none" xmlns="http://www.w3.org/2000/svg">
<circle cx="88" cy="88" r="88" fill="#F3F3F3"/>
<g clip-path="url(#clip0_1395_45824)">
<path opacity="0.27" d="M70.8348 61.6422L57.533 69.382C56.4425 70.0154 55.5369 70.9205 54.9055 72.008C54.2742 73.0955 53.939 74.3279 53.9329 75.5835C53.9269 76.8391 54.2502 78.0745 54.871 79.168C55.4918 80.2615 56.3886 81.1752 57.473 81.819L102.877 108.81C105.129 110.148 107.701 110.861 110.325 110.874C112.949 110.886 115.528 110.198 117.792 108.881L129.917 101.828C131.08 101.153 132.045 100.188 132.718 99.0282C133.392 97.8686 133.749 96.5546 133.756 95.2158C133.762 93.877 133.418 92.5596 132.756 91.3936C132.094 90.2276 131.138 89.2531 129.982 88.5664L84.8052 61.7089C82.6961 60.4547 80.2868 59.7868 77.8292 59.7751C75.3716 59.7633 72.9559 60.4082 70.8348 61.6422Z" fill="#7DC3EA"/>
<path d="M64.1073 70.812C63.6313 70.4672 63.0712 70.2553 62.4851 70.1981C61.8989 70.1409 61.3081 70.2405 60.7737 70.4867L57.1669 72.5708C57.7008 72.3253 58.291 72.2261 58.8765 72.2833C59.4619 72.3405 60.0214 72.5521 60.4971 72.8962C61.8578 73.7747 62.9901 74.9609 63.8015 76.3577C64.6129 77.7546 65.0803 79.3224 65.1656 80.9332C65.2239 81.5064 65.1284 82.0848 64.8887 82.6093C64.6491 83.1339 64.2738 83.586 63.8013 83.9195L67.4104 81.8342C67.8826 81.5007 68.2575 81.0487 68.4969 80.5244C68.7364 80 68.8318 79.4219 68.7735 78.849C68.6876 77.2387 68.2201 75.6713 67.4092 74.2746C66.5983 72.878 65.467 71.6915 64.1073 70.812Z" fill="#484848"/>
<path d="M60.4971 72.8974C61.8578 73.776 62.9901 74.9622 63.8015 76.359C64.6129 77.7558 65.0803 79.3237 65.1656 80.9345C65.1597 83.8869 63.055 85.0793 60.4688 83.5955C59.1082 82.7169 57.9761 81.5307 57.1649 80.1338C56.3537 78.737 55.8864 77.1691 55.8014 75.5585C55.8096 72.6072 57.9132 71.4124 60.4971 72.8974Z" fill="#323232"/>
<path d="M60.4735 81.0724C61.8402 81.8565 62.9455 81.2234 62.955 79.6682C62.9099 78.8176 62.6631 77.9897 62.2347 77.252C61.8063 76.5144 61.2085 75.8879 60.49 75.4238C59.1245 74.6386 58.018 75.2717 58.0085 76.828C58.0545 77.6787 58.3016 78.5067 58.7299 79.2446C59.1582 79.9825 59.7556 80.6095 60.4735 81.0747V81.0724Z" fill="white"/>
<path d="M74.8924 77.1825C74.4165 76.8373 73.8563 76.6251 73.2701 76.5681C72.6838 76.511 72.0928 76.6113 71.5587 76.8584L67.9519 78.9425C68.4857 78.6969 69.0758 78.5974 69.6613 78.6544C70.2467 78.7113 70.8063 78.9227 71.282 79.2666C72.6429 80.1452 73.7754 81.3314 74.5869 82.7282C75.3985 84.125 75.8662 85.6928 75.9518 87.3037C76.0101 87.8769 75.9146 88.4553 75.6749 88.9799C75.4353 89.5044 75.0601 89.9565 74.5875 90.2901L78.1966 88.2036C78.6689 87.8703 79.044 87.4186 79.2836 86.8944C79.5233 86.3703 79.6189 85.7924 79.5609 85.2195C79.4748 83.6089 79.007 82.0414 78.1957 80.6447C77.3844 79.248 76.2525 78.0617 74.8924 77.1825Z" fill="#484848"/>
<path d="M71.2773 79.2667C72.6382 80.1453 73.7706 81.3315 74.5822 82.7283C75.3938 84.1251 75.8615 85.693 75.947 87.3038C75.94 90.2562 73.8353 91.4487 71.2502 89.9648C69.8899 89.0862 68.7579 87.9002 67.9467 86.5036C67.1355 85.107 66.6682 83.5394 66.5829 81.929C66.5911 78.9765 68.6935 77.7829 71.2773 79.2667Z" fill="#323232"/>
<path d="M71.255 87.4428C72.6228 88.2269 73.727 87.5938 73.7364 86.0386C73.6916 85.1881 73.445 84.3602 73.0168 83.6225C72.5886 82.8849 71.9909 82.2584 71.2727 81.7942C69.906 81.009 68.8007 81.6433 68.7913 83.1985C68.837 84.0492 69.0841 84.8772 69.5124 85.6151C69.9407 86.3531 70.5382 86.9801 71.2562 87.4452L71.255 87.4428Z" fill="white"/>
<path d="M109.491 96.1822C109.016 95.8382 108.456 95.6269 107.871 95.5703C107.285 95.5137 106.695 95.6139 106.162 95.8604L102.551 97.9457C103.084 97.6986 103.675 97.598 104.26 97.6544C104.846 97.7108 105.406 97.9221 105.882 98.2663C107.243 99.1449 108.376 100.331 109.187 101.728C109.998 103.125 110.466 104.694 110.551 106.305C110.609 106.878 110.513 107.456 110.273 107.98C110.033 108.505 109.658 108.956 109.185 109.29C110.387 108.595 111.59 107.901 112.793 107.208C113.265 106.874 113.641 106.422 113.88 105.897C114.12 105.372 114.215 104.794 114.157 104.22C114.072 102.61 113.605 101.042 112.794 99.6448C111.983 98.2479 110.851 97.0613 109.491 96.1822Z" fill="#484848"/>
<path d="M105.88 98.265C107.241 99.1437 108.373 100.33 109.184 101.727C109.996 103.124 110.463 104.692 110.548 106.303C110.54 109.259 108.435 110.449 105.849 108.965C104.489 108.086 103.357 106.899 102.546 105.502C101.735 104.106 101.268 102.538 101.182 100.927C101.191 97.9748 103.296 96.7812 105.88 98.265Z" fill="#323232"/>
<path d="M126.873 85.7753C126.397 85.4307 125.837 85.219 125.252 85.1622C124.666 85.1054 124.075 85.2056 123.542 85.4524L119.931 87.5377C120.465 87.2917 121.055 87.1919 121.641 87.2484C122.227 87.305 122.786 87.516 123.263 87.8595C124.624 88.7382 125.756 89.9247 126.568 91.322C127.379 92.7193 127.846 94.2876 127.931 95.8989C127.989 96.4719 127.893 97.0499 127.654 97.5741C127.414 98.0984 127.038 98.5499 126.566 98.8829C127.769 98.1886 128.972 97.495 130.175 96.8023C130.647 96.4682 131.022 96.0159 131.262 95.4912C131.502 94.9665 131.598 94.3881 131.54 93.8147C131.455 92.2038 130.987 90.6358 130.176 89.2386C129.365 87.8415 128.233 86.6548 126.873 85.7753Z" fill="#484848"/>
<path d="M123.263 87.8595C124.624 88.7381 125.756 89.9247 126.568 91.3219C127.379 92.7192 127.846 94.2876 127.931 95.8988C127.923 98.8536 125.819 100.045 123.232 98.5611C121.872 97.6815 120.741 96.4949 119.93 95.098C119.119 93.7011 118.651 92.1335 118.566 90.5229C118.574 87.5681 120.676 86.3745 123.263 87.8595Z" fill="#484848"/>
<path d="M123.242 96.036C124.607 96.82 125.713 96.1881 125.723 94.6317C125.677 93.7812 125.43 92.9535 125.002 92.2159C124.574 91.4783 123.976 90.8518 123.258 90.3873C121.894 89.6044 120.786 90.2329 120.778 91.7916C120.822 92.642 121.069 93.4698 121.497 94.2073C121.925 94.9448 122.523 95.5711 123.242 96.0348V96.036Z" fill="white"/>
<path d="M115.139 100.989L134.975 89.6606L134.967 92.6634L115.13 103.995L115.139 100.989Z" fill="#3A547D"/>
<path d="M97.536 69.5868L119.184 57.0784L119.118 79.9736L97.4701 92.4796L97.536 69.5868Z" fill="#F3C733"/>
<path d="M97.4725 69.5868L97.4065 92.4797L55.9639 68.3979L56.0287 45.5073L97.4725 69.5868Z" fill="#E79033"/>
<path d="M56.0286 45.5072L77.6763 33L119.12 57.0783L97.4725 69.5844L56.0286 45.5072Z" fill="#F7DA52"/>
<path d="M112.622 81.5005L99.1194 73.7502V94.8141L101.571 96.2183C102.54 94.8421 104.36 94.58 106.445 95.7737C108.676 97.205 110.378 99.3191 111.293 101.797L115.103 103.986L115.112 100.981L115.139 92.1577L112.622 81.5005Z" fill="#061B3E"/>
<path d="M111.889 82.2518C111.879 82.2094 111.86 82.1695 111.834 82.1345C111.808 82.0995 111.775 82.0701 111.737 82.0482L102.533 76.7659C102.484 76.7373 102.429 76.7222 102.372 76.7222C102.315 76.7222 102.259 76.7373 102.211 76.7659C102.161 76.7932 102.12 76.8332 102.091 76.8818C102.063 76.9304 102.048 76.9858 102.048 77.042L102.028 84.1803C102.028 84.2365 102.042 84.2917 102.07 84.3404C102.099 84.3892 102.139 84.4296 102.188 84.4577L113.364 90.874C113.413 90.9026 113.469 90.918 113.526 90.9184H113.543C113.629 90.9184 113.711 90.8845 113.772 90.8242C113.833 90.7639 113.868 90.6821 113.868 90.5966C113.868 90.5375 113.851 90.4795 113.82 90.4293L111.889 82.2518Z" fill="#231F20"/>
<path d="M115.165 92.1659L134.999 80.8359L134.974 89.6605L115.138 100.989L115.165 92.1659Z" fill="#09295D"/>
<path d="M99.1464 73.7502L118.982 62.4214L132.486 70.1729L112.649 81.5017L99.1464 73.7502Z" fill="url(#paint0_linear_1395_45824)"/>
<path d="M132.484 70.1731L112.649 81.5019L115.166 92.1672L135 80.8372L132.484 70.1731ZM132.757 79.5629H132.742C132.685 79.5632 132.628 79.5482 132.579 79.5196L125.075 75.2109L131.286 71.6686L133.035 79.0749C133.067 79.125 133.084 79.183 133.085 79.2422C133.084 79.3269 133.05 79.4079 132.99 79.4679C132.93 79.5278 132.849 79.5619 132.763 79.5629H132.757Z" fill="#3A547D"/>
<path d="M134.146 80.2637L132.119 71.6685C132.108 71.62 132.085 71.5749 132.053 71.5365C132.021 71.4982 131.98 71.4677 131.935 71.4473C131.888 71.4284 131.837 71.4202 131.787 71.4232C131.736 71.4263 131.687 71.4405 131.643 71.4649L131.29 71.6674L133.039 79.0736C133.07 79.1238 133.087 79.1818 133.087 79.241C133.086 79.3264 133.052 79.4081 132.991 79.4682C132.929 79.5283 132.847 79.5619 132.761 79.5616H132.746C132.688 79.5619 132.632 79.5469 132.582 79.5183L125.079 75.2096L126.932 74.1564L113.658 81.7277C113.599 81.7627 113.552 81.8155 113.525 81.8786C113.497 81.9416 113.49 82.0116 113.505 82.0787L115.532 90.6716C115.544 90.7204 115.568 90.7658 115.6 90.8042C115.633 90.8425 115.674 90.8729 115.72 90.8928C115.76 90.9118 115.804 90.9214 115.848 90.9208C115.905 90.9204 115.962 90.9042 116.011 90.874L133.997 80.6171C134.057 80.5819 134.103 80.5286 134.13 80.465C134.157 80.4013 134.163 80.3308 134.146 80.2637Z" fill="#231F20"/>
<path d="M134.146 80.265L133.855 79.0269L115.286 89.6313L115.53 90.6693C115.542 90.7181 115.565 90.7635 115.598 90.8019C115.631 90.8403 115.672 90.8706 115.718 90.8905C115.758 90.9094 115.801 90.9191 115.845 90.9186C115.903 90.9182 115.96 90.902 116.009 90.8718L133.995 80.6149C134.054 80.5802 134.101 80.5276 134.128 80.4647C134.156 80.4017 134.162 80.3318 134.146 80.265Z" fill="#484848"/>
<path d="M105.856 106.443C107.223 107.227 108.328 106.596 108.338 105.038C108.292 104.188 108.046 103.36 107.618 102.622C107.189 101.884 106.592 101.258 105.874 100.793C104.507 100.01 103.396 100.64 103.392 102.197C103.437 103.047 103.683 103.875 104.112 104.612C104.54 105.35 105.138 105.976 105.856 106.439V106.443Z" fill="white"/>
<path d="M118.254 94.4489L116.236 95.6016C116.11 95.6738 116.005 95.7776 115.932 95.9026C115.859 96.0276 115.819 96.1695 115.818 96.3143L115.807 98.3376C115.806 98.4831 115.844 98.6263 115.916 98.7527C115.989 98.8792 116.094 98.9843 116.22 99.0577C116.347 99.131 116.49 99.1698 116.637 99.1704C116.783 99.1709 116.927 99.1331 117.054 99.0608L119.084 97.9022C119.211 97.8297 119.317 97.7251 119.39 97.599C119.464 97.4728 119.503 97.3296 119.503 97.1837V95.1663C119.503 95.021 119.464 94.8784 119.391 94.7526C119.318 94.6268 119.213 94.5224 119.086 94.4497C118.96 94.3771 118.816 94.3388 118.67 94.3386C118.524 94.3385 118.38 94.3765 118.254 94.4489Z" fill="#F3C733"/>
<path d="M130.659 87.8385V89.8664C130.659 90.0115 130.698 90.154 130.771 90.2796C130.844 90.4052 130.948 90.5095 131.075 90.5822C131.201 90.6548 131.344 90.6931 131.49 90.6934C131.636 90.6937 131.78 90.6559 131.906 90.5838L133.945 89.4194C134.072 89.3469 134.178 89.2424 134.251 89.1165C134.324 88.9905 134.363 88.8476 134.363 88.7021V86.6729C134.363 86.5279 134.324 86.3854 134.251 86.2598C134.178 86.1342 134.073 86.0299 133.947 85.9572C133.821 85.8846 133.677 85.8462 133.531 85.8459C133.386 85.8457 133.242 85.8835 133.115 85.9556L131.077 87.1258C130.95 87.1979 130.845 87.3016 130.772 87.4267C130.699 87.5517 130.66 87.6937 130.659 87.8385Z" fill="#F3C733"/>
<path d="M60.776 69.6369C60.7089 69.6369 60.6425 69.6238 60.5805 69.5982C60.5185 69.5727 60.4622 69.5353 60.4147 69.4882C60.3673 69.441 60.3297 69.385 60.304 69.3234C60.2783 69.2618 60.2651 69.1957 60.2651 69.1291V50.8199C60.2651 50.7532 60.2783 50.6871 60.304 50.6255C60.3297 50.5639 60.3673 50.5079 60.4147 50.4608C60.4622 50.4136 60.5185 50.3762 60.5805 50.3507C60.6425 50.3252 60.7089 50.312 60.776 50.312C60.9115 50.312 61.0414 50.3655 61.1372 50.4608C61.233 50.556 61.2869 50.6852 61.2869 50.8199V69.1326C61.2863 69.2667 61.2321 69.3952 61.1364 69.4897C61.0406 69.5843 60.911 69.6372 60.776 69.6369Z" fill="#F2EED5"/>
<path d="M64.3193 71.6744C64.2522 71.6744 64.1857 71.6612 64.1238 71.6357C64.0618 71.6102 64.0054 71.5728 63.958 71.5256C63.9106 71.4785 63.8729 71.4225 63.8472 71.3608C63.8215 71.2992 63.8083 71.2332 63.8083 71.1665V52.8538C63.8083 52.7191 63.8622 52.59 63.958 52.4947C64.0538 52.3995 64.1838 52.3459 64.3193 52.3459C64.4548 52.3459 64.5847 52.3995 64.6805 52.4947C64.7763 52.59 64.8301 52.7191 64.8301 52.8538V71.1677C64.8301 71.2343 64.8169 71.3003 64.7912 71.3618C64.7655 71.4234 64.7279 71.4793 64.6804 71.5264C64.633 71.5734 64.5767 71.6107 64.5147 71.6361C64.4527 71.6615 64.3863 71.6745 64.3193 71.6744Z" fill="#F2EED5"/>
<path d="M67.8624 73.708C67.7953 73.708 67.7289 73.6949 67.6669 73.6694C67.6049 73.6439 67.5486 73.6065 67.5012 73.5593C67.4537 73.5121 67.4161 73.4561 67.3904 73.3945C67.3648 73.3329 67.3516 73.2669 67.3516 73.2002V54.8875C67.3514 54.8208 67.3645 54.7547 67.3901 54.693C67.4158 54.6313 67.4534 54.5753 67.5009 54.5281C67.5483 54.4809 67.6047 54.4435 67.6668 54.418C67.7288 54.3925 67.7953 54.3795 67.8624 54.3796C67.9979 54.3796 68.1278 54.4332 68.2236 54.5284C68.3195 54.6237 68.3733 54.7528 68.3733 54.8875V73.2002C68.3733 73.3349 68.3195 73.4641 68.2236 73.5593C68.1278 73.6545 67.9979 73.708 67.8624 73.708Z" fill="#F2EED5"/>
<path d="M71.4045 75.742C71.269 75.742 71.139 75.6885 71.0432 75.5932C70.9474 75.498 70.8936 75.3688 70.8936 75.2341V56.9215C70.8936 56.8548 70.9067 56.7887 70.9324 56.7271C70.9581 56.6655 70.9958 56.6095 71.0432 56.5624C71.0907 56.5152 71.147 56.4778 71.209 56.4523C71.2709 56.4267 71.3374 56.4136 71.4045 56.4136C71.4716 56.4136 71.538 56.4267 71.6 56.4523C71.6619 56.4778 71.7183 56.5152 71.7657 56.5624C71.8132 56.6095 71.8508 56.6655 71.8764 56.7271C71.9021 56.7887 71.9154 56.8548 71.9154 56.9215V75.2341C71.9154 75.3688 71.8615 75.498 71.7657 75.5932C71.6699 75.6885 71.54 75.742 71.4045 75.742Z" fill="#F2EED5"/>
<path d="M74.9477 77.7757C74.8122 77.7757 74.6823 77.7222 74.5865 77.6269C74.4907 77.5317 74.4369 77.4025 74.4369 77.2678V58.9552C74.4369 58.8885 74.4501 58.8224 74.4758 58.7608C74.5014 58.6992 74.539 58.6432 74.5865 58.596C74.6339 58.5489 74.6902 58.5115 74.7522 58.4859C74.8142 58.4604 74.8806 58.4473 74.9477 58.4473C75.0148 58.4473 75.0812 58.4604 75.1432 58.4859C75.2052 58.5115 75.2615 58.5489 75.309 58.596C75.3564 58.6432 75.3941 58.6992 75.4198 58.7608C75.4454 58.8224 75.4586 58.8885 75.4586 58.9552V77.2678C75.4586 77.4025 75.4048 77.5317 75.309 77.6269C75.2132 77.7222 75.0832 77.7757 74.9477 77.7757Z" fill="#F2EED5"/>
<path d="M78.4898 79.8084C78.3543 79.8084 78.2243 79.7549 78.1285 79.6596C78.0327 79.5644 77.9789 79.4352 77.9789 79.3005V60.9878C77.9789 60.9211 77.9921 60.8551 78.0178 60.7935C78.0434 60.7319 78.0811 60.6759 78.1285 60.6287C78.176 60.5816 78.2323 60.5441 78.2943 60.5186C78.3563 60.4931 78.4227 60.48 78.4898 60.48C78.5569 60.48 78.6233 60.4931 78.6853 60.5186C78.7473 60.5441 78.8036 60.5816 78.851 60.6287C78.8985 60.6759 78.9361 60.7319 78.9618 60.7935C78.9874 60.8551 79.0006 60.9211 79.0006 60.9878V79.3005C79.0006 79.4352 78.9468 79.5644 78.851 79.6596C78.7552 79.7549 78.6253 79.8084 78.4898 79.8084Z" fill="#F2EED5"/>
<path d="M82.033 81.8422C81.8975 81.8422 81.7676 81.7886 81.6718 81.6934C81.5759 81.5981 81.5221 81.469 81.5221 81.3343V63.0228C81.5221 62.8881 81.5759 62.7589 81.6718 62.6637C81.7676 62.5684 81.8975 62.5149 82.033 62.5149C82.1685 62.5149 82.2984 62.5684 82.3943 62.6637C82.4901 62.7589 82.5439 62.8881 82.5439 63.0228V81.3354C82.5436 81.4699 82.4896 81.5988 82.3938 81.6938C82.298 81.7888 82.1683 81.8422 82.033 81.8422Z" fill="#F2EED5"/>
<path d="M85.5785 83.876C85.443 83.876 85.3131 83.8225 85.2173 83.7272C85.1215 83.632 85.0676 83.5028 85.0676 83.3682V65.0555C85.0676 64.9208 85.1215 64.7916 85.2173 64.6963C85.3131 64.6011 85.443 64.5476 85.5785 64.5476C85.714 64.5476 85.844 64.6011 85.9398 64.6963C86.0356 64.7916 86.0894 64.9208 86.0894 65.0555V83.3682C86.0894 83.5028 86.0356 83.632 85.9398 83.7272C85.844 83.8225 85.714 83.876 85.5785 83.876Z" fill="#F2EED5"/>
<path d="M89.1194 85.9099C88.9839 85.9099 88.8539 85.8565 88.7581 85.7612C88.6623 85.666 88.6085 85.5368 88.6085 85.4021V67.0894C88.6085 66.9547 88.6623 66.8255 88.7581 66.7303C88.8539 66.635 88.9839 66.5815 89.1194 66.5815C89.2549 66.5815 89.3848 66.635 89.4806 66.7303C89.5764 66.8255 89.6303 66.9547 89.6303 67.0894V85.4021C89.6303 85.5368 89.5764 85.666 89.4806 85.7612C89.3848 85.8565 89.2549 85.9099 89.1194 85.9099Z" fill="#F2EED5"/>
<path d="M92.6614 87.9436C92.5259 87.9436 92.396 87.8901 92.3002 87.7949C92.2044 87.6997 92.1505 87.5705 92.1505 87.4358V69.1231C92.1505 68.9884 92.2044 68.8592 92.3002 68.764C92.396 68.6687 92.5259 68.6152 92.6614 68.6152C92.7969 68.6152 92.9269 68.6687 93.0227 68.764C93.1185 68.8592 93.1723 68.9884 93.1723 69.1231V87.4358C93.1723 87.5705 93.1185 87.6997 93.0227 87.7949C92.9269 87.8901 92.7969 87.9436 92.6614 87.9436Z" fill="#F2EED5"/>
<path opacity="0.27" d="M54.3359 104.135L43.8393 110.245C42.9794 110.745 42.2655 111.46 41.7679 112.318C41.2702 113.177 41.0059 114.149 41.001 115.14C40.9962 116.131 41.2509 117.106 41.7401 117.969C42.2293 118.832 42.9362 119.553 43.7911 120.063L79.5952 141.37C81.3708 142.427 83.3996 142.989 85.4691 142.999C87.5385 143.009 89.5727 142.466 91.3585 141.426L100.922 135.859C101.839 135.325 102.6 134.563 103.131 133.647C103.662 132.732 103.943 131.695 103.949 130.638C103.954 129.581 103.682 128.542 103.16 127.621C102.638 126.701 101.884 125.931 100.972 125.388L65.3458 104.186C63.6838 103.198 61.7849 102.671 59.848 102.662C57.9111 102.653 56.0073 103.162 54.3359 104.135Z" fill="#7DC3EA"/>
<path d="M84.4333 127.003C83.9577 126.659 83.3982 126.448 82.8129 126.391C82.2275 126.335 81.6376 126.435 81.1043 126.681L77.494 128.766C78.0275 128.518 78.6178 128.418 79.2036 128.474C79.7895 128.531 80.3494 128.742 80.8253 129.086C82.1863 129.965 83.3189 131.151 84.1303 132.548C84.9417 133.945 85.409 135.513 85.4939 137.124C85.552 137.698 85.4562 138.276 85.2163 138.8C84.9765 139.325 84.6011 139.776 84.1284 140.11C85.3307 139.415 86.5333 138.721 87.7364 138.028C88.2089 137.694 88.5841 137.242 88.8239 136.717C89.0638 136.192 89.1596 135.614 89.1018 135.04C89.0162 133.43 88.5486 131.862 87.7372 130.465C86.9259 129.068 85.7937 127.882 84.4333 127.003Z" fill="#484848"/>
<path d="M80.8241 129.086C82.1856 129.964 83.3186 131.151 84.1304 132.548C84.9422 133.945 85.4099 135.513 85.4951 137.124C85.488 140.08 83.3833 141.27 80.7959 139.786C79.4358 138.907 78.304 137.721 77.4929 136.324C76.6818 134.927 76.2143 133.359 76.1285 131.748C76.1356 128.796 78.2403 127.602 80.8241 129.086Z" fill="#323232"/>
<path d="M57.0611 111.293C56.585 110.948 56.0249 110.737 55.4387 110.68C54.8525 110.623 54.2617 110.723 53.7274 110.969L50.1206 113.053C50.6547 112.808 51.2451 112.708 51.8308 112.765C52.4164 112.823 52.9761 113.034 53.452 113.378C54.8126 114.257 55.9449 115.443 56.7563 116.84C57.5677 118.237 58.0352 119.805 58.1205 121.415C58.1792 121.99 58.0834 122.57 57.8428 123.095C57.6023 123.621 57.2257 124.073 56.7515 124.407L60.3607 122.32C60.8328 121.987 61.2077 121.535 61.4471 121.011C61.6866 120.487 61.782 119.909 61.7238 119.336C61.6391 117.725 61.1726 116.157 60.3623 114.759C59.552 113.361 58.4208 112.174 57.0611 111.293Z" fill="#484848"/>
<path d="M53.4496 113.378C54.8102 114.257 55.9425 115.443 56.7538 116.84C57.5652 118.237 58.0327 119.805 58.1181 121.415C58.1111 124.368 56.0063 125.56 53.4213 124.076C52.0608 123.198 50.9287 122.012 50.1175 120.615C49.3063 119.219 48.839 117.651 48.7539 116.041C48.7633 113.087 50.8669 111.893 53.4496 113.378Z" fill="#323232"/>
<path d="M101.789 116.597C101.314 116.252 100.754 116.041 100.168 115.984C99.5828 115.927 98.9926 116.027 98.4591 116.274L94.8488 118.359C95.3826 118.113 95.9728 118.013 96.5584 118.07C97.1441 118.126 97.7039 118.337 98.1801 118.681C99.5412 119.559 100.674 120.746 101.485 122.143C102.296 123.541 102.764 125.109 102.849 126.72C102.906 127.293 102.81 127.871 102.57 128.395C102.33 128.92 101.955 129.371 101.482 129.704C102.685 129.01 103.888 128.316 105.091 127.623C105.564 127.289 105.939 126.837 106.179 126.312C106.418 125.788 106.514 125.209 106.457 124.636C106.371 123.025 105.904 121.457 105.093 120.06C104.281 118.663 103.15 117.476 101.789 116.597Z" fill="#484848"/>
<path d="M98.1789 118.681C99.54 119.56 100.673 120.746 101.484 122.143C102.295 123.541 102.763 125.109 102.847 126.72C102.839 129.675 100.736 130.866 98.1483 129.382C96.7882 128.503 95.6566 127.316 94.8456 125.919C94.0347 124.522 93.5675 122.954 93.4821 121.343C93.4891 118.391 95.5927 117.197 98.1789 118.681Z" fill="#484848"/>
<path d="M98.1625 126.86C99.5279 127.644 100.634 127.013 100.643 125.456C100.597 124.606 100.351 123.778 99.9221 123.04C99.4938 122.303 98.8961 121.676 98.1778 121.212C96.8134 120.429 95.7057 121.057 95.6975 122.616C95.7423 123.467 95.9889 124.294 96.4173 125.032C96.8458 125.769 97.4438 126.396 98.1625 126.859V126.86Z" fill="white"/>
<path d="M90.0553 131.811L109.891 120.483L109.883 123.485L90.0459 134.817L90.0553 131.811Z" fill="url(#paint1_linear_1395_45824)"/>
<path d="M72.4759 100.408L94.1236 87.8994L94.0577 110.795L72.4099 123.301L72.4759 100.408Z" fill="#3C3F60"/>
<path d="M72.4758 100.408L72.4099 123.301L42.5409 106.156L42.6057 83.2654L72.4758 100.408Z" fill="#515A93"/>
<path d="M42.6069 83.2665L64.2547 70.7593L94.1248 87.8994L72.4771 100.408L42.6069 83.2665Z" fill="#96ACDB"/>
<path d="M87.5645 112.323L74.0615 104.573V125.636L76.5147 127.041C77.4835 125.664 79.3033 125.402 81.3869 126.596C83.618 128.027 85.32 130.141 86.2356 132.619L90.0448 134.808L90.0543 131.802L90.0813 122.979L87.5645 112.323Z" fill="#396CAA"/>
<path d="M86.8288 113.073C86.8188 113.031 86.8001 112.991 86.774 112.956C86.7479 112.921 86.7149 112.891 86.677 112.869L77.4728 107.587C77.424 107.559 77.3683 107.543 77.3115 107.543C77.2548 107.543 77.1992 107.559 77.1503 107.587C77.1005 107.614 77.059 107.654 77.0302 107.703C77.0014 107.751 76.9863 107.807 76.9867 107.863L76.9667 115.002C76.9664 115.058 76.981 115.113 77.0091 115.162C77.0373 115.21 77.0778 115.251 77.1268 115.279L88.3038 121.695C88.353 121.724 88.4091 121.739 88.4662 121.74H88.4827C88.5687 121.74 88.6511 121.706 88.712 121.646C88.7729 121.585 88.8073 121.503 88.8076 121.418C88.8078 121.359 88.791 121.301 88.7594 121.251L86.8288 113.073Z" fill="#231F20"/>
<path d="M90.0848 122.989L109.919 111.659L109.894 120.484L90.0577 131.813L90.0848 122.989Z" fill="#D4ECFF"/>
<path d="M74.0614 104.572L93.8975 93.2427L107.401 100.994L87.5644 112.323L74.0614 104.572Z" fill="#D4ECFF"/>
<path d="M107.401 100.994L87.5657 112.323L90.0824 122.988L109.916 111.658L107.401 100.994ZM107.675 110.384H107.66C107.602 110.384 107.546 110.369 107.496 110.341L99.9928 106.032L106.203 102.49L107.953 109.896C107.984 109.946 108.001 110.004 108.001 110.063C108.001 110.106 107.992 110.148 107.975 110.187C107.959 110.226 107.935 110.261 107.904 110.291C107.874 110.321 107.838 110.344 107.798 110.36C107.759 110.376 107.716 110.384 107.674 110.384H107.675Z" fill="url(#paint2_linear_1395_45824)"/>
<path d="M109.063 111.086L107.036 102.49C107.024 102.441 107.001 102.396 106.969 102.357C106.937 102.319 106.896 102.289 106.85 102.268C106.803 102.25 106.753 102.241 106.702 102.245C106.652 102.248 106.603 102.262 106.559 102.286L106.206 102.488L107.955 109.895C107.986 109.945 108.003 110.003 108.003 110.062C108.003 110.148 107.968 110.229 107.907 110.289C107.846 110.35 107.763 110.383 107.677 110.383H107.662C107.605 110.383 107.548 110.368 107.498 110.339L99.9952 106.031L101.849 104.978L88.5768 112.549C88.5171 112.584 88.47 112.636 88.4423 112.699C88.4146 112.762 88.4077 112.833 88.4226 112.9L90.4497 121.493C90.4617 121.542 90.485 121.587 90.5177 121.625C90.5504 121.664 90.5916 121.694 90.6381 121.714C90.6777 121.733 90.7212 121.742 90.7652 121.742C90.823 121.742 90.8796 121.725 90.9288 121.695L108.914 111.438C108.974 111.403 109.02 111.35 109.047 111.286C109.074 111.223 109.079 111.153 109.063 111.086Z" fill="#231F20"/>
<path d="M109.062 111.086L108.77 109.848L90.2013 120.452L90.4449 121.49C90.457 121.539 90.4803 121.585 90.513 121.623C90.5456 121.661 90.5869 121.692 90.6333 121.712C90.673 121.73 90.7164 121.74 90.7604 121.74C90.8182 121.739 90.8749 121.723 90.9241 121.693L108.91 111.436C108.969 111.401 109.016 111.349 109.043 111.286C109.071 111.223 109.077 111.153 109.062 111.086Z" fill="#484848"/>
<path d="M53.4273 121.554C54.7951 122.338 55.9052 121.705 55.9087 120.149C55.8638 119.299 55.6171 118.471 55.1889 117.733C54.7607 116.996 54.1631 116.369 53.4449 115.905C52.0794 115.12 50.9729 115.754 50.9635 117.309C51.0093 118.16 51.2564 118.988 51.6847 119.726C52.113 120.464 52.7105 121.091 53.4284 121.556L53.4273 121.554Z" fill="white"/>
<path d="M80.8018 137.264C82.1685 138.048 83.2738 137.417 83.2832 135.859C83.2382 135.009 82.9915 134.181 82.5634 133.443C82.1352 132.705 81.5377 132.078 80.8195 131.614C79.454 130.831 78.3474 131.461 78.338 133.018C78.3824 133.868 78.6288 134.696 79.0571 135.434C79.4853 136.171 80.0832 136.797 80.8018 137.26V137.264Z" fill="white"/>
<path d="M93.1713 125.273L91.1536 126.425C91.0273 126.497 90.9223 126.601 90.849 126.726C90.7756 126.851 90.7366 126.993 90.7357 127.138L90.7228 129.161C90.722 129.307 90.7598 129.45 90.8324 129.576C90.905 129.703 91.0099 129.808 91.1364 129.881C91.2629 129.955 91.4066 129.993 91.5531 129.994C91.6995 129.995 91.8435 129.957 91.9706 129.884L94.0011 128.726C94.1283 128.653 94.2339 128.549 94.3073 128.422C94.3806 128.296 94.4192 128.153 94.4191 128.007V125.99C94.4188 125.845 94.3802 125.702 94.3071 125.577C94.2341 125.451 94.1292 125.347 94.0028 125.274C93.8765 125.202 93.7332 125.163 93.5873 125.163C93.4413 125.163 93.2979 125.2 93.1713 125.273Z" fill="#F3C733"/>
<path d="M105.576 118.661V120.689C105.576 120.834 105.614 120.977 105.687 121.103C105.76 121.228 105.865 121.333 105.992 121.406C106.118 121.478 106.262 121.517 106.408 121.517C106.554 121.517 106.697 121.479 106.824 121.406L108.863 120.242C108.99 120.169 109.095 120.065 109.169 119.939C109.242 119.813 109.28 119.67 109.281 119.524V117.495C109.281 117.35 109.242 117.207 109.169 117.082C109.096 116.956 108.991 116.851 108.865 116.779C108.738 116.706 108.595 116.668 108.449 116.667C108.303 116.667 108.159 116.705 108.033 116.778L105.994 117.948C105.868 118.02 105.763 118.124 105.689 118.249C105.616 118.374 105.577 118.516 105.576 118.661Z" fill="#F3C733"/>
</g>
<defs>
<linearGradient id="paint0_linear_1395_45824" x1="99.1464" y1="71.9615" x2="132.486" y2="71.9615" gradientUnits="userSpaceOnUse">
<stop stop-color="#09295D"/>
<stop offset="1" stop-color="#0C367C"/>
</linearGradient>
<linearGradient id="paint1_linear_1395_45824" x1="110.824" y1="120.913" x2="96.0799" y2="138.438" gradientUnits="userSpaceOnUse">
<stop stop-color="#86B8E0"/>
<stop offset="0.116" stop-color="#98C4E7"/>
<stop offset="0.325" stop-color="#B2D5F1"/>
<stop offset="0.54" stop-color="#C5E2F9"/>
<stop offset="0.761" stop-color="#D0E9FD"/>
<stop offset="1" stop-color="#D4ECFF"/>
</linearGradient>
<linearGradient id="paint2_linear_1395_45824" x1="84.7942" y1="116.434" x2="110.039" y2="108.124" gradientUnits="userSpaceOnUse">
<stop stop-color="#86B8E0"/>
<stop offset="0.116" stop-color="#98C4E7"/>
<stop offset="0.325" stop-color="#B2D5F1"/>
<stop offset="0.54" stop-color="#C5E2F9"/>
<stop offset="0.761" stop-color="#D0E9FD"/>
<stop offset="1" stop-color="#D4ECFF"/>
</linearGradient>
<clipPath id="clip0_1395_45824">
<rect width="94" height="110" fill="white" transform="translate(41 33)"/>
</clipPath>
</defs>
</svg>
