<svg width="21" height="21" viewBox="0 0 21 21" fill="none" xmlns="http://www.w3.org/2000/svg">
<mask id="path-1-outside-1_2121_5554" maskUnits="userSpaceOnUse" x="0" y="0" width="21" height="21" fill="black">
<rect fill="white" width="21" height="21"/>
<path fill-rule="evenodd" clip-rule="evenodd" d="M9.79443 1.01788C8.38704 1.15273 7.34027 1.45053 6.15517 2.05323C4.7513 2.76712 3.49156 3.89603 2.57302 5.26326C2.41523 5.49809 2.14659 5.97426 1.97599 6.3214C1.35501 7.58494 1.05641 8.77403 1.00624 10.1827C0.949868 11.7662 1.27554 13.2732 1.98019 14.6898C2.47658 15.6876 2.98659 16.3936 3.79503 17.2019C4.61238 18.019 5.32166 18.5293 6.32227 19.0201C7.02046 19.3625 7.47124 19.5292 8.17904 19.7067C10.0363 20.1725 11.8991 20.0831 13.7137 19.4413C14.2675 19.2455 15.2276 18.764 15.7175 18.4364C17.7972 17.0459 19.2509 14.9375 19.7831 12.5403C19.907 11.9818 19.9707 11.4599 19.9938 10.8139C20.0501 9.23041 19.7245 7.72339 19.0198 6.30681C18.5571 5.37665 18.042 4.64764 17.3188 3.89941C16.5221 3.0751 15.7214 2.4923 14.6777 1.97708C13.5772 1.43371 12.5525 1.14378 11.3355 1.03136C10.9572 0.996419 10.0971 0.988882 9.79443 1.01788ZM11.8183 2.2904C14.1507 2.68225 16.1189 3.95447 17.4308 5.9182C18.0928 6.90921 18.5298 8.04246 18.7314 9.29163C18.8233 9.86121 18.8233 11.1354 18.7314 11.7049C18.3312 14.184 16.9741 16.2424 14.8634 17.5716C13.9596 18.1408 12.8706 18.5397 11.7069 18.7279C11.1352 18.8203 9.86224 18.8201 9.2931 18.7274C6.85357 18.3303 4.84421 17.032 3.50968 14.9908C2.88659 14.0377 2.46596 12.924 2.26873 11.7049C2.17656 11.1351 2.17656 9.86151 2.26873 9.29163C2.56704 7.44786 3.3477 5.90643 4.62924 4.63075C6.04933 3.21718 7.829 2.38715 9.83156 2.20448C10.2333 2.16784 11.3852 2.21767 11.8183 2.2904ZM13.1366 5.30496C12.83 5.42722 12.6705 5.83054 12.8184 6.10978C12.8475 6.16491 13.0567 6.3938 13.2832 6.61843L13.6949 7.02683L10.0643 7.0454C6.48574 7.0637 6.43182 7.06504 6.30382 7.14022C6.08847 7.26672 5.99753 7.43609 6.0145 7.67898C6.0315 7.92239 6.13106 8.08461 6.31785 8.17323C6.43238 8.22755 6.80277 8.23349 10.0766 8.23349H13.7083L13.276 8.67104C12.824 9.12857 12.7653 9.21968 12.7653 9.46298C12.7653 9.7326 12.935 9.94137 13.2157 10.0169C13.5109 10.0964 13.5516 10.0666 14.6481 8.96754C15.2037 8.41066 15.6758 7.90799 15.6972 7.85051C15.7553 7.69428 15.7445 7.5412 15.6644 7.38734C15.5759 7.21741 13.7575 5.4045 13.5934 5.32259C13.4605 5.25628 13.2765 5.24919 13.1366 5.30496ZM7.47481 10.9819C7.3351 11.0251 5.38892 12.956 5.31587 13.1239C5.24438 13.2883 5.25081 13.4463 5.33563 13.6092C5.42657 13.7838 7.24464 15.5931 7.41465 15.6781C7.76955 15.8556 8.23474 15.556 8.23474 15.1499C8.23474 15.0597 8.21621 14.9494 8.19356 14.9048C8.17095 14.8602 7.95812 14.6273 7.72068 14.3874L7.28894 13.9512H10.682C13.1696 13.9512 14.1137 13.9396 14.2203 13.9076C14.4969 13.8248 14.6987 13.4758 14.6228 13.2113C14.5726 13.0365 14.4877 12.9192 14.3508 12.8357C14.2354 12.7653 14.1361 12.7633 10.7619 12.7632L7.29173 12.7631L7.72398 12.3255C7.96173 12.0849 8.17392 11.8415 8.19549 11.7848C8.262 11.6098 8.24291 11.3754 8.15108 11.2391C8.00428 11.0213 7.70972 10.9093 7.47481 10.9819Z"/>
</mask>
<path fill-rule="evenodd" clip-rule="evenodd" d="M9.79443 1.01788C8.38704 1.15273 7.34027 1.45053 6.15517 2.05323C4.7513 2.76712 3.49156 3.89603 2.57302 5.26326C2.41523 5.49809 2.14659 5.97426 1.97599 6.3214C1.35501 7.58494 1.05641 8.77403 1.00624 10.1827C0.949868 11.7662 1.27554 13.2732 1.98019 14.6898C2.47658 15.6876 2.98659 16.3936 3.79503 17.2019C4.61238 18.019 5.32166 18.5293 6.32227 19.0201C7.02046 19.3625 7.47124 19.5292 8.17904 19.7067C10.0363 20.1725 11.8991 20.0831 13.7137 19.4413C14.2675 19.2455 15.2276 18.764 15.7175 18.4364C17.7972 17.0459 19.2509 14.9375 19.7831 12.5403C19.907 11.9818 19.9707 11.4599 19.9938 10.8139C20.0501 9.23041 19.7245 7.72339 19.0198 6.30681C18.5571 5.37665 18.042 4.64764 17.3188 3.89941C16.5221 3.0751 15.7214 2.4923 14.6777 1.97708C13.5772 1.43371 12.5525 1.14378 11.3355 1.03136C10.9572 0.996419 10.0971 0.988882 9.79443 1.01788ZM11.8183 2.2904C14.1507 2.68225 16.1189 3.95447 17.4308 5.9182C18.0928 6.90921 18.5298 8.04246 18.7314 9.29163C18.8233 9.86121 18.8233 11.1354 18.7314 11.7049C18.3312 14.184 16.9741 16.2424 14.8634 17.5716C13.9596 18.1408 12.8706 18.5397 11.7069 18.7279C11.1352 18.8203 9.86224 18.8201 9.2931 18.7274C6.85357 18.3303 4.84421 17.032 3.50968 14.9908C2.88659 14.0377 2.46596 12.924 2.26873 11.7049C2.17656 11.1351 2.17656 9.86151 2.26873 9.29163C2.56704 7.44786 3.3477 5.90643 4.62924 4.63075C6.04933 3.21718 7.829 2.38715 9.83156 2.20448C10.2333 2.16784 11.3852 2.21767 11.8183 2.2904ZM13.1366 5.30496C12.83 5.42722 12.6705 5.83054 12.8184 6.10978C12.8475 6.16491 13.0567 6.3938 13.2832 6.61843L13.6949 7.02683L10.0643 7.0454C6.48574 7.0637 6.43182 7.06504 6.30382 7.14022C6.08847 7.26672 5.99753 7.43609 6.0145 7.67898C6.0315 7.92239 6.13106 8.08461 6.31785 8.17323C6.43238 8.22755 6.80277 8.23349 10.0766 8.23349H13.7083L13.276 8.67104C12.824 9.12857 12.7653 9.21968 12.7653 9.46298C12.7653 9.7326 12.935 9.94137 13.2157 10.0169C13.5109 10.0964 13.5516 10.0666 14.6481 8.96754C15.2037 8.41066 15.6758 7.90799 15.6972 7.85051C15.7553 7.69428 15.7445 7.5412 15.6644 7.38734C15.5759 7.21741 13.7575 5.4045 13.5934 5.32259C13.4605 5.25628 13.2765 5.24919 13.1366 5.30496ZM7.47481 10.9819C7.3351 11.0251 5.38892 12.956 5.31587 13.1239C5.24438 13.2883 5.25081 13.4463 5.33563 13.6092C5.42657 13.7838 7.24464 15.5931 7.41465 15.6781C7.76955 15.8556 8.23474 15.556 8.23474 15.1499C8.23474 15.0597 8.21621 14.9494 8.19356 14.9048C8.17095 14.8602 7.95812 14.6273 7.72068 14.3874L7.28894 13.9512H10.682C13.1696 13.9512 14.1137 13.9396 14.2203 13.9076C14.4969 13.8248 14.6987 13.4758 14.6228 13.2113C14.5726 13.0365 14.4877 12.9192 14.3508 12.8357C14.2354 12.7653 14.1361 12.7633 10.7619 12.7632L7.29173 12.7631L7.72398 12.3255C7.96173 12.0849 8.17392 11.8415 8.19549 11.7848C8.262 11.6098 8.24291 11.3754 8.15108 11.2391C8.00428 11.0213 7.70972 10.9093 7.47481 10.9819Z" fill="#F9A84A"/>
<path fill-rule="evenodd" clip-rule="evenodd" d="M9.79443 1.01788C8.38704 1.15273 7.34027 1.45053 6.15517 2.05323C4.7513 2.76712 3.49156 3.89603 2.57302 5.26326C2.41523 5.49809 2.14659 5.97426 1.97599 6.3214C1.35501 7.58494 1.05641 8.77403 1.00624 10.1827C0.949868 11.7662 1.27554 13.2732 1.98019 14.6898C2.47658 15.6876 2.98659 16.3936 3.79503 17.2019C4.61238 18.019 5.32166 18.5293 6.32227 19.0201C7.02046 19.3625 7.47124 19.5292 8.17904 19.7067C10.0363 20.1725 11.8991 20.0831 13.7137 19.4413C14.2675 19.2455 15.2276 18.764 15.7175 18.4364C17.7972 17.0459 19.2509 14.9375 19.7831 12.5403C19.907 11.9818 19.9707 11.4599 19.9938 10.8139C20.0501 9.23041 19.7245 7.72339 19.0198 6.30681C18.5571 5.37665 18.042 4.64764 17.3188 3.89941C16.5221 3.0751 15.7214 2.4923 14.6777 1.97708C13.5772 1.43371 12.5525 1.14378 11.3355 1.03136C10.9572 0.996419 10.0971 0.988882 9.79443 1.01788ZM11.8183 2.2904C14.1507 2.68225 16.1189 3.95447 17.4308 5.9182C18.0928 6.90921 18.5298 8.04246 18.7314 9.29163C18.8233 9.86121 18.8233 11.1354 18.7314 11.7049C18.3312 14.184 16.9741 16.2424 14.8634 17.5716C13.9596 18.1408 12.8706 18.5397 11.7069 18.7279C11.1352 18.8203 9.86224 18.8201 9.2931 18.7274C6.85357 18.3303 4.84421 17.032 3.50968 14.9908C2.88659 14.0377 2.46596 12.924 2.26873 11.7049C2.17656 11.1351 2.17656 9.86151 2.26873 9.29163C2.56704 7.44786 3.3477 5.90643 4.62924 4.63075C6.04933 3.21718 7.829 2.38715 9.83156 2.20448C10.2333 2.16784 11.3852 2.21767 11.8183 2.2904ZM13.1366 5.30496C12.83 5.42722 12.6705 5.83054 12.8184 6.10978C12.8475 6.16491 13.0567 6.3938 13.2832 6.61843L13.6949 7.02683L10.0643 7.0454C6.48574 7.0637 6.43182 7.06504 6.30382 7.14022C6.08847 7.26672 5.99753 7.43609 6.0145 7.67898C6.0315 7.92239 6.13106 8.08461 6.31785 8.17323C6.43238 8.22755 6.80277 8.23349 10.0766 8.23349H13.7083L13.276 8.67104C12.824 9.12857 12.7653 9.21968 12.7653 9.46298C12.7653 9.7326 12.935 9.94137 13.2157 10.0169C13.5109 10.0964 13.5516 10.0666 14.6481 8.96754C15.2037 8.41066 15.6758 7.90799 15.6972 7.85051C15.7553 7.69428 15.7445 7.5412 15.6644 7.38734C15.5759 7.21741 13.7575 5.4045 13.5934 5.32259C13.4605 5.25628 13.2765 5.24919 13.1366 5.30496ZM7.47481 10.9819C7.3351 11.0251 5.38892 12.956 5.31587 13.1239C5.24438 13.2883 5.25081 13.4463 5.33563 13.6092C5.42657 13.7838 7.24464 15.5931 7.41465 15.6781C7.76955 15.8556 8.23474 15.556 8.23474 15.1499C8.23474 15.0597 8.21621 14.9494 8.19356 14.9048C8.17095 14.8602 7.95812 14.6273 7.72068 14.3874L7.28894 13.9512H10.682C13.1696 13.9512 14.1137 13.9396 14.2203 13.9076C14.4969 13.8248 14.6987 13.4758 14.6228 13.2113C14.5726 13.0365 14.4877 12.9192 14.3508 12.8357C14.2354 12.7653 14.1361 12.7633 10.7619 12.7632L7.29173 12.7631L7.72398 12.3255C7.96173 12.0849 8.17392 11.8415 8.19549 11.7848C8.262 11.6098 8.24291 11.3754 8.15108 11.2391C8.00428 11.0213 7.70972 10.9093 7.47481 10.9819Z" stroke="#F9A84A" stroke-width="0.6" mask="url(#path-1-outside-1_2121_5554)"/>
</svg>
