<svg width="176" height="176" viewBox="0 0 176 176" fill="none" xmlns="http://www.w3.org/2000/svg">
<circle cx="88" cy="88" r="88" fill="#F3F3F3"/>
<g clip-path="url(#clip0_1395_45828)">
<path fill-rule="evenodd" clip-rule="evenodd" d="M39.6037 33.1079C37.7745 33.3951 36.1065 34.3242 34.897 35.7294C33.6876 37.1347 33.0153 38.9249 33 40.7808V141.485L35.2166 139.338L39.0008 143.005L42.7851 139.338L46.5693 143.005L50.3536 139.338L54.1378 143.005L57.9221 139.338L61.7063 143.005L65.4906 139.338L69.2748 143.005L73.0591 139.338L76.8433 143.005L80.6276 139.338L84.4119 143.005L88.2022 139.334L91.9864 143.001L95.7707 139.334L99.5549 143.001L103.334 139.334L107.119 143.001L110.903 139.334L114.687 143.001L118.471 139.334L122.256 143.001L126.04 139.334L126.658 139.933V40.7808C126.694 38.6817 127.56 36.6827 129.066 35.2235C130.572 33.7644 132.594 32.9645 134.688 32.9999H39.6037V33.1079Z" fill="#176CF7"/>
<path d="M86.6587 123.061H46.4144C44.9328 123.061 43.7318 124.265 43.7318 125.75C43.7318 127.236 44.9328 128.439 46.4144 128.439H86.6587C88.1403 128.439 89.3414 127.236 89.3414 125.75C89.3414 124.265 88.1403 123.061 86.6587 123.061Z" fill="white"/>
<path d="M113.489 112.828H46.4144C44.9328 112.828 43.7318 114.032 43.7318 115.517C43.7318 117.002 44.9328 118.206 46.4144 118.206H113.489C114.97 118.206 116.171 117.002 116.171 115.517C116.171 114.032 114.97 112.828 113.489 112.828Z" fill="white"/>
<path d="M113.489 102.596H46.4144C44.9328 102.596 43.7318 103.8 43.7318 105.285C43.7318 106.77 44.9328 107.974 46.4144 107.974H113.489C114.97 107.974 116.171 106.77 116.171 105.285C116.171 103.8 114.97 102.596 113.489 102.596Z" fill="white"/>
<path d="M113.489 92.3625H46.4144C44.9328 92.3625 43.7318 93.5665 43.7318 95.0516C43.7318 96.5368 44.9328 97.7407 46.4144 97.7407H113.489C114.97 97.7407 116.171 96.5368 116.171 95.0516C116.171 93.5665 114.97 92.3625 113.489 92.3625Z" fill="white"/>
<path d="M113.489 82.1304H46.4144C44.9328 82.1304 43.7318 83.3343 43.7318 84.8195C43.7318 86.3046 44.9328 87.5085 46.4144 87.5085H113.489C114.97 87.5085 116.171 86.3046 116.171 84.8195C116.171 83.3343 114.97 82.1304 113.489 82.1304Z" fill="white"/>
<path d="M113.489 71.897H46.4144C44.9328 71.897 43.7318 73.1009 43.7318 74.5861C43.7318 76.0712 44.9328 77.2751 46.4144 77.2751H113.489C114.97 77.2751 116.171 76.0712 116.171 74.5861C116.171 73.1009 114.97 71.897 113.489 71.897Z" fill="white"/>
<path d="M113.489 61.665H46.4144C44.9328 61.665 43.7318 62.869 43.7318 64.3541C43.7318 65.8393 44.9328 67.0432 46.4144 67.0432H113.489C114.97 67.0432 116.171 65.8393 116.171 64.3541C116.171 62.869 114.97 61.665 113.489 61.665Z" fill="white"/>
<path fill-rule="evenodd" clip-rule="evenodd" d="M143 41.0685C143 38.9282 142.152 36.8757 140.642 35.3623C139.132 33.849 137.085 32.9988 134.95 32.9988C132.815 32.9988 130.767 33.849 129.257 35.3623C127.747 36.8757 126.899 38.9282 126.899 41.0685V53.1705H143V41.0685Z" fill="#003A9A"/>
<path d="M113.489 47.7913H46.4144C44.9328 47.7913 43.7318 48.9952 43.7318 50.4803C43.7318 51.9655 44.9328 53.1694 46.4144 53.1694H113.489C114.97 53.1694 116.171 51.9655 116.171 50.4803C116.171 48.9952 114.97 47.7913 113.489 47.7913Z" fill="#FFC217"/>
</g>
<defs>
<clipPath id="clip0_1395_45828">
<rect width="110" height="110" fill="white" transform="translate(33 33)"/>
</clipPath>
</defs>
</svg>
