<svg width="176" height="176" viewBox="0 0 176 176" fill="none" xmlns="http://www.w3.org/2000/svg">
<circle cx="88" cy="88" r="88" fill="#F3F3F3"/>
<path d="M41.6357 89.0345C41.6357 89.0345 42.6186 86.6766 40.9174 86.3431C39.2162 86.0096 39.2162 88.4494 39.2162 88.4494L41.6357 89.0345Z" fill="#FBD6B1"/>
<path d="M38.9456 88.7827L39.0784 88.1379L41.8142 88.8857L41.6414 89.5199L38.9456 88.7827Z" fill="#F8F8F8"/>
<path d="M41.055 90.7767C41.0628 90.7203 41.0536 90.6629 41.0287 90.6117C41.0037 90.5605 40.9641 90.5178 40.9148 90.489C40.8655 90.4602 40.8087 90.4466 40.7516 90.45C40.6946 90.4533 40.6398 90.4733 40.5941 90.5076C40.5485 90.5419 40.5141 90.5889 40.4953 90.6426C40.4765 90.6964 40.4742 90.7545 40.4885 90.8095C40.5028 90.8646 40.5332 90.9142 40.5759 90.9521C40.6185 90.99 40.6715 91.0145 40.7281 91.0224C40.8042 91.0327 40.8812 91.0127 40.9425 90.9666C41.0037 90.9206 41.0442 90.8523 41.055 90.7767Z" fill="#7A7B7C"/>
<path d="M41.3614 89.8518C41.3692 89.7955 41.36 89.7381 41.3351 89.6869C41.3101 89.6357 41.2705 89.593 41.2212 89.5642C41.1719 89.5354 41.1151 89.5218 41.058 89.5251C41.0009 89.5285 40.9461 89.5485 40.9005 89.5828C40.8549 89.6171 40.8205 89.6641 40.8017 89.7178C40.7829 89.7716 40.7806 89.8296 40.7949 89.8847C40.8092 89.9398 40.8396 89.9894 40.8823 90.0273C40.9249 90.0652 40.9779 90.0896 41.0345 90.0976C41.0722 90.1029 41.1106 90.1007 41.1474 90.0912C41.1842 90.0817 41.2188 90.0651 41.2492 90.0422C41.2795 90.0194 41.3051 89.9908 41.3243 89.9582C41.3436 89.9255 41.3562 89.8894 41.3614 89.8518Z" fill="#7A7B7C"/>
<path d="M139.931 105.809C139.384 101.663 138.775 97.5412 137.958 93.4397C137.202 89.6443 136.347 85.8626 135.395 82.0946L135.216 81.3784C133.756 75.6671 132.085 70.0111 130.203 64.4105L129.977 63.7353C128.037 57.9928 125.891 52.3384 123.54 46.7721C121.835 42.7314 120.138 38.2952 117.497 34.7402C115.545 32.1131 112.433 32.8678 109.965 34.3399C109.753 34.4663 109.543 34.5986 109.338 34.7331L109.706 35.3019C111.925 39.109 113.779 43.1155 115.244 47.2683C117.434 52.7132 119.469 58.2237 121.432 63.7552C122.734 67.4308 124.073 71.1158 125.168 74.8592C126.931 80.8846 128.372 87.0164 129.753 93.1389C131.47 100.057 132.758 107.073 133.611 114.147L133.686 114.927C134.335 115.069 134.995 115.153 135.659 115.177C136.2 115.215 136.742 115.146 137.255 114.974C137.768 114.803 138.242 114.532 138.65 114.178C140.822 112.15 140.268 108.401 139.929 105.807" fill="#FFC217"/>
<path d="M134.13 114.725C133.271 107.641 131.974 100.615 130.246 93.6871C128.855 87.5571 127.405 81.4155 125.629 75.3816C124.527 71.6317 123.177 67.9427 121.866 64.2619C119.89 58.7225 117.841 53.2043 115.635 47.7517C114.16 43.5929 112.293 39.5808 110.058 35.7683L109.688 35.2C107.071 37.0766 104.676 39.2386 102.548 41.6451C91.4913 53.0273 79.9881 64.4845 65.9172 72.207C64.1493 73.1742 62.3436 74.0672 60.5 74.8859L60.6835 75.5656C63.2015 85.6517 66.1018 95.6347 69.0886 105.593L69.2982 106.261C77.8653 105.012 86.5591 104.858 95.1659 105.803C102.744 106.927 110.221 108.636 117.529 110.916C121.754 112.123 125.981 113.33 130.233 114.431C131.515 114.768 132.855 115.221 134.2 115.5L134.125 114.72" fill="#176CF7"/>
<path d="M69.0227 105.032C66.0529 95.0854 63.1714 85.1188 60.6754 75.0469L60.4932 74.3682C60.3827 74.4173 60.2722 74.47 60.1617 74.5191C53.9456 75.9959 47.7537 77.5687 41.5862 79.2374C39.336 79.847 36.5014 80.2309 34.6627 81.7942C32.824 83.3576 32.9357 85.8736 33.0615 88.077C33.3635 93.1451 34.7449 98.0913 37.114 102.588C38.3219 104.887 39.7832 107.046 41.471 109.024C41.9888 109.827 42.7632 110.433 43.6695 110.744C44.9473 110.818 46.2284 110.672 47.4563 110.312C47.482 110.309 47.5075 110.305 47.5327 110.299L48.2263 110.182C53.4345 109.278 58.6075 108.201 63.7451 106.951L64.4258 106.786C65.665 106.481 66.9029 106.169 68.1397 105.85C68.503 105.8 68.8663 105.753 69.2296 105.704L69.0215 105.037" fill="#FFC217"/>
<path d="M92.8239 143C68.785 143 49.2972 141.459 49.2972 139.558C49.2972 138.689 53.3697 137.895 60.0898 137.29C60.4114 137.82 60.8578 138.264 61.3904 138.583C61.9231 138.902 62.5259 139.087 63.1466 139.122C63.3434 139.121 63.5399 139.105 63.7344 139.075H63.7661H63.7802H63.792H63.8026H63.8167H63.8284C65.6213 138.634 67.3027 137.828 68.7662 136.707C75.6556 136.345 83.9229 136.134 92.8133 136.134C116.852 136.134 136.065 137.675 136.065 139.576C136.065 141.476 116.861 143 92.8239 143Z" fill="#B5B5B5"/>
<path d="M141.738 68.6926C142.615 71.0084 143.72 73.9023 142.36 76.2439C140.949 78.6826 137.609 79.7779 135.369 81.2839C135.337 81.305 135.252 81.3518 135.216 81.3811C133.756 75.6697 132.085 70.0137 130.203 64.4132C132.32 64.2201 134.429 63.9322 136.552 63.903C137.035 63.8196 137.529 63.8364 138.005 63.9524C138.481 64.0684 138.928 64.281 139.317 64.577C140.433 65.7443 141.261 67.153 141.738 68.6926Z" fill="#176CF7"/>
<path d="M135.132 81.0482C134.959 80.3758 134.783 79.7037 134.603 79.032C134.783 79.7029 134.959 80.375 135.132 81.0482Z" fill="#E5AB17"/>
<path d="M142.378 76.2062V76.1992V76.2062ZM142.384 76.1945L142.39 76.184L142.384 76.1945ZM142.391 76.1828C142.689 75.6487 142.879 75.0621 142.952 74.4556C142.879 75.0625 142.689 75.6495 142.391 76.184V76.1828ZM142.952 74.4229C142.953 74.4242 142.955 74.425 142.956 74.4252C142.958 74.4255 142.96 74.425 142.961 74.424L142.952 74.4229Z" fill="#80AA91"/>
<path d="M135.216 81.3791L135.133 81.0526C134.959 80.3801 134.783 79.708 134.605 79.0363C137.724 77.4823 141.56 74.6176 142.147 69.7917C142.765 71.2557 143.042 72.8399 142.958 74.4257C142.958 74.4257 142.958 74.4316 142.958 74.4351V74.4468C142.885 75.0533 142.695 75.6399 142.397 76.174L142.391 76.1845V76.1916V76.1986V76.2068V76.2161C140.98 78.6548 137.64 79.7501 135.401 81.2562C135.369 81.2772 135.283 81.3241 135.248 81.3533" fill="#183E7F"/>
<path d="M51.3771 84.353C50.1509 82.8446 46.571 84.5543 45.2448 84.9908C43.9786 85.3488 42.0776 85.7303 41.1641 86.794C40.9997 86.9448 40.8818 87.139 40.8244 87.3541C40.7669 87.5691 40.7723 87.796 40.8398 88.0081C40.9073 88.2202 41.0341 88.4088 41.2055 88.5517C41.3768 88.6946 41.5856 88.7859 41.8072 88.815C42.428 88.8166 43.0447 88.715 43.6318 88.5142C44.8451 88.2451 46.0537 87.9361 47.2423 87.5781C48.1017 87.3218 52.7679 86.0673 51.3759 84.3495" fill="#C78D00"/>
<path d="M47.467 89.944C46.162 90.3723 44.8065 90.6941 43.5333 91.2172C42.8279 91.5098 42.2753 91.8152 42.2071 92.639C42.0073 95.0964 45.9763 93.4909 47.0603 93.1644C48.4052 92.7619 49.7843 92.3453 51.0893 91.8292C51.8193 91.5413 52.7023 91.1271 52.8751 90.274C53.3971 87.6844 48.2971 89.6585 47.467 89.944Z" fill="#C78D00"/>
<path d="M74.6241 125.236C69.9708 119.901 66.9529 113.316 64.4275 106.784L63.7468 106.949C58.61 108.197 53.437 109.274 48.2281 110.18L47.5344 110.297C48.9164 115.019 50.6656 119.627 52.7661 124.079C54.6434 128.367 56.8775 132.493 59.4451 136.411C60.5408 137.951 61.5965 139.402 63.7339 139.075C66.4262 138.659 68.7469 136.549 71.0536 135.233C72.8571 134.201 75.4365 133.031 76.5369 131.17C77.9112 128.844 76.0666 126.899 74.6229 125.236" fill="#176CF7"/>
<path d="M63.1447 139.114C62.524 139.079 61.9212 138.894 61.3886 138.575C60.856 138.256 60.4095 137.812 60.088 137.282C60.4321 137.922 60.9686 138.437 61.6223 138.757C62.276 139.078 63.0139 139.186 63.7326 139.067H63.7643H63.7326C63.5381 139.098 63.3416 139.113 63.1447 139.114ZM63.7655 139.062H63.7796H63.7655ZM63.7819 139.062H63.7937H63.7819ZM63.7984 139.062H63.809H63.7984Z" fill="#79A188"/>
<path d="M65.3291 109.06C65.0305 108.327 64.7393 107.592 64.4556 106.857C64.7401 107.591 65.0317 108.325 65.3303 109.06H65.3291ZM64.4532 106.851L64.4274 106.784L64.4532 106.851Z" fill="#80AA91"/>
<path d="M63.1448 139.114C62.5241 139.079 61.9213 138.894 61.3886 138.575C60.856 138.256 60.4095 137.812 60.0881 137.283C59.8694 137.002 59.6566 136.705 59.4427 136.404C56.875 132.485 54.641 128.36 52.7637 124.071C50.6626 119.621 48.9126 115.014 47.5297 110.293L48.2233 110.176C53.4315 109.272 58.6044 108.195 63.7421 106.945L64.4228 106.78L64.4486 106.847V106.854C64.7332 107.588 65.0243 108.323 65.3222 109.057L64.6544 109.249C60.4396 110.377 54.1099 112.689 54.2733 116.365C54.4555 120.461 61.7152 132.099 65.4139 137.78L65.8253 138.415C65.1899 138.715 64.5181 138.93 63.8267 139.057H63.815H63.8008H63.7903H63.7785H63.7644H63.7327C63.5382 139.087 63.3417 139.103 63.1448 139.104" fill="#183E7F"/>
<path d="M135.825 115.178H135.659C134.995 115.154 134.334 115.07 133.685 114.928C132.35 114.649 131.019 114.196 129.745 113.86C125.522 112.754 121.325 111.549 117.129 110.35C109.871 108.074 102.446 106.367 94.9199 105.244C91.4638 104.821 87.9845 104.613 84.5023 104.62C79.393 104.646 74.2909 105.008 69.2293 105.702C68.866 105.75 68.5027 105.796 68.1394 105.847C66.9026 106.171 65.6706 106.482 64.4255 106.783L63.7448 106.948C58.6079 108.196 53.435 109.273 48.2261 110.179L47.5324 110.296C47.5072 110.302 47.4817 110.306 47.456 110.309C46.4474 110.558 45.42 110.724 44.384 110.806C44.1441 110.808 43.9046 110.786 43.6692 110.739C42.7629 110.428 41.9884 109.822 41.4707 109.019L41.4519 108.998L41.4707 109.019C41.9884 109.822 42.7629 110.428 43.6692 110.739C43.9046 110.786 44.1441 110.808 44.384 110.806C45.42 110.724 46.4474 110.558 47.456 110.309C47.4817 110.306 47.5072 110.302 47.5324 110.296L48.2261 110.179C53.4342 109.275 58.6072 108.198 63.7448 106.948L64.4255 106.783C65.6647 106.478 66.9026 106.166 68.1394 105.847C68.5027 105.796 68.866 105.75 69.2293 105.702L69.0224 105.035C68.2794 102.549 67.5438 100.061 66.8156 97.5712C67.5422 100.061 68.2778 102.549 69.0224 105.035L69.2293 105.702C74.2909 105.008 79.393 104.646 84.5023 104.62C87.9845 104.613 91.4638 104.821 94.9199 105.244C102.446 106.367 109.871 108.074 117.129 110.35C121.325 111.555 125.522 112.76 129.745 113.86C131.019 114.196 132.35 114.649 133.685 114.928L133.611 114.148C132.967 108.448 131.984 102.79 130.665 97.2061C131.984 102.79 132.967 108.448 133.611 114.148L133.685 114.928C134.334 115.07 134.995 115.154 135.659 115.178H135.825C136.859 115.216 137.869 114.858 138.646 114.177C139.226 113.546 139.667 112.802 139.945 111.992C140.222 111.182 140.328 110.324 140.257 109.472C140.329 110.324 140.224 111.181 139.949 111.991C139.673 112.8 139.233 113.545 138.656 114.177C137.878 114.858 136.869 115.216 135.834 115.178H135.825ZM41.4483 108.996L41.4342 108.979L41.4483 108.996ZM41.4295 108.972L41.4166 108.957L41.4295 108.972ZM41.4107 108.95L41.4001 108.937L41.4107 108.95ZM139.931 105.807L139.857 105.252L139.931 105.807Z" fill="#80AA91"/>
<path d="M135.826 115.178H135.66C134.996 115.154 134.335 115.07 133.686 114.928L133.612 114.148C132.968 108.448 131.984 102.79 130.666 97.2061C133.548 97.9576 136.372 98.9158 139.116 100.073C139.382 101.796 139.629 103.523 139.857 105.254L139.931 105.808C140.117 107.022 140.225 108.246 140.253 109.473C140.325 110.325 140.22 111.183 139.944 111.992C139.669 112.802 139.228 113.546 138.651 114.179C137.872 114.86 136.861 115.217 135.826 115.178Z" fill="#E5AB17"/>
<path d="M133.686 114.927C132.351 114.648 131.02 114.195 129.746 113.859C125.524 112.754 121.326 111.548 117.13 110.349C109.872 108.073 102.447 106.366 94.921 105.243C91.4649 104.82 87.9856 104.612 84.5034 104.62C79.3941 104.646 74.292 105.007 69.2304 105.701L69.0223 105.034C68.28 102.548 67.5445 100.06 66.8156 97.5703C78.9257 95.4159 91.1949 94.2678 103.496 94.1381C112.647 94.0036 121.777 95.0359 130.665 97.2099C131.984 102.794 132.967 108.451 133.611 114.152L133.685 114.931" fill="#183E7F"/>
<path d="M44.3841 110.812C44.1442 110.814 43.9047 110.791 43.6693 110.745C42.763 110.434 41.9885 109.828 41.4708 109.025L41.452 109.004L41.4379 108.988V108.982L41.425 108.967L41.4191 108.96L41.4085 108.947C40.0793 107.382 38.8908 105.704 37.8568 103.932C44.0702 102.252 54.5183 99.6635 66.8111 97.5676C67.5376 100.058 68.2732 102.546 69.0178 105.031L69.2259 105.698C68.8626 105.746 68.4993 105.793 68.136 105.844C66.8992 106.169 65.6613 106.481 64.4221 106.781L63.7426 106.946C58.6057 108.194 53.4328 109.271 48.2238 110.177L47.5302 110.294C47.505 110.299 47.4795 110.304 47.4538 110.306C46.4452 110.556 45.4177 110.722 44.3817 110.804" fill="#E5AB17"/>
</svg>
