<svg width="16" height="17" viewBox="0 0 16 17" fill="none" xmlns="http://www.w3.org/2000/svg">
<path d="M7.1412 0.943388L5.18864 5.08297L0.820642 5.74939C0.640684 5.78418 0.473536 5.86721 0.337016 5.98961C0.200495 6.11201 0.0997216 6.26919 0.0454378 6.4444C-0.00884605 6.61962 -0.014605 6.80629 0.028775 6.98452C0.0721551 7.16275 0.163048 7.32585 0.291763 7.45645L3.45204 10.6765L2.70421 15.2253C2.66766 15.4038 2.6823 15.5891 2.74642 15.7597C2.81055 15.9303 2.92155 16.0792 3.06662 16.1894C3.2117 16.2995 3.38493 16.3664 3.56634 16.3822C3.74775 16.3981 3.92994 16.3623 4.09189 16.279L8 14.1306L11.9081 16.279C12.0701 16.3619 12.2522 16.3973 12.4334 16.3813C12.6146 16.3653 12.7876 16.2984 12.9326 16.1883C13.0775 16.0783 13.1885 15.9295 13.2528 15.7592C13.317 15.5888 13.3319 15.4038 13.2958 15.2253L12.548 10.6765L15.7082 7.45645C15.837 7.32585 15.9278 7.16275 15.9712 6.98452C16.0146 6.80629 16.0088 6.61962 15.9546 6.4444C15.9003 6.26919 15.7995 6.11201 15.663 5.98961C15.5265 5.86721 15.3593 5.78418 15.1794 5.74939L10.8114 5.08297L8.8578 0.943388C8.78384 0.777404 8.66342 0.63642 8.5111 0.537483C8.35878 0.438547 8.18109 0.385895 7.9995 0.385895C7.81791 0.385895 7.64022 0.438547 7.4879 0.537483C7.33558 0.63642 7.21515 0.777404 7.1412 0.943388Z" fill="#FFC217"/>
</svg>
