<svg width="19" height="14" viewBox="0 0 19 14" fill="none" xmlns="http://www.w3.org/2000/svg">
<rect width="19" height="14" fill="#E5E5E5"/>
<g clip-path="url(#clip0_0_1)">
<mask id="path-1-outside-1_0_1" maskUnits="userSpaceOnUse" x="-1" y="-0.206055" width="21" height="15" fill="black">
<rect fill="white" x="-1" y="-0.206055" width="21" height="15"/>
<path fill-rule="evenodd" clip-rule="evenodd" d="M1.63601 0.822404C1.35491 0.864255 0.871918 1.0982 0.645033 1.30238C0.428262 1.49749 0.216994 1.81698 0.0944795 2.13505L0 2.38025V12.0528L0.0944795 12.298C0.217106 12.6164 0.428894 12.9365 0.643025 13.1273C0.910252 13.3654 1.35815 13.5708 1.71037 13.6167C1.90851 13.6425 4.57718 13.6518 9.7045 13.6445L17.4012 13.6335L17.6429 13.5454C17.9444 13.4353 18.3424 13.1707 18.518 12.9633C18.6879 12.7627 18.8416 12.4864 18.9304 12.2222C18.997 12.0242 19 11.8057 19 7.21652C19 2.62729 18.997 2.40885 18.9304 2.21088C18.7161 1.57291 18.2721 1.11808 17.6369 0.885708L17.4012 0.799521L9.63014 0.794365C5.30182 0.791467 1.76027 0.803887 1.63601 0.822404ZM17.473 1.68627C17.9212 1.85597 18.19 2.2708 18.2271 2.84991L18.2488 3.18943H0.751931L0.770857 2.86011C0.798521 2.37818 0.959705 2.04656 1.27196 1.8291C1.60284 1.59865 1.01485 1.61424 9.48929 1.61134C17.2571 1.6087 17.2685 1.60882 17.473 1.68627ZM18.2006 5.59816H0.799413V4.01743H18.2006V5.59816ZM18.2192 11.9022L18.1207 12.1148C18.0008 12.3738 17.7914 12.5926 17.547 12.7143L17.364 12.8055H1.63601L1.45296 12.7143C1.2086 12.5926 0.999229 12.3738 0.87928 12.1148L0.780822 11.9022L0.759926 6.42616H18.2405L18.2192 11.9022ZM14.3981 8.04591C14.019 8.14151 13.6824 8.43665 13.5529 8.78694C13.4813 8.98069 13.4751 9.06262 13.4855 9.67971C13.4962 10.3098 13.5036 10.3726 13.5872 10.5444C13.7074 10.7918 13.9236 11.0037 14.1794 11.1251C14.3808 11.2207 14.4155 11.2248 15.0215 11.2248C15.5387 11.2248 15.6892 11.2122 15.8493 11.1558C16.1095 11.0639 16.4166 10.7778 16.5318 10.5199C16.6149 10.3339 16.6204 10.2781 16.6204 9.62525C16.6204 8.97237 16.6149 8.91659 16.5318 8.73063C16.422 8.48464 16.1123 8.18976 15.8688 8.09936C15.6628 8.02288 14.6373 7.98562 14.3981 8.04591ZM2.55994 8.87914C2.34466 8.9846 2.30841 9.3385 2.49473 9.51573L2.5901 9.60643L5.08761 9.6178C7.34809 9.62811 7.59617 9.62329 7.70158 9.56721C7.92828 9.44663 7.97461 9.12924 7.79249 8.9449L7.68381 8.83488L5.16186 8.83744C3.49552 8.8391 2.61278 8.85329 2.55994 8.87914ZM15.6679 8.89627C15.8132 8.99928 15.8581 9.17143 15.8581 9.62525C15.8581 10.3576 15.8003 10.4156 15.0708 10.4156C14.2918 10.4156 14.2593 10.3839 14.2593 9.62525C14.2593 9.09458 14.2959 8.95897 14.4608 8.87798C14.5034 8.85705 14.7729 8.83884 15.0597 8.83744C15.4846 8.83537 15.5973 8.84625 15.6679 8.89627ZM2.59586 10.4707C2.47197 10.5252 2.36106 10.6948 2.36106 10.8296C2.36106 10.9684 2.47323 11.1348 2.604 11.1901C2.78988 11.2687 7.47016 11.2697 7.65581 11.1911C7.81573 11.1235 7.90117 10.9976 7.90117 10.8296C7.90117 10.6616 7.81573 10.5357 7.65581 10.4681C7.47302 10.3908 2.77188 10.3932 2.59586 10.4707Z"/>
</mask>
<path fill-rule="evenodd" clip-rule="evenodd" d="M1.63601 0.822404C1.35491 0.864255 0.871918 1.0982 0.645033 1.30238C0.428262 1.49749 0.216994 1.81698 0.0944795 2.13505L0 2.38025V12.0528L0.0944795 12.298C0.217106 12.6164 0.428894 12.9365 0.643025 13.1273C0.910252 13.3654 1.35815 13.5708 1.71037 13.6167C1.90851 13.6425 4.57718 13.6518 9.7045 13.6445L17.4012 13.6335L17.6429 13.5454C17.9444 13.4353 18.3424 13.1707 18.518 12.9633C18.6879 12.7627 18.8416 12.4864 18.9304 12.2222C18.997 12.0242 19 11.8057 19 7.21652C19 2.62729 18.997 2.40885 18.9304 2.21088C18.7161 1.57291 18.2721 1.11808 17.6369 0.885708L17.4012 0.799521L9.63014 0.794365C5.30182 0.791467 1.76027 0.803887 1.63601 0.822404ZM17.473 1.68627C17.9212 1.85597 18.19 2.2708 18.2271 2.84991L18.2488 3.18943H0.751931L0.770857 2.86011C0.798521 2.37818 0.959705 2.04656 1.27196 1.8291C1.60284 1.59865 1.01485 1.61424 9.48929 1.61134C17.2571 1.6087 17.2685 1.60882 17.473 1.68627ZM18.2006 5.59816H0.799413V4.01743H18.2006V5.59816ZM18.2192 11.9022L18.1207 12.1148C18.0008 12.3738 17.7914 12.5926 17.547 12.7143L17.364 12.8055H1.63601L1.45296 12.7143C1.2086 12.5926 0.999229 12.3738 0.87928 12.1148L0.780822 11.9022L0.759926 6.42616H18.2405L18.2192 11.9022ZM14.3981 8.04591C14.019 8.14151 13.6824 8.43665 13.5529 8.78694C13.4813 8.98069 13.4751 9.06262 13.4855 9.67971C13.4962 10.3098 13.5036 10.3726 13.5872 10.5444C13.7074 10.7918 13.9236 11.0037 14.1794 11.1251C14.3808 11.2207 14.4155 11.2248 15.0215 11.2248C15.5387 11.2248 15.6892 11.2122 15.8493 11.1558C16.1095 11.0639 16.4166 10.7778 16.5318 10.5199C16.6149 10.3339 16.6204 10.2781 16.6204 9.62525C16.6204 8.97237 16.6149 8.91659 16.5318 8.73063C16.422 8.48464 16.1123 8.18976 15.8688 8.09936C15.6628 8.02288 14.6373 7.98562 14.3981 8.04591ZM2.55994 8.87914C2.34466 8.9846 2.30841 9.3385 2.49473 9.51573L2.5901 9.60643L5.08761 9.6178C7.34809 9.62811 7.59617 9.62329 7.70158 9.56721C7.92828 9.44663 7.97461 9.12924 7.79249 8.9449L7.68381 8.83488L5.16186 8.83744C3.49552 8.8391 2.61278 8.85329 2.55994 8.87914ZM15.6679 8.89627C15.8132 8.99928 15.8581 9.17143 15.8581 9.62525C15.8581 10.3576 15.8003 10.4156 15.0708 10.4156C14.2918 10.4156 14.2593 10.3839 14.2593 9.62525C14.2593 9.09458 14.2959 8.95897 14.4608 8.87798C14.5034 8.85705 14.7729 8.83884 15.0597 8.83744C15.4846 8.83537 15.5973 8.84625 15.6679 8.89627ZM2.59586 10.4707C2.47197 10.5252 2.36106 10.6948 2.36106 10.8296C2.36106 10.9684 2.47323 11.1348 2.604 11.1901C2.78988 11.2687 7.47016 11.2697 7.65581 11.1911C7.81573 11.1235 7.90117 10.9976 7.90117 10.8296C7.90117 10.6616 7.81573 10.5357 7.65581 10.4681C7.47302 10.3908 2.77188 10.3932 2.59586 10.4707Z" fill="#0053DC"/>
<path fill-rule="evenodd" clip-rule="evenodd" d="M1.63601 0.822404C1.35491 0.864255 0.871918 1.0982 0.645033 1.30238C0.428262 1.49749 0.216994 1.81698 0.0944795 2.13505L0 2.38025V12.0528L0.0944795 12.298C0.217106 12.6164 0.428894 12.9365 0.643025 13.1273C0.910252 13.3654 1.35815 13.5708 1.71037 13.6167C1.90851 13.6425 4.57718 13.6518 9.7045 13.6445L17.4012 13.6335L17.6429 13.5454C17.9444 13.4353 18.3424 13.1707 18.518 12.9633C18.6879 12.7627 18.8416 12.4864 18.9304 12.2222C18.997 12.0242 19 11.8057 19 7.21652C19 2.62729 18.997 2.40885 18.9304 2.21088C18.7161 1.57291 18.2721 1.11808 17.6369 0.885708L17.4012 0.799521L9.63014 0.794365C5.30182 0.791467 1.76027 0.803887 1.63601 0.822404ZM17.473 1.68627C17.9212 1.85597 18.19 2.2708 18.2271 2.84991L18.2488 3.18943H0.751931L0.770857 2.86011C0.798521 2.37818 0.959705 2.04656 1.27196 1.8291C1.60284 1.59865 1.01485 1.61424 9.48929 1.61134C17.2571 1.6087 17.2685 1.60882 17.473 1.68627ZM18.2006 5.59816H0.799413V4.01743H18.2006V5.59816ZM18.2192 11.9022L18.1207 12.1148C18.0008 12.3738 17.7914 12.5926 17.547 12.7143L17.364 12.8055H1.63601L1.45296 12.7143C1.2086 12.5926 0.999229 12.3738 0.87928 12.1148L0.780822 11.9022L0.759926 6.42616H18.2405L18.2192 11.9022ZM14.3981 8.04591C14.019 8.14151 13.6824 8.43665 13.5529 8.78694C13.4813 8.98069 13.4751 9.06262 13.4855 9.67971C13.4962 10.3098 13.5036 10.3726 13.5872 10.5444C13.7074 10.7918 13.9236 11.0037 14.1794 11.1251C14.3808 11.2207 14.4155 11.2248 15.0215 11.2248C15.5387 11.2248 15.6892 11.2122 15.8493 11.1558C16.1095 11.0639 16.4166 10.7778 16.5318 10.5199C16.6149 10.3339 16.6204 10.2781 16.6204 9.62525C16.6204 8.97237 16.6149 8.91659 16.5318 8.73063C16.422 8.48464 16.1123 8.18976 15.8688 8.09936C15.6628 8.02288 14.6373 7.98562 14.3981 8.04591ZM2.55994 8.87914C2.34466 8.9846 2.30841 9.3385 2.49473 9.51573L2.5901 9.60643L5.08761 9.6178C7.34809 9.62811 7.59617 9.62329 7.70158 9.56721C7.92828 9.44663 7.97461 9.12924 7.79249 8.9449L7.68381 8.83488L5.16186 8.83744C3.49552 8.8391 2.61278 8.85329 2.55994 8.87914ZM15.6679 8.89627C15.8132 8.99928 15.8581 9.17143 15.8581 9.62525C15.8581 10.3576 15.8003 10.4156 15.0708 10.4156C14.2918 10.4156 14.2593 10.3839 14.2593 9.62525C14.2593 9.09458 14.2959 8.95897 14.4608 8.87798C14.5034 8.85705 14.7729 8.83884 15.0597 8.83744C15.4846 8.83537 15.5973 8.84625 15.6679 8.89627ZM2.59586 10.4707C2.47197 10.5252 2.36106 10.6948 2.36106 10.8296C2.36106 10.9684 2.47323 11.1348 2.604 11.1901C2.78988 11.2687 7.47016 11.2697 7.65581 11.1911C7.81573 11.1235 7.90117 10.9976 7.90117 10.8296C7.90117 10.6616 7.81573 10.5357 7.65581 10.4681C7.47302 10.3908 2.77188 10.3932 2.59586 10.4707Z" stroke="#0053DC" stroke-width="0.4" mask="url(#path-1-outside-1_0_1)"/>
</g>
<defs>
<clipPath id="clip0_0_1">
<rect width="19" height="19" fill="white" transform="translate(0 -2)"/>
</clipPath>
</defs>
</svg>
