<svg width="20" height="20" viewBox="0 0 20 20" fill="none" xmlns="http://www.w3.org/2000/svg">
<g clip-path="url(#clip0_2155_2651)">
<path fill-rule="evenodd" clip-rule="evenodd" d="M8.84319 14.1961C5.43204 14.1961 2.66675 11.4309 2.66675 8.01971C2.66675 4.60855 5.43204 1.84326 8.84319 1.84326C12.2543 1.84326 15.0196 4.60855 15.0196 8.01971C15.0196 9.65068 14.3875 11.134 13.3548 12.238L16.4862 16.1523C16.7703 16.5074 16.7128 17.0257 16.3576 17.3098C16.0024 17.5939 15.4842 17.5363 15.2001 17.1812L12.08 13.2811C11.1388 13.8614 10.0301 14.1961 8.84319 14.1961ZM8.84319 12.5491C11.3447 12.5491 13.3726 10.5212 13.3726 8.01971C13.3726 5.51819 11.3447 3.49031 8.84319 3.49031C6.34168 3.49031 4.3138 5.51819 4.3138 8.01971C4.3138 10.5212 6.34168 12.5491 8.84319 12.5491Z" fill="#176CF7"/>
</g>
<defs>
<clipPath id="clip0_2155_2651">
<rect width="20" height="20" fill="white"/>
</clipPath>
</defs>
</svg>
