<svg width="176" height="176" viewBox="0 0 176 176" fill="none" xmlns="http://www.w3.org/2000/svg">
<circle cx="88" cy="88" r="88" fill="#F3F3F3"/>
<path d="M112.115 106.671L145.187 85.3177L126.298 56.8342L109.765 67.5112L92.8455 72.9645L93.2291 78.188L112.118 106.671" fill="#F5B880"/>
<path d="M121.76 64.0779L130.889 89.7004L134.663 89.9401L137.451 87.7424L121.76 64.0799" fill="#DA9B6C"/>
<path d="M129.442 90.9024L143.007 82.1394L145.183 85.421L131.618 94.1829L129.442 90.9024Z" fill="#DA9B6C"/>
<path d="M93.9857 77.9337L112.341 105.613L144.118 85.0943L126.076 57.8875L110.189 68.1478C110.132 68.1847 110.071 68.2138 110.006 68.2348L93.6626 73.5023L93.9877 77.9337M112.12 107.433C111.991 107.433 111.865 107.402 111.752 107.341C111.638 107.281 111.542 107.194 111.472 107.087L92.5836 78.604C92.5117 78.4955 92.4688 78.3707 92.459 78.2414L92.0753 73.0178C92.0627 72.8478 92.1084 72.6786 92.2046 72.5373C92.301 72.3959 92.4426 72.2903 92.6068 72.2376L109.428 66.8152L125.881 56.1933C125.966 56.1384 126.061 56.1004 126.161 56.0819C126.261 56.0633 126.363 56.0642 126.463 56.0847C126.562 56.1053 126.656 56.1448 126.74 56.2013C126.824 56.2578 126.896 56.3301 126.952 56.4141L145.841 84.8975C145.896 84.9815 145.934 85.0754 145.953 85.174C145.972 85.2726 145.97 85.3737 145.95 85.4719C145.928 85.5701 145.889 85.6632 145.831 85.746C145.775 85.8289 145.7 85.8997 145.615 85.9544L112.545 107.309C112.419 107.391 112.272 107.434 112.122 107.434" fill="#434244"/>
<path d="M140.309 91.4542L157.031 80.6564L135.063 47.5259L118.341 58.3226L140.309 91.4532" fill="#F7F7F7"/>
<path d="M140.306 91.7426L157.028 80.9447L149.912 70.2129L133.19 81.0097L140.306 91.7426Z" fill="#CFCECD"/>
<path d="M100.977 118.754L125.583 102.871C127.828 101.421 129.397 99.1505 129.946 96.5589C130.495 93.9672 129.978 91.2667 128.509 89.0512L117.582 72.5742L101.047 83.2512L84.1272 88.7045L84.511 93.928L100.977 118.758" fill="#F5B880"/>
<path d="M96.579 118.289L126.315 99.0895C128.076 97.9549 129.433 96.3046 130.195 94.3704C130.233 96.0641 129.833 97.7394 129.032 99.2383C128.232 100.737 127.058 102.01 125.621 102.937L102.075 118.141L96.5779 118.289" fill="#DA9B6C"/>
<path d="M101.032 119.583C100.904 119.583 100.777 119.552 100.664 119.491C100.551 119.431 100.455 119.344 100.384 119.238C100.272 119.068 100.233 118.862 100.275 118.664C100.317 118.466 100.437 118.292 100.608 118.182L125.214 102.298C126.243 101.638 127.129 100.783 127.821 99.7821C128.513 98.7815 128.997 97.6555 129.245 96.4692C129.499 95.2842 129.512 94.0612 129.284 92.871C129.056 91.6809 128.591 90.5471 127.916 89.5353C127.861 89.4516 127.822 89.3577 127.803 89.2593C127.785 89.1609 127.786 89.0598 127.806 88.9616C127.827 88.8635 127.867 88.7706 127.925 88.6878C127.982 88.605 128.055 88.5343 128.14 88.4795C128.225 88.4246 128.32 88.3867 128.42 88.368C128.52 88.3494 128.623 88.3504 128.722 88.3708C128.822 88.3913 128.916 88.4311 129 88.4875C129.084 88.544 129.156 88.6163 129.211 88.7003C129.998 89.8796 130.539 91.2009 130.805 92.5881C131.07 93.9753 131.055 95.4008 130.758 96.7819C130.469 98.1643 129.905 99.4765 129.099 100.643C128.292 101.809 127.26 102.805 126.061 103.575L101.455 119.458C101.329 119.54 101.182 119.583 101.032 119.583Z" fill="#434244"/>
<path d="M119.411 58.5445L140.533 90.3984L155.962 80.4368L134.839 48.5828L119.411 58.5445ZM140.314 92.2175C140.261 92.2175 140.208 92.2122 140.156 92.2016C139.955 92.1599 139.779 92.0414 139.667 91.8718L117.699 58.7413C117.587 58.572 117.547 58.3657 117.589 58.1677C117.631 57.9697 117.751 57.7963 117.922 57.6855L134.645 46.8876C134.729 46.8327 134.825 46.7948 134.925 46.7763C135.024 46.7576 135.127 46.7586 135.226 46.779C135.326 46.7995 135.42 46.8392 135.504 46.8957C135.588 46.9521 135.66 47.0244 135.715 47.1084L157.684 80.2389C157.739 80.3229 157.777 80.4167 157.796 80.5153C157.815 80.6137 157.814 80.715 157.793 80.8132C157.773 80.9113 157.733 81.0045 157.675 81.0873C157.618 81.1702 157.545 81.241 157.46 81.2959L140.738 92.0927C140.612 92.1741 140.465 92.2174 140.315 92.2175" fill="#434244"/>
<path d="M146.073 90.1129L164.477 78.2252L140.297 41.7632L121.893 53.6509L146.073 90.1129Z" fill="#FFCC06"/>
<path d="M146.075 90.3835L164.48 78.4958L157.66 68.2065L139.255 80.0942L146.075 90.3835Z" fill="#D6AA00"/>
<path d="M122.963 53.8694L146.297 89.057L163.405 78.0084L140.078 42.8209L122.963 53.8694ZM146.073 90.8771C146.02 90.8769 145.967 90.8716 145.915 90.861C145.815 90.8406 145.72 90.8009 145.637 90.7444C145.553 90.6878 145.481 90.6153 145.426 90.5314L121.245 54.0692C121.189 53.9853 121.151 53.8913 121.132 53.7928C121.114 53.6942 121.115 53.5929 121.136 53.4949C121.178 53.2969 121.297 53.1234 121.469 53.0124L139.874 41.1247C139.959 41.0697 140.054 41.0319 140.154 41.0133C140.254 40.9947 140.356 40.9956 140.456 41.0161C140.555 41.0366 140.649 41.0763 140.733 41.1328C140.817 41.1893 140.889 41.2616 140.944 41.3454L165.125 77.8076C165.237 77.9769 165.277 78.1832 165.235 78.3812C165.193 78.5792 165.073 78.7526 164.901 78.8634L146.497 90.7511C146.371 90.8324 146.224 90.8757 146.074 90.876" fill="#434244"/>
<path d="M121.623 107.189L91.0678 87.4597C89.6768 86.5602 88.7044 85.1525 88.3642 83.5461C88.024 81.9396 88.3439 80.2655 89.2537 78.8916C90.1653 77.5189 91.5917 76.5593 93.2197 76.2237C94.8478 75.8881 96.5442 76.2037 97.9366 77.1014L128.491 96.831C129.882 97.7305 130.855 99.1381 131.195 100.745C131.535 102.351 131.215 104.025 130.305 105.399C129.394 106.772 127.968 107.731 126.34 108.066C124.712 108.402 123.016 108.087 121.624 107.189" fill="#CA8552"/>
<path d="M128.499 96.8787L125.648 95.0377C126.925 95.9807 127.791 97.3685 128.069 98.9189C128.347 100.469 128.015 102.066 127.143 103.384C126.231 104.757 124.805 105.716 123.177 106.052C121.549 106.388 119.852 106.072 118.46 105.174L90.7571 87.2856C90.8582 87.3616 90.9655 87.4366 91.0749 87.5064L121.63 107.236C123.022 108.133 124.718 108.449 126.346 108.113C127.974 107.778 129.4 106.818 130.312 105.446C131.221 104.072 131.541 102.398 131.201 100.791C130.861 99.1848 129.889 97.7772 128.497 96.8778" fill="#A6663E"/>
<path d="M84.9026 98.4019L116.5 118.805C117.892 119.702 119.589 120.018 121.217 119.682C122.845 119.347 124.271 118.387 125.183 117.015C126.092 115.641 126.412 113.967 126.072 112.361C125.732 110.755 124.76 109.347 123.369 108.447L87.3171 85.1667L84.9026 98.4019Z" fill="#CA8552"/>
<path d="M86.8919 86.5603L81.3433 78.1931C80.4335 76.8191 80.1136 75.1451 80.4538 73.5386C80.7938 71.932 81.7662 70.5244 83.1574 69.625L93.6099 62.876C94.6311 62.217 95.8247 61.8661 97.0449 61.866C97.7335 61.8657 98.4177 61.9773 99.0695 62.1966L110.205 65.9408L108.91 66.7769L92.0883 72.1993C91.9242 72.252 91.7826 72.3574 91.6862 72.4988C91.5899 72.6403 91.5443 72.8095 91.5568 72.9795L91.81 76.4278C90.7001 76.9095 89.7563 77.6995 89.0938 78.7015C88.2985 79.9019 87.9499 81.3376 88.1077 82.7634C88.2657 84.1893 88.92 85.5166 89.9594 86.5194L89.8469 86.5553L87.2047 84.8491L86.893 86.5603" fill="#DA9B6C"/>
<path d="M104.124 80.9773L97.8474 76.9275C96.829 76.2675 95.6369 75.9161 94.4186 75.9166C94.0768 75.9165 93.7355 75.9438 93.3981 75.9984L93.2129 73.4791L109.556 68.2115C109.621 68.1907 109.682 68.1614 109.739 68.1247L111.775 66.8101L114.906 74.0116L104.124 80.9773Z" fill="#D36C38"/>
<path d="M91.8594 76.426L91.6063 72.9776C91.5937 72.8077 91.6394 72.6384 91.7358 72.497C91.832 72.3556 91.9736 72.2501 92.1378 72.1974L108.959 66.7751L110.254 65.939L111.577 66.3834L111.755 66.7931L109.719 68.1077C109.662 68.1445 109.601 68.1737 109.536 68.1945L93.1917 73.4622L93.3769 75.9814C92.8538 76.0659 92.3437 76.2154 91.8583 76.426" fill="#392920"/>
<path d="M90.5344 87.0267L89.9219 86.627L90.0342 86.5911C90.1931 86.744 90.3599 86.8884 90.5344 87.0237M110.255 84.9927L104.124 81.0339L114.913 74.0681L117.32 79.6034C115.489 81.9852 113.052 83.8463 110.256 84.9978" fill="#D36C38"/>
<path d="M105.634 96.858L90.4887 87.0782C90.3144 86.9431 90.1474 86.799 89.9885 86.6467C88.9493 85.6439 88.2948 84.3164 88.137 82.8907C87.9792 81.4648 88.3276 80.0292 89.123 78.8287C89.7856 77.8268 90.7292 77.0367 91.8391 76.5551C92.3243 76.3445 92.8346 76.195 93.3577 76.1105C93.6949 76.0558 94.0362 76.0284 94.3782 76.0286C95.5965 76.0282 96.7885 76.3795 97.8069 77.0396L104.083 81.0894L110.214 85.0483C109.222 85.4079 108.174 85.5943 107.117 85.5987C102.77 85.5987 99.3487 82.3391 97.3098 79.7388L104.991 91.3337C105.527 92.1412 105.864 93.0614 105.975 94.0205C106.086 94.9797 105.967 95.9511 105.629 96.8569" fill="#AD4F27"/>
<path d="M99.7224 100.975C98.6799 100.976 97.6534 100.722 96.7359 100.233C95.8185 99.7448 95.0391 99.0381 94.4683 98.1773L86.8918 86.7522L87.2037 85.041L89.8459 86.7472L90.4584 87.1468L105.604 96.9267C105.141 98.1766 104.28 99.2448 103.15 99.9715C102.131 100.628 100.94 100.977 99.7224 100.975Z" fill="#AD4F27"/>
<path d="M92.2241 133.133L64.4755 115.215C63.0845 114.315 62.1121 112.907 61.7719 111.301C61.4317 109.695 61.7516 108.021 62.6614 106.647C63.573 105.274 64.9993 104.315 66.627 103.979C68.2549 103.643 69.9511 103.959 71.3432 104.856L99.0949 122.776C100.486 123.675 101.458 125.083 101.798 126.689C102.138 128.295 101.818 129.969 100.909 131.343C99.9974 132.716 98.571 133.675 96.9429 134.011C95.3149 134.346 93.6184 134.031 92.2261 133.133" fill="#CA8552"/>
<path d="M99.1088 122.775L96.2569 120.934C97.5358 121.876 98.4024 123.264 98.6802 124.815C98.958 126.366 98.6262 127.962 97.7522 129.28C96.8407 130.653 95.4144 131.612 93.7866 131.947C92.1587 132.283 90.4626 131.968 89.0704 131.07L64.1665 114.992C64.2678 115.068 64.3751 115.143 64.4844 115.213L92.2349 133.131C93.6273 134.029 95.3237 134.345 96.9518 134.009C98.5798 133.673 100.006 132.714 100.918 131.341C101.827 129.967 102.147 128.293 101.807 126.687C101.467 125.081 100.495 123.673 99.1037 122.774" fill="#A6663E"/>
<path d="M125.052 108.962C123.686 108.962 122.348 108.569 121.205 107.829C121.121 107.774 121.047 107.703 120.99 107.62C120.933 107.538 120.893 107.445 120.872 107.347C120.851 107.248 120.85 107.147 120.869 107.049C120.888 106.95 120.926 106.857 120.982 106.773C121.094 106.604 121.27 106.486 121.471 106.444C121.671 106.403 121.88 106.442 122.052 106.552C123.273 107.338 124.76 107.615 126.187 107.321C127.614 107.027 128.865 106.186 129.665 104.984C130.461 103.779 130.741 102.312 130.443 100.904C130.145 99.4956 129.293 98.2617 128.074 97.4724L97.5196 77.743C96.2988 76.9565 94.8118 76.68 93.3847 76.9742C91.9576 77.2685 90.7071 78.1093 89.9076 79.3124C89.8521 79.3962 89.7804 79.4685 89.6966 79.525C89.6128 79.5815 89.5184 79.6212 89.4191 79.6416C89.3197 79.6621 89.2171 79.6631 89.1173 79.6445C89.0176 79.6259 88.9225 79.588 88.8376 79.533C88.7527 79.4783 88.6794 79.4075 88.6221 79.3248C88.5649 79.2421 88.5247 79.149 88.5039 79.0509C88.4831 78.9528 88.4822 78.8517 88.5011 78.7532C88.52 78.6548 88.5583 78.561 88.6139 78.4772C89.6383 76.936 91.2406 75.8586 93.0689 75.4817C94.8974 75.1046 96.8027 75.4587 98.3669 76.4663L128.922 96.1957C130.483 97.2068 131.575 98.7879 131.957 100.592C132.339 102.396 131.98 104.276 130.96 105.82C130.317 106.787 129.441 107.581 128.41 108.129C127.379 108.678 126.225 108.964 125.053 108.962" fill="#434244"/>
<path d="M68.2595 104.611C67.3451 104.609 66.4447 104.833 65.6398 105.261C64.8351 105.689 64.1511 106.309 63.6503 107.064C63.2533 107.66 62.9797 108.327 62.8456 109.027C62.7115 109.728 62.7193 110.447 62.8688 111.145C63.0148 111.843 63.2997 112.506 63.7067 113.094C64.1139 113.683 64.6353 114.187 65.2407 114.575L92.9912 132.494C94.2119 133.28 95.6987 133.557 97.1258 133.263C98.5528 132.969 99.8033 132.128 100.603 130.925C101.4 129.721 101.68 128.253 101.382 126.845C101.084 125.437 100.232 124.203 99.0127 123.414L71.2642 105.495C70.3715 104.917 69.327 104.61 68.2595 104.611ZM95.9918 134.904C94.6249 134.905 93.2876 134.511 92.1449 133.771L64.3944 115.853C63.6188 115.355 62.9511 114.71 62.4299 113.955C61.9085 113.201 61.544 112.352 61.3573 111.458C61.1655 110.564 61.1551 109.642 61.3269 108.744C61.4989 107.847 61.8495 106.992 62.3585 106.229C63.3831 104.688 64.9853 103.611 66.8137 103.234C68.642 102.857 70.5473 103.211 72.1115 104.218L99.862 122.138C101.424 123.149 102.515 124.73 102.897 126.534C103.279 128.338 102.921 130.218 101.9 131.761C101.258 132.728 100.381 133.522 99.3502 134.071C98.3189 134.62 97.1654 134.906 95.9938 134.904" fill="#434244"/>
<path d="M63.1351 106.914L30.0647 85.5606L48.9531 57.0771L65.4888 67.754L82.4082 73.2074L82.0245 78.431L63.136 106.914" fill="#CA8552"/>
<path d="M41.8675 93.1748L58.3445 63.1341L49.6616 57.5278L30.7732 86.0113L41.8675 93.1748Z" fill="#A6663E"/>
<path d="M31.1347 85.3359L62.9113 105.855L81.2663 78.1754L81.5912 73.744L65.2478 68.4754C65.1832 68.4546 65.1215 68.4254 65.0646 68.3885L49.1757 58.1293L31.1347 85.3359ZM63.1351 107.674C62.9848 107.674 62.8378 107.631 62.7119 107.55L29.6404 86.1951C29.469 86.0843 29.3491 85.9108 29.3071 85.7128C29.2652 85.5148 29.3047 85.3085 29.4167 85.1392L48.3051 56.6558C48.3607 56.572 48.4325 56.4998 48.5165 56.4433C48.6003 56.387 48.6947 56.3474 48.7941 56.3271C48.8934 56.3065 48.9959 56.3054 49.0955 56.3239C49.1953 56.3424 49.2903 56.3801 49.3752 56.435L65.8248 67.057L82.6461 72.4793C82.8103 72.5321 82.9517 72.6377 83.048 72.7791C83.1442 72.9205 83.1899 73.0895 83.1776 73.2595L82.7939 78.483C82.7842 78.6123 82.7414 78.7372 82.6693 78.8457L63.7809 107.329C63.7253 107.413 63.6535 107.485 63.5697 107.541C63.4857 107.598 63.3913 107.637 63.292 107.658C63.2401 107.669 63.1871 107.674 63.134 107.674" fill="#434244"/>
<path d="M34.9432 91.6932L18.2212 80.8954L40.1892 47.7649L56.9112 58.5627L34.9432 91.6932Z" fill="#F7F7F7"/>
<path d="M34.9432 91.9833L18.2212 81.1854L25.338 70.4526L42.06 81.2494L34.9432 91.9823" fill="#CFCECD"/>
<path d="M73.6201 121.145L49.02 105.256C46.775 103.806 45.2056 101.536 44.6569 98.9443C44.1083 96.3526 44.6253 93.6521 46.0943 91.4365L57.0175 74.9597L73.5533 85.6366L90.4716 91.0899L90.0879 96.3135L73.6201 121.145Z" fill="#CA8552"/>
<path d="M78.0217 120.461L48.2859 101.26C46.5249 100.126 45.168 98.4762 44.4055 96.5422C44.368 98.236 44.7682 99.9113 45.5684 101.41C46.3687 102.909 47.5425 104.182 48.9793 105.109L72.5246 120.313L78.0217 120.461Z" fill="#DA9B6C"/>
<path d="M73.5694 121.907C73.4194 121.907 73.2726 121.863 73.1472 121.782L48.542 105.899C46.7282 104.734 45.3087 103.061 44.4656 101.094C43.6227 99.1269 43.3948 96.9565 43.8113 94.861C43.8311 94.7625 43.8704 94.6689 43.927 94.5854C43.9835 94.502 44.0562 94.4305 44.1408 94.3748C44.2255 94.3191 44.3204 94.2804 44.4203 94.2611C44.52 94.2416 44.6226 94.2417 44.7224 94.2616C44.8222 94.2812 44.9171 94.3199 45.0016 94.3757C45.0861 94.4316 45.1587 94.5033 45.2152 94.5868C45.2716 94.6703 45.3107 94.764 45.3304 94.8624C45.35 94.9609 45.3499 95.0622 45.3298 95.1606C44.9726 96.9587 45.1682 98.8212 45.8915 100.509C46.6148 102.197 47.8329 103.632 49.3894 104.632L73.9946 120.515C74.0795 120.57 74.1528 120.641 74.2101 120.724C74.2673 120.806 74.3075 120.899 74.3282 120.998C74.349 121.096 74.3501 121.197 74.3312 121.295C74.3123 121.394 74.2739 121.487 74.2183 121.571C74.148 121.677 74.0518 121.765 73.9387 121.825C73.8256 121.885 73.699 121.917 73.5703 121.917" fill="#434244"/>
<path d="M104.689 126.221L78.4113 109.254C77.0201 108.355 76.0477 106.947 75.7077 105.34C75.3675 103.734 75.6874 102.06 76.5972 100.686C77.5087 99.3136 78.935 98.3543 80.5628 98.0187C82.1906 97.683 83.8868 97.9985 85.279 98.8958L111.556 115.863C112.947 116.763 113.919 118.17 114.259 119.777C114.599 121.383 114.279 123.057 113.37 124.431C112.458 125.804 111.032 126.764 109.404 127.099C107.776 127.435 106.079 127.119 104.687 126.221" fill="#CA8552"/>
<path d="M111.568 115.864L108.717 114.023C109.996 114.965 110.863 116.353 111.14 117.904C111.418 119.455 111.086 121.052 110.212 122.369C109.301 123.742 107.875 124.701 106.247 125.037C104.619 125.373 102.923 125.057 101.53 124.16L78.1047 109.033C78.206 109.109 78.3132 109.184 78.4225 109.254L104.704 126.221C106.097 127.119 107.793 127.435 109.421 127.099C111.049 126.764 112.476 125.804 113.387 124.431C114.297 123.057 114.617 121.383 114.277 119.777C113.936 118.17 112.964 116.763 111.573 115.863" fill="#A6663E"/>
<path d="M123.372 108.481L120.521 106.64C121.798 107.583 122.662 108.97 122.94 110.519C123.218 112.069 122.888 113.664 122.016 114.982C121.105 116.355 119.678 117.314 118.05 117.65C116.422 117.985 114.726 117.67 113.333 116.772L84.9087 98.4182V98.4322L116.506 118.835C117.898 119.733 119.595 120.048 121.223 119.713C122.851 119.377 124.278 118.418 125.189 117.045C126.099 115.671 126.418 113.997 126.078 112.391C125.738 110.785 124.766 109.377 123.375 108.478" fill="#A6663E"/>
<path d="M119.926 120.59C118.559 120.59 117.221 120.195 116.079 119.452L84.4815 99.0507C84.3965 98.9959 84.3232 98.9249 84.2659 98.8421C84.2087 98.7593 84.1685 98.6661 84.1477 98.5679C84.1269 98.4699 84.1259 98.3686 84.1448 98.2701C84.1637 98.1715 84.2021 98.0776 84.2577 97.9938C84.3703 97.8245 84.5462 97.7062 84.7469 97.6649C84.9478 97.6234 85.1571 97.6623 85.3288 97.773L116.926 118.176C117.53 118.568 118.206 118.837 118.916 118.97C119.626 119.102 120.355 119.094 121.062 118.947C121.769 118.803 122.441 118.522 123.038 118.12C123.634 117.719 124.144 117.204 124.538 116.606C125.335 115.402 125.615 113.935 125.317 112.526C125.019 111.118 124.167 109.884 122.948 109.095L91.3503 88.6925C91.2653 88.6376 91.192 88.5669 91.1347 88.4842C91.0775 88.4014 91.0374 88.3084 91.0166 88.2102C90.9958 88.1122 90.9947 88.011 91.0136 87.9127C91.0325 87.8142 91.0709 87.7203 91.1265 87.6366C91.2388 87.4673 91.4146 87.349 91.6153 87.3077C91.816 87.2662 92.0251 87.3051 92.1966 87.4158L123.798 107.822C125.36 108.833 126.451 110.414 126.833 112.218C127.216 114.022 126.857 115.902 125.836 117.446C125.331 118.211 124.678 118.87 123.913 119.384C123.148 119.899 122.288 120.258 121.382 120.442C120.903 120.541 120.416 120.591 119.927 120.591" fill="#434244"/>
<path d="M108.118 127.998C106.75 127.998 105.413 127.603 104.271 126.861L76.7713 109.105C76.6863 109.05 76.613 108.979 76.5557 108.896C76.4985 108.813 76.4583 108.72 76.4375 108.622C76.4167 108.524 76.4157 108.423 76.4346 108.324C76.4535 108.226 76.4919 108.132 76.5476 108.048C76.6601 107.879 76.8359 107.761 77.0363 107.719C77.2369 107.678 77.4459 107.717 77.6176 107.827L105.121 125.582C105.725 125.973 106.401 126.243 107.111 126.376C107.82 126.508 108.55 126.5 109.257 126.353C109.964 126.209 110.636 125.928 111.232 125.526C111.829 125.124 112.339 124.61 112.733 124.012C113.53 122.808 113.81 121.34 113.512 119.932C113.214 118.524 112.362 117.29 111.143 116.501L91.085 103.55C90.9999 103.495 90.9267 103.424 90.8694 103.341C90.8121 103.258 90.772 103.165 90.7512 103.067C90.7305 102.969 90.7294 102.868 90.7483 102.77C90.7672 102.671 90.8055 102.577 90.8611 102.494C90.9737 102.324 91.1496 102.206 91.3505 102.165C91.5513 102.123 91.7605 102.162 91.9322 102.273L111.986 115.226C112.761 115.725 113.429 116.37 113.95 117.124C114.472 117.879 114.836 118.727 115.023 119.622C115.215 120.515 115.225 121.438 115.053 122.335C114.881 123.232 114.531 124.087 114.022 124.85C113.517 125.616 112.863 126.275 112.099 126.789C111.334 127.304 110.474 127.663 109.567 127.847C109.089 127.946 108.601 127.996 108.113 127.996" fill="#434244"/>
<path d="M19.291 80.6749L34.7193 90.6364L55.8419 58.7835L40.4137 48.822L19.291 80.6749ZM34.943 92.4565C34.7926 92.4565 34.6456 92.4131 34.5199 92.3316L17.7968 81.5349C17.7119 81.48 17.6388 81.4092 17.5816 81.3264C17.5245 81.2436 17.4844 81.1505 17.4638 81.0524C17.4219 80.8541 17.4616 80.6475 17.5741 80.4781L39.5421 47.3474C39.5978 47.2636 39.6696 47.1913 39.7534 47.1347C39.8374 47.0782 39.9317 47.0386 40.0312 47.0181C40.1307 46.9976 40.2333 46.9966 40.3332 47.0153C40.433 47.0339 40.5282 47.0717 40.6132 47.1266L57.3351 57.9235C57.5066 58.0343 57.6265 58.2078 57.6685 58.4058C57.7104 58.6038 57.671 58.8101 57.559 58.9794L35.591 92.1099C35.5355 92.194 35.4637 92.2663 35.3798 92.3229C35.2958 92.3795 35.2015 92.4191 35.102 92.4396C35.05 92.4504 34.9971 92.4557 34.944 92.4556" fill="#434244"/>
<path d="M60.5252 65.1091L79.2983 58.7976C80.2005 58.4948 81.1607 58.3988 82.1061 58.5166C83.0516 58.6345 83.9573 58.9633 84.7549 59.478L95.2074 66.2269C96.5982 67.1265 97.5705 68.5338 97.9105 70.1401C98.2507 71.7464 97.9309 73.4202 97.0215 74.794L83.8964 94.5874C82.9848 95.9602 81.5584 96.9197 79.9303 97.2553C78.3023 97.591 76.6058 97.2753 75.2135 96.3776C73.8223 95.478 72.8499 94.0704 72.5099 92.4639C72.1697 90.8575 72.4896 89.1834 73.3994 87.8096L83.1827 73.0539C83.1827 73.0539 74.1272 89.4967 58.3103 79.2843" fill="#CA8552"/>
<path d="M96.2359 76.6962C96.0856 76.6962 95.9384 76.6529 95.8127 76.5713C95.7277 76.5165 95.6545 76.4455 95.5973 76.3627C95.5399 76.2799 95.4998 76.1867 95.479 76.0885C95.4582 75.9905 95.4573 75.8892 95.4762 75.7907C95.4951 75.6921 95.5334 75.5982 95.589 75.5144L96.3888 74.3087C97.1853 73.1039 97.4651 71.6367 97.167 70.2286C96.8688 68.8206 96.0171 67.5867 94.7983 66.7974L84.3469 60.0474C83.6489 59.5932 82.8547 59.3029 82.0253 59.1991C81.1959 59.0951 80.3533 59.1803 79.5625 59.4481L61.2065 65.1422C61.1096 65.1722 61.0077 65.1832 60.9064 65.1744C60.8053 65.1655 60.7069 65.1371 60.6169 65.0907C60.5267 65.0443 60.4468 64.9808 60.3816 64.9039C60.3164 64.8271 60.2672 64.7383 60.2367 64.6426C60.2062 64.5471 60.195 64.4464 60.2039 64.3466C60.2128 64.2466 60.2416 64.1494 60.2885 64.0606C60.3355 63.9716 60.3999 63.8927 60.4779 63.8285C60.5558 63.7641 60.6459 63.7155 60.743 63.6856L79.0807 58.0056C80.0912 57.6647 81.1675 57.5569 82.2269 57.6902C83.2863 57.8236 84.3007 58.1945 85.1923 58.7748L95.6446 65.5238C97.2065 66.5349 98.2979 68.1159 98.68 69.9201C99.062 71.7242 98.7033 73.6043 97.6826 75.1478L96.8818 76.3535C96.8116 76.4598 96.7155 76.5472 96.6023 76.6075C96.4892 76.6679 96.3626 76.6994 96.2339 76.6992" fill="#434244"/>
<path d="M29.1787 90.352L10.7742 78.4644L34.9551 42.0022L53.3597 53.8898L29.1787 90.352Z" fill="#176CF7"/>
<path d="M11.8443 78.2474L28.9531 89.296L52.2867 54.1085L35.1779 43.06L11.8443 78.2474ZM29.1777 91.1161C29.0273 91.1161 28.8803 91.0726 28.7546 90.9912L10.3501 79.1035C10.2651 79.0488 10.1918 78.978 10.1346 78.8952C10.0773 78.8124 10.0371 78.7195 10.0163 78.6214C9.99557 78.5234 9.99459 78.4222 10.0135 78.3238C10.0323 78.2253 10.0707 78.1314 10.1263 78.0477L34.3073 41.5855C34.3628 41.5015 34.4346 41.4291 34.5184 41.3726C34.6024 41.316 34.6968 41.2763 34.7963 41.2559C34.8958 41.2354 34.9985 41.2344 35.0984 41.2531C35.1983 41.2718 35.2935 41.3097 35.3784 41.3648L53.7829 53.2525C53.8678 53.3072 53.941 53.3782 53.9982 53.4609C54.0553 53.5437 54.0953 53.6368 54.116 53.7349C54.1367 53.8329 54.1378 53.9339 54.1191 54.0324C54.1003 54.1307 54.0621 54.2245 54.0066 54.3083L29.8257 90.7704C29.7554 90.8768 29.6592 90.9639 29.5461 91.0243C29.433 91.0847 29.3063 91.1162 29.1777 91.1161Z" fill="#434244"/>
<path d="M57.9904 117.804L85.7409 99.886C87.132 98.9864 88.1044 97.5788 88.4445 95.9724C88.7847 94.3658 88.4648 92.6918 87.555 91.3179C86.6435 89.9452 85.2169 88.9856 83.589 88.65C81.9609 88.3143 80.2644 88.63 78.8721 89.5277L51.1216 107.447C49.7307 108.347 48.7585 109.754 48.4183 111.36C48.0783 112.967 48.3979 114.64 49.3074 116.014C50.219 117.387 51.6455 118.347 53.2735 118.682C54.9016 119.018 56.598 118.702 57.9904 117.804Z" fill="#F5B880"/>
<path d="M56.4344 115.458L84.185 97.5392C85.369 96.7735 86.2561 95.6354 86.7018 94.3095C87.1477 92.9837 87.1263 91.5481 86.641 90.2358C86.9875 90.5626 87.2952 90.9272 87.5581 91.3227C88.4679 92.6965 88.7879 94.3706 88.4477 95.9772C88.1075 97.5836 87.1352 98.9912 85.744 99.8908L57.9934 117.809C56.6012 118.707 54.9046 119.023 53.2767 118.687C51.6487 118.351 50.2221 117.392 49.3105 116.019C49.0486 115.623 48.8333 115.199 48.6687 114.755C49.6936 115.719 51.0184 116.312 52.4282 116.439C53.838 116.566 55.2498 116.219 56.4344 115.455" fill="#DA9B6C"/>
<path d="M82.2938 89.2827C81.2276 89.2828 80.1848 89.5912 79.2942 90.1698L51.5427 108.088C50.3239 108.877 49.4722 110.111 49.174 111.519C48.8759 112.927 49.1558 114.395 49.9523 115.599C50.7519 116.802 52.0024 117.643 53.4293 117.937C54.8563 118.231 56.3433 117.955 57.5641 117.169L85.3147 99.2493C85.92 98.8605 86.4414 98.3571 86.8486 97.7684C87.2557 97.1796 87.5406 96.5169 87.6867 95.8188C87.836 95.1214 87.8439 94.4017 87.7097 93.7013C87.5755 93.0008 87.302 92.3336 86.905 91.7381C86.5112 91.1406 86.0012 90.6262 85.4043 90.2247C84.8076 89.823 84.1362 89.5423 83.4286 89.3986C83.0553 89.3216 82.6751 89.2827 82.2938 89.2827ZM54.5655 119.579C53.3938 119.581 52.2401 119.295 51.2088 118.746C50.1776 118.197 49.3014 117.403 48.6595 116.435C48.1507 115.672 47.8002 114.818 47.6284 113.92C47.4565 113.023 47.4666 112.1 47.6582 111.207C47.8449 110.313 48.2095 109.464 48.7308 108.709C49.2521 107.955 49.9199 107.31 50.6953 106.811L78.4469 88.8931C80.0111 87.8856 81.9163 87.5314 83.7448 87.9084C85.5732 88.2854 87.1754 89.3628 88.1998 90.904C88.7089 91.6669 89.0595 92.5218 89.2313 93.4192C89.4032 94.3168 89.3929 95.239 89.2011 96.1326C89.0145 97.0269 88.65 97.876 88.1286 98.6304C87.6074 99.3848 86.9396 100.03 86.164 100.528L58.4135 118.447C57.2706 119.187 55.9334 119.581 54.5666 119.58" fill="#434244"/>
<path d="M49.05 108.641L72.7856 93.3073C74.1768 92.4079 75.1492 91.0003 75.4892 89.3937C75.8294 87.7872 75.5095 86.1132 74.5997 84.7392C73.6882 83.3668 72.2619 82.4075 70.6341 82.0719C69.0063 81.7362 67.3101 82.0518 65.9179 82.9492L42.1813 98.2832C40.7902 99.1828 39.8178 100.59 39.4776 102.197C39.1375 103.803 39.4575 105.477 40.3671 106.851C41.2788 108.224 42.7052 109.184 44.3333 109.519C45.9613 109.855 47.6578 109.539 49.05 108.641Z" fill="#F5B880"/>
<path d="M47.4951 106.298L71.2318 90.9644C72.4157 90.1986 73.3028 89.0604 73.7486 87.7346C74.1945 86.4087 74.173 84.9731 73.6877 83.6609C74.0345 83.9874 74.3422 84.3521 74.6049 84.7477C75.5147 86.1217 75.8346 87.7957 75.4944 89.4022C75.1542 91.0088 74.1818 92.4163 72.7908 93.3158L49.0552 108.65C47.6628 109.548 45.9664 109.863 44.3384 109.528C42.7103 109.192 41.2839 108.232 40.3723 106.86C40.1102 106.464 39.8949 106.04 39.7305 105.596C40.7553 106.56 42.0801 107.153 43.49 107.28C44.8996 107.407 46.3115 107.06 47.4962 106.295" fill="#DA9B6C"/>
<path d="M69.3407 82.7057C68.2738 82.7049 67.2301 83.0122 66.338 83.5897L42.6024 98.9248C41.997 99.3135 41.4757 99.817 41.0686 100.406C40.6614 100.995 40.3765 101.657 40.2305 102.355C40.081 103.053 40.0732 103.772 40.2074 104.473C40.3414 105.173 40.615 105.84 41.012 106.436C41.4061 107.033 41.9161 107.548 42.5128 107.95C43.1095 108.351 43.781 108.632 44.4885 108.777C45.1951 108.924 45.9245 108.932 46.6343 108.8C47.3442 108.668 48.0204 108.398 48.624 108.006L72.3595 92.6713C73.5784 91.8822 74.4303 90.6483 74.7285 89.2402C75.0266 87.8321 74.7466 86.3648 73.9498 85.1601C73.4488 84.4049 72.7649 83.785 71.9599 83.3565C71.1549 82.928 70.2543 82.7042 69.3396 82.7057H69.3407ZM45.6243 110.415C44.4526 110.417 43.2988 110.131 42.2675 109.582C41.2362 109.033 40.3601 108.239 39.7183 107.271C39.2092 106.508 38.8587 105.653 38.6869 104.756C38.515 103.858 38.5253 102.936 38.717 102.043C38.9036 101.148 39.2681 100.299 39.7894 99.5447C40.3107 98.7901 40.9785 98.1452 41.7541 97.6472L65.4897 82.313C67.0536 81.3054 68.9589 80.9512 70.7873 81.3278C72.6158 81.7047 74.2181 82.7819 75.2426 84.3229C76.2637 85.8664 76.6226 87.7465 76.2405 89.5508C75.8585 91.355 74.7667 92.9361 73.2048 93.947L49.4703 109.282C48.3274 110.022 46.9902 110.416 45.6233 110.415" fill="#434244"/>
<path d="M69.6071 125.397L93.3426 110.063C94.7334 109.164 95.7055 107.756 96.0457 106.15C96.3858 104.544 96.0661 102.87 95.1567 101.496C94.2451 100.123 92.8185 99.1638 91.1906 98.8282C89.5626 98.4926 87.8661 98.8082 86.4738 99.7059L62.7383 115.041C61.3474 115.941 60.3752 117.348 60.035 118.954C59.695 120.56 60.0146 122.234 60.9241 123.608C61.8357 124.981 63.2622 125.94 64.8902 126.276C66.5183 126.612 68.2147 126.296 69.6071 125.398" fill="#F5B880"/>
<path d="M68.0491 123.046L91.7857 107.712C92.9697 106.947 93.8568 105.808 94.3025 104.483C94.7484 103.157 94.727 101.721 94.2416 100.409C94.5883 100.735 94.8961 101.1 95.1588 101.496C96.0682 102.87 96.388 104.543 96.0478 106.15C95.7078 107.756 94.7355 109.163 93.3447 110.063L69.6091 125.398C68.2168 126.296 66.5203 126.611 64.8924 126.276C63.2643 125.94 61.8379 124.981 60.9262 123.608C60.664 123.212 60.4487 122.788 60.2844 122.344C61.3092 123.308 62.6341 123.901 64.0439 124.028C65.4536 124.155 66.8654 123.808 68.0502 123.043" fill="#DA9B6C"/>
<path d="M89.8957 99.4558C88.8296 99.4566 87.7868 99.7649 86.8961 100.343L63.1605 115.677C62.5551 116.066 62.0337 116.569 61.6265 117.158C61.2195 117.747 60.9346 118.409 60.7886 119.107C60.6391 119.805 60.6313 120.525 60.7654 121.225C60.8995 121.925 61.1731 122.593 61.5701 123.188C61.9639 123.786 62.4739 124.3 63.0706 124.702C63.6673 125.103 64.3389 125.384 65.0465 125.528C65.7532 125.675 66.4825 125.683 67.1923 125.551C67.9021 125.419 68.5783 125.149 69.1819 124.758L92.9175 109.423C93.5231 109.034 94.0447 108.531 94.4519 107.942C94.8589 107.353 95.1436 106.69 95.2894 105.992C95.4389 105.295 95.4467 104.575 95.3125 103.874C95.1785 103.174 94.905 102.507 94.5079 101.911C94.1139 101.314 93.6038 100.799 93.0071 100.398C92.4104 99.9959 91.7389 99.7149 91.0315 99.5707C90.6579 99.4941 90.2773 99.4556 89.8957 99.4558ZM66.1824 127.168C65.0106 127.17 63.8569 126.884 62.8256 126.335C61.7943 125.786 60.9182 124.992 60.2763 124.024C59.7674 123.261 59.4168 122.406 59.245 121.509C59.0731 120.612 59.0834 119.689 59.2751 118.796C59.4617 117.901 59.8263 117.052 60.3475 116.298C60.8689 115.543 61.5366 114.898 62.3122 114.4L86.0487 99.0663C87.6128 98.0586 89.5179 97.7043 91.3464 98.0811C93.1748 98.4579 94.7771 99.535 95.8016 101.076C96.3107 101.839 96.6613 102.694 96.8332 103.591C97.005 104.489 96.9948 105.411 96.8029 106.305C96.6162 107.199 96.2517 108.048 95.7305 108.802C95.2091 109.557 94.5414 110.202 93.7658 110.7L70.0293 126.034C68.8864 126.774 67.5491 127.168 66.1824 127.167" fill="#434244"/>
<path d="M81.417 132.811L100.158 120.757C101.549 119.858 102.521 118.45 102.861 116.844C103.201 115.237 102.882 113.563 101.972 112.189C101.06 110.816 99.6338 109.857 98.0057 109.521C96.3777 109.186 94.6812 109.501 93.2889 110.399L74.5473 122.454C73.1565 123.353 72.1842 124.76 71.8442 126.367C71.504 127.973 71.8238 129.647 72.7331 131.021C73.6448 132.393 75.0709 133.352 76.6988 133.688C78.3266 134.024 80.0227 133.708 81.415 132.811" fill="#F5B880"/>
<path d="M79.8569 130.461L98.5976 118.407C99.7816 117.642 100.669 116.504 101.114 115.178C101.56 113.852 101.539 112.416 101.054 111.104C101.4 111.431 101.708 111.795 101.971 112.191C102.88 113.565 103.2 115.239 102.86 116.845C102.52 118.452 101.548 119.859 100.157 120.759L81.4159 132.813C80.0237 133.71 78.3275 134.025 76.6997 133.69C75.0719 133.354 73.6456 132.395 72.7341 131.022C72.4719 130.627 72.2566 130.203 72.0923 129.759C73.1171 130.722 74.442 131.316 75.8516 131.443C77.2614 131.57 78.6733 131.223 79.8579 130.458" fill="#DA9B6C"/>
<path d="M96.7098 110.151C95.6436 110.151 94.6009 110.459 93.7103 111.038L74.9676 123.092C74.3622 123.481 73.841 123.984 73.4341 124.573C73.0271 125.161 72.7425 125.824 72.5967 126.522C72.4472 127.219 72.4394 127.939 72.5736 128.639C72.7077 129.34 72.9812 130.007 73.3782 130.603C73.7723 131.2 74.2823 131.715 74.879 132.116C75.4757 132.518 76.1472 132.799 76.8546 132.943C77.5614 133.091 78.2908 133.099 79.0007 132.967C79.7105 132.834 80.3867 132.564 80.99 132.172L99.7317 120.117C100.337 119.729 100.858 119.226 101.265 118.637C101.672 118.048 101.956 117.386 102.102 116.688C102.251 115.991 102.259 115.271 102.125 114.571C101.991 113.87 101.717 113.203 101.32 112.607C100.926 112.01 100.416 111.495 99.8193 111.094C99.2226 110.692 98.5511 110.411 97.8437 110.267C97.4708 110.19 97.0908 110.151 96.7098 110.151ZM77.9986 134.587C77.5097 134.586 77.0223 134.536 76.5438 134.438C75.6374 134.254 74.7771 133.894 74.0124 133.379C73.2479 132.865 72.5943 132.206 72.0895 131.441C71.5807 130.678 71.2301 129.823 71.0582 128.925C70.8864 128.028 70.8966 127.106 71.0883 126.212C71.275 125.318 71.6395 124.469 72.1608 123.714C72.6821 122.96 73.3498 122.315 74.1253 121.817L92.868 109.762C93.641 109.26 94.5073 108.915 95.4167 108.745C96.326 108.576 97.2604 108.586 98.1657 108.775C99.0719 108.959 99.9324 109.319 100.697 109.834C101.462 110.348 102.115 111.007 102.62 111.772C103.129 112.535 103.48 113.39 103.652 114.287C103.823 115.185 103.813 116.107 103.621 117.001C103.435 117.895 103.07 118.744 102.549 119.499C102.027 120.253 101.36 120.898 100.584 121.396L81.8426 133.451C80.7003 134.192 79.3629 134.588 77.9956 134.587" fill="#434244"/>
<path d="M29.1787 90.6245L10.7742 78.7368L17.5954 68.4475L36.001 80.3381L29.1797 90.6274" fill="#183E7F"/>
<path d="M114.73 64.8677L95.9573 58.5563C95.0553 58.2534 94.0951 58.157 93.1497 58.2748C92.2043 58.3925 91.2983 58.721 90.5008 59.2356L80.0483 65.9856C78.6575 66.8851 77.6852 68.2925 77.3451 69.8987C77.0049 71.505 77.3248 73.1789 78.2341 74.5527L91.3594 94.345C92.2709 95.7178 93.6973 96.6773 95.3254 97.0129C96.9534 97.3486 98.6499 97.0329 100.042 96.1352C101.433 95.2356 102.406 93.828 102.746 92.2216C103.086 90.6151 102.766 88.9411 101.856 87.5672L92.071 72.8115C92.071 72.8115 101.126 89.2543 116.943 79.041" fill="#F5B880"/>
<path d="M96.6186 97.908C96.1299 97.9076 95.6424 97.8578 95.1638 97.7591C94.2575 97.5749 93.3972 97.2153 92.6326 96.7008C91.868 96.1864 91.2144 95.5276 90.7095 94.7623L77.5844 74.9698C77.0755 74.2069 76.725 73.352 76.5531 72.4544C76.3812 71.5569 76.3915 70.6347 76.5832 69.7411C76.7698 68.8468 77.1343 67.9978 77.6555 67.2433C78.1769 66.4889 78.8447 65.8439 79.6203 65.3458L90.0728 58.5968C90.9673 58.0155 91.9851 57.6444 93.0477 57.5121C94.1104 57.3798 95.1897 57.4898 96.2025 57.8336L114.977 64.145C115.171 64.2103 115.331 64.3489 115.421 64.5304C115.512 64.7119 115.525 64.9214 115.459 65.113C115.427 65.2081 115.376 65.2958 115.309 65.3712C115.241 65.4466 115.16 65.5082 115.069 65.5524C114.977 65.5967 114.878 65.6227 114.777 65.6292C114.675 65.6355 114.574 65.622 114.477 65.5896L95.7045 59.2781C94.9138 59.0105 94.0714 58.9253 93.2422 59.0293C92.4129 59.1331 91.619 59.4233 90.9212 59.8775L80.4686 66.6264C79.2497 67.4156 78.3977 68.6495 78.0995 70.0576C77.8014 71.4656 78.0814 72.933 78.8782 74.1377L92.0033 93.9291C92.3971 94.5267 92.9071 95.0414 93.5038 95.4432C94.1005 95.845 94.7722 96.1259 95.4797 96.2697C96.1864 96.4171 96.9158 96.4249 97.6257 96.2925C98.3355 96.1602 99.0117 95.8903 99.6152 95.4984C100.834 94.7094 101.686 93.4754 101.984 92.0674C102.282 90.6593 102.002 89.192 101.206 87.9872L92.6867 75.1405C92.2124 74.5138 91.7785 73.8582 91.3878 73.1776C91.2923 73.0045 91.2684 72.8017 91.321 72.6116C91.3737 72.4215 91.4988 72.2588 91.6703 72.1577C91.8416 72.0569 92.0458 72.0253 92.2402 72.0694C92.4348 72.1134 92.6045 72.23 92.714 72.3944L93.8336 74.0827C95.4534 76.2804 98.8336 80.0335 103.686 81.2352C107.735 82.2342 112.053 81.2862 116.515 78.4042C116.6 78.3493 116.696 78.3114 116.795 78.2927C116.895 78.2742 116.998 78.2751 117.097 78.2957C117.197 78.316 117.291 78.3558 117.375 78.4122C117.459 78.4688 117.531 78.541 117.586 78.625C117.699 78.7943 117.738 79.0006 117.696 79.1986C117.654 79.3966 117.534 79.57 117.363 79.6809C112.52 82.8086 107.787 83.8285 103.297 82.7127C101.371 82.2198 99.5509 81.3865 97.9256 80.2533L102.499 87.1461C103.52 88.6897 103.879 90.5696 103.497 92.3739C103.115 94.1781 102.023 95.7591 100.461 96.7702C99.3192 97.5119 97.9819 97.9071 96.6145 97.9069" fill="#434244"/>
</svg>
