<svg width="24" height="24" viewBox="0 0 24 24" fill="none" xmlns="http://www.w3.org/2000/svg">
<path fill-rule="evenodd" clip-rule="evenodd" d="M10.8008 16C7.48707 16 4.80078 13.3137 4.80078 10C4.80078 6.68629 7.48707 4 10.8008 4C14.1145 4 16.8008 6.68629 16.8008 10C16.8008 11.5841 16.1869 13.0248 15.1841 14.0972L18.2263 17.8999C18.5023 18.2449 18.4464 18.7483 18.1013 19.0243C17.7563 19.3003 17.2529 19.2444 16.9769 18.8994L13.9459 15.1106C13.0314 15.6746 11.9541 16 10.8008 16ZM10.8023 14.3996C13.2324 14.3996 15.2023 12.4297 15.2023 9.99961C15.2023 7.56956 13.2324 5.59961 10.8023 5.59961C8.37229 5.59961 6.40234 7.56956 6.40234 9.99961C6.40234 12.4297 8.37229 14.3996 10.8023 14.3996Z" fill="black"/>
<mask id="mask0_3248_93330" style="mask-type:alpha" maskUnits="userSpaceOnUse" x="4" y="4" width="15" height="16">
<path fill-rule="evenodd" clip-rule="evenodd" d="M10.8008 16C7.48707 16 4.80078 13.3137 4.80078 10C4.80078 6.68629 7.48707 4 10.8008 4C14.1145 4 16.8008 6.68629 16.8008 10C16.8008 11.5841 16.1869 13.0248 15.1841 14.0972L18.2263 17.8999C18.5023 18.2449 18.4464 18.7483 18.1013 19.0243C17.7563 19.3003 17.2529 19.2444 16.9769 18.8994L13.9459 15.1106C13.0314 15.6746 11.9541 16 10.8008 16ZM10.8023 14.3996C13.2324 14.3996 15.2023 12.4297 15.2023 9.99961C15.2023 7.56956 13.2324 5.59961 10.8023 5.59961C8.37229 5.59961 6.40234 7.56956 6.40234 9.99961C6.40234 12.4297 8.37229 14.3996 10.8023 14.3996Z" fill="white"/>
</mask>
<g mask="url(#mask0_3248_93330)">
<rect width="24" height="24" fill="#176CF7"/>
<rect x="0.5" y="0.5" width="23" height="23" stroke="#176CF7"/>
</g>
</svg>
