<svg width="176" height="176" viewBox="0 0 176 176" fill="none" xmlns="http://www.w3.org/2000/svg">
<circle cx="88" cy="88" r="88" fill="#F3F3F3"/>
<path d="M68.6325 66.0813L56.3174 99.6118L34.0022 91.221L46.3178 57.6916L68.6325 66.0813Z" fill="#183E7F"/>
<path d="M60.255 103.025L59.5877 104.834C58.5883 107.542 54.5501 108.516 50.5664 107.011L33.5488 100.581C29.5666 99.0765 27.1481 95.6621 28.148 92.9554L28.8137 91.1461C29.1765 90.1641 30.6438 89.8089 32.0904 90.3556L58.293 100.255C59.7396 100.802 60.6173 102.042 60.255 103.025Z" fill="#FFC217"/>
<path d="M58.3199 106.527C56.573 107.868 53.5571 108.139 50.5702 107.011L33.5526 100.58C30.5658 99.4523 28.4591 97.2491 28.0128 95.0762L58.3199 106.527Z" fill="#D6AA00"/>
<path d="M73.6356 67.0513L74.3022 65.2274C75.3007 62.4955 72.8541 59.0673 68.8332 57.5594L51.6628 51.1354C47.6444 49.6327 43.5776 50.6281 42.5786 53.359L41.9125 55.1839C41.5504 56.1759 42.4347 57.4244 43.8979 57.9685L70.3362 67.859C71.7952 68.4051 73.272 68.0428 73.6346 67.0518" fill="#FFC217"/>
<path d="M74.407 63.0898C73.9507 60.9009 71.8205 58.6882 68.8062 57.5615L51.6316 51.1394C48.6214 50.0107 45.5806 50.2884 43.8273 51.6514L74.407 63.0898Z" fill="#D6AA00"/>
<path d="M69.9104 70.9528L68.3838 73.7932C65.0011 80.0875 62.5312 86.8414 61.0499 93.8474L60.4318 96.7679L32.7224 86.3512L35.0728 82.5734C38.3657 77.2821 40.5513 71.3639 41.4948 65.1844L42.2057 60.5326L69.9104 70.9528Z" fill="#183E7F"/>
<path d="M70.1441 71.9752L70.1357 71.9959C70.0346 72.2708 69.8297 72.4939 69.566 72.6161C69.3024 72.7383 69.0016 72.7496 68.7298 72.6476L42.0115 62.6038C41.7398 62.5014 41.5193 62.2941 41.3985 62.0274C41.2778 61.7607 41.2666 61.4564 41.3674 61.1814L41.3805 61.1571C41.4822 60.8839 41.6864 60.6624 41.9488 60.5408C42.2111 60.4192 42.5103 60.4074 42.7812 60.5079L69.4999 70.5528C69.7717 70.6551 69.9922 70.8624 70.1129 71.1291C70.2337 71.3958 70.2449 71.7001 70.1441 71.9752Z" fill="#176CF7"/>
<path d="M60.7485 97.5164L60.7407 97.5381C60.6395 97.8131 60.4346 98.0361 60.171 98.1583C59.9074 98.2805 59.6066 98.2918 59.3347 98.1898L32.616 88.145C32.3443 88.0424 32.124 87.8349 32.0034 87.5681C31.8828 87.3013 31.8719 86.997 31.9729 86.722L31.9854 86.6993C32.0871 86.4261 32.2914 86.2046 32.5537 86.083C32.816 85.9615 33.1152 85.9496 33.3861 86.0501L60.1044 96.0939C60.239 96.1445 60.3625 96.2214 60.4678 96.3202C60.573 96.4191 60.658 96.538 60.7178 96.6701C60.7776 96.8022 60.8111 96.9449 60.8164 97.0901C60.8217 97.2353 60.7986 97.3802 60.7485 97.5164Z" fill="#176CF7"/>
<path d="M148.914 109.261L75.9943 84.7679L74.9507 89.6697L145.685 118.257C150.228 120.054 151.917 118.792 152.836 116.278C153.755 113.764 153.544 110.878 148.911 109.261" fill="#176CF7"/>
<path d="M77.3348 81.7637C76.7441 81.5426 75.9161 82.2715 75.341 83.4467C72.9133 80.5635 69.4641 78.1997 65.8045 78.9514L65.3204 80.072L63.1161 85.95L62.7495 87.1068C65.0698 90.0974 69.2493 90.5596 72.9645 89.934C72.6237 91.2324 72.7799 92.3633 73.3814 92.5883L73.4059 92.5974C74.0939 92.8551 75.1033 91.8276 75.6652 90.2998L77.6009 84.9965C78.158 83.4722 78.0521 82.0269 77.3646 81.7703L77.3395 81.7601" fill="#176CF7"/>
<path d="M40.0978 45.8903L31.6573 44.8199C31.451 44.7939 31.2525 44.7243 31.0746 44.6156C30.8967 44.5068 30.7434 44.3614 30.6247 44.1888C30.5061 44.0162 30.4246 43.8202 30.3857 43.6137C30.3469 43.4071 30.3514 43.1946 30.3991 42.9899L30.4067 42.9566C30.4561 42.745 30.5503 42.5469 30.683 42.3759C30.8157 42.2049 30.9835 42.0652 31.1749 41.9664C31.3663 41.8676 31.5766 41.8122 31.7913 41.8039C32.006 41.7957 32.2199 41.8348 32.4182 41.9185L40.2703 45.2317C40.3456 45.2636 40.407 45.322 40.443 45.3961C40.4791 45.4702 40.4874 45.555 40.4665 45.6348C40.4455 45.7146 40.3966 45.784 40.329 45.8303C40.2613 45.8765 40.1794 45.8963 40.0984 45.8861" fill="#FFCC06"/>
<path d="M45.3188 41.7747L47.4048 34.4134C47.4557 34.2335 47.5435 34.0665 47.6624 33.9231C47.7813 33.7798 47.9287 33.6634 48.095 33.5815C48.2614 33.4996 48.4429 33.4541 48.6277 33.4479C48.8126 33.4417 48.9967 33.4749 49.168 33.5455L49.1961 33.5567C49.3733 33.6296 49.5326 33.7407 49.663 33.8821C49.7934 34.0236 49.8918 34.1921 49.9514 34.3759C50.011 34.5598 50.0303 34.7545 50.0081 34.9466C49.9858 35.1388 49.9224 35.3237 49.8224 35.4886L45.8649 42.0181C45.8269 42.0807 45.7678 42.1273 45.6984 42.1493C45.6291 42.1712 45.5543 42.1671 45.4877 42.1375C45.4212 42.108 45.3675 42.0551 45.3365 41.9886C45.3056 41.9221 45.2995 41.8465 45.3193 41.7758" fill="#FFCC06"/>
<path d="M41.8072 43.5003L37.028 36.6724C36.9112 36.5056 36.8304 36.3157 36.7909 36.1152C36.7515 35.9147 36.7542 35.708 36.7989 35.5087C36.8437 35.3093 36.9294 35.1217 37.0506 34.9581C37.1717 34.7945 37.3256 34.6585 37.5021 34.5591L37.5312 34.5421C37.7137 34.4387 37.9162 34.3767 38.1248 34.3606C38.3333 34.3444 38.5428 34.3745 38.7387 34.4486C38.9346 34.5228 39.1122 34.6392 39.259 34.7899C39.4059 34.9405 39.5185 35.1218 39.5891 35.321L42.3829 43.1937C42.4094 43.2693 42.4081 43.3519 42.3792 43.4266C42.3502 43.5012 42.2956 43.5627 42.2253 43.5998C42.1551 43.6368 42.074 43.647 41.9969 43.6283C41.9199 43.6097 41.8521 43.5635 41.806 43.4982" fill="#FFCC06"/>
<path d="M59.5703 125.895H24.8024V123.277C24.8024 122.336 25.1717 121.434 25.8292 120.769C26.4867 120.104 27.3784 119.73 28.3082 119.73H56.068C56.5284 119.73 56.9843 119.822 57.4096 120C57.835 120.178 58.2214 120.44 58.547 120.769C58.8725 121.098 59.1308 121.489 59.307 121.92C59.4832 122.35 59.5738 122.811 59.5738 123.277V125.895" fill="#176CF7"/>
<path d="M63.18 127.753H21.8098C21.5951 127.753 21.3891 127.667 21.2373 127.513C21.0854 127.36 21.0001 127.151 21.0001 126.934V124.044C21.0001 123.826 21.0854 123.618 21.2373 123.464C21.3891 123.311 21.5951 123.224 21.8098 123.224H63.1846C63.3994 123.224 63.6053 123.311 63.7571 123.464C63.909 123.618 63.9943 123.826 63.9943 124.044V126.934C63.9943 127.151 63.909 127.36 63.7571 127.513C63.6053 127.667 63.3994 127.753 63.1846 127.753" fill="#176CF7"/>
<path d="M24.8024 123.222V122.772C24.8021 122.664 24.8334 122.558 24.8927 122.467C24.8348 122.715 24.8045 122.968 24.8024 123.222Z" fill="#DAE3E5"/>
<path d="M59.5599 123.222H24.8024C24.8045 122.968 24.8336 122.715 24.8891 122.467C24.9398 122.386 25.0102 122.319 25.0935 122.272C25.1769 122.226 25.2705 122.202 25.3657 122.202L59.4871 123.003L59.5553 123.222" fill="#183E7F"/>
<path d="M59.5703 123.255H24.8024V123.221H59.5599L59.5703 123.253" fill="#955D4B"/>
</svg>
