<svg width="20" height="20" viewBox="0 0 20 20" fill="none" xmlns="http://www.w3.org/2000/svg">
<path d="M13.6811 7.30558C15.0081 7.30558 16.0839 6.22981 16.0839 4.90279C16.0839 3.57576 15.0081 2.5 13.6811 2.5C12.3541 2.5 11.2783 3.57576 11.2783 4.90279C11.2783 6.22981 12.3541 7.30558 13.6811 7.30558Z" stroke="white" stroke-width="1.5" stroke-linecap="round" stroke-linejoin="round"/>
<path d="M4.06978 12.912C5.3968 12.912 6.47257 11.8363 6.47257 10.5092C6.47257 9.18221 5.3968 8.10645 4.06978 8.10645C2.74276 8.10645 1.66699 9.18221 1.66699 10.5092C1.66699 11.8363 2.74276 12.912 4.06978 12.912Z" stroke="white" stroke-width="1.5" stroke-linecap="round" stroke-linejoin="round"/>
<path d="M13.6811 18.5185C15.0081 18.5185 16.0839 17.4427 16.0839 16.1157C16.0839 14.7887 15.0081 13.7129 13.6811 13.7129C12.3541 13.7129 11.2783 14.7887 11.2783 16.1157C11.2783 17.4427 12.3541 18.5185 13.6811 18.5185Z" stroke="white" stroke-width="1.5" stroke-linecap="round" stroke-linejoin="round"/>
<path d="M6.14453 11.7188L11.6149 14.9064" stroke="white" stroke-width="1.5" stroke-linecap="round" stroke-linejoin="round"/>
<path d="M11.6069 6.1123L6.14453 9.3" stroke="white" stroke-width="1.5" stroke-linecap="round" stroke-linejoin="round"/>
</svg>
