<svg width="17" height="16" viewBox="0 0 17 16" fill="none" xmlns="http://www.w3.org/2000/svg">
<path d="M4.56398 11.8971H4.03898C3.68625 11.8971 3.34796 11.7569 3.09853 11.5075C2.84911 11.2581 2.70898 10.9198 2.70898 10.5671V4.24406C2.70898 3.89132 2.84911 3.55303 3.09853 3.30361C3.34796 3.05419 3.68625 2.91406 4.03898 2.91406H10.539C10.7136 2.91406 10.8866 2.94846 11.048 3.0153C11.2093 3.08214 11.3559 3.18011 11.4794 3.30361C11.6029 3.42711 11.7009 3.57373 11.7677 3.73509C11.8346 3.89646 11.869 4.0694 11.869 4.24406V8.83806" stroke="#176CF7" stroke-width="1.5" stroke-linecap="round" stroke-linejoin="round"/>
<path d="M11.8516 5.375H13.7016C13.8206 5.37489 13.9381 5.40184 14.0451 5.45381C14.1522 5.50578 14.246 5.58142 14.3196 5.675L15.8196 7.67C15.9732 7.87537 16.0569 8.12455 16.0586 8.381V11.705C16.0586 11.7403 16.0445 11.7741 16.0196 11.799C15.9947 11.824 15.9608 11.838 15.9256 11.838H13.9016" stroke="#176CF7" stroke-width="1.5" stroke-linecap="round" stroke-linejoin="round"/>
<path d="M12.3562 13.2671C13.1785 13.2671 13.8452 12.6004 13.8452 11.7781C13.8452 10.9557 13.1785 10.2891 12.3562 10.2891C11.5338 10.2891 10.8672 10.9557 10.8672 11.7781C10.8672 12.6004 11.5338 13.2671 12.3562 13.2671Z" stroke="#176CF7" stroke-width="1.5" stroke-linecap="round" stroke-linejoin="round"/>
<path d="M6.04564 13.2671C6.86799 13.2671 7.53464 12.6004 7.53464 11.7781C7.53464 10.9557 6.86799 10.2891 6.04564 10.2891C5.22329 10.2891 4.55664 10.9557 4.55664 11.7781C4.55664 12.6004 5.22329 13.2671 6.04564 13.2671Z" stroke="#176CF7" stroke-width="1.5" stroke-linecap="round" stroke-linejoin="round"/>
<path d="M10.8739 11.8633H7.46289" stroke="#176CF7" stroke-width="1.5" stroke-linecap="round" stroke-linejoin="round"/>
</svg>
