<svg width="17" height="16" viewBox="0 0 17 16" fill="none" xmlns="http://www.w3.org/2000/svg">
<path d="M4.31398 11.8971H3.78898C3.43625 11.8971 3.09796 11.7569 2.84853 11.5075C2.59911 11.2581 2.45898 10.9198 2.45898 10.5671V4.24406C2.45898 3.89132 2.59911 3.55303 2.84853 3.30361C3.09796 3.05419 3.43625 2.91406 3.78898 2.91406H10.289C10.4636 2.91406 10.6366 2.94846 10.798 3.0153C10.9593 3.08214 11.1059 3.18011 11.2294 3.30361C11.3529 3.42711 11.4509 3.57373 11.5177 3.73509C11.5846 3.89646 11.619 4.0694 11.619 4.24406V8.83806" stroke="#868686" stroke-width="1.5" stroke-linecap="round" stroke-linejoin="round"/>
<path d="M11.6016 5.375H13.4516C13.5706 5.37489 13.6881 5.40184 13.7951 5.45381C13.9022 5.50578 13.996 5.58142 14.0696 5.675L15.5696 7.67C15.7232 7.87537 15.8069 8.12455 15.8086 8.381V11.705C15.8086 11.7403 15.7945 11.7741 15.7696 11.799C15.7447 11.824 15.7108 11.838 15.6756 11.838H13.6516" stroke="#868686" stroke-width="1.5" stroke-linecap="round" stroke-linejoin="round"/>
<path d="M12.1062 13.2671C12.9285 13.2671 13.5952 12.6004 13.5952 11.7781C13.5952 10.9557 12.9285 10.2891 12.1062 10.2891C11.2838 10.2891 10.6172 10.9557 10.6172 11.7781C10.6172 12.6004 11.2838 13.2671 12.1062 13.2671Z" stroke="#868686" stroke-width="1.5" stroke-linecap="round" stroke-linejoin="round"/>
<path d="M5.79564 13.2671C6.61799 13.2671 7.28464 12.6004 7.28464 11.7781C7.28464 10.9557 6.61799 10.2891 5.79564 10.2891C4.97329 10.2891 4.30664 10.9557 4.30664 11.7781C4.30664 12.6004 4.97329 13.2671 5.79564 13.2671Z" stroke="#868686" stroke-width="1.5" stroke-linecap="round" stroke-linejoin="round"/>
<path d="M10.6239 11.8633H7.21289" stroke="#868686" stroke-width="1.5" stroke-linecap="round" stroke-linejoin="round"/>
</svg>
