<svg width="18" height="18" viewBox="0 0 18 18" fill="none" xmlns="http://www.w3.org/2000/svg">
<path fill-rule="evenodd" clip-rule="evenodd" d="M16.4279 4.24309C16.8184 4.63361 16.8184 5.26678 16.4279 5.6573L9.71141 12.3737C9.52386 12.5613 9.26948 12.6667 9.00424 12.6666C8.739 12.6666 8.48463 12.5612 8.29711 12.3737L4.93977 9.01543C4.5493 8.62485 4.54938 7.99169 4.93996 7.60122C5.33054 7.21074 5.9637 7.21083 6.35417 7.6014L9.0044 10.2523L15.0136 4.24309C15.4042 3.85256 16.0373 3.85256 16.4279 4.24309Z" fill="#3ECD00"/>
<path d="M17 9C17 13.4187 13.4187 17 9 17C4.58133 17 1 13.4187 1 9C1 4.58133 4.58133 1 9 1C10.2916 1 11.5076 1.31378 12.5876 1.85689" stroke="#3ECD00" stroke-linecap="round" stroke-linejoin="round"/>
</svg>
