<svg width="16" height="14" viewBox="0 0 16 14" fill="none" xmlns="http://www.w3.org/2000/svg">
<g clip-path="url(#clip0_7370_5070)">
<path d="M5.17524 11.6645H4.71121C4.39943 11.6645 4.10042 11.5345 3.87996 11.3031C3.6595 11.0718 3.53564 10.758 3.53564 10.4308V4.56571C3.53564 4.23852 3.6595 3.92473 3.87996 3.69337C4.10042 3.46201 4.39943 3.33203 4.71121 3.33203H10.4564C10.6108 3.33203 10.7637 3.36394 10.9063 3.42594C11.0489 3.48794 11.1785 3.57881 11.2877 3.69337C11.3968 3.80793 11.4834 3.94392 11.5425 4.0936C11.6016 4.24328 11.632 4.4037 11.632 4.56571V8.827" stroke="#176CF7" stroke-linecap="round" stroke-linejoin="round"/>
<path d="M11.6162 5.61377H13.2514C13.3566 5.61366 13.4604 5.63866 13.5551 5.68687C13.6497 5.73508 13.7326 5.80524 13.7976 5.89204L15.1234 7.74256C15.2592 7.93306 15.3332 8.16419 15.3347 8.40207V11.4853C15.3347 11.5181 15.3223 11.5494 15.3003 11.5726C15.2782 11.5957 15.2483 11.6087 15.2171 11.6087H13.4282" stroke="#176CF7" stroke-linecap="round" stroke-linejoin="round"/>
<path d="M12.0622 12.9347C12.7891 12.9347 13.3783 12.3163 13.3783 11.5535C13.3783 10.7907 12.7891 10.1724 12.0622 10.1724C11.3353 10.1724 10.7461 10.7907 10.7461 11.5535C10.7461 12.3163 11.3353 12.9347 12.0622 12.9347Z" stroke="#176CF7" stroke-linecap="round" stroke-linejoin="round"/>
<path d="M6.48504 12.9347C7.2119 12.9347 7.80114 12.3163 7.80114 11.5535C7.80114 10.7907 7.2119 10.1724 6.48504 10.1724C5.75818 10.1724 5.16895 10.7907 5.16895 11.5535C5.16895 12.3163 5.75818 12.9347 6.48504 12.9347Z" stroke="#176CF7" stroke-linecap="round" stroke-linejoin="round"/>
<path d="M10.7527 11.6338H7.73779" stroke="#176CF7" stroke-linecap="round" stroke-linejoin="round"/>
<path d="M4 7.63037C5.65685 7.63037 7 6.28723 7 4.63037C7 2.97352 5.65685 1.63037 4 1.63037C2.34315 1.63037 1 2.97352 1 4.63037C1 6.28723 2.34315 7.63037 4 7.63037Z" fill="white"/>
<path d="M3.5357 7.35494C5.1222 7.35494 6.40831 6.00524 6.40831 4.34031C6.40831 2.67538 5.1222 1.32568 3.5357 1.32568C1.9492 1.32568 0.663086 2.67538 0.663086 4.34031C0.663086 6.00524 1.9492 7.35494 3.5357 7.35494Z" stroke="#176CF7"/>
<path d="M3.53564 3.42871V5.25326" stroke="#176CF7" stroke-linecap="round"/>
<path d="M2.66553 4.34033H4.40412" stroke="#176CF7" stroke-linecap="round"/>
</g>
<defs>
<clipPath id="clip0_7370_5070">
<rect width="16" height="13" fill="white" transform="translate(0 0.629883)"/>
</clipPath>
</defs>
</svg>
