<svg width="18" height="18" viewBox="0 0 18 18" fill="none" xmlns="http://www.w3.org/2000/svg">
<path d="M9 18C13.9706 18 18 13.9706 18 9C18 4.02944 13.9706 0 9 0C4.02944 0 0 4.02944 0 9C0 13.9706 4.02944 18 9 18Z" fill="#327CF5"/>
<path d="M13.9163 9.62628V11.7758C13.9163 11.9052 13.8908 12.0333 13.8412 12.1529C13.7916 12.2724 13.7189 12.381 13.6273 12.4724C13.5357 12.5638 13.427 12.6362 13.3073 12.6855C13.1877 12.7348 13.0595 12.7601 12.9301 12.7598H5.06408C4.80311 12.7598 4.55282 12.6561 4.36829 12.4716C4.18375 12.287 4.08008 12.0368 4.08008 11.7758V7.21203C4.08008 6.95105 4.18375 6.70077 4.36829 6.51623C4.55282 6.3317 4.80311 6.22803 5.06408 6.22803H8.38808" stroke="white" stroke-width="0.8" stroke-linecap="round" stroke-linejoin="round"/>
<path d="M12.589 5.68196C12.5433 5.6359 12.4889 5.59935 12.429 5.57441C12.369 5.54946 12.3048 5.53662 12.2399 5.53662C12.175 5.53662 12.1107 5.54946 12.0508 5.57441C11.9909 5.59935 11.9365 5.6359 11.8907 5.68196L8.93949 8.63321L8.89074 10.1085C8.89003 10.1233 8.89252 10.1381 8.89803 10.1519C8.90354 10.1657 8.91195 10.1781 8.9227 10.1883C8.93344 10.1986 8.94626 10.2064 8.96028 10.2112C8.97431 10.2161 8.98922 10.2179 9.00399 10.2165L10.4792 10.167L13.4305 7.21571C13.5159 7.12374 13.5629 7.00264 13.5619 6.87716C13.5609 6.75169 13.512 6.63133 13.4252 6.54071L12.589 5.68196Z" stroke="white" stroke-width="0.8" stroke-linecap="round" stroke-linejoin="round"/>
</svg>
