<svg width="16" height="16" viewBox="0 0 16 16" fill="none" xmlns="http://www.w3.org/2000/svg">
<path d="M8.00004 9.99967C7.44448 9.99967 6.97226 9.80523 6.58337 9.41634C6.19448 9.02745 6.00004 8.55523 6.00004 7.99967C6.00004 7.44412 6.19448 6.9719 6.58337 6.58301C6.97226 6.19412 7.44448 5.99967 8.00004 5.99967C8.5556 5.99967 9.02782 6.19412 9.41671 6.58301C9.8056 6.9719 10 7.44412 10 7.99967C10 8.55523 9.8056 9.02745 9.41671 9.41634C9.02782 9.80523 8.5556 9.99967 8.00004 9.99967ZM2.00004 6.66634C1.81115 6.66634 1.65293 6.60234 1.52537 6.47434C1.39737 6.34679 1.33337 6.18856 1.33337 5.99967V3.33301C1.33337 3.14412 1.39737 2.98567 1.52537 2.85767C1.65293 2.73012 1.81115 2.66634 2.00004 2.66634C2.18893 2.66634 2.34737 2.73012 2.47537 2.85767C2.60293 2.98567 2.66671 3.14412 2.66671 3.33301V3.99967C3.30004 3.15523 4.08337 2.49967 5.01671 2.03301C5.95004 1.56634 6.94448 1.33301 8.00004 1.33301C9.44448 1.33301 10.7389 1.74967 11.8834 2.58301C13.0278 3.41634 13.8334 4.49967 14.3 5.83301C14.3778 6.05523 14.3527 6.24967 14.2247 6.41634C14.0972 6.58301 13.9056 6.66634 13.65 6.66634C13.5278 6.66634 13.4056 6.61901 13.2834 6.52434C13.1612 6.43012 13.0723 6.3219 13.0167 6.19967C12.6389 5.14412 11.9945 4.29145 11.0834 3.64167C10.1723 2.99145 9.14448 2.66634 8.00004 2.66634C7.04448 2.66634 6.1556 2.90234 5.33337 3.37434C4.51115 3.84679 3.86671 4.49967 3.40004 5.33301H4.66671C4.8556 5.33301 5.01404 5.39679 5.14204 5.52434C5.2696 5.65234 5.33337 5.81079 5.33337 5.99967C5.33337 6.18856 5.2696 6.34679 5.14204 6.47434C5.01404 6.60234 4.8556 6.66634 4.66671 6.66634H2.00004ZM8.00004 14.6663C6.5556 14.6663 5.26115 14.2497 4.11671 13.4163C2.97226 12.583 2.16671 11.4997 1.70004 10.1663C1.62226 9.94412 1.64737 9.74967 1.77537 9.58301C1.90293 9.41634 2.09449 9.33301 2.35004 9.33301C2.47226 9.33301 2.59448 9.38012 2.71671 9.47434C2.83893 9.56901 2.92782 9.67745 2.98337 9.79967C3.36115 10.8552 4.0056 11.7081 4.91671 12.3583C5.82782 13.0081 6.8556 13.333 8.00004 13.333C8.9556 13.333 9.84448 13.097 10.6667 12.625C11.4889 12.1526 12.1334 11.4997 12.6 10.6663H11.3334C11.1445 10.6663 10.9863 10.6023 10.8587 10.4743C10.7307 10.3468 10.6667 10.1886 10.6667 9.99967C10.6667 9.81079 10.7307 9.65234 10.8587 9.52434C10.9863 9.39678 11.1445 9.33301 11.3334 9.33301H14C14.1889 9.33301 14.3472 9.39678 14.4747 9.52434C14.6027 9.65234 14.6667 9.81079 14.6667 9.99967V12.6663C14.6667 12.8552 14.6027 13.0135 14.4747 13.141C14.3472 13.269 14.1889 13.333 14 13.333C13.8112 13.333 13.6529 13.269 13.5254 13.141C13.3974 13.0135 13.3334 12.8552 13.3334 12.6663V11.9997C12.7 12.8441 11.9167 13.4997 10.9834 13.9663C10.05 14.433 9.0556 14.6663 8.00004 14.6663Z" fill="#176CF7"/>
</svg>
