<svg width="15" height="15" viewBox="0 0 15 15" fill="none" xmlns="http://www.w3.org/2000/svg">
<g clip-path="url(#clip0_7370_5044)">
<path d="M2.855 12.5099H2.33C1.97726 12.5099 1.63897 12.3697 1.38955 12.1203C1.14012 11.8709 1 11.5326 1 11.1799V4.85686C1 4.50412 1.14012 4.16583 1.38955 3.9164C1.63897 3.66698 1.97726 3.52686 2.33 3.52686H8.83C9.00466 3.52686 9.17761 3.56126 9.33897 3.6281C9.50033 3.69493 9.64695 3.7929 9.77045 3.9164C9.89395 4.03991 9.99192 4.18652 10.0588 4.34789C10.1256 4.50925 10.16 4.6822 10.16 4.85686V9.45086" stroke="#176CF7" stroke-linecap="round" stroke-linejoin="round"/>
<path d="M10.1421 5.98682H11.9921C12.1111 5.9867 12.2286 6.01365 12.3356 6.06563C12.4427 6.1176 12.5366 6.19324 12.6101 6.28682L14.1101 8.28182C14.2637 8.48719 14.3474 8.73637 14.3491 8.99282V12.3168C14.3491 12.3521 14.3351 12.3859 14.3101 12.4109C14.2852 12.4358 14.2514 12.4498 14.2161 12.4498H12.1921" stroke="#176CF7" stroke-linecap="round" stroke-linejoin="round"/>
<path d="M10.6472 13.8789C11.4696 13.8789 12.1362 13.2122 12.1362 12.3899C12.1362 11.5675 11.4696 10.9009 10.6472 10.9009C9.82485 10.9009 9.1582 11.5675 9.1582 12.3899C9.1582 13.2122 9.82485 13.8789 10.6472 13.8789Z" stroke="#176CF7" stroke-linecap="round" stroke-linejoin="round"/>
<path d="M4.33714 13.8789C5.1595 13.8789 5.82614 13.2122 5.82614 12.3899C5.82614 11.5675 5.1595 10.9009 4.33714 10.9009C3.51479 10.9009 2.84814 11.5675 2.84814 12.3899C2.84814 13.2122 3.51479 13.8789 4.33714 13.8789Z" stroke="#176CF7" stroke-linecap="round" stroke-linejoin="round"/>
<path d="M9.16491 12.4771H5.75391" stroke="#176CF7" stroke-linecap="round" stroke-linejoin="round"/>
<path d="M5.62706 0.567871H5.07706C4.65833 0.622189 4.25928 0.778209 3.91475 1.0223C3.57023 1.2664 3.29071 1.59114 3.10062 1.96816C2.91053 2.34519 2.81565 2.76302 2.82427 3.18516C2.83289 3.60731 2.94474 4.02092 3.15006 4.38987L5.07706 7.96787C5.10374 8.01878 5.14384 8.06142 5.19302 8.09116C5.2422 8.12091 5.29858 8.13664 5.35606 8.13664C5.41353 8.13664 5.46991 8.12091 5.51909 8.09116C5.56827 8.06142 5.60838 8.01878 5.63506 7.96787L7.55306 4.40087C7.75724 4.03105 7.86824 3.61704 7.87644 3.19467C7.88464 2.77231 7.78981 2.3543 7.60013 1.97683C7.41046 1.59936 7.13167 1.27379 6.78788 1.02829C6.44409 0.78279 6.04566 0.624759 5.62706 0.567871Z" fill="white" stroke="#176CF7" stroke-linecap="round" stroke-linejoin="bevel"/>
<path d="M6.25782 3.07056C6.25782 2.56992 5.85197 2.16406 5.35132 2.16406C4.85068 2.16406 4.44482 2.56992 4.44482 3.07056C4.44482 3.57121 4.85068 3.97706 5.35132 3.97706C5.85197 3.97706 6.25782 3.57121 6.25782 3.07056Z" fill="white" stroke="#176CF7" stroke-linecap="round" stroke-linejoin="bevel"/>
</g>
<defs>
<clipPath id="clip0_7370_5044">
<rect width="14.852" height="14.63" fill="white"/>
</clipPath>
</defs>
</svg>
