<svg width="24" height="24" viewBox="0 0 24 24" fill="none" xmlns="http://www.w3.org/2000/svg">
<path d="M12.347 21.793C10.7671 20.0323 9.37963 18.1081 8.20798 16.053C7.20814 14.497 6.52038 12.7615 6.18298 10.943C5.92044 9.87045 5.94073 8.7481 6.24186 7.68572C6.54299 6.62334 7.11467 5.65729 7.90098 4.88202C9.09549 3.70682 10.6948 3.03379 12.3701 3.00124C14.0455 2.96869 15.6697 3.5791 16.909 4.70702C18.1002 5.7894 18.8379 7.28229 18.974 8.88602C18.9775 8.88995 18.9802 8.89454 18.9819 8.89952C18.9836 8.9045 18.9843 8.90976 18.984 8.91502C18.984 8.93402 18.984 8.95302 18.984 8.97302C18.994 9.12502 19 9.27302 19 9.42602V9.45902C19 9.58102 19 9.70002 18.988 9.82202C18.9475 10.4837 18.8034 11.135 18.561 11.752C18.2291 12.7403 17.8405 13.7086 17.397 14.652C16.5262 16.5146 15.4267 18.2614 14.124 19.852C13.5746 20.5368 12.981 21.1858 12.347 21.793ZM12.501 6.61502C12.0255 6.62034 11.5622 6.76623 11.1694 7.03431C10.7766 7.30238 10.4719 7.68067 10.2937 8.12154C10.1154 8.56241 10.0716 9.04616 10.1677 9.51188C10.2638 9.97761 10.4955 10.4045 10.8337 10.7388C11.1719 11.0731 11.6015 11.2999 12.0683 11.3906C12.5351 11.4813 13.0183 11.4319 13.4571 11.2486C13.8959 11.0653 14.2706 10.7562 14.5341 10.3604C14.7976 9.96452 14.9382 9.49956 14.938 9.02402C14.9335 8.38164 14.6744 7.76727 14.2175 7.31567C13.7607 6.86406 13.1434 6.61209 12.501 6.61502Z" stroke="#676767" stroke-width="1.5"/>
</svg>
