<svg width="18" height="18" viewBox="0 0 18 18" fill="none" xmlns="http://www.w3.org/2000/svg">
<path d="M9 18C13.9706 18 18 13.9706 18 9C18 4.02944 13.9706 0 9 0C4.02944 0 0 4.02944 0 9C0 13.9706 4.02944 18 9 18Z" fill="#327CF5"/>
<path d="M4.72768 11.9426L5.90743 13.1223C5.99935 13.2164 6.10914 13.2911 6.23033 13.3421C6.35153 13.3931 6.48169 13.4193 6.61318 13.4193C6.74467 13.4193 6.87484 13.3931 6.99603 13.3421C7.11723 13.2911 7.22701 13.2164 7.31893 13.1223L7.99393 12.4473C8.0858 12.3557 8.15868 12.2468 8.20841 12.1269C8.25813 12.007 8.28373 11.8785 8.28373 11.7487C8.28373 11.6189 8.25813 11.4904 8.20841 11.3705C8.15868 11.2507 8.0858 11.1418 7.99393 11.0501L7.55443 10.6061C8.23978 9.4622 9.19584 8.50435 10.3384 7.81684V7.81684L10.7779 8.26084C10.8696 8.3527 10.9785 8.42559 11.0984 8.47531C11.2183 8.52504 11.3468 8.55064 11.4766 8.55064C11.6063 8.55064 11.7349 8.52504 11.8547 8.47531C11.9746 8.42559 12.0835 8.3527 12.1752 8.26084L12.8367 7.60459C12.9285 7.51291 13.0014 7.40402 13.0512 7.28414C13.1009 7.16426 13.1265 7.03575 13.1265 6.90596C13.1265 6.77618 13.1009 6.64767 13.0512 6.52779C13.0014 6.40791 12.9285 6.29902 12.8367 6.20734L11.6532 5.02234C11.5729 4.94147 11.4672 4.89086 11.3538 4.8791C11.2405 4.86734 11.1266 4.89516 11.0314 4.95784V4.95784C8.50718 6.63311 6.3437 8.79659 4.66843 11.3208V11.3208C4.60509 11.4154 4.57639 11.529 4.58719 11.6423C4.59799 11.7556 4.64762 11.8617 4.72768 11.9426Z" stroke="white" stroke-width="0.8" stroke-linecap="round" stroke-linejoin="round"/>
</svg>
