<svg width="14" height="15" viewBox="0 0 14 15" fill="none" xmlns="http://www.w3.org/2000/svg">
<path d="M2.27502 11.9645C2.35198 12.0505 2.43413 12.1373 2.52352 12.2246C2.52359 12.2247 2.52366 12.2248 2.52372 12.2248L2.59361 12.1533C3.51534 13.0657 4.6878 13.6759 5.95792 13.9043C6.58385 14.0158 7.22297 14.03 7.85313 13.9463C8.48054 13.8616 9.09135 13.68 9.66419 13.4079M2.27502 11.9645L9.70683 13.4983M2.27502 11.9645L2.18904 12.6721L2.27502 11.9645ZM9.66419 13.4079L9.70656 13.4984C9.70665 13.4984 9.70674 13.4984 9.70683 13.4983M9.66419 13.4079L9.70711 13.4982C9.70702 13.4982 9.70693 13.4983 9.70683 13.4983M9.66419 13.4079C9.87832 13.3077 10.0775 13.2033 10.2757 13.0848C10.4738 12.9663 10.6635 12.8404 10.8424 12.7079M9.70683 13.4983C9.92356 13.3969 10.1257 13.291 10.327 13.1706C10.5278 13.0506 10.7202 12.9228 10.9019 12.7883M10.8424 12.7079L10.9018 12.7884C10.9018 12.7883 10.9019 12.7883 10.9019 12.7883M10.8424 12.7079C11.2684 12.3937 11.6551 12.0285 11.9941 11.6203L10.9019 12.7883M10.8424 12.7079L10.9019 12.7883M4.75836 10.8675L4.85593 10.8894C4.85594 10.8894 4.85595 10.8893 4.85596 10.8893C4.85597 10.8892 4.85598 10.8892 4.85599 10.8892L4.75836 10.8675ZM4.75836 10.8675C4.74284 10.9375 4.71365 11.0037 4.67249 11.0621C4.63132 11.1206 4.57902 11.1701 4.51866 11.2078L4.37494 10.1143M4.75836 10.8675C4.79015 10.726 4.76566 10.5775 4.69018 10.454C4.65274 10.3929 4.60357 10.3399 4.54557 10.2983C4.48757 10.2567 4.42191 10.2273 4.35247 10.2117M4.35247 10.2117L4.37548 10.1144C4.3753 10.1144 4.37512 10.1143 4.37494 10.1143M4.35247 10.2117L4.37432 10.1141C4.37452 10.1142 4.37473 10.1142 4.37494 10.1143M4.35247 10.2117C3.55702 10.0236 2.76087 9.83876 1.964 9.65713M4.37494 10.1143C3.5796 9.9262 2.78355 9.74137 1.98679 9.55976M1.964 9.65713L1.98736 9.5599C1.98717 9.55985 1.98698 9.5598 1.98679 9.55976M1.964 9.65713C1.89468 9.64048 1.82279 9.6378 1.75244 9.64925C1.6821 9.6607 1.61467 9.68605 1.55402 9.72385C1.49337 9.76165 1.44069 9.81117 1.39898 9.86957C1.35728 9.92796 1.32736 9.9941 1.31096 10.0642M1.964 9.65713L1.98623 9.55963C1.98641 9.55967 1.9866 9.55972 1.98679 9.55976M1.98679 9.55976L1.31096 10.0642M1.21386 10.0402C1.21396 10.0398 1.21406 10.0395 1.21416 10.0391L1.31096 10.0642M1.21386 10.0402C1.21377 10.0406 1.21368 10.041 1.21359 10.0414L1.31096 10.0642M1.21386 10.0402C1.20919 10.0585 1.20564 10.0769 1.20325 10.0956L1.20243 10.0955V10.1083V10.1097L0.906145 12.509C0.906111 12.5093 0.906078 12.5095 0.906045 12.5098C0.888476 12.6383 0.909407 12.7692 0.966218 12.8857C1.02314 13.0025 1.11352 13.0994 1.22581 13.1639C1.33811 13.2283 1.46708 13.2572 1.59597 13.2468C1.72463 13.2364 1.84711 13.1872 1.94764 13.1058C1.94746 13.106 1.94728 13.1061 1.9471 13.1062L1.21386 10.0402ZM11.7341 3.03246C11.6577 2.94745 11.5764 2.86192 11.4891 2.77589C11.489 2.77586 11.489 2.77582 11.489 2.77579L11.4188 2.84702C10.9595 2.39309 10.4356 2.01124 9.86447 1.71415M11.7341 3.03246L8.05342 1.09603C8.68443 1.20878 9.295 1.41717 9.86447 1.71415M11.7341 3.03246L11.8147 2.32956C11.8147 2.32939 11.8147 2.32921 11.8147 2.32904C11.8236 2.24335 11.8493 2.16027 11.8903 2.08463C11.9314 2.00884 11.9871 1.94202 12.0542 1.88812C12.1213 1.83423 12.1983 1.79435 12.281 1.77087C12.3636 1.74739 12.45 1.74081 12.5352 1.75151C12.6204 1.76221 12.7026 1.78997 12.7769 1.83313C12.8513 1.87629 12.9163 1.93397 12.9682 2.00273C13.0201 2.07149 13.0579 2.14996 13.0794 2.23355C13.1008 2.31678 13.1056 2.40346 13.0936 2.48857L12.8025 4.89048V4.89199C12.8025 4.89265 12.8025 4.8934 12.8025 4.89423C12.8026 4.90654 12.8028 4.93594 12.7902 4.96794C12.7495 5.12995 12.6483 5.27021 12.5072 5.3589C12.3634 5.44921 12.1901 5.47866 12.0249 5.44065C11.2293 5.25871 10.427 5.07452 9.63619 4.88601C9.55403 4.86732 9.47644 4.83227 9.40793 4.78297C9.33935 4.73361 9.28127 4.67096 9.23706 4.59873L11.7341 3.03246ZM9.86447 1.71415L9.91071 1.62548M9.86447 1.71415L9.91062 1.62544C9.91065 1.62545 9.91068 1.62547 9.91071 1.62548M9.91071 1.62548C9.33226 1.32382 8.71203 1.11213 8.07101 0.997588L8.07098 0.997584C7.4335 0.883825 6.78253 0.869432 6.14074 0.954906L6.14057 0.954929C5.503 1.04095 4.88232 1.22547 4.30024 1.50201C4.08319 1.60354 3.87588 1.71378 3.68044 1.82947L3.67993 1.82977C3.47987 1.9498 3.28833 2.07717 3.10534 2.2119L3.10521 2.212C2.67304 2.53127 2.28052 2.90199 1.93612 3.31613L1.936 3.31627C1.59732 3.7251 1.31017 4.17482 1.08114 4.65511L1.08113 4.65512L0.995907 4.83388L0.944496 4.94171L1.05969 4.97334L2.13035 5.26733L2.20873 5.28885L2.24582 5.21652L2.30654 5.09806L2.30666 5.09783C2.48916 4.73951 2.71328 4.40449 2.97424 4.09986L2.97445 4.09961C3.23963 3.78801 3.53961 3.50855 3.86839 3.26679L3.86839 3.2668L3.8693 3.26612C4.02073 3.15211 4.17757 3.04745 4.34205 2.94896C4.50245 2.85309 4.67105 2.76346 4.84788 2.6801L4.84819 2.67995C5.31032 2.46011 5.8034 2.31415 6.30979 2.24727C6.82037 2.18047 7.33803 2.19257 7.84501 2.28316C8.35814 2.3755 8.85454 2.54572 9.31738 2.78808L9.31773 2.78825C9.78356 3.02987 10.2109 3.34077 10.5856 3.7106C10.6156 3.74035 10.6445 3.76969 10.6724 3.79872C10.6502 3.79354 10.628 3.78836 10.6058 3.78318C10.3787 3.73017 10.1515 3.67713 9.92409 3.62503C9.75797 3.5868 9.58369 3.61664 9.43944 3.70786C9.36782 3.75265 9.30584 3.8114 9.25709 3.88061C9.20833 3.94984 9.17376 4.02816 9.15539 4.11097C9.1554 4.11091 9.15541 4.11086 9.15542 4.1108L9.91071 1.62548Z" fill="#176CF7" stroke="#176CF7" stroke-width="0.2"/>
</svg>
