<svg width="24" height="24" viewBox="0 0 24 24" fill="none" xmlns="http://www.w3.org/2000/svg">
<path fill-rule="evenodd" clip-rule="evenodd" d="M2.02148 12.669C2.02148 10.2898 3.89542 8.34788 6.24772 8.23886L6.45648 8.23403H7.38948C7.8037 8.23403 8.13948 8.56981 8.13948 8.98403C8.13948 9.36372 7.85733 9.67752 7.49125 9.72718L7.38948 9.73403H6.45648C4.89358 9.73403 3.61575 10.956 3.52647 12.4966L3.52148 12.669L3.52148 17.544C3.52148 19.1061 4.74362 20.3838 6.28406 20.473L6.45648 20.478H17.5865C19.1493 20.478 20.4272 19.2561 20.5165 17.7164L20.5215 17.544V12.659C20.5215 11.1017 19.3039 9.82799 17.7693 9.73899L17.5975 9.73403H16.6545C16.2403 9.73403 15.9045 9.39824 15.9045 8.98403C15.9045 8.60433 16.1866 8.29054 16.5527 8.24087L16.6545 8.23403H17.5975C19.9687 8.23403 21.9046 10.1008 22.0164 12.4447L22.0215 12.659V17.544C22.0215 19.9225 20.1474 21.8642 17.7952 21.9732L17.5865 21.978H6.45648C4.07743 21.978 2.13535 20.1043 2.02631 17.7527L2.02148 17.544V12.669ZM11.4797 1.67182C11.6162 1.52928 11.8084 1.44053 12.0214 1.44053C12.2365 1.44053 12.4304 1.53107 12.5672 1.67612L15.4687 4.58959C15.761 4.88308 15.76 5.35795 15.4665 5.65025C15.1997 5.91596 14.783 5.93932 14.4898 5.72086L14.4059 5.64807L12.7714 4.008L12.7714 14.2315C12.7714 14.6457 12.4356 14.9815 12.0214 14.9815C11.6417 14.9815 11.3279 14.6994 11.2782 14.3333L11.2714 14.2315L11.2714 4.00632L9.63779 5.64798C9.37212 5.91483 8.95551 5.93997 8.66142 5.72277L8.57714 5.65034C8.31028 5.38466 8.28514 4.96805 8.50234 4.67396L8.57478 4.58968L11.4797 1.67182Z" fill="white"/>
<path d="M6.24772 8.23886L6.24194 7.98886L6.23615 7.98912L6.24772 8.23886ZM6.45648 8.23403V7.98396L6.4507 7.98409L6.45648 8.23403ZM7.49125 9.72718L7.50804 9.97662L7.51648 9.97605L7.52486 9.97491L7.49125 9.72718ZM7.38948 9.73403V9.98403H7.39788L7.40626 9.98346L7.38948 9.73403ZM3.52647 12.4966L3.27678 12.4821L3.27657 12.4894L3.52647 12.4966ZM3.52148 12.669L3.27148 12.6618V12.669H3.52148ZM6.28406 20.473L6.26959 20.7227L6.27684 20.7229L6.28406 20.473ZM6.45648 20.478L6.44926 20.728H6.45648V20.478ZM20.5165 17.7164L20.7662 17.7309L20.7664 17.7236L20.5165 17.7164ZM20.5215 17.544L20.7715 17.5513V17.544H20.5215ZM17.7693 9.73899L17.7837 9.48931L17.7765 9.4891L17.7693 9.73899ZM17.5975 9.73403L17.6047 9.48403H17.5975V9.73403ZM16.5527 8.24087L16.5359 7.99144L16.5275 7.99201L16.5191 7.99314L16.5527 8.24087ZM16.6545 8.23403V7.98403H16.6461L16.6377 7.98459L16.6545 8.23403ZM22.0164 12.4447L22.2664 12.4387L22.2661 12.4328L22.0164 12.4447ZM22.0215 12.659H22.2716L22.2714 12.6531L22.0215 12.659ZM17.7952 21.9732L17.801 22.2232L17.8068 22.2229L17.7952 21.9732ZM17.5865 21.978V22.2281L17.5923 22.228L17.5865 21.978ZM2.02631 17.7527L1.77631 17.7585L1.77658 17.7643L2.02631 17.7527ZM2.02148 17.544H1.77142L1.77155 17.5498L2.02148 17.544ZM11.4797 1.67182L11.6569 1.84823L11.6602 1.84475L11.4797 1.67182ZM12.5672 1.67612L12.3852 1.84769L12.39 1.85254L12.5672 1.67612ZM15.4687 4.58959L15.2916 4.766V4.766L15.4687 4.58959ZM15.4665 5.65025L15.6429 5.82738L15.4665 5.65025ZM14.4898 5.72086L14.3261 5.90976L14.3331 5.91581L14.3405 5.92132L14.4898 5.72086ZM14.4059 5.64807L14.2288 5.82454L14.2352 5.831L14.2421 5.83697L14.4059 5.64807ZM12.7714 4.008L12.9485 3.83152L12.5214 3.40298V4.008H12.7714ZM11.2782 14.3333L11.0288 14.3501L11.0294 14.3585L11.0305 14.3669L11.2782 14.3333ZM11.2714 14.2315H11.0214V14.2399L11.0219 14.2483L11.2714 14.2315ZM11.2714 4.00632H11.5214V3.40066L11.0942 3.82998L11.2714 4.00632ZM9.63779 5.64798L9.81496 5.82436L9.815 5.82432L9.63779 5.64798ZM8.66142 5.72277L8.49847 5.91237L8.50547 5.91838L8.51289 5.92387L8.66142 5.72277ZM8.57714 5.65034L8.40075 5.82751L8.40724 5.83397L8.41419 5.83994L8.57714 5.65034ZM8.50234 4.67396L8.31274 4.51101L8.30673 4.51801L8.30124 4.52544L8.50234 4.67396ZM8.57478 4.58968L8.39761 4.4133L8.39114 4.41979L8.38518 4.42673L8.57478 4.58968ZM6.23615 7.98912C3.75104 8.1043 1.77148 10.1556 1.77148 12.669H2.27148C2.27148 10.424 4.03979 8.59146 6.2593 8.48859L6.23615 7.98912ZM6.4507 7.98409L6.24194 7.98892L6.2535 8.48879L6.46227 8.48396L6.4507 7.98409ZM7.38948 7.98403H6.45648V8.48403H7.38948V7.98403ZM8.38948 8.98403C8.38948 8.43174 7.94177 7.98403 7.38948 7.98403V8.48403C7.66563 8.48403 7.88948 8.70788 7.88948 8.98403H8.38948ZM7.52486 9.97491C8.01321 9.90866 8.38948 9.49049 8.38948 8.98403H7.88948C7.88948 9.23695 7.70145 9.44637 7.45765 9.47945L7.52486 9.97491ZM7.40626 9.98346L7.50804 9.97662L7.47447 9.47774L7.3727 9.48459L7.40626 9.98346ZM6.45648 9.98403H7.38948V9.48403H6.45648V9.98403ZM3.77605 12.5111C3.85771 11.102 5.02681 9.98403 6.45648 9.98403V9.48403C4.76035 9.48403 3.37378 10.8101 3.27689 12.4821L3.77605 12.5111ZM3.77138 12.6762L3.77636 12.5038L3.27657 12.4894L3.27159 12.6618L3.77138 12.6762ZM3.77148 17.544L3.77148 12.669H3.27148L3.27148 17.544H3.77148ZM6.29852 20.2235C4.88946 20.1418 3.77148 18.9728 3.77148 17.544H3.27148C3.27148 19.2394 4.59777 20.6257 6.2696 20.7226L6.29852 20.2235ZM6.46371 20.2281L6.29128 20.2231L6.27684 20.7229L6.44926 20.7279L6.46371 20.2281ZM17.5865 20.228H6.45648V20.728H17.5865V20.228ZM20.2669 17.7019C20.1853 19.1101 19.0161 20.228 17.5865 20.228V20.728C19.2824 20.728 20.6692 19.4021 20.7661 17.7308L20.2669 17.7019ZM20.2716 17.5368L20.2666 17.7091L20.7664 17.7236L20.7714 17.5513L20.2716 17.5368ZM20.2715 12.659V17.544H20.7715V12.659H20.2715ZM17.7548 9.98857C19.1579 10.0699 20.2715 11.2348 20.2715 12.659H20.7715C20.7715 10.9685 19.4499 9.58603 17.7837 9.48941L17.7548 9.98857ZM17.5903 9.98392L17.762 9.98889L17.7765 9.4891L17.6047 9.48413L17.5903 9.98392ZM16.6545 9.98403H17.5975V9.48403H16.6545V9.98403ZM15.6545 8.98403C15.6545 9.53631 16.1022 9.98403 16.6545 9.98403V9.48403C16.3783 9.48403 16.1545 9.26017 16.1545 8.98403H15.6545ZM16.5191 7.99314C16.0308 8.05939 15.6545 8.47756 15.6545 8.98403H16.1545C16.1545 8.7311 16.3425 8.52168 16.5863 8.48861L16.5191 7.99314ZM16.6377 7.98459L16.5359 7.99144L16.5695 8.49031L16.6713 8.48346L16.6377 7.98459ZM17.5975 7.98403H16.6545V8.48403H17.5975V7.98403ZM22.2661 12.4328C22.148 9.95634 20.1029 7.98403 17.5975 7.98403V8.48403C19.8346 8.48403 21.6612 10.2453 21.7667 12.4566L22.2661 12.4328ZM22.2714 12.6531L22.2663 12.4387L21.7665 12.4506L21.7716 12.665L22.2714 12.6531ZM22.2715 17.544V12.659H21.7715V17.544H22.2715ZM17.8068 22.2229C20.2917 22.1078 22.2715 20.0567 22.2715 17.544H21.7715C21.7715 19.7882 20.003 21.6206 17.7837 21.7235L17.8068 22.2229ZM17.5923 22.228L17.801 22.2231L17.7895 21.7233L17.5807 21.7281L17.5923 22.228ZM6.45648 22.228H17.5865V21.728H6.45648V22.228ZM1.77658 17.7643C1.89177 20.2487 3.94328 22.228 6.45648 22.228V21.728C4.21158 21.728 2.37892 19.9598 2.27604 17.7411L1.77658 17.7643ZM1.77155 17.5498L1.77638 17.7585L2.27625 17.7469L2.27142 17.5382L1.77155 17.5498ZM1.77148 12.669L1.77148 17.544H2.27148V12.669H1.77148ZM12.0214 1.19053C11.7375 1.19053 11.4809 1.30917 11.2991 1.49889L11.6602 1.84475C11.7516 1.7494 11.8794 1.69053 12.0214 1.69053V1.19053ZM12.7491 1.50463C12.5671 1.31156 12.3082 1.19053 12.0214 1.19053V1.69053C12.1648 1.69053 12.2938 1.75058 12.3853 1.84762L12.7491 1.50463ZM12.39 1.85254L15.2916 4.766L15.6458 4.41318L12.7443 1.49971L12.39 1.85254ZM15.2916 4.766C15.4864 4.96166 15.4858 5.27824 15.2901 5.47311L15.6429 5.82738C16.0343 5.43766 16.0356 4.8045 15.6458 4.41317L15.2916 4.766ZM15.2901 5.47311C15.1124 5.65009 14.8345 5.6659 14.6392 5.5204L14.3405 5.92132C14.7315 6.21274 15.287 6.18183 15.6429 5.82738L15.2901 5.47311ZM14.6536 5.53195L14.5696 5.45916L14.2421 5.83697L14.3261 5.90976L14.6536 5.53195ZM14.5829 5.47159L12.9485 3.83152L12.5943 4.18447L14.2288 5.82454L14.5829 5.47159ZM13.0214 14.2315L13.0214 4.008H12.5214L12.5214 14.2315H13.0214ZM12.0214 15.2315C12.5737 15.2315 13.0214 14.7838 13.0214 14.2315H12.5214C12.5214 14.5077 12.2975 14.7315 12.0214 14.7315V15.2315ZM11.0305 14.3669C11.0967 14.8552 11.5149 15.2315 12.0214 15.2315V14.7315C11.7685 14.7315 11.559 14.5435 11.526 14.2997L11.0305 14.3669ZM11.0219 14.2483L11.0288 14.3501L11.5277 14.3165L11.5208 14.2147L11.0219 14.2483ZM11.0214 4.00632L11.0214 14.2315H11.5214L11.5214 4.00632H11.0214ZM11.0942 3.82998L9.46058 5.47163L9.815 5.82432L11.4486 4.18266L11.0942 3.82998ZM9.46062 5.47159C9.28366 5.64934 9.00582 5.66633 8.80994 5.52167L8.51289 5.92387C8.90521 6.2136 9.46057 6.18033 9.81496 5.82436L9.46062 5.47159ZM8.82436 5.53316L8.74008 5.46073L8.41419 5.83994L8.49847 5.91237L8.82436 5.53316ZM8.75352 5.47317C8.57577 5.29621 8.55878 5.01836 8.70345 4.82248L8.30124 4.52544C8.01151 4.91775 8.04478 5.47312 8.40075 5.82751L8.75352 5.47317ZM8.69194 4.8369L8.76438 4.75263L8.38518 4.42673L8.31274 4.51101L8.69194 4.8369ZM8.75195 4.76606L11.6569 1.8482L11.3025 1.49544L8.39761 4.4133L8.75195 4.76606Z" fill="white"/>
</svg>
