<svg width="24" height="12" viewBox="0 0 24 12" fill="none" xmlns="http://www.w3.org/2000/svg">
<path d="M1.5 11.0049L1.895 9.56494C3.2 4.81494 8.8 4.81494 10.105 9.56494L10.5 11.0049" stroke="#176CF7" stroke-width="1.3" stroke-linecap="round" stroke-linejoin="round"/>
<path d="M6 5.995C7.38071 5.995 8.5 4.87571 8.5 3.495C8.5 2.11428 7.38071 0.994995 6 0.994995C4.61929 0.994995 3.5 2.11428 3.5 3.495C3.5 4.87571 4.61929 5.995 6 5.995Z" stroke="#176CF7" stroke-width="1.3" stroke-linecap="round" stroke-linejoin="bevel"/>
<path d="M13.5 11.0049L13.895 9.56494C15.2 4.81494 20.8 4.81494 22.105 9.56494L22.5 11.0049" stroke="#176CF7" stroke-width="1.3" stroke-linecap="round" stroke-linejoin="round"/>
<path d="M18 5.995C19.3807 5.995 20.5 4.87571 20.5 3.495C20.5 2.11428 19.3807 0.994995 18 0.994995C16.6193 0.994995 15.5 2.11428 15.5 3.495C15.5 4.87571 16.6193 5.995 18 5.995Z" stroke="#176CF7" stroke-width="1.3" stroke-linecap="round" stroke-linejoin="bevel"/>
<path d="M10.0376 5.49414H13.9626" stroke="#176CF7" stroke-linecap="round" stroke-linejoin="bevel"/>
<path d="M12.8628 6.88836L13.8903 5.68961C13.9369 5.63496 13.963 5.56104 13.963 5.48399C13.963 5.40693 13.9369 5.33301 13.8903 5.27836L12.8903 4.11169" stroke="#176CF7" stroke-linecap="round" stroke-linejoin="bevel"/>
</svg>
