<svg width="23" height="15" viewBox="0 0 23 15" fill="none" xmlns="http://www.w3.org/2000/svg">
<path d="M2.00009 0.0572998C0.890005 0.302956 0.272391 1.59296 0.673424 2.6758C0.86037 3.1806 1.32807 3.55852 1.34361 4.12816C1.36105 4.76761 0.8944 5.15607 0.572073 5.63239C0.229011 6.13931 0.0145251 6.77456 0.000815038 7.39597C-0.01362 8.05015 0.164056 8.71243 0.504598 9.26329C0.818689 9.77135 1.28918 10.1205 1.34067 10.7675C1.38423 11.3148 0.98331 11.6698 0.763779 12.1161C0.388872 12.8783 0.525358 13.9038 1.15209 14.4865C1.71108 15.0063 2.34987 14.969 3.0501 14.969H6.15011H16.3002H19.4502C19.9563 14.969 20.558 15.0603 21.0502 14.9295C22.1269 14.6434 22.7312 13.3953 22.327 12.3236C22.1375 11.8211 21.6721 11.4393 21.6567 10.8713C21.6384 10.2031 22.1372 9.81741 22.4627 9.31516C22.7968 8.79972 22.9876 8.17303 22.9995 7.55158C23.0119 6.89776 22.8137 6.22568 22.4627 5.68426C22.1508 5.20306 21.7089 4.85169 21.6596 4.2319C21.6163 3.68742 22.0186 3.32921 22.2365 2.88328C22.6347 2.06866 22.4589 0.994642 21.75 0.42096C21.1964 -0.0270406 20.5599 0.0304313 19.9002 0.0304313H16.6502H6.75012H3.6001C3.08962 0.0304313 2.50031 -0.0534426 2.00009 0.0572998Z" fill="#176CF7"/>
<path d="M9.19927 4.20423C8.18856 4.39734 7.96256 5.95043 8.99926 6.31419C9.19012 6.38116 9.45312 6.38256 9.64927 6.33826C10.9052 6.05443 10.4564 3.96407 9.19927 4.20423Z" fill="white"/>
<path d="M13.4499 4.51493C12.8962 4.6307 12.4305 5.34002 12.0499 5.73491L9.84988 8.01719C9.48447 8.39625 9.02557 8.76728 8.73252 9.2102C8.32147 9.83139 8.81727 10.5711 9.49987 10.5015C10.0329 10.4472 10.496 9.73289 10.8499 9.36581L13.0999 7.03166C13.4788 6.63854 13.9605 6.25184 14.2572 5.78678C14.6443 5.17995 14.1506 4.36839 13.4499 4.51493Z" fill="white"/>
<path d="M8.31641 5.0437C8.31348 5.04653 8.3105 5.10088 8.3342 5.07798C8.33713 5.07515 8.34011 5.0208 8.31641 5.0437Z" fill="#FFE6AE"/>
<path d="M13.3009 8.6728C12.0386 9.0513 12.6314 11.1306 13.9009 10.7701C15.01 10.4552 14.8905 8.67073 13.7009 8.64049C13.5683 8.63711 13.4295 8.63426 13.3009 8.6728Z" fill="white"/>
</svg>
