<svg width="24" height="24" viewBox="0 0 24 24" fill="none" xmlns="http://www.w3.org/2000/svg">
<path d="M22 12.1109L19.4 14.9909C18.4627 16.022 17.3203 16.8459 16.0459 17.4097C14.7716 17.9735 13.3935 18.2648 12 18.2648C10.6065 18.2648 9.2284 17.9735 7.95406 17.4097C6.67971 16.8459 5.53727 16.022 4.6 14.9909L2 12.1109L4.32 9.33085C5.2585 8.20544 6.43287 7.30004 7.76001 6.67872C9.08715 6.05741 10.5346 5.73535 12 5.73535C13.4654 5.73535 14.9128 6.05741 16.24 6.67872C17.5671 7.30004 18.7415 8.20544 19.68 9.33085L22 12.1109Z" stroke="#E28643" stroke-width="1.5" stroke-linecap="round" stroke-linejoin="round"/>
<path d="M12.09 14.251C13.5259 14.251 14.69 13.1317 14.69 11.751C14.69 10.3703 13.5259 9.25098 12.09 9.25098C10.654 9.25098 9.48999 10.3703 9.48999 11.751C9.48999 13.1317 10.654 14.251 12.09 14.251Z" stroke="#E28643" stroke-width="1.5" stroke-linecap="round" stroke-linejoin="bevel"/>
</svg>
