<svg width="24" height="24" viewBox="0 0 24 24" fill="none" xmlns="http://www.w3.org/2000/svg">
<path d="M22 12.111L19.4 14.991C18.4627 16.0222 17.3203 16.8461 16.0459 17.4099C14.7716 17.9737 13.3935 18.2649 12 18.2649C10.6065 18.2649 9.2284 17.9737 7.95406 17.4099C6.67971 16.8461 5.53727 16.0222 4.6 14.991L2 12.111L4.32 9.33101C5.2585 8.2056 6.43287 7.3002 7.76001 6.67888C9.08715 6.05756 10.5346 5.7355 12 5.7355C13.4654 5.7355 14.9128 6.05756 16.24 6.67888C17.5671 7.3002 18.7415 8.2056 19.68 9.33101L22 12.111Z" stroke="#176CF7" stroke-width="1.5" stroke-linecap="round" stroke-linejoin="round"/>
<path d="M12.09 14.251C13.5259 14.251 14.69 13.1317 14.69 11.751C14.69 10.3703 13.5259 9.25101 12.09 9.25101C10.654 9.25101 9.48999 10.3703 9.48999 11.751C9.48999 13.1317 10.654 14.251 12.09 14.251Z" stroke="#176CF7" stroke-width="1.5" stroke-linecap="round" stroke-linejoin="bevel"/>
</svg>
