<svg width="24" height="25" viewBox="0 0 24 25" fill="none" xmlns="http://www.w3.org/2000/svg">
<path fill-rule="evenodd" clip-rule="evenodd" d="M9.01575 4.51916C6.62928 4.66906 4.80014 5.3305 4.20677 6.25809C3.98609 6.60309 4.00018 6.17722 4.00018 12.5C4.00018 18.8228 3.98609 18.3969 4.20677 18.7419C4.66561 19.4592 5.87178 20.0299 7.51589 20.3077C8.34382 20.4476 8.78506 20.4806 9.84386 20.4819C11.036 20.4834 11.7208 20.4218 12.6313 20.2312C14.2934 19.8831 15.4041 19.2334 15.6668 18.4554C15.7145 18.3139 15.7188 17.8286 15.7188 12.5C15.7188 7.17144 15.7145 6.68609 15.6668 6.54463C15.3373 5.56891 13.753 4.83997 11.3907 4.57719C10.9738 4.53081 9.43053 4.49309 9.01575 4.51916ZM16.4219 4.53609C16.3875 4.55488 16.3419 4.59231 16.3204 4.61922C16.2894 4.65809 16.2813 6.27906 16.2813 12.4878C16.2813 16.7886 16.29 20.3302 16.3007 20.358C16.3537 20.4961 16.4053 20.5 18.1571 20.5H19.8173L19.9087 20.4087L20 20.3173V12.5V4.68269L19.9087 4.59134L19.8173 4.5L18.1509 4.50094C17.0051 4.50159 16.4649 4.51259 16.4219 4.53609ZM11.3282 5.11041C12.9863 5.29922 14.2179 5.71197 14.8684 6.29684C15.4745 6.84172 15.2084 7.45431 14.1419 7.96941C13.0702 8.487 11.6363 8.75087 9.89074 8.75166C8.70428 8.75219 7.90704 8.66831 6.93446 8.44062C5.82488 8.18091 4.91064 7.69766 4.6332 7.22422C4.46258 6.93306 4.53586 6.62031 4.84392 6.32506C5.05042 6.12713 5.19857 6.02806 5.56266 5.84447C6.38819 5.42822 7.6642 5.13997 9.07825 5.05028C9.48249 5.02466 10.9102 5.06281 11.3282 5.11041ZM19.4688 12.5V19.9688H18.1406H16.8125V19.5625V19.1562H17.1264C17.4181 19.1562 17.4458 19.1508 17.5171 19.0795C17.6164 18.9802 17.6169 18.8429 17.5184 18.7283C17.4465 18.6447 17.4284 18.6401 17.1278 18.6299L16.8125 18.6192V18.0908V17.5625H17.3861C17.9516 17.5625 17.9608 17.5614 18.0423 17.4859C18.1328 17.402 18.1532 17.2425 18.085 17.1535C18.0024 17.0461 17.9148 17.0312 17.3615 17.0312H16.8125V16.5V15.9688H17.0958C17.4696 15.9688 17.5907 15.9032 17.5928 15.6996C17.5934 15.6352 17.5659 15.5744 17.5114 15.5199C17.4335 15.442 17.4122 15.4375 17.1208 15.4375H16.8125V14.9082V14.3789L17.3882 14.3691C17.9481 14.3597 17.9661 14.3573 18.0445 14.2836C18.1519 14.1826 18.1536 14.0257 18.0483 13.9205C17.9724 13.8445 17.9657 13.8438 17.3921 13.8438H16.8125V13.3161V12.7885L17.1288 12.7758C17.4282 12.7638 17.4491 12.7585 17.5194 12.6767C17.6143 12.5664 17.6143 12.4336 17.5194 12.3233C17.4491 12.2415 17.4282 12.2362 17.1288 12.2242L16.8125 12.2115V11.6839V11.1562H17.3921C17.9657 11.1562 17.9724 11.1555 18.0483 11.0795C18.1536 10.9743 18.1519 10.8174 18.0445 10.7164C17.9661 10.6427 17.9481 10.6403 17.3882 10.6309L16.8125 10.6211V10.0918V9.5625H17.1208C17.4122 9.5625 17.4335 9.558 17.5114 9.48012C17.5659 9.42559 17.5934 9.36481 17.5928 9.30044C17.5907 9.09684 17.4696 9.03125 17.0958 9.03125H16.8125V8.5V7.96875H17.3615C17.9148 7.96875 18.0024 7.95394 18.085 7.84647C18.1532 7.75753 18.1328 7.59797 18.0423 7.51413C17.9608 7.43856 17.9516 7.4375 17.3861 7.4375H16.8125V6.90919V6.38084L17.1278 6.37013C17.4284 6.35988 17.4465 6.35531 17.5184 6.27169C17.6169 6.15709 17.6164 6.01978 17.5171 5.92047C17.4458 5.84919 17.4181 5.84375 17.1264 5.84375H16.8125V5.4375V5.03125H18.1406H19.4688V12.5ZM5.04704 8.2985C5.85582 8.77741 7.17243 9.12344 8.672 9.25122C9.24943 9.30044 10.607 9.29294 11.2032 9.23725C12.8423 9.08413 14.2289 8.67106 14.9627 8.11737C15.071 8.03562 15.1659 7.96875 15.1736 7.96875C15.1813 7.96875 15.1874 10.2855 15.1873 13.1172L15.187 18.2656L15.0953 18.4255C14.7022 19.1109 13.2732 19.6636 11.297 19.8947C10.6393 19.9716 9.07978 19.9717 8.42319 19.8948C7.15458 19.7463 6.24728 19.5062 5.49891 19.121C5.13545 18.9339 4.81848 18.6944 4.68877 18.5088C4.52671 18.2769 4.53427 18.541 4.5328 13.0526L4.53142 7.93331L4.66424 8.04191C4.73727 8.10163 4.90955 8.21709 5.04704 8.2985Z" fill="#176CF7"/>
</svg>
