<svg width="296" height="40" viewBox="0 0 296 40" fill="none" xmlns="http://www.w3.org/2000/svg">
<path fill-rule="evenodd" clip-rule="evenodd" d="M0 3C0 1.34315 1.34315 0 3 0H145H293C294.657 0 296 1.34315 296 3V13.0189C295.835 13.0064 295.668 13 295.5 13C291.91 13 289 15.9101 289 19.5C289 23.0899 291.91 26 295.5 26C295.668 26 295.835 25.9936 296 25.9811V37C296 38.6569 294.657 40 293 40H145H3C1.34315 40 0 38.6569 0 37V25.9811C0.165021 25.9936 0.331764 26 0.5 26C4.08985 26 7 23.0899 7 19.5C7 15.9101 4.08985 13 0.5 13C0.331764 13 0.165021 13.0064 0 13.0189V3Z" fill="#C6CBD4" fill-opacity="0.4"/>
</svg>
