<svg width="12" height="12" viewBox="0 0 12 12" fill="none" xmlns="http://www.w3.org/2000/svg">
<g clip-path="url(#clip0_2963_17025)">
<path fill-rule="evenodd" clip-rule="evenodd" d="M4.42115 2.20354L3.06932 1.8478C2.32871 1.6529 1.65286 2.32876 1.84776 3.06937L2.2035 4.4212L0.99613 5.1255C0.334623 5.5114 0.334624 6.4672 0.99613 6.85305L2.2035 7.55735L1.84776 8.9092C1.65286 9.6498 2.32872 10.3256 3.06933 10.1307L4.42114 9.775L5.1255 10.9824C5.51135 11.6439 6.46715 11.6439 6.85305 10.9824L7.55735 9.77505L8.90915 10.1307C9.64975 10.3256 10.3256 9.6498 10.1307 8.9092L9.775 7.5574L10.9824 6.85305C11.6439 6.4672 11.6439 5.5114 10.9824 5.1255L9.775 4.42115L10.1307 3.06935C10.3256 2.32874 9.64975 1.65289 8.90915 1.84779L7.55735 2.20352L6.85305 0.99613C6.46715 0.334623 5.51135 0.334624 5.1255 0.99613L4.42115 2.20354Z" fill="#176CF7"/>
<path d="M5.4032 7.49825C5.3097 7.49675 5.2202 7.46375 5.1526 7.4058L3.61359 6.0887C3.57849 6.05885 3.55038 6.023 3.53089 5.9833C3.5114 5.94355 3.50091 5.9008 3.50006 5.8574C3.4992 5.81405 3.50797 5.77095 3.52588 5.73065C3.54378 5.69035 3.57046 5.6536 3.60435 5.62265C3.67319 5.55975 3.76688 5.5236 3.86518 5.52205C3.96349 5.5205 4.05854 5.55365 4.1298 5.61435L5.40015 6.70105L7.84535 4.11682C7.9092 4.05028 7.99955 4.00879 8.09715 4.00124C8.1947 3.9937 8.2917 4.0207 8.3673 4.07646C8.40465 4.10408 8.43545 4.13807 8.458 4.17645C8.4805 4.21483 8.4943 4.25684 8.4986 4.30004C8.50285 4.34325 8.4975 4.38677 8.4828 4.4281C8.46815 4.46943 8.44445 4.50774 8.41315 4.5408L5.7254 7.38235C5.69035 7.41935 5.64665 7.44905 5.59745 7.46935C5.5483 7.48965 5.49475 7.5001 5.44055 7.5C5.4281 7.5 5.41565 7.4994 5.4032 7.49825Z" fill="white"/>
</g>
<defs>
<clipPath id="clip0_2963_17025">
<rect width="12" height="12" fill="white"/>
</clipPath>
</defs>
</svg>
