<svg width="20" height="20" viewBox="0 0 20 20" fill="none" xmlns="http://www.w3.org/2000/svg">
<path d="M17 2.89223C15.2986 1.19614 13.0399 0.175778 10.6435 0.0206907C8.24709 -0.134397 5.8759 0.586334 3.97041 2.04899C2.06492 3.51165 0.754678 5.61681 0.283076 7.97338C-0.188525 10.33 0.21058 12.7778 1.40625 14.862L0 20L5.25 18.6239C6.70285 19.4167 8.33147 19.8314 9.98625 19.8299H10C12.6369 19.83 15.167 18.7877 17.0399 16.93C18.9127 15.0723 19.9766 12.5494 20 9.91048C19.9857 8.60067 19.7134 7.30655 19.1986 6.10224C18.6838 4.89793 17.9367 3.8071 17 2.89223ZM10 18.1547C8.5236 18.1559 7.07411 17.7592 5.80375 17.0063L5.5 16.8274L2.38375 17.6456L3.21375 14.6031L3.0175 14.2903C2.36086 13.2044 1.96322 11.9816 1.85548 10.7169C1.74773 9.45216 1.93278 8.17962 2.39624 6.99811C2.8597 5.8166 3.5891 4.75794 4.52776 3.90437C5.46643 3.05081 6.58909 2.42532 7.80852 2.07651C9.02795 1.7277 10.3113 1.66497 11.5589 1.89317C12.8065 2.12137 13.9847 2.63438 15.002 3.39232C16.0194 4.15026 16.8484 5.13274 17.4247 6.26342C18.001 7.3941 18.3091 8.64253 18.325 9.91173C18.3003 12.1056 17.4125 14.2014 15.8541 15.7444C14.2956 17.2875 12.1922 18.1536 10 18.1547ZM14.5175 11.9797C14.2675 11.8546 13.0538 11.2553 12.825 11.1753C12.5963 11.0952 12.4325 11.0502 12.2675 11.3004C12.1025 11.5506 11.6288 12.1048 11.4813 12.2749C11.3338 12.4451 11.1912 12.4626 10.945 12.3375C9.51702 11.7684 8.32623 10.728 7.57 9.3888C7.32 8.95094 7.82 8.98222 8.2975 8.03519C8.32965 7.96677 8.34443 7.89145 8.3405 7.81594C8.33657 7.74043 8.31408 7.66705 8.275 7.60234C8.2125 7.47724 7.7175 6.25749 7.51125 5.76208C7.305 5.26667 7.105 5.34674 6.95375 5.33798C6.8025 5.32922 6.64625 5.32922 6.48 5.32922C6.35461 5.33256 6.23125 5.36159 6.11751 5.41453C6.00378 5.46746 5.9021 5.54317 5.81875 5.63698C5.53888 5.9029 5.31734 6.22418 5.16821 6.58041C5.01908 6.93663 4.94562 7.32001 4.9525 7.70617C5.03416 8.64062 5.38453 9.53138 5.96125 10.2708C7.02467 11.8643 8.48302 13.1545 10.1937 14.0151C11.0924 14.5373 12.1349 14.7566 13.1675 14.6406C13.5124 14.5707 13.839 14.4297 14.1265 14.2266C14.414 14.0235 14.6561 13.7627 14.8375 13.4609C14.999 13.09 15.0485 12.6799 14.98 12.2812C14.9237 12.1636 14.7587 12.101 14.5138 11.9797H14.5175Z" fill="#176CF7"/>
</svg>
