<svg width="22" height="22" viewBox="0 0 22 22" fill="none" xmlns="http://www.w3.org/2000/svg">
<rect width="22" height="22" rx="8" fill="url(#paint0_radial_6814_46901)"/>
<g clip-path="url(#clip0_6814_46901)">
<path d="M16.4561 5.53774C15.0084 4.09543 13.0835 3.30068 11.0325 3.2998C6.8062 3.2998 3.36684 6.72294 3.36515 10.9304C3.36466 12.2754 3.71763 13.5883 4.38853 14.7455L3.30078 18.6998L7.36533 17.6387C8.48519 18.2468 9.74608 18.5672 11.0292 18.5677H11.0325H11.0325C15.2581 18.5677 18.698 15.1439 18.6998 10.9366C18.7005 8.89747 17.9036 6.98016 16.4561 5.53774ZM11.0325 17.2788H11.03C9.8863 17.2782 8.76474 16.9725 7.78646 16.3946L7.55365 16.2572L5.14166 16.8868L5.78563 14.5463L5.63394 14.3064C4.99597 13.2964 4.65918 12.1293 4.65965 10.9309C4.66106 7.43379 7.51972 4.5887 11.0349 4.5887C12.7372 4.5894 14.3371 5.25 15.5403 6.44881C16.7435 7.6476 17.4057 9.24124 17.4052 10.9361C17.4037 14.4334 14.5449 17.2788 11.0325 17.2788Z" fill="white"/>
<path fill-rule="evenodd" clip-rule="evenodd" d="M9.13664 7.69055C8.99479 7.37656 8.84544 7.37027 8.71049 7.36478C8.60011 7.36007 8.47374 7.36036 8.34757 7.36036C8.2213 7.36036 8.01611 7.4076 7.8426 7.59627C7.66898 7.78494 7.17969 8.24103 7.17969 9.16866C7.17969 10.0964 7.85838 10.9928 7.95298 11.1187C8.04768 11.2444 9.26311 13.2088 11.188 13.9646C12.7878 14.5927 13.1133 14.4677 13.4606 14.4363C13.8078 14.4049 14.581 13.9803 14.7388 13.54C14.8967 13.0998 14.8967 12.7225 14.8493 12.6436C14.802 12.565 14.6757 12.5179 14.4863 12.4236C14.2969 12.3293 13.3659 11.8731 13.1922 11.8103C13.0186 11.7474 12.8923 11.716 12.7661 11.9048C12.6398 12.0933 12.2771 12.5179 12.1666 12.6436C12.0561 12.7696 11.9456 12.7853 11.7562 12.691C11.5668 12.5965 10.9569 12.3976 10.2333 11.7553C9.67033 11.2556 9.29024 10.6384 9.17975 10.4496C9.06927 10.2611 9.16791 10.1589 9.26291 10.0649C9.34794 9.98046 9.45232 9.84483 9.54702 9.73473C9.64152 9.62463 9.67308 9.54606 9.73622 9.42034C9.79935 9.29443 9.76778 9.18434 9.72043 9.09006C9.67308 8.99578 9.30504 8.06337 9.13664 7.69055Z" fill="white"/>
</g>
<defs>
<radialGradient id="paint0_radial_6814_46901" cx="0" cy="0" r="1" gradientUnits="userSpaceOnUse" gradientTransform="translate(11 11) rotate(90) scale(11)">
<stop stop-color="#2FF150"/>
<stop offset="1" stop-color="#14CB33" stop-opacity="0.92"/>
</radialGradient>
<clipPath id="clip0_6814_46901">
<rect width="15.4" height="15.4" fill="white" transform="translate(3.30078 3.2998)"/>
</clipPath>
</defs>
</svg>
