<svg width="24" height="24" viewBox="0 0 24 24" fill="none" xmlns="http://www.w3.org/2000/svg">
<g clip-path="url(#clip0_1153_31690)">
<path d="M20.5023 3.48769C18.2462 1.23993 15.2462 0.00137141 12.0499 0C5.46348 0 0.103444 5.33475 0.100808 11.8919C0.10004 13.9879 0.650124 16.034 1.69568 17.8375L0.000488281 24L6.33485 22.3464C8.08009 23.294 10.0451 23.7933 12.0448 23.7941H12.0499H12.0499C18.6353 23.7941 23.9961 18.4584 23.9989 11.9016C24 8.72364 22.7582 5.73561 20.5023 3.48769ZM12.0499 21.7855H12.046C10.2636 21.7846 8.51574 21.3081 6.99116 20.4075L6.62833 20.1933L2.86939 21.1745L3.87297 17.527L3.63658 17.1531C2.64234 15.5792 2.11747 13.7603 2.11821 11.8927C2.1204 6.44257 6.57545 2.00867 12.0537 2.00867C14.7065 2.00976 17.1999 3.03926 19.0751 4.90753C20.9502 6.77579 21.9821 9.25937 21.9813 11.9007C21.979 17.351 17.5238 21.7855 12.0499 21.7855Z" fill="#E0E0E0"/>
<path d="M0.549377 23.316L2.16714 17.435C1.16908 15.7139 0.644226 13.7612 0.644856 11.7613C0.647473 5.50375 5.76271 0.412842 12.0477 0.412842C15.0982 0.414213 17.9612 1.59613 20.1138 3.74127C22.2668 5.8864 23.4518 8.73773 23.4506 11.7701C23.448 18.0278 18.3324 23.1192 12.0482 23.1192C12.0477 23.1192 12.0485 23.1192 12.0482 23.1192H12.0431C10.1348 23.1186 8.25968 22.6416 6.59427 21.738L0.549377 23.316Z" fill="#38BE4B"/>
<path fill-rule="evenodd" clip-rule="evenodd" d="M9.09918 6.84321C8.87811 6.35387 8.64536 6.34408 8.43504 6.33551C8.26301 6.32817 8.06607 6.32862 7.86945 6.32862C7.67267 6.32862 7.3529 6.40224 7.08248 6.69627C6.81191 6.9903 6.04938 7.70111 6.04938 9.14675C6.04938 10.5925 7.10708 11.9895 7.25451 12.1857C7.40209 12.3817 9.29627 15.4431 12.2961 16.6209C14.7892 17.5998 15.2966 17.4051 15.8377 17.3561C16.3789 17.3071 17.5839 16.6454 17.8298 15.9593C18.0758 15.2732 18.0758 14.6852 18.002 14.5623C17.9282 14.4398 17.7314 14.3664 17.4363 14.2194C17.1411 14.0725 15.6901 13.3615 15.4196 13.2636C15.149 13.1656 14.9522 13.1166 14.7554 13.4108C14.5586 13.7047 13.9934 14.3664 13.8212 14.5623C13.649 14.7586 13.4768 14.7831 13.1816 14.6362C12.8865 14.4888 11.9359 14.1788 10.8083 13.1778C9.9309 12.3991 9.33854 11.4372 9.16636 11.1431C8.99418 10.8492 9.1479 10.69 9.29596 10.5435C9.42847 10.4119 9.59113 10.2005 9.73872 10.0289C9.88599 9.85736 9.93519 9.73491 10.0336 9.53899C10.132 9.34276 10.0828 9.1712 10.009 9.02426C9.93519 8.87733 9.36161 7.42422 9.09918 6.84321Z" fill="white"/>
<path d="M20.4052 3.44987C18.1749 1.22791 15.2094 0.00358827 12.0498 0.00219727C5.53895 0.00219727 0.240447 5.2757 0.23783 11.7576C0.237063 13.8296 0.780829 15.8521 1.81439 17.6349L0.138672 23.7267L6.40032 22.092C8.12555 23.0287 10.068 23.5223 12.0447 23.5231H12.0497H12.0498C18.5596 23.5231 23.8588 18.2487 23.8616 11.7671C23.8627 8.62571 22.6351 5.67198 20.4052 3.44987ZM12.0498 21.5376H12.046C10.284 21.5367 8.55616 21.0658 7.04909 20.1754L6.69042 19.9637L2.97463 20.9337L3.96668 17.3281L3.73301 16.9584C2.75018 15.4026 2.23133 13.6046 2.23209 11.7584C2.23424 6.37085 6.63815 1.98784 12.0535 1.98784C14.6759 1.98892 17.1406 3.00661 18.9944 4.85343C20.8479 6.70025 21.868 9.15531 21.8672 11.7664C21.8649 17.154 17.4608 21.5376 12.0498 21.5376Z" fill="white"/>
</g>
<defs>
<clipPath id="clip0_1153_31690">
<rect width="24" height="24" fill="white"/>
</clipPath>
</defs>
</svg>
