<svg width="18" height="18" viewBox="0 0 18 18" fill="none" xmlns="http://www.w3.org/2000/svg">
<path d="M0 9C0 6.48639 0 5.22959 0.353535 4.21924C0.986761 2.40959 2.40959 0.986761 4.21924 0.353535C5.22959 0 6.48639 0 9 0C11.5136 0 12.7704 0 13.7808 0.353535C15.5904 0.986761 17.0132 2.40959 17.6465 4.21924C18 5.22959 18 6.48639 18 9C18 11.5136 18 12.7704 17.6465 13.7808C17.0132 15.5904 15.5904 17.0132 13.7808 17.6465C12.7704 18 11.5136 18 9 18C6.48639 18 5.22959 18 4.21924 17.6465C2.40959 17.0132 0.986761 15.5904 0.353535 13.7808C0 12.7704 0 11.5136 0 9Z" fill="url(#paint0_linear_991_34010)"/>
<path d="M13.2509 4.74386C12.1229 3.61997 10.6229 3.00069 9.02472 3.00001C5.7315 3.00001 3.05148 5.66738 3.05016 8.94597C3.04978 9.99398 3.32482 11.017 3.8476 11.9188L3 15L6.16718 14.1732C7.0398 14.647 8.02231 14.8967 9.02215 14.8971H9.02469C12.3174 14.8971 14.9978 12.2292 14.9992 8.95078C14.9998 7.36183 14.3789 5.86781 13.2509 4.74386ZM9.02472 13.8928H9.02278C8.13157 13.8923 7.25763 13.6541 6.49533 13.2037L6.31392 13.0967L4.43445 13.5873L4.93624 11.7635L4.81805 11.5766C4.32093 10.7896 4.05849 9.88017 4.05886 8.94635C4.05995 6.2213 6.28748 4.00434 9.0266 4.00434C10.353 4.00489 11.5997 4.51964 12.5373 5.45378C13.4749 6.3879 13.9908 7.6297 13.9904 8.95036C13.9893 11.6755 11.7617 13.8928 9.02472 13.8928Z" fill="white"/>
<path fill-rule="evenodd" clip-rule="evenodd" d="M7.54851 6.42126C7.43797 6.17659 7.3216 6.17169 7.21644 6.16741C7.13042 6.16374 7.03195 6.16396 6.93364 6.16396C6.83525 6.16396 6.67537 6.20078 6.54016 6.34779C6.40487 6.49481 6.0236 6.85021 6.0236 7.57303C6.0236 8.29593 6.55246 8.99442 6.62617 9.09252C6.69996 9.19048 7.64705 10.7212 9.14697 11.3101C10.3935 11.7995 10.6472 11.7022 10.9178 11.6777C11.1884 11.6532 11.7908 11.3224 11.9138 10.9793C12.0368 10.6363 12.0368 10.3423 11.9999 10.2808C11.963 10.2196 11.8646 10.1828 11.7171 10.1094C11.5695 10.0359 10.844 9.68042 10.7087 9.63144C10.5734 9.58246 10.475 9.55797 10.3766 9.70506C10.2782 9.852 9.9956 10.1828 9.9095 10.2808C9.82341 10.379 9.73732 10.3912 9.58973 10.3178C9.44215 10.2441 8.96687 10.0891 8.40305 9.58857C7.96437 9.19919 7.66819 8.71828 7.5821 8.57119C7.496 8.42425 7.57287 8.34466 7.6469 8.27142C7.71315 8.2056 7.79448 8.09992 7.86828 8.01412C7.94191 7.92833 7.96651 7.86711 8.0157 7.76915C8.0649 7.67104 8.0403 7.58526 8.00341 7.51179C7.96651 7.43832 7.67972 6.71176 7.54851 6.42126Z" fill="white"/>
<defs>
<linearGradient id="paint0_linear_991_34010" x1="0" y1="0" x2="18" y2="18" gradientUnits="userSpaceOnUse">
<stop stop-color="#37DD57"/>
<stop offset="1" stop-color="#33CA50"/>
</linearGradient>
</defs>
</svg>
