<svg width="30" height="30" viewBox="0 0 30 30" fill="none" xmlns="http://www.w3.org/2000/svg">
<rect width="30" height="30" rx="2" fill="#27CF23"/>
<path d="M13.0084 19L10.4484 15.26L12.6884 11.92H10.6984L9.39844 14.12L8.07844 11.92H6.01844L8.29844 15.26L5.81844 19H7.85844L9.34844 16.5L10.8984 19H13.0084ZM18.1197 19V17.51H15.3797V11.92H13.6597V19H18.1197ZM23.7534 12.61C23.1334 12.04 22.2334 11.74 21.4334 11.74C20.1134 11.74 18.6934 12.39 18.6934 13.96C18.6934 15.24 19.6034 15.7 20.5034 15.99C21.4334 16.29 21.9734 16.46 21.9734 17C21.9734 17.57 21.5134 17.77 20.9934 17.77C20.4334 17.77 19.8034 17.45 19.4634 17.02L18.3434 18.16C18.9634 18.81 19.9834 19.18 20.9934 19.18C22.3934 19.18 23.7034 18.45 23.7034 16.82C23.7034 15.41 22.4634 15 21.5034 14.69C20.8334 14.48 20.4134 14.33 20.4134 13.86C20.4134 13.3 20.9634 13.15 21.4034 13.15C21.8434 13.15 22.3734 13.39 22.6634 13.76L23.7534 12.61Z" fill="white"/>
</svg>
