<svg width="18" height="18" viewBox="0 0 18 18" fill="none" xmlns="http://www.w3.org/2000/svg">
<g clip-path="url(#clip0_1_64476)">
<path d="M14.25 4.86749V14.25C14.25 15.075 13.575 15.75 12.75 15.75H5.25C4.425 15.75 3.75 15.075 3.75 14.25V4.86749C3.75 4.04249 4.425 3.36749 5.25 3.36749H6.5175V3.93749C6.5175 4.24499 6.84 4.49249 7.2225 4.49249H10.77C11.1525 4.49249 11.4825 4.24499 11.4825 3.93749V3.36749H12.75C13.575 3.36749 14.25 4.04249 14.25 4.86749Z" stroke="#176CF7" stroke-linecap="round" stroke-linejoin="round"/>
<path d="M11.4826 2.805V3.9375C11.4826 4.245 11.1526 4.4925 10.7701 4.4925H7.22258C6.84008 4.4925 6.51758 4.245 6.51758 3.9375V2.805C6.51758 2.4975 6.84008 2.25 7.22258 2.25H10.7701C11.1601 2.25 11.4826 2.4975 11.4826 2.805Z" stroke="#176CF7" stroke-linecap="round" stroke-linejoin="round"/>
<path d="M5.76758 7.17001L6.28508 7.63501L7.32758 6.69751" stroke="#176CF7" stroke-linecap="round" stroke-linejoin="round"/>
<path d="M11.64 12.9825H9.08252" stroke="#176CF7" stroke-linecap="round" stroke-linejoin="round"/>
<path d="M6.73511 12.795H6.36011V13.17H6.73511V12.795Z" stroke="#176CF7" stroke-linecap="round" stroke-linejoin="round"/>
<path d="M11.64 10.0725H9.08252" stroke="#176CF7" stroke-linecap="round" stroke-linejoin="round"/>
<path d="M6.73511 9.88501H6.36011V10.26H6.73511V9.88501Z" stroke="#176CF7" stroke-linecap="round" stroke-linejoin="round"/>
<path d="M11.64 7.16998H9.08252" stroke="#176CF7" stroke-linecap="round" stroke-linejoin="round"/>
</g>
<defs>
<clipPath id="clip0_1_64476">
<rect width="18" height="18" fill="white"/>
</clipPath>
</defs>
</svg>
