<svg width="62" height="62" viewBox="0 0 62 62" fill="none" xmlns="http://www.w3.org/2000/svg">
<rect width="62" height="62" rx="31" fill="white"/>
<path d="M21.9592 40.3032V21.6968C21.9478 21.2912 22.0494 20.8901 22.2535 20.5356C22.4575 20.1811 22.7565 19.8863 23.119 19.6821C23.4815 19.4779 23.8941 19.3718 24.3136 19.3751C24.7331 19.3783 25.1439 19.4907 25.503 19.7005L41.5472 29.0414C41.8771 29.2413 42.149 29.519 42.3376 29.8484C42.5261 30.1778 42.625 30.5481 42.625 30.9247C42.625 31.3012 42.5261 31.6715 42.3376 32.0009C42.149 32.3304 41.8771 32.608 41.5472 32.8079L25.503 42.2995C25.1439 42.5093 24.7331 42.6217 24.3136 42.6249C23.8941 42.6282 23.4815 42.5221 23.119 42.3179C22.7565 42.1137 22.4575 41.8189 22.2535 41.4644C22.0494 41.1099 21.9478 40.7088 21.9592 40.3032Z" fill="#176CF7" stroke="#176CF7" stroke-width="1.5" stroke-linecap="round" stroke-linejoin="round"/>
</svg>
