<svg width="21" height="20" viewBox="0 0 21 20" fill="none" xmlns="http://www.w3.org/2000/svg">
<path fill-rule="evenodd" clip-rule="evenodd" d="M6.53773 10.5221C6.39667 10.3863 6.30924 10.1989 6.30998 9.99173C6.30998 9.57737 6.65822 9.2422 7.08875 9.2422L14.13 9.2422C14.5605 9.2422 14.9088 9.57737 14.9088 9.99173C14.9088 10.4061 14.5605 10.7413 14.13 10.7413L7.08875 10.7413C6.87348 10.742 6.67879 10.6578 6.53773 10.5221Z" fill="#F71717"/>
<path fill-rule="evenodd" clip-rule="evenodd" d="M6.10472 1.5C3.47604 1.5 1.77726 3.233 1.77726 5.916V14.084C1.77726 16.767 3.47604 18.5 6.10472 18.5H15.1108C17.7406 18.5 19.4404 16.767 19.4404 14.084V5.916C19.4404 3.233 17.7406 1.5 15.1119 1.5H6.10472ZM15.1108 20H6.10472C2.58353 20 0.21875 17.622 0.21875 14.084V5.916C0.21875 2.378 2.58353 0 6.10472 0H15.1119C18.6331 0 20.9989 2.378 20.9989 5.916V14.084C20.9989 17.622 18.6331 20 15.1108 20Z" fill="#F71717"/>
</svg>
