<svg width="18" height="18" viewBox="0 0 18 18" fill="none" xmlns="http://www.w3.org/2000/svg">
<path fill-rule="evenodd" clip-rule="evenodd" d="M16.4281 4.24297C16.8186 4.63349 16.8186 5.26666 16.4281 5.65718L9.71166 12.3736C9.5241 12.5612 9.26972 12.6665 9.00448 12.6665C8.73924 12.6665 8.48488 12.5611 8.29735 12.3735L4.94002 9.01531C4.54954 8.62473 4.54963 7.99157 4.9402 7.60109C5.33078 7.21062 5.96394 7.21071 6.35442 7.60128L9.00464 10.2522L15.0139 4.24297C15.4044 3.85244 16.0376 3.85244 16.4281 4.24297Z" fill="#3ECD00"/>
<path d="M17 9C17 13.4187 13.4187 17 9 17C4.58133 17 1 13.4187 1 9C1 4.58133 4.58133 1 9 1C10.2916 1 11.5076 1.31378 12.5876 1.85689" stroke="#3ECD00" stroke-linecap="round" stroke-linejoin="round"/>
</svg>
