<svg width="24" height="24" viewBox="0 0 24 24" fill="none" xmlns="http://www.w3.org/2000/svg">
<path fill-rule="evenodd" clip-rule="evenodd" d="M19.2531 17.9205H5.06657L7.31229 6.69539C7.5364 5.57485 8.14181 4.56657 9.02554 3.84208C9.90926 3.1176 11.0167 2.72168 12.1594 2.72168V2.72168C13.3022 2.72168 14.4096 3.1176 15.2933 3.84208C16.177 4.56657 16.7825 5.57485 17.0066 6.69539L19.2531 17.9205Z" stroke="white" stroke-width="2" stroke-linecap="round" stroke-linejoin="round"/>
<path d="M3.24341 18.1621H21.4054" stroke="white" stroke-width="2" stroke-linecap="round" stroke-linejoin="round"/>
<path d="M15.1997 17.9209C15.1997 18.7271 14.8794 19.5003 14.3094 20.0704C13.7393 20.6405 12.9661 20.9608 12.1599 20.9608C11.3536 20.9608 10.5804 20.6405 10.0103 20.0704C9.44026 19.5003 9.12 18.7271 9.12 17.9209" stroke="white" stroke-width="2" stroke-linecap="round" stroke-linejoin="round"/>
</svg>
