<svg width="21" height="20" viewBox="0 0 21 20" fill="none" xmlns="http://www.w3.org/2000/svg">
<path fill-rule="evenodd" clip-rule="evenodd" d="M6.32145 10.5221C6.18568 10.3863 6.10154 10.1989 6.10225 9.99173C6.10225 9.57737 6.43741 9.2422 6.85178 9.2422H13.6287C14.0431 9.2422 14.3782 9.57737 14.3782 9.99173C14.3782 10.4061 14.0431 10.7413 13.6287 10.7413H6.85178C6.6446 10.742 6.45721 10.6578 6.32145 10.5221Z" fill="#176CF7"/>
<path fill-rule="evenodd" clip-rule="evenodd" d="M9.7092 13.913C9.57343 13.7772 9.48929 13.5898 9.48999 13.3826L9.4907 6.59937C9.4907 6.185 9.82587 5.84984 10.2402 5.84984C10.6553 5.85054 10.9905 6.18571 10.9898 6.59937L10.9891 13.3826C10.9891 13.797 10.6539 14.1322 10.2395 14.1322C10.0323 14.1329 9.84425 14.048 9.7092 13.913Z" fill="#176CF7"/>
<path fill-rule="evenodd" clip-rule="evenodd" d="M5.90523 1.5C3.37523 1.5 1.74023 3.233 1.74023 5.916V14.084C1.74023 16.767 3.37523 18.5 5.90523 18.5H14.5732C17.1042 18.5 18.7402 16.767 18.7402 14.084V5.916C18.7402 3.233 17.1042 1.5 14.5742 1.5H5.90523ZM14.5732 20H5.90523C2.51623 20 0.240234 17.622 0.240234 14.084V5.916C0.240234 2.378 2.51623 0 5.90523 0H14.5742C17.9632 0 20.2402 2.378 20.2402 5.916V14.084C20.2402 17.622 17.9632 20 14.5732 20Z" fill="#176CF7"/>
</svg>
