<svg width="24" height="24" viewBox="0 0 24 24" fill="none" xmlns="http://www.w3.org/2000/svg">
<path d="M2.5 21.042L3.28979 18.1929C4.59849 13.5136 8.04954 11.1492 11.4996 11.1492" stroke="#868686" stroke-width="1.5" stroke-linecap="round" stroke-linejoin="round"/>
<path d="M11.4996 11.1294C14.2611 11.1294 16.4998 8.91481 16.4998 6.18299C16.4998 3.45116 14.2611 1.23657 11.4996 1.23657C8.73814 1.23657 6.49951 3.45116 6.49951 6.18299C6.49951 8.91481 8.73814 11.1294 11.4996 11.1294Z" stroke="#868686" stroke-width="1.5" stroke-linecap="round" stroke-linejoin="bevel"/>
<path d="M13.953 19.5316C13.9985 19.8493 14.1408 20.1477 14.364 20.3822C14.5816 20.612 14.8624 20.7741 15.1737 20.8443C15.4857 20.9146 15.8107 20.8885 16.1073 20.7701L16.1246 20.7629L16.2046 20.7287C16.2164 20.7242 16.228 20.7224 16.2392 20.7226C16.2512 20.7229 16.2639 20.7256 16.2767 20.7315L16.2801 20.7331C16.2856 20.7356 16.2926 20.7402 16.2997 20.7483C16.3063 20.7559 16.3126 20.7661 16.3171 20.779L16.344 20.869L16.36 20.9165C16.4691 21.209 16.6599 21.4663 16.9127 21.6541C17.1659 21.8421 17.4696 21.9513 17.7866 21.9649C18.1037 21.9784 18.4158 21.8954 18.6842 21.7289C18.9522 21.5626 19.1635 21.3214 19.2959 21.0382L19.3107 21.0043L19.3434 20.9243C19.3493 20.9121 19.3565 20.9027 19.3637 20.8959C19.3716 20.8885 19.3792 20.8844 19.3854 20.8822L19.3907 20.8803C19.4032 20.8758 19.4156 20.8742 19.4275 20.875C19.4393 20.8757 19.4517 20.8789 19.4643 20.8852L19.5513 20.9298L19.5624 20.9353C19.8479 21.0759 20.1687 21.1281 20.4848 21.0837C20.7998 21.0394 21.0923 20.9017 21.3278 20.6913C21.5698 20.4762 21.7361 20.1908 21.808 19.8783C21.8798 19.566 21.8548 19.2381 21.7356 18.9401L21.7277 18.9212L21.6927 18.8402C21.6898 18.8328 21.688 18.8238 21.6882 18.8142C21.6885 18.8049 21.6905 18.7965 21.6934 18.7897C21.7001 18.7767 21.7083 18.7669 21.7163 18.76C21.7248 18.7528 21.7329 18.7488 21.7396 18.7468L21.7427 18.7459L21.8381 18.7172L21.8478 18.7142C22.1554 18.6172 22.4223 18.4262 22.6154 18.1719C22.8083 17.918 22.9194 17.6121 22.9374 17.2958L22.9383 17.2768C22.9483 16.9592 22.8637 16.644 22.6929 16.3741C22.5219 16.1039 22.2715 15.8904 21.9724 15.7677L21.9566 15.7615L21.8732 15.7294C21.8678 15.7269 21.8616 15.7227 21.8553 15.7161C21.8483 15.7088 21.8414 15.6988 21.8362 15.686C21.8338 15.6785 21.8326 15.6698 21.8332 15.6607C21.8338 15.6507 21.8365 15.6421 21.84 15.6355L21.8852 15.5494L21.89 15.5403C22.0362 15.2528 22.0893 14.9267 22.0437 14.6085C21.9982 14.2908 21.856 13.9924 21.6327 13.7579C21.4151 13.5282 21.1343 13.3661 20.8231 13.2959C20.511 13.2255 20.186 13.2517 19.8894 13.37L19.8787 13.3744L19.7939 13.4098C19.7817 13.4146 19.7696 13.4167 19.758 13.4165C19.7461 13.4163 19.7336 13.4137 19.7209 13.4079L19.7169 13.4061C19.7114 13.4037 19.7044 13.3992 19.6973 13.3913C19.6912 13.3845 19.6853 13.3755 19.6808 13.3643L19.6565 13.283L19.6406 13.2356C19.5314 12.943 19.3407 12.6857 19.0878 12.4979C18.8346 12.3099 18.5309 12.2007 18.2139 12.1872C17.8968 12.1736 17.5847 12.2567 17.3164 12.4232C17.0483 12.5895 16.8371 12.8307 16.7047 13.1139L16.6898 13.1477L16.6601 13.2206L16.6551 13.2238C16.649 13.2379 16.641 13.2486 16.633 13.2561C16.6251 13.2635 16.6175 13.2676 16.6113 13.2698L16.606 13.2717C16.5935 13.2762 16.5811 13.2778 16.5692 13.2771C16.5577 13.2763 16.5455 13.2733 16.5332 13.2672L16.4493 13.2237L16.4316 13.2149C16.1479 13.0771 15.8298 13.0262 15.5165 13.0703C15.2037 13.1143 14.9129 13.2503 14.6781 13.4583C14.4378 13.6706 14.2713 13.952 14.1973 14.2608C14.1233 14.5697 14.1442 14.8949 14.2582 15.1919L14.27 15.2209L14.305 15.3019C14.3079 15.3094 14.3097 15.3183 14.3094 15.3279C14.3092 15.3372 14.3072 15.3456 14.3043 15.3524C14.2975 15.3654 14.2893 15.3752 14.2813 15.3821C14.2729 15.3893 14.2648 15.3933 14.258 15.3953L14.255 15.3962L14.1596 15.4249L14.1499 15.4279C13.8423 15.525 13.5754 15.716 13.3822 15.9702C13.1894 16.2241 13.0783 16.53 13.0602 16.8463L13.0594 16.8654C13.0494 17.183 13.134 17.4981 13.3048 17.768C13.4758 18.0383 13.7261 18.2517 14.0252 18.3744L14.0411 18.3807L14.124 18.4125C14.1293 18.4151 14.1354 18.4192 14.1417 18.4258C14.1486 18.433 14.1554 18.4428 14.1606 18.4554C14.163 18.4629 14.1641 18.4715 14.1635 18.4804C14.1629 18.49 14.1604 18.4983 14.1572 18.5048L14.1131 18.5876L14.1068 18.5998C13.9605 18.8874 13.9074 19.2134 13.953 19.5316Z" stroke="#868686" stroke-width="1.5" stroke-linecap="round" stroke-linejoin="bevel"/>
<path d="M18 18.6826C18.8998 18.6826 19.6292 17.9611 19.6292 17.0711C19.6292 16.181 18.8998 15.4595 18 15.4595C17.1003 15.4595 16.3708 16.181 16.3708 17.0711C16.3708 17.9611 17.1003 18.6826 18 18.6826Z" stroke="#868686" stroke-width="1.5" stroke-linecap="round" stroke-linejoin="bevel"/>
</svg>
