<svg width="16" height="16" viewBox="0 0 16 16" fill="none" xmlns="http://www.w3.org/2000/svg">
<path d="M3.56398 11.8971H3.03898C2.68625 11.8971 2.34796 11.7569 2.09853 11.5075C1.84911 11.2581 1.70898 10.9198 1.70898 10.5671V4.24406C1.70898 3.89132 1.84911 3.55303 2.09853 3.30361C2.34796 3.05419 2.68625 2.91406 3.03898 2.91406H9.53898C9.71364 2.91406 9.88659 2.94846 10.048 3.0153C10.2093 3.08214 10.3559 3.18011 10.4794 3.30361C10.6029 3.42711 10.7009 3.57373 10.7677 3.73509C10.8346 3.89646 10.869 4.0694 10.869 4.24406V8.83806" stroke="#868686" stroke-width="1.5" stroke-linecap="round" stroke-linejoin="round"/>
<path d="M10.8511 5.375H12.7011C12.8201 5.37489 12.9376 5.40184 13.0446 5.45381C13.1517 5.50578 13.2455 5.58142 13.3191 5.675L14.8191 7.67C14.9727 7.87537 15.0564 8.12455 15.0581 8.381V11.705C15.0581 11.7403 15.0441 11.7741 15.0191 11.799C14.9942 11.824 14.9603 11.838 14.9251 11.838H12.9011" stroke="#868686" stroke-width="1.5" stroke-linecap="round" stroke-linejoin="round"/>
<path d="M11.3562 13.2671C12.1785 13.2671 12.8452 12.6004 12.8452 11.7781C12.8452 10.9557 12.1785 10.2891 11.3562 10.2891C10.5338 10.2891 9.86719 10.9557 9.86719 11.7781C9.86719 12.6004 10.5338 13.2671 11.3562 13.2671Z" stroke="#868686" stroke-width="1.5" stroke-linecap="round" stroke-linejoin="round"/>
<path d="M5.04613 13.2671C5.86848 13.2671 6.53513 12.6004 6.53513 11.7781C6.53513 10.9557 5.86848 10.2891 5.04613 10.2891C4.22378 10.2891 3.55713 10.9557 3.55713 11.7781C3.55713 12.6004 4.22378 13.2671 5.04613 13.2671Z" stroke="#868686" stroke-width="1.5" stroke-linecap="round" stroke-linejoin="round"/>
<path d="M9.87389 11.8633H6.46289" stroke="#868686" stroke-width="1.5" stroke-linecap="round" stroke-linejoin="round"/>
</svg>
