<svg width="17" height="16" viewBox="0 0 17 16" fill="none" xmlns="http://www.w3.org/2000/svg">
<path d="M16.375 14.8347L11.913 10.325C12.9248 9.04852 13.4092 7.43261 13.2665 5.80971C13.1237 4.18682 12.3647 2.68038 11.1456 1.60036C9.92648 0.520344 8.33999 -0.0511055 6.71256 0.00359367C5.08513 0.0582928 3.54055 0.73498 2.39662 1.89442C1.25269 3.05386 0.596437 4.60787 0.562877 6.23669C0.529317 7.86551 1.12101 9.44526 2.2162 10.6509C3.3114 11.8565 4.8268 12.5963 6.45059 12.7181C8.07439 12.8398 9.68307 12.3343 10.9456 11.3054L15.3824 15.7866C15.5078 15.9184 15.6803 15.995 15.8621 15.9998C16.044 16.0045 16.2202 15.9369 16.3523 15.8118C16.4845 15.6851 16.5611 15.5111 16.5654 15.328C16.5697 15.1448 16.5012 14.9675 16.375 14.8347ZM6.90454 11.3585C5.74196 11.3582 4.61545 10.9546 3.71694 10.2165C2.81842 9.47836 2.2035 8.45138 1.97693 7.31052C1.75037 6.16965 1.92617 4.98549 2.47441 3.95977C3.02264 2.93405 3.90937 2.13024 4.98353 1.68529C6.05769 1.24034 7.25281 1.18178 8.36529 1.51959C9.47776 1.85739 10.4388 2.57066 11.0845 3.53787C11.7303 4.50509 12.0209 5.6664 11.9069 6.82395C11.7928 7.98151 11.2812 9.06369 10.459 9.88612C9.99327 10.3545 9.4393 10.7257 8.82918 10.9785C8.21905 11.2312 7.56489 11.3604 6.90454 11.3585Z" fill="#868686"/>
</svg>
