<svg width="24" height="24" viewBox="0 0 24 24" fill="none" xmlns="http://www.w3.org/2000/svg">
<path d="M12 1.35141e-07C9.62663 1.35141e-07 7.30655 0.703787 5.33316 2.02236C3.35977 3.34094 1.8217 5.21508 0.913451 7.4078C0.00519938 9.60051 -0.232441 12.0133 0.230582 14.3411C0.693605 16.6689 1.83649 18.807 3.51472 20.4853C5.19295 22.1635 7.33115 23.3064 9.65892 23.7694C11.9867 24.2324 14.3995 23.9948 16.5922 23.0865C18.7849 22.1783 20.6591 20.6402 21.9776 18.6668C23.2962 16.6934 24 14.3734 24 12C24.0002 10.4241 23.69 8.86353 23.087 7.40752C22.4841 5.9515 21.6002 4.62854 20.4858 3.51419C19.3715 2.39984 18.0485 1.51594 16.5925 0.912964C15.1365 0.309991 13.5759 -0.000236384 12 1.35141e-07ZM17.5989 13.1614L9.08216 18.0491C8.90513 18.1473 8.70553 18.1977 8.50308 18.1951C8.30063 18.1926 8.10235 18.1372 7.92785 18.0346C7.75335 17.9319 7.60866 17.7855 7.5081 17.6098C7.40755 17.434 7.3546 17.2351 7.35449 17.0326V6.96556C7.35486 6.7632 7.40798 6.56443 7.5086 6.38886C7.60922 6.21329 7.75388 6.06698 7.92829 5.96437C8.10271 5.86175 8.30086 5.80638 8.5032 5.80371C8.70555 5.80104 8.90509 5.85116 9.08216 5.94913L17.5989 11.1267C17.78 11.2278 17.9309 11.3753 18.0359 11.5542C18.1409 11.733 18.1963 11.9367 18.1963 12.144C18.1963 12.3514 18.1409 12.5551 18.0359 12.7339C17.9309 12.9128 17.78 13.0603 17.5989 13.1614Z" fill="white"/>
</svg>
