<svg width="120" height="120" viewBox="0 0 120 120" fill="none" xmlns="http://www.w3.org/2000/svg">
<path d="M20.9851 99.1308C41.6051 109.675 75.0349 109.678 95.655 99.1308C116.275 88.584 116.275 71.4801 95.655 60.9449C75.0349 50.4097 41.6051 50.4004 20.9851 60.9449C0.365003 71.4894 0.365003 88.5933 20.9851 99.1308Z" fill="#1666EA"/>
<path d="M80.6401 66.5397V67.7118C80.6401 69.0876 81.5317 70.4701 83.3483 71.5286C86.0865 73.1215 90.1137 73.5322 93.4898 72.7274L96.6154 74.5473L99.0263 74.0131L100.666 74.9681L100.746 76.9516L101.631 77.4659L103.852 77.6696L105.448 78.5679V79.6865L107.451 80.852L112.547 80.8686L114.38 79.8234V78.638L98.098 70.3498C98.7942 69.6766 99.2023 68.7598 99.2367 67.7919V66.6065C98.9963 65.4611 98.0446 64.8667 96.5252 63.9818C92.9021 61.8713 87.0115 61.8513 83.3717 63.935C81.7354 64.87 80.8104 65.3208 80.6401 66.5397ZM85.6491 65.204C86.2265 64.9109 86.8649 64.7582 87.5124 64.7582C88.1599 64.7582 88.7983 64.9109 89.3758 65.204C90.4009 65.8017 90.3976 66.7634 89.3758 67.3545C88.7978 67.6476 88.1588 67.8003 87.5108 67.8003C86.8627 67.8003 86.2238 67.6476 85.6458 67.3545C84.6039 66.7401 84.6072 65.775 85.6391 65.1873L85.6491 65.204Z" fill="#FFC217"/>
<path opacity="0.2" d="M80.6401 66.5397V67.7118C80.6401 69.0876 81.5317 70.4701 83.3483 71.5286C86.0865 73.1215 90.1137 73.5322 93.4898 72.7274L96.6154 74.5473L99.0263 74.0131L100.666 74.9681L100.746 76.9516L101.631 77.4659L103.852 77.6696L105.448 78.5679V79.6865L107.451 80.852L112.547 80.8686L114.38 79.8234V78.638L98.098 70.3498C98.7942 69.6766 99.2023 68.7598 99.2367 67.7919V66.6065C98.9963 65.4611 98.0446 64.8667 96.5252 63.9818C92.9021 61.8713 87.0115 61.8513 83.3717 63.935C81.7354 64.87 80.8104 65.3208 80.6401 66.5397ZM85.6491 65.204C86.2265 64.9109 86.8649 64.7582 87.5124 64.7582C88.1599 64.7582 88.7983 64.9109 89.3758 65.204C90.4009 65.8017 90.3976 66.7634 89.3758 67.3545C88.7978 67.6476 88.1588 67.8003 87.5108 67.8003C86.8627 67.8003 86.2238 67.6476 85.6458 67.3545C84.6039 66.7401 84.6072 65.775 85.6391 65.1873L85.6491 65.204Z" fill="black"/>
<path d="M83.3518 70.3465C86.0867 71.9394 90.1139 72.3501 93.4899 71.5453L96.6189 73.3653L99.0265 72.8276L100.666 73.7827L100.75 75.7863L101.631 76.3005L103.855 76.5042L105.582 77.4759L105.445 78.5211L107.448 79.6832L112.544 79.7033L114.377 78.6547L98.0982 69.1644C100.028 67.1341 99.5107 64.5328 96.532 62.7964C92.9056 60.6859 87.015 60.6659 83.3752 62.7496C79.7353 64.8333 79.732 68.2361 83.3518 70.3465ZM85.6426 64.0018C86.22 63.7088 86.8584 63.5561 87.5059 63.5561C88.1534 63.5561 88.7918 63.7088 89.3692 64.0018C90.3977 64.5996 90.3944 65.5646 89.3692 66.1524C88.7918 66.4454 88.1534 66.5981 87.5059 66.5981C86.8584 66.5981 86.22 66.4454 85.6426 66.1524C84.6074 65.5546 84.6107 64.5929 85.6426 64.0018Z" fill="#FFC217"/>
<path opacity="0.3" d="M83.3518 70.3465C86.0867 71.9394 90.1139 72.3501 93.4899 71.5453L96.6189 73.3653L99.0265 72.8276L100.666 73.7827L100.75 75.7863L101.631 76.3005L103.855 76.5042L105.582 77.4759L105.445 78.5211L107.448 79.6832L112.544 79.7033L114.377 78.6547L98.0982 69.1644C100.028 67.1341 99.5107 64.5328 96.532 62.7964C92.9056 60.6859 87.015 60.6659 83.3752 62.7496C79.7353 64.8333 79.732 68.2361 83.3518 70.3465ZM85.6426 64.0018C86.22 63.7088 86.8584 63.5561 87.5059 63.5561C88.1534 63.5561 88.7918 63.7088 89.3692 64.0018C90.3977 64.5996 90.3944 65.5646 89.3692 66.1524C88.7918 66.4454 88.1534 66.5981 87.5059 66.5981C86.8584 66.5981 86.22 66.4454 85.6426 66.1524C84.6074 65.5546 84.6107 64.5929 85.6426 64.0018Z" fill="white"/>
<g opacity="0.2">
<path d="M99.2134 66.9506L90.037 65.5013C90.2841 64.9904 90.0637 64.4194 89.3691 64.0153C88.7917 63.7223 88.1533 63.5696 87.5058 63.5696C86.8582 63.5696 86.2199 63.7223 85.6424 64.0153C85.3448 64.169 85.1039 64.4134 84.9545 64.7132L81.6152 64.1856C82.121 63.614 82.7207 63.1329 83.3884 62.7631C83.4953 62.703 83.6088 62.6495 83.7223 62.5928L98.816 64.9737C99.1513 65.5751 99.2902 66.2663 99.2134 66.9506V66.9506Z" fill="white"/>
<path d="M81.1577 68.3264C80.825 67.8057 80.6459 67.2017 80.6412 66.5838C80.6365 65.9659 80.8063 65.3592 81.131 64.8335L84.9412 65.4346C85.0863 65.7454 85.3306 65.9991 85.6358 66.1559C86.2132 66.4489 86.8516 66.6016 87.4991 66.6016C88.1466 66.6016 88.785 66.4489 89.3624 66.1559L89.4125 66.1258L99.0531 67.6585C98.847 68.2237 98.5225 68.7384 98.1014 69.1679L102.412 71.6657L81.1577 68.3264Z" fill="white"/>
</g>
<path d="M83.8896 69.4215C82.5004 68.6133 81.7057 67.5615 81.709 66.543C81.7123 65.5245 82.5138 64.4759 83.9096 63.6778C85.5091 62.7629 87.6596 62.262 89.9571 62.272C92.2545 62.282 94.4017 62.7929 95.9945 63.7213C97.3837 64.5294 98.1784 65.5812 98.1751 66.5997C98.1718 67.6182 97.3703 68.6668 95.9745 69.4649C94.375 70.3798 92.2278 70.8807 89.927 70.8741C87.6262 70.8674 85.4824 70.3498 83.8896 69.4215ZM84.0732 63.9851C82.7843 64.723 82.0429 65.6547 82.0396 66.5597C82.0362 67.4646 82.7709 68.403 84.0432 69.151C85.5893 70.0492 87.673 70.5468 89.9137 70.5535C92.1543 70.5602 94.2548 70.0793 95.7942 69.191C97.0832 68.4531 97.8245 67.5214 97.8278 66.6164C97.8312 65.7115 97.0965 64.7731 95.8242 64.0285C94.2815 63.1302 92.1944 62.6293 89.9537 62.6226C87.7131 62.616 85.626 63.0801 84.0732 63.9851Z" fill="#FFC217"/>
<path opacity="0.1" d="M86.5776 71.5688V72.7509C88.8561 73.2558 91.2183 73.2479 93.4933 72.7275V71.5454C91.2182 72.0645 88.8562 72.0725 86.5776 71.5688V71.5688Z" fill="black"/>
<path opacity="0.1" d="M96.6152 73.3653L96.6118 74.5474L99.0228 74.0131L99.0261 72.8276L96.6152 73.3653Z" fill="black"/>
<path opacity="0.1" d="M100.666 73.7827L100.663 74.9682L100.743 76.9517L100.749 75.7696L100.666 73.7827Z" fill="black"/>
<path opacity="0.1" d="M101.631 76.2838L101.627 77.4693L103.848 77.6696L103.855 76.4875L101.631 76.2838Z" fill="black"/>
<path opacity="0.1" d="M107.446 79.676L107.442 80.8615L112.541 80.8801L112.545 79.6947L107.446 79.676Z" fill="black"/>
<path opacity="0.15" d="M114.374 78.6381L114.37 79.8235L112.537 80.8687L112.54 79.6866L113.345 79.2258L113.342 79.7367L113.786 79.4829V78.9686L114.374 78.6381Z" fill="black"/>
<path d="M113.786 78.9686L113.345 79.2258L113.342 79.7367L113.786 79.4829V78.9686Z" fill="#FFC217"/>
<path opacity="0.3" d="M113.786 78.9686L113.345 79.2258L113.342 79.7367L113.786 79.4829V78.9686Z" fill="white"/>
<path d="M113.786 78.9686V79.4829L97.0996 69.7689L97.5437 69.5117L113.786 78.9686Z" fill="#FFC217"/>
<path opacity="0.15" d="M97.5437 69.5117L97.5404 70.026L97.0996 69.7689L97.5437 69.5117Z" fill="black"/>
<path d="M35.0464 84.2171L49.602 92.6224C50.1446 92.8967 50.744 93.0396 51.352 93.0396C51.9599 93.0396 52.5593 92.8967 53.1019 92.6224L82.4382 75.6891C83.4036 75.1297 83.4036 74.2257 82.4382 73.6697L67.8826 65.2645C67.3401 64.9902 66.7406 64.8473 66.1327 64.8473C65.5247 64.8473 64.9253 64.9902 64.3827 65.2645L35.0464 82.1977C34.0776 82.7674 34.0776 83.6611 35.0464 84.2171Z" fill="#135FDD"/>
<path d="M36.9896 79.4346C36.8384 77.5698 35.984 74.505 33.8144 71.5866C31.4936 68.4666 28.6616 66.513 26.5592 67.425C24.6008 68.277 25.3424 70.9794 28.7192 73.6482C31.0832 75.5178 33.536 77.9538 34.856 80.8938L36.9944 84.6354L36.9896 79.4346Z" fill="#FFC217"/>
<g opacity="0.1">
<path d="M36.9896 79.4346C36.8384 77.5698 35.984 74.505 33.8144 71.5866C31.4936 68.4666 28.6616 66.513 26.5592 67.425C24.6008 68.277 25.3424 70.9794 28.7192 73.6482C31.0832 75.5178 33.536 77.9538 34.856 80.8938L36.9944 84.6354L36.9896 79.4346Z" fill="black"/>
</g>
<path d="M36.7999 80.8579C36.7725 80.8579 36.7457 80.8493 36.7233 80.8334C36.701 80.8175 36.6841 80.795 36.6751 80.7691C34.7959 75.5971 30.8839 70.3627 27.5743 68.5939C27.5586 68.5857 27.5446 68.5745 27.5331 68.5609C27.5217 68.5473 27.5131 68.5315 27.5077 68.5146C27.5024 68.4977 27.5004 68.4798 27.502 68.4621C27.5035 68.4445 27.5085 68.4272 27.5167 68.4115C27.5249 68.3957 27.5361 68.3817 27.5497 68.3703C27.5633 68.3589 27.5791 68.3503 27.596 68.3449C27.6129 68.3396 27.6308 68.3376 27.6484 68.3391C27.6661 68.3407 27.6834 68.3457 27.6991 68.3539C31.0591 70.1515 35.0263 75.4459 36.9247 80.6755C36.9363 80.7083 36.9345 80.7443 36.9197 80.7758C36.9048 80.8072 36.8782 80.8316 36.8455 80.8435C36.8316 80.8516 36.816 80.8565 36.7999 80.8579V80.8579Z" fill="white"/>
<path d="M36.8001 85.8162C35.7144 86.6699 34.4232 87.2228 33.0561 87.4194C30.6969 87.789 29.6649 86.661 29.6649 86.661C29.6649 86.661 30.5937 84.4482 31.9353 83.8266C30.4854 84.1512 29.101 84.7193 27.8409 85.5066C27.8409 85.5066 26.4009 85.5282 25.8273 83.3298C25.8273 83.3298 26.6793 82.0074 29.5425 81.2922C29.5425 81.2922 27.8025 80.853 25.2921 81.4938C25.1025 81.5682 24.3009 78.7266 24.0585 77.4138C23.8161 76.101 24.3417 76.1154 25.3641 75.8418C26.3865 75.5682 29.8665 75.3978 30.5073 75.9618C31.1481 76.5258 31.4673 78.4458 31.4673 78.4458C31.4673 78.4458 32.0793 77.3586 31.9329 76.3866C32.6462 76.183 33.4047 76.2014 34.1073 76.4394C35.2569 76.8378 35.1825 77.3994 35.1825 78.2346C35.1874 79.0763 35.0719 79.9144 34.8393 80.7234C34.8393 80.7234 35.6337 80.037 35.6601 77.5074C35.6601 77.5074 37.2129 78.8346 37.8369 79.977C38.4609 81.1194 38.3049 84.1074 36.8001 85.8162Z" fill="#FFC217"/>
<path d="M36.8001 85.9435C36.7751 85.9437 36.7505 85.9368 36.7293 85.9237C36.708 85.9105 36.691 85.8916 36.6801 85.8691C34.7769 81.9139 27.6993 77.3203 25.1601 76.8259C25.1255 76.8189 25.0951 76.7987 25.0753 76.7695C25.0556 76.7403 25.0481 76.7045 25.0545 76.6699C25.0579 76.6528 25.0647 76.6367 25.0744 76.6222C25.0841 76.6078 25.0965 76.5955 25.111 76.5859C25.1255 76.5763 25.1418 76.5697 25.1588 76.5664C25.1759 76.5631 25.1934 76.5632 25.2105 76.5667C27.7929 77.0683 34.9857 81.7363 36.9201 85.7539C36.935 85.7858 36.9368 85.8222 36.9251 85.8554C36.9135 85.8886 36.8892 85.9159 36.8577 85.9315C36.8397 85.94 36.8199 85.9441 36.8001 85.9435V85.9435Z" fill="white"/>
<path d="M78.0449 43.6954C78.0578 41.708 78.6249 39.7635 79.6823 38.0806V34.9116C79.6966 34.75 79.6714 34.5874 79.609 34.4377C79.5467 34.288 79.4489 34.1556 79.3241 34.052V34.052C79.2931 34.0305 79.2599 34.0122 79.2252 33.9974L68.9473 28.0517C68.7918 27.9839 68.6214 27.9578 68.4528 27.9757C68.2841 27.9936 68.123 28.0551 67.9853 28.154L59.8837 32.8307C59.4931 33.1003 59.1692 33.4556 58.9369 33.8694C58.7045 34.2833 58.5698 34.7447 58.5431 35.2186C58.451 37.5382 57.6937 41.8329 53.5969 44.1969C49.5 46.5608 48.7325 43.0985 48.6472 40.888C48.6131 40.0079 48.0707 39.6532 47.31 40.0932L39.205 44.77C38.8062 45.0331 38.475 45.3863 38.2379 45.8011C38.0009 46.2159 37.8648 46.6807 37.8405 47.1578V50.3268C37.8405 50.3268 39.4779 50.7839 39.4779 54.0518C39.4779 57.3198 36.9468 63.245 36.9468 71.4694C36.9468 75.5868 38.2533 79.0253 40.9959 80.6046L51.2943 86.5469C54.0233 88.157 58.2054 87.9114 63.9601 84.5753C75.4149 77.961 80.6204 66.4243 80.6204 58.2033C80.6204 49.9823 78.0449 46.9497 78.0449 43.6954Z" fill="#FFC217"/>
<path d="M67.9511 28.1438L59.8495 32.8205C59.4585 33.0897 59.1344 33.4449 58.902 33.8588C58.6696 34.2727 58.5351 34.7344 58.5089 35.2084C58.4236 37.3472 57.7755 41.1609 54.4666 43.5931L48.2344 39.9943L48.2002 39.9772C48.0508 39.9105 47.8862 39.8851 47.7236 39.9037C47.561 39.9223 47.4063 39.9842 47.2758 40.083L39.1708 44.7597C39.0579 44.8254 38.9516 44.902 38.8535 44.9883C38.5898 45.2145 38.3671 45.4845 38.1952 45.7865C37.9486 46.2003 37.8101 46.6696 37.7927 47.151V50.32L38.2395 50.5793C38.7307 50.975 39.43 51.9096 39.43 54.0416C39.43 57.3096 36.8989 63.2519 36.8989 71.4592C36.8989 75.5765 38.2054 79.0219 40.948 80.6012L51.2089 86.5197C48.5175 84.9198 47.2383 81.5086 47.2383 77.4288C47.2383 69.2044 49.766 63.2757 49.766 60.0078C49.766 56.7399 48.1286 56.2862 48.1286 56.2862V53.1172C48.1547 52.6405 48.2916 52.1764 48.5285 51.7619C48.7654 51.3474 49.0956 50.9939 49.4931 50.7293L57.5981 46.0526C57.7246 45.9584 57.8729 45.8977 58.0292 45.8762C58.1854 45.8547 58.3446 45.8732 58.4918 45.9298H58.526C58.6642 46.0327 58.7742 46.169 58.8458 46.3258C58.9174 46.4826 58.9481 46.655 58.9353 46.8269C59.0172 49.0408 59.7608 52.5202 63.8849 50.1392C68.0091 47.7582 68.7391 43.4805 68.8346 41.1609C68.8599 40.6871 68.9937 40.2255 69.2255 39.8115C69.4573 39.3975 69.7811 39.0423 70.1718 38.7731L78.2734 34.0963C78.4058 34.002 78.5594 33.9417 78.7207 33.9209C78.8819 33.9001 79.0458 33.9193 79.1978 33.9769L68.9472 28.0517C68.7881 27.9764 68.6118 27.9452 68.4365 27.9614C68.2613 27.9777 68.0937 28.0406 67.9511 28.1438V28.1438Z" fill="#FFC217"/>
<path opacity="0.1" d="M38.2467 50.5758L48.1391 56.2828V53.1138C48.1545 52.6315 48.2944 52.1615 48.5451 51.7493V51.7493L38.1955 45.7899C37.9483 46.2035 37.8099 46.6729 37.793 47.1544V50.3234L38.2467 50.5758Z" fill="black"/>
<path opacity="0.4" d="M54.4667 43.593L48.2345 39.9942L48.2004 39.9772C48.0509 39.9104 47.8863 39.885 47.7237 39.9036C47.5611 39.9222 47.4064 39.9841 47.2759 40.0829L39.1709 44.7597C39.058 44.8254 38.9518 44.9019 38.8537 44.9882C38.5899 45.2144 38.3672 45.4845 38.1953 45.7864L48.5483 51.7629C48.7799 51.3445 49.1146 50.9923 49.5205 50.7395L57.6255 46.0627C57.752 45.9685 57.9003 45.9079 58.0566 45.8864C58.2129 45.8649 58.372 45.8833 58.5192 45.9399L54.4667 43.593Z" fill="white"/>
<path opacity="0.4" d="M79.2254 33.9871L68.9474 28.0516C68.7901 27.9789 68.6163 27.9492 68.4438 27.9653C68.2713 27.9815 68.1061 28.043 67.965 28.1437L59.8634 32.8204C59.4643 33.072 59.1393 33.4252 58.9219 33.8438L69.2715 39.8168C69.4889 39.3982 69.8139 39.045 70.213 38.7935L78.3146 34.1167C78.4445 34.0229 78.5953 33.9622 78.754 33.9396C78.9126 33.917 79.0744 33.9333 79.2254 33.9871V33.9871Z" fill="white"/>
<path opacity="0.1" d="M69.2578 39.8202C69.0255 40.2399 68.8892 40.706 68.8587 41.1847C68.7666 43.5043 68.0059 47.799 63.9124 50.163C59.819 52.5269 59.0446 49.0646 58.9628 46.8507C58.9756 46.6788 58.9448 46.5064 58.8733 46.3496C58.8017 46.1927 58.6917 46.0565 58.5534 45.9536H58.5193L54.4668 43.6135C57.7757 41.1813 58.4238 37.3676 58.5091 35.2287C58.5385 34.7498 58.6748 34.2835 58.9082 33.8643L69.2578 39.8202Z" fill="black"/>
<path opacity="0.2" d="M51.2089 86.5197L40.9344 80.5944C38.2054 79.015 36.8853 75.5697 36.8853 71.4524C36.8853 63.2314 39.4164 57.3027 39.4164 54.0348C39.4164 51.9198 38.7341 50.9852 38.2395 50.5792L48.132 56.2862C48.132 56.2862 49.7694 56.7433 49.7694 60.0078C49.7694 63.2723 47.2417 69.218 47.2417 77.4288C47.2519 81.512 48.5311 84.9232 51.2089 86.5197Z" fill="black"/>
<path d="M66.2628 72.445L61.8282 75.0034L62.5105 66.9836C61.9783 66.7039 61.6406 66.0149 61.6406 65.0256C61.6406 63.2586 62.7152 61.2085 64.0285 60.441C65.3418 59.6734 66.4163 60.4887 66.4163 62.2557C66.3889 63.3022 66.0904 64.3236 65.5499 65.2201L66.2628 72.445Z" fill="#455A64"/>
<path d="M66.2627 72.445L62.2477 70.1254L61.8281 75.0034L66.2627 72.445Z" fill="#37474F"/>
<path d="M64.0453 60.441C63.1788 60.9424 62.4215 61.9931 61.9985 63.1699L65.5735 65.2337C66.114 64.3373 66.4125 63.3158 66.4399 62.2694C66.4433 60.4887 65.3688 59.6769 64.0453 60.441Z" fill="#37474F"/>
<path d="M69.0567 13.8167C66.8633 12.5511 64.1105 12.6944 61.4941 14.2021L51.8302 19.7829C47.6412 22.2014 44.4824 27.673 44.4824 32.5066V45.5545C44.4824 46.0935 44.844 46.6358 45.5569 47.0486C46.3587 47.4555 47.2452 47.6676 48.1444 47.6676C49.0435 47.6676 49.93 47.4555 50.7317 47.0486C51.4447 46.6358 51.8063 46.0935 51.8063 45.5545V32.5066C51.8063 30.2825 53.563 27.2397 55.4904 26.1277L65.1543 20.547H65.1782V33.6187C65.1782 34.1611 65.5398 34.7 66.2527 35.1128C67.0545 35.5197 67.941 35.7318 68.8401 35.7318C69.7393 35.7318 70.6257 35.5197 71.4275 35.1128C72.1404 34.7 72.502 34.1611 72.502 33.6187V20.5606C72.502 17.5383 71.2467 15.0822 69.0567 13.8167Z" fill="#37474F"/>
<path d="M65.1948 20.5606V33.605C65.1948 34.1474 65.5564 34.6864 66.2694 35.0991C66.6083 35.289 66.9707 35.4335 67.3473 35.5289V19.2916L65.1948 20.5333V20.5606Z" fill="#263238"/>
<circle cx="33.6366" cy="28.1553" r="6.36364" fill="#FFC217"/>
<circle cx="41.8186" cy="18.1553" r="2.72727" fill="#FFC217"/>
<circle cx="36.3641" cy="39.0644" r="1.81818" fill="#FFC217"/>
</svg>
