<svg width="128" height="128" viewBox="0 0 128 128" fill="none" xmlns="http://www.w3.org/2000/svg">
<path d="M18.5465 12.5986C18.6993 11.6675 18.5703 10.7122 18.176 9.85377C17.7817 8.99534 17.1398 8.27228 16.3313 7.77608C15.5229 7.27988 14.5844 7.03284 13.6345 7.06622C12.6846 7.0996 11.766 7.41189 10.995 7.96358C10.224 8.51528 9.6351 9.28159 9.30293 10.1656C8.97077 11.0495 8.91022 12.0114 9.12894 12.9295C9.34766 13.8477 9.83584 14.6808 10.5317 15.3235C11.2275 15.9661 12.0998 16.3895 13.0381 16.54C14.295 16.7416 15.5811 16.4397 16.614 15.7007C17.6468 14.9617 18.3419 13.846 18.5465 12.5986Z" fill="#FFC217"/>
<path d="M27.4464 8.90065C27.509 8.51716 27.4556 8.12386 27.293 7.77047C27.1305 7.41708 26.866 7.11948 26.533 6.91529C26.2 6.71111 25.8135 6.6095 25.4224 6.62331C25.0312 6.63713 24.653 6.76575 24.3355 6.99292C24.018 7.22009 23.7755 7.5356 23.6386 7.89956C23.5018 8.26353 23.4767 8.6596 23.5666 9.03771C23.6565 9.41581 23.8573 9.75897 24.1437 10.0238C24.43 10.2886 24.789 10.4632 25.1754 10.5255C25.432 10.5669 25.6943 10.5577 25.9473 10.4985C26.2004 10.4392 26.4391 10.331 26.65 10.1801C26.8609 10.0292 27.0398 9.83856 27.1765 9.61903C27.3131 9.39949 27.4048 9.15538 27.4464 8.90065V8.90065Z" fill="#FFC217"/>
<path d="M110.152 85.6547C114.377 81.461 117.254 76.1179 118.42 70.301C119.585 64.4842 118.987 58.4549 116.7 52.9755C114.414 47.4962 110.542 42.813 105.574 39.518C100.605 36.223 94.7646 34.4644 88.7896 34.4644C82.8145 34.4644 76.9737 36.223 72.0056 39.518C67.0375 42.813 63.1654 47.4962 60.8788 52.9755C58.5922 58.4549 57.9939 64.4842 59.1596 70.301C60.3252 76.1179 63.2024 81.461 67.4273 85.6547C73.093 91.2783 80.7772 94.4375 88.7896 94.4375C96.8019 94.4375 104.486 91.2783 110.152 85.6547V85.6547Z" fill="#FFC217"/>
<path opacity="0.1" d="M102.435 82.164H76.2089V38.3567C78.5367 37.6664 80.6388 36.3766 82.3016 34.6185C83.9644 32.8604 85.1286 30.6966 85.6759 28.3471C86.2232 25.9977 86.134 23.5462 85.4174 21.2421C84.7008 18.9379 83.3824 16.8631 81.5962 15.2286C79.8099 13.5942 77.6196 12.4582 75.2477 11.9364C72.8758 11.4145 70.407 11.5252 68.0923 12.2574C65.7775 12.9895 63.6993 14.3169 62.0689 16.1047C60.4385 17.8925 59.314 20.0768 58.8098 22.4358H24.6196C23.2663 22.4372 21.9687 22.9714 21.0118 23.9213C20.0548 24.8712 19.5166 26.1591 19.5151 27.5025V116.854C19.5166 118.197 20.0548 119.485 21.0118 120.435C21.9687 121.385 23.2663 121.919 24.6196 121.921H55.8957V122.357C55.8954 122.69 55.9612 123.02 56.0894 123.328C56.2176 123.636 56.4056 123.916 56.6428 124.152C56.88 124.387 57.1617 124.574 57.4717 124.702C57.7818 124.83 58.1141 124.896 58.4498 124.896H92.0319C92.7092 124.895 93.3587 124.628 93.8376 124.153C94.3165 123.678 94.5857 123.033 94.5859 122.361V121.924H102.432C103.109 121.924 103.759 121.657 104.238 121.182C104.717 120.706 104.986 120.061 104.987 119.389V84.6991C104.986 84.0273 104.717 83.3832 104.239 82.908C103.761 82.4327 103.112 82.1652 102.435 82.164V82.164Z" fill="#2626BC"/>
<path d="M102.435 115.586H67.4854C66.8081 115.586 66.1586 115.319 65.6797 114.843C65.2008 114.368 64.9316 113.723 64.9314 113.051V78.3611C64.9323 77.6892 65.2018 77.0452 65.6807 76.5704C66.1595 76.0956 66.8086 75.8288 67.4854 75.8286H102.434C103.111 75.8288 103.761 76.096 104.24 76.5714C104.719 77.0468 104.988 77.6914 104.988 78.3637V113.054C104.987 113.725 104.718 114.369 104.239 114.844C103.761 115.319 103.112 115.586 102.435 115.586Z" fill="#FFC217"/>
<path d="M88.7253 84.5397H81.1957C80.8571 84.5395 80.5324 84.4059 80.293 84.1682C80.0536 83.9306 79.9189 83.6083 79.9187 83.2722V75.8286H90.0023V83.2686C90.0026 83.4354 89.9699 83.6005 89.9059 83.7547C89.8419 83.9088 89.7479 84.0489 89.6293 84.167C89.5107 84.285 89.3698 84.3787 89.2147 84.4427C89.0595 84.5066 88.8932 84.5396 88.7253 84.5397Z" fill="#FFC217"/>
<path d="M81.31 90.2939H96.2724C96.6111 90.2939 96.9359 90.1604 97.1754 89.9226C97.4148 89.6849 97.5494 89.3625 97.5494 89.0264C97.5494 88.6902 97.4148 88.3678 97.1754 88.13C96.9359 87.8923 96.6111 87.7588 96.2724 87.7588H81.31C80.9713 87.7588 80.6465 87.8923 80.407 88.13C80.1675 88.3678 80.033 88.6902 80.033 89.0264C80.033 89.3625 80.1675 89.6849 80.407 89.9226C80.6465 90.1604 80.9713 90.2939 81.31 90.2939V90.2939Z" fill="#307CFE"/>
<path d="M88.9721 95.4455H96.2715C96.6102 95.4455 96.935 95.312 97.1745 95.0743C97.414 94.8365 97.5485 94.5141 97.5485 94.178C97.5485 93.8418 97.414 93.5194 97.1745 93.2817C96.935 93.044 96.6102 92.9104 96.2715 92.9104H88.9721C88.6334 92.9104 88.3086 93.044 88.0691 93.2817C87.8296 93.5194 87.6951 93.8418 87.6951 94.178C87.6951 94.5141 87.8296 94.8365 88.0691 95.0743C88.3086 95.312 88.6334 95.4455 88.9721 95.4455V95.4455Z" fill="#307CFE"/>
<path d="M88.9721 99.8372H96.2715C96.6102 99.8372 96.935 99.7037 97.1745 99.466C97.414 99.2283 97.5485 98.9059 97.5485 98.5697C97.5485 98.2335 97.414 97.9111 97.1745 97.6734C96.935 97.4357 96.6102 97.3021 96.2715 97.3021H88.9721C88.6334 97.3021 88.3086 97.4357 88.0691 97.6734C87.8296 97.9111 87.6951 98.2335 87.6951 98.5697C87.6951 98.9059 87.8296 99.2283 88.0691 99.466C88.3086 99.7037 88.6334 99.8372 88.9721 99.8372V99.8372Z" fill="#307CFE"/>
<path d="M76.209 21.1676V110.516C76.2074 111.86 75.6691 113.147 74.7121 114.097C73.7552 115.047 72.4578 115.581 71.1046 115.583H24.6269C23.2737 115.581 21.9763 115.047 21.0194 114.097C20.0624 113.147 19.5241 111.86 19.5225 110.516V21.1676C19.5239 19.8243 20.0621 18.5364 21.0191 17.5865C21.9761 16.6366 23.2736 16.1024 24.6269 16.101H71.1046C72.4579 16.1024 73.7554 16.6366 74.7124 17.5865C75.6694 18.5364 76.2076 19.8243 76.209 21.1676V21.1676Z" fill="#5996FE"/>
<path d="M76.2091 21.1676V75.638H19.5117V21.1676C19.5131 19.8243 20.0514 18.5364 21.0084 17.5865C21.9653 16.6366 23.2628 16.1024 24.6162 16.101H71.0938C71.7649 16.1003 72.4295 16.2308 73.0497 16.485C73.6699 16.7392 74.2336 17.1123 74.7086 17.5827C75.1836 18.0532 75.5606 18.612 75.818 19.2271C76.0755 19.8422 76.2084 20.5016 76.2091 21.1676V21.1676Z" fill="#5996FE"/>
<path opacity="0.1" d="M76.2096 21.1672V37.9673C73.373 38.8075 70.3391 38.7175 67.5582 37.7106C64.7772 36.7038 62.3974 34.8338 60.772 32.3781C59.1466 29.9224 58.3622 27.012 58.5353 24.0787C58.7083 21.1455 59.8295 18.3458 61.7325 16.0952H71.1015C72.4564 16.0957 73.7557 16.6303 74.7135 17.5814C75.6714 18.5325 76.2096 19.8224 76.2096 21.1672V21.1672Z" fill="#2626BC"/>
<path d="M19.5137 65.8081H76.2092V101.53H19.5137V65.8081Z" fill="url(#paint0_linear_658_28835)"/>
<path d="M19.5137 65.8081H76.2092V72.4455H19.5137V65.8081Z" fill="#5996FE"/>
<path d="M59.4797 23.4597H36.2435C35.7115 23.4601 35.1926 23.2958 34.7591 22.9895C34.3257 22.6833 33.9994 22.2504 33.8256 21.7512L31.8662 16.0952H63.8516L61.8904 21.7468C61.7189 22.2463 61.3942 22.68 60.9619 22.9871C60.5296 23.2943 60.0113 23.4595 59.4797 23.4597V23.4597Z" fill="#5996FE"/>
<path d="M29.6577 76.916L28.1353 77.4493C28.0407 77.4825 27.9393 77.4923 27.84 77.478C27.7406 77.4636 27.6463 77.4255 27.5651 77.3669C27.4839 77.3083 27.4183 77.2309 27.374 77.1415C27.3296 77.0521 27.3079 76.9533 27.3105 76.8537L27.3544 75.2537L26.3694 73.9862C26.308 73.9074 26.267 73.815 26.2498 73.7169C26.2326 73.6188 26.2399 73.518 26.2708 73.4233C26.3018 73.3286 26.3556 73.2429 26.4276 73.1735C26.4995 73.1041 26.5874 73.0533 26.6837 73.0253L28.2285 72.5711L29.1401 71.2502C29.1969 71.168 29.2729 71.1009 29.3617 71.0544C29.4505 71.008 29.5493 70.9838 29.6497 70.9838C29.75 70.9838 29.8488 71.008 29.9376 71.0544C30.0264 71.1009 30.1024 71.168 30.1592 71.2502L31.0708 72.5711L32.6165 73.0253C32.7128 73.0533 32.8007 73.1041 32.8726 73.1735C32.9446 73.2429 32.9984 73.3286 33.0294 73.4233C33.0603 73.518 33.0676 73.6188 33.0504 73.7169C33.0332 73.815 32.9922 73.9074 32.9309 73.9862L31.9458 75.2537L31.9897 76.8537C31.9921 76.9533 31.9702 77.0519 31.9258 77.1412C31.8814 77.2305 31.8158 77.3077 31.7347 77.3663C31.6536 77.4249 31.5593 77.463 31.4601 77.4775C31.3608 77.492 31.2595 77.4823 31.1649 77.4493L29.6577 76.916Z" fill="#FFC217"/>
<path d="M38.76 76.916L37.2376 77.4493C37.143 77.4825 37.0416 77.4923 36.9423 77.478C36.8429 77.4636 36.7486 77.4255 36.6674 77.3669C36.5862 77.3083 36.5206 77.2309 36.4763 77.1415C36.4319 77.0521 36.4102 76.9533 36.4128 76.8537L36.4567 75.2537L35.4716 73.9862C35.4103 73.9074 35.3693 73.815 35.3521 73.7169C35.3349 73.6188 35.3422 73.518 35.3731 73.4233C35.4041 73.3286 35.4579 73.2429 35.5299 73.1735C35.6018 73.1041 35.6897 73.0533 35.786 73.0253L37.3316 72.5711L38.2433 71.2502C38.3001 71.168 38.3761 71.1009 38.4649 71.0544C38.5537 71.008 38.6525 70.9838 38.7528 70.9838C38.8532 70.9838 38.952 71.008 39.0408 71.0544C39.1296 71.1009 39.2056 71.168 39.2624 71.2502L40.174 72.5711L41.7197 73.0253C41.816 73.0533 41.9039 73.1041 41.9758 73.1735C42.0478 73.2429 42.1016 73.3286 42.1326 73.4233C42.1635 73.518 42.1707 73.6188 42.1536 73.7169C42.1364 73.815 42.0954 73.9074 42.034 73.9862L41.049 75.2537L41.0928 76.8537C41.0953 76.9533 41.0734 77.0519 41.029 77.1412C40.9846 77.2305 40.919 77.3077 40.8379 77.3663C40.7568 77.4249 40.6625 77.463 40.5633 77.4775C40.464 77.492 40.3627 77.4823 40.2681 77.4493L38.76 76.916Z" fill="#FFC217"/>
<path d="M47.8603 76.916L46.3379 77.4493C46.2432 77.4825 46.1419 77.4923 46.0425 77.478C45.9432 77.4636 45.8488 77.4255 45.7677 77.3669C45.6865 77.3083 45.6209 77.2309 45.5765 77.1415C45.5322 77.0521 45.5104 76.9533 45.5131 76.8537L45.5561 75.2537L44.571 73.9862C44.5097 73.9074 44.4686 73.815 44.4515 73.7169C44.4343 73.6188 44.4415 73.518 44.4725 73.4233C44.5035 73.3286 44.5573 73.2429 44.6292 73.1735C44.7012 73.1041 44.7891 73.0533 44.8853 73.0253L46.431 72.5711L47.3427 71.2502C47.3994 71.168 47.4755 71.1009 47.5643 71.0544C47.653 71.008 47.7519 70.9838 47.8522 70.9838C47.9526 70.9838 48.0514 71.008 48.1402 71.0544C48.2289 71.1009 48.305 71.168 48.3618 71.2502L49.2734 72.5711L50.8191 73.0253C50.9153 73.0533 51.0033 73.1041 51.0752 73.1735C51.1471 73.2429 51.2009 73.3286 51.2319 73.4233C51.2629 73.518 51.2701 73.6188 51.2529 73.7169C51.2358 73.815 51.1947 73.9074 51.1334 73.9862L50.1483 75.2537L50.1922 76.8537C50.1947 76.9533 50.1728 77.0519 50.1284 77.1412C50.084 77.2305 50.0184 77.3077 49.9373 77.3663C49.8561 77.4249 49.7619 77.463 49.6626 77.4775C49.5634 77.492 49.4621 77.4823 49.3674 77.4493L47.8603 76.916Z" fill="#FFC217"/>
<path d="M56.9631 76.916L55.4407 77.4493C55.3461 77.4825 55.2447 77.4923 55.1454 77.478C55.046 77.4636 54.9517 77.4255 54.8705 77.3669C54.7893 77.3083 54.7237 77.2309 54.6794 77.1415C54.6351 77.0521 54.6133 76.9533 54.616 76.8537L54.6598 75.2537L53.6748 73.9862C53.6134 73.9074 53.5724 73.815 53.5552 73.7169C53.5381 73.6188 53.5453 73.518 53.5763 73.4233C53.6072 73.3286 53.661 73.2429 53.733 73.1735C53.8049 73.1041 53.8928 73.0533 53.9891 73.0253L55.5339 72.5711L56.4455 71.2502C56.5023 71.168 56.5783 71.1009 56.6671 71.0544C56.7559 71.008 56.8547 70.9838 56.9551 70.9838C57.0554 70.9838 57.1542 71.008 57.243 71.0544C57.3318 71.1009 57.4079 71.168 57.4646 71.2502L58.3763 72.5711L59.9219 73.0253C60.0182 73.0533 60.1061 73.1041 60.1781 73.1735C60.25 73.2429 60.3038 73.3286 60.3348 73.4233C60.3658 73.518 60.373 73.6188 60.3558 73.7169C60.3386 73.815 60.2976 73.9074 60.2363 73.9862L59.2512 75.2537L59.2951 76.8537C59.2975 76.9533 59.2756 77.0519 59.2312 77.1412C59.1868 77.2305 59.1212 77.3077 59.0401 77.3663C58.959 77.4249 58.8648 77.463 58.7655 77.4775C58.6663 77.492 58.565 77.4823 58.4703 77.4493L56.9631 76.916Z" fill="#FFC217"/>
<path d="M66.0659 76.916L64.5435 77.4493C64.4489 77.4825 64.3475 77.4923 64.2482 77.478C64.1488 77.4636 64.0545 77.4255 63.9733 77.3669C63.8921 77.3082 63.8265 77.2309 63.7822 77.1415C63.7378 77.0521 63.7161 76.9533 63.7188 76.8537L63.7626 75.2537L62.7776 73.9862C62.7162 73.9074 62.6752 73.815 62.658 73.7169C62.6408 73.6188 62.6481 73.518 62.679 73.4233C62.71 73.3286 62.7638 73.2429 62.8358 73.1735C62.9077 73.1041 62.9956 73.0533 63.0919 73.0253L64.6376 72.5711L65.5492 71.2502C65.606 71.168 65.682 71.1009 65.7708 71.0544C65.8596 71.008 65.9584 70.9838 66.0588 70.9838C66.1591 70.9838 66.2579 71.008 66.3467 71.0544C66.4355 71.1009 66.5115 71.168 66.5683 71.2502L67.4853 72.5728L69.031 73.0271C69.1272 73.055 69.2152 73.1059 69.2871 73.1753C69.3591 73.2447 69.4129 73.3304 69.4438 73.4251C69.4748 73.5198 69.482 73.6206 69.4649 73.7186C69.4477 73.8167 69.4067 73.9092 69.3453 73.9879L68.3602 75.2555L68.4032 76.8555C68.4057 76.9551 68.3838 77.0537 68.3394 77.143C68.295 77.2323 68.2294 77.3095 68.1483 77.3681C68.0671 77.4267 67.9729 77.4648 67.8737 77.4793C67.7744 77.4937 67.6731 77.4841 67.5785 77.4511L66.0659 76.916Z" fill="white"/>
<path d="M92.0348 118.557H58.45C57.7727 118.557 57.1232 118.289 56.6443 117.814C56.1654 117.339 55.8962 116.694 55.896 116.022V109.162C55.8962 108.49 56.1654 107.845 56.6443 107.369C57.1232 106.894 57.7726 106.627 58.45 106.626H92.0321C92.7096 106.626 93.3592 106.894 93.8382 107.369C94.3171 107.845 94.5862 108.49 94.5862 109.162V116.024C94.5852 116.696 94.3161 117.339 93.8378 117.814C93.3596 118.289 92.7112 118.556 92.0348 118.557V118.557Z" fill="url(#paint1_linear_658_28835)"/>
<path d="M78.314 106.624H86.6352V118.557H78.314V106.624Z" fill="#5996FE"/>
<path d="M68.4019 85.2513H57.8276C57.6599 85.2513 57.4938 85.2185 57.3389 85.1548C57.1839 85.0911 57.0431 84.9978 56.9246 84.8801C56.806 84.7623 56.7119 84.6226 56.6477 84.4688C56.5836 84.315 56.5505 84.1502 56.5505 83.9837C56.5505 83.8173 56.5836 83.6525 56.6477 83.4987C56.7119 83.3449 56.806 83.2052 56.9246 83.0875C57.0431 82.9697 57.1839 82.8764 57.3389 82.8127C57.4938 82.749 57.6599 82.7162 57.8276 82.7162H68.4019C68.5696 82.7162 68.7356 82.749 68.8906 82.8127C69.0455 82.8764 69.1863 82.9697 69.3049 83.0875C69.4235 83.2052 69.5175 83.3449 69.5817 83.4987C69.6459 83.6525 69.6789 83.8173 69.6789 83.9837C69.6789 84.1502 69.6459 84.315 69.5817 84.4688C69.5175 84.6226 69.4235 84.7623 69.3049 84.8801C69.1863 84.9978 69.0455 85.0911 68.8906 85.1548C68.7356 85.2185 68.5696 85.2513 68.4019 85.2513V85.2513Z" fill="#307CFE"/>
<path d="M68.3706 92.4189H29.9347C29.596 92.4189 29.2712 92.2854 29.0317 92.0476C28.7923 91.8099 28.6577 91.4875 28.6577 91.1514C28.6577 90.8152 28.7923 90.4928 29.0317 90.255C29.2712 90.0173 29.596 89.8838 29.9347 89.8838H68.3706C68.7092 89.8838 69.0341 90.0173 69.2736 90.255C69.513 90.4928 69.6476 90.8152 69.6476 91.1514C69.6476 91.4875 69.513 91.8099 69.2736 92.0476C69.0341 92.2854 68.7092 92.4189 68.3706 92.4189V92.4189Z" fill="white"/>
<path d="M68.4012 97.1088H29.9635C29.6249 97.1088 29.3 96.9753 29.0606 96.7376C28.8211 96.4999 28.6865 96.1775 28.6865 95.8413C28.6865 95.5051 28.8211 95.1827 29.0606 94.945C29.3 94.7073 29.6249 94.5737 29.9635 94.5737H68.4012C68.7398 94.5737 69.0647 94.7073 69.3041 94.945C69.5436 95.1827 69.6782 95.5051 69.6782 95.8413C69.6782 96.1775 69.5436 96.4999 69.3041 96.7376C69.0647 96.9753 68.7398 97.1088 68.4012 97.1088Z" fill="white"/>
<path d="M68.4553 62.1887C68.6917 62.1887 68.9229 62.1191 69.1195 61.9887C69.3161 61.8583 69.4693 61.6729 69.5598 61.4561C69.6503 61.2393 69.674 61.0007 69.6278 60.7705C69.5817 60.5403 69.4678 60.3288 69.3006 60.1629C69.1335 59.9969 68.9204 59.8839 68.6885 59.8381C68.4566 59.7923 68.2162 59.8158 67.9978 59.9056C67.7793 59.9955 67.5926 60.1476 67.4613 60.3427C67.3299 60.5378 67.2598 60.7673 67.2598 61.002C67.2598 61.3167 67.3857 61.6185 67.6099 61.8411C67.8341 62.0636 68.1382 62.1887 68.4553 62.1887V62.1887Z" fill="#FFC217"/>
<path d="M64.6743 62.1887C64.9107 62.1887 65.1419 62.1191 65.3385 61.9887C65.5351 61.8583 65.6883 61.6729 65.7788 61.4561C65.8693 61.2393 65.893 61.0007 65.8468 60.7705C65.8007 60.5403 65.6868 60.3288 65.5196 60.1629C65.3524 59.9969 65.1394 59.8839 64.9075 59.8381C64.6756 59.7923 64.4352 59.8158 64.2168 59.9056C63.9983 59.9955 63.8116 60.1476 63.6802 60.3427C63.5489 60.5378 63.4788 60.7673 63.4788 61.002C63.4788 61.3167 63.6047 61.6185 63.8289 61.8411C64.0531 62.0636 64.3572 62.1887 64.6743 62.1887V62.1887Z" fill="#FFC217"/>
<path d="M72.2707 32.5881C74.9921 32.5881 77.6524 31.7871 79.9152 30.2864C82.178 28.7856 83.9416 26.6526 84.983 24.1569C86.0244 21.6613 86.2969 18.9151 85.766 16.2658C85.2351 13.6164 83.9246 11.1828 82.0003 9.27275C80.0759 7.36267 77.6242 6.06189 74.9551 5.5349C72.286 5.00791 69.5193 5.27838 67.0051 6.31211C64.4908 7.34584 62.3419 9.09639 60.8299 11.3424C59.318 13.5884 58.511 16.229 58.511 18.9303C58.511 22.5526 59.9607 26.0265 62.5411 28.5878C65.1216 31.1492 68.6214 32.5881 72.2707 32.5881V32.5881Z" fill="#307CFE"/>
<path d="M102.435 74.5576H77.486C77.1473 74.5576 76.8225 74.6912 76.583 74.9289C76.3435 75.1666 76.209 75.489 76.209 75.8252C76.209 76.1613 76.3435 76.4838 76.583 76.7215C76.8225 76.9592 77.1473 77.0927 77.486 77.0927H102.435C102.774 77.093 103.099 77.2266 103.338 77.4643C103.577 77.7019 103.712 78.0242 103.712 78.3603V113.051C103.712 113.387 103.577 113.709 103.338 113.947C103.099 114.185 102.774 114.318 102.435 114.319H95.8657V109.163C95.8645 108.155 95.4605 107.188 94.7424 106.475C94.0242 105.762 93.0504 105.361 92.0346 105.359H77.486V32.9308C81.0115 31.6378 83.9215 29.0813 85.6428 25.7649C87.3641 22.4484 87.772 18.6125 86.7862 15.0124C85.8003 11.4124 83.4921 8.30921 80.3162 6.31409C77.1404 4.31897 73.327 3.57652 69.6271 4.23295C65.9272 4.88937 62.6091 6.89711 60.3262 9.86072C58.0432 12.8243 56.961 16.529 57.2926 20.2451C57.6242 23.9613 59.3456 27.4195 62.1178 29.9387C64.8899 32.4579 68.512 33.8554 72.2705 33.8561C73.1629 33.8543 74.0535 33.7746 74.932 33.6179V105.351H58.4499C57.4341 105.353 56.4603 105.754 55.7422 106.467C55.024 107.18 54.62 108.147 54.6188 109.155V114.311H24.6188C23.603 114.309 22.6293 113.908 21.9111 113.195C21.1929 112.482 20.7889 111.515 20.7878 110.507V21.1672C20.7889 20.159 21.1929 19.1925 21.9112 18.4796C22.6294 17.7667 23.6031 17.3657 24.6188 17.3645H57.3161C57.6548 17.3645 57.9796 17.231 58.2191 16.9933C58.4586 16.7556 58.5931 16.4332 58.5931 16.097C58.5931 15.7608 58.4586 15.4384 58.2191 15.2007C57.9796 14.963 57.6548 14.8294 57.3161 14.8294H24.6224C22.9295 14.8311 21.3064 15.4993 20.1093 16.6875C18.9122 17.8757 18.239 19.4868 18.2373 21.1672V110.515C18.2387 112.196 18.9119 113.807 20.109 114.995C21.3061 116.184 22.9293 116.852 24.6224 116.854H54.7119C54.9019 117.697 55.3756 118.452 56.055 118.992C56.7344 119.533 57.579 119.828 58.4499 119.829H92.032C92.9019 119.827 93.7456 119.532 94.4245 118.992C95.1035 118.453 95.5776 117.7 95.769 116.857H102.433C103.448 116.856 104.422 116.455 105.14 115.742C105.858 115.029 106.262 114.063 106.264 113.055V78.3603C106.262 77.3526 105.859 76.3864 105.141 75.6736C104.424 74.9608 103.45 74.5595 102.435 74.5576V74.5576ZM59.7842 18.9317C59.784 16.4812 60.5159 14.0857 61.8872 12.0481C63.2586 10.0105 65.2078 8.42228 67.4885 7.48424C69.7692 6.54621 72.2789 6.30051 74.7003 6.7782C77.1216 7.2559 79.3459 8.43553 81.0919 10.168C82.8379 11.9004 84.0271 14.1078 84.5092 16.511C84.9913 18.9143 84.7447 21.4055 83.8005 23.6696C82.8563 25.9338 81.2569 27.8692 79.2046 29.2311C77.1523 30.593 74.7392 31.3203 72.2705 31.321C68.9605 31.3182 65.7869 30.0121 63.4461 27.6894C61.1052 25.3667 59.7882 22.2171 59.7842 18.9317V18.9317ZM93.3117 116.022C93.3117 116.358 93.1771 116.68 92.9376 116.918C92.6981 117.156 92.3733 117.289 92.0346 117.289H58.4499C58.1112 117.289 57.7864 117.156 57.5469 116.918C57.3074 116.68 57.1728 116.358 57.1728 116.022V109.162C57.1728 108.826 57.3074 108.504 57.5469 108.266C57.7864 108.028 58.1112 107.895 58.4499 107.895H92.032C92.3706 107.895 92.6955 108.028 92.9349 108.266C93.1744 108.504 93.309 108.826 93.309 109.162L93.3117 116.022Z" fill="#003183"/>
<path d="M70.2395 26.6434C70.1908 26.6436 70.142 26.6412 70.0935 26.6363C69.7899 26.6097 69.4996 26.5003 69.2547 26.32C69.0099 26.1397 68.8201 25.8957 68.7064 25.615L66.9234 21.1883C66.9059 21.1447 66.8756 21.1074 66.8365 21.0811C66.7974 21.0548 66.7512 21.0408 66.704 21.0407C66.4844 21.0458 66.2661 21.0073 66.0617 20.9274C65.8574 20.8475 65.6712 20.7279 65.5141 20.5755C65.357 20.4232 65.2322 20.2412 65.1469 20.0403C65.0617 19.8394 65.0178 19.6236 65.0178 19.4056C65.0178 19.1876 65.0617 18.9718 65.1469 18.7709C65.2322 18.57 65.357 18.388 65.5141 18.2357C65.6712 18.0834 65.8574 17.9637 66.0617 17.8838C66.2661 17.8039 66.4844 17.7654 66.704 17.7705C67.4107 17.7679 68.1017 17.977 68.6868 18.3705C69.2719 18.7639 69.7238 19.3234 69.9834 19.9758L70.5556 21.3981L76.4339 11.9971C76.548 11.8145 76.6974 11.656 76.8733 11.5307C77.0492 11.4053 77.2482 11.3156 77.4591 11.2666C77.6699 11.2176 77.8884 11.2103 78.1021 11.2451C78.3158 11.28 78.5205 11.3562 78.7044 11.4696C78.8884 11.5829 79.0481 11.7311 79.1744 11.9057C79.3007 12.0803 79.3911 12.2779 79.4405 12.4872C79.4898 12.6965 79.4971 12.9134 79.4621 13.1255C79.427 13.3376 79.3501 13.5407 79.2359 13.7234L71.6374 25.8727C71.4898 26.1087 71.2839 26.3034 71.0393 26.4382C70.7946 26.5731 70.5194 26.6437 70.2395 26.6434V26.6434Z" fill="white"/>
<path d="M60.7471 46.474C61.1608 43.9448 60.8096 41.3505 59.7379 39.0194C58.6662 36.6882 56.9221 34.7249 54.7262 33.3776C52.5304 32.0304 49.9813 31.3597 47.4014 31.4504C44.8215 31.5411 42.3267 32.3891 40.2324 33.8873C38.1381 35.3854 36.5384 37.4663 35.6355 39.8669C34.7327 42.2675 34.5673 44.8799 35.1603 47.3738C35.7532 49.8676 37.0779 52.131 38.9668 53.8775C40.8557 55.6241 43.224 56.7755 45.7722 57.1861C49.189 57.7366 52.6863 56.9173 55.4947 54.9085C58.303 52.8996 60.1923 49.8656 60.7471 46.474V46.474Z" fill="#FFC217"/>
<path d="M41.2659 43.9745C41.2699 43.7389 41.3208 43.5064 41.4155 43.2903C41.5101 43.0742 41.6468 42.8787 41.8176 42.7151C41.9885 42.5515 42.1901 42.4229 42.4111 42.3367C42.632 42.2505 42.8679 42.2084 43.1053 42.2127C43.341 42.2088 43.5752 42.2515 43.7941 42.3382C44.0131 42.425 44.2125 42.5541 44.3807 42.718C44.549 42.882 44.6827 43.0775 44.7741 43.2932C44.8656 43.5089 44.9129 43.7405 44.9133 43.9745V45.7523C44.9133 46.529 45.2242 47.2738 45.7775 47.823C46.3307 48.3722 47.0812 48.6807 47.8636 48.6807C48.6461 48.6807 49.3965 48.3722 49.9498 47.823C50.5031 47.2738 50.8139 46.529 50.8139 45.7523V43.9745C50.818 43.7389 50.8688 43.5064 50.9635 43.2903C51.0582 43.0742 51.1949 42.8787 51.3657 42.7151C51.5365 42.5515 51.7382 42.4229 51.9591 42.3367C52.1801 42.2505 52.416 42.2084 52.6533 42.2127C52.889 42.2091 53.1231 42.2519 53.3419 42.3387C53.5608 42.4256 53.7601 42.5547 53.9283 42.7186C54.0965 42.8825 54.2302 43.0779 54.3217 43.2935C54.4132 43.5091 54.4607 43.7405 54.4614 43.9745V45.7523C54.4266 47.4656 53.7164 49.097 52.4834 50.2965C51.2504 51.4959 49.5927 52.1677 47.8663 52.1677C46.1399 52.1677 44.4823 51.4959 43.2493 50.2965C42.0162 49.097 41.3061 47.4656 41.2712 45.7523V43.9745H41.2659Z" fill="#307CFE"/>
<path d="M43.1019 41.3967C43.4651 41.3967 43.8202 41.2898 44.1223 41.0895C44.4243 40.8891 44.6597 40.6044 44.7988 40.2713C44.9378 39.9382 44.9741 39.5716 44.9033 39.2179C44.8324 38.8643 44.6575 38.5394 44.4006 38.2845C44.1437 38.0295 43.8165 37.8559 43.4602 37.7855C43.1039 37.7152 42.7346 37.7513 42.399 37.8893C42.0634 38.0273 41.7765 38.2609 41.5747 38.5607C41.3729 38.8605 41.2651 39.213 41.2651 39.5736C41.2651 40.0571 41.4586 40.5208 41.8031 40.8627C42.1475 41.2046 42.6147 41.3967 43.1019 41.3967Z" fill="#307CFE"/>
<path d="M52.6202 41.3967C52.9834 41.3967 53.3385 41.2898 53.6406 41.0895C53.9426 40.8891 54.1781 40.6044 54.3171 40.2713C54.4561 39.9382 54.4925 39.5716 54.4216 39.2179C54.3507 38.8643 54.1758 38.5394 53.9189 38.2845C53.662 38.0295 53.3348 37.8559 52.9785 37.7855C52.6222 37.7152 52.2529 37.7513 51.9173 37.8893C51.5817 38.0273 51.2948 38.2609 51.093 38.5607C50.8912 38.8605 50.7834 39.213 50.7834 39.5736C50.7834 40.0571 50.977 40.5208 51.3214 40.8627C51.6659 41.2046 52.133 41.3967 52.6202 41.3967Z" fill="#307CFE"/>
<defs>
<linearGradient id="paint0_linear_658_28835" x1="21.5547" y1="71.9523" x2="78.2017" y2="117.489" gradientUnits="userSpaceOnUse">
<stop stop-color="#6792DB"/>
<stop offset="1" stop-color="#1B4A97"/>
</linearGradient>
<linearGradient id="paint1_linear_658_28835" x1="55.896" y1="106.626" x2="64.0165" y2="127.93" gradientUnits="userSpaceOnUse">
<stop stop-color="#648FD9"/>
<stop offset="1" stop-color="#3361AC"/>
</linearGradient>
</defs>
</svg>
