<svg width="40" height="40" viewBox="0 0 40 40" fill="none" xmlns="http://www.w3.org/2000/svg">
<path d="M32.698 0.105278H7.3575C3.37867 0.100002 0.111062 3.32197 0.10523 7.3018V32.6416C0.100232 36.6217 3.32257 39.8895 7.30196 39.8947H32.6427C36.6224 39.8997 39.8886 36.678 39.8947 32.6974V7.35735C39.9002 3.37724 36.6785 0.110832 32.698 0.105278Z" fill="#06C755"/>
<path d="M34.425 18.251C34.425 11.7687 27.9264 6.49503 19.9379 6.49503C11.9506 6.49503 5.45117 11.7687 5.45117 18.251C5.45117 24.0623 10.605 28.9291 17.5668 29.8494C18.0386 29.9511 18.6807 30.1605 18.8432 30.5637C18.9893 30.93 18.9387 31.5038 18.8898 31.8737C18.8898 31.8737 18.7199 32.8959 18.6832 33.1136C18.6202 33.4799 18.3922 34.546 19.9379 33.8945C21.4843 33.243 28.2811 28.9822 31.3204 25.4839H31.3198C33.4194 23.1817 34.425 20.8453 34.425 18.251Z" fill="white"/>
<path d="M16.9946 15.1186H15.9785C15.8227 15.1186 15.696 15.2449 15.696 15.4002V21.7125C15.696 21.868 15.8227 21.994 15.9785 21.994H16.9946C17.1504 21.994 17.2768 21.868 17.2768 21.7125V15.4002C17.2768 15.2449 17.1504 15.1186 16.9946 15.1186Z" fill="#06C755"/>
<path d="M23.9843 15.1186H22.9681C22.8123 15.1186 22.686 15.2449 22.686 15.4002V19.1503L19.7933 15.2438C19.7866 15.2338 19.7791 15.2244 19.7713 15.2152L19.7694 15.2135C19.7638 15.2071 19.7583 15.2016 19.7525 15.196C19.7508 15.1944 19.7491 15.193 19.7472 15.1913C19.7425 15.1869 19.7375 15.1827 19.7322 15.1788C19.73 15.1766 19.7275 15.1749 19.725 15.173C19.72 15.1697 19.7152 15.166 19.7102 15.163C19.7075 15.161 19.7047 15.1594 19.7016 15.158C19.6966 15.1549 19.6916 15.1519 19.6866 15.1494C19.6836 15.148 19.6808 15.1463 19.6777 15.1452C19.6725 15.1427 19.6672 15.1402 19.6616 15.1383C19.6583 15.1372 19.6555 15.1361 19.6525 15.1349C19.6469 15.133 19.6414 15.1311 19.6355 15.1297C19.6325 15.1286 19.6291 15.128 19.6258 15.1269C19.6203 15.1258 19.615 15.1244 19.6097 15.1233C19.6058 15.1227 19.6017 15.1222 19.5978 15.1219C19.5928 15.1208 19.5878 15.1205 19.5828 15.1199C19.578 15.1194 19.5733 15.1194 19.5683 15.1191C19.5647 15.1191 19.5619 15.1186 19.5583 15.1186H18.5424C18.3866 15.1186 18.26 15.2449 18.26 15.4002V21.7125C18.26 21.868 18.3866 21.994 18.5424 21.994H19.5583C19.7144 21.994 19.8408 21.868 19.8408 21.7125V17.9634L22.7371 21.8749C22.7571 21.9032 22.7818 21.9263 22.8087 21.9446C22.8095 21.9452 22.8107 21.946 22.8115 21.9468C22.8173 21.9504 22.8232 21.9541 22.829 21.9574C22.8318 21.9591 22.8343 21.9602 22.837 21.9616C22.8412 21.9641 22.8459 21.9663 22.8504 21.9682C22.8551 21.9702 22.8593 21.9721 22.8643 21.9741C22.867 21.9752 22.8698 21.9763 22.8726 21.9771C22.8793 21.9796 22.8854 21.9816 22.8918 21.9835C22.8931 21.9835 22.8945 21.9841 22.8959 21.9843C22.919 21.9904 22.9431 21.994 22.9681 21.994H23.9843C24.1404 21.994 24.2664 21.868 24.2664 21.7125V15.4002C24.2664 15.2449 24.1404 15.1186 23.9843 15.1186Z" fill="#06C755"/>
<path d="M14.5432 20.4131H11.7821V15.4002C11.7821 15.2444 11.6558 15.1181 11.5003 15.1181H10.4838C10.328 15.1181 10.2017 15.2444 10.2017 15.4002V21.7114V21.712C10.2017 21.7878 10.2319 21.8564 10.2805 21.9069C10.2816 21.9083 10.2828 21.9097 10.2844 21.9111C10.2858 21.9125 10.2872 21.9136 10.2886 21.915C10.3394 21.9638 10.4077 21.9938 10.4835 21.9938H10.4838H14.5432C14.699 21.9938 14.8248 21.8672 14.8248 21.7114V20.6953C14.8248 20.5395 14.699 20.4131 14.5432 20.4131Z" fill="#06C755"/>
<path d="M29.5996 16.699C29.7554 16.699 29.8812 16.5729 29.8812 16.4168V15.4007C29.8812 15.2449 29.7554 15.1183 29.5996 15.1183H25.5402H25.5397C25.4636 15.1183 25.395 15.1488 25.3441 15.198C25.343 15.1991 25.3416 15.1999 25.3408 15.201C25.3391 15.2027 25.3378 15.2044 25.3364 15.206C25.2881 15.2566 25.2581 15.3249 25.2581 15.4004V15.4007V21.7119V21.7122C25.2581 21.788 25.2883 21.8566 25.3369 21.9071C25.338 21.9085 25.3394 21.9102 25.3408 21.9113C25.3419 21.9127 25.3436 21.9141 25.345 21.9152C25.3955 21.9638 25.4641 21.994 25.5397 21.994H25.5402H29.5996C29.7554 21.994 29.8812 21.8674 29.8812 21.7119V20.6955C29.8812 20.54 29.7554 20.4133 29.5996 20.4133H26.8388V19.3464H29.5996C29.7554 19.3464 29.8812 19.22 29.8812 19.0642V18.0481C29.8812 17.8923 29.7554 17.7657 29.5996 17.7657H26.8388V16.699H29.5996Z" fill="#06C755"/>
</svg>
