<svg width="42" height="42" viewBox="0 0 42 42" fill="none" xmlns="http://www.w3.org/2000/svg">
<path d="M3.7932 35.7995H10.1324V20.9631L1.07642 14.4177V33.1813C1.07642 34.6301 2.29444 35.7995 3.7932 35.7995Z" fill="#4285F4"/>
<path d="M31.8655 35.7995H38.2046C39.7079 35.7995 40.9214 34.6257 40.9214 33.1813V14.4177L31.8655 20.9631" fill="#34A853"/>
<path d="M31.8655 9.61832V20.9638L40.9214 14.4183V10.9274C40.9214 7.68959 37.0862 5.84377 34.4011 7.78559" fill="#FBBC04"/>
<path d="M10.1335 20.9632V9.61771L21.0007 17.4723L31.8678 9.61771V20.9632L21.0007 28.8177" fill="#EA4335"/>
<path d="M1.07642 10.9284V14.4194L10.1324 20.9648V9.61935L7.5967 7.78663C4.90708 5.84481 1.07642 7.69063 1.07642 10.9284Z" fill="#C5221F"/>
</svg>
