<svg width="195" height="230" viewBox="0 0 195 230" fill="none" xmlns="http://www.w3.org/2000/svg">
<path opacity="0.27" d="M61.9162 59.9426L34.3094 76.1395C32.0475 77.4671 30.1696 79.3619 28.8605 81.6376C27.5515 83.9133 26.8565 86.4913 26.8439 89.1179C26.8313 91.7445 27.5016 94.329 28.7887 96.6172C30.0759 98.9054 31.9356 100.818 34.1847 102.168L128.357 158.657C133.027 161.458 138.363 162.95 143.806 162.976C149.248 163.003 154.598 161.563 159.295 158.807L184.448 144.048C186.861 142.632 188.864 140.612 190.26 138.185C191.656 135.758 192.398 133.009 192.411 130.208C192.425 127.407 191.71 124.651 190.337 122.211C188.965 119.77 186.981 117.731 184.583 116.292L90.8801 60.0846C86.5082 57.4618 81.5131 56.0649 76.4176 56.0399C71.3221 56.0149 66.3135 57.3628 61.9162 59.9426Z" fill="#7DC3EA"/>
<path d="M47.972 79.1369C45.2669 77.5732 42.8182 77.4253 41.0501 78.4571L33.5664 82.8193C35.3365 81.7895 37.7852 81.9394 40.4813 83.4991C45.8556 86.6055 50.1921 94.1381 50.1752 100.319C50.1682 103.39 49.0875 105.551 47.3423 106.57L54.837 102.205C56.5792 101.188 57.6589 99.0282 57.6688 95.9577C57.6838 89.7749 53.3383 82.2364 47.972 79.1369Z" fill="#484848"/>
<path d="M40.4803 83.4978C45.8546 86.6042 50.1911 94.1368 50.1742 100.318C50.1572 106.498 45.7917 108.993 40.4214 105.886C35.0512 102.778 30.7116 95.2506 30.7305 89.0668C30.7495 82.8829 35.114 80.3904 40.4803 83.4978Z" fill="#323232"/>
<path d="M40.4353 100.609C43.2741 102.249 45.5791 100.925 45.5871 97.6635C45.4941 95.8831 44.9819 94.1499 44.0924 92.6058C43.2029 91.0617 41.9613 89.7504 40.4692 88.7792C37.6334 87.1365 35.3294 88.4623 35.3164 91.7216C35.4118 93.502 35.9252 95.2347 36.8146 96.779C37.704 98.3232 38.9445 99.6354 40.4353 100.609Z" fill="white"/>
<path d="M70.3235 92.4653C67.6184 90.9016 65.1708 90.7526 63.4017 91.7864L55.918 96.1486C57.6881 95.1188 60.1367 95.2668 62.8319 96.8275C68.2061 99.9339 72.5437 107.468 72.5267 113.648C72.5197 116.72 71.4391 118.88 69.6939 119.899L77.1876 115.533C78.9298 114.516 80.0094 112.358 80.0194 109.287C80.0324 103.109 75.6908 95.5717 70.3235 92.4653Z" fill="#484848"/>
<path d="M62.8298 96.8271C68.2041 99.9335 72.5417 107.468 72.5247 113.648C72.5077 119.828 68.1413 122.323 62.772 119.216C57.4027 116.108 53.0621 108.58 53.0821 102.397C53.1021 96.2142 57.4645 93.7217 62.8298 96.8271Z" fill="#323232"/>
<path d="M62.7858 113.939C65.6257 115.579 67.9306 114.255 67.9376 110.994C67.8444 109.214 67.3323 107.481 66.443 105.937C65.5537 104.393 64.3125 103.082 62.8207 102.111C59.9829 100.469 57.6799 101.794 57.668 105.052C57.763 106.832 58.276 108.565 59.1653 110.109C60.0546 111.653 61.2951 112.966 62.7858 113.939Z" fill="white"/>
<path d="M142.085 132.228C139.385 130.666 136.934 130.518 135.173 131.554L127.676 135.917C129.45 134.884 131.897 135.028 134.594 136.589C139.968 139.7 144.31 147.228 144.288 153.412C144.28 156.48 143.197 158.641 141.452 159.66C143.948 158.207 146.445 156.755 148.944 155.304C150.687 154.285 151.769 152.12 151.777 149.051C151.795 142.866 147.458 135.337 142.085 132.228Z" fill="#484848"/>
<path d="M134.593 136.589C139.967 139.699 144.309 147.228 144.287 153.411C144.265 159.595 139.896 162.089 134.53 158.983C129.163 155.878 124.82 148.34 124.84 142.16C124.86 135.979 129.226 133.481 134.593 136.589Z" fill="#323232"/>
<path d="M178.12 110.448C175.417 108.884 172.967 108.739 171.203 109.773L163.707 114.136C165.479 113.106 167.926 113.25 170.625 114.809C175.999 117.919 180.34 125.448 180.318 131.634C180.311 134.701 179.229 136.86 177.482 137.879C179.98 136.426 182.478 134.975 184.976 133.525C186.719 132.504 187.802 130.341 187.81 127.272C187.827 121.086 183.486 113.559 178.12 110.448Z" fill="#484848"/>
<path d="M170.632 114.81C176.006 117.92 180.347 125.449 180.325 131.635C180.303 137.82 175.941 140.311 170.568 137.206C165.195 134.1 160.859 126.564 160.879 120.382C160.899 114.2 165.257 111.702 170.632 114.81Z" fill="#484848"/>
<path d="M170.585 131.923C173.419 133.562 175.727 132.241 175.736 128.98C175.642 127.2 175.13 125.467 174.24 123.923C173.351 122.379 172.11 121.068 170.619 120.096C167.785 118.457 165.477 119.773 165.469 123.04C165.561 124.82 166.073 126.553 166.962 128.097C167.852 129.641 169.093 130.951 170.586 131.922L170.585 131.923Z" fill="white"/>
<path d="M153.758 142.292L194.945 118.583L194.929 124.867L153.738 148.583L153.758 142.292Z" fill="#3A547D"/>
<path d="M117.259 76.5691L162.207 50.3911L162.071 98.3059L117.121 124.48L117.259 76.5691Z" fill="#F3C733"/>
<path d="M117.257 76.5692L117.12 124.48L31.0703 74.0796L31.205 26.1748L117.257 76.5692Z" fill="#E79033"/>
<path d="M31.207 26.175L76.1571 0L162.209 50.3904L117.256 76.5693L31.207 26.175Z" fill="#F7DA52"/>
<path d="M148.59 101.505L120.551 85.2837V129.375L125.64 132.321C127.651 129.441 131.427 128.894 135.758 131.39C140.088 133.885 143.834 138.802 145.826 143.994L153.735 148.578L153.754 142.288L153.809 123.823L148.59 101.505Z" fill="#061B3E"/>
<path d="M147.062 103.073C147.041 102.984 147.003 102.901 146.948 102.827C146.894 102.754 146.826 102.692 146.747 102.646L127.636 91.5924C127.534 91.5325 127.418 91.501 127.3 91.501C127.182 91.501 127.067 91.5325 126.965 91.5924C126.862 91.6494 126.776 91.7333 126.717 91.8352C126.657 91.9371 126.626 92.0532 126.627 92.1713L126.586 107.099C126.585 107.217 126.615 107.333 126.674 107.435C126.732 107.537 126.817 107.622 126.918 107.68L150.124 121.108C150.226 121.168 150.343 121.201 150.462 121.202H150.496C150.674 121.202 150.846 121.131 150.972 121.005C151.099 120.879 151.17 120.708 151.171 120.529C151.171 120.405 151.136 120.284 151.072 120.179L147.062 103.073Z" fill="#231F20"/>
<path d="M153.814 123.825L194.997 100.114L194.945 118.581L153.758 142.29L153.814 123.825Z" fill="#09295D"/>
<path d="M120.555 85.2838L161.742 61.5693L189.781 77.7912L148.595 101.5L120.555 85.2838Z" fill="url(#paint0_linear_1244_50)"/>
<path d="M189.775 77.7959L148.59 101.504L153.815 123.828L194.998 100.117L189.775 77.7959ZM190.343 97.4471H190.312C190.193 97.4473 190.076 97.4155 189.973 97.3551L174.393 88.3389L187.287 80.9253L190.92 96.4223C190.985 96.5273 191.019 96.6486 191.019 96.7722C191.019 96.861 191.002 96.9489 190.968 97.0308C190.934 97.1128 190.884 97.1872 190.821 97.2499C190.758 97.3125 190.684 97.3622 190.602 97.3961C190.52 97.4299 190.433 97.4473 190.344 97.4471H190.343Z" fill="#3A547D"/>
<path d="M193.226 98.9161L189.018 80.9266C188.994 80.8252 188.946 80.7308 188.879 80.6507C188.812 80.5706 188.728 80.507 188.633 80.4647C188.536 80.4247 188.431 80.4071 188.326 80.4133C188.221 80.4196 188.119 80.4494 188.027 80.5007L187.287 80.9246L190.92 96.4216C190.985 96.5266 191.02 96.6479 191.02 96.7716C191.019 96.9506 190.947 97.122 190.82 97.2479C190.693 97.3739 190.521 97.4442 190.342 97.4434H190.311C190.192 97.4436 190.075 97.4119 189.972 97.3515L174.392 88.3352L178.24 86.1206L150.68 101.967C150.555 102.04 150.457 102.151 150.4 102.284C150.343 102.417 150.329 102.564 150.36 102.705L154.57 120.688C154.595 120.79 154.644 120.885 154.712 120.966C154.779 121.046 154.865 121.109 154.961 121.151C155.043 121.191 155.134 121.211 155.225 121.21C155.345 121.208 155.462 121.174 155.564 121.11L192.91 99.643C193.032 99.5709 193.129 99.4617 193.186 99.3311C193.243 99.2005 193.257 99.0552 193.226 98.9161Z" fill="#231F20"/>
<path d="M193.227 98.9157L192.62 96.3242L154.066 118.52L154.573 120.693C154.598 120.795 154.647 120.89 154.715 120.97C154.783 121.05 154.868 121.114 154.964 121.155C155.047 121.195 155.137 121.215 155.228 121.214C155.348 121.213 155.465 121.178 155.567 121.114L192.913 99.6476C193.036 99.5749 193.133 99.4648 193.189 99.3332C193.246 99.2016 193.259 99.0554 193.227 98.9157Z" fill="#484848"/>
<path d="M134.55 153.701C137.386 155.34 139.693 154.022 139.703 150.761C139.609 148.981 139.097 147.248 138.208 145.704C137.318 144.16 136.078 142.848 134.586 141.876C131.75 140.237 129.441 141.554 129.434 144.822C129.526 146.602 130.038 148.334 130.927 149.877C131.817 151.42 133.058 152.73 134.55 153.7V153.701Z" fill="white"/>
<path d="M160.226 128.606L156.035 131.018C155.772 131.169 155.554 131.386 155.402 131.648C155.249 131.91 155.168 132.207 155.166 132.51L155.141 136.744C155.138 137.049 155.217 137.35 155.367 137.615C155.518 137.881 155.736 138.101 156 138.255C156.263 138.409 156.562 138.49 156.867 138.49C157.172 138.491 157.471 138.411 157.735 138.258L161.95 135.834C162.213 135.683 162.432 135.464 162.585 135.201C162.737 134.938 162.818 134.639 162.819 134.335V130.113C162.82 129.809 162.741 129.509 162.589 129.245C162.438 128.981 162.22 128.762 161.957 128.609C161.694 128.456 161.396 128.375 161.092 128.375C160.788 128.374 160.489 128.454 160.226 128.606Z" fill="#F3C733"/>
<path d="M185.98 114.769V119.013C185.981 119.318 186.061 119.616 186.212 119.88C186.364 120.143 186.583 120.362 186.846 120.514C187.108 120.666 187.407 120.746 187.71 120.746C188.014 120.745 188.312 120.665 188.575 120.513L192.809 118.078C193.072 117.926 193.291 117.707 193.443 117.444C193.595 117.181 193.675 116.882 193.676 116.578V112.333C193.676 112.029 193.596 111.73 193.444 111.466C193.292 111.203 193.073 110.984 192.811 110.832C192.548 110.68 192.249 110.6 191.946 110.601C191.642 110.601 191.344 110.681 191.081 110.833L186.848 113.273C186.585 113.424 186.366 113.642 186.214 113.905C186.062 114.167 185.981 114.465 185.98 114.769Z" fill="#F3C733"/>
<path d="M41.0617 76.6822C40.9224 76.6824 40.7844 76.655 40.6557 76.6017C40.5269 76.5484 40.4099 76.4702 40.3113 76.3717C40.2127 76.2731 40.1345 76.1559 40.0811 76.0271C40.0277 75.8982 40.0001 75.76 40 75.6204V37.2947C40 37.0126 40.1119 36.742 40.311 36.5425C40.5101 36.343 40.7801 36.231 41.0617 36.231C41.2009 36.2311 41.3389 36.2587 41.4675 36.3122C41.5961 36.3658 41.713 36.4442 41.8114 36.543C41.9098 36.6418 41.9878 36.759 42.041 36.888C42.0942 37.017 42.1215 37.1552 42.1214 37.2947V75.6204C42.1214 75.902 42.0097 76.1721 41.811 76.3712C41.6123 76.5704 41.3427 76.6822 41.0617 76.6822Z" fill="#F2EED5"/>
<path d="M48.4172 80.9391C48.2779 80.9392 48.1399 80.9118 48.0111 80.8586C47.8824 80.8053 47.7654 80.7271 47.6669 80.6285C47.5683 80.5299 47.49 80.4128 47.4366 80.2839C47.3832 80.155 47.3556 80.0168 47.3555 79.8773V41.5516C47.3555 41.2694 47.4673 40.9989 47.6664 40.7994C47.8655 40.5999 48.1356 40.4878 48.4172 40.4878C48.5565 40.4879 48.6943 40.5155 48.823 40.5691C48.9516 40.6226 49.0685 40.701 49.1669 40.7998C49.2653 40.8986 49.3433 41.0158 49.3965 41.1448C49.4497 41.2738 49.477 41.412 49.4768 41.5516V79.8773C49.4768 80.1589 49.3652 80.4289 49.1665 80.6281C48.9677 80.8272 48.6982 80.9391 48.4172 80.9391Z" fill="#F2EED5"/>
<path d="M55.7745 85.1896C55.6353 85.1894 55.4973 85.1618 55.3687 85.1083C55.2401 85.0547 55.1232 84.9764 55.0248 84.8776C54.9264 84.7788 54.8484 84.6615 54.7952 84.5325C54.742 84.4035 54.7147 84.2653 54.7148 84.1258V45.8001C54.7148 45.5185 54.8265 45.2484 55.0252 45.0493C55.2239 44.8502 55.4935 44.7383 55.7745 44.7383C55.9139 44.7382 56.052 44.7656 56.1808 44.8189C56.3096 44.8723 56.4266 44.9505 56.5252 45.0492C56.6238 45.1479 56.702 45.2652 56.7554 45.3942C56.8088 45.5232 56.8362 45.6614 56.8362 45.8011V84.1268C56.8359 84.4087 56.724 84.6791 56.5249 84.8783C56.3259 85.0776 56.056 85.1896 55.7745 85.1896Z" fill="#F2EED5"/>
<path d="M63.132 89.4508C62.8504 89.4508 62.5804 89.3387 62.3813 89.1392C62.1822 88.9397 62.0703 88.6691 62.0703 88.387V50.0613C62.0708 49.7795 62.183 49.5095 62.382 49.3104C62.5811 49.1113 62.8508 48.9995 63.132 48.9995C63.4133 48.9995 63.6831 49.1115 63.882 49.3108C64.081 49.5101 64.1927 49.7805 64.1927 50.0623V88.388C64.1927 88.6698 64.081 88.9402 63.882 89.1395C63.6831 89.3388 63.4133 89.4508 63.132 89.4508Z" fill="#F2EED5"/>
<path d="M70.4874 93.7072C70.3479 93.7072 70.2098 93.6797 70.0809 93.6261C69.952 93.5726 69.835 93.4942 69.7364 93.3953C69.6378 93.2964 69.5596 93.179 69.5063 93.0498C69.453 92.9206 69.4257 92.7822 69.4258 92.6424V54.3167C69.4258 54.0346 69.5376 53.764 69.7367 53.5645C69.9358 53.365 70.2059 53.2529 70.4874 53.2529C70.6268 53.2529 70.7648 53.2805 70.8936 53.3339C71.0223 53.3874 71.1393 53.4658 71.2378 53.5646C71.3363 53.6634 71.4144 53.7806 71.4677 53.9097C71.5209 54.0388 71.5482 54.1771 71.5481 54.3167V92.6424C71.5484 92.7821 71.5211 92.9206 71.468 93.0497C71.4148 93.1789 71.3367 93.2963 71.2382 93.3952C71.1397 93.4941 71.0227 93.5726 70.8938 93.6261C70.765 93.6796 70.6269 93.7072 70.4874 93.7072Z" fill="#F2EED5"/>
<path d="M77.8429 97.962C77.7036 97.9621 77.5657 97.9348 77.4369 97.8815C77.3082 97.8282 77.1912 97.75 77.0926 97.6514C76.994 97.5528 76.9158 97.4357 76.8624 97.3068C76.8089 97.1779 76.7814 97.0398 76.7812 96.9002V58.5755C76.7812 58.4358 76.8087 58.2975 76.8621 58.1684C76.9154 58.0394 76.9936 57.9221 77.0922 57.8233C77.1908 57.7245 77.3078 57.6462 77.4366 57.5927C77.5654 57.5392 77.7035 57.5117 77.8429 57.5117C77.9823 57.5117 78.1204 57.5392 78.2492 57.5927C78.378 57.6462 78.4951 57.7245 78.5936 57.8233C78.6922 57.9221 78.7704 58.0394 78.8238 58.1684C78.8771 58.2975 78.9046 58.4358 78.9046 58.5755V96.9012C78.9041 97.1829 78.7919 97.4529 78.5929 97.6518C78.3938 97.8507 78.124 97.9623 77.8429 97.962Z" fill="#F2EED5"/>
<path d="M85.1984 102.218C85.0591 102.218 84.9212 102.191 84.7925 102.138C84.6637 102.085 84.5467 102.006 84.4481 101.908C84.3495 101.809 84.2713 101.692 84.2178 101.563C84.1644 101.434 84.1368 101.296 84.1367 101.157V62.8309C84.1367 62.6912 84.1642 62.5529 84.2175 62.4238C84.2709 62.2947 84.3491 62.1774 84.4477 62.0786C84.5463 61.9799 84.6633 61.9015 84.7922 61.8481C84.921 61.7946 85.059 61.7671 85.1984 61.7671C85.3379 61.7671 85.4759 61.7946 85.6047 61.8481C85.7335 61.9015 85.8506 61.9799 85.9492 62.0786C86.0478 62.1774 86.126 62.2947 86.1793 62.4238C86.2327 62.5529 86.2601 62.6912 86.2601 62.8309V101.157C86.26 101.296 86.2325 101.434 86.179 101.563C86.1256 101.692 86.0473 101.809 85.9488 101.908C85.8502 102.006 85.7331 102.085 85.6044 102.138C85.4757 102.191 85.3377 102.218 85.1984 102.218Z" fill="#F2EED5"/>
<path d="M92.5539 106.474C92.4145 106.474 92.2764 106.447 92.1476 106.393C92.0188 106.34 91.9017 106.261 91.8032 106.163C91.7046 106.064 91.6264 105.947 91.573 105.817C91.5197 105.688 91.4922 105.55 91.4922 105.41V67.0867C91.4922 66.947 91.5197 66.8087 91.573 66.6797C91.6264 66.5506 91.7046 66.4333 91.8032 66.3345C91.9017 66.2358 92.0188 66.1574 92.1476 66.1039C92.2764 66.0505 92.4145 66.0229 92.5539 66.0229C92.8351 66.0235 93.1046 66.1358 93.3033 66.3352C93.502 66.5347 93.6136 66.805 93.6136 67.0867V105.41C93.6136 105.692 93.502 105.962 93.3033 106.162C93.1046 106.361 92.8351 106.474 92.5539 106.474Z" fill="#F2EED5"/>
<path d="M99.9132 110.731C99.7738 110.731 99.6357 110.704 99.5069 110.65C99.3781 110.597 99.2611 110.518 99.1625 110.419C99.0639 110.321 98.9857 110.203 98.9324 110.074C98.879 109.945 98.8516 109.807 98.8516 109.667V71.3416C98.8517 71.202 98.8793 71.0638 98.9327 70.9349C98.9861 70.806 99.0643 70.689 99.1629 70.5904C99.2615 70.4918 99.3785 70.4136 99.5072 70.3603C99.636 70.307 99.7739 70.2797 99.9132 70.2798C100.053 70.2797 100.19 70.307 100.319 70.3603C100.448 70.4136 100.565 70.4918 100.664 70.5904C100.762 70.689 100.84 70.806 100.894 70.9349C100.947 71.0638 100.975 71.202 100.975 71.3416V109.667C100.975 109.807 100.947 109.945 100.894 110.074C100.841 110.203 100.763 110.321 100.664 110.419C100.565 110.518 100.448 110.597 100.319 110.65C100.191 110.704 100.053 110.731 99.9132 110.731Z" fill="#F2EED5"/>
<path d="M107.269 114.987C106.987 114.987 106.717 114.875 106.518 114.675C106.319 114.476 106.207 114.205 106.207 113.923V75.5975C106.207 75.3153 106.319 75.0448 106.518 74.8453C106.717 74.6458 106.987 74.5337 107.269 74.5337C107.55 74.5337 107.82 74.6458 108.019 74.8453C108.219 75.0448 108.33 75.3153 108.33 75.5975V113.923C108.33 114.205 108.219 114.476 108.019 114.675C107.82 114.875 107.55 114.987 107.269 114.987Z" fill="#F2EED5"/>
<path opacity="0.27" d="M27.688 148.66L5.89446 161.447C4.1087 162.495 2.62609 163.991 1.59256 165.787C0.559027 167.584 0.0102105 169.619 0.000141103 171.692C-0.00992828 173.766 0.519092 175.806 1.53513 177.613C2.55116 179.419 4.01915 180.93 5.79464 181.995L80.1326 226.586C83.8195 228.798 88.0319 229.976 92.3289 229.997C96.6259 230.017 100.849 228.88 104.557 226.704L124.414 215.054C126.318 213.936 127.9 212.341 129.002 210.425C130.104 208.509 130.689 206.339 130.7 204.128C130.711 201.916 130.146 199.74 129.063 197.814C127.979 195.887 126.413 194.277 124.52 193.141L50.5511 148.771C47.1 146.701 43.157 145.598 39.1347 145.579C35.1124 145.559 31.1589 146.624 27.688 148.66Z" fill="#7DC3EA"/>
<path d="M90.183 196.521C87.4819 194.959 85.0312 194.811 83.2711 195.847L75.7734 200.21C77.5456 199.176 79.9932 199.32 82.6903 200.882C88.0646 203.992 92.4062 211.521 92.3842 217.704C92.3772 220.773 91.2936 222.933 89.5484 223.952C92.0456 222.499 94.5428 221.047 97.0401 219.596C98.7833 218.577 99.8669 216.413 99.8749 213.343C99.8919 207.159 95.5533 199.63 90.183 196.521Z" fill="#484848"/>
<path d="M82.6874 200.882C88.0616 203.992 92.4032 211.521 92.3813 217.704C92.3593 223.888 87.9958 226.382 82.6245 223.276C77.2532 220.171 72.9147 212.633 72.9337 206.453C72.9526 200.272 77.3211 197.774 82.6874 200.882Z" fill="#323232"/>
<path d="M33.347 163.642C30.6419 162.079 28.1942 161.93 26.4251 162.963L18.9414 167.325C20.7115 166.295 23.1612 166.445 25.8573 168.005C31.2306 171.111 35.5682 178.644 35.5512 184.825C35.5442 187.896 34.4636 190.057 32.7184 191.076L40.212 186.709C41.9542 185.695 43.0339 183.535 43.0438 180.464C43.0558 174.283 38.7143 166.748 33.347 163.642Z" fill="#484848"/>
<path d="M25.8514 168.001C31.2247 171.108 35.5622 178.64 35.5452 184.821C35.5282 191.002 31.1618 193.496 25.7925 190.389C20.4232 187.281 16.0827 179.754 16.1016 173.57C16.1206 167.386 20.4851 164.902 25.8514 168.001Z" fill="#323232"/>
<path d="M126.213 174.741C123.511 173.177 121.061 173.032 119.297 174.066L111.801 178.429C113.573 177.399 116.02 177.543 118.719 179.102C124.093 182.212 128.433 189.741 128.413 195.927C128.405 198.994 127.322 201.153 125.575 202.172C128.073 200.719 130.571 199.268 133.069 197.818C134.814 196.797 135.895 194.634 135.903 191.565C135.921 185.379 131.582 177.849 126.213 174.741Z" fill="#484848"/>
<path d="M118.721 179.103C124.095 182.213 128.435 189.742 128.414 195.928C128.393 202.113 124.029 204.604 118.657 201.499C113.284 198.393 108.948 190.857 108.969 184.675C108.99 178.493 113.35 175.995 118.721 179.103Z" fill="#484848"/>
<path d="M118.679 196.217C121.515 197.856 123.823 196.535 123.831 193.274C123.737 191.494 123.225 189.761 122.336 188.217C121.446 186.673 120.205 185.362 118.713 184.39C115.879 182.751 113.571 184.067 113.562 187.334C113.655 189.114 114.167 190.847 115.056 192.391C115.946 193.934 117.187 195.245 118.679 196.216V196.217Z" fill="white"/>
<path d="M101.856 206.583L143.043 182.874L143.026 189.158L101.836 212.873L101.856 206.583Z" fill="url(#paint1_linear_1244_50)"/>
<path d="M65.3525 140.862L110.301 114.684L110.165 162.599L65.2148 188.773L65.3525 140.862Z" fill="#3C3F60"/>
<path d="M65.3518 140.862L65.2141 188.773L3.19531 152.893L3.33003 104.988L65.3518 140.862Z" fill="#515A93"/>
<path d="M3.33203 104.987L48.282 78.812L110.303 114.684L65.3538 140.862L3.33203 104.987Z" fill="#96ACDB"/>
<path d="M96.6874 165.797L68.6484 149.576V193.668L73.7374 196.613C75.749 193.734 79.5247 193.187 83.8543 195.682C88.1839 198.178 91.9367 203.095 93.9224 208.287L101.832 212.87L101.851 206.579L101.907 188.115L96.6874 165.797Z" fill="#396CAA"/>
<path d="M95.155 167.368C95.1342 167.279 95.0955 167.196 95.0413 167.122C94.987 167.049 94.9185 166.987 94.8397 166.941L75.7284 155.888C75.627 155.828 75.5117 155.796 75.3941 155.796C75.2766 155.796 75.1612 155.828 75.0599 155.888C74.9564 155.944 74.8703 156.028 74.8106 156.13C74.7508 156.232 74.7197 156.348 74.7206 156.466L74.6797 171.395C74.6791 171.512 74.7094 171.628 74.7678 171.73C74.8261 171.832 74.9104 171.917 75.012 171.975L98.2184 185.403C98.3205 185.464 98.4369 185.496 98.5556 185.497H98.5896C98.7681 185.497 98.9395 185.426 99.0661 185.3C99.1928 185.174 99.2643 185.003 99.2651 184.824C99.2654 184.7 99.2308 184.579 99.1653 184.474L95.155 167.368Z" fill="#231F20"/>
<path d="M101.911 188.119L143.095 164.407L143.043 182.875L101.855 206.583L101.911 188.119Z" fill="#D4ECFF"/>
<path d="M68.6484 149.577L109.836 125.867L137.874 142.089L96.6883 165.798L68.6484 149.577Z" fill="#D4ECFF"/>
<path d="M137.869 142.089L96.6836 165.797L101.908 188.119L143.091 164.408L137.869 142.089ZM138.438 161.74H138.406C138.286 161.74 138.169 161.708 138.066 161.648L122.486 152.632L135.381 145.218L139.014 160.715C139.079 160.821 139.114 160.942 139.114 161.065C139.114 161.154 139.097 161.242 139.063 161.324C139.029 161.406 138.979 161.48 138.916 161.543C138.853 161.606 138.779 161.656 138.697 161.689C138.615 161.723 138.527 161.74 138.439 161.74H138.438Z" fill="url(#paint2_linear_1244_50)"/>
<path d="M141.322 163.209L137.114 145.219C137.09 145.118 137.042 145.023 136.975 144.943C136.908 144.863 136.824 144.799 136.729 144.757C136.632 144.718 136.527 144.7 136.422 144.706C136.318 144.713 136.216 144.742 136.124 144.793L135.385 145.218L139.018 160.715C139.083 160.821 139.117 160.942 139.117 161.065C139.117 161.154 139.099 161.242 139.065 161.323C139.031 161.405 138.981 161.479 138.918 161.542C138.855 161.604 138.781 161.653 138.699 161.687C138.617 161.72 138.529 161.738 138.441 161.737H138.408C138.289 161.737 138.172 161.705 138.069 161.645L122.489 152.629L126.337 150.414L98.7784 166.26C98.6536 166.333 98.5554 166.444 98.4978 166.577C98.4402 166.71 98.4263 166.858 98.4581 166.999L102.668 184.982C102.693 185.084 102.741 185.179 102.809 185.259C102.877 185.34 102.963 185.403 103.059 185.445C103.141 185.484 103.231 185.504 103.323 185.504C103.443 185.502 103.56 185.467 103.662 185.404L141.007 163.937C141.13 163.864 141.226 163.755 141.283 163.624C141.339 163.493 141.353 163.348 141.322 163.209Z" fill="#231F20"/>
<path d="M141.321 163.209L140.715 160.617L102.16 182.813L102.667 184.986C102.692 185.088 102.74 185.183 102.808 185.263C102.876 185.343 102.962 185.407 103.058 185.448C103.14 185.488 103.23 185.508 103.322 185.507C103.442 185.506 103.559 185.471 103.661 185.407L141.007 163.941C141.13 163.868 141.227 163.758 141.283 163.626C141.34 163.495 141.353 163.348 141.321 163.209Z" fill="#484848"/>
<path d="M25.8015 185.117C28.6413 186.756 30.9473 185.433 30.9533 182.17C30.8601 180.39 30.348 178.658 29.4587 177.114C28.5694 175.57 27.3281 174.259 25.8364 173.288C23.0005 171.645 20.6956 172.971 20.6836 176.23C20.7788 178.011 21.292 179.743 22.1812 181.288C23.0705 182.832 24.3109 184.144 25.8015 185.118V185.117Z" fill="white"/>
<path d="M82.6442 217.994C85.482 219.633 87.787 218.315 87.797 215.054C87.7033 213.274 87.191 211.541 86.3017 209.997C85.4125 208.453 84.1716 207.141 82.6801 206.169C79.8453 204.53 77.5363 205.847 77.5273 209.115C77.6197 210.895 78.1316 212.627 79.021 214.17C79.9104 215.713 81.1521 217.023 82.6442 217.993V217.994Z" fill="white"/>
<path d="M108.323 192.898L104.132 195.311C103.87 195.461 103.652 195.679 103.5 195.94C103.347 196.202 103.266 196.499 103.264 196.802L103.238 201.037C103.236 201.342 103.314 201.642 103.465 201.907C103.616 202.173 103.834 202.393 104.098 202.547C104.361 202.7 104.66 202.781 104.965 202.782C105.27 202.782 105.569 202.702 105.833 202.549L110.047 200.126C110.311 199.974 110.53 199.756 110.683 199.493C110.836 199.229 110.916 198.931 110.917 198.626V194.405C110.917 194.1 110.838 193.801 110.687 193.537C110.535 193.273 110.317 193.054 110.054 192.901C109.791 192.748 109.493 192.667 109.189 192.667C108.885 192.667 108.587 192.746 108.323 192.898Z" fill="#F3C733"/>
<path d="M134.082 179.062V183.306C134.082 183.61 134.162 183.909 134.314 184.172C134.466 184.436 134.684 184.654 134.947 184.806C135.21 184.958 135.508 185.038 135.812 185.038C136.115 185.038 136.414 184.958 136.676 184.806L140.909 182.37C141.173 182.219 141.392 182 141.544 181.737C141.696 181.474 141.777 181.175 141.777 180.87V176.622C141.777 176.318 141.697 176.019 141.545 175.756C141.394 175.493 141.175 175.274 140.912 175.122C140.649 174.97 140.351 174.89 140.047 174.89C139.744 174.89 139.446 174.97 139.183 175.123L134.949 177.562C134.686 177.714 134.467 177.932 134.315 178.195C134.163 178.459 134.082 178.758 134.082 179.062Z" fill="#F3C733"/>
<defs>
<linearGradient id="paint0_linear_1244_50" x1="120.555" y1="81.5345" x2="189.781" y2="81.5345" gradientUnits="userSpaceOnUse">
<stop stop-color="#09295D"/>
<stop offset="1" stop-color="#0C367C"/>
</linearGradient>
<linearGradient id="paint1_linear_1244_50" x1="144.98" y1="183.774" x2="114.081" y2="220.213" gradientUnits="userSpaceOnUse">
<stop stop-color="#86B8E0"/>
<stop offset="0.116" stop-color="#98C4E7"/>
<stop offset="0.325" stop-color="#B2D5F1"/>
<stop offset="0.54" stop-color="#C5E2F9"/>
<stop offset="0.761" stop-color="#D0E9FD"/>
<stop offset="1" stop-color="#D4ECFF"/>
</linearGradient>
<linearGradient id="paint2_linear_1244_50" x1="90.929" y1="174.402" x2="143.427" y2="157.257" gradientUnits="userSpaceOnUse">
<stop stop-color="#86B8E0"/>
<stop offset="0.116" stop-color="#98C4E7"/>
<stop offset="0.325" stop-color="#B2D5F1"/>
<stop offset="0.54" stop-color="#C5E2F9"/>
<stop offset="0.761" stop-color="#D0E9FD"/>
<stop offset="1" stop-color="#D4ECFF"/>
</linearGradient>
</defs>
</svg>
