<svg width="42" height="42" viewBox="0 0 42 42" fill="none" xmlns="http://www.w3.org/2000/svg">
<g clip-path="url(#clip0_89_1550)">
<path d="M3.58691 34.82L5.42891 38.0848C5.81167 38.7721 6.36188 39.3122 7.00777 39.7049L13.5863 28.0203H0.429199C0.429199 28.7813 0.620576 29.5423 1.00333 30.2296L3.58691 34.82Z" fill="#0066DA"/>
<path d="M21.3132 14.2742L14.7346 2.58954C14.0887 2.9823 13.5385 3.52234 13.1557 4.20967L1.00333 25.8115C0.627615 26.484 0.429699 27.2456 0.429199 28.0208H13.5863L21.3132 14.2742Z" fill="#00AC47"/>
<path d="M35.6171 39.7049C36.263 39.3122 36.8132 38.7721 37.196 38.0848L37.9615 36.7347L41.6216 30.2296C42.0043 29.5423 42.1957 28.7813 42.1957 28.0203H29.0376L31.8374 33.6663L35.6171 39.7049Z" fill="#EA4335"/>
<path d="M21.3139 14.2738L27.8925 2.58914C27.2466 2.19638 26.505 2 25.7395 2H16.8883C16.1228 2 15.3812 2.22093 14.7354 2.58914L21.3139 14.2738Z" fill="#00832D"/>
<path d="M29.0396 28.0203H13.5859L7.00732 39.7049C7.65322 40.0977 8.3948 40.2941 9.16031 40.2941H33.4651C34.2306 40.2941 34.9722 40.0732 35.6181 39.7049L29.0396 28.0203Z" fill="#2684FC"/>
<path d="M35.5471 15.0106L29.4709 4.20967C29.0882 3.52234 28.5379 2.9823 27.892 2.58954L21.3135 14.2742L29.0403 28.0208H42.1735C42.1735 27.2598 41.9822 26.4988 41.5994 25.8115L35.5471 15.0106Z" fill="#FFBA00"/>
</g>
<defs>
<clipPath id="clip0_89_1550">
<rect width="42" height="42" fill="white"/>
</clipPath>
</defs>
</svg>
