<svg width="42" height="42" viewBox="0 0 42 42" fill="none" xmlns="http://www.w3.org/2000/svg">
<g clip-path="url(#clip0_89_1552)">
<path d="M35.8787 6.10346C31.9305 2.16988 26.6805 0.00239997 21.087 0C9.56073 0 0.180662 9.33581 0.176047 20.8108C0.174704 24.4789 1.13735 28.0594 2.96708 31.2156L0.000488281 42L11.0856 39.1061C14.1398 40.7644 17.5786 41.6383 21.078 41.6397H21.0869H21.087C32.6114 41.6397 41.9929 32.3022 41.9978 20.8277C41.9997 15.2664 39.8265 10.0373 35.8787 6.10346V6.10346ZM21.087 38.1246H21.0802C17.961 38.123 14.9022 37.2892 12.2342 35.713L11.5992 35.3383L5.02106 37.0554L6.77734 30.6723L6.36365 30.0179C4.62373 27.2636 3.7052 24.0806 3.70651 20.8122C3.71033 11.2745 11.5067 3.51517 21.0936 3.51517C25.7361 3.51709 30.0994 5.31871 33.3811 8.58818C36.6625 11.8576 38.4684 16.2039 38.467 20.8262C38.4629 30.3642 30.6663 38.1246 21.087 38.1246V38.1246Z" fill="#E0E0E0"/>
<path d="M0.961426 40.8032L3.79251 30.5115C2.04591 27.4994 1.12741 24.0822 1.12851 20.5824C1.13309 9.63175 10.0848 0.722656 21.0836 0.722656C26.4218 0.725056 31.4321 2.79342 35.1991 6.54741C38.967 10.3014 41.0407 15.2912 41.0386 20.5979C41.034 31.5488 32.0818 40.4587 21.0844 40.4587C21.0836 40.4587 21.0849 40.4587 21.0844 40.4587H21.0755C17.7359 40.4577 14.4544 39.623 11.54 38.0416L0.961426 40.8032V40.8032Z" fill="url(#paint0_linear_89_1552)"/>
<path fill-rule="evenodd" clip-rule="evenodd" d="M15.9236 11.9757C15.5367 11.1194 15.1294 11.1023 14.7613 11.0873C14.4603 11.0744 14.1156 11.0752 13.7716 11.0752C13.4272 11.0752 12.8676 11.204 12.3944 11.7186C11.9209 12.2332 10.5864 13.4771 10.5864 16.0069C10.5864 18.5371 12.4374 20.9818 12.6954 21.3252C12.9537 21.668 16.2685 27.0256 21.5182 29.0868C25.8812 30.7997 26.769 30.459 27.716 30.3732C28.6631 30.2875 30.7718 29.1296 31.2022 27.9288C31.6327 26.7283 31.6327 25.6992 31.5035 25.4841C31.3744 25.2698 31.03 25.1412 30.5135 24.8841C29.9969 24.627 27.4578 23.3828 26.9843 23.2114C26.5108 23.0399 26.1664 22.9542 25.822 23.4691C25.4777 23.9833 24.4884 25.1412 24.1871 25.4841C23.8857 25.8277 23.5844 25.8706 23.0679 25.6135C22.5513 25.3555 20.8878 24.8131 18.9145 23.0613C17.3791 21.6985 16.3425 20.0153 16.0411 19.5005C15.7398 18.9862 16.0088 18.7077 16.2679 18.4513C16.4998 18.2209 16.7845 17.851 17.0428 17.5508C17.3005 17.2505 17.3866 17.0362 17.5588 16.6934C17.731 16.35 17.6449 16.0497 17.5157 15.7926C17.3866 15.5354 16.3828 12.9925 15.9236 11.9757V11.9757Z" fill="white"/>
<path d="M35.709 6.03733C31.8061 2.1489 26.6164 0.0063405 21.0872 0.00390625C9.69316 0.00390625 0.420783 9.23254 0.416203 20.5759C0.41486 24.2018 1.36645 27.7412 3.17517 30.8612L0.242676 41.5218L11.2006 38.6611C14.2197 40.3003 17.619 41.1642 21.0783 41.1655H21.0871H21.0872C32.4793 41.1655 41.753 31.9353 41.7578 20.5924C41.7597 15.095 39.6115 9.92603 35.709 6.03733V6.03733ZM21.0872 37.6909H21.0804C17.997 37.6893 14.9733 36.8651 12.3359 35.307L11.7082 34.9366L5.2056 36.634L6.9417 30.3242L6.53276 29.6773C4.81282 26.9546 3.90482 23.8081 3.90616 20.5772C3.90992 11.1491 11.6168 3.47879 21.0936 3.47879C25.6829 3.48067 29.9961 5.26162 33.2401 8.49356C36.4839 11.7255 38.269 16.0218 38.2676 20.5912C38.2636 30.0196 30.5564 37.6909 21.0872 37.6909Z" fill="white"/>
</g>
<defs>
<linearGradient id="paint0_linear_89_1552" x1="21" y1="40.8032" x2="21" y2="0.722723" gradientUnits="userSpaceOnUse">
<stop stop-color="#20B038"/>
<stop offset="1" stop-color="#60D66A"/>
</linearGradient>
<clipPath id="clip0_89_1552">
<rect width="42" height="42" fill="white"/>
</clipPath>
</defs>
</svg>
