<svg width="175" height="51" viewBox="0 0 175 51" fill="none" xmlns="http://www.w3.org/2000/svg">
<path d="M103 0H74C71.2386 0 69 2.23858 69 5V23C69 25.7614 71.2386 28 74 28H103C105.761 28 108 25.7614 108 23V5C108 2.23858 105.761 0 103 0Z" fill="#707070"/>
<path d="M102 2H75C72.7909 2 71 3.79086 71 6V22C71 24.2091 72.7909 26 75 26H102C104.209 26 106 24.2091 106 22V6C106 3.79086 104.209 2 102 2Z" fill="white"/>
<path d="M75.1953 17.2554V24.0205H103.106V12.9966L95.5903 5.98047L86.0693 14.4995L82.2612 11.3926L75.1953 17.2554Z" fill="#707070"/>
<path d="M76.9414 10.2227C78.5983 10.2227 79.9414 8.87951 79.9414 7.22266C79.9414 5.5658 78.5983 4.22266 76.9414 4.22266C75.2846 4.22266 73.9414 5.5658 73.9414 7.22266C73.9414 8.87951 75.2846 10.2227 76.9414 10.2227Z" fill="#707070"/>
<path d="M16.4887 47H17.9287V40.172H17.9527L20.4967 47H21.5527L24.1327 40.172H24.1567V47H25.6567V38.504H23.2807L21.0967 44.54H21.0607L18.8527 38.504H16.4887V47ZM31.0318 47H32.3758V43.496C32.3758 42.344 31.8718 41.072 29.8078 41.072C28.9318 41.072 28.0198 41.384 27.3718 41.984L28.1158 42.86C28.4878 42.488 29.0758 42.2 29.6878 42.2C30.4078 42.2 31.0078 42.548 31.0078 43.256V43.4C29.2078 43.4 27.0478 43.64 27.0478 45.356C27.0478 46.7 28.2838 47.144 29.2078 47.144C30.0238 47.144 30.7078 46.772 30.9958 46.268H31.0318V47ZM31.0078 44.576C31.0078 45.488 30.4798 46.052 29.4958 46.052C29.0038 46.052 28.4878 45.884 28.4878 45.332C28.4878 44.48 29.7718 44.372 30.6838 44.372H31.0078V44.576ZM38.1454 41.948C37.6774 41.36 36.8134 41.072 35.9854 41.072C34.8454 41.072 33.6934 41.624 33.6934 42.908C33.6934 43.988 34.5454 44.336 35.3974 44.54C36.2734 44.744 36.7174 44.888 36.7174 45.368C36.7174 45.884 36.2134 46.052 35.7934 46.052C35.1694 46.052 34.6294 45.74 34.3174 45.332L33.3694 46.22C33.9214 46.832 34.8454 47.168 35.7334 47.168C36.9934 47.168 38.1334 46.652 38.1334 45.248C38.1334 44.12 37.1254 43.736 36.2734 43.532C35.4694 43.34 35.0254 43.22 35.0254 42.776C35.0254 42.32 35.4934 42.152 35.9494 42.152C36.4774 42.152 36.9574 42.44 37.2094 42.776L38.1454 41.948ZM44.6415 41.24H43.2015V44.408C43.2015 45.176 42.7695 45.968 41.8575 45.968C40.9335 45.968 40.7775 45.116 40.7775 44.432V41.24H39.3375V44.84C39.3375 46.016 39.9615 47.168 41.4615 47.168C42.3135 47.168 42.9975 46.652 43.2495 46.076H43.2735V47H44.6415V41.24ZM46.3939 47H47.8339V44.048H47.8699L50.1499 47H52.0579L49.4059 43.844L51.9019 41.24H50.0539L47.8699 43.664H47.8339V37.928H46.3939V47ZM52.9095 47H54.3495V44.048H54.3855L56.6655 47H58.5735L55.9215 43.844L58.4175 41.24H56.5695L54.3855 43.664H54.3495V37.928H52.9095V47ZM62.9068 47H64.2508V43.496C64.2508 42.344 63.7468 41.072 61.6828 41.072C60.8068 41.072 59.8948 41.384 59.2468 41.984L59.9908 42.86C60.3628 42.488 60.9508 42.2 61.5628 42.2C62.2828 42.2 62.8828 42.548 62.8828 43.256V43.4C61.0828 43.4 58.9228 43.64 58.9228 45.356C58.9228 46.7 60.1588 47.144 61.0828 47.144C61.8988 47.144 62.5828 46.772 62.8708 46.268H62.9068V47ZM62.8828 44.576C62.8828 45.488 62.3548 46.052 61.3708 46.052C60.8788 46.052 60.3628 45.884 60.3628 45.332C60.3628 44.48 61.6468 44.372 62.5588 44.372H62.8828V44.576ZM65.9284 47H67.3684V43.832C67.3684 43.064 67.8004 42.272 68.7124 42.272C69.6364 42.272 69.7924 43.124 69.7924 43.808V47H71.2324V43.4C71.2324 42.224 70.6084 41.072 69.1084 41.072C68.2564 41.072 67.5724 41.588 67.3204 42.164H67.2964V41.24H65.9284V47ZM83.4248 42.152H80.1728V43.4H81.9608V45.56C81.4688 45.764 80.9048 45.86 80.2688 45.86C78.3968 45.86 77.2448 44.54 77.2448 42.728C77.2448 40.976 78.4088 39.62 80.1968 39.62C81.1088 39.62 81.9368 40.004 82.3688 40.484L83.4128 39.356C82.7288 38.72 81.5288 38.288 80.1848 38.288C77.5688 38.288 75.5768 40.004 75.5768 42.728C75.5768 45.38 77.4848 47.216 80.2208 47.216C81.5528 47.216 82.5728 46.964 83.4248 46.556V42.152ZM88.7701 47H90.1141V43.496C90.1141 42.344 89.6101 41.072 87.5461 41.072C86.6701 41.072 85.7581 41.384 85.1101 41.984L85.8541 42.86C86.2261 42.488 86.8141 42.2 87.4261 42.2C88.1461 42.2 88.7461 42.548 88.7461 43.256V43.4C86.9461 43.4 84.7861 43.64 84.7861 45.356C84.7861 46.7 86.0221 47.144 86.9461 47.144C87.7621 47.144 88.4461 46.772 88.7341 46.268H88.7701V47ZM88.7461 44.576C88.7461 45.488 88.2181 46.052 87.2341 46.052C86.7421 46.052 86.2261 45.884 86.2261 45.332C86.2261 44.48 87.5101 44.372 88.4221 44.372H88.7461V44.576ZM98.6677 41.072C97.8037 41.072 97.1557 41.468 96.7717 42.164C96.4477 41.516 95.8597 41.072 94.9717 41.072C94.0477 41.072 93.4357 41.6 93.1837 42.164H93.1597V41.24H91.7917V47H93.2317V43.832C93.2317 43.064 93.6277 42.272 94.4917 42.272C95.2237 42.272 95.5597 42.812 95.5597 43.52V47H96.9997V43.856C96.9997 43.112 97.3717 42.272 98.2717 42.272C99.1957 42.272 99.3517 43.124 99.3517 43.808V47H100.792V43.4C100.792 42.224 100.168 41.072 98.6677 41.072ZM102.492 37.928V47H103.86V46.136H103.884C104.28 46.796 105.06 47.168 105.864 47.168C107.616 47.168 108.696 45.776 108.696 44.096C108.696 42.392 107.544 41.072 105.9 41.072C104.844 41.072 104.268 41.6 103.968 41.972H103.932V37.928H102.492ZM107.232 44.096C107.232 44.996 106.692 45.968 105.576 45.968C104.52 45.968 103.884 45.02 103.884 44.12C103.884 43.22 104.52 42.248 105.576 42.248C106.692 42.248 107.232 43.196 107.232 44.096ZM113.661 47H115.005V43.496C115.005 42.344 114.501 41.072 112.437 41.072C111.561 41.072 110.649 41.384 110.001 41.984L110.745 42.86C111.117 42.488 111.705 42.2 112.317 42.2C113.037 42.2 113.637 42.548 113.637 43.256V43.4C111.837 43.4 109.677 43.64 109.677 45.356C109.677 46.7 110.913 47.144 111.837 47.144C112.653 47.144 113.337 46.772 113.625 46.268H113.661V47ZM113.637 44.576C113.637 45.488 113.109 46.052 112.125 46.052C111.633 46.052 111.117 45.884 111.117 45.332C111.117 44.48 112.401 44.372 113.313 44.372H113.637V44.576ZM116.682 47H118.122V43.916C118.122 43.496 118.374 42.368 119.67 42.368C119.802 42.368 119.922 42.38 120.114 42.428V41.108C120.018 41.084 119.874 41.072 119.766 41.072C119.01 41.072 118.398 41.54 118.086 42.2H118.062V41.24H116.682V47ZM124.125 47H125.637V43.484H126.801C128.601 43.484 130.101 42.836 130.101 40.964C130.101 39.188 128.841 38.504 126.897 38.504H124.125V47ZM125.637 42.212V39.776H126.741C127.677 39.776 128.577 39.956 128.577 40.964C128.577 41.972 127.677 42.212 126.693 42.212H125.637ZM130.827 47H132.267V43.916C132.267 43.496 132.519 42.368 133.815 42.368C133.947 42.368 134.067 42.38 134.259 42.428V41.108C134.163 41.084 134.019 41.072 133.911 41.072C133.155 41.072 132.543 41.54 132.231 42.2H132.207V41.24H130.827V47ZM134.651 44.096C134.651 45.908 136.043 47.168 137.783 47.168C139.523 47.168 140.915 45.908 140.915 44.096C140.915 42.284 139.523 41.072 137.783 41.072C136.043 41.072 134.651 42.284 134.651 44.096ZM136.115 44.096C136.115 43.196 136.643 42.248 137.783 42.248C138.923 42.248 139.451 43.196 139.451 44.096C139.451 44.996 138.923 45.968 137.783 45.968C136.643 45.968 136.115 44.996 136.115 44.096ZM149.187 41.072C148.323 41.072 147.675 41.468 147.291 42.164C146.967 41.516 146.379 41.072 145.491 41.072C144.567 41.072 143.955 41.6 143.703 42.164H143.679V41.24H142.311V47H143.751V43.832C143.751 43.064 144.147 42.272 145.011 42.272C145.743 42.272 146.079 42.812 146.079 43.52V47H147.519V43.856C147.519 43.112 147.891 42.272 148.791 42.272C149.715 42.272 149.871 43.124 149.871 43.808V47H151.311V43.4C151.311 42.224 150.687 41.072 149.187 41.072ZM152.651 44.096C152.651 45.908 154.043 47.168 155.783 47.168C157.523 47.168 158.915 45.908 158.915 44.096C158.915 42.284 157.523 41.072 155.783 41.072C154.043 41.072 152.651 42.284 152.651 44.096ZM154.115 44.096C154.115 43.196 154.643 42.248 155.783 42.248C156.923 42.248 157.451 43.196 157.451 44.096C157.451 44.996 156.923 45.968 155.783 45.968C154.643 45.968 154.115 44.996 154.115 44.096Z" fill="#676767"/>
</svg>
