<svg width="33" height="32" viewBox="0 0 33 32" fill="none" xmlns="http://www.w3.org/2000/svg">
<g filter="url(#filter0_dd_490_42081)">
<rect x="-0.75" y="0.75" width="22.5" height="22.5" rx="11.25" transform="matrix(-1 0 0 1 27 2)" stroke="#176CF7" stroke-width="1.5"/>
</g>
<g clip-path="url(#clip0_490_42081)">
<path d="M19.703 16.515L20.3933 17.2504H12.6054L13.2977 16.511L13.5002 16.2947V15.9984V12.6653V12.6395L13.4984 12.6137C13.4446 11.8339 13.6486 11.0629 14.068 10.4348C14.4867 9.80766 15.0903 9.36669 15.7668 9.17501L16.3124 9.02043V8.45341V8.00019C16.3124 7.91877 16.3431 7.84965 16.3841 7.80589C16.4236 7.76378 16.4664 7.75 16.5 7.75C16.5336 7.75 16.5764 7.76378 16.6159 7.80589C16.6569 7.84965 16.6876 7.91877 16.6876 8.00019V8.45178V9.01737L17.2314 9.17288C17.9079 9.36632 18.5111 9.80823 18.9299 10.4357C19.3492 11.064 19.5539 11.8349 19.5015 12.615L19.4998 12.6401V12.6653V16.0017V16.2985L19.703 16.515Z" fill="#176CF7" stroke="#176CF7" stroke-width="1.5"/>
</g>
<defs>
<filter id="filter0_dd_490_42081" x="0.5" y="0" width="32" height="32" filterUnits="userSpaceOnUse" color-interpolation-filters="sRGB">
<feFlood flood-opacity="0" result="BackgroundImageFix"/>
<feColorMatrix in="SourceAlpha" type="matrix" values="0 0 0 0 0 0 0 0 0 0 0 0 0 0 0 0 0 0 127 0" result="hardAlpha"/>
<feOffset dy="2"/>
<feGaussianBlur stdDeviation="2"/>
<feColorMatrix type="matrix" values="0 0 0 0 0.172549 0 0 0 0 0.152941 0 0 0 0 0.219608 0 0 0 0.08 0"/>
<feBlend mode="normal" in2="BackgroundImageFix" result="effect1_dropShadow_490_42081"/>
<feColorMatrix in="SourceAlpha" type="matrix" values="0 0 0 0 0 0 0 0 0 0 0 0 0 0 0 0 0 0 127 0" result="hardAlpha"/>
<feOffset dy="1"/>
<feGaussianBlur stdDeviation="1"/>
<feColorMatrix type="matrix" values="0 0 0 0 0.172549 0 0 0 0 0.152941 0 0 0 0 0.219608 0 0 0 0.01 0"/>
<feBlend mode="normal" in2="effect1_dropShadow_490_42081" result="effect2_dropShadow_490_42081"/>
<feBlend mode="normal" in="SourceGraphic" in2="effect2_dropShadow_490_42081" result="shape"/>
</filter>
<clipPath id="clip0_490_42081">
<rect width="10" height="13" fill="white" transform="translate(11.5 7)"/>
</clipPath>
</defs>
</svg>
