<svg width="24" height="24" viewBox="0 0 24 24" fill="none" xmlns="http://www.w3.org/2000/svg">
<path d="M18.6929 20.8338L15.51 18.4551C15.4715 18.4247 15.4235 18.4081 15.3739 18.4081C15.3243 18.4081 15.2763 18.4247 15.2378 18.4551L12.2236 20.9721C12.1845 21.0048 12.1346 21.0228 12.083 21.0228C12.0315 21.0228 11.9816 21.0048 11.9425 20.9721L8.52451 18.4539C8.48838 18.4222 8.4415 18.4047 8.3929 18.4047C8.34431 18.4047 8.29743 18.4222 8.2613 18.4539L5.31352 20.8201C5.28088 20.8432 5.24248 20.8573 5.20234 20.8609C5.16219 20.8646 5.12178 20.8576 5.08534 20.8408C5.0489 20.824 5.01776 20.798 4.99518 20.7654C4.97261 20.7328 4.95943 20.695 4.95703 20.6557V4.76434C4.95703 4.2788 5.15492 3.81314 5.50717 3.46981C5.85942 3.12648 6.33717 2.93359 6.83533 2.93359H17.1634C17.4101 2.93359 17.6543 2.98095 17.8822 3.07295C18.1101 3.16496 18.3171 3.29981 18.4915 3.46981C18.666 3.63981 18.8043 3.84163 18.8987 4.06375C18.9931 4.28586 19.0417 4.52393 19.0417 4.76434V20.6682C19.0412 20.7073 19.0296 20.7455 19.0081 20.7785C18.9866 20.8115 18.9561 20.838 18.92 20.8551C18.884 20.8722 18.8437 20.8791 18.8038 20.8751C18.7639 20.8711 18.7259 20.8564 18.6941 20.8326L18.6929 20.8338Z" stroke="#176CF7" stroke-width="1.5" stroke-linecap="round" stroke-linejoin="round"/>
<path d="M7.38867 6.69434H14.8993" stroke="#176CF7" stroke-width="1.5" stroke-linecap="round" stroke-linejoin="round"/>
<path d="M7.38867 10.3545H12.0831" stroke="#176CF7" stroke-width="1.5" stroke-linecap="round" stroke-linejoin="round"/>
<path d="M7.38867 14.0156H15.8384" stroke="#176CF7" stroke-width="1.5" stroke-linecap="round" stroke-linejoin="round"/>
</svg>
