<svg width="48" height="48" viewBox="0 0 48 48" fill="none" xmlns="http://www.w3.org/2000/svg">
<g clip-path="url(#clip0_849_31825)">
<mask id="mask0_849_31825" style="mask-type:alpha" maskUnits="userSpaceOnUse" x="0" y="0" width="48" height="48">
<path d="M48 0H0V48H48V0Z" fill="white"/>
</mask>
<g mask="url(#mask0_849_31825)">
<path d="M42.1711 18.6231H38.9453V19.4833L40.0206 19.9134V20.7736H41.3109V19.9134L42.1711 19.4833V18.6231Z" fill="#176CF7" stroke="black" stroke-width="0.3"/>
<path d="M44.9676 22.9244V29.5911H37.2257V22.9244H36.1504V21.6341L37.2257 20.3438H44.9676L46.2579 21.6341V22.9244H44.9676Z" fill="white" stroke="black" stroke-width="0.3"/>
<path d="M45.3982 22.4946H43.6777V29.1612H41.5272V23.9999L37.4412 22.4946H35.7207V21.8494L36.1508 21.2042H38.7315L39.1616 20.7741H44.3229L45.3982 21.8494V22.4946Z" fill="#176CF7" stroke="black" stroke-width="0.3"/>
<path d="M43.6786 21.2044H39.5926L39.1625 21.6345H36.7969V22.0647H43.6786V21.2044Z" fill="white" stroke="black" stroke-width="0.3"/>
<path d="M20.8828 20.989V26.5804H23.6785V20.989H20.8828Z" fill="#FFC217" stroke="black" stroke-width="0.3" stroke-linejoin="round"/>
<path d="M33.5693 22.0642L23.6768 20.989V26.5804L33.5693 26.7954V22.0642Z" fill="#A1C5FF" stroke="black" stroke-width="0.3" stroke-linejoin="round"/>
<path d="M41.4277 17.4333H39.9072V18.5237H41.4277V17.4333Z" fill="white" stroke="black" stroke-width="0.3"/>
<path d="M24.3223 26.1507V20.5593H27.333V26.1507H24.3223Z" fill="#FFC217" stroke="black" stroke-width="0.3" stroke-linejoin="round"/>
<path d="M35.0749 22.2797L27.333 20.5593V26.1507L35.0749 26.3657V22.2797Z" fill="#C5DBFF" stroke="black" stroke-width="0.3" stroke-linejoin="round"/>
<path d="M41.5261 24.0001L30.7734 20.4427V28.7313L41.5261 29.1614V24.0001Z" fill="#FFE089" stroke="black" stroke-width="0.3" stroke-linejoin="round"/>
<path d="M30.6731 20.4437H27.8623V26.2652H30.6731V20.4437Z" fill="#FFC217" stroke="black" stroke-width="0.3" stroke-linejoin="round"/>
<path d="M28.625 21.6342V24.86" stroke="black" stroke-width="0.3" stroke-linecap="round" stroke-linejoin="round"/>
<path d="M29.9141 21.6342V24.86" stroke="black" stroke-width="0.3" stroke-linecap="round" stroke-linejoin="round"/>
<path d="M31.6348 21.6342V25.5051" stroke="black" stroke-width="0.3" stroke-linecap="round" stroke-linejoin="round"/>
<path d="M32.4941 21.6342V25.9352" stroke="black" stroke-width="0.3" stroke-linecap="round" stroke-linejoin="round"/>
<path d="M33.3535 22.0645V26.3656" stroke="black" stroke-width="0.3" stroke-linecap="round" stroke-linejoin="round"/>
<path d="M34.2158 22.4941V27.2253" stroke="black" stroke-width="0.3" stroke-linecap="round" stroke-linejoin="round"/>
<path d="M35.0752 22.9252V27.2262" stroke="black" stroke-width="0.3" stroke-linecap="round" stroke-linejoin="round"/>
<path d="M35.9346 22.9252V27.2262" stroke="black" stroke-width="0.3" stroke-linecap="round" stroke-linejoin="round"/>
<path d="M36.7969 22.9252V27.2262" stroke="black" stroke-width="0.3" stroke-linecap="round" stroke-linejoin="round"/>
<path d="M37.6562 23.3548V27.2258" stroke="black" stroke-width="0.3" stroke-linecap="round" stroke-linejoin="round"/>
<path d="M38.5156 23.7852V27.6562" stroke="black" stroke-width="0.3" stroke-linecap="round" stroke-linejoin="round"/>
<path d="M39.377 24.2149V27.6558" stroke="black" stroke-width="0.3" stroke-linecap="round" stroke-linejoin="round"/>
<path d="M40.2363 24.6452V27.6559" stroke="black" stroke-width="0.3" stroke-linecap="round" stroke-linejoin="round"/>
<path d="M41.0957 24.6452V28.0861" stroke="black" stroke-width="0.3" stroke-linecap="round" stroke-linejoin="round"/>
<path d="M25.1816 21.6342V24.6449" stroke="black" stroke-width="0.3" stroke-linecap="round" stroke-linejoin="round"/>
<path d="M26.4736 21.6342V24.6449" stroke="black" stroke-width="0.3" stroke-linecap="round" stroke-linejoin="round"/>
<path d="M21.7422 21.6342V24.6449" stroke="black" stroke-width="0.3" stroke-linecap="round" stroke-linejoin="round"/>
<path d="M23.0312 21.6342V24.6449" stroke="black" stroke-width="0.3" stroke-linecap="round" stroke-linejoin="round"/>
<path d="M33.7843 27.8706C38.0137 28.3007 46.5155 29.204 46.6875 29.376H46.9027C46.8309 29.8061 46.5585 30.8384 46.0424 31.5265C45.3973 32.3868 43.7628 33.1183 43.3327 33.3334C42.9025 33.5484 30.2681 33.6667 28.3327 33.6667C26.3972 33.6667 23.0317 30.6663 21.7413 28.5158C20.7091 26.7954 20.666 25.9351 20.666 25.29C21.0961 25.0749 20.9671 25.0749 22.1714 25.0749C23.6767 25.0749 31.6337 26.1502 32.0639 26.3652C32.4079 26.5373 33.3542 27.4405 33.7843 27.8706Z" fill="white" stroke="black" stroke-width="0.3"/>
<mask id="mask1_849_31825" style="mask-type:alpha" maskUnits="userSpaceOnUse" x="20" y="25" width="27" height="9">
<path d="M33.9261 27.8706C38.0409 28.3007 46.3127 29.204 46.48 29.376H46.6893C46.6195 29.8061 46.3545 30.8384 45.8524 31.5265C45.2247 32.3868 43.7601 33.0319 43.3416 33.247C42.9231 33.462 30.9968 33.462 29.1137 33.462C27.2306 33.462 23.0459 30.6663 21.7905 28.5158C20.7862 26.7954 20.8141 25.6484 20.9536 25.29C21.0233 25.2183 21.4557 25.0749 22.6275 25.0749C24.0921 25.0749 31.8337 26.1502 32.2522 26.3652C32.5869 26.5373 33.5076 27.4405 33.9261 27.8706Z" fill="white"/>
</mask>
<g mask="url(#mask1_849_31825)">
<path d="M30.7877 28.9458C32.7964 29.1179 42.6443 29.8777 47.3172 30.2361L46.6895 31.0963L43.7602 33.8921H27.0215C24.1621 31.4548 18.9451 26.7523 20.9538 27.4404C23.4646 28.3007 28.2769 28.7307 30.7877 28.9458Z" fill="#6EA5FF"/>
<path d="M28.6931 31.3118C31.4132 31.5268 46.8964 31.0967 47.1057 31.0967L46.2688 33.6774L39.3641 35.6128L25.1362 34.1074C24.2578 32.7232 22.6715 30.2374 22.2843 29.6791C22.2461 29.6476 22.22 29.6182 22.2069 29.5913C22.1801 29.5361 22.2103 29.5724 22.2843 29.6791C22.8572 30.1524 26.143 31.1101 28.6931 31.3118Z" fill="#176CF7"/>
</g>
<path d="M23.7845 23.732V17.2468H18.8252V23.9228L23.7845 23.732Z" fill="#FFE089" stroke="black" stroke-width="0.3"/>
<path d="M18.8251 17.2468L11.7676 18.0098V23.9228H18.8251V17.2468Z" fill="#FFC217" stroke="black" stroke-width="0.3"/>
<path d="M19.7783 18.0098V22.9691" stroke="black" stroke-width="0.3" stroke-linecap="round"/>
<path d="M20.541 18.3906V19.3444" stroke="black" stroke-width="0.3" stroke-linecap="round"/>
<path d="M20.541 20.6804V22.9693" stroke="black" stroke-width="0.3" stroke-linecap="round"/>
<path d="M21.4941 21.4434V22.9694" stroke="black" stroke-width="0.3" stroke-linecap="round"/>
<path d="M18.252 18.0098V22.9691" stroke="black" stroke-width="0.3" stroke-linecap="round"/>
<path d="M17.2988 18.2006V22.9692" stroke="black" stroke-width="0.3" stroke-linecap="round"/>
<path d="M16.5361 18.3906V22.9685" stroke="black" stroke-width="0.3" stroke-linecap="round"/>
<path d="M15.7734 18.3906V22.9685" stroke="black" stroke-width="0.3" stroke-linecap="round"/>
<path d="M15.0098 18.5814V20.8704" stroke="black" stroke-width="0.3" stroke-linecap="round"/>
<path d="M15.0098 22.0156V23.1601" stroke="black" stroke-width="0.3" stroke-linecap="round"/>
<path d="M14.2471 18.5814V20.1074" stroke="black" stroke-width="0.3" stroke-linecap="round"/>
<path d="M13.2939 18.5814V20.1074" stroke="black" stroke-width="0.3" stroke-linecap="round"/>
<path d="M13.2939 21.8242V23.1594" stroke="black" stroke-width="0.3" stroke-linecap="round"/>
<path d="M12.7207 18.5814V23.1592" stroke="black" stroke-width="0.3" stroke-linecap="round"/>
<path d="M17.1081 14.3854L11.958 18.0096" stroke="black" stroke-width="0.3" stroke-linecap="round"/>
<path d="M23.5946 17.2466L17.1094 14.3854" stroke="black" stroke-width="0.3" stroke-linecap="round"/>
<path d="M18.826 17.4374L17.1094 14.3854" stroke="black" stroke-width="0.3" stroke-linecap="round"/>
<path d="M15.0098 17.4374L17.108 14.3854" stroke="black" stroke-width="0.3" stroke-linecap="round"/>
<path d="M7 13.2408L14.0575 11.3334" stroke="black" stroke-width="0.3"/>
<path d="M14.2483 11.3334L7 18.5816V19.3446L9.28893 18.2002L14.6297 12.6686H17.1094L14.2483 11.3334Z" fill="#176CF7" stroke="black" stroke-width="0.3"/>
<path d="M6.99827 13.4317L5.09082 16.865H6.99827V13.4317Z" fill="#176CF7" stroke="black" stroke-width="0.3" stroke-linejoin="round"/>
<path d="M2.80176 22.5873V29.8355" stroke="black" stroke-width="0.3"/>
<path d="M7.08829 20.2081H5.38086V21.534H7.08829V20.2081Z" fill="#81AFFF" stroke="black" stroke-width="0.3"/>
<path d="M7.08906 16.7745H1.94824V19.6264H7.08906V16.7745Z" fill="white" stroke="black" stroke-width="0.3"/>
<path d="M8.23352 19.4451H1.94824V20.3895H8.23352V19.4451Z" fill="#176CF7" stroke="black" stroke-width="0.3"/>
<path d="M4.03626 17.5381H3.0918V18.4826H4.03626V17.5381Z" fill="#183E7F" stroke="black" stroke-width="0.3"/>
<path d="M5.94544 17.5381H5.00098V18.4826H5.94544V17.5381Z" fill="#183E7F" stroke="black" stroke-width="0.3"/>
<path d="M17.4895 12.8601C17.4895 12.6494 17.3187 12.4786 17.108 12.4786C16.8974 12.4786 16.7266 12.6494 16.7266 12.8601V14.0045C16.7266 14.2152 16.8974 14.386 17.108 14.386C17.3187 14.386 17.4895 14.2152 17.4895 14.0045V12.8601Z" fill="black"/>
<path d="M9.76018 21.3519H2.71191V23.0594H9.76018V21.3519Z" fill="#176CF7" stroke="black" stroke-width="0.3"/>
<path d="M4.1377 22.9694V30.5992" stroke="black" stroke-width="0.3"/>
<path d="M8.33301 23.1595V29.2633" stroke="black" stroke-width="0.3"/>
<path d="M9.66895 22.9694V30.5992" stroke="black" stroke-width="0.3"/>
<path d="M41.2685 7.70104C40.0643 7.35698 30.3008 8.99138 25.5696 9.85158H24.9244C24.4943 9.85158 24.4009 9.78978 22.5588 8.56144C21.2685 7.70104 21.4835 7.70104 20.8384 7.48598C20.2785 7.41398 19.5481 7.70104 19.333 7.91631L22.9889 10.712L19.9781 12.4324H21.4835L23.4191 11.5722L29.4406 11.7872C26.9316 13.2926 21.9567 16.3034 22.1287 16.3034H23.4191C23.9352 16.3034 30.6592 13.0059 33.9567 11.3572C36.4657 11.0704 41.7847 10.3678 42.989 9.85158C44.4944 9.20624 42.7739 8.13118 41.2685 7.70104Z" fill="white" stroke="black" stroke-width="0.3" stroke-linejoin="round"/>
<path d="M31.8055 14.152C30.7732 14.4961 29.655 14.0086 29.2248 13.7219L29.0098 13.722C29.655 13.3636 31.1173 12.6036 31.8055 12.4316C32.4936 12.2596 32.6657 12.5033 32.6657 12.6466C32.8091 13.0051 32.8378 13.808 31.8055 14.152Z" fill="#176CF7" stroke="black" stroke-width="0.3"/>
<path d="M35.8905 7.91561C36.1056 7.70061 36.4497 7.14161 36.1056 6.62549C35.7615 6.10938 34.5286 6.41044 33.9551 6.62549L34.8153 8.13068L35.8905 7.91561Z" fill="#176CF7"/>
<path d="M33.9551 6.62549C33.9551 6.62548 33.9551 6.6255 33.9551 6.62549V6.62549ZM33.9551 6.62549C34.5286 6.41044 35.7615 6.10938 36.1056 6.62549C36.4497 7.14161 36.1056 7.70061 35.8905 7.91561L34.8153 8.13068L33.9551 6.62549Z" stroke="black" stroke-width="0.3"/>
<path d="M23.2031 11.5721L30.5149 11.142L29.4397 11.7871L23.2031 11.5721Z" fill="#176CF7" stroke="black" stroke-width="0.3" stroke-linejoin="round"/>
<path d="M25.3545 10.7122H22.9889L19.333 7.91649C19.7631 7.84483 20.6359 7.78156 20.8384 7.91649C21.4835 8.34636 23.9208 9.85196 25.3545 10.7122Z" fill="#176CF7" stroke="black" stroke-width="0.3" stroke-linejoin="round"/>
<path d="M41.2684 8.34615C41.6125 8.17408 41.6985 7.98775 41.6985 7.91602L42.5587 8.34615L42.3437 8.56122C42.1286 8.77622 41.6985 8.99128 41.2684 8.99128C40.9243 8.99128 40.5515 8.84795 40.4082 8.77622L41.2684 8.34615Z" fill="#183E7F" stroke="black" stroke-width="0.3" stroke-linejoin="round"/>
<path d="M30.5154 11.1419V11.0419H30.4877L30.4639 11.0562L30.5154 11.1419ZM31.5907 11.2419C31.6459 11.2419 31.6907 11.1971 31.6907 11.1419C31.6907 11.0867 31.6459 11.0419 31.5907 11.0419V11.2419ZM29.4915 11.8729L30.5668 11.2277L30.4639 11.0562L29.3887 11.7013L29.4915 11.8729ZM30.5154 11.2419H31.5907V11.0419H30.5154V11.2419Z" fill="black"/>
<path d="M34.8157 10.7116L33.5254 11.5718" stroke="black" stroke-width="0.3"/>
<path d="M39.5484 9.85155C41.2689 9.67949 42.4875 8.91962 42.9893 8.56122C43.2043 8.56122 43.6345 8.99135 43.6345 9.20635C43.6345 9.51048 43.2043 9.85155 41.4839 10.2816C40.1075 10.6258 35.8925 11.1419 33.957 11.357L23.4193 16.3032H22.9893L32.4516 11.1419L32.8817 10.9268C35.1039 10.5684 37.828 10.0236 39.5484 9.85155Z" fill="#176CF7" stroke="black" stroke-width="0.3"/>
<path d="M31.3766 2.75387C31.7206 2.92592 33.9572 6.69651 35.0325 8.56031L31.5916 9.20557L30.7314 2.96893C30.8031 2.82556 31.0325 2.58183 31.3766 2.75387Z" fill="white" stroke="black" stroke-width="0.3" stroke-linejoin="round"/>
<path d="M30.9453 2.7543L32.8808 8.99089L35.0313 8.56095C34.2428 7.19889 32.5367 4.25968 32.0206 3.39947C31.5044 2.53925 31.0886 2.61093 30.9453 2.7543Z" fill="#176CF7" stroke="black" stroke-width="0.3" stroke-linejoin="round"/>
<path d="M35.8146 7.57429C35.9516 7.54656 36.0468 7.44056 36.0978 7.31576C36.1492 7.19023 36.1618 7.03436 36.1299 6.87669C36.098 6.71896 36.0258 6.58031 35.9296 6.48459C35.8341 6.38945 35.7051 6.32882 35.5681 6.35654C35.4311 6.38427 35.3359 6.49023 35.2849 6.61504C35.2335 6.74063 35.2209 6.89643 35.2527 7.05416C35.2847 7.21189 35.3569 7.35049 35.4531 7.44623C35.5486 7.54136 35.6776 7.60203 35.8146 7.57429Z" fill="#FFC217" stroke="black" stroke-width="0.3"/>
<path d="M32.2372 13.8226C32.3998 13.8226 32.5348 13.7237 32.6245 13.5891C32.7147 13.4538 32.7673 13.2726 32.7673 13.0775C32.7673 12.8823 32.7147 12.7011 32.6245 12.5658C32.5348 12.4311 32.3998 12.3323 32.2372 12.3323C32.0746 12.3323 31.9396 12.4311 31.8498 12.5658C31.7596 12.7011 31.707 12.8823 31.707 13.0775C31.707 13.2726 31.7596 13.4538 31.8498 13.5891C31.9396 13.7237 32.0746 13.8226 32.2372 13.8226Z" fill="#FFC217" stroke="black" stroke-width="0.3"/>
<path d="M38.3228 37.1068C37.5792 37.2628 36.9916 36.7395 36.6061 36.4549C36.5601 36.409 36.3673 36.6018 36.4133 36.6752C36.6519 37.1068 37.0834 37.6668 37.3497 37.832C37.671 38.034 38.0015 38.1441 38.3228 38.1717V37.1068Z" fill="#176CF7" stroke="black" stroke-width="0.3"/>
<path d="M37.651 38.7044C36.531 39.3103 35.4477 39.6224 34.4837 39.2001L32.666 35.9962C33.9421 36.5653 35.0805 36.547 36.0536 35.9043L37.651 38.7044Z" fill="#FFC683" stroke="black" stroke-width="0.3"/>
<path d="M33.0786 36.8495C33.0786 36.8495 33.1795 36.5741 33.1061 36.4731C33.0327 36.3721 32.9959 36.5832 32.9959 36.5832L32.8491 36.3262C32.8491 36.3262 32.6655 36.675 32.9684 37.0331" fill="url(#paint0_linear_849_31825)"/>
<mask id="mask2_849_31825" style="mask-type:alpha" maskUnits="userSpaceOnUse" x="32" y="35" width="2" height="3">
<path d="M33.4603 35.6595H32.127V37.6595H33.4603V35.6595Z" fill="white"/>
<path d="M33.0786 36.8495C33.0786 36.8495 33.1795 36.5741 33.1061 36.4731C33.0327 36.3721 32.9959 36.5832 32.9959 36.5832L32.8491 36.3262C32.8491 36.3262 32.6655 36.675 32.9684 37.0331" fill="black"/>
</mask>
<g mask="url(#mask2_849_31825)">
<path d="M32.9958 36.5832L32.8222 36.6825C32.864 36.7557 32.9472 36.7948 33.0303 36.7802C33.1134 36.7657 33.1784 36.7006 33.1928 36.6175L32.9958 36.5832ZM32.8489 36.3262L33.0226 36.2269C32.9863 36.1635 32.9184 36.1249 32.8454 36.1262C32.7724 36.1275 32.7059 36.1684 32.6719 36.233L32.8489 36.3262ZM33.0784 36.8495C33.2662 36.9183 33.2662 36.9183 33.2662 36.9183C33.2662 36.9182 33.2662 36.9182 33.2662 36.9181C33.2662 36.9181 33.2663 36.9181 33.2663 36.918C33.2664 36.9179 33.2664 36.9177 33.2664 36.9176C33.2666 36.9173 33.2667 36.9169 33.2668 36.9165C33.2672 36.9155 33.2676 36.9144 33.2681 36.913C33.2691 36.9102 33.2704 36.9063 33.272 36.9016C33.2752 36.8921 33.2796 36.8789 33.2844 36.8629C33.294 36.8314 33.3062 36.787 33.316 36.7378C33.3254 36.6898 33.3339 36.6303 33.3326 36.5702C33.3314 36.5152 33.3218 36.4297 33.2677 36.3554L32.9442 36.5907C32.9269 36.5669 32.9322 36.5537 32.9327 36.5788C32.9331 36.5987 32.9301 36.627 32.9235 36.6605C32.9172 36.6927 32.9087 36.7235 32.9017 36.7467C32.8982 36.7581 32.8952 36.7673 32.8932 36.7733C32.8922 36.7763 32.8914 36.7784 32.891 36.7797C32.8908 36.7803 32.8906 36.7807 32.8906 36.7809C32.8905 36.7809 32.8905 36.781 32.8905 36.7809C32.8905 36.7809 32.8906 36.7809 32.8906 36.7808V36.7807L32.8906 36.7807C32.8906 36.7807 32.8906 36.7806 33.0784 36.8495ZM33.2677 36.3554C33.2485 36.3291 33.2166 36.2927 33.1673 36.2688C33.11 36.2411 33.0436 36.2375 32.9825 36.2624C32.93 36.2837 32.8975 36.3193 32.8804 36.3414C32.8622 36.3651 32.8497 36.3891 32.8414 36.4071C32.8249 36.4433 32.8146 36.4799 32.8087 36.5029C32.8056 36.5154 32.8032 36.5262 32.8016 36.5341C32.8008 36.538 32.8002 36.5413 32.7997 36.5438C32.7994 36.5451 32.7992 36.5461 32.7991 36.547C32.799 36.5475 32.799 36.5478 32.7989 36.5481C32.7988 36.5483 32.7988 36.5485 32.7988 36.5486C32.7988 36.5487 32.7988 36.5487 32.7988 36.5488V36.5489C32.7988 36.5489 32.7988 36.5489 32.9958 36.5832C33.1928 36.6175 33.1928 36.6175 33.1928 36.6176C33.1928 36.6176 33.1928 36.6176 33.1928 36.6177C33.1928 36.6177 33.1928 36.6177 33.1928 36.6178C33.1928 36.6179 33.1928 36.6179 33.1928 36.618C33.1927 36.6181 33.1927 36.6182 33.1927 36.6182C33.1927 36.6183 33.1927 36.6182 33.1928 36.6179C33.1928 36.6174 33.1931 36.6163 33.1934 36.6147C33.1941 36.6114 33.1952 36.6064 33.1966 36.6007C33.1981 36.5949 33.1998 36.5889 33.2015 36.5835C33.2033 36.5779 33.2047 36.5746 33.2052 36.5734C33.2062 36.5714 33.204 36.5769 33.1972 36.5857C33.1936 36.5904 33.1872 36.5979 33.1775 36.6061C33.1678 36.6144 33.1531 36.6248 33.133 36.6329C33.1122 36.6414 33.0876 36.6466 33.0607 36.6456C33.034 36.6445 33.011 36.6375 32.993 36.6288C32.9755 36.6203 32.9635 36.6107 32.9564 36.6041C32.9494 36.5975 32.9454 36.5924 32.9442 36.5907L33.2677 36.3554ZM33.1694 36.484L33.0226 36.2269L32.6752 36.4254L32.8222 36.6825L33.1694 36.484ZM32.8489 36.3262C32.6719 36.233 32.6718 36.2331 32.6718 36.2332C32.6718 36.2333 32.6718 36.2333 32.6717 36.2334C32.6716 36.2335 32.6716 36.2337 32.6715 36.2339C32.6713 36.2341 32.6712 36.2345 32.671 36.2348C32.6706 36.2355 32.6702 36.2363 32.6698 36.2372C32.6689 36.2389 32.6678 36.2411 32.6667 36.2435C32.6643 36.2484 32.6614 36.2548 32.658 36.2625C32.6514 36.2778 32.6432 36.2987 32.6348 36.3243C32.6182 36.3754 32.6006 36.4471 32.5953 36.5332C32.5846 36.7095 32.6265 36.9388 32.8156 37.1623L33.1209 36.9039C33.007 36.7693 32.9892 36.6452 32.9946 36.5575C32.9974 36.5117 33.0068 36.4738 33.0151 36.4483C33.0192 36.4356 33.023 36.4264 33.0252 36.4213C33.0262 36.4187 33.027 36.4172 33.0272 36.4169C33.0272 36.4167 33.0272 36.4168 33.027 36.4172C33.0269 36.4174 33.0268 36.4177 33.0266 36.418C33.0264 36.4182 33.0264 36.4184 33.0262 36.4186C33.0262 36.4187 33.0262 36.4189 33.0261 36.4189C33.026 36.419 33.026 36.4191 33.026 36.4191C33.0259 36.4192 33.0259 36.4193 32.8489 36.3262Z" fill="black"/>
</g>
<path d="M39.156 43.6695L38.956 43.6694L38.874 51.0996C38.4916 51.2765 38.0743 51.4057 37.6465 51.4927L37.3291 41.7961C37.33 41.5949 37.5025 41.4177 37.8377 41.2864C38.1658 41.158 38.6101 41.0915 39.0596 41.0909C39.509 41.0904 39.9527 41.1558 40.2796 41.2828C40.6148 41.413 40.7844 41.5888 40.7829 41.7874C40.7829 41.7874 40.7829 41.7875 40.7829 41.7876L40.6478 51.306C40.4575 51.4819 40.1761 51.4878 39.8856 51.4013C39.6046 51.3177 39.3495 51.1567 39.229 51.0399L39.156 43.6695Z" fill="url(#paint1_linear_849_31825)" stroke="black" stroke-width="0.3"/>
<path d="M38.0549 34.3171C37.8897 34.7118 37.9173 35.0423 37.9723 35.4371C37.9999 35.6299 38.1651 35.7859 38.3579 35.8043V36.1899H39.6523V34.3171H38.0549Z" fill="url(#paint2_linear_849_31825)" stroke="black" stroke-width="0.3"/>
<path d="M39.6885 35.2606C39.6702 35.334 39.6151 35.3983 39.5325 35.4074C39.3213 35.435 38.9082 35.4626 38.7614 35.3524C38.5594 35.1963 38.7889 34.7556 38.541 34.7556C38.2931 34.7556 38.3207 34.9484 38.1921 34.9301C38.0453 34.9117 38.2105 34.5537 38.0728 34.5353C37.8892 34.4986 37.825 34.3792 37.9076 34.214C37.9902 34.0488 39.4591 33.9662 39.7437 34.315C39.7437 34.315 39.762 34.8842 39.6885 35.2606Z" fill="#1B1B1B" stroke="#1B1B1B" stroke-width="0.3"/>
<path d="M40.0296 36.1614C39.9562 35.9687 39.8277 35.6749 39.7542 35.5831C39.6349 35.4362 39.0381 35.4454 38.625 35.6566C38.3129 35.8126 38.2027 36.0605 38.166 36.1706H40.0296V36.1614Z" fill="#FFC217" stroke="black" stroke-width="0.3"/>
<path d="M37.3021 36.2442L37.3013 36.2448C37.1173 36.3722 36.9347 36.5269 36.7602 36.6784C36.7301 36.7046 36.7003 36.7306 36.6707 36.7564C36.5273 36.8814 36.3905 37.0008 36.2598 37.1016C35.6482 37.5716 35.1321 37.8262 34.6651 37.8198C34.2071 37.8136 33.7674 37.5546 33.3091 36.9217C33.2707 36.8642 33.2324 36.8162 33.1967 36.7716C33.1717 36.7376 33.1361 36.7248 33.1103 36.7207C33.0839 36.7165 33.0586 36.7194 33.0385 36.7235C32.9979 36.7319 32.9551 36.7505 32.9183 36.772C32.8816 36.7935 32.843 36.8225 32.8143 36.8568C32.7901 36.8857 32.7521 36.9442 32.7723 37.014C32.829 37.2582 32.9246 37.5468 33.0327 37.8037C33.1399 38.0584 33.2647 38.2951 33.3829 38.4236L33.4565 38.3559L33.3825 38.4232C33.9093 39.0026 34.5531 39.218 35.2255 39.2144C35.8453 39.2112 36.4893 39.022 37.093 38.7656V41.6517C37.093 41.8053 37.1714 41.9323 37.2883 42.032C37.4038 42.1306 37.5628 42.2081 37.7439 42.2682C38.1068 42.3885 38.5841 42.4471 39.0566 42.4471C39.5291 42.4471 40.0065 42.3885 40.3693 42.2682C40.5504 42.2081 40.7094 42.1306 40.825 42.032C40.9419 41.9323 41.0203 41.8053 41.0203 41.6517V36.6483C41.0203 36.3742 40.7931 36.1917 40.514 36.077C40.2279 35.9594 39.8451 35.8935 39.4443 35.8714C39.0421 35.8492 38.6145 35.8708 38.2357 35.9325C37.8599 35.9938 37.52 36.0965 37.3021 36.2442Z" fill="#176CF7" stroke="black" stroke-width="0.3"/>
<path d="M39.7814 34.4626V34.2973C39.7814 33.7648 39.35 33.3334 38.8175 33.3334C38.285 33.3334 37.8535 33.7648 37.8535 34.2973V34.4626H39.7814Z" fill="#FFC217" stroke="black" stroke-width="0.3"/>
<path d="M38.5956 34.4631H37.1818C37.1818 34.4631 37.1359 34.1051 38.5956 34.4631Z" fill="#176CF7" stroke="black" stroke-width="0.3"/>
<path d="M36.6501 36.4223C36.6717 36.4711 36.6511 36.5282 36.6033 36.5521C36.599 36.5542 36.5849 36.564 36.5662 36.5827C36.5485 36.6004 36.5335 36.6192 36.525 36.6334C36.5069 36.6636 36.4744 36.682 36.4393 36.682C36.4286 36.682 36.4195 36.6801 36.4189 36.68H36.4189C36.416 36.6794 36.4134 36.6788 36.4114 36.6784C36.4073 36.6774 36.4028 36.6761 36.3982 36.6748C36.3889 36.6722 36.3769 36.6684 36.3635 36.6639C36.3369 36.6549 36.3019 36.6416 36.2674 36.625C36.2345 36.6092 36.1947 36.5869 36.1639 36.5577C36.1359 36.5311 36.0897 36.4726 36.1144 36.3959C36.1247 36.3619 36.1419 36.3318 36.1669 36.3084L36.1145 36.2197L36.1279 36.2118C36.1175 36.1998 36.1079 36.1856 36.1006 36.1688C36.1006 36.1238 36.1307 36.0843 36.1742 36.0724C36.1817 36.0704 36.1892 36.0692 36.1967 36.0689M36.6501 36.4223L36.4393 36.582C36.4668 36.5361 36.5219 36.481 36.5586 36.4626C36.5479 36.4383 36.5367 36.416 36.5251 36.3955L36.5139 36.3732C36.5134 36.3734 36.5129 36.3737 36.5123 36.374C36.4557 36.2822 36.392 36.2313 36.337 36.2032L36.2867 36.118C36.2677 36.0858 36.2328 36.0675 36.1967 36.0689M36.6501 36.4223C36.5723 36.2458 36.4663 36.1538 36.3709 36.1084C36.3243 36.0862 36.2823 36.0762 36.2509 36.0718C36.2351 36.0696 36.222 36.0688 36.212 36.0687C36.2071 36.0686 36.2029 36.0687 36.1995 36.0688L36.1967 36.0689M36.6501 36.4223L36.2159 36.1688H36.3006C36.2933 36.1522 36.2837 36.138 36.2733 36.1259C36.2388 36.086 36.195 36.0701 36.1925 36.0692C36.1925 36.0692 36.1924 36.0692 36.1924 36.0692H36.1926H36.1929L36.1936 36.0691L36.1953 36.069L36.1967 36.0689M36.2235 36.2699C36.2259 36.2702 36.2285 36.2707 36.2313 36.2712L36.2066 36.2686C36.2067 36.2686 36.2073 36.2686 36.2086 36.2686C36.2113 36.2687 36.2164 36.269 36.2235 36.2699ZM36.2098 36.4259C36.2129 36.4156 36.2166 36.407 36.2209 36.3998L36.2098 36.4259Z" fill="url(#paint3_linear_849_31825)"/>
<path d="M36.6501 36.4223C36.6717 36.4711 36.6511 36.5282 36.6033 36.5521C36.599 36.5542 36.5849 36.564 36.5662 36.5827C36.5485 36.6004 36.5335 36.6192 36.525 36.6334C36.5069 36.6636 36.4744 36.682 36.4393 36.682C36.4286 36.682 36.4195 36.6801 36.4189 36.68H36.4189C36.416 36.6794 36.4134 36.6788 36.4114 36.6784C36.4073 36.6774 36.4028 36.6761 36.3982 36.6748C36.3889 36.6722 36.3769 36.6684 36.3635 36.6639C36.3369 36.6549 36.3019 36.6416 36.2674 36.625C36.2345 36.6092 36.1947 36.5869 36.1639 36.5577C36.1359 36.5311 36.0897 36.4726 36.1144 36.3959C36.1247 36.3619 36.1419 36.3318 36.1669 36.3084L36.1145 36.2197L36.1279 36.2118C36.1175 36.1998 36.1079 36.1856 36.1006 36.1688C36.1006 36.1238 36.1307 36.0843 36.1742 36.0724C36.1817 36.0704 36.1892 36.0692 36.1967 36.0689M36.6501 36.4223L36.4393 36.582C36.4668 36.5361 36.5219 36.481 36.5586 36.4626C36.5479 36.4383 36.5367 36.416 36.5251 36.3955L36.5139 36.3732C36.5134 36.3734 36.5129 36.3737 36.5123 36.374C36.4557 36.2822 36.392 36.2313 36.337 36.2032L36.2867 36.118C36.2677 36.0858 36.2328 36.0675 36.1967 36.0689M36.6501 36.4223C36.5723 36.2458 36.4663 36.1538 36.3709 36.1084C36.3243 36.0862 36.2823 36.0762 36.2509 36.0718C36.2351 36.0696 36.222 36.0688 36.212 36.0687C36.2071 36.0686 36.2029 36.0687 36.1995 36.0688L36.1967 36.0689M36.6501 36.4223L36.2159 36.1688H36.3006C36.2933 36.1522 36.2837 36.138 36.2733 36.1259C36.2388 36.086 36.195 36.0701 36.1925 36.0692C36.1925 36.0692 36.1924 36.0692 36.1924 36.0692H36.1926H36.1929L36.1936 36.0691L36.1953 36.069L36.1967 36.0689M36.2235 36.2699C36.2259 36.2702 36.2285 36.2707 36.2313 36.2712L36.2066 36.2686C36.2067 36.2686 36.2073 36.2686 36.2086 36.2686C36.2113 36.2687 36.2164 36.269 36.2235 36.2699ZM36.2098 36.4259C36.2129 36.4156 36.2166 36.407 36.2209 36.3998L36.2098 36.4259Z" stroke="black" stroke-width="0.3" stroke-linejoin="round"/>
<path d="M22.7376 41.8496C22.7376 42.5248 22.2847 43.0399 21.7624 43.0399C21.24 43.0399 20.7871 42.5248 20.7871 41.8496C20.7871 41.1744 21.24 40.6593 21.7624 40.6593C22.2847 40.6593 22.7376 41.1744 22.7376 41.8496Z" fill="#D9D9D9" stroke="black" stroke-width="0.3" stroke-linejoin="round"/>
<path d="M32.202 41.6343C32.202 42.4255 31.6552 43.0397 31.0116 43.0397C30.3682 43.0397 29.8213 42.4255 29.8213 41.6343C29.8213 40.8431 30.3682 40.2289 31.0116 40.2289C31.6552 40.2289 32.202 40.8431 32.202 41.6343Z" fill="#183E7F" stroke="black" stroke-width="0.3" stroke-linejoin="round"/>
<path d="M31.3418 41.4192C31.3418 41.7585 31.2499 42.0612 31.1066 42.2761C30.9628 42.4918 30.7752 42.6095 30.5816 42.6095C30.3878 42.6095 30.2002 42.4918 30.0565 42.2761C29.9132 42.0612 29.8213 41.7585 29.8213 41.4192C29.8213 41.0799 29.9132 40.7772 30.0565 40.5623C30.2002 40.3467 30.3878 40.2289 30.5816 40.2289C30.7752 40.2289 30.9628 40.3467 31.1066 40.5623C31.2499 40.7772 31.3418 41.0799 31.3418 41.4192Z" fill="#176CF7" stroke="black" stroke-width="0.3" stroke-linejoin="round"/>
<path d="M15.958 28.3014L24.3451 28.5165V37.9789L15.958 39.0541V28.3014Z" fill="#B1860E" stroke="black" stroke-width="0.3" stroke-linejoin="round"/>
<path d="M26.4941 30.237C25.4618 29.2047 19.469 29.0901 16.6016 29.1617V39.0543L21.978 39.2693V42.065H22.408V40.7747C22.408 39.9145 22.8499 38.5505 23.6984 38.4091C24.9887 38.194 25.4188 39.6994 25.4188 40.5596C25.4188 41.4199 25.4188 41.8499 25.8489 42.065C26.0413 42.1612 33.1608 42.065 33.3758 41.8499C33.5909 41.6349 33.8059 39.9145 33.8059 39.0543C33.8059 38.3661 32.9457 37.9073 32.5156 37.7639C32.5156 37.4772 32.4296 36.8177 32.0855 36.4736C31.6554 36.0435 29.935 35.6134 29.0747 34.7531C28.2145 33.8929 27.7844 31.5273 26.4941 30.237Z" fill="#176CF7" stroke="black" stroke-width="0.3" stroke-linejoin="round"/>
<path d="M26.4941 30.237C25.4618 29.2047 19.469 29.0901 16.6016 29.1617V39.0543L21.978 39.2693V42.065H22.408V40.7747C22.408 39.9145 22.8499 38.5505 23.6984 38.4091C24.9887 38.194 25.4188 39.6994 25.4188 40.5596C25.4188 41.4199 25.4188 41.8499 25.8489 42.065C26.0413 42.1612 33.1608 42.065 33.3758 41.8499C33.5909 41.6349 33.8059 39.9145 33.8059 39.0543C33.8059 38.3661 32.9457 37.9073 32.5156 37.7639C32.5156 37.4772 32.4296 36.8177 32.0855 36.4736C31.6554 36.0435 29.935 35.6134 29.0747 34.7531C28.2145 33.8929 27.7844 31.5273 26.4941 30.237Z" fill="#176CF7" stroke="black" stroke-width="0.3" stroke-linejoin="round"/>
<path d="M22.193 31.9572C21.6769 30.0647 19.9708 29.4482 18.9672 29.1615H16.6016V39.054H21.7629V42.0648H22.193C22.193 41.9214 22.236 41.3766 22.408 40.3443C22.6231 39.054 22.8382 39.054 23.4833 38.4088C23.9994 37.8927 24.9887 38.9106 25.4188 39.4841H29.7199C29.7199 39.4124 29.6769 39.183 29.5048 38.8389C29.3328 38.4948 28.8597 38.4088 28.6446 38.4088C28.6446 38.4805 28.5586 38.3658 28.2145 37.3336C27.7844 36.0432 26.064 36.4733 24.5586 35.6131C23.0532 34.7529 22.8382 34.3228 22.193 31.9572Z" fill="#75AAFF" stroke="black" stroke-width="0.3" stroke-linejoin="round"/>
<path d="M32.0844 36.4739H28.6438C28.4287 36.5457 27.6114 36.517 27.7834 36.689C27.9554 36.8611 28.3569 37.6926 28.4286 37.9793L28.6438 38.4095H28.8588C29.0309 38.4095 29.3606 38.5528 29.504 38.6245C30.4359 38.5528 32.3857 38.4095 32.7298 38.4095C33.0739 38.4095 33.3747 38.2661 33.3747 38.1944C32.9446 37.7643 32.8834 37.857 32.7296 37.5492C32.2994 36.689 32.2994 36.6173 32.0844 36.4739Z" fill="#EBEBEB" stroke="black" stroke-width="0.3" stroke-linejoin="round"/>
<path d="M26.357 37.3147C26.8576 37.4711 28.0949 38.5529 28.651 39.0742L29.0746 39.4847H25.2036C25.0646 39.2241 23.9132 42.2805 23.4832 42.0654C23.1536 41.9006 22.1928 41.8503 21.7627 41.6353L21.9778 38.6245C22.1168 38.429 22.5617 37.9793 23.229 37.5101C24.0632 36.9237 25.7314 37.1191 26.357 37.3147Z" fill="#448AFD"/>
<path d="M29.291 37.2578L31.8717 37.1188" stroke="black" stroke-width="0.3" stroke-linejoin="round"/>
<path d="M29.2969 37.8659L31.8693 37.6597" stroke="black" stroke-width="0.3" stroke-linejoin="round"/>
<path d="M22.7376 41.6343C22.7376 42.0315 22.6224 42.387 22.4413 42.6406C22.26 42.8944 22.0186 43.0397 21.7624 43.0397C21.5061 43.0397 21.2646 42.8944 21.0834 42.6406C20.9022 42.387 20.7871 42.0315 20.7871 41.6343C20.7871 41.237 20.9022 40.8815 21.0834 40.6279C21.2646 40.3741 21.5061 40.2289 21.7624 40.2289C22.0186 40.2289 22.26 40.3741 22.4413 40.6279C22.6224 40.8815 22.7376 41.237 22.7376 41.6343Z" fill="#183E7F" stroke="black" stroke-width="0.3" stroke-linejoin="round"/>
<path d="M22.3075 41.4192C22.3075 41.7585 22.2156 42.0612 22.0724 42.2761C21.9286 42.4918 21.741 42.6095 21.5473 42.6095C21.3536 42.6095 21.166 42.4918 21.0222 42.2761C20.879 42.0612 20.7871 41.7585 20.7871 41.4192C20.7871 41.0799 20.879 40.7772 21.0222 40.5623C21.166 40.3467 21.3536 40.2289 21.5473 40.2289C21.741 40.2289 21.9286 40.3467 22.0724 40.5623C22.2156 40.7772 22.3075 41.0799 22.3075 41.4192Z" fill="#176CF7" stroke="black" stroke-width="0.3" stroke-linejoin="round"/>
<path d="M23.7643 34.687C23.3938 34.3281 22.9923 33.0422 22.8379 32.4441C24.4591 32.3693 27.5691 32.4442 27.7014 32.6684C27.8839 32.9774 28.4734 34.3132 28.8594 34.9113C27.3154 34.986 24.1348 35.0458 23.7643 34.687Z" fill="#183E7F" stroke="black" stroke-width="0.3" stroke-linejoin="round"/>
<path d="M27.1385 38.4093C27.6546 38.5813 28.5005 39.1978 28.8589 39.4845H26.0631C26.0631 39.4129 26.0201 39.1834 25.8481 38.8393C25.6331 38.4093 26.4933 38.1942 27.1385 38.4093Z" fill="white" stroke="black" stroke-width="0.3" stroke-linejoin="round"/>
<path d="M15.9567 28.3014L1.33301 29.1617V39.0541H15.9567V28.3014Z" fill="#FFC217" stroke="black" stroke-width="0.3" stroke-linejoin="round"/>
<path d="M22.0177 32.9167C21.7988 32.7363 20.4668 32.8415 19.8281 32.9167V35.3977H22.8389C22.6564 34.6459 22.2367 33.0971 22.0177 32.9167Z" fill="#183E7F" stroke="black" stroke-width="0.3" stroke-linejoin="round"/>
<path d="M33.8068 39.2689L29.7207 39.4839" stroke="black" stroke-width="0.3" stroke-linejoin="round"/>
<path d="M14.2356 29.8073V38.1944M12.9453 29.8073V38.1944" stroke="black" stroke-width="0.3" stroke-linejoin="round"/>
<path d="M11.6546 29.8073V38.1944M10.3643 29.8073V38.1944" stroke="black" stroke-width="0.3" stroke-linejoin="round"/>
<path d="M9.07354 29.8073V38.1944M7.7832 29.8073V38.1944" stroke="black" stroke-width="0.3" stroke-linejoin="round"/>
<path d="M6.49344 29.8073V38.1944M5.20312 29.8073V38.1944" stroke="black" stroke-width="0.3" stroke-linejoin="round"/>
<path d="M3.9124 29.8073V38.1944M2.62207 29.8073V38.1944" stroke="black" stroke-width="0.3" stroke-linejoin="round"/>
<path d="M29.2906 33.2479C29.1186 33.0759 28.9322 33.463 28.8605 33.6781H28.6455V34.1081C28.8605 34.3949 29.3336 34.9683 29.5057 34.9683C29.7208 34.9683 29.5057 34.5383 29.5057 34.1081C29.5057 33.678 29.5057 33.463 29.2906 33.2479Z" fill="#176CF7" stroke="black" stroke-width="0.3" stroke-linejoin="round"/>
<path d="M21.1193 33.4634C21.2913 33.1193 21.6211 33.3201 21.7645 33.4634L21.9795 33.4633L22.1945 35.1837H21.7645V34.7536C21.6211 34.897 21.2913 35.1407 21.1193 34.9687C20.9043 34.7536 20.9043 33.8935 21.1193 33.4634Z" fill="#176CF7" stroke="black" stroke-width="0.3" stroke-linejoin="round"/>
<path d="M20.1566 41.8496C20.1566 42.5248 19.7037 43.0399 19.1813 43.0399C18.659 43.0399 18.2061 42.5248 18.2061 41.8496C18.2061 41.1744 18.659 40.6593 19.1813 40.6593C19.7037 40.6593 20.1566 41.1744 20.1566 41.8496Z" fill="#183E7F" stroke="black" stroke-width="0.3" stroke-linejoin="round"/>
<path d="M19.7265 41.6346C19.7265 42.1952 19.3665 42.6098 18.9663 42.6098C18.5661 42.6098 18.2061 42.1952 18.2061 41.6346C18.2061 41.074 18.5661 40.6593 18.9663 40.6593C19.3665 40.6593 19.7265 41.074 19.7265 41.6346Z" fill="#176CF7" stroke="black" stroke-width="0.3" stroke-linejoin="round"/>
<path d="M19.2972 36.3591H17.3467V38.3097H19.2972V36.3591Z" fill="#176CF7" stroke="black" stroke-width="0.3" stroke-linejoin="round"/>
<path d="M1.8623 38.9392H21.8774V41.7467L1.8623 41.1079V38.9392Z" fill="#176CF7" stroke="black" stroke-width="0.3" stroke-linejoin="round"/>
<path d="M18.0066 41.2044C18.0066 41.7219 17.8666 42.1858 17.6454 42.5175C17.4239 42.8499 17.1288 43.0399 16.8162 43.0399C16.5038 43.0399 16.2086 42.8499 15.9871 42.5175C15.766 42.1858 15.626 41.7219 15.626 41.2044C15.626 40.6869 15.766 40.223 15.9871 39.8913C16.2086 39.5589 16.5038 39.3689 16.8162 39.3689C17.1288 39.3689 17.4239 39.5589 17.6454 39.8913C17.8666 40.223 18.0066 40.6869 18.0066 41.2044Z" fill="#183E7F" stroke="black" stroke-width="0.3" stroke-linejoin="round"/>
<path d="M17.1464 41.2046C17.1464 41.6061 17.0532 41.9647 16.9076 42.2195C16.7604 42.477 16.5723 42.61 16.3862 42.61C16.2 42.61 16.0119 42.477 15.8647 42.2195C15.7192 41.9647 15.626 41.6061 15.626 41.2046C15.626 40.8031 15.7192 40.4445 15.8647 40.1897C16.0119 39.9322 16.2 39.7992 16.3862 39.7992C16.5723 39.7992 16.7604 39.9322 16.9076 40.1897C17.0532 40.4445 17.1464 40.8031 17.1464 41.2046Z" fill="#176CF7" stroke="black" stroke-width="0.3" stroke-linejoin="round"/>
<path d="M15.4255 41.2044C15.4255 41.7219 15.2855 42.1858 15.0644 42.5175C14.8429 42.8499 14.5477 43.0399 14.2353 43.0399C13.9227 43.0399 13.6276 42.8499 13.4061 42.5175C13.1849 42.1858 13.0449 41.7219 13.0449 41.2044C13.0449 40.6869 13.1849 40.223 13.4061 39.8913C13.6276 39.5589 13.9227 39.3689 14.2353 39.3689C14.5477 39.3689 14.8429 39.5589 15.0644 39.8913C15.2855 40.223 15.4255 40.6869 15.4255 41.2044Z" fill="#183E7F" stroke="black" stroke-width="0.3" stroke-linejoin="round"/>
<path d="M14.5653 41.2046C14.5653 41.6061 14.4721 41.9647 14.3266 42.2195C14.1794 42.477 13.9913 42.61 13.8051 42.61C13.6189 42.61 13.4309 42.477 13.2837 42.2195C13.1381 41.9647 13.0449 41.6061 13.0449 41.2046C13.0449 40.8031 13.1381 40.4445 13.2837 40.1897C13.4309 39.9322 13.6189 39.7992 13.8051 39.7992C13.9913 39.7992 14.1794 39.9322 14.3266 40.1897C14.4721 40.4445 14.5653 40.8031 14.5653 41.2046Z" fill="#176CF7" stroke="black" stroke-width="0.3" stroke-linejoin="round"/>
<path d="M4.67265 40.9894C4.67265 41.4449 4.53403 41.8534 4.31471 42.1459C4.09542 42.4383 3.8001 42.6098 3.48232 42.6098C3.16454 42.6098 2.86922 42.4383 2.64992 42.1459C2.4306 41.8534 2.29199 41.4449 2.29199 40.9894C2.29199 40.5338 2.4306 40.1252 2.64992 39.8328C2.86922 39.5404 3.16454 39.3689 3.48232 39.3689C3.8001 39.3689 4.09542 39.5404 4.31471 39.8328C4.53403 40.1252 4.67265 40.5338 4.67265 40.9894Z" fill="#183E7F" stroke="black" stroke-width="0.3" stroke-linejoin="round"/>
<path d="M6.39433 40.9894C6.39433 41.4449 6.25571 41.8534 6.0364 42.1459C5.8171 42.4383 5.52178 42.6098 5.204 42.6098C4.88622 42.6098 4.5909 42.4383 4.3716 42.1459C4.15229 41.8534 4.01367 41.4449 4.01367 40.9894C4.01367 40.5338 4.15229 40.1252 4.3716 39.8328C4.5909 39.5404 4.88622 39.3689 5.204 39.3689C5.52178 39.3689 5.8171 39.5404 6.0364 39.8328C6.25571 40.1252 6.39433 40.5338 6.39433 40.9894Z" fill="#183E7F" stroke="black" stroke-width="0.3" stroke-linejoin="round"/>
<path d="M5.5341 40.9895C5.5341 41.3289 5.44223 41.6315 5.29895 41.8465C5.1552 42.0621 4.96759 42.1799 4.77389 42.1799C4.58019 42.1799 4.39258 42.0621 4.24883 41.8465C4.10555 41.6315 4.01367 41.3289 4.01367 40.9895C4.01367 40.6502 4.10555 40.3475 4.24883 40.1326C4.39258 39.917 4.58019 39.7992 4.77389 39.7992C4.96759 39.7992 5.1552 39.917 5.29895 40.1326C5.44223 40.3475 5.5341 40.6502 5.5341 40.9895Z" fill="#176CF7" stroke="black" stroke-width="0.3" stroke-linejoin="round"/>
<path d="M3.81243 40.9895C3.81243 41.3289 3.72055 41.6315 3.57727 41.8465C3.43352 42.0621 3.24591 42.1799 3.05221 42.1799C2.85851 42.1799 2.6709 42.0621 2.52715 41.8465C2.38387 41.6315 2.29199 41.3289 2.29199 40.9895C2.29199 40.6502 2.38387 40.3475 2.52715 40.1326C2.6709 39.917 2.85851 39.7992 3.05221 39.7992C3.24591 39.7992 3.43352 39.917 3.57727 40.1326C3.72055 40.3475 3.81243 40.6502 3.81243 40.9895Z" fill="#176CF7" stroke="black" stroke-width="0.3" stroke-linejoin="round"/>
<path d="M8.116 40.9894C8.116 41.4449 7.9774 41.8534 7.75806 42.1459C7.5388 42.4383 7.24346 42.6098 6.92566 42.6098C6.60789 42.6098 6.31257 42.4383 6.09328 42.1459C5.87396 41.8534 5.73535 41.4449 5.73535 40.9894C5.73535 40.5338 5.87396 40.1252 6.09328 39.8328C6.31257 39.5404 6.60789 39.3689 6.92566 39.3689C7.24346 39.3689 7.5388 39.5404 7.75806 39.8328C7.9774 40.1252 8.116 40.5338 8.116 40.9894Z" fill="#183E7F" stroke="black" stroke-width="0.3" stroke-linejoin="round"/>
<path d="M7.2558 40.9895C7.2558 41.3289 7.16393 41.6315 7.0206 41.8465C6.87686 42.0621 6.68926 42.1799 6.49556 42.1799C6.30186 42.1799 6.11425 42.0621 5.9705 41.8465C5.82722 41.6315 5.73535 41.3289 5.73535 40.9895C5.73535 40.6502 5.82722 40.3475 5.9705 40.1326C6.11425 39.917 6.30186 39.7992 6.49556 39.7992C6.68926 39.7992 6.87686 39.917 7.0206 40.1326C7.16393 40.3475 7.2558 40.6502 7.2558 40.9895Z" fill="#176CF7" stroke="black" stroke-width="0.3" stroke-linejoin="round"/>
<path fill-rule="evenodd" clip-rule="evenodd" d="M25.7833 41.9318C25.7178 41.9084 25.6662 41.881 25.6344 41.8494C25.5558 41.7706 25.5346 41.4902 25.5079 41.1347C25.4616 40.5189 25.3983 39.6777 24.9893 39.2687C24.3442 38.6235 23.2688 38.4086 22.6237 39.2688C22.2966 39.7049 22.0962 40.2216 22.0115 40.6875C21.9898 40.8551 21.9785 41.0279 21.9785 41.2046C21.9785 42.7486 22.8451 44.0003 23.914 44.0003C24.8087 44.0003 25.5617 43.1232 25.7833 41.9318Z" fill="#183E7F"/>
<mask id="mask3_849_31825" style="mask-type:alpha" maskUnits="userSpaceOnUse" x="21" y="38" width="5" height="7">
<path fill-rule="evenodd" clip-rule="evenodd" d="M25.7833 41.9318C25.7178 41.9084 25.6662 41.881 25.6344 41.8494C25.5558 41.7706 25.5346 41.4902 25.5079 41.1347C25.4616 40.5189 25.3983 39.6777 24.9893 39.2687C24.3442 38.6235 23.2688 38.4086 22.6237 39.2688C22.2966 39.7049 22.0962 40.2216 22.0115 40.6875C21.9898 40.8551 21.9785 41.0279 21.9785 41.2046C21.9785 42.7486 22.8451 44.0003 23.914 44.0003C24.8087 44.0003 25.5617 43.1232 25.7833 41.9318Z" fill="black"/>
</mask>
<g mask="url(#mask3_849_31825)">
<path d="M25.6343 41.8494L25.4929 41.9908L25.6343 41.8494ZM25.7832 41.9318L25.9798 41.9684C25.9978 41.872 25.9431 41.7768 25.8507 41.7436L25.7832 41.9318ZM25.5078 41.1347L25.3084 41.1497L25.5078 41.1347ZM24.9892 39.2687L25.1306 39.1273L24.9892 39.2687ZM22.6236 39.2688L22.7836 39.3888L22.6236 39.2688ZM22.0114 40.6875L21.8146 40.6518C21.814 40.6551 21.8135 40.6584 21.8131 40.6618L22.0114 40.6875ZM25.4929 41.9908C25.5561 42.0539 25.6411 42.0934 25.7157 42.1201L25.8507 41.7436C25.825 41.7344 25.8058 41.7257 25.7922 41.7183C25.7781 41.7106 25.7743 41.7064 25.7758 41.7079L25.4929 41.9908ZM25.3084 41.1497C25.3215 41.3248 25.334 41.492 25.3538 41.6252C25.3637 41.692 25.3763 41.7571 25.3943 41.8144C25.4109 41.867 25.4388 41.9366 25.4929 41.9908L25.7758 41.7079C25.7906 41.7227 25.7864 41.7278 25.776 41.6946C25.767 41.666 25.758 41.6241 25.7495 41.5665C25.7323 41.4508 25.7208 41.3001 25.7073 41.1197L25.3084 41.1497ZM24.8478 39.4101C25.0109 39.5732 25.1187 39.8392 25.189 40.1662C25.2583 40.489 25.2851 40.8395 25.3084 41.1497L25.7073 41.1197C25.6843 40.8141 25.6561 40.4362 25.5801 40.0821C25.5049 39.7323 25.3766 39.3732 25.1306 39.1273L24.8478 39.4101ZM22.7836 39.3888C23.064 39.0149 23.4281 38.881 23.7939 38.9038C24.1682 38.9272 24.5542 39.1165 24.8478 39.4101L25.1306 39.1273C24.7791 38.7757 24.3048 38.535 23.8189 38.5046C23.3245 38.4738 22.8283 38.6625 22.4636 39.1488L22.7836 39.3888ZM22.2082 40.7233C22.2881 40.284 22.4774 39.797 22.7836 39.3888L22.4636 39.1488C22.1156 39.6128 21.9041 40.1592 21.8146 40.6518L22.2082 40.7233ZM22.1784 41.2046C22.1784 41.0365 22.1891 40.8722 22.2097 40.7132L21.8131 40.6618C21.7903 40.838 21.7783 41.0194 21.7783 41.2046H22.1784ZM23.9139 43.8003C23.4635 43.8003 23.0346 43.5369 22.7097 43.0676C22.3853 42.5991 22.1784 41.9411 22.1784 41.2046H21.7783C21.7783 42.0122 22.0047 42.7519 22.3808 43.2953C22.7565 43.8379 23.2952 44.2003 23.9139 44.2003V43.8003ZM25.5866 41.8953C25.3723 43.0475 24.6652 43.8003 23.9139 43.8003V44.2003C24.9521 44.2003 25.7509 43.199 25.9798 41.9684L25.5866 41.8953Z" fill="black"/>
</g>
<path d="M23.053 37.9794C24.1479 37.6143 24.9885 38.1941 25.4186 38.6242L25.8488 39.0543V39.4845H25.2036C25.2036 39.2695 24.5584 38.8397 23.9132 38.8397C22.1928 38.8397 22.1212 40.6318 22.1928 41.6354H21.7627V39.0548C21.7627 38.9114 22.4079 38.1945 23.053 37.9794Z" fill="#448AFD" stroke="black" stroke-width="0.3" stroke-linejoin="round"/>
<path d="M24.4593 41.2044C24.4593 41.7252 24.3419 42.1916 24.157 42.5244C23.9702 42.8606 23.7282 43.0399 23.4841 43.0399C23.2399 43.0399 22.9979 42.8606 22.8111 42.5244C22.6263 42.1916 22.5088 41.7252 22.5088 41.2044C22.5088 40.6836 22.6263 40.2172 22.8111 39.8844C22.9979 39.5482 23.2399 39.3689 23.4841 39.3689C23.7282 39.3689 23.9702 39.5482 24.157 39.8844C24.3419 40.2172 24.4593 40.6836 24.4593 41.2044Z" fill="#176CF7" stroke="black" stroke-width="0.3" stroke-linejoin="round"/>
</g>
</g>
<defs>
<linearGradient id="paint0_linear_849_31825" x1="33.0899" y1="36.9928" x2="32.8695" y2="36.3186" gradientUnits="userSpaceOnUse">
<stop stop-color="#FDD3C3"/>
<stop offset="0.996" stop-color="#FBB09B"/>
</linearGradient>
<linearGradient id="paint1_linear_849_31825" x1="39.0618" y1="43.5594" x2="39.0618" y2="39.0023" gradientUnits="userSpaceOnUse">
<stop stop-color="#293377"/>
<stop offset="0.989" stop-color="#14163F"/>
</linearGradient>
<linearGradient id="paint2_linear_849_31825" x1="38.9592" y1="36.2597" x2="38.7502" y2="34.2428" gradientUnits="userSpaceOnUse">
<stop stop-color="#FDD3C3"/>
<stop offset="0.996" stop-color="#FBB09B"/>
</linearGradient>
<linearGradient id="paint3_linear_849_31825" x1="36.1927" y1="36.4101" x2="36.5153" y2="36.3193" gradientUnits="userSpaceOnUse">
<stop stop-color="#FDD3C3"/>
<stop offset="0.996" stop-color="#FBB09B"/>
</linearGradient>
<clipPath id="clip0_849_31825">
<rect width="48" height="48" fill="white"/>
</clipPath>
</defs>
</svg>
