<svg width="16" height="16" viewBox="0 0 16 16" fill="none" xmlns="http://www.w3.org/2000/svg">
<path d="M11.3145 6.21143H12.8134C12.9099 6.21133 13.005 6.23313 13.0918 6.27516C13.1785 6.31718 13.2546 6.37835 13.3141 6.45402L14.5295 8.06729C14.6539 8.23337 14.7218 8.43487 14.7231 8.64225V11.3302C14.7231 11.3588 14.7118 11.3861 14.6916 11.4063C14.6714 11.4264 14.6439 11.4378 14.6154 11.4378H12.9755" stroke="#176CF7" stroke-width="1.5" stroke-linecap="round" stroke-linejoin="round"/>
<path d="M11.7236 12.5937C12.3899 12.5937 12.9301 12.0546 12.9301 11.3896C12.9301 10.7246 12.3899 10.1855 11.7236 10.1855C11.0573 10.1855 10.5172 10.7246 10.5172 11.3896C10.5172 12.0546 11.0573 12.5937 11.7236 12.5937Z" stroke="#176CF7" stroke-width="1.5" stroke-linecap="round" stroke-linejoin="round"/>
<path d="M6.61115 12.5937C7.27744 12.5937 7.81757 12.0546 7.81757 11.3896C7.81757 10.7246 7.27744 10.1855 6.61115 10.1855C5.94486 10.1855 5.40472 10.7246 5.40472 11.3896C5.40472 12.0546 5.94486 12.5937 6.61115 12.5937Z" stroke="#176CF7" stroke-width="1.5" stroke-linecap="round" stroke-linejoin="round"/>
<path d="M10.523 11.46H7.75928" stroke="#176CF7" stroke-width="1.5" stroke-linecap="round" stroke-linejoin="round"/>
<path d="M3.90746 7.72942C5.36175 7.72942 6.54068 6.55276 6.54068 5.10128C6.54068 3.6498 5.36175 2.47314 3.90746 2.47314C2.45317 2.47314 1.27423 3.6498 1.27423 5.10128C1.27423 6.55276 2.45317 7.72942 3.90746 7.72942Z" stroke="#176CF7" stroke-width="1.5"/>
<path fill-rule="evenodd" clip-rule="evenodd" d="M4.65747 7.62127C4.41978 7.69163 4.16805 7.72941 3.90749 7.72941C3.64691 7.72941 3.39517 7.69163 3.15747 7.62126V10.4108C3.15747 10.8954 3.35037 11.3599 3.69328 11.7022C4.03613 12.0444 4.50083 12.2363 4.98507 12.2363H5.41044C5.82465 12.2363 6.16044 11.9005 6.16044 11.4863C6.16044 11.0721 5.82465 10.7363 5.41044 10.7363H4.98507C4.89772 10.7363 4.81423 10.7017 4.75291 10.6405C4.69163 10.5793 4.65747 10.4967 4.65747 10.4108V7.62127ZM6.53759 4.97217H10.2515C10.2947 4.97217 10.3375 4.98067 10.3774 4.99714C10.4172 5.01362 10.4533 5.03773 10.4837 5.06802C10.514 5.09832 10.538 5.1342 10.5544 5.17359C10.5707 5.21297 10.5791 5.25514 10.5791 5.29768V9.01265C10.5791 9.42687 10.9149 9.76265 11.3291 9.76265C11.7433 9.76265 12.0791 9.42687 12.0791 9.01265V5.29768C12.0791 5.05775 12.0318 4.8202 11.9398 4.59861C11.8478 4.37703 11.7131 4.17578 11.5433 4.00634C11.3735 3.83689 11.1721 3.70256 10.9504 3.61093C10.7288 3.51931 10.4913 3.47217 10.2515 3.47217H5.97393C6.30387 3.8885 6.5102 4.4069 6.53759 4.97217Z" fill="#176CF7"/>
<path d="M3.90753 4.30664V5.89727" stroke="#176CF7" stroke-width="1.5" stroke-linecap="round"/>
<path d="M3.10992 5.10156H4.70363" stroke="#176CF7" stroke-width="1.5" stroke-linecap="round"/>
</svg>
