<svg width="16" height="17" viewBox="0 0 16 17" fill="none" xmlns="http://www.w3.org/2000/svg">
<path d="M6.90625 7.71287L8.02219 6.59692V11.0607H6.90625H9.13813" stroke="#176CF7" stroke-width="1.5" stroke-linecap="round" stroke-linejoin="round"/>
<path fill-rule="evenodd" clip-rule="evenodd" d="M9.96593 2.13306H4.28333C3.94297 2.13306 3.61655 2.26826 3.37588 2.50894C3.13521 2.74961 3 3.07603 3 3.41639V13.6831C3 14.0234 3.13521 14.3498 3.37588 14.5905C3.61655 14.8312 3.94297 14.9664 4.28333 14.9664H11.9833C12.3237 14.9664 12.6501 14.8312 12.8908 14.5905C13.1315 14.3498 13.2667 14.0234 13.2667 13.6831V6.57275C13.2667 6.44096 13.2261 6.31236 13.1505 6.20443L10.4915 2.40641C10.4323 2.32197 10.3536 2.25304 10.2621 2.20546C10.1706 2.15788 10.069 2.13304 9.96593 2.13306Z" stroke="#176CF7" stroke-width="1.5" stroke-linecap="round" stroke-linejoin="bevel"/>
</svg>
