<svg xmlns="http://www.w3.org/2000/svg" width="32" height="32" viewBox="0 0 32 32">
  <g id="Group_17426" data-name="Group 17426" transform="translate(16813 7605)">
    <rect id="Rectangle_4686" data-name="Rectangle 4686" width="32" height="32" rx="16" transform="translate(-16813 -7605)" fill="#5eb579"/>
    <g id="Group_17425" data-name="Group 17425" transform="translate(-16838.832 -7794.641)">
      <path id="auction" d="M1,16.807a1.05,1.05,0,0,0,1.049,1.049h7.09a1.047,1.047,0,0,0,.053-2.093,1.476,1.476,0,0,0-1.436-1.147H3.434A1.476,1.476,0,0,0,2,15.763,1.048,1.048,0,0,0,1,16.807Zm2.432-1.525H7.758a.81.81,0,0,1,.737.476H2.7A.81.81,0,0,1,3.434,15.282ZM2.051,16.424h7.09a.383.383,0,1,1,0,.765H2.051a.383.383,0,1,1,0-.765Zm15.091-.294.19-.208a1.279,1.279,0,0,0-.083-1.8L12.233,9.541A.762.762,0,0,0,11.48,9.4L10.061,8.1l1.421-1.559a.737.737,0,0,0,.035-.948.738.738,0,0,0,.073-.065l.392-.43a.754.754,0,0,0-.05-1.064L9.41,1.761a.774.774,0,0,0-1.063.048l-.46.5a.762.762,0,0,0-.935.127L2.778,7.019a.735.735,0,0,0-.044.943l-.46.5a.752.752,0,0,0,.05,1.064l2.523,2.277a.752.752,0,0,0,1.063-.049l.392-.43a.755.755,0,0,0,.059-.078.741.741,0,0,0,.943-.122L8.692,9.606l1.416,1.288a.731.731,0,0,0,.214.743l5.016,4.577A1.277,1.277,0,0,0,17.142,16.13ZM8.839,2.259c.046-.05.08-.043.123,0l2.523,2.277a.086.086,0,0,1,.006.121l-.392.43c-.046.05-.08.043-.123,0L8.391,2.751ZM5.81,10.879l-.393.43c-.046.05-.08.043-.122,0L2.772,9.036a.086.086,0,0,1-.006-.121l.451-.495,2.6,2.35a.088.088,0,0,1,.019.047A.084.084,0,0,1,5.81,10.879Zm1-.2a.066.066,0,0,1-.106.006l-.433-.392c-.008-.008-.014-.018-.023-.025L3.274,7.57a.07.07,0,0,1,0-.1L7.445,2.89A.07.07,0,0,1,7.5,2.867a.075.075,0,0,1,.046.018L10.986,6a.078.078,0,0,1,0,.1ZM9.141,9.113,9.612,8.6,10.961,9.83l-.468.514Zm1.63,2.031a.078.078,0,0,1,0-.11l.908-1a.078.078,0,0,1,.11-.005L16.8,14.61a.612.612,0,0,1,.04.863l-.19.208a.629.629,0,0,1-.863.04Z" transform="translate(32.498 195.927)" fill="#fff" stroke="#fff" stroke-width="0.2"/>
    </g>
  </g>
</svg>
