<svg width="16" height="16" viewBox="0 0 16 16" fill="none" xmlns="http://www.w3.org/2000/svg">
<path fill-rule="evenodd" clip-rule="evenodd" d="M2 8.66667V4C2 2.89543 2.89543 2 4 2H12C13.1046 2 14 2.89543 14 4V8.66667C14 9.77124 13.1046 10.6667 12 10.6667H4C2.89543 10.6667 2 9.77124 2 8.66667Z" stroke="#176CF7" stroke-width="1.5" stroke-linecap="round" stroke-linejoin="round"/>
<path fill-rule="evenodd" clip-rule="evenodd" d="M6.74829 7.56605V5.10061C6.74833 4.94575 6.83099 4.80267 6.96513 4.72529C7.09927 4.6479 7.26451 4.64797 7.39858 4.72547L9.53178 5.95819C9.66576 6.0356 9.74829 6.17859 9.74829 6.33333C9.74829 6.48807 9.66576 6.63106 9.53178 6.70847L7.39859 7.94119C7.26451 8.01869 7.09927 8.01876 6.96513 7.94138C6.83098 7.86399 6.74832 7.72091 6.74829 7.56605V7.56605Z" stroke="#176CF7" stroke-width="1.5" stroke-linecap="round" stroke-linejoin="round"/>
<path d="M13.3334 13.3333H6.66675" stroke="#176CF7" stroke-width="1.5" stroke-linecap="round" stroke-linejoin="round"/>
<path d="M2.66675 13.3333H4.66675" stroke="#176CF7" stroke-width="1.5" stroke-linecap="round" stroke-linejoin="round"/>
<path d="M4.66659 14V12.6667" stroke="#176CF7" stroke-width="1.5" stroke-linecap="round" stroke-linejoin="round"/>
</svg>
