<svg width="24" height="24" viewBox="0 0 24 24" fill="none" xmlns="http://www.w3.org/2000/svg">
<path d="M12 24C11.2926 24 10.7202 23.4263 10.7202 22.7189V21.352C9.91813 21.2417 9.13712 21.027 8.38745 20.7101C7.28181 20.243 6.28957 19.5734 5.43773 18.7216C4.58589 17.8697 3.9163 16.8761 3.44921 15.7719C3.11143 14.9717 2.88974 14.1374 2.78686 13.2798H1.27978C0.572393 13.2798 0 12.706 0 12C0 11.2926 0.572393 10.7202 1.27978 10.7202H2.8307C2.94664 9.9745 3.1534 9.24794 3.44921 8.54809C3.9163 7.44246 4.58589 6.45022 5.43773 5.59838C6.28957 4.74519 7.28181 4.07695 8.38745 3.60851C9.13712 3.29163 9.91813 3.0769 10.7202 2.96659V1.27978C10.7202 0.572393 11.2926 0 12 0C12.706 0 13.2798 0.572393 13.2798 1.27978V2.96665C14.0813 3.07697 14.8617 3.29169 15.6112 3.60851C16.7168 4.07695 17.7091 4.74519 18.5609 5.59838C19.4141 6.45022 20.0823 7.44246 20.5494 8.54809C20.8461 9.24794 21.0531 9.9745 21.1692 10.7202H22.7189C23.4263 10.7202 24 11.2926 24 12C24 12.706 23.4263 13.2798 22.7189 13.2798H21.2131C21.1101 14.1374 20.8882 14.9717 20.5494 15.7719C20.0823 16.8761 19.4141 17.8697 18.5609 18.7216C17.7091 19.5734 16.7168 20.243 15.6112 20.7101C14.8617 21.0269 14.0813 21.2416 13.2798 21.3519V22.7189C13.2798 23.4263 12.706 24 12 24ZM12 16.6399C12.706 16.6399 13.2798 17.2123 13.2798 17.9197V19.4079C16.3671 18.8642 18.7978 16.3892 19.2749 13.2798H17.9197C17.2123 13.2798 16.6399 12.706 16.6399 12C16.6399 11.2926 17.2123 10.7202 17.9197 10.7202H19.2187C18.6297 7.76158 16.2609 5.43676 13.2798 4.91199V6.08032C13.2798 6.78637 12.706 7.36011 12 7.36011C11.2926 7.36011 10.7202 6.78637 10.7202 6.08032V4.91199C7.73908 5.43676 5.37032 7.76158 4.78131 10.7202H6.08032C6.78637 10.7202 7.36011 11.2926 7.36011 12C7.36011 12.706 6.78637 13.2798 6.08032 13.2798H4.72505C5.20221 16.3892 7.6329 18.8642 10.7202 19.4079V17.9197C10.7202 17.2123 11.2926 16.6399 12 16.6399Z" fill="#176CF7"/>
</svg>
