<svg width="33" height="32" viewBox="0 0 33 32" fill="none" xmlns="http://www.w3.org/2000/svg">
<g filter="url(#filter0_dd_1465_67608)">
<rect width="25" height="24" rx="12" transform="matrix(-1 0 0 1 29 2)" fill="white"/>
<rect x="-0.5" y="0.5" width="24" height="23" rx="11.5" transform="matrix(-1 0 0 1 28 2)" stroke="#DBE2EA"/>
</g>
<g clip-path="url(#clip0_1465_67608)">
<rect width="9" height="11" transform="translate(12 8)" fill="white"/>
<path d="M16.5 19.0014C16.7981 19.0005 17.0838 18.8813 17.2946 18.6699C17.5054 18.4584 17.6243 18.172 17.6252 17.873H15.3748C15.3747 18.0212 15.4038 18.1679 15.4603 18.3049C15.5168 18.4418 15.5997 18.5663 15.7042 18.6711C15.8087 18.7759 15.9328 18.859 16.0693 18.9157C16.2059 18.9723 16.3522 19.0015 16.5 19.0014ZM19.8748 15.6168V12.7937C19.9317 11.9971 19.7102 11.2055 19.2483 10.5548C18.7865 9.90423 18.1131 9.43523 17.3439 9.22843V8.84631C17.3439 8.62186 17.255 8.40659 17.0967 8.24788C16.9385 8.08916 16.7238 8 16.5 8C16.2762 8 16.0615 8.08916 15.9033 8.24788C15.745 8.40659 15.6561 8.62186 15.6561 8.84631V9.22981C14.8862 9.4349 14.2119 9.90328 13.7498 10.554C13.2877 11.2048 13.0667 11.997 13.1252 12.7937V15.6141L12 16.7439V17.3081H21V16.7439L19.8748 15.6168Z" fill="#CECECE"/>
</g>
<defs>
<filter id="filter0_dd_1465_67608" x="0" y="0" width="33" height="32" filterUnits="userSpaceOnUse" color-interpolation-filters="sRGB">
<feFlood flood-opacity="0" result="BackgroundImageFix"/>
<feColorMatrix in="SourceAlpha" type="matrix" values="0 0 0 0 0 0 0 0 0 0 0 0 0 0 0 0 0 0 127 0" result="hardAlpha"/>
<feOffset dy="2"/>
<feGaussianBlur stdDeviation="2"/>
<feColorMatrix type="matrix" values="0 0 0 0 0.172549 0 0 0 0 0.152941 0 0 0 0 0.219608 0 0 0 0.08 0"/>
<feBlend mode="normal" in2="BackgroundImageFix" result="effect1_dropShadow_1465_67608"/>
<feColorMatrix in="SourceAlpha" type="matrix" values="0 0 0 0 0 0 0 0 0 0 0 0 0 0 0 0 0 0 127 0" result="hardAlpha"/>
<feOffset dy="1"/>
<feGaussianBlur stdDeviation="1"/>
<feColorMatrix type="matrix" values="0 0 0 0 0.172549 0 0 0 0 0.152941 0 0 0 0 0.219608 0 0 0 0.01 0"/>
<feBlend mode="normal" in2="effect1_dropShadow_1465_67608" result="effect2_dropShadow_1465_67608"/>
<feBlend mode="normal" in="SourceGraphic" in2="effect2_dropShadow_1465_67608" result="shape"/>
</filter>
<clipPath id="clip0_1465_67608">
<rect width="9" height="11" fill="white" transform="translate(12 8)"/>
</clipPath>
</defs>
</svg>
