<svg width="105" height="104" viewBox="0 0 105 104" fill="none" xmlns="http://www.w3.org/2000/svg">
<defs>
<clipPath id="clip0">
<rect width="97.9172" height="104" fill="white"/>
</clipPath>
</defs>
<g clip-path="url(#clip0)">
<path d="M34.0954 68.1908C52.9258 68.1908 68.1908 52.9258 68.1908 34.0954C68.1908 15.265 52.9258 0 34.0954 0C15.265 0 0 15.265 0 34.0954C0 52.9258 15.265 68.1908 34.0954 68.1908Z" fill="#FFC217"/>
<path d="M34.0958 67.8463C52.7359 67.8463 67.8468 52.7354 67.8468 34.0953C67.8468 15.4551 52.7359 0.344238 34.0958 0.344238C15.4556 0.344238 0.344727 15.4551 0.344727 34.0953C0.344727 52.7354 15.4556 67.8463 34.0958 67.8463Z" stroke="#FFC217"/>
<path d="M32.689 26.3557L50.7628 13.0103L69.0469 26.3557H83.1282V36.6527L97.7349 47.2671V95.0268C97.7349 95.0268 98.7852 100.598 95.8434 102.487C92.9015 104.375 90.6945 103.96 90.6945 103.96H9.46329C9.46329 103.96 4.62937 103.327 4.2092 99.5443C3.78904 95.7615 4.2092 47.2644 4.2092 47.2644L18.1856 36.6513V26.3543L32.689 26.3557Z" fill="#003183"/>
<path d="M50.9707 16.04L65.022 26.3034H36.5439L50.9707 16.04Z" fill="#176CF7"/>
<path d="M83.1494 39.6152L94.715 48.0099L83.1494 58.0822V39.6152Z" fill="#0A4FC0"/>
<path d="M20.8857 28.894H80.7014V59.9329L59.685 78.2842C59.685 78.2842 53.682 73.3357 49.9467 73.9039C46.2114 74.4722 44.7959 75.8839 43.5582 76.6995C42.8345 77.174 42.1485 77.7042 41.5062 78.2842L20.987 60.3486L20.8857 28.894Z" fill="white"/>
<path d="M7.05859 47.9129L18.5008 39.5962V58.0659L7.05859 47.9129Z" fill="#0A4FC0"/>
<path d="M92.3238 101.579C92.3238 101.579 94.8104 101.456 95.1217 99.1557C95.4331 96.8552 95.4951 50.6548 95.4951 50.6548L61.9805 79.9421L92.3238 101.579Z" fill="#176CF7"/>
<path d="M5.95605 50.6548L39.2594 79.9192L9.35127 101.583C9.35127 101.583 6.5222 100.855 6.35965 98.6714C6.19709 96.488 5.95605 50.6548 5.95605 50.6548Z" fill="#176CF7"/>
<path d="M13.8564 101.578H87.9821L56.9409 79.1775C56.9409 79.1775 52.1826 74.363 47.3424 77.3923C42.5023 80.4216 13.8564 101.578 13.8564 101.578Z" fill="#004CC9"/>
<path d="M11.215 58.9044C11.215 58.2771 10.7065 57.7686 10.0792 57.7686C9.45189 57.7686 8.94336 58.2771 8.94336 58.9044V83.8912C8.94336 84.5185 9.45189 85.027 10.0792 85.027C10.7065 85.027 11.215 84.5185 11.215 83.8912V58.9044Z" fill="white"/>
<path d="M11.215 87.6778C11.215 87.0505 10.7065 86.542 10.0792 86.542C9.45189 86.542 8.94336 87.0505 8.94336 87.6778V93.7351C8.94336 94.3624 9.45189 94.8709 10.0792 94.8709C10.7065 94.8709 11.215 94.3624 11.215 93.7351V87.6778Z" fill="white"/>
<path d="M23.0388 97.127C22.3953 97.5947 22.2528 98.4955 22.7205 99.139C23.1882 99.7825 24.0891 99.925 24.7326 99.4573L44.5395 85.0612C45.183 84.5934 45.3256 83.6926 44.8578 83.0491C44.3901 82.4056 43.4893 82.2631 42.8458 82.7308L23.0388 97.127Z" fill="white"/>
<path d="M46.3415 80.3472C45.698 80.8149 45.5555 81.7157 46.0232 82.3592C46.491 83.0027 47.3918 83.1453 48.0353 82.6775L51.5303 80.1373C52.1738 79.6696 52.3163 78.7688 51.8486 78.1252C51.3809 77.4817 50.48 77.3392 49.8365 77.8069L46.3415 80.3472Z" fill="white"/>
<path d="M68.2744 79.1101C67.623 78.6535 66.7247 78.8115 66.2681 79.463C65.8115 80.1145 65.9695 81.0127 66.621 81.4693L86.6728 95.5227C87.3243 95.9793 88.2225 95.8213 88.6791 95.1698C89.1357 94.5184 88.9777 93.6201 88.3262 93.1635L68.2744 79.1101Z" fill="white"/>
<path d="M38.2815 33.751H25.8831C24.9321 33.751 24.1611 34.5219 24.1611 35.473C24.1611 36.424 24.9321 37.195 25.8831 37.195H38.2815C39.2325 37.195 40.0035 36.424 40.0035 35.473C40.0035 34.5219 39.2325 33.751 38.2815 33.751Z" fill="#EA4335"/>
<path d="M71.6881 40.6387H25.5387C24.7779 40.6387 24.1611 41.2554 24.1611 42.0163C24.1611 42.7771 24.7779 43.3939 25.5387 43.3939H71.6881C72.4489 43.3939 73.0657 42.7771 73.0657 42.0163C73.0657 41.2554 72.4489 40.6387 71.6881 40.6387Z" fill="#176CF7"/>
<path d="M75.8209 47.5269H25.5387C24.7779 47.5269 24.1611 48.1436 24.1611 48.9044C24.1611 49.6653 24.7779 50.282 25.5387 50.282H75.8209C76.5817 50.282 77.1985 49.6653 77.1985 48.9044C77.1985 48.1436 76.5817 47.5269 75.8209 47.5269Z" fill="#176CF7"/>
<path d="M67.5553 54.4146H25.5387C24.7779 54.4146 24.1611 55.0313 24.1611 55.7921C24.1611 56.553 24.7779 57.1697 25.5387 57.1697H67.5553C68.3161 57.1697 68.9329 56.553 68.9329 55.7921C68.9329 55.0313 68.3161 54.4146 67.5553 54.4146Z" fill="#176CF7"/>
<path d="M57.9122 61.3027H27.6051C26.8443 61.3027 26.2275 61.9195 26.2275 62.6803C26.2275 63.4412 26.8443 64.0579 27.6051 64.0579H57.9122C58.673 64.0579 59.2898 63.4412 59.2898 62.6803C59.2898 61.9195 58.673 61.3027 57.9122 61.3027Z" fill="#176CF7"/>
<path d="M85.5868 7.47286C85.9082 5.50583 84.5634 3.65245 82.5832 3.33322C80.603 3.01398 78.7373 4.34978 78.4159 6.3168C78.0945 8.28383 79.4393 10.1372 81.4194 10.4564C83.3996 10.7757 85.2654 9.43988 85.5868 7.47286Z" fill="#FFC217"/>
<path d="M75.0966 12.9644C75.229 12.154 74.675 11.3904 73.8591 11.2588C73.0432 11.1273 72.2745 11.6777 72.1421 12.4881C72.0097 13.2986 72.5637 14.0622 73.3796 14.1937C74.1955 14.3253 74.9642 13.7749 75.0966 12.9644Z" fill="#FFC217"/>
<path d="M94.1746 30.7459C94.1746 37.4849 88.6723 42.965 81.8637 42.965C75.0551 42.965 69.5527 37.4849 69.5527 30.7459C69.5527 24.0069 75.0551 18.5269 81.8637 18.5269C88.6723 18.5269 94.1746 24.0069 94.1746 30.7459Z" fill="#FFC217" stroke="white" stroke-width="3"/>
<path d="M75.4736 30.3605C75.4736 29.5069 76.1804 28.6514 77.256 28.6514C78.3316 28.6514 79.0075 29.5069 79.0075 30.3605V32.085C79.0075 33.5793 80.2356 34.8913 81.8635 34.8913C83.4914 34.8913 84.7195 33.5793 84.7195 32.085V30.3605C84.7195 29.5069 85.4263 28.6514 86.5019 28.6514C87.5775 28.6514 88.2534 29.5069 88.2534 30.3605V32.085C88.2534 35.2577 85.6426 38.2789 81.8635 38.2789C78.0844 38.2789 75.4736 35.2577 75.4736 32.085V30.3605Z" fill="#307CFE"/>
<path d="M77.2521 27.859C78.2344 27.859 79.0306 27.0681 79.0306 26.0924C79.0306 25.1166 78.2344 24.3257 77.2521 24.3257C76.2699 24.3257 75.4736 25.1166 75.4736 26.0924C75.4736 27.0681 76.2699 27.859 77.2521 27.859Z" fill="#307CFE"/>
<path d="M86.4728 27.859C87.4551 27.859 88.2514 27.0681 88.2514 26.0924C88.2514 25.1166 87.4551 24.3257 86.4728 24.3257C85.4906 24.3257 84.6943 25.1166 84.6943 26.0924C84.6943 27.0681 85.4906 27.859 86.4728 27.859Z" fill="#307CFE"/>
</g>
<path d="M104.184 41.9128C104.506 39.9458 103.161 38.0924 101.181 37.7732C99.2007 37.4539 97.3349 38.7897 97.0135 40.7567C96.6922 42.7238 98.0369 44.5772 100.017 44.8964C101.997 45.2156 103.863 43.8798 104.184 41.9128Z" fill="#FFC217"/>
</svg>
