<svg width="20" height="19" viewBox="0 0 20 19" fill="none" xmlns="http://www.w3.org/2000/svg">
<path fill-rule="evenodd" clip-rule="evenodd" d="M13.6663 13.875H2.58301L4.33813 5.10413C4.51326 4.22881 4.98623 3.44119 5.67657 2.87526C6.36692 2.30933 7.23201 2.00004 8.12467 2V2C9.01734 2.00004 9.88243 2.30933 10.5728 2.87526C11.2631 3.44119 11.7361 4.22881 11.9112 5.10413L13.6663 13.875Z" stroke="#525252" stroke-width="1.5" stroke-linecap="round" stroke-linejoin="round"/>
<path d="M1 13.875H15.25" stroke="#525252" stroke-width="1.5" stroke-linecap="round" stroke-linejoin="round"/>
<path d="M10.5 13.875C10.5 14.5049 10.2498 15.109 9.80438 15.5544C9.35898 15.9998 8.75489 16.25 8.125 16.25C7.49511 16.25 6.89102 15.9998 6.44562 15.5544C6.00022 15.109 5.75 14.5049 5.75 13.875" stroke="#525252" stroke-width="1.5" stroke-linecap="round" stroke-linejoin="round"/>
</svg>
