<svg width="39" height="45" viewBox="0 0 39 45" fill="none" xmlns="http://www.w3.org/2000/svg">
<defs>
<filter id="filter0_d" x="0" y="0" width="38.957" height="44.6348" filterUnits="userSpaceOnUse" color-interpolation-filters="sRGB">
<feFlood flood-opacity="0" result="BackgroundImageFix"/>
<feColorMatrix in="SourceAlpha" type="matrix" values="0 0 0 0 0 0 0 0 0 0 0 0 0 0 0 0 0 0 127 0" result="hardAlpha"/>
<feOffset dy="6"/>
<feGaussianBlur stdDeviation="4.5"/>
<feColorMatrix type="matrix" values="0 0 0 0 0 0 0 0 0 0 0 0 0 0 0 0 0 0 0.161 0"/>
<feBlend mode="normal" in2="BackgroundImageFix" result="effect1_dropShadow"/>
<feBlend mode="normal" in="SourceGraphic" in2="effect1_dropShadow" result="shape"/>
</filter>
</defs>
<g filter="url(#filter0_d)">
<path d="M29.957 13.4466C29.957 20.5439 21.0161 29.6348 19.4786 29.6348C17.3544 29.6348 9 20.5439 9 13.4466C9 10.676 10.104 8.01886 12.0691 6.05974C14.0342 4.10062 16.6995 3 19.4786 3C20.8546 3 22.2172 3.27021 23.4885 3.79521C24.7598 4.3202 25.915 5.08969 26.888 6.05975C27.861 7.02981 28.6329 8.18144 29.1594 9.44888C29.686 10.7163 29.957 12.0748 29.957 13.4466Z" fill="white"/>
</g>
<path d="M19.4345 28.5799C18.731 28.3849 16.4969 26.5954 14.1621 23.417C11.5468 19.8564 10.0469 16.223 10.0469 13.4465C10.0497 10.9529 11.0446 8.56223 12.8132 6.79897C14.5818 5.03571 16.9798 4.04385 19.481 4.04102C21.9823 4.04385 24.3803 5.0357 26.1489 6.79896C27.9176 8.56222 28.9125 10.9529 28.9153 13.4465C28.9153 17.0936 26.2788 21.1565 24.7068 23.2538C22.4123 26.3155 20.1329 28.2814 19.4345 28.5799Z" fill="#FFC217"/>
<path d="M15.168 13.4572C15.1707 13.2978 15.2049 13.1405 15.2686 12.9943C15.3323 12.8481 15.4244 12.7158 15.5394 12.605C15.6545 12.4943 15.7903 12.4073 15.9391 12.3489C16.0879 12.2905 16.2468 12.262 16.4067 12.2648C16.5655 12.2623 16.7232 12.2912 16.8707 12.3499C17.0181 12.4087 17.1524 12.4961 17.2657 12.607C17.379 12.718 17.469 12.8503 17.5305 12.9963C17.592 13.1422 17.6238 13.2989 17.624 13.4572V14.6601C17.6294 15.1817 17.841 15.6802 18.2129 16.0471C18.5848 16.4141 19.0869 16.6199 19.6101 16.6199C20.1333 16.6199 20.6354 16.4141 21.0073 16.0471C21.3792 15.6802 21.5908 15.1817 21.5961 14.6601V13.4572C21.5988 13.2978 21.6331 13.1405 21.6968 12.9943C21.7605 12.8481 21.8525 12.7159 21.9676 12.6051C22.0826 12.4944 22.2184 12.4073 22.3672 12.3489C22.516 12.2906 22.6749 12.262 22.8348 12.2648C22.9935 12.2623 23.1512 12.2912 23.2987 12.35C23.4461 12.4088 23.5804 12.4961 23.6936 12.6071C23.8069 12.7181 23.8969 12.8504 23.9584 12.9963C24.0199 13.1422 24.0517 13.2989 24.0519 13.4572V14.6601C24.0238 15.816 23.5435 16.9151 22.7135 17.7227C21.8836 18.5303 20.7698 18.9824 19.61 18.9824C18.4503 18.9824 17.3365 18.5303 16.5066 17.7227C15.6766 16.9151 15.1963 15.816 15.1682 14.6601L15.168 13.4572Z" fill="#176CF7"/>
<path d="M17.6417 10.4803C17.6417 10.7241 17.5691 10.9625 17.4332 11.1653C17.2973 11.3681 17.1041 11.5261 16.8781 11.6194C16.6521 11.7127 16.4034 11.7371 16.1635 11.6896C15.9236 11.642 15.7032 11.5245 15.5302 11.3521C15.3573 11.1796 15.2395 10.9599 15.1917 10.7208C15.144 10.4816 15.1685 10.2336 15.2621 10.0083C15.3557 9.78301 15.5142 9.59043 15.7176 9.45493C15.921 9.31943 16.1601 9.24709 16.4047 9.24707C16.7328 9.2471 17.0474 9.37703 17.2794 9.6083C17.5113 9.83956 17.6417 10.1532 17.6417 10.4803Z" fill="#176CF7"/>
<path d="M24.0558 10.4803C24.0557 10.7241 23.9832 10.9625 23.8473 11.1653C23.7114 11.3681 23.5182 11.5261 23.2922 11.6194C23.0662 11.7127 22.8175 11.7371 22.5776 11.6896C22.3377 11.642 22.1173 11.5245 21.9443 11.3521C21.7713 11.1796 21.6535 10.9599 21.6058 10.7208C21.5581 10.4816 21.5826 10.2336 21.6762 10.0083C21.7698 9.78301 21.9283 9.59043 22.1317 9.45493C22.3351 9.31943 22.5742 9.24709 22.8188 9.24707C23.1468 9.2471 23.4615 9.37703 23.6934 9.6083C23.9254 9.83956 24.0557 10.1532 24.0558 10.4803Z" fill="#176CF7"/>
</svg>
