<svg width="16" height="16" viewBox="0 0 16 16" fill="none" xmlns="http://www.w3.org/2000/svg">
<path d="M7.41626 8.00333H10.2014" stroke="#176CF7" stroke-linecap="round" stroke-linejoin="round"/>
<path d="M7.41626 10.6644L11.4179 10.6678" stroke="#176CF7" stroke-linecap="round" stroke-linejoin="round"/>
<rect x="1.99731" y="1.9975" width="12.005" height="12.005" rx="2" stroke="#176CF7" stroke-linecap="round" stroke-linejoin="round"/>
<path d="M7.41626 5.32889H11.4179" stroke="#176CF7" stroke-linecap="round" stroke-linejoin="round"/>
<path d="M4.74784 5.16549C4.65585 5.16586 4.58153 5.24067 4.58178 5.33267C4.58202 5.42467 4.65673 5.49908 4.74873 5.49896C4.84073 5.49884 4.91525 5.42422 4.91525 5.33222C4.91543 5.28783 4.89783 5.24522 4.86637 5.21389C4.83492 5.18256 4.79223 5.16513 4.74784 5.16549" stroke="#176CF7" stroke-linecap="round" stroke-linejoin="round"/>
<path d="M4.74784 7.83327C4.65585 7.83364 4.58153 7.90845 4.58178 8.00045C4.58202 8.09245 4.65673 8.16687 4.74873 8.16674C4.84073 8.16662 4.91525 8.09201 4.91525 8.00001C4.91543 7.95562 4.89783 7.913 4.86637 7.88167C4.83492 7.85035 4.79223 7.83292 4.74784 7.83327" stroke="#176CF7" stroke-linecap="round" stroke-linejoin="round"/>
<path d="M4.74784 10.5011C4.65585 10.5014 4.58153 10.5762 4.58178 10.6682C4.58202 10.7602 4.65673 10.8347 4.74873 10.8345C4.84073 10.8344 4.91525 10.7598 4.91525 10.6678C4.91543 10.6234 4.89783 10.5808 4.86637 10.5495C4.83492 10.5181 4.79223 10.5007 4.74784 10.5011" stroke="#176CF7" stroke-linecap="round" stroke-linejoin="round"/>
</svg>
