<svg width="24" height="25" viewBox="0 0 24 25" fill="none" xmlns="http://www.w3.org/2000/svg">
<path fill-rule="evenodd" clip-rule="evenodd" d="M17.3451 2.14727C16.4807 2.07665 15.4053 2.07666 14.0336 2.07666H9.96644C8.59472 2.07666 7.51929 2.07665 6.65494 2.14727C5.77479 2.21918 5.04769 2.36804 4.38955 2.70337C3.30762 3.25464 2.42798 4.13428 1.87671 5.21621C1.54138 5.87435 1.39252 6.60146 1.32061 7.4816C1.24999 8.34595 1.25 9.42138 1.25 10.7931V15.055C1.25 17.5522 3.27441 19.5767 5.77166 19.5767H6.37341C6.62191 19.5767 6.79183 19.8276 6.69954 20.0584C6.01288 21.775 7.9899 23.327 9.49441 22.2523L12.1051 20.3875L12.1543 20.3525C12.8632 19.853 13.7079 19.5823 14.5751 19.5767L14.6354 19.5767L15.3311 19.5767C16.8797 19.5769 17.8244 19.577 18.6179 19.3444C20.4971 18.7933 21.9667 17.3238 22.5177 15.4445C22.7504 14.651 22.7502 13.7064 22.75 12.1578L22.75 10.7931C22.75 9.42139 22.75 8.34593 22.6794 7.4816C22.6075 6.60145 22.4586 5.87435 22.1233 5.21621C21.572 4.13428 20.6924 3.25464 19.6104 2.70337C18.9523 2.36804 18.2252 2.21918 17.3451 2.14727ZM5.07054 4.03988C5.48197 3.83025 5.9897 3.70662 6.77708 3.64229C7.57322 3.57724 8.58749 3.57666 10 3.57666H14C15.4125 3.57666 16.4268 3.57724 17.2229 3.64229C18.0103 3.70662 18.518 3.83025 18.9295 4.03988C19.7291 4.44734 20.3793 5.09751 20.7868 5.8972C20.9964 6.30863 21.12 6.81636 21.1844 7.60374C21.2494 8.39988 21.25 9.41415 21.25 10.8267V12.0109C21.25 13.7528 21.2424 14.4629 21.0783 15.0225C20.671 16.4115 19.5848 17.4977 18.1958 17.905C17.6363 18.069 16.9261 18.0767 15.1842 18.0767H14.6354L14.5655 18.0768C13.3922 18.0843 12.2493 18.4506 11.2902 19.1264L11.2333 19.1669L8.62255 21.0317C8.33709 21.2356 7.96197 20.9412 8.09226 20.6155C8.57867 19.3994 7.68311 18.0767 6.37341 18.0767H5.77166C4.10284 18.0767 2.75 16.7238 2.75 15.055V10.8267C2.75 9.41415 2.75058 8.39988 2.81563 7.60374C2.87996 6.81636 3.00359 6.30863 3.21322 5.8972C3.62068 5.09751 4.27085 4.44734 5.07054 4.03988Z" fill="#176CF7"/>
<path d="M9 10.8267C9 11.3789 8.55228 11.8267 8 11.8267C7.44772 11.8267 7 11.3789 7 10.8267C7 10.2744 7.44772 9.82666 8 9.82666C8.55228 9.82666 9 10.2744 9 10.8267Z" fill="#176CF7"/>
<path d="M13 10.8267C13 11.3789 12.5523 11.8267 12 11.8267C11.4477 11.8267 11 11.3789 11 10.8267C11 10.2744 11.4477 9.82666 12 9.82666C12.5523 9.82666 13 10.2744 13 10.8267Z" fill="#176CF7"/>
<path d="M17 10.8267C17 11.3789 16.5523 11.8267 16 11.8267C15.4477 11.8267 15 11.3789 15 10.8267C15 10.2744 15.4477 9.82666 16 9.82666C16.5523 9.82666 17 10.2744 17 10.8267Z" fill="#176CF7"/>
</svg>
