<svg width="22" height="16" viewBox="0 0 22 16" fill="none" xmlns="http://www.w3.org/2000/svg">
<path d="M15.2362 1.33885C13.4428 1.38819 12.0528 1.87485 10.6995 2.34552C9.25216 2.84819 7.88616 3.32219 5.9935 3.34152C4.72883 3.36152 3.46216 3.14285 2.2175 2.71219L1.3335 2.40685V13.7949L1.7775 13.9529C2.93683 14.3629 4.12216 14.5995 5.30216 14.6555C5.4895 14.6642 5.67283 14.6689 5.85283 14.6689C7.8615 14.6689 9.3995 14.1355 10.8908 13.6209C12.4628 13.0769 13.9455 12.5629 15.9688 12.6582C17.0413 12.7133 18.0999 12.9253 19.1108 13.2875L20.0002 13.6022V2.20952L19.5615 2.04952C18.4271 1.63639 17.2363 1.39898 16.0302 1.34552C15.7657 1.33378 15.5008 1.33155 15.2362 1.33885ZM15.2722 2.66285C15.4988 2.65619 15.7308 2.65619 15.9715 2.66552C16.2208 2.67619 16.4702 2.69885 16.7188 2.72819C16.8203 3.14649 17.0799 3.50918 17.4432 3.74005C17.8064 3.97091 18.245 4.05197 18.6668 3.96619V10.0342C18.4484 9.98974 18.2233 9.98963 18.0049 10.0339C17.7865 10.0781 17.5792 10.1658 17.3953 10.2917C17.2114 10.4177 17.0547 10.5793 16.9345 10.7669C16.8143 10.9546 16.733 11.1645 16.6955 11.3842C16.4747 11.3615 16.2533 11.345 16.0315 11.3349C13.7548 11.2349 12.0762 11.8075 10.4535 12.3702C8.8795 12.9155 7.38816 13.4309 5.36616 13.3349C5.11433 13.3217 4.86306 13.2994 4.61283 13.2682C4.51053 12.851 4.25084 12.4896 3.88812 12.2596C3.5254 12.0296 3.08777 11.9488 2.66683 12.0342V5.96619C2.88653 6.0109 3.113 6.01069 3.33262 5.96559C3.55224 5.92049 3.76046 5.83142 3.94475 5.70374C4.12905 5.57606 4.2856 5.41241 4.405 5.22264C4.52439 5.03288 4.60416 4.82092 4.6395 4.59952C5.09616 4.64685 5.55283 4.67419 6.00816 4.66685C8.11816 4.64552 9.65216 4.11152 11.1368 3.59552C12.4442 3.14019 13.6902 2.71219 15.2722 2.66285ZM10.6668 4.66685C9.19616 4.66685 8.00016 6.16219 8.00016 8.00019C8.00016 9.83819 9.19616 11.3335 10.6668 11.3335C12.1375 11.3335 13.3335 9.83819 13.3335 8.00019C13.3335 6.16219 12.1375 4.66685 10.6668 4.66685ZM10.6668 6.00019C11.3895 6.00019 12.0002 6.91619 12.0002 8.00019C12.0002 9.08419 11.3895 10.0002 10.6668 10.0002C9.94416 10.0002 9.3335 9.08419 9.3335 8.00019C9.3335 6.91619 9.94416 6.00019 10.6668 6.00019ZM15.6668 6.00019C15.4016 6.00019 15.1473 6.10554 14.9597 6.29308C14.7722 6.48062 14.6668 6.73497 14.6668 7.00019C14.6668 7.2654 14.7722 7.51976 14.9597 7.70729C15.1473 7.89483 15.4016 8.00019 15.6668 8.00019C15.932 8.00019 16.1864 7.89483 16.3739 7.70729C16.5615 7.51976 16.6668 7.2654 16.6668 7.00019C16.6668 6.73497 16.5615 6.48062 16.3739 6.29308C16.1864 6.10554 15.932 6.00019 15.6668 6.00019ZM5.66683 8.00019C5.40161 8.00019 5.14726 8.10554 4.95972 8.29308C4.77219 8.48062 4.66683 8.73497 4.66683 9.00019C4.66683 9.2654 4.77219 9.51976 4.95972 9.70729C5.14726 9.89483 5.40161 10.0002 5.66683 10.0002C5.93205 10.0002 6.1864 9.89483 6.37394 9.70729C6.56147 9.51976 6.66683 9.2654 6.66683 9.00019C6.66683 8.73497 6.56147 8.48062 6.37394 8.29308C6.1864 8.10554 5.93205 8.00019 5.66683 8.00019Z" fill="#176CF7"/>
</svg>
