<svg width="21" height="20" viewBox="0 0 21 20" fill="none" xmlns="http://www.w3.org/2000/svg">
<path fill-rule="evenodd" clip-rule="evenodd" d="M7.0695 10.5221C6.93373 10.3863 6.84958 10.1989 6.85029 9.99173C6.85029 9.57737 7.18546 9.2422 7.59983 9.2422H14.3767C14.7911 9.2422 15.1263 9.57737 15.1263 9.99173C15.1263 10.4061 14.7911 10.7413 14.3767 10.7413H7.59983C7.39264 10.742 7.20526 10.6578 7.0695 10.5221" fill="#F71717"/>
<path fill-rule="evenodd" clip-rule="evenodd" d="M6.65133 1.5C4.12133 1.5 2.48633 3.233 2.48633 5.916V14.084C2.48633 16.767 4.12133 18.5 6.65133 18.5H15.3193C17.8503 18.5 19.4863 16.767 19.4863 14.084V5.916C19.4863 3.233 17.8503 1.5 15.3203 1.5H6.65133ZM15.3193 20H6.65133C3.26233 20 0.986328 17.622 0.986328 14.084V5.916C0.986328 2.378 3.26233 0 6.65133 0H15.3203C18.7093 0 20.9863 2.378 20.9863 5.916V14.084C20.9863 17.622 18.7093 20 15.3193 20V20Z" fill="#F71717"/>
</svg>
