<svg width="116" height="128" viewBox="0 0 116 128" fill="none" xmlns="http://www.w3.org/2000/svg">
<defs>
<clipPath id="clip0_5693_26369">
<rect width="116" height="128" fill="white"/>
</clipPath>
</defs>
<g clip-path="url(#clip0_5693_26369)">
<path d="M115.905 15.9109C116.585 11.7295 113.737 7.7897 109.543 7.1111C105.349 6.43249 101.397 9.27203 100.716 13.4534C100.035 17.6348 102.884 21.5745 107.078 22.2531C111.272 22.9318 115.224 20.0922 115.905 15.9109Z" fill="#FFC217"/>
<path d="M94.2848 3.66669C94.5653 1.94391 93.3918 0.32066 91.6637 0.0410638C89.9356 -0.238533 88.3074 0.931401 88.0269 2.65418C87.7465 4.37697 88.92 6.00022 90.6481 6.27981C92.3761 6.55941 94.0044 5.38948 94.2848 3.66669Z" fill="#FFC217"/>
<path opacity="0.1" d="M56.3865 128.004C86.1658 128.004 110.307 103.937 110.307 74.2492C110.307 44.5611 86.1658 20.4941 56.3865 20.4941C26.6073 20.4941 2.46643 44.5611 2.46643 74.2492C2.46643 103.937 26.6073 128.004 56.3865 128.004Z" fill="#2626BC"/>
<path d="M93.8161 93.8016C114.716 72.9652 114.716 39.1827 93.8161 18.3464C72.9157 -2.49003 39.0295 -2.49003 18.1291 18.3464C-2.77125 39.1827 -2.77125 72.9652 18.1291 93.8016C39.0295 114.638 72.9157 114.638 93.8161 93.8016Z" fill="#FFC217"/>
<path d="M28.9255 54.3383C28.9255 50.7092 31.9154 47.076 36.4677 47.076C41.02 47.076 43.879 50.7051 43.879 54.3383V61.6616C43.879 68.0145 49.0816 73.5886 55.9735 73.5886C62.8653 73.5886 68.068 68.0145 68.068 61.6616V54.3383C68.068 50.7092 71.0578 47.076 75.6102 47.076C80.1625 47.076 83.0215 50.7051 83.0215 54.3383V61.6616C83.0215 75.1422 71.9699 87.9785 55.9735 87.9785C39.977 87.9785 28.9255 75.1422 28.9255 61.6616V54.3383Z" fill="#176CF7"/>
<path d="M36.4554 43.712C40.6141 43.712 43.9853 40.351 43.9853 36.2051C43.9853 32.0592 40.6141 28.6982 36.4554 28.6982C32.2967 28.6982 28.9255 32.0592 28.9255 36.2051C28.9255 40.351 32.2967 43.712 36.4554 43.712Z" fill="#176CF7"/>
<path d="M75.4873 43.712C79.646 43.712 83.0172 40.351 83.0172 36.2051C83.0172 32.0592 79.646 28.6982 75.4873 28.6982C71.3287 28.6982 67.9574 32.0592 67.9574 36.2051C67.9574 40.351 71.3287 43.712 75.4873 43.712Z" fill="#176CF7"/>
<path d="M28.9255 54.3383C28.9255 50.7092 31.9154 47.076 36.4677 47.076C41.02 47.076 43.879 50.7051 43.879 54.3383V61.6616C43.879 68.0145 49.0816 73.5886 55.9735 73.5886C62.8653 73.5886 68.068 68.0145 68.068 61.6616V54.3383C68.068 50.7092 71.0578 47.076 75.6102 47.076C80.1625 47.076 83.0215 50.7051 83.0215 54.3383V61.6616C83.0215 75.1422 71.9699 87.9785 55.9735 87.9785C39.977 87.9785 28.9255 75.1422 28.9255 61.6616V54.3383Z" fill="#307CFE"/>
<path d="M36.4554 43.712C40.6141 43.712 43.9853 40.351 43.9853 36.2051C43.9853 32.0592 40.6141 28.6982 36.4554 28.6982C32.2967 28.6982 28.9255 32.0592 28.9255 36.2051C28.9255 40.351 32.2967 43.712 36.4554 43.712Z" fill="#307CFE"/>
<path d="M75.4873 43.712C79.646 43.712 83.0172 40.351 83.0172 36.2051C83.0172 32.0592 79.646 28.6982 75.4873 28.6982C71.3287 28.6982 67.9574 32.0592 67.9574 36.2051C67.9574 40.351 71.3287 43.712 75.4873 43.712Z" fill="#307CFE"/>
<path d="M55.9733 111.873C25.1093 111.873 0 86.8448 0 56.0752C0 25.3056 25.1093 0.273193 55.9733 0.273193C86.8374 0.273193 111.947 25.3056 111.947 56.0752C111.943 86.8448 86.8333 111.873 55.9733 111.873ZM55.9733 5.16632C27.8169 5.16632 4.90815 28.005 4.90815 56.0752C4.90815 84.1454 27.8169 106.984 55.9733 106.984C84.1298 106.984 107.039 84.1454 107.039 56.0752C107.034 28.005 84.1298 5.16632 55.9733 5.16632Z" fill="white"/>
<path d="M21.6479 113.264C22.3286 109.083 19.4804 105.143 15.2861 104.464C11.0919 103.786 7.14006 106.625 6.45937 110.806C5.77868 114.988 8.62694 118.928 12.8211 119.606C17.0153 120.285 20.9672 117.445 21.6479 113.264Z" fill="#FFC217"/>
<path d="M34.6858 115.372C34.9662 113.649 33.7927 112.026 32.0646 111.746C30.3365 111.467 28.7083 112.636 28.4279 114.359C28.1474 116.082 29.3209 117.705 31.049 117.985C32.7771 118.264 34.4053 117.095 34.6858 115.372Z" fill="#FFC217"/>
</g>
</svg>
