<svg width="100" height="18" viewBox="0 0 100 18" fill="none" xmlns="http://www.w3.org/2000/svg">
<path d="M1.26241 4.58349C1.47056 4.58079 1.67592 4.63174 1.85891 4.73146C2.0419 4.83118 2.19641 4.97636 2.3077 5.15314C3.18865 4.67001 4.202 4.48769 5.19504 4.63365C6.18808 4.77962 7.10701 5.24595 7.81336 5.96239C8.43585 5.31907 9.23337 4.87459 10.1061 4.6846C10.9787 4.49461 11.8878 4.56756 12.7194 4.89432C13.5511 5.22107 14.2683 5.78711 14.7813 6.52155C15.2943 7.25599 15.5803 8.12619 15.6034 9.0232V13.1785C15.5932 13.5056 15.4548 13.8155 15.2185 14.0407C14.9821 14.2659 14.6669 14.3882 14.3412 14.3811C14.1812 14.3843 14.022 14.3557 13.873 14.2969C13.7239 14.2381 13.5879 14.1503 13.4727 14.0386C13.3575 13.9269 13.2654 13.7934 13.2017 13.6458C13.1379 13.4981 13.1039 13.3393 13.1013 13.1785V9.02397C13.1013 8.48463 12.8881 7.96738 12.5086 7.58601C12.1291 7.20464 11.6144 6.99039 11.0777 6.99039C10.541 6.99039 10.0262 7.20464 9.64674 7.58601C9.26723 7.96738 9.05402 8.48463 9.05402 9.02397V13.1785C9.05152 13.3393 9.01743 13.4981 8.9537 13.6458C8.88997 13.7934 8.79786 13.9269 8.68266 14.0386C8.56746 14.1503 8.43144 14.2381 8.28239 14.2969C8.13334 14.3557 7.97421 14.3843 7.81413 14.3811C7.48823 14.3886 7.17258 14.2665 6.9359 14.0412C6.69921 13.816 6.56066 13.5059 6.5504 13.1785V9.02397C6.5504 8.48463 6.33719 7.96738 5.95768 7.58601C5.57817 7.20464 5.06344 6.99039 4.52673 6.99039C3.99002 6.99039 3.4753 7.20464 3.09578 7.58601C2.71627 7.96738 2.50307 8.48463 2.50307 9.02397V13.1785C2.50057 13.3393 2.46647 13.4981 2.40275 13.6458C2.33902 13.7934 2.24691 13.9269 2.13171 14.0386C2.01651 14.1503 1.88048 14.2381 1.73144 14.2969C1.58239 14.3557 1.42326 14.3843 1.26318 14.3811C0.937413 14.3884 0.621959 14.2662 0.385441 14.0409C0.148922 13.8157 0.0104739 13.5057 0.000213623 13.1785V5.78771C0.0100767 5.4603 0.148245 5.15005 0.38464 4.92451C0.621035 4.69898 0.936517 4.57641 1.26241 4.58349Z" fill="white"/>
<path d="M35.3382 9.48295C35.3463 8.83094 35.4821 8.18691 35.7381 7.58772C35.9941 6.98853 36.3651 6.44595 36.83 5.99101C37.2948 5.53607 37.8444 5.17771 38.4473 4.93643C39.0501 4.69516 39.6943 4.5757 40.3432 4.58489C41.2555 4.58505 42.1506 4.83431 42.9329 5.30604C43.0305 5.083 43.1929 4.89479 43.3988 4.76611C43.6047 4.63742 43.8445 4.57426 44.0867 4.58489C44.2468 4.58162 44.406 4.61017 44.5552 4.6689C44.7043 4.72764 44.8404 4.8154 44.9557 4.92716C45.071 5.03891 45.1632 5.17245 45.2269 5.32011C45.2907 5.46776 45.3248 5.62663 45.3273 5.78757V13.1783C45.3248 13.3393 45.2907 13.4981 45.2269 13.6458C45.1632 13.7935 45.071 13.927 44.9557 14.0387C44.8404 14.1505 44.7043 14.2383 44.5552 14.297C44.406 14.3557 44.2468 14.3843 44.0867 14.381C43.8445 14.3916 43.6047 14.3285 43.3988 14.1998C43.1929 14.0711 43.0305 13.8829 42.9329 13.6599C42.1507 14.1317 41.2555 14.3809 40.3432 14.381C39.6943 14.3902 39.0501 14.2707 38.4473 14.0295C37.8444 13.7882 37.2948 13.4298 36.83 12.9749C36.3651 12.52 35.9941 11.9774 35.7381 11.3782C35.4821 10.779 35.3463 10.135 35.3382 9.48295ZM37.8403 9.48295C37.8342 9.9791 37.9749 10.4659 38.2446 10.8815C38.5143 11.2972 38.9007 11.623 39.3549 11.8175C39.8091 12.0121 40.3106 12.0667 40.7958 11.9744C41.2809 11.8821 41.7279 11.6471 42.0798 11.2991C42.4318 10.9512 42.673 10.506 42.7729 10.02C42.8727 9.5341 42.8266 9.02932 42.6404 8.56975C42.4543 8.11017 42.1365 7.71653 41.7273 7.43875C41.3182 7.16098 40.8362 7.0116 40.3424 7.00958C40.0164 7.00662 39.6931 7.06828 39.3908 7.19103C39.0886 7.31378 38.8134 7.4952 38.581 7.72493C38.3486 7.95466 38.1636 8.22817 38.0365 8.52983C37.9094 8.83149 37.8427 9.15538 37.8403 9.48295Z" fill="white"/>
<path d="M47.0246 9.94184V3.00943C47.0349 2.68229 47.1732 2.37243 47.4096 2.14723C47.6459 1.92202 47.9612 1.79966 48.2868 1.80675C48.447 1.80347 48.6062 1.83202 48.7553 1.89076C48.9045 1.94949 49.0406 2.03726 49.1559 2.14901C49.2711 2.26077 49.3633 2.39431 49.4271 2.54196C49.4909 2.68962 49.525 2.84848 49.5275 3.00943V4.56302H51.0943C51.2565 4.5572 51.4182 4.58428 51.5698 4.64264C51.7213 4.70101 51.8596 4.78946 51.9764 4.90272C52.0932 5.01597 52.1861 5.15172 52.2496 5.30185C52.313 5.45198 52.3457 5.61341 52.3457 5.77652C52.3457 5.93963 52.313 6.10106 52.2496 6.25119C52.1861 6.40132 52.0932 6.53706 51.9764 6.65032C51.8596 6.76358 51.7213 6.85203 51.5698 6.91039C51.4182 6.96876 51.2565 6.99584 51.0943 6.99002H49.5275V9.94261C49.5315 10.4785 49.7468 10.9909 50.1261 11.3676C50.5054 11.7443 51.0179 11.9545 51.5512 11.9522H52.4864C52.6502 11.9439 52.8138 11.9692 52.9675 12.0264C53.1213 12.0836 53.2618 12.1717 53.3806 12.2852C53.4994 12.3987 53.5939 12.5353 53.6586 12.6866C53.7232 12.838 53.7565 13.001 53.7565 13.1657C53.7565 13.3305 53.7232 13.4935 53.6586 13.6448C53.5939 13.7962 53.4994 13.9328 53.3806 14.0463C53.2618 14.1598 53.1213 14.2478 52.9675 14.3051C52.8138 14.3623 52.6502 14.3875 52.4864 14.3792H51.5512C50.9639 14.3865 50.381 14.2774 49.8357 14.0582C49.2905 13.8391 48.7935 13.5141 48.3732 13.1019C47.9529 12.6897 47.6176 12.1983 47.3863 11.6558C47.1551 11.1133 47.0324 10.5304 47.0254 9.94029" fill="white"/>
<path d="M54.5519 13.1568V9.02314C54.5651 7.82907 55.0489 6.68898 55.8973 5.85282C56.7457 5.01666 57.8894 4.55266 59.0777 4.56256C59.6891 4.56034 60.2948 4.68105 60.8591 4.91759C61.4234 5.15414 61.9349 5.50173 62.3635 5.93992C62.9874 5.29541 63.7869 4.85059 64.6616 4.66139C65.5363 4.47218 66.4471 4.54702 67.2796 4.87651C68.112 5.20599 68.829 5.77542 69.3404 6.51321C69.8518 7.251 70.1347 8.12423 70.1536 9.02314V13.156C70.1508 13.3197 70.1159 13.4812 70.0509 13.6314C69.986 13.7815 69.8922 13.9173 69.775 14.031C69.6578 14.1447 69.5194 14.2341 69.3678 14.294C69.2162 14.354 69.0543 14.3833 68.8914 14.3803C68.7296 14.383 68.5689 14.3533 68.4187 14.293C68.2684 14.2327 68.1316 14.143 68.0161 14.029C67.9007 13.9151 67.8089 13.7793 67.7462 13.6294C67.6835 13.4795 67.651 13.3186 67.6507 13.156V9.02314C67.6507 8.4838 67.4375 7.96655 67.058 7.58518C66.6785 7.20381 66.1638 6.98956 65.6271 6.98956C65.0904 6.98956 64.5756 7.20381 64.1961 7.58518C63.8166 7.96655 63.6034 8.4838 63.6034 9.02314V13.156C63.6031 13.3186 63.5707 13.4795 63.5079 13.6294C63.4452 13.7793 63.3535 13.9151 63.238 14.029C63.1226 14.143 62.9858 14.2327 62.8355 14.293C62.6852 14.3533 62.5245 14.383 62.3628 14.3803C62.1999 14.3833 62.038 14.354 61.8864 14.294C61.7348 14.2341 61.5964 14.1447 61.4792 14.031C61.3619 13.9173 61.2682 13.7815 61.2032 13.6314C61.1382 13.4812 61.1034 13.3197 61.1006 13.156V9.02314C61.1006 8.4838 60.8874 7.96655 60.5078 7.58518C60.1283 7.20381 59.6136 6.98956 59.0769 6.98956C58.5402 6.98956 58.0255 7.20381 57.646 7.58518C57.2664 7.96655 57.0532 8.4838 57.0532 9.02314V13.156C57.053 13.3186 57.0205 13.4795 56.9578 13.6294C56.895 13.7793 56.8033 13.9151 56.6878 14.029C56.5724 14.143 56.4356 14.2327 56.2853 14.293C56.1351 14.3533 55.9744 14.383 55.8126 14.3803C55.6497 14.3833 55.4878 14.354 55.3362 14.294C55.1846 14.2341 55.0462 14.1447 54.929 14.031C54.8118 13.9173 54.718 13.7815 54.653 13.6314C54.5881 13.4812 54.5532 13.3197 54.5504 13.156" fill="white"/>
<path d="M71.615 5.78703C71.6178 5.62333 71.6527 5.46179 71.7176 5.31165C71.7826 5.16151 71.8764 5.02571 71.9936 4.912C72.1108 4.7983 72.2492 4.70892 72.4008 4.64899C72.5524 4.58906 72.7143 4.55974 72.8772 4.5627C73.039 4.56004 73.1997 4.58972 73.3499 4.65003C73.5002 4.71033 73.637 4.80006 73.7525 4.91398C73.8679 5.02791 73.9597 5.16376 74.0224 5.31364C74.0851 5.46352 74.1176 5.62443 74.1178 5.78703V9.94153C74.1178 10.4809 74.331 10.9981 74.7106 11.3795C75.0901 11.7609 75.6048 11.9751 76.1415 11.9751C76.6782 11.9751 77.1929 11.7609 77.5725 11.3795C77.952 10.9981 78.1652 10.4809 78.1652 9.94153V5.78703C78.168 5.62333 78.2029 5.46179 78.2678 5.31165C78.3328 5.16151 78.4265 5.02571 78.5438 4.912C78.661 4.7983 78.7994 4.70892 78.951 4.64899C79.1026 4.58906 79.2645 4.55974 79.4274 4.5627C79.5891 4.56004 79.7498 4.58972 79.9001 4.65003C80.0504 4.71033 80.1872 4.80006 80.3026 4.91398C80.4181 5.02791 80.5098 5.16376 80.5726 5.31364C80.6353 5.46352 80.6677 5.62443 80.668 5.78703V9.94153C80.6413 11.13 80.1527 12.2608 79.3068 13.0919C78.4609 13.923 77.3249 14.3883 76.1419 14.3883C74.9589 14.3883 73.8229 13.923 72.977 13.0919C72.1311 12.2608 71.6425 11.13 71.6158 9.94153L71.615 5.78703Z" fill="white"/>
<path d="M81.8201 9.48306C81.8482 8.17082 82.3866 6.92183 83.3201 6.00375C84.2535 5.08566 85.5077 4.57153 86.8139 4.57153C88.12 4.57153 89.3742 5.08566 90.3077 6.00375C91.2411 6.92183 91.7796 8.17082 91.8077 9.48306V13.1568C91.8074 13.3194 91.7749 13.4803 91.7122 13.6302C91.6495 13.7801 91.5577 13.9159 91.4423 14.0298C91.3268 14.1438 91.19 14.2335 91.0397 14.2938C90.8895 14.3541 90.7288 14.3838 90.567 14.3811C90.3255 14.3871 90.0876 14.322 89.8826 14.1937C89.6776 14.0654 89.5144 13.8796 89.4132 13.6592C88.6299 14.1286 87.7355 14.3779 86.8235 14.3811C85.5142 14.396 84.2523 13.8889 83.3143 12.9709C82.3762 12.0529 81.8384 10.7987 81.8185 9.48306H81.8201ZM86.8235 11.9564C87.3109 11.95 87.7855 11.7988 88.1876 11.5219C88.5896 11.2449 88.9012 10.8546 89.0829 10.4001C89.2646 9.94555 89.3084 9.44715 89.2088 8.96765C89.1092 8.48814 88.8707 8.04898 88.5232 7.70547C88.1757 7.36195 87.7348 7.12946 87.256 7.03726C86.7773 6.94506 86.2821 6.99728 85.8329 7.18734C85.3836 7.37741 85.0004 7.69681 84.7314 8.10534C84.4624 8.51386 84.3198 8.99323 84.3214 9.48306C84.3287 10.1439 84.596 10.7749 85.0648 11.2384C85.5336 11.7018 86.1659 11.96 86.8235 11.9564Z" fill="white"/>
<path d="M93.2673 9.94184V3.00943C93.2776 2.68229 93.4159 2.37243 93.6523 2.14723C93.8886 1.92202 94.2039 1.79966 94.5295 1.80675C94.6897 1.80347 94.8489 1.83202 94.998 1.89076C95.1472 1.94949 95.2833 2.03726 95.3986 2.14901C95.5138 2.26077 95.606 2.39431 95.6698 2.54196C95.7336 2.68962 95.7677 2.84848 95.7702 3.00943V4.56302H97.337C97.4992 4.5572 97.6609 4.58428 97.8125 4.64264C97.964 4.70101 98.1023 4.78946 98.2191 4.90272C98.3359 5.01597 98.4288 5.15172 98.4923 5.30185C98.5557 5.45198 98.5884 5.61341 98.5884 5.77652C98.5884 5.93963 98.5557 6.10106 98.4923 6.25119C98.4288 6.40132 98.3359 6.53706 98.2191 6.65032C98.1023 6.76358 97.964 6.85203 97.8125 6.91039C97.6609 6.96876 97.4992 6.99584 97.337 6.99002H95.7702V9.94261C95.7743 10.4785 95.9895 10.9909 96.3688 11.3676C96.7482 11.7443 97.2606 11.9545 97.7939 11.9522H98.7299C98.8936 11.9439 99.0573 11.9692 99.211 12.0264C99.3647 12.0836 99.5053 12.1717 99.624 12.2852C99.7428 12.3987 99.8374 12.5353 99.9021 12.6866C99.9667 12.838 100 13.001 100 13.1657C100 13.3305 99.9667 13.4935 99.9021 13.6448C99.8374 13.7962 99.7428 13.9328 99.624 14.0463C99.5053 14.1598 99.3647 14.2478 99.211 14.3051C99.0573 14.3623 98.8936 14.3875 98.7299 14.3792H97.7939C97.2066 14.3865 96.6237 14.2774 96.0784 14.0582C95.5332 13.8391 95.0362 13.5141 94.6159 13.1019C94.1957 12.6897 93.8603 12.1983 93.629 11.6558C93.3978 11.1133 93.2751 10.5304 93.2681 9.94029" fill="white"/>
<path d="M50.834 4.58533H44.02V6.976H50.834V4.58533Z" fill="white"/>
<path d="M20.9416 8.70646C20.9444 8.54276 20.9793 8.38123 21.0442 8.23109C21.1092 8.08094 21.203 7.94514 21.3202 7.83143C21.4374 7.71773 21.5758 7.62836 21.7274 7.56842C21.879 7.50849 22.0409 7.47917 22.2038 7.48214C22.3656 7.47947 22.5263 7.50916 22.6765 7.56946C22.8268 7.62977 22.9636 7.71949 23.0791 7.83342C23.1945 7.94734 23.2863 8.08319 23.349 8.23307C23.4117 8.38295 23.4442 8.54387 23.4444 8.70646V9.94315C23.4444 10.4825 23.6576 10.9997 24.0372 11.3811C24.4167 11.7625 24.9314 11.9767 25.4681 11.9767C26.0048 11.9767 26.5195 11.7625 26.8991 11.3811C27.2786 10.9997 27.4918 10.4825 27.4918 9.94315V8.70646C27.4946 8.54276 27.5295 8.38123 27.5944 8.23109C27.6594 8.08094 27.7532 7.94514 27.8704 7.83143C27.9876 7.71773 28.126 7.62836 28.2776 7.56842C28.4292 7.50849 28.5911 7.47917 28.754 7.48214C28.9157 7.47958 29.0763 7.50934 29.2265 7.56969C29.3766 7.63004 29.5134 7.71978 29.6287 7.8337C29.7441 7.94761 29.8358 8.08343 29.8985 8.23325C29.9611 8.38308 29.9936 8.54393 29.9939 8.70646V9.94315C29.9671 11.1317 29.4786 12.2624 28.6327 13.0935C27.7868 13.9246 26.6507 14.3899 25.4677 14.3899C24.2847 14.3899 23.1487 13.9246 22.3028 13.0935C21.4569 12.2624 20.9683 11.1317 20.9416 9.94315V8.70646Z" fill="#176CF7"/>
<path d="M23.4647 5.64849C23.4647 5.89904 23.3908 6.14397 23.2523 6.3523C23.1138 6.56063 22.9169 6.723 22.6865 6.81889C22.4562 6.91477 22.2027 6.93986 21.9581 6.89098C21.7136 6.8421 21.489 6.72144 21.3127 6.54427C21.1364 6.3671 21.0163 6.14137 20.9676 5.89563C20.919 5.64989 20.944 5.39517 21.0394 5.16369C21.1348 4.93221 21.2964 4.73435 21.5037 4.59515C21.711 4.45595 21.9547 4.38165 22.2041 4.38165C22.5384 4.38165 22.8591 4.51512 23.0955 4.7527C23.3319 4.99028 23.4647 5.3125 23.4647 5.64849Z" fill="#176CF7"/>
<path d="M29.9963 5.64849C29.9963 5.89904 29.9224 6.14397 29.7839 6.3523C29.6454 6.56063 29.4485 6.723 29.2181 6.81889C28.9878 6.91477 28.7343 6.93986 28.4898 6.89098C28.2452 6.8421 28.0206 6.72144 27.8443 6.54427C27.668 6.3671 27.5479 6.14137 27.4993 5.89563C27.4506 5.64989 27.4756 5.39517 27.571 5.16369C27.6664 4.93221 27.828 4.73435 28.0353 4.59515C28.2426 4.45595 28.4864 4.38165 28.7357 4.38165C29.07 4.38165 29.3907 4.51512 29.6271 4.7527C29.8635 4.99028 29.9963 5.3125 29.9963 5.64849Z" fill="#176CF7"/>
<path d="M34.4253 9C34.4253 10.7801 33.9001 12.5202 32.9159 14.0002C31.9318 15.4803 30.533 16.6338 28.8964 17.315C27.2598 17.9962 25.459 18.1743 23.7217 17.827C21.9843 17.4797 20.3885 16.6224 19.136 15.3637C17.8835 14.1049 17.0306 12.5012 16.6851 10.7553C16.3396 9.00946 16.5171 7.19983 17.1951 5.55531C17.873 3.91079 19.0211 2.50524 20.494 1.5164C21.967 0.527558 23.6986 -0.000152841 25.47 3.32054e-08C26.6461 3.32054e-08 27.8107 0.232792 28.8974 0.685084C29.984 1.13738 30.9713 1.80031 31.8029 2.63604C32.6346 3.47177 33.2943 4.46392 33.7444 5.55585C34.1945 6.64778 34.4261 7.8181 34.4261 9" fill="#FFC217"/>
<path d="M20.9418 8.70646C20.9446 8.54276 20.9795 8.38123 21.0444 8.23109C21.1094 8.08094 21.2032 7.94514 21.3204 7.83143C21.4376 7.71773 21.576 7.62836 21.7276 7.56842C21.8792 7.50849 22.0411 7.47917 22.204 7.48214C22.3658 7.47947 22.5265 7.50916 22.6767 7.56946C22.827 7.62977 22.9638 7.71949 23.0793 7.83342C23.1947 7.94734 23.2865 8.08319 23.3492 8.23307C23.4119 8.38295 23.4444 8.54387 23.4447 8.70646V9.94315C23.4447 10.4825 23.6579 10.9997 24.0374 11.3811C24.4169 11.7625 24.9316 11.9767 25.4683 11.9767C26.005 11.9767 26.5198 11.7625 26.8993 11.3811C27.2788 10.9997 27.492 10.4825 27.492 9.94315V8.70646C27.4948 8.54276 27.5297 8.38123 27.5946 8.23109C27.6596 8.08094 27.7534 7.94514 27.8706 7.83143C27.9878 7.71773 28.1262 7.62836 28.2778 7.56842C28.4294 7.50849 28.5913 7.47917 28.7542 7.48214C28.9159 7.47958 29.0765 7.50934 29.2267 7.56969C29.3769 7.63004 29.5136 7.71978 29.629 7.8337C29.7443 7.94761 29.836 8.08343 29.8987 8.23325C29.9614 8.38308 29.9938 8.54393 29.9941 8.70646V9.94315C29.9674 11.1317 29.4788 12.2624 28.6329 13.0935C27.787 13.9246 26.6509 14.3899 25.4679 14.3899C24.2849 14.3899 23.1489 13.9246 22.303 13.0935C21.4571 12.2624 20.9685 11.1317 20.9418 9.94315V8.70646Z" fill="#176CF7"/>
<path d="M23.4649 5.64849C23.4649 5.89904 23.391 6.14397 23.2525 6.3523C23.114 6.56063 22.9171 6.723 22.6867 6.81889C22.4564 6.91477 22.2029 6.93986 21.9583 6.89098C21.7138 6.8421 21.4892 6.72144 21.3129 6.54427C21.1366 6.3671 21.0165 6.14137 20.9679 5.89563C20.9192 5.64989 20.9442 5.39517 21.0396 5.16369C21.135 4.93221 21.2966 4.73435 21.5039 4.59515C21.7112 4.45595 21.955 4.38165 22.2043 4.38165C22.5386 4.38165 22.8593 4.51512 23.0957 4.7527C23.3321 4.99028 23.4649 5.3125 23.4649 5.64849Z" fill="#176CF7"/>
<path d="M29.9962 5.64849C29.9962 5.89904 29.9223 6.14397 29.7837 6.3523C29.6452 6.56063 29.4483 6.723 29.218 6.81889C28.9876 6.91477 28.7342 6.93986 28.4896 6.89098C28.2451 6.8421 28.0204 6.72144 27.8441 6.54427C27.6678 6.3671 27.5477 6.14137 27.4991 5.89563C27.4505 5.64989 27.4754 5.39517 27.5709 5.16369C27.6663 4.93221 27.8278 4.73435 28.0352 4.59515C28.2425 4.45595 28.4862 4.38165 28.7355 4.38165C29.0699 4.38165 29.3905 4.51512 29.627 4.7527C29.8634 4.99028 29.9962 5.3125 29.9962 5.64849Z" fill="#176CF7"/>
</svg>
