<svg width="214" height="171" viewBox="0 0 214 171" fill="none" xmlns="http://www.w3.org/2000/svg">
<path d="M53.722 39.9585C59.3617 39.9585 63.9336 35.3866 63.9336 29.7469C63.9336 24.1072 59.3617 19.5353 53.722 19.5353C48.0823 19.5353 43.5104 24.1072 43.5104 29.7469C43.5104 35.3866 48.0823 39.9585 53.722 39.9585Z" fill="white"/>
<path d="M202.012 77.2531C207.652 77.2531 212.224 72.6812 212.224 67.0415C212.224 61.4017 207.652 56.8298 202.012 56.8298C196.373 56.8298 191.801 61.4017 191.801 67.0415C191.801 72.6812 196.373 77.2531 202.012 77.2531Z" fill="white"/>
<path d="M77.2531 26.639C84.6093 26.639 90.5726 20.6757 90.5726 13.3195C90.5726 5.96334 84.6093 0 77.2531 0C69.8969 0 63.9336 5.96334 63.9336 13.3195C63.9336 20.6757 69.8969 26.639 77.2531 26.639Z" fill="white"/>
<path d="M207.784 103.004C211.217 103.004 214 100.221 214 96.7884C214 93.3555 211.217 90.5726 207.784 90.5726C204.351 90.5726 201.568 93.3555 201.568 96.7884C201.568 100.221 204.351 103.004 207.784 103.004Z" fill="#FFC217"/>
<path d="M13.3195 150.066C20.6757 150.066 26.639 144.103 26.639 136.747C26.639 129.391 20.6757 123.427 13.3195 123.427C5.96334 123.427 0 129.391 0 136.747C0 144.103 5.96334 150.066 13.3195 150.066Z" fill="#FFC217"/>
<path d="M138.967 7.9917C141.174 7.9917 142.963 6.2027 142.963 3.99585C142.963 1.789 141.174 0 138.967 0C136.76 0 134.971 1.789 134.971 3.99585C134.971 6.2027 136.76 7.9917 138.967 7.9917Z" fill="white"/>
<path d="M47.5062 170.49C49.7131 170.49 51.5021 168.701 51.5021 166.494C51.5021 164.287 49.7131 162.498 47.5062 162.498C45.2994 162.498 43.5104 164.287 43.5104 166.494C43.5104 168.701 45.2994 170.49 47.5062 170.49Z" fill="#FFC217"/>
<path d="M120.32 162.498C152.932 162.498 179.369 135.862 179.369 103.004C179.369 70.1466 152.932 43.5104 120.32 43.5104C87.7072 43.5104 61.2697 70.1466 61.2697 103.004C61.2697 135.862 87.7072 162.498 120.32 162.498Z" fill="white"/>
<path d="M94.5 102.64C94.5 99.791 96.8658 96.8778 100.542 96.8778C104.184 96.8778 106.453 99.7511 106.453 102.64V109.963C106.453 117.128 112.311 123.39 120.048 123.39C127.785 123.39 133.642 117.128 133.642 109.963V102.64C133.642 99.791 136.008 96.8778 139.685 96.8778C143.327 96.8778 145.596 99.7511 145.596 102.64V109.963C145.596 122.654 135.178 134.78 120.048 134.78C104.918 134.78 94.5 122.654 94.5 109.963V102.64Z" fill="#176CF7" stroke="#176CF7" stroke-width="3"/>
<path d="M106.56 84.5069C106.56 87.82 103.864 90.5137 100.53 90.5137C97.1953 90.5137 94.5 87.82 94.5 84.5069C94.5 81.1937 97.1953 78.5 100.53 78.5C103.864 78.5 106.56 81.1937 106.56 84.5069Z" fill="#176CF7" stroke="#176CF7" stroke-width="3"/>
<path d="M145.592 84.5069C145.592 87.82 142.896 90.5137 139.562 90.5137C136.227 90.5137 133.532 87.82 133.532 84.5069C133.532 81.1937 136.227 78.5 139.562 78.5C142.896 78.5 145.592 81.1937 145.592 84.5069Z" fill="#176CF7" stroke="#176CF7" stroke-width="3"/>
</svg>
