<svg width="21" height="27" viewBox="0 0 21 27" fill="none" xmlns="http://www.w3.org/2000/svg">
<path d="M21 10.4995C21 17.6327 12.0409 26.77 10.5 26.77C8.3717 26.77 0 17.6334 0 10.4995C0 7.7149 1.1062 5.04429 3.0754 3.07524C5.0445 1.1062 7.7152 0 10.5 0C13.2848 0 15.9555 1.1062 17.9246 3.07524C19.8938 5.04429 21 7.7149 21 10.4995Z" fill="white"/>
<path d="M10.4533 25.7108C9.74828 25.5148 7.50987 23.7163 5.17037 20.5216C2.54967 16.9433 1.04688 13.2908 1.04688 10.5006C1.04977 7.9944 2.04678 5.59166 3.81898 3.81949C5.59128 2.04732 7.99408 1.05042 10.5004 1.04749C13.0068 1.05042 15.4096 2.04732 17.1818 3.81949C18.9541 5.59166 19.951 7.9944 19.954 10.5006C19.954 14.1662 17.3118 18.2493 15.7369 20.3574C13.4376 23.435 11.1563 25.4102 10.4533 25.7108Z" fill="#FFC217"/>
<mask id="mask0_2988_92866" style="mask-type:luminance" maskUnits="userSpaceOnUse" x="5" y="5" width="11" height="11">
<path d="M15.5 5.5H5.5V15.5H15.5V5.5Z" fill="white"/>
</mask>
<g mask="url(#mask0_2988_92866)">
<mask id="mask1_2988_92866" style="mask-type:luminance" maskUnits="userSpaceOnUse" x="5" y="5" width="11" height="11">
<path d="M15.5 5.5H5.5V15.5H15.5V5.5Z" fill="white"/>
</mask>
<g mask="url(#mask1_2988_92866)">
<path d="M6.3604 10.0033L7.4629 7.05847H13.4942C13.5097 7.05917 13.5246 7.06427 13.5374 7.07307C13.5502 7.08187 13.5603 7.09407 13.5666 7.10827L14.6504 10.0113C14.6547 10.0229 14.6562 10.0355 14.6546 10.0478C14.6531 10.0602 14.6485 10.072 14.6414 10.0822C14.6342 10.0923 14.6247 10.1006 14.6136 10.1062C14.6026 10.1118 14.5903 10.1147 14.5779 10.1144H12.7869L11.6456 9.35007L10.5048 10.1138L9.364 9.35007L8.2232 10.1138H6.4322C6.4189 10.1147 6.4055 10.112 6.3936 10.106C6.3816 10.1 6.3714 10.0909 6.3641 10.0797C6.3567 10.0684 6.3524 10.0555 6.3517 10.042C6.3509 10.0286 6.3543 10.0152 6.3604 10.0033Z" stroke="#176CF7" stroke-width="0.75" stroke-linecap="round" stroke-linejoin="round"/>
<path d="M7.45312 10.1063L7.46453 13.9409" stroke="#176CF7" stroke-width="0.75" stroke-linecap="round" stroke-linejoin="round"/>
<path d="M13.5469 10.1063L13.5583 13.926" stroke="#176CF7" stroke-width="0.75" stroke-linecap="round" stroke-linejoin="round"/>
<path d="M14.3081 13.926L6.70312 13.9415" stroke="#176CF7" stroke-width="0.75" stroke-linecap="round" stroke-linejoin="round"/>
<path d="M8.98438 13.9333V11.3357C8.98438 11.3155 8.99237 11.2962 9.00657 11.2819C9.02077 11.2676 9.04007 11.2595 9.06017 11.2595H11.9504C11.9705 11.2595 11.9898 11.2676 12.004 11.2819C12.0182 11.2962 12.0262 11.3155 12.0262 11.3357V13.9328" stroke="#176CF7" stroke-width="0.75" stroke-linecap="round" stroke-linejoin="round"/>
<path d="M10.5078 13.926V11.2522" stroke="#176CF7" stroke-width="0.75" stroke-linecap="round" stroke-linejoin="round"/>
</g>
</g>
</svg>
