<svg width="25" height="23" viewBox="0 0 25 23" fill="none" xmlns="http://www.w3.org/2000/svg">
<path d="M17.2615 21.3179L19.9765 18.603C20.1929 18.3914 20.3648 18.1387 20.4822 17.8598C20.5996 17.5808 20.6601 17.2812 20.6601 16.9786C20.6601 16.6759 20.5996 16.3763 20.4822 16.0974C20.3648 15.8184 20.1929 15.5657 19.9765 15.3541L18.4316 13.8092C18.2206 13.598 17.97 13.4304 17.6942 13.3161C17.4184 13.2018 17.1228 13.1429 16.8242 13.1429C16.5256 13.1429 16.23 13.2018 15.9542 13.3161C15.6784 13.4304 15.4278 13.598 15.2168 13.8092L14.1944 14.8202C11.5623 13.2429 9.35824 11.0428 7.77626 8.41342V8.41342L8.79862 7.40242C9.00986 7.19142 9.17743 6.94085 9.29177 6.66504C9.4061 6.38924 9.46495 6.0936 9.46495 5.79503C9.46495 5.49647 9.4061 5.20083 9.29177 4.92502C9.17743 4.64921 9.00986 4.39865 8.79862 4.18765L7.28779 2.66546C7.07679 2.45422 6.82623 2.28665 6.55042 2.17231C6.27461 2.05798 5.97897 1.99913 5.68041 1.99913C5.38184 1.99913 5.0862 2.05798 4.8104 2.17231C4.53459 2.28665 4.28402 2.45422 4.07302 2.66546L1.33536 5.38041C1.14929 5.56526 1.03292 5.8088 1.006 6.0697C0.979082 6.3306 1.04327 6.59277 1.18768 6.81172V6.81172C5.04287 12.6205 10.0215 17.5991 15.8302 21.4543V21.4543C16.0479 21.6001 16.3093 21.6662 16.5702 21.6414C16.831 21.6165 17.0753 21.5023 17.2615 21.3179V21.3179Z" stroke="black" stroke-width="2" stroke-linecap="round" stroke-linejoin="round"/>
<path d="M13 4.79997H11.6667C11.2982 4.79997 11 5.06833 11 5.39998C11 5.73163 11.2982 6 11.6667 6H13C14.1029 6 15 5.19259 15 4.20001C15 3.20742 14.1029 2.40001 13 2.40001C12.6321 2.40001 12.3333 2.13102 12.3333 1.79999C12.3333 1.46896 12.6321 1.19998 13 1.19998H14.3333C14.7018 1.19998 15 0.93161 15 0.599961C15 0.268368 14.7018 0 14.3333 0H13C11.8971 0 11 0.80741 11 1.79999C11 2.79258 11.8971 3.59999 13 3.59999C13.3678 3.59999 13.6667 3.86892 13.6667 4.20001C13.6666 4.53104 13.3678 4.79997 13 4.79997Z" fill="black"/>
<path d="M23 2.40001C22.6322 2.40001 22.3333 2.13108 22.3333 1.79999C22.3333 1.46891 22.6322 1.19998 23 1.19998H24.3333C24.7018 1.19998 25 0.93161 25 0.599961C25 0.268368 24.7018 0 24.3333 0H23C21.8971 0 21 0.80741 21 1.79999C21 2.79258 21.8971 3.59999 23 3.59999C23.3678 3.59999 23.6667 3.86892 23.6667 4.20001C23.6667 4.53104 23.3679 4.80002 23 4.80002H21.6667C21.2982 4.79997 21 5.06833 21 5.39998C21 5.73163 21.2982 6 21.6667 6H23C24.1029 6 25 5.19259 25 4.20001C25 3.20742 24.1029 2.40001 23 2.40001Z" fill="black"/>
<path d="M18 6C19.1029 6 20 5.19259 20 4.20001V1.79999C20 0.80741 19.1029 0 18 0C16.8971 0 16 0.80741 16 1.79999V4.20001C16 5.19259 16.8972 6 18 6ZM17.3334 1.79999C17.3334 1.46896 17.6322 1.19998 18.0001 1.19998C18.3679 1.19998 18.6667 1.46896 18.6667 1.79999V4.20001C18.6667 4.53104 18.3679 4.80002 18 4.80002C17.6322 4.80002 17.3333 4.53109 17.3333 4.20001V1.79999H17.3334Z" fill="black"/>
</svg>
