<svg width="24" height="24" viewBox="0 0 24 24" fill="none" xmlns="http://www.w3.org/2000/svg">
<g clip-path="url(#clip0_431_79448)">
<g filter="url(#filter0_dd_431_79448)">
<rect width="24" height="24" rx="12" transform="matrix(-1 0 0 1 24 0)" fill="white"/>
<rect x="-1" y="1" width="22" height="22" rx="11" transform="matrix(-1 0 0 1 22 0)" stroke="#176CF7" stroke-width="2"/>
</g>
<g clip-path="url(#clip1_431_79448)">
<rect width="8.64" height="11" transform="translate(7.68018 6)" fill="white"/>
<path d="M12.0002 17.0014C12.2864 17.0005 12.5606 16.8813 12.763 16.6699C12.9654 16.4584 13.0795 16.172 13.0803 15.873H10.92C10.9199 16.0212 10.9478 16.1679 11.0021 16.3049C11.0563 16.4418 11.1359 16.5663 11.2362 16.6711C11.3365 16.7759 11.4556 16.859 11.5867 16.9157C11.7178 16.9723 11.8583 17.0015 12.0002 17.0014V17.0014ZM15.24 13.6168V10.7937C15.2946 9.99708 15.082 9.20546 14.6386 8.55485C14.1952 7.90423 13.5487 7.43523 12.8103 7.22843V6.84631C12.8103 6.62186 12.7249 6.40659 12.573 6.24788C12.4211 6.08916 12.215 6 12.0002 6C11.7853 6 11.5793 6.08916 11.4273 6.24788C11.2754 6.40659 11.1901 6.62186 11.1901 6.84631V7.22981C10.4509 7.4349 9.80362 7.90328 9.35998 8.55402C8.91634 9.20475 8.70424 9.99695 8.76034 10.7937V13.6141L7.68018 14.7439V15.3081H16.3202V14.7439L15.24 13.6168Z" fill="#176CF7"/>
</g>
</g>
<defs>
<filter id="filter0_dd_431_79448" x="-4" y="-2" width="32" height="32" filterUnits="userSpaceOnUse" color-interpolation-filters="sRGB">
<feFlood flood-opacity="0" result="BackgroundImageFix"/>
<feColorMatrix in="SourceAlpha" type="matrix" values="0 0 0 0 0 0 0 0 0 0 0 0 0 0 0 0 0 0 127 0" result="hardAlpha"/>
<feOffset dy="2"/>
<feGaussianBlur stdDeviation="2"/>
<feColorMatrix type="matrix" values="0 0 0 0 0.172549 0 0 0 0 0.152941 0 0 0 0 0.219608 0 0 0 0.08 0"/>
<feBlend mode="normal" in2="BackgroundImageFix" result="effect1_dropShadow_431_79448"/>
<feColorMatrix in="SourceAlpha" type="matrix" values="0 0 0 0 0 0 0 0 0 0 0 0 0 0 0 0 0 0 127 0" result="hardAlpha"/>
<feOffset dy="1"/>
<feGaussianBlur stdDeviation="1"/>
<feColorMatrix type="matrix" values="0 0 0 0 0.172549 0 0 0 0 0.152941 0 0 0 0 0.219608 0 0 0 0.01 0"/>
<feBlend mode="normal" in2="effect1_dropShadow_431_79448" result="effect2_dropShadow_431_79448"/>
<feBlend mode="normal" in="SourceGraphic" in2="effect2_dropShadow_431_79448" result="shape"/>
</filter>
<clipPath id="clip0_431_79448">
<rect width="24" height="24" fill="white"/>
</clipPath>
<clipPath id="clip1_431_79448">
<rect width="8.64" height="11" fill="white" transform="translate(7.68018 6)"/>
</clipPath>
</defs>
</svg>
