<svg width="24" height="24" viewBox="0 0 24 24" fill="none" xmlns="http://www.w3.org/2000/svg">
<g clip-path="url(#clip0_251_63439)">
<g filter="url(#filter0_dd_251_63439)">
<rect width="24" height="24" rx="12" transform="matrix(-1 0 0 1 24 0)" fill="white"/>
<rect x="-0.5" y="0.5" width="23" height="23" rx="11.5" transform="matrix(-1 0 0 1 23 0)" stroke="#CECECE"/>
</g>
<g clip-path="url(#clip1_251_63439)">
<rect width="8.64" height="11" transform="translate(7.67999 6)" fill="white"/>
<path d="M12 17.0014C12.2862 17.0005 12.5604 16.8813 12.7628 16.6699C12.9652 16.4584 13.0793 16.172 13.0802 15.873H10.9198C10.9197 16.0212 10.9476 16.1679 11.0019 16.3049C11.0561 16.4418 11.1357 16.5663 11.236 16.6711C11.3363 16.7759 11.4554 16.859 11.5865 16.9157C11.7176 16.9723 11.8581 17.0015 12 17.0014V17.0014ZM15.2398 13.6168V10.7937C15.2944 9.99708 15.0818 9.20546 14.6384 8.55485C14.195 7.90423 13.5486 7.43523 12.8101 7.22843V6.84631C12.8101 6.62186 12.7248 6.40659 12.5728 6.24788C12.4209 6.08916 12.2149 6 12 6C11.7851 6 11.5791 6.08916 11.4271 6.24788C11.2752 6.40659 11.1899 6.62186 11.1899 6.84631V7.22981C10.4508 7.4349 9.80344 7.90328 9.3598 8.55402C8.91615 9.20475 8.70406 9.99695 8.76016 10.7937V13.6141L7.67999 14.7439V15.3081H16.32V14.7439L15.2398 13.6168Z" fill="#CECECE"/>
</g>
</g>
<defs>
<filter id="filter0_dd_251_63439" x="-4" y="-2" width="32" height="32" filterUnits="userSpaceOnUse" color-interpolation-filters="sRGB">
<feFlood flood-opacity="0" result="BackgroundImageFix"/>
<feColorMatrix in="SourceAlpha" type="matrix" values="0 0 0 0 0 0 0 0 0 0 0 0 0 0 0 0 0 0 127 0" result="hardAlpha"/>
<feOffset dy="2"/>
<feGaussianBlur stdDeviation="2"/>
<feColorMatrix type="matrix" values="0 0 0 0 0.172549 0 0 0 0 0.152941 0 0 0 0 0.219608 0 0 0 0.08 0"/>
<feBlend mode="normal" in2="BackgroundImageFix" result="effect1_dropShadow_251_63439"/>
<feColorMatrix in="SourceAlpha" type="matrix" values="0 0 0 0 0 0 0 0 0 0 0 0 0 0 0 0 0 0 127 0" result="hardAlpha"/>
<feOffset dy="1"/>
<feGaussianBlur stdDeviation="1"/>
<feColorMatrix type="matrix" values="0 0 0 0 0.172549 0 0 0 0 0.152941 0 0 0 0 0.219608 0 0 0 0.01 0"/>
<feBlend mode="normal" in2="effect1_dropShadow_251_63439" result="effect2_dropShadow_251_63439"/>
<feBlend mode="normal" in="SourceGraphic" in2="effect2_dropShadow_251_63439" result="shape"/>
</filter>
<clipPath id="clip0_251_63439">
<rect width="24" height="24" fill="white"/>
</clipPath>
<clipPath id="clip1_251_63439">
<rect width="8.64" height="11" fill="white" transform="translate(7.67999 6)"/>
</clipPath>
</defs>
</svg>
