<svg width="16" height="17" viewBox="0 0 16 17" fill="none" xmlns="http://www.w3.org/2000/svg">
<g clip-path="url(#clip0_256_37492)">
<path fill-rule="evenodd" clip-rule="evenodd" d="M12.0123 3.41836C12.1496 3.29568 12.3603 3.30754 12.4829 3.44484C13.1001 4.13571 13.5466 4.96184 13.7864 5.85676C14.0261 6.75167 14.0525 7.69036 13.8634 8.59728C13.8259 8.77751 13.6493 8.89313 13.4691 8.85551C13.2889 8.81789 13.1733 8.64129 13.2109 8.46105C13.3787 7.6563 13.3553 6.82336 13.1425 6.02927C12.9298 5.23517 12.5336 4.50211 11.9859 3.88908C11.8633 3.75178 11.8751 3.54103 12.0123 3.41836Z" fill="#176CF7"/>
<path fill-rule="evenodd" clip-rule="evenodd" d="M14.5248 4.08535C14.6621 3.96268 14.8728 3.97454 14.9954 4.11184C15.3439 4.50189 15.596 4.96831 15.7313 5.47356C15.8667 5.97882 15.8816 6.50878 15.7749 7.02081C15.7373 7.20105 15.5607 7.31666 15.3805 7.27905C15.2003 7.24143 15.0847 7.06483 15.1223 6.88459C15.2078 6.47473 15.1958 6.05051 15.0875 5.64607C14.9791 5.24164 14.7774 4.86829 14.4984 4.55607C14.3758 4.41877 14.3876 4.20802 14.5248 4.08535Z" fill="#176CF7"/>
<path fill-rule="evenodd" clip-rule="evenodd" d="M2.61013 8.85569C2.42995 8.89329 2.2534 8.77765 2.2158 8.59741C2.0266 7.69043 2.05288 6.7517 2.29255 5.85679C2.53222 4.96188 2.97856 4.13578 3.59568 3.44497C3.71832 3.30768 3.92901 3.29585 4.06626 3.41855C4.20352 3.54124 4.21536 3.752 4.09272 3.88928C3.54514 4.50226 3.14907 5.23529 2.93641 6.02938C2.72374 6.82347 2.70042 7.65645 2.86831 8.46126C2.90591 8.6415 2.79032 8.8181 2.61013 8.85569Z" fill="#176CF7"/>
<path fill-rule="evenodd" clip-rule="evenodd" d="M0.815087 7.17308C0.634902 7.21067 0.458354 7.09503 0.420755 6.91479C0.31394 6.40272 0.328785 5.87274 0.464095 5.36749C0.599406 4.86224 0.851404 4.39583 1.19981 4.00581C1.32245 3.86852 1.53314 3.85669 1.6704 3.97938C1.80765 4.10207 1.8195 4.31283 1.69686 4.45012C1.41798 4.76231 1.21627 5.13564 1.10795 5.54008C0.999643 5.94451 0.98776 6.36875 1.07326 6.77864C1.11086 6.95889 0.995272 7.13548 0.815087 7.17308Z" fill="#176CF7"/>
<path fill-rule="evenodd" clip-rule="evenodd" d="M8.03874 3.5C7.45482 3.50003 6.88894 3.70236 6.43736 4.07255C5.98577 4.44275 5.67638 4.95797 5.56182 5.53057L4.30614 11.8056H11.7714L10.5157 5.53058C10.4012 4.95799 10.0918 4.44275 9.64017 4.07255C9.18859 3.70236 8.62267 3.50003 8.03874 3.5ZM5.80338 3.2992C6.43374 2.78245 7.22365 2.50003 8.03874 2.5C8.85384 2.50003 9.64379 2.78245 10.2741 3.2992C10.9045 3.81595 11.3364 4.53511 11.4963 5.33436C11.4963 5.33437 11.4963 5.33436 11.4963 5.33436L12.8716 12.2074C12.901 12.3543 12.863 12.5067 12.768 12.6225C12.6731 12.7384 12.5312 12.8056 12.3814 12.8056H3.69617C3.54637 12.8056 3.40445 12.7384 3.30948 12.6225C3.21451 12.5067 3.1765 12.3543 3.20589 12.2074L4.58125 5.33438C4.58125 5.33437 4.58125 5.33438 4.58125 5.33438C4.74116 4.53513 5.17303 3.81595 5.80338 3.2992Z" fill="#176CF7"/>
<path fill-rule="evenodd" clip-rule="evenodd" d="M1.95538 12.3057C1.95538 12.0295 2.17924 11.8057 2.45538 11.8057H13.6221C13.8982 11.8057 14.1221 12.0295 14.1221 12.3057C14.1221 12.5818 13.8982 12.8057 13.6221 12.8057H2.45538C2.17924 12.8057 1.95538 12.5818 1.95538 12.3057Z" fill="#176CF7"/>
<path fill-rule="evenodd" clip-rule="evenodd" d="M6.17761 11.8057C6.45375 11.8057 6.67761 12.0295 6.67761 12.3057C6.67761 12.6667 6.82101 13.0129 7.07627 13.2681C7.33153 13.5234 7.67773 13.6668 8.03872 13.6668C8.39971 13.6668 8.74592 13.5234 9.00117 13.2681C9.25643 13.0129 9.39983 12.6667 9.39983 12.3057C9.39983 12.0295 9.62369 11.8057 9.89983 11.8057C10.176 11.8057 10.3998 12.0295 10.3998 12.3057C10.3998 12.9319 10.1511 13.5324 9.70828 13.9752C9.26549 14.418 8.66493 14.6668 8.03872 14.6668C7.41252 14.6668 6.81196 14.418 6.36917 13.9752C5.92637 13.5324 5.67761 12.9319 5.67761 12.3057C5.67761 12.0295 5.90147 11.8057 6.17761 11.8057Z" fill="#176CF7"/>
</g>
<defs>
<clipPath id="clip0_256_37492">
<rect width="16" height="16" fill="white" transform="translate(0 0.5)"/>
</clipPath>
</defs>
</svg>
