<svg width="16" height="16" fill="none" xmlns="http://www.w3.org/2000/svg"><path d="M3.16859 11.8162h-.52666c-.35362 0-.69276-.1404-.94281-.3905-.25005-.25-.39053-.5892-.39053-.9428v-6.34c0-.35362.14048-.69276.39053-.94281.25005-.25004.58919-.39052.94281-.39052h6.52c.35362 0 .69276.14048.94277.39052.2501.25005.3906.58919.3906.94281v4.60667" stroke="#176CF7" stroke-linecap="round" stroke-linejoin="round"/><path d="M10.4766 5.27637h1.8533c.1193-.00029.2372.02656.3446.07854.1074.05197.2016.12771.2754.22146l1.5067 2c.154.20611.2381.45605.24.71333v3.3333c0 .0354-.0141.0693-.0391.0943-.025.025-.0589.0391-.0943.0391h-2.0333" stroke="#176CF7" stroke-linecap="round" stroke-linejoin="round"/><path d="M10.9816 13.1898c.8248 0 1.4933-.6686 1.4933-1.4933 0-.8248-.6685-1.4934-1.4933-1.4934-.8247 0-1.49332.6686-1.49332 1.4934 0 .8247.66862 1.4933 1.49332 1.4933zM4.65349 13.1898c.82475 0 1.49333-.6686 1.49333-1.4933 0-.8248-.66858-1.4934-1.49333-1.4934-.82475 0-1.49333.6686-1.49333 1.4934 0 .8247.66858 1.4933 1.49333 1.4933zM9.49422 11.7832h-3.42" stroke="#176CF7" stroke-linecap="round" stroke-linejoin="round"/></svg>