<svg width="24" height="24" viewBox="0 0 24 24" fill="none" xmlns="http://www.w3.org/2000/svg">
<path d="M4.90039 15.832H9.05039" stroke="#176CF7" stroke-width="1.5" stroke-linecap="round" stroke-linejoin="round"/>
<path d="M5 18H10.533" stroke="#176CF7" stroke-width="1.5" stroke-linecap="round" stroke-linejoin="round"/>
<path d="M21.4913 10.1351V12.7491C21.4913 13.0673 21.3649 13.3726 21.1399 13.5976C20.9148 13.8226 20.6096 13.9491 20.2913 13.9491H10.7273C10.4091 13.9491 10.1039 13.8226 9.87882 13.5976C9.65377 13.3726 9.52734 13.0673 9.52734 12.7491V7.19707C9.52734 6.87881 9.65377 6.57359 9.87882 6.34854C10.1039 6.1235 10.4091 5.99707 10.7273 5.99707H14.7673" stroke="#176CF7" stroke-width="1.5" stroke-linecap="round" stroke-linejoin="bevel"/>
<path d="M14 15.6834V18.6419C14 19.0021 13.8732 19.3475 13.6475 19.6022C13.4218 19.8569 13.1156 20 12.7964 20H3.20361C2.88439 20 2.57825 19.8569 2.35253 19.6022C2.12681 19.3475 2 19.0021 2 18.6419V12.3581C2 11.9979 2.12681 11.6525 2.35253 11.3978C2.57825 11.1431 2.88439 11 3.20361 11H7.25577" stroke="#176CF7" stroke-width="1.5" stroke-linecap="round" stroke-linejoin="bevel"/>
<path d="M19.8751 5.33613C19.8194 5.28034 19.7532 5.23609 19.6804 5.20589C19.6076 5.1757 19.5295 5.16016 19.4506 5.16016C19.3718 5.16016 19.2937 5.1757 19.2209 5.20589C19.148 5.23609 19.0818 5.28034 19.0261 5.33613L15.4371 8.92513L15.3771 10.7201C15.3762 10.7382 15.3791 10.7563 15.3858 10.7732C15.3925 10.79 15.4028 10.8052 15.4159 10.8178C15.429 10.8303 15.4446 10.8399 15.4617 10.8458C15.4789 10.8517 15.4971 10.8539 15.5151 10.8521L17.3101 10.7921L20.8971 7.20513C21.0004 7.0932 21.0572 6.94621 21.0561 6.79394C21.055 6.64168 20.996 6.49553 20.8911 6.38513L19.8751 5.33613Z" stroke="#176CF7" stroke-width="1.5" stroke-linecap="round" stroke-linejoin="round"/>
</svg>
