<svg width="16" height="16" viewBox="0 0 16 16" fill="none" xmlns="http://www.w3.org/2000/svg">
<path d="M4 2.33325C4 1.78097 4.44772 1.33325 5 1.33325H11C11.5523 1.33325 12 1.78097 12 2.33325V4.91904C12 5.18425 11.8946 5.43861 11.7071 5.62615L10.0404 7.29281C9.64992 7.68334 9.64992 8.3165 10.0404 8.70703L11.7071 10.3737C11.8946 10.5612 12 10.8156 12 11.0808V13.6666C12 14.2189 11.5523 14.6666 11 14.6666H5C4.44771 14.6666 4 14.2189 4 13.6666V11.0808C4 10.8156 4.10536 10.5612 4.29289 10.3737L5.95956 8.70702C6.35009 8.3165 6.35008 7.68334 5.95956 7.29281L4.29289 5.62614C4.10536 5.43861 4 5.18425 4 4.91904V2.33325ZM10.6667 11.4141C10.6667 11.1489 10.5613 10.8946 10.3738 10.707L8.70711 9.04036C8.31658 8.64983 7.68342 8.64983 7.29289 9.04036L5.62623 10.707C5.43869 10.8946 5.33333 11.1489 5.33333 11.4141V12.3333C5.33333 12.8855 5.78105 13.3333 6.33333 13.3333H9.66667C10.219 13.3333 10.6667 12.8855 10.6667 12.3333V11.4141ZM7.29289 6.95948C7.68342 7.35 8.31658 7.35 8.70711 6.95948L10.3738 5.29281C10.5613 5.10528 10.6667 4.85092 10.6667 4.58571V3.66659C10.6667 3.1143 10.219 2.66659 9.66667 2.66659H6.33333C5.78105 2.66659 5.33333 3.1143 5.33333 3.66659V4.58571C5.33333 4.85092 5.43869 5.10528 5.62623 5.29281L7.29289 6.95948ZM6.66667 4.35347C6.66667 4.15821 6.82496 3.99992 7.02022 3.99992H8.97978C9.17504 3.99992 9.33333 4.15821 9.33333 4.35347C9.33333 4.44724 9.29608 4.53717 9.22978 4.60347L8.70711 5.12615C8.31658 5.51667 7.68342 5.51667 7.29289 5.12615L6.77022 4.60347C6.70392 4.53717 6.66667 4.44724 6.66667 4.35347Z" fill="#176CF7"/>
</svg>
