<svg width="34" height="34" viewBox="0 0 34 34" fill="none" xmlns="http://www.w3.org/2000/svg">
<path d="M17.5637 15.9999L16.2687 13.8789C16.9057 13.6829 17.2977 13.2069 17.2977 12.5419C17.2977 11.4079 16.3527 11.0439 15.4007 11.0439H13.5107V15.9999H14.6867V14.0329H15.0927L16.1637 15.9999H17.5637ZM16.1147 12.5629C16.1147 13.0669 15.6317 13.1649 15.2467 13.1649H14.6797V12.0099H15.3167C15.6737 12.0099 16.1147 12.1009 16.1147 12.5629Z" fill="black"/>
<path d="M21.9673 14.2429C21.9673 13.2699 21.3303 12.4159 20.3153 12.4159C19.8043 12.4159 19.4123 12.6609 19.2023 12.9409H19.1813V12.5139H18.0893V17.6799H19.2373V15.6149H19.2513C19.4683 15.9159 19.8813 16.0979 20.3083 16.0979C21.3583 16.0979 21.9673 15.2159 21.9673 14.2429ZM20.8543 14.2429C20.8543 14.6979 20.5813 15.1459 20.0353 15.1459C19.5173 15.1459 19.1953 14.7049 19.1953 14.2499C19.1953 13.8089 19.5173 13.3539 20.0353 13.3539C20.5813 13.3539 20.8543 13.7949 20.8543 14.2429Z" fill="black"/>
<path d="M23.5296 2.72192H10.7266C9.62199 2.72192 8.72656 3.61735 8.72656 4.72192V29.5569C8.72656 30.6615 9.62199 31.5569 10.7266 31.5569H23.5296C24.6341 31.5569 25.5296 30.6615 25.5296 29.5569V4.72192C25.5296 3.61735 24.6341 2.72192 23.5296 2.72192Z" stroke="black" stroke-width="2" stroke-linecap="round" stroke-linejoin="round"/>
<path d="M17.4008 24.7339H16.8548C16.5014 24.7339 16.2148 25.0204 16.2148 25.3739V25.9199C16.2148 26.2733 16.5014 26.5599 16.8548 26.5599H17.4008C17.7543 26.5599 18.0408 26.2733 18.0408 25.9199V25.3739C18.0408 25.0204 17.7543 24.7339 17.4008 24.7339Z" stroke="black" stroke-width="2" stroke-linecap="round" stroke-linejoin="round"/>
<path d="M26.4248 17.653C26.295 17.7833 26.2217 17.9595 26.2207 18.1435C26.2198 18.3274 26.2913 18.5044 26.4198 18.636L29.6678 21.889H17.3068C17.1226 21.889 16.946 21.9622 16.8157 22.0924C16.6855 22.2227 16.6123 22.3993 16.6123 22.5835C16.6123 22.7677 16.6855 22.9443 16.8157 23.0746C16.946 23.2048 17.1226 23.278 17.3068 23.278H29.6618L26.4138 26.531C26.2853 26.6626 26.2138 26.8396 26.2147 27.0235C26.2157 27.2075 26.289 27.3837 26.4188 27.514C26.5492 27.6426 26.7252 27.7143 26.9083 27.7134C27.0915 27.7124 27.2668 27.6389 27.3958 27.509L31.7958 23.076C31.8558 23.0116 31.9045 22.9376 31.9398 22.857C31.9757 22.7726 31.9938 22.6817 31.9928 22.59C31.9918 22.4082 31.9201 22.2339 31.7928 22.104L27.3928 17.671C27.3307 17.6057 27.2563 17.5534 27.1739 17.5171C27.0915 17.4808 27.0026 17.4613 26.9126 17.4596C26.8225 17.4579 26.733 17.4741 26.6493 17.5074C26.5655 17.5406 26.4892 17.5901 26.4248 17.653Z" fill="#FFC217"/>
</svg>
