<svg width="124" height="124" viewBox="0 0 124 124" fill="none" xmlns="http://www.w3.org/2000/svg">
<path d="M62 124C96.2417 124 124 96.2417 124 62C124 27.7583 96.2417 0 62 0C27.7583 0 0 27.7583 0 62C0 96.2417 27.7583 124 62 124Z" fill="#B5FF96"/>
<path d="M62 109C87.9574 109 109 87.9574 109 62C109 36.0426 87.9574 15 62 15C36.0426 15 15 36.0426 15 62C15 87.9574 36.0426 109 62 109Z" fill="#3ECD00"/>
<path d="M44.855 61.5831L56.561 73.2891L79.145 50.7051" stroke="white" stroke-width="10" stroke-linecap="round"/>
</svg>
