<svg width="24" height="24" viewBox="0 0 24 24" fill="none" xmlns="http://www.w3.org/2000/svg">
<path d="M12 22.3994C16.4183 22.3994 20 18.8177 20 14.3994C20 9.98114 16.4183 6.39941 12 6.39941C7.58172 6.39941 4 9.98114 4 14.3994C4 18.8177 7.58172 22.3994 12 22.3994Z" stroke="#176CF7" stroke-width="1.5" stroke-linecap="round" stroke-linejoin="round"/>
<path d="M9.28963 6.86962L6.28963 3.21962C6.17287 3.07187 6.1002 2.89415 6.07999 2.70692C6.05979 2.51969 6.09286 2.33056 6.1754 2.1613C6.25794 1.99203 6.3866 1.84951 6.54657 1.75015C6.70654 1.65078 6.89131 1.59861 7.07963 1.59962H16.9196C17.1071 1.60049 17.2905 1.65402 17.449 1.75413C17.6075 1.85424 17.7347 1.99689 17.816 2.1658C17.8974 2.33471 17.9296 2.52307 17.909 2.70941C17.8884 2.89574 17.8159 3.07254 17.6996 3.21962L14.6996 6.86962" stroke="#176CF7" stroke-width="1.5" stroke-linecap="round" stroke-linejoin="round"/>
<path d="M9.99023 12.9098L12.2802 10.2998V18.2998" stroke="#176CF7" stroke-width="1.5" stroke-linecap="round" stroke-linejoin="round"/>
</svg>
