<svg width="16" height="16" viewBox="0 0 16 16" fill="none" xmlns="http://www.w3.org/2000/svg">
<path fill-rule="evenodd" clip-rule="evenodd" d="M3.78238 1.52123C3.67933 1.56238 3.58024 1.67377 3.55141 1.78086C3.53456 1.84341 3.53118 1.98401 3.54236 2.15668L3.56025 2.43256H2.67369C1.67304 2.43256 1.66514 2.43391 1.55134 2.62567C1.49456 2.72137 1.49313 2.73795 1.50797 3.13096C1.5579 4.45094 1.83344 5.5965 2.34949 6.62939C3.12334 8.17827 4.27196 9.12645 5.56763 9.28589L5.76489 9.31016L5.98467 9.51811C6.10553 9.63247 6.29403 9.78879 6.40351 9.86548L6.6026 10.0049V11.7023L6.17702 11.7026C5.88652 11.7028 5.70747 11.7145 5.61286 11.7397C5.12943 11.8683 4.73435 12.2587 4.60767 12.7329C4.58322 12.8244 4.56155 13.0488 4.55225 13.3065L4.53701 13.7298L4.44735 13.7466C4.33423 13.7678 4.20227 13.8974 4.16817 14.0209C4.12073 14.1926 4.21804 14.392 4.38291 14.4608C4.50789 14.5131 11.4921 14.5131 11.6171 14.4608C11.782 14.392 11.8793 14.1926 11.8318 14.0209C11.7977 13.8974 11.6658 13.7678 11.5527 13.7466L11.463 13.7298L11.4477 13.3065C11.4384 13.0488 11.4168 12.8244 11.3923 12.7329C11.2657 12.2587 10.8706 11.8683 10.3871 11.7397C10.2925 11.7145 10.1135 11.7028 9.82298 11.7026L9.3974 11.7023V10.0049L9.59649 9.86548C9.70597 9.78879 9.89447 9.63247 10.0153 9.51811L10.2351 9.31016L10.4324 9.28589C11.728 9.12645 12.8767 8.17827 13.6505 6.62939C14.1666 5.5965 14.4421 4.45094 14.492 3.13096C14.5069 2.73795 14.5054 2.72137 14.4487 2.62567C14.3349 2.43401 14.3266 2.43256 13.3296 2.43256H12.4462L12.4526 2.09187C12.4596 1.71869 12.4473 1.67978 12.2841 1.55796C12.2139 1.50562 12.2123 1.50559 8.0299 1.50074C5.29227 1.49756 3.82395 1.50465 3.78238 1.52123ZM11.675 2.66748C11.5784 5.01502 10.8809 7.28112 9.86091 8.56166C8.81855 9.87026 7.53957 10.0006 6.44965 8.90941C5.26828 7.72665 4.4321 5.27008 4.32496 2.66748L4.30796 2.25478H11.692L11.675 2.66748ZM3.61061 3.41032C3.73307 4.73541 4.02231 6.00497 4.44379 7.06741C4.57847 7.40688 4.84723 7.97375 4.98867 8.2166C5.03951 8.30391 5.07186 8.37532 5.06058 8.37532C5.0493 8.37532 4.93575 8.3229 4.80828 8.2588C3.48344 7.59278 2.44921 5.66413 2.29682 3.5754C2.28816 3.45667 2.27532 3.3222 2.26829 3.27656L2.25548 3.19361L3.59183 3.20715L3.61061 3.41032ZM13.7316 3.27699C13.7247 3.32237 13.7118 3.45667 13.7032 3.5754C13.5688 5.41753 12.752 7.14542 11.6109 8.00164C11.4469 8.12476 10.9966 8.37535 10.9394 8.37532C10.9281 8.37532 10.9605 8.30391 11.0113 8.2166C11.1528 7.97375 11.4215 7.40688 11.5562 7.06741C11.9723 6.01864 12.2869 4.64367 12.3843 3.44842C12.394 3.32969 12.4069 3.22396 12.4129 3.2135C12.4189 3.20304 12.721 3.19445 13.0841 3.19445H13.7444L13.7316 3.27699ZM7.59348 10.3808C7.65637 10.3945 7.8393 10.4058 8 10.4058C8.1607 10.4058 8.34363 10.3945 8.40652 10.3808C8.4694 10.3671 8.54656 10.35 8.57802 10.3429L8.63518 10.3299V11.7023H7.36482V10.3299L7.42198 10.3429C7.45344 10.35 7.5306 10.3671 7.59348 10.3808ZM10.3248 12.5191C10.4403 12.5832 10.5684 12.719 10.6202 12.8324C10.6588 12.9169 10.6668 13.0014 10.6672 13.334L10.6678 13.734H5.33223L5.33279 13.334C5.33345 12.8555 5.35708 12.7806 5.56557 12.5953C5.71481 12.4627 5.66044 12.4654 8.03811 12.4713C10.0458 12.4763 10.2555 12.4807 10.3248 12.5191Z" fill="#176CF7" stroke="#176CF7" stroke-width="0.5"/>
</svg>
