<svg width="30" height="30" viewBox="0 0 30 30" fill="none" xmlns="http://www.w3.org/2000/svg">
<g clip-path="url(#clip0_2015_126666)">
<path d="M30 15C30 6.71573 23.2843 0 15 0C6.71573 0 0 6.71573 0 15C0 23.2843 6.71573 30 15 30C23.2843 30 30 23.2843 30 15Z" fill="#176CF7"/>
<path fill-rule="evenodd" clip-rule="evenodd" d="M10.7824 8.52123C10.6793 8.56238 10.5802 8.67377 10.5514 8.78086C10.5346 8.84341 10.5312 8.98401 10.5424 9.15668L10.5603 9.43256H9.67369C8.67304 9.43256 8.66514 9.43391 8.55134 9.62567C8.49456 9.72137 8.49313 9.73795 8.50797 10.131C8.5579 11.4509 8.83344 12.5965 9.34949 13.6294C10.1233 15.1783 11.272 16.1265 12.5676 16.2859L12.7649 16.3102L12.9847 16.5181C13.1055 16.6325 13.294 16.7888 13.4035 16.8655L13.6026 17.0049V18.7023L13.177 18.7026C12.8865 18.7028 12.7075 18.7145 12.6129 18.7397C12.1294 18.8683 11.7344 19.2587 11.6077 19.7329C11.5832 19.8244 11.5616 20.0488 11.5523 20.3065L11.537 20.7298L11.4474 20.7466C11.3342 20.7678 11.2023 20.8974 11.1682 21.0209C11.1207 21.1926 11.218 21.392 11.3829 21.4608C11.5079 21.5131 18.4921 21.5131 18.6171 21.4608C18.782 21.392 18.8793 21.1926 18.8318 21.0209C18.7977 20.8974 18.6658 20.7678 18.5527 20.7466L18.463 20.7298L18.4477 20.3065C18.4384 20.0488 18.4168 19.8244 18.3923 19.7329C18.2657 19.2587 17.8706 18.8683 17.3871 18.7397C17.2925 18.7145 17.1135 18.7028 16.823 18.7026L16.3974 18.7023V17.0049L16.5965 16.8655C16.706 16.7888 16.8945 16.6325 17.0153 16.5181L17.2351 16.3102L17.4324 16.2859C18.728 16.1265 19.8767 15.1783 20.6505 13.6294C21.1666 12.5965 21.4421 11.4509 21.492 10.131C21.5069 9.73795 21.5054 9.72137 21.4487 9.62567C21.3349 9.43401 21.3266 9.43256 20.3296 9.43256H19.4462L19.4526 9.09187C19.4596 8.71869 19.4473 8.67978 19.2841 8.55796C19.2139 8.50562 19.2123 8.50559 15.0299 8.50074C12.2923 8.49756 10.824 8.50465 10.7824 8.52123ZM18.675 9.66748C18.5784 12.015 17.8809 14.2811 16.8609 15.5617C15.8186 16.8703 14.5396 17.0006 13.4497 15.9094C12.2683 14.7267 11.4321 12.2701 11.325 9.66748L11.308 9.25478H18.692L18.675 9.66748ZM10.6106 10.4103C10.7331 11.7354 11.0223 13.005 11.4438 14.0674C11.5785 14.4069 11.8472 14.9738 11.9887 15.2166C12.0395 15.3039 12.0719 15.3753 12.0606 15.3753C12.0493 15.3753 11.9358 15.3229 11.8083 15.2588C10.4834 14.5928 9.44921 12.6641 9.29682 10.5754C9.28816 10.4567 9.27532 10.3222 9.26829 10.2766L9.25548 10.1936L10.5918 10.2072L10.6106 10.4103ZM20.7316 10.277C20.7247 10.3224 20.7118 10.4567 20.7032 10.5754C20.5688 12.4175 19.752 14.1454 18.6109 15.0016C18.4469 15.1248 17.9966 15.3754 17.9394 15.3753C17.9281 15.3753 17.9605 15.3039 18.0113 15.2166C18.1528 14.9738 18.4215 14.4069 18.5562 14.0674C18.9723 13.0186 19.2869 11.6437 19.3843 10.4484C19.394 10.3297 19.4069 10.224 19.4129 10.2135C19.4189 10.203 19.721 10.1945 20.0841 10.1945H20.7444L20.7316 10.277ZM14.5935 17.3808C14.6564 17.3945 14.8393 17.4058 15 17.4058C15.1607 17.4058 15.3436 17.3945 15.4065 17.3808C15.4694 17.3671 15.5466 17.35 15.578 17.3429L15.6352 17.3299V18.7023H14.3648V17.3299L14.422 17.3429C14.4534 17.35 14.5306 17.3671 14.5935 17.3808ZM17.3248 19.5191C17.4403 19.5832 17.5684 19.719 17.6202 19.8324C17.6588 19.9169 17.6668 20.0014 17.6672 20.334L17.6678 20.734H12.3322L12.3328 20.334C12.3335 19.8555 12.3571 19.7806 12.5656 19.5953C12.7148 19.4627 12.6604 19.4654 15.0381 19.4713C17.0458 19.4763 17.2555 19.4807 17.3248 19.5191Z" fill="white" stroke="white" stroke-width="0.5"/>
</g>
<defs>
<clipPath id="clip0_2015_126666">
<rect width="30" height="30" fill="white"/>
</clipPath>
</defs>
</svg>
