<svg width="14" height="14" viewBox="0 0 14 14" fill="none" xmlns="http://www.w3.org/2000/svg">	
<defs>
<clipPath id="clip0">
<rect width="14" height="14" fill="white"/>
</clipPath>
</defs>
<g clip-path="url(#clip0)">
<path d="M1.4585 12.2745L1.91921 10.6125C2.68261 7.88295 4.69573 6.50372 6.70829 6.50372" stroke="#525252" stroke-width="1.5" stroke-linecap="round" stroke-linejoin="round"/>
<path d="M6.70824 6.49219C8.31911 6.49219 9.62498 5.20035 9.62498 3.60678C9.62498 2.01322 8.31911 0.721375 6.70824 0.721375C5.09737 0.721375 3.7915 2.01322 3.7915 3.60678C3.7915 5.20035 5.09737 6.49219 6.70824 6.49219Z" stroke="#525252" stroke-width="1.5" stroke-linecap="round" stroke-linejoin="bevel"/>
<path fill-rule="evenodd" clip-rule="evenodd" d="M10.1192 7.88825L10.1409 7.83515C10.1829 7.74524 10.2493 7.67002 10.332 7.61872C10.4147 7.56743 10.51 7.54229 10.6063 7.54639C10.7026 7.5505 10.7956 7.58367 10.8739 7.64184C10.9522 7.7 11.0125 7.78063 11.0473 7.87382L11.0645 7.93153C11.086 7.99566 11.1202 8.05445 11.1649 8.10413C11.2095 8.15381 11.2636 8.19329 11.3238 8.22007C11.3851 8.24777 11.4511 8.26265 11.5179 8.26384C11.5847 8.26502 11.6511 8.2525 11.7133 8.22699L11.7645 8.20564C11.8557 8.16923 11.9552 8.16131 12.0507 8.18284C12.1462 8.20438 12.2336 8.25443 12.302 8.32683C12.3686 8.39663 12.412 8.48663 12.4259 8.58377C12.4398 8.68091 12.4235 8.78012 12.3793 8.86698L12.3526 8.91776C12.322 8.97617 12.3039 9.04076 12.2996 9.10709C12.2953 9.17342 12.3048 9.23994 12.3276 9.3021C12.3513 9.36532 12.3874 9.42278 12.4335 9.47084C12.4797 9.51891 12.5349 9.55655 12.5958 9.5814L12.6514 9.60276C12.7401 9.6391 12.8157 9.70296 12.868 9.7856C12.9203 9.86825 12.9467 9.96563 12.9435 10.0644C12.9379 10.1633 12.9032 10.258 12.8441 10.3358C12.785 10.4136 12.7044 10.4707 12.613 10.4995L12.5574 10.5163C12.4936 10.5352 12.4342 10.5676 12.3831 10.6115C12.3319 10.6554 12.2901 10.7098 12.2603 10.7713C12.2315 10.8317 12.2158 10.8978 12.2142 10.9651C12.2127 11.0324 12.2254 11.0992 12.2514 11.1609L12.2731 11.2111C12.3094 11.3018 12.3171 11.4022 12.2951 11.4977C12.2731 11.5933 12.2226 11.6792 12.1507 11.7432C12.0767 11.8095 11.9857 11.8521 11.8887 11.8657C11.7918 11.8793 11.6932 11.8634 11.6048 11.8199L11.5531 11.7934C11.4929 11.7628 11.4276 11.7448 11.3607 11.7406C11.2939 11.7363 11.2269 11.7458 11.1636 11.7685C11.1015 11.7903 11.0444 11.8251 10.9958 11.8708C10.9473 11.9165 10.9084 11.972 10.8815 12.034L10.8598 12.0871C10.8177 12.177 10.7513 12.2522 10.6686 12.3035C10.5859 12.3548 10.4906 12.38 10.3943 12.3759C10.2981 12.3717 10.2051 12.3386 10.1267 12.2804C10.0484 12.2222 9.98814 12.1416 9.95336 12.0484L9.93611 11.9907C9.91548 11.9257 9.88187 11.8658 9.83749 11.8151C9.79311 11.7644 9.73893 11.724 9.67849 11.6964C9.61678 11.6679 9.55019 11.6524 9.48264 11.6509C9.41509 11.6494 9.34793 11.662 9.2851 11.6878L9.23391 11.7097C9.14269 11.7461 9.0432 11.754 8.94769 11.7325C8.85218 11.7109 8.76483 11.6609 8.69642 11.5885C8.62981 11.5187 8.5864 11.4287 8.57249 11.3315C8.55858 11.2344 8.5749 11.1352 8.61907 11.0483L8.64578 10.9981C8.67639 10.9397 8.69448 10.8751 8.6988 10.8088C8.70312 10.7425 8.69358 10.676 8.67082 10.6138C8.64711 10.5507 8.6111 10.4934 8.56505 10.4455C8.519 10.3975 8.46389 10.3599 8.40318 10.3351L8.34754 10.3137C8.25891 10.2774 8.18328 10.2135 8.13098 10.1309C8.07869 10.0482 8.0523 9.95085 8.05542 9.85205C8.06106 9.7532 8.09576 9.6585 8.15485 9.58071C8.21394 9.50292 8.29459 9.44576 8.38594 9.41693L8.44158 9.4002C8.50541 9.3813 8.56478 9.34887 8.61592 9.30497C8.66706 9.26106 8.70887 9.20664 8.7387 9.14513C8.76748 9.0848 8.78318 9.01867 8.78472 8.95139C8.78626 8.8841 8.77359 8.81728 8.74761 8.7556L8.72591 8.70539C8.6912 8.6149 8.68472 8.5154 8.70737 8.42089C8.73003 8.32638 8.78069 8.24161 8.85221 8.17852C8.92594 8.11315 9.01626 8.0712 9.11238 8.05769C9.20849 8.04418 9.30632 8.05968 9.39416 8.10234L9.44535 8.12889C9.50548 8.15948 9.57086 8.17742 9.63771 8.18168C9.70456 8.18594 9.77156 8.17643 9.83484 8.1537C9.89693 8.13194 9.95403 8.09713 10.0026 8.05146C10.0511 8.00578 10.09 7.95022 10.1169 7.88825H10.1192Z" stroke="#525252" stroke-width="0.7" stroke-linecap="round" stroke-linejoin="bevel"/>
<path d="M10.5002 10.8983C11.025 10.8983 11.4505 10.4774 11.4505 9.95819C11.4505 9.43901 11.025 9.01813 10.5002 9.01813C9.97529 9.01813 9.5498 9.43901 9.5498 9.95819C9.5498 10.4774 9.97529 10.8983 10.5002 10.8983Z" stroke="#525252" stroke-width="0.7" stroke-linecap="round" stroke-linejoin="bevel"/>
</g>
</svg>
