<svg width="12" height="12" viewBox="0 0 12 12" fill="none" xmlns="http://www.w3.org/2000/svg">
<path d="M3 2C3 1.44772 3.44772 1 4 1H8C8.55229 1 9 1.44772 9 2V3.58579C9 3.851 8.89464 4.10536 8.70711 4.29289L7.70711 5.29289C7.31658 5.68342 7.31658 6.31658 7.70711 6.70711L8.70711 7.70711C8.89464 7.89464 9 8.149 9 8.41421V10C9 10.5523 8.55229 11 8 11H4C3.44772 11 3 10.5523 3 10V8.41421C3 8.149 3.10536 7.89464 3.29289 7.70711L4.29289 6.70711C4.68342 6.31658 4.68342 5.68342 4.29289 5.29289L3.29289 4.29289C3.10536 4.10536 3 3.851 3 3.58579V2ZM8 8.66421C8 8.399 7.89464 8.14464 7.70711 7.95711L6.70711 6.95711C6.31658 6.56658 5.68342 6.56658 5.29289 6.95711L4.29289 7.95711C4.10536 8.14464 4 8.399 4 8.66421V9C4 9.55229 4.44772 10 5 10H7C7.55229 10 8 9.55228 8 9V8.66421ZM5.29289 5.04289C5.68342 5.43342 6.31658 5.43342 6.70711 5.04289L7.70711 4.04289C7.89464 3.85536 8 3.601 8 3.33579V3C8 2.44772 7.55229 2 7 2H5C4.44772 2 4 2.44772 4 3V3.33579C4 3.601 4.10536 3.85536 4.29289 4.04289L5.29289 5.04289ZM5 3.26517C5 3.11872 5.11872 3 5.26517 3H6.73484C6.88128 3 7 3.11872 7 3.26517C7 3.33549 6.97206 3.40294 6.92234 3.45267L6.70711 3.66789C6.31658 4.05842 5.68342 4.05842 5.29289 3.66789L5.07767 3.45266C5.02794 3.40294 5 3.33549 5 3.26517Z" fill="#176CF7"/>
</svg>
