<svg width="16" height="16" viewBox="0 0 16 16" fill="none" xmlns="http://www.w3.org/2000/svg">
<g clip-path="url(#clip0_5225_154456)">
<path d="M10.6216 12.3067L10.266 9.46C10.2157 9.05679 10.0197 8.68588 9.71503 8.41701C9.41036 8.14814 9.01795 7.99984 8.6116 8H7.38716C6.98101 8.00011 6.58887 8.14854 6.28443 8.41738C5.97999 8.68622 5.78419 9.05698 5.73383 9.46L5.37772 12.3067C5.35817 12.4631 5.37212 12.6218 5.41865 12.7724C5.46517 12.923 5.5432 13.062 5.64755 13.1801C5.75191 13.2982 5.88019 13.3928 6.0239 13.4575C6.1676 13.5223 6.32344 13.5557 6.48105 13.5556H9.51883C9.67639 13.5556 9.83216 13.5221 9.9758 13.4573C10.1194 13.3926 10.2477 13.298 10.352 13.1799C10.4562 13.0618 10.5342 12.9228 10.5807 12.7723C10.6272 12.6217 10.6411 12.463 10.6216 12.3067V12.3067Z" stroke="#176CF7" stroke-width="1.5" stroke-linecap="round" stroke-linejoin="round"/>
<path d="M8.00065 5.77767C8.92113 5.77767 9.66732 5.03148 9.66732 4.111C9.66732 3.19053 8.92113 2.44434 8.00065 2.44434C7.08018 2.44434 6.33398 3.19053 6.33398 4.111C6.33398 5.03148 7.08018 5.77767 8.00065 5.77767Z" stroke="#176CF7" stroke-width="1.5"/>
<path d="M3.55642 7.44439C4.17007 7.44439 4.66754 6.94693 4.66754 6.33328C4.66754 5.71963 4.17007 5.22217 3.55642 5.22217C2.94277 5.22217 2.44531 5.71963 2.44531 6.33328C2.44531 6.94693 2.94277 7.44439 3.55642 7.44439Z" stroke="#176CF7" stroke-width="1.5"/>
<path d="M12.4451 7.44439C13.0587 7.44439 13.5562 6.94693 13.5562 6.33328C13.5562 5.71963 13.0587 5.22217 12.4451 5.22217C11.8314 5.22217 11.334 5.71963 11.334 6.33328C11.334 6.94693 11.8314 7.44439 12.4451 7.44439Z" stroke="#176CF7" stroke-width="1.5"/>
<path d="M3.55609 9.11108H3.38609C3.12307 9.11105 2.86857 9.20433 2.66786 9.37431C2.46715 9.5443 2.33325 9.77998 2.28998 10.0394L2.10498 11.1505C2.07843 11.3097 2.08688 11.4728 2.12974 11.6284C2.1726 11.784 2.24884 11.9284 2.35316 12.0515C2.45748 12.1747 2.58738 12.2736 2.73381 12.3414C2.88024 12.4093 3.0397 12.4444 3.20109 12.4444H5.22276" stroke="#176CF7" stroke-width="1.5" stroke-linecap="round" stroke-linejoin="round"/>
<path d="M12.446 9.11108H12.616C12.879 9.11105 13.1335 9.20433 13.3342 9.37431C13.5349 9.5443 13.6688 9.77998 13.7121 10.0394L13.8971 11.1505C13.9236 11.3097 13.9152 11.4728 13.8723 11.6284C13.8295 11.784 13.7532 11.9284 13.6489 12.0515C13.5446 12.1747 13.4147 12.2736 13.2682 12.3414C13.1218 12.4093 12.9624 12.4444 12.801 12.4444H10.7793" stroke="#176CF7" stroke-width="1.5" stroke-linecap="round" stroke-linejoin="round"/>
</g>
<defs>
<clipPath id="clip0_5225_154456">
<rect width="13.3333" height="13.3333" fill="white" transform="translate(1.33398 1.33325)"/>
</clipPath>
</defs>
</svg>
