<svg width="18" height="18" viewBox="0 0 18 18" fill="none" xmlns="http://www.w3.org/2000/svg">
<path d="M9 18C13.9706 18 18 13.9706 18 9C18 4.02944 13.9706 0 9 0C4.02944 0 0 4.02944 0 9C0 13.9706 4.02944 18 9 18Z" fill="#327CF5"/>
<path d="M4.72866 11.9426L5.90841 13.1223C6.00033 13.2164 6.11011 13.2911 6.23131 13.3421C6.3525 13.3931 6.48267 13.4193 6.61416 13.4193C6.74565 13.4193 6.87581 13.3931 6.99701 13.3421C7.11821 13.2911 7.22799 13.2164 7.31991 13.1223L7.99491 12.4473C8.08677 12.3557 8.15966 12.2468 8.20938 12.1269C8.25911 12.007 8.28471 11.8785 8.28471 11.7487C8.28471 11.6189 8.25911 11.4904 8.20938 11.3705C8.15966 11.2507 8.08677 11.1418 7.99491 11.0501L7.55541 10.6061C8.24076 9.4622 9.19682 8.50435 10.3394 7.81684V7.81684L10.7789 8.26084C10.8706 8.3527 10.9795 8.42559 11.0994 8.47531C11.2192 8.52504 11.3477 8.55064 11.4775 8.55064C11.6073 8.55064 11.7358 8.52504 11.8557 8.47531C11.9756 8.42559 12.0845 8.3527 12.1762 8.26084L12.8377 7.60459C12.9295 7.51291 13.0024 7.40402 13.0521 7.28414C13.1019 7.16426 13.1275 7.03575 13.1275 6.90596C13.1275 6.77618 13.1019 6.64767 13.0521 6.52779C13.0024 6.40791 12.9295 6.29902 12.8377 6.20734L11.6542 5.02234C11.5739 4.94147 11.4681 4.89086 11.3548 4.8791C11.2415 4.86734 11.1276 4.89516 11.0324 4.95784V4.95784C8.50816 6.63311 6.34468 8.79659 4.66941 11.3208V11.3208C4.60607 11.4154 4.57737 11.529 4.58816 11.6423C4.59896 11.7556 4.6486 11.8617 4.72866 11.9426Z" stroke="white" stroke-width="0.8" stroke-linecap="round" stroke-linejoin="round"/>
</svg>
