<svg width="37" height="28" viewBox="0 0 37 28" fill="none" xmlns="http://www.w3.org/2000/svg">
<path d="M31.9023 0H5.02428C2.46492 0 0.390137 2.23858 0.390137 5V23C0.390137 25.7614 2.46492 28 5.02428 28H31.9023C34.4617 28 36.5365 25.7614 36.5365 23V5C36.5365 2.23858 34.4617 0 31.9023 0Z" fill="#707070"/>
<path d="M30.9754 2H5.95097C3.90347 2 2.24365 3.79086 2.24365 6V22C2.24365 24.2091 3.90347 26 5.95097 26H30.9754C33.0229 26 34.6827 24.2091 34.6827 22V6C34.6827 3.79086 33.0229 2 30.9754 2Z" fill="white"/>
<path d="M6.13232 17.2554V24.0205H32.0012V12.9966L25.035 5.98047L16.2107 14.4995L12.6812 11.3926L6.13232 17.2554Z" fill="#707070"/>
<path d="M7.75022 10.2227C9.28585 10.2227 10.5307 8.87951 10.5307 7.22266C10.5307 5.5658 9.28585 4.22266 7.75022 4.22266C6.2146 4.22266 4.96973 5.5658 4.96973 7.22266C4.96973 8.87951 6.2146 10.2227 7.75022 10.2227Z" fill="#707070"/>
</svg>
