<svg width="24" height="24" viewBox="0 0 24 24" fill="none" xmlns="http://www.w3.org/2000/svg">
<g clip-path="url(#clip0_773_66377)">
<g filter="url(#filter0_d_773_66377)">
<path d="M21 9.02092C21 15.1504 13.3208 23 12.0001 23C10.1757 23 3 15.1496 3 9.02092C3 7.83626 3.23279 6.6632 3.68509 5.56872C4.13739 4.47423 4.80034 3.47978 5.63608 2.6421C6.47182 1.80443 7.46398 1.13995 8.55592 0.686617C9.64787 0.233285 10.8182 -2.77544e-05 12.0001 2.47634e-09C14.387 2.47639e-09 16.6762 0.950402 18.364 2.64216C20.0518 4.33391 21 6.62842 21 9.02092Z" fill="white"/>
</g>
<path d="M11.9204 22.0494C11.3163 21.8804 9.39737 20.3357 7.392 17.5912C5.14561 14.5165 3.85742 11.3784 3.85742 8.98114C3.85988 6.82781 4.71437 4.76336 6.23346 3.24072C7.75255 1.71808 9.81218 0.861592 11.9605 0.859131C14.1088 0.861592 16.1684 1.71808 17.6875 3.24072C19.2066 4.76336 20.0611 6.82781 20.0636 8.98114C20.0636 12.1304 17.799 15.6391 16.449 17.4498C14.4785 20.0939 12.5206 21.7907 11.9204 22.0494Z" fill="#FFC217"/>
<path d="M14.2126 13.7464V12.2412H11.24L12.9268 10.736C13.5954 10.138 14.2023 9.52972 14.2023 8.48844C14.2023 6.96259 12.9063 6.25122 11.5691 6.25122C10.1497 6.25122 8.95656 7.12755 8.79199 8.60185L10.448 8.82866C10.52 8.17915 10.9006 7.72552 11.4766 7.72552C12.0217 7.72552 12.3817 8.08636 12.3817 8.60185C12.3817 9.04516 12.1451 9.38539 11.7851 9.72561L8.94628 12.303V13.7464H14.2126Z" fill="#176CF7"/>
</g>
<defs>
<filter id="filter0_d_773_66377" x="-6" y="-3" width="36" height="41" filterUnits="userSpaceOnUse" color-interpolation-filters="sRGB">
<feFlood flood-opacity="0" result="BackgroundImageFix"/>
<feColorMatrix in="SourceAlpha" type="matrix" values="0 0 0 0 0 0 0 0 0 0 0 0 0 0 0 0 0 0 127 0" result="hardAlpha"/>
<feOffset dy="6"/>
<feGaussianBlur stdDeviation="4.5"/>
<feColorMatrix type="matrix" values="0 0 0 0 0 0 0 0 0 0 0 0 0 0 0 0 0 0 0.161 0"/>
<feBlend mode="normal" in2="BackgroundImageFix" result="effect1_dropShadow_773_66377"/>
<feBlend mode="normal" in="SourceGraphic" in2="effect1_dropShadow_773_66377" result="shape"/>
</filter>
<clipPath id="clip0_773_66377">
<rect width="24" height="24" fill="white"/>
</clipPath>
</defs>
</svg>
