<svg width="24" height="24" viewBox="0 0 24 24" fill="none" xmlns="http://www.w3.org/2000/svg">
<g clip-path="url(#clip0_773_66384)">
<g filter="url(#filter0_d_773_66384)">
<path d="M21 9.02092C21 15.1504 13.3208 23 12.0001 23C10.1757 23 3 15.1496 3 9.02092C3 7.83626 3.23279 6.6632 3.68509 5.56872C4.13739 4.47423 4.80034 3.47978 5.63608 2.6421C6.47182 1.80443 7.46398 1.13995 8.55592 0.686617C9.64787 0.233285 10.8182 -2.77544e-05 12.0001 2.47634e-09C14.387 2.47639e-09 16.6762 0.950402 18.364 2.64216C20.0518 4.33391 21 6.62842 21 9.02092Z" fill="white"/>
</g>
<path d="M11.9595 22.09C11.3554 21.9209 9.43643 20.3762 7.43107 17.6317C5.18468 14.557 3.89648 11.4189 3.89648 9.02167C3.89894 6.86833 4.75343 4.80389 6.27252 3.28125C7.79161 1.75861 9.85124 0.90212 11.9996 0.899658C14.1479 0.90212 16.2075 1.75861 17.7266 3.28125C19.2457 4.80389 20.1002 6.86833 20.1026 9.02167C20.1026 12.171 17.8381 15.6796 16.4881 17.4903C14.5175 20.1345 12.5596 21.8313 11.9595 22.09Z" fill="#FFC217"/>
<path d="M14.2436 11.6226C14.2436 10.8081 13.6676 10.1277 12.8447 9.9318V9.90087C13.5545 9.7153 14.0687 9.11733 14.0687 8.31317C14.0687 6.91105 12.7933 6.25122 11.5076 6.25122C10.2939 6.25122 9.14189 6.88012 8.79217 8.10698L10.3967 8.47813C10.5099 7.98326 10.9007 7.66366 11.3945 7.66366C11.8676 7.66366 12.3099 7.94202 12.3099 8.46782C12.3099 9.16888 11.6825 9.33384 11.0345 9.33384H10.5305V10.6019H10.9933C11.7133 10.6019 12.4745 10.8184 12.4745 11.5607C12.4745 12.2412 11.9087 12.4886 11.415 12.4886C10.7567 12.4886 10.3145 12.0659 10.1807 11.5814L8.57617 12.0041C8.96703 13.365 10.1705 13.9423 11.4973 13.9423C12.8345 13.9423 14.2436 13.2206 14.2436 11.6226Z" fill="#176CF7"/>
</g>
<defs>
<filter id="filter0_d_773_66384" x="-6" y="-3" width="36" height="41" filterUnits="userSpaceOnUse" color-interpolation-filters="sRGB">
<feFlood flood-opacity="0" result="BackgroundImageFix"/>
<feColorMatrix in="SourceAlpha" type="matrix" values="0 0 0 0 0 0 0 0 0 0 0 0 0 0 0 0 0 0 127 0" result="hardAlpha"/>
<feOffset dy="6"/>
<feGaussianBlur stdDeviation="4.5"/>
<feColorMatrix type="matrix" values="0 0 0 0 0 0 0 0 0 0 0 0 0 0 0 0 0 0 0.161 0"/>
<feBlend mode="normal" in2="BackgroundImageFix" result="effect1_dropShadow_773_66384"/>
<feBlend mode="normal" in="SourceGraphic" in2="effect1_dropShadow_773_66384" result="shape"/>
</filter>
<clipPath id="clip0_773_66384">
<rect width="24" height="24" fill="white"/>
</clipPath>
</defs>
</svg>
