<svg width="24" height="24" viewBox="0 0 24 24" fill="none" xmlns="http://www.w3.org/2000/svg">
<g clip-path="url(#clip0_773_66405)">
<g filter="url(#filter0_d_773_66405)">
<path d="M21 9.02092C21 15.1504 13.3208 23 12.0001 23C10.1757 23 3 15.1496 3 9.02092C3 7.83626 3.23279 6.6632 3.68509 5.56872C4.13739 4.47423 4.80034 3.47978 5.63608 2.6421C6.47182 1.80443 7.46398 1.13995 8.55592 0.686617C9.64787 0.233285 10.8182 -2.77544e-05 12.0001 2.47634e-09C14.387 2.47639e-09 16.6762 0.950402 18.364 2.64216C20.0518 4.33391 21 6.62842 21 9.02092Z" fill="white"/>
</g>
<path d="M11.9595 22.09C11.3554 21.9209 9.43643 20.3762 7.43107 17.6317C5.18468 14.557 3.89648 11.4189 3.89648 9.02167C3.89894 6.86833 4.75343 4.80389 6.27252 3.28125C7.79161 1.75861 9.85124 0.90212 11.9996 0.899658C14.1479 0.90212 16.2075 1.75861 17.7266 3.28125C19.2457 4.80389 20.1002 6.86833 20.1026 9.02167C20.1026 12.171 17.8381 15.6796 16.4881 17.4903C14.5175 20.1345 12.5596 21.8313 11.9595 22.09Z" fill="#FFC217"/>
<path d="M14.4279 11.2926C14.4279 9.86986 13.317 8.91105 12.0416 8.91105C11.877 8.91105 11.661 8.94198 11.5273 8.99353L11.5582 8.94198L13.3479 6.44702H11.2599L9.50105 9.07601C9.01762 9.79769 8.68848 10.4678 8.68848 11.3338C8.68848 12.9319 9.97419 13.9422 11.5582 13.9422C13.1319 13.9422 14.4279 12.9525 14.4279 11.2926ZM12.6999 11.3338C12.6999 12.0246 12.237 12.4988 11.5582 12.4988C10.869 12.4988 10.4165 11.9731 10.4165 11.3442C10.4165 10.6637 10.8896 10.1895 11.5685 10.1895C12.2473 10.1895 12.6999 10.674 12.6999 11.3338Z" fill="#176CF7"/>
</g>
<defs>
<filter id="filter0_d_773_66405" x="-6" y="-3" width="36" height="41" filterUnits="userSpaceOnUse" color-interpolation-filters="sRGB">
<feFlood flood-opacity="0" result="BackgroundImageFix"/>
<feColorMatrix in="SourceAlpha" type="matrix" values="0 0 0 0 0 0 0 0 0 0 0 0 0 0 0 0 0 0 127 0" result="hardAlpha"/>
<feOffset dy="6"/>
<feGaussianBlur stdDeviation="4.5"/>
<feColorMatrix type="matrix" values="0 0 0 0 0 0 0 0 0 0 0 0 0 0 0 0 0 0 0.161 0"/>
<feBlend mode="normal" in2="BackgroundImageFix" result="effect1_dropShadow_773_66405"/>
<feBlend mode="normal" in="SourceGraphic" in2="effect1_dropShadow_773_66405" result="shape"/>
</filter>
<clipPath id="clip0_773_66405">
<rect width="24" height="24" fill="white"/>
</clipPath>
</defs>
</svg>
