<svg width="24" height="24" viewBox="0 0 24 24" fill="none" xmlns="http://www.w3.org/2000/svg">
<g clip-path="url(#clip0_776_66448)">
<g filter="url(#filter0_d_776_66448)">
<path d="M21 9.02065C21 15.149 13.3208 22.9993 12 22.9993C10.1758 22.9993 3 15.1496 3 9.02065C3 6.62822 3.94821 4.33378 5.63604 2.64208C7.32387 0.950385 9.61303 0 12 0C14.3869 0 16.6761 0.950385 18.364 2.64208C20.0518 4.33378 21 6.62822 21 9.02065V9.02065Z" fill="white"/>
</g>
<path d="M11.9601 22.0893C11.3558 21.9209 9.4372 20.3757 7.43192 17.631C5.18562 14.5567 3.89746 11.4187 3.89746 9.02153C3.89997 6.86831 4.7545 4.80401 6.27357 3.28146C7.79264 1.75891 9.85223 0.902422 12.0005 0.899902C14.1488 0.902422 16.2084 1.75891 17.7274 3.28146C19.2465 4.80401 20.101 6.86831 20.1035 9.02153C20.1035 12.1708 17.8388 15.6788 16.4889 17.49C14.5181 20.1341 12.5626 21.8311 11.9601 22.0893Z" fill="#FFC217"/>
<path d="M9.15327 11.8522L8.82257 11.8529C8.4986 11.8533 8.18779 11.7319 7.95832 11.5153C7.72886 11.2987 7.59946 11.0046 7.59853 10.6976L7.59188 6.92848C7.59174 6.62147 7.72009 6.32689 7.94879 6.10928C8.17749 5.89168 8.48787 5.76885 8.81184 5.76774L12.9027 5.75848C13.2263 5.75887 13.5364 5.88059 13.7653 6.09706C13.9942 6.31353 14.1234 6.60711 14.1245 6.9137L14.1293 9.65415C14.1293 9.751 14.0888 9.84394 14.0166 9.91259C13.9445 9.98124 13.8466 10.02 13.7444 10.0204C13.6422 10.0205 13.5442 9.98214 13.4718 9.91382C13.3994 9.8455 13.3586 9.75274 13.3582 9.65589L13.3534 6.91544C13.3532 6.80238 13.3057 6.69404 13.2213 6.61415C13.1369 6.53426 13.0226 6.4894 12.9032 6.4893L8.81386 6.49855C8.69429 6.49882 8.57973 6.54402 8.49533 6.62433C8.41092 6.70464 8.3636 6.81343 8.3638 6.92673L8.37044 10.6959C8.37064 10.8092 8.41835 10.9178 8.50304 10.9977C8.58773 11.0776 8.70244 11.1224 8.82201 11.1221L9.15275 11.1214C9.25501 11.1211 9.35314 11.1594 9.42557 11.2278C9.498 11.2962 9.53877 11.389 9.53894 11.4859C9.53903 11.5339 9.52912 11.5815 9.50977 11.626C9.49043 11.6704 9.46203 11.7108 9.42621 11.7448C9.39039 11.7788 9.34787 11.8058 9.30103 11.8242C9.2542 11.8427 9.20397 11.8522 9.15327 11.8522V11.8522Z" fill="#176CF7"/>
<path d="M16.3013 11.8034L15.0248 11.8064C14.9225 11.8067 14.8244 11.7684 14.7519 11.7C14.6795 11.6317 14.6387 11.5389 14.6385 11.4419C14.6384 11.345 14.6789 11.252 14.7511 11.1833C14.8233 11.1146 14.9213 11.0759 15.0236 11.0756L15.9974 11.0733L15.9946 9.37779C15.9932 9.30371 15.9672 9.23187 15.9201 9.17271L14.9747 7.984C14.9647 7.97356 14.9524 7.96527 14.9387 7.95973C14.925 7.95418 14.9102 7.95149 14.8953 7.95185L13.7316 7.95464C13.6293 7.95489 13.5311 7.91669 13.4587 7.84834C13.3863 7.77999 13.3455 7.68707 13.3453 7.59017C13.3452 7.49326 13.3856 7.40024 13.4578 7.33155C13.5301 7.26285 13.6281 7.22418 13.7304 7.22393L14.8948 7.22114C15.028 7.22045 15.1596 7.24854 15.2795 7.30342C15.3994 7.3583 15.5045 7.43844 15.5866 7.53771L16.5372 8.73001C16.6838 8.91443 16.764 9.13863 16.7659 9.3696L16.7692 11.3546C16.7697 11.4132 16.758 11.4713 16.7347 11.5256C16.7114 11.5799 16.6771 11.6293 16.6336 11.671C16.5901 11.7127 16.5384 11.7458 16.4813 11.7685C16.4243 11.7912 16.3631 11.8031 16.3013 11.8034V11.8034Z" fill="#176CF7"/>
<path d="M14.0539 12.6568C13.7034 12.6571 13.3673 12.5257 13.119 12.2915C12.8708 12.0573 12.7308 11.7394 12.7296 11.4073C12.7297 11.0752 12.8686 10.7566 13.1161 10.5212C13.3635 10.2858 13.6993 10.1528 14.0498 10.1514C14.4004 10.1509 14.7368 10.2822 14.9852 10.5165C15.2336 10.7507 15.3737 11.0688 15.3748 11.401C15.3748 11.7331 15.2358 12.0519 14.9881 12.2873C14.7405 12.5227 14.4046 12.6556 14.0539 12.6568V12.6568ZM14.051 10.8821C13.9049 10.8826 13.765 10.938 13.6619 11.0361C13.5587 11.1342 13.5009 11.2671 13.5009 11.4054C13.5013 11.5438 13.5596 11.6763 13.6631 11.7739C13.7665 11.8715 13.9067 11.9262 14.0527 11.9261C14.1989 11.9257 14.3391 11.8704 14.4424 11.7723C14.5457 11.6742 14.6037 11.5413 14.6036 11.4028C14.6034 11.2642 14.545 11.1313 14.4414 11.0335C14.3377 10.9358 14.1973 10.881 14.051 10.8814L14.051 10.8821Z" fill="#176CF7"/>
<path d="M10.0832 12.6651C9.73268 12.6656 9.39637 12.5342 9.14809 12.3C8.89982 12.0657 8.75985 11.7477 8.75891 11.4156C8.75895 11.0835 8.89794 10.7649 9.14539 10.5295C9.39284 10.2941 9.72859 10.1611 10.0791 10.1597C10.4296 10.1594 10.7658 10.2908 11.014 10.525C11.2622 10.7592 11.4023 11.0772 11.4034 11.4093C11.4036 11.7414 11.2647 12.0601 11.0172 12.2955C10.7697 12.531 10.4338 12.6639 10.0832 12.6651V12.6651ZM10.0803 10.8904C9.93423 10.8909 9.79429 10.9463 9.69116 11.0444C9.58803 11.1425 9.53015 11.2754 9.53018 11.4137C9.53061 11.5521 9.58893 11.6846 9.69238 11.7822C9.79583 11.8798 9.93596 11.9345 10.082 11.9344C10.2282 11.934 10.3682 11.8787 10.4714 11.7805C10.5746 11.6824 10.6324 11.5495 10.6321 11.4111C10.6319 11.2726 10.5737 11.1399 10.4702 11.0421C10.3667 10.9443 10.2265 10.8895 10.0803 10.8897L10.0803 10.8904Z" fill="#176CF7"/>
<path d="M13.1137 11.8236L10.9688 11.8286C10.8665 11.8288 10.7684 11.7906 10.696 11.7223C10.6236 11.654 10.5828 11.5613 10.5827 11.4645C10.5825 11.3678 10.6229 11.2749 10.6951 11.2063C10.7673 11.1377 10.8653 11.099 10.9675 11.0987L13.1124 11.0938C13.2147 11.0935 13.3128 11.1318 13.3852 11.2001C13.4577 11.2683 13.4984 11.361 13.4986 11.4578C13.4987 11.5546 13.4583 11.6475 13.3861 11.7161C13.3139 11.7847 13.2159 11.8234 13.1137 11.8236V11.8236Z" fill="#176CF7"/>
</g>
<defs>
<filter id="filter0_d_776_66448" x="-6" y="-3" width="36" height="40.9993" filterUnits="userSpaceOnUse" color-interpolation-filters="sRGB">
<feFlood flood-opacity="0" result="BackgroundImageFix"/>
<feColorMatrix in="SourceAlpha" type="matrix" values="0 0 0 0 0 0 0 0 0 0 0 0 0 0 0 0 0 0 127 0" result="hardAlpha"/>
<feOffset dy="6"/>
<feGaussianBlur stdDeviation="4.5"/>
<feColorMatrix type="matrix" values="0 0 0 0 0 0 0 0 0 0 0 0 0 0 0 0 0 0 0.161 0"/>
<feBlend mode="normal" in2="BackgroundImageFix" result="effect1_dropShadow_776_66448"/>
<feBlend mode="normal" in="SourceGraphic" in2="effect1_dropShadow_776_66448" result="shape"/>
</filter>
<clipPath id="clip0_776_66448">
<rect width="24" height="24" fill="white"/>
</clipPath>
</defs>
</svg>
