<svg width="36" height="41" viewBox="0 0 36 41" fill="none" xmlns="http://www.w3.org/2000/svg">
<g filter="url(#filter0_d_1162_13002)">
<path d="M27 12.0206C27 18.149 19.3208 25.9993 18 25.9993C16.1758 25.9993 9 18.1496 9 12.0206C9 9.62822 9.94821 7.33378 11.636 5.64208C13.3239 3.95038 15.613 3 18 3C20.3869 3 22.6761 3.95038 24.364 5.64208C26.0518 7.33378 27 9.62822 27 12.0206Z" fill="white"/>
</g>
<path d="M17.9601 25.0894C17.3558 24.921 15.4372 23.3758 13.4319 20.6311C11.1856 17.5568 9.89746 14.4188 9.89746 12.0216C9.89997 9.86841 10.7545 7.8041 12.2736 6.28155C13.7926 4.759 15.8522 3.90251 18.0005 3.89999C20.1488 3.90251 22.2084 4.759 23.7274 6.28155C25.2465 7.8041 26.101 9.86841 26.1035 12.0216C26.1035 15.1709 23.8388 18.6789 22.4889 20.4901C20.5181 23.1342 18.5626 24.8312 17.9601 25.0894Z" fill="#FFC217"/>
<path d="M15.1533 14.8522L14.8226 14.8529C14.4986 14.8533 14.1878 14.7318 13.9583 14.5153C13.7289 14.2987 13.5995 14.0046 13.5985 13.6976L13.5919 9.92845C13.5917 9.62144 13.7201 9.32686 13.9488 9.10925C14.1775 8.89165 14.4879 8.76882 14.8118 8.76771L18.9027 8.75845C19.2263 8.75884 19.5364 8.88056 19.7653 9.09703C19.9942 9.3135 20.1234 9.60708 20.1245 9.91367L20.1293 12.6541C20.1293 12.751 20.0888 12.8439 20.0166 12.9126C19.9445 12.9812 19.8466 13.02 19.7444 13.0204C19.6422 13.0204 19.5442 12.9821 19.4718 12.9138C19.3994 12.8455 19.3586 12.7527 19.3582 12.6559L19.3534 9.91541C19.3532 9.80235 19.3057 9.69401 19.2213 9.61412C19.1369 9.53423 19.0226 9.48937 18.9032 9.48927L14.8139 9.49852C14.6943 9.49879 14.5797 9.54399 14.4953 9.6243C14.4109 9.70461 14.3636 9.8134 14.3638 9.9267L14.3704 13.6959C14.3706 13.8092 14.4183 13.9177 14.503 13.9977C14.5877 14.0776 14.7024 14.1224 14.822 14.1221L15.1528 14.1213C15.255 14.1211 15.3531 14.1594 15.4256 14.2278C15.498 14.2961 15.5388 14.389 15.5389 14.4859C15.539 14.5339 15.5291 14.5815 15.5098 14.6259C15.4904 14.6703 15.462 14.7107 15.4262 14.7447C15.3904 14.7788 15.3479 14.8058 15.301 14.8242C15.2542 14.8426 15.204 14.8521 15.1533 14.8522Z" fill="#176CF7"/>
<path d="M22.3013 14.8035L21.0248 14.8065C20.9225 14.8068 20.8244 14.7685 20.7519 14.7001C20.6795 14.6318 20.6387 14.539 20.6385 14.4421C20.6384 14.3452 20.6789 14.2521 20.7511 14.1834C20.8233 14.1147 20.9213 14.076 21.0236 14.0757L21.9974 14.0734L21.9946 12.3779C21.9932 12.3038 21.9672 12.232 21.9201 12.1728L20.9747 10.9841C20.9647 10.9737 20.9524 10.9654 20.9387 10.9598C20.925 10.9543 20.9102 10.9516 20.8953 10.952L19.7316 10.9548C19.6293 10.955 19.5311 10.9168 19.4587 10.8485C19.3863 10.7801 19.3455 10.6872 19.3453 10.5903C19.3452 10.4934 19.3856 10.4004 19.4578 10.3317C19.5301 10.263 19.6281 10.2243 19.7304 10.2241L20.8948 10.2213C21.028 10.2206 21.1596 10.2487 21.2795 10.3035C21.3994 10.3584 21.5045 10.4386 21.5866 10.5378L22.5372 11.7301C22.6838 11.9146 22.764 12.1388 22.7659 12.3697L22.7692 14.3547C22.7697 14.4133 22.758 14.4714 22.7347 14.5257C22.7114 14.58 22.6771 14.6294 22.6336 14.6711C22.5901 14.7128 22.5384 14.7459 22.4813 14.7687C22.4243 14.7914 22.3631 14.8032 22.3013 14.8035Z" fill="#176CF7"/>
<path d="M20.0539 15.6567C19.7034 15.657 19.3673 15.5257 19.119 15.2915C18.8708 15.0573 18.7308 14.7393 18.7296 14.4072C18.7297 14.0752 18.8686 13.7565 19.1161 13.5211C19.3635 13.2857 19.6993 13.1527 20.0498 13.1513C20.4004 13.1508 20.7368 13.2822 20.9852 13.5164C21.2336 13.7506 21.3737 14.0687 21.3748 14.4009C21.3748 14.7331 21.2358 15.0518 20.9881 15.2872C20.7405 15.5227 20.4046 15.6555 20.0539 15.6567ZM20.051 13.882C19.9049 13.8826 19.765 13.9379 19.6619 14.036C19.5587 14.1341 19.5009 14.267 19.5009 14.4054C19.5013 14.5438 19.5596 14.6763 19.6631 14.7739C19.7665 14.8715 19.9067 14.9262 20.0527 14.926C20.1989 14.9257 20.3391 14.8704 20.4424 14.7723C20.5457 14.6741 20.6037 14.5412 20.6036 14.4027C20.6034 14.2641 20.545 14.1313 20.4414 14.0335C20.3377 13.9357 20.1973 13.881 20.051 13.8813L20.051 13.882Z" fill="#176CF7"/>
<path d="M16.0832 15.6651C15.7327 15.6655 15.3964 15.5342 15.1481 15.3C14.8998 15.0657 14.7599 14.7477 14.7589 14.4156C14.7589 14.0835 14.8979 13.7649 15.1454 13.5295C15.3928 13.2941 15.7286 13.161 16.0791 13.1596C16.4296 13.1594 16.7658 13.2908 17.014 13.525C17.2622 13.7592 17.4023 14.0772 17.4034 14.4092C17.4036 14.7413 17.2647 15.0601 17.0172 15.2955C16.7697 15.5309 16.4338 15.6638 16.0832 15.6651ZM16.0803 13.8903C15.9342 13.8909 15.7943 13.9463 15.6912 14.0444C15.588 14.1425 15.5302 14.2753 15.5302 14.4137C15.5306 14.5521 15.5889 14.6846 15.6924 14.7822C15.7958 14.8798 15.936 14.9345 16.082 14.9343C16.2282 14.934 16.3682 14.8786 16.4714 14.7805C16.5746 14.6824 16.6324 14.5495 16.6321 14.4111C16.6319 14.2726 16.5737 14.1398 16.4702 14.0421C16.3667 13.9443 16.2265 13.8895 16.0803 13.8897L16.0803 13.8903Z" fill="#176CF7"/>
<path d="M19.1137 14.8235L16.9688 14.8284C16.8665 14.8286 16.7684 14.7904 16.696 14.7221C16.6236 14.6539 16.5828 14.5611 16.5827 14.4644C16.5825 14.3676 16.6229 14.2747 16.6951 14.2061C16.7673 14.1375 16.8653 14.0988 16.9675 14.0985L19.1124 14.0936C19.2147 14.0934 19.3128 14.1316 19.3852 14.1999C19.4577 14.2681 19.4984 14.3609 19.4986 14.4576C19.4987 14.5544 19.4583 14.6473 19.3861 14.7159C19.3139 14.7845 19.2159 14.8232 19.1137 14.8235Z" fill="#176CF7"/>
<defs>
<filter id="filter0_d_1162_13002" x="0" y="0" width="36" height="40.9994" filterUnits="userSpaceOnUse" color-interpolation-filters="sRGB">
<feFlood flood-opacity="0" result="BackgroundImageFix"/>
<feColorMatrix in="SourceAlpha" type="matrix" values="0 0 0 0 0 0 0 0 0 0 0 0 0 0 0 0 0 0 127 0" result="hardAlpha"/>
<feOffset dy="6"/>
<feGaussianBlur stdDeviation="4.5"/>
<feColorMatrix type="matrix" values="0 0 0 0 0 0 0 0 0 0 0 0 0 0 0 0 0 0 0.161 0"/>
<feBlend mode="normal" in2="BackgroundImageFix" result="effect1_dropShadow_1162_13002"/>
<feBlend mode="normal" in="SourceGraphic" in2="effect1_dropShadow_1162_13002" result="shape"/>
</filter>
</defs>
</svg>
