<svg width="19" height="24" viewBox="0 0 19 24" fill="none" xmlns="http://www.w3.org/2000/svg">
<path d="M18.7435 9.20007C18.7435 15.4491 10.749 23.453 9.3718 23.453C7.47198 23.453 0 15.4531 0 9.20007C0 7.99191 0.242418 6.79552 0.713394 5.67932C1.18437 4.56313 1.87464 3.549 2.7449 2.6947C3.61515 1.8404 4.64833 1.16266 5.78537 0.700317C6.92241 0.237974 8.14108 0 9.3718 0C10.6025 0 11.8212 0.237974 12.9582 0.700317C14.0953 1.16266 15.1284 1.8404 15.9986 2.6947C16.8689 3.549 17.5592 4.56313 18.0302 5.67932C18.5012 6.79552 18.7435 7.99191 18.7435 9.20007Z" fill="white"/>
<path d="M9.32427 22.5161C8.69575 22.3441 6.69713 20.7691 4.60987 17.9701C2.26692 14.8351 0.93042 11.6352 0.93042 9.19116C0.933116 6.99572 1.82271 4.89092 3.40411 3.3385C4.98551 1.78609 7.12955 0.912803 9.36599 0.910156C11.6024 0.912803 13.7465 1.78609 15.3279 3.3385C16.9093 4.89092 17.7989 6.99572 17.8016 9.19116C17.8016 12.4022 15.4444 15.9792 14.0387 17.8262C12.765 19.6532 11.1683 21.2415 9.32427 22.5161Z" fill="#FFC217"/>
</svg>
