<svg width="19" height="24" viewBox="0 0 19 24" fill="none" xmlns="http://www.w3.org/2000/svg">
<path d="M18.7435 9.20007C18.7435 15.4491 10.749 23.453 9.3718 23.453C7.47198 23.453 0 15.4531 0 9.20007C0 7.99191 0.242418 6.79552 0.713394 5.67932C1.18437 4.56313 1.87464 3.549 2.7449 2.6947C3.61515 1.8404 4.64833 1.16266 5.78537 0.700317C6.92241 0.237974 8.14108 0 9.3718 0C10.6025 0 11.8212 0.237974 12.9582 0.700317C14.0953 1.16266 15.1284 1.8404 15.9986 2.6947C16.8689 3.549 17.5592 4.56313 18.0302 5.67932C18.5012 6.79552 18.7435 7.99191 18.7435 9.20007Z" fill="white"/>
<path d="M9.32452 22.5161C8.696 22.3441 6.69737 20.7691 4.61011 17.9701C2.26716 14.8351 0.930664 11.6352 0.930664 9.19116C0.93336 6.99572 1.82295 4.89092 3.40435 3.3385C4.98576 1.78609 7.1298 0.912803 9.36624 0.910156C11.6027 0.912803 13.7468 1.78609 15.3282 3.3385C16.9096 4.89092 17.7992 6.99572 17.8019 9.19116C17.8019 12.4022 15.4447 15.9792 14.0389 17.8262C12.7652 19.6532 11.1686 21.2415 9.32452 22.5161Z" fill="#FFC217"/>
<path d="M6.67232 12.5028H6.36667C6.07596 12.5025 5.79726 12.3891 5.5916 12.1874C5.38594 11.9857 5.27007 11.7122 5.26953 11.4268V7.75177C5.27007 7.46639 5.38594 7.19285 5.5916 6.99115C5.79726 6.78945 6.07596 6.67605 6.36667 6.67578H10.2163C10.5068 6.67631 10.7853 6.78984 10.9907 6.99152C11.1962 7.19319 11.3118 7.46656 11.3123 7.75177V10.4218C11.3123 10.5013 11.2802 10.5777 11.2229 10.6339C11.1656 10.6902 11.0878 10.7218 11.0068 10.7218C10.9257 10.7218 10.848 10.6902 10.7907 10.6339C10.7333 10.5777 10.7011 10.5013 10.7011 10.4218V7.75177C10.7011 7.69005 10.6888 7.62892 10.6647 7.5719C10.6406 7.51488 10.6053 7.46308 10.5609 7.41943C10.5164 7.37579 10.4636 7.34119 10.4055 7.31757C10.3475 7.29395 10.2853 7.28177 10.2224 7.28177H6.36667C6.23969 7.28177 6.11798 7.33129 6.02819 7.41943C5.9384 7.50758 5.88792 7.62712 5.88792 7.75177V11.4268C5.88792 11.5514 5.9384 11.671 6.02819 11.7591C6.11798 11.8473 6.23969 11.8968 6.36667 11.8968H6.67232C6.71245 11.8968 6.75213 11.9045 6.78921 11.9196C6.82629 11.9347 6.86006 11.9568 6.88844 11.9846C6.91682 12.0125 6.93924 12.0456 6.95459 12.082C6.96995 12.1184 6.97785 12.1574 6.97785 12.1968C6.97866 12.2367 6.97145 12.2763 6.95646 12.3134C6.94147 12.3505 6.91901 12.3843 6.89055 12.4128C6.86209 12.4413 6.82818 12.4639 6.7907 12.4794C6.75322 12.4948 6.71297 12.5028 6.67232 12.5028Z" fill="#176CF7"/>
<path d="M13.4034 12.4682H12.2034C12.1633 12.4682 12.1236 12.4605 12.0865 12.4454C12.0494 12.4303 12.0158 12.4082 11.9874 12.3804C11.959 12.3525 11.9365 12.3194 11.9211 12.283C11.9058 12.2466 11.8979 12.2076 11.8979 12.1682C11.8979 12.0887 11.9301 12.0123 11.9874 11.9561C12.0447 11.8998 12.1223 11.8682 12.2034 11.8682H13.1732V10.1622C13.1718 10.0785 13.1436 9.99739 13.0927 9.93023L12.2034 8.77022C12.1889 8.75335 12.1709 8.73984 12.1504 8.73067C12.13 8.72151 12.1077 8.71691 12.0853 8.71721H10.9891C10.9081 8.71721 10.8304 8.68561 10.7731 8.62935C10.7158 8.57309 10.6836 8.49679 10.6836 8.41723C10.6836 8.37783 10.6915 8.33882 10.7068 8.30242C10.7222 8.26602 10.7447 8.23296 10.7731 8.2051C10.8015 8.17724 10.8352 8.15514 10.8722 8.14006C10.9093 8.12499 10.949 8.11721 10.9891 8.11721H12.0853C12.2029 8.11637 12.319 8.142 12.425 8.1921C12.5309 8.24219 12.6238 8.31542 12.6964 8.40621L13.5899 9.57222C13.7204 9.74394 13.7917 9.952 13.7936 10.1662V12.1002C13.7901 12.1993 13.7474 12.2932 13.6746 12.362C13.6017 12.4307 13.5044 12.4688 13.4034 12.4682Z" fill="#176CF7"/>
<path d="M11.2894 13.299C10.9737 13.2987 10.6709 13.1754 10.4477 12.9563C10.2244 12.7371 10.0989 12.4399 10.0986 12.1299C10.0989 11.82 10.2244 11.5228 10.4477 11.3036C10.6709 11.0844 10.9737 10.9612 11.2894 10.9609C11.6051 10.9612 11.908 11.0844 12.1313 11.3036C12.3545 11.5228 12.48 11.82 12.4803 12.1299C12.48 12.4399 12.3545 12.7371 12.1313 12.9563C11.908 13.1754 11.6051 13.2987 11.2894 13.299ZM11.2894 11.5679C11.1377 11.5682 10.9922 11.6275 10.8849 11.7328C10.7776 11.8382 10.7173 11.981 10.717 12.1299C10.7173 12.2789 10.7776 12.4217 10.8849 12.527C10.9922 12.6324 11.1377 12.6917 11.2894 12.692C11.4412 12.6917 11.5867 12.6324 11.694 12.527C11.8013 12.4217 11.8616 12.2789 11.8619 12.1299C11.8616 11.981 11.8013 11.8382 11.694 11.7328C11.5867 11.6275 11.4412 11.5682 11.2894 11.5679Z" fill="#176CF7"/>
<path d="M7.55418 13.299C7.23843 13.2987 6.93572 13.1754 6.71246 12.9563C6.48919 12.7371 6.36355 12.4399 6.36328 12.1299C6.36355 11.82 6.48919 11.5228 6.71246 11.3036C6.93572 11.0844 7.23843 10.9612 7.55418 10.9609C7.86992 10.9612 8.17264 11.0844 8.3959 11.3036C8.61917 11.5228 8.74468 11.82 8.74495 12.1299C8.74468 12.4399 8.61917 12.7371 8.3959 12.9563C8.17264 13.1754 7.86992 13.2987 7.55418 13.299ZM7.55418 11.5679C7.40243 11.5682 7.25697 11.6275 7.14967 11.7328C7.04236 11.8382 6.98194 11.981 6.98167 12.1299C6.98194 12.2789 7.04236 12.4217 7.14967 12.527C7.25697 12.6324 7.40243 12.6917 7.55418 12.692C7.70593 12.6917 7.85138 12.6324 7.95869 12.527C8.06599 12.4217 8.12641 12.2789 8.12668 12.1299C8.12641 11.981 8.06599 11.8382 7.95869 11.7328C7.85138 11.6275 7.70593 11.5682 7.55418 11.5679Z" fill="#176CF7"/>
<path d="M10.4088 12.4848H8.38671C8.30566 12.4848 8.2279 12.4531 8.17059 12.3969C8.11328 12.3406 8.08105 12.2643 8.08105 12.1848C8.08105 12.1052 8.11328 12.0289 8.17059 11.9726C8.2279 11.9164 8.30566 11.8848 8.38671 11.8848H10.4066C10.4877 11.8848 10.5655 11.9164 10.6228 11.9726C10.6801 12.0289 10.7123 12.1052 10.7123 12.1848C10.7123 12.264 10.6804 12.34 10.6235 12.3962C10.5666 12.4524 10.4895 12.4842 10.4088 12.4848Z" fill="#176CF7"/>
</svg>
