<svg width="36" height="41" viewBox="0 0 36 41" fill="none" xmlns="http://www.w3.org/2000/svg">
<g filter="url(#filter0_d_1162_13208)">
<path d="M27 12.0209C27 18.1504 19.3208 26 18.0001 26C16.1757 26 9 18.1496 9 12.0209C9 10.8363 9.23279 9.6632 9.68509 8.56872C10.1374 7.47423 10.8003 6.47978 11.6361 5.6421C12.4718 4.80443 13.464 4.13995 14.5559 3.68662C15.6479 3.23329 16.8182 2.99997 18.0001 3C20.387 3 22.6762 3.9504 24.364 5.64216C26.0518 7.33391 27 9.62842 27 12.0209Z" fill="white"/>
</g>
<path d="M17.96 25.3378C17.3529 25.1664 15.4246 23.6007 13.4094 20.8189C11.1519 17.7023 9.85742 14.5216 9.85742 12.0917C9.85989 9.90902 10.7186 7.81649 12.2451 6.27313C13.7717 4.72977 15.8414 3.86163 18.0003 3.85913C20.1591 3.86163 22.2289 4.72977 23.7554 6.27313C25.282 7.81649 26.1407 9.90902 26.1431 12.0917C26.1431 15.2838 23.8675 18.8402 22.5109 20.6755C20.5306 23.3557 18.5631 25.0756 17.96 25.3378Z" fill="#176CF7"/>
<path d="M20.4206 16.5092V15.004H17.448L19.1349 13.4988C19.8034 12.9008 20.4103 12.2925 20.4103 11.2513C20.4103 9.72541 19.1143 9.01404 17.7771 9.01404C16.3577 9.01404 15.1646 9.89037 15 11.3647L16.656 11.5915C16.728 10.942 17.1086 10.4883 17.6846 10.4883C18.2297 10.4883 18.5897 10.8492 18.5897 11.3647C18.5897 11.808 18.3531 12.1482 17.9931 12.4884L15.1543 15.0659V16.5092H20.4206Z" fill="white"/>
<defs>
<filter id="filter0_d_1162_13208" x="0" y="0" width="36" height="41" filterUnits="userSpaceOnUse" color-interpolation-filters="sRGB">
<feFlood flood-opacity="0" result="BackgroundImageFix"/>
<feColorMatrix in="SourceAlpha" type="matrix" values="0 0 0 0 0 0 0 0 0 0 0 0 0 0 0 0 0 0 127 0" result="hardAlpha"/>
<feOffset dy="6"/>
<feGaussianBlur stdDeviation="4.5"/>
<feColorMatrix type="matrix" values="0 0 0 0 0 0 0 0 0 0 0 0 0 0 0 0 0 0 0.161 0"/>
<feBlend mode="normal" in2="BackgroundImageFix" result="effect1_dropShadow_1162_13208"/>
<feBlend mode="normal" in="SourceGraphic" in2="effect1_dropShadow_1162_13208" result="shape"/>
</filter>
</defs>
</svg>
