<svg width="39" height="45" viewBox="0 0 39 45" fill="none" xmlns="http://www.w3.org/2000/svg">
<g filter="url(#filter0_d_335_6145)">
<path d="M30 13.4999C30 20.6343 21.0409 29.7708 19.5001 29.7708C17.3716 29.7708 9 20.6333 9 13.4999C9 12.121 9.27159 10.7556 9.79928 9.48168C10.327 8.20776 11.1004 7.05027 12.0754 6.07527C13.0505 5.10026 14.208 4.32684 15.4819 3.79919C16.7558 3.27153 18.1212 2.99997 19.5001 3C22.2849 3 24.9555 4.10622 26.9247 6.07533C28.8938 8.04444 30 10.7151 30 13.4999Z" fill="white"/>
</g>
<path d="M19.4068 28.6644C18.702 28.4676 16.4633 26.6697 14.1237 23.4752C11.5029 19.8964 10 16.2439 10 13.4536C10.0029 10.9472 10.9998 8.54431 12.772 6.77204C14.5443 4.99977 16.9472 4.00286 19.4536 4C21.96 4.00286 24.3628 4.99977 26.1351 6.77204C27.9074 8.54431 28.9043 10.9472 28.9072 13.4536C28.9072 17.1192 26.2652 21.203 24.6902 23.3106C22.3912 26.3883 20.107 28.3633 19.4068 28.6644Z" fill="#FFC217"/>
<path d="M22.0811 19V17.248H18.6131L20.5811 15.496C21.3611 14.8 22.0691 14.092 22.0691 12.88C22.0691 11.104 20.5571 10.276 18.9971 10.276C17.3411 10.276 15.9491 11.296 15.7571 13.012L17.6891 13.276C17.7731 12.52 18.2171 11.992 18.8891 11.992C19.5251 11.992 19.9451 12.412 19.9451 13.012C19.9451 13.528 19.6691 13.924 19.2491 14.32L15.9371 17.32V19H22.0811Z" fill="#176CF7"/>
<defs>
<filter id="filter0_d_335_6145" x="0" y="0" width="39" height="44.7708" filterUnits="userSpaceOnUse" color-interpolation-filters="sRGB">
<feFlood flood-opacity="0" result="BackgroundImageFix"/>
<feColorMatrix in="SourceAlpha" type="matrix" values="0 0 0 0 0 0 0 0 0 0 0 0 0 0 0 0 0 0 127 0" result="hardAlpha"/>
<feOffset dy="6"/>
<feGaussianBlur stdDeviation="4.5"/>
<feColorMatrix type="matrix" values="0 0 0 0 0 0 0 0 0 0 0 0 0 0 0 0 0 0 0.161 0"/>
<feBlend mode="normal" in2="BackgroundImageFix" result="effect1_dropShadow_335_6145"/>
<feBlend mode="normal" in="SourceGraphic" in2="effect1_dropShadow_335_6145" result="shape"/>
</filter>
</defs>
</svg>
