<svg width="39" height="45" viewBox="0 0 39 45" fill="none" xmlns="http://www.w3.org/2000/svg">
<g filter="url(#filter0_d_333_6234)">
<path d="M30 13.4999C30 20.6343 21.0409 29.7708 19.5001 29.7708C17.3716 29.7708 9 20.6333 9 13.4999C9 12.121 9.27159 10.7556 9.79928 9.48168C10.327 8.20776 11.1004 7.05027 12.0754 6.07527C13.0505 5.10026 14.208 4.32684 15.4819 3.79919C16.7558 3.27153 18.1212 2.99997 19.5001 3C22.2849 3 24.9555 4.10622 26.9247 6.07533C28.8938 8.04444 30 10.7151 30 13.4999Z" fill="white"/>
</g>
<path d="M19.4527 28.7114C18.7479 28.5146 16.5092 26.7167 14.1696 23.5222C11.5488 19.9434 10.0459 16.2909 10.0459 13.5006C10.0488 10.9942 11.0457 8.59131 12.8179 6.81904C14.5902 5.04677 16.9931 4.04986 19.4995 4.047C22.0058 4.04986 24.4087 5.04677 26.181 6.81904C27.9533 8.59131 28.9502 10.9942 28.9531 13.5006C28.9531 17.1662 26.3111 21.25 24.7361 23.3576C22.4371 26.4353 20.1529 28.4103 19.4527 28.7114Z" fill="#176CF7"/>
<path d="M20.5332 19V10.504H18.6852L15.8892 12.556L16.9332 13.984L18.5172 12.76V19H20.5332Z" fill="white"/>
<defs>
<filter id="filter0_d_333_6234" x="0" y="0" width="39" height="44.7708" filterUnits="userSpaceOnUse" color-interpolation-filters="sRGB">
<feFlood flood-opacity="0" result="BackgroundImageFix"/>
<feColorMatrix in="SourceAlpha" type="matrix" values="0 0 0 0 0 0 0 0 0 0 0 0 0 0 0 0 0 0 127 0" result="hardAlpha"/>
<feOffset dy="6"/>
<feGaussianBlur stdDeviation="4.5"/>
<feColorMatrix type="matrix" values="0 0 0 0 0 0 0 0 0 0 0 0 0 0 0 0 0 0 0.161 0"/>
<feBlend mode="normal" in2="BackgroundImageFix" result="effect1_dropShadow_333_6234"/>
<feBlend mode="normal" in="SourceGraphic" in2="effect1_dropShadow_333_6234" result="shape"/>
</filter>
</defs>
</svg>
