<svg width="15" height="22" viewBox="0 0 15 22" fill="none" xmlns="http://www.w3.org/2000/svg">
<path d="M7.11261 19.793C5.53277 18.0323 4.14525 16.1081 2.97361 14.053C1.97377 12.497 1.28601 10.7615 0.948607 8.94302C0.686064 7.87045 0.706351 6.7481 1.00748 5.68572C1.30862 4.62334 1.88029 3.65729 2.66661 2.88202C3.86112 1.70682 5.46039 1.03379 7.13577 1.00124C8.81115 0.96869 10.4354 1.5791 11.6746 2.70702C12.8658 3.7894 13.6035 5.28229 13.7396 6.88602C13.7431 6.88996 13.7458 6.89454 13.7475 6.89952C13.7492 6.9045 13.7499 6.90976 13.7496 6.91502C13.7496 6.93402 13.7496 6.95302 13.7496 6.97302C13.7596 7.12502 13.7656 7.27302 13.7656 7.42602V7.45902C13.7656 7.58102 13.7656 7.70002 13.7536 7.82202C13.7131 8.48372 13.569 9.13497 13.3266 9.75202C12.9947 10.7403 12.6061 11.7086 12.1626 12.652C11.2918 14.5146 10.1924 16.2614 8.88961 17.852C8.34025 18.5368 7.74665 19.1848 7.11261 19.792V19.793ZM7.26661 4.61502C6.7911 4.62034 6.32779 4.76623 5.93502 5.03431C5.54224 5.30238 5.23755 5.68067 5.05931 6.12154C4.88106 6.56241 4.83723 7.04616 4.93333 7.51188C5.02943 7.97761 5.26116 8.4045 5.59935 8.73881C5.93755 9.07312 6.36709 9.2999 6.8339 9.39061C7.3007 9.48132 7.78391 9.4319 8.22269 9.24858C8.66148 9.06525 9.03621 8.75621 9.29973 8.36036C9.56325 7.96452 9.70378 7.49956 9.70361 7.02402C9.69911 6.38164 9.44002 5.76727 8.98317 5.31567C8.52631 4.86406 7.90899 4.61209 7.26661 4.61502Z" fill="white" stroke="#707070" stroke-width="1.5"/>
</svg>
