<svg width="37" height="42" viewBox="0 0 37 42" fill="none" xmlns="http://www.w3.org/2000/svg">
<g filter="url(#filter0_d_1535_93502)">
<path d="M27.8265 12.4131C27.8265 18.8091 19.7947 27 18.4134 27C16.5051 27 9 18.8083 9 12.4131C9 11.177 9.24348 9.9529 9.71655 8.81083C10.1896 7.66876 10.883 6.63107 11.7571 5.75698C12.6312 4.88288 13.669 4.18951 14.811 3.71647C15.9531 3.24343 17.1772 2.99997 18.4134 3C20.9099 3 23.3042 3.99172 25.0695 5.75703C26.8348 7.52234 27.8265 9.91661 27.8265 12.4131Z" fill="white"/>
</g>
<path d="M18.3709 26.0503C17.739 25.8738 15.7319 24.2621 13.6345 21.3982C11.285 18.1898 9.93762 14.9153 9.93762 12.4138C9.94019 10.1668 10.8339 8.01264 12.4228 6.4238C14.0116 4.83496 16.1658 3.94123 18.4128 3.93866C20.6597 3.94123 22.8139 4.83496 24.4028 6.4238C25.9916 8.01264 26.8853 10.1668 26.8879 12.4138C26.8879 15.7 24.5194 19.3612 23.1074 21.2507C21.0464 24.0098 18.9985 25.7803 18.3709 26.0503Z" fill="#FFC217"/>
<path d="M19.3394 17.344V9.72736H17.6827L15.1761 11.567L16.112 12.8472L17.5321 11.7499V17.344H19.3394Z" fill="#176CF7"/>
<defs>
<filter id="filter0_d_1535_93502" x="0" y="0" width="36.8265" height="42" filterUnits="userSpaceOnUse" color-interpolation-filters="sRGB">
<feFlood flood-opacity="0" result="BackgroundImageFix"/>
<feColorMatrix in="SourceAlpha" type="matrix" values="0 0 0 0 0 0 0 0 0 0 0 0 0 0 0 0 0 0 127 0" result="hardAlpha"/>
<feOffset dy="6"/>
<feGaussianBlur stdDeviation="4.5"/>
<feColorMatrix type="matrix" values="0 0 0 0 0 0 0 0 0 0 0 0 0 0 0 0 0 0 0.161 0"/>
<feBlend mode="normal" in2="BackgroundImageFix" result="effect1_dropShadow_1535_93502"/>
<feBlend mode="normal" in="SourceGraphic" in2="effect1_dropShadow_1535_93502" result="shape"/>
</filter>
</defs>
</svg>
