<svg width="39" height="45" viewBox="0 0 39 45" fill="none" xmlns="http://www.w3.org/2000/svg">
<g filter="url(#filter0_d_333_6231)">
<path d="M30 13.4999C30 20.6343 21.0409 29.7708 19.5001 29.7708C17.3716 29.7708 9 20.6333 9 13.4999C9 12.121 9.27159 10.7556 9.79928 9.48168C10.327 8.20776 11.1004 7.05027 12.0754 6.07527C13.0505 5.10026 14.208 4.32684 15.4819 3.79919C16.7558 3.27153 18.1212 2.99997 19.5001 3C22.2849 3 24.9555 4.10622 26.9247 6.07533C28.8938 8.04444 30 10.7151 30 13.4999Z" fill="white"/>
</g>
<path d="M19.4527 28.7114C18.7479 28.5146 16.5092 26.7167 14.1696 23.5222C11.5488 19.9434 10.0459 16.2909 10.0459 13.5006C10.0488 10.9942 11.0457 8.59131 12.8179 6.81904C14.5902 5.04677 16.9931 4.04986 19.4995 4.047C22.0058 4.04986 24.4087 5.04677 26.181 6.81904C27.9533 8.59131 28.9502 10.9942 28.9531 13.5006C28.9531 17.1662 26.3111 21.25 24.7361 23.3576C22.4371 26.4353 20.1529 28.4103 19.4527 28.7114Z" fill="#176CF7"/>
<path d="M22.612 16.252C22.612 15.304 21.94 14.512 20.98 14.284V14.248C21.808 14.032 22.408 13.336 22.408 12.4C22.408 10.768 20.92 10 19.42 10C18.004 10 16.66 10.732 16.252 12.16L18.124 12.592C18.256 12.016 18.712 11.644 19.288 11.644C19.84 11.644 20.356 11.968 20.356 12.58C20.356 13.396 19.624 13.588 18.868 13.588H18.28V15.064H18.82C19.66 15.064 20.548 15.316 20.548 16.18C20.548 16.972 19.888 17.26 19.312 17.26C18.544 17.26 18.028 16.768 17.872 16.204L16 16.696C16.456 18.28 17.86 18.952 19.408 18.952C20.968 18.952 22.612 18.112 22.612 16.252Z" fill="white"/>
<defs>
<filter id="filter0_d_333_6231" x="0" y="0" width="39" height="44.7708" filterUnits="userSpaceOnUse" color-interpolation-filters="sRGB">
<feFlood flood-opacity="0" result="BackgroundImageFix"/>
<feColorMatrix in="SourceAlpha" type="matrix" values="0 0 0 0 0 0 0 0 0 0 0 0 0 0 0 0 0 0 127 0" result="hardAlpha"/>
<feOffset dy="6"/>
<feGaussianBlur stdDeviation="4.5"/>
<feColorMatrix type="matrix" values="0 0 0 0 0 0 0 0 0 0 0 0 0 0 0 0 0 0 0.161 0"/>
<feBlend mode="normal" in2="BackgroundImageFix" result="effect1_dropShadow_333_6231"/>
<feBlend mode="normal" in="SourceGraphic" in2="effect1_dropShadow_333_6231" result="shape"/>
</filter>
</defs>
</svg>
