<svg width="39" height="45" viewBox="0 0 39 45" fill="none" xmlns="http://www.w3.org/2000/svg">
<g filter="url(#filter0_d_1162_13409)">
<path d="M30 13.4995C30 20.6327 21.0409 29.77 19.5 29.77C17.3717 29.77 9 20.6334 9 13.4995C9 10.7149 10.1062 8.04429 12.0754 6.07524C14.0445 4.1062 16.7152 3 19.5 3C22.2848 3 24.9555 4.1062 26.9246 6.07524C28.8938 8.04429 30 10.7149 30 13.4995Z" fill="white"/>
</g>
<path d="M19.4531 28.7108C18.748 28.5148 16.5097 26.7163 14.1702 23.5216C11.5495 19.9433 10.0466 16.2908 10.0466 13.5006C10.0496 10.9944 11.0465 8.59166 12.8188 6.81949C14.591 5.04732 16.9939 4.05042 19.5002 4.04749C22.0065 4.05042 24.4093 5.04732 26.1816 6.81949C27.9538 8.59166 28.9508 10.9944 28.9537 13.5006C28.9537 17.1662 26.3116 21.2493 24.7367 23.3574C22.4374 26.435 20.156 28.4102 19.4531 28.7108Z" fill="#FFC217"/>
<path d="M16.1788 16.7953L15.7929 16.7962C15.415 16.7966 15.0524 16.6553 14.7847 16.4032C14.5169 16.1511 14.366 15.8088 14.3649 15.4515L14.3571 11.0644C14.3569 10.707 14.5067 10.3642 14.7735 10.1109C15.0403 9.85759 15.4024 9.71463 15.7804 9.71334L20.5531 9.70259C20.9305 9.70303 21.2923 9.84472 21.5594 10.0967C21.8265 10.3486 21.9772 10.6904 21.9785 11.0472L21.9841 14.237C21.9841 14.3497 21.9368 14.4579 21.8527 14.5378C21.7685 14.6177 21.6543 14.6628 21.5351 14.6633C21.4158 14.6633 21.3015 14.6187 21.217 14.5392C21.1325 14.4597 21.0849 14.3517 21.0845 14.239L21.0788 11.0492C21.0786 10.9176 21.0232 10.7915 20.9248 10.6985C20.8263 10.6056 20.6929 10.5533 20.5537 10.5532L15.7827 10.564C15.6433 10.5643 15.5096 10.6169 15.4111 10.7104C15.3127 10.8038 15.2575 10.9305 15.2577 11.0623L15.2655 15.4495C15.2657 15.5814 15.3213 15.7077 15.4202 15.8008C15.519 15.8938 15.6528 15.9459 15.7923 15.9456L16.1781 15.9447C16.2975 15.9444 16.4119 15.989 16.4964 16.0686C16.5809 16.1482 16.6285 16.2562 16.6287 16.369C16.6288 16.4249 16.6172 16.4803 16.5947 16.532C16.5721 16.5837 16.539 16.6307 16.4972 16.6703C16.4554 16.7099 16.4058 16.7414 16.3511 16.7628C16.2965 16.7843 16.2379 16.7953 16.1788 16.7953Z" fill="#176CF7"/>
<path d="M24.5174 16.7386L23.0282 16.7422C22.9089 16.7425 22.7944 16.6979 22.7099 16.6183C22.6254 16.5388 22.5777 16.4307 22.5776 16.3179C22.5774 16.2051 22.6246 16.0969 22.7089 16.0169C22.7931 15.937 22.9075 15.8918 23.0268 15.8916L24.1629 15.8888L24.1596 13.9154C24.158 13.8291 24.1276 13.7455 24.0727 13.6767L22.9698 12.293C22.9581 12.2809 22.9438 12.2712 22.9278 12.2648C22.9118 12.2583 22.8945 12.2552 22.8771 12.2556L21.5195 12.2589C21.4002 12.2592 21.2856 12.2147 21.2011 12.1351C21.1166 12.0556 21.069 11.9474 21.0688 11.8346C21.0686 11.7218 21.1158 11.6136 21.2001 11.5336C21.2843 11.4537 21.3987 11.4086 21.5181 11.4084L22.8765 11.4051C23.0319 11.4043 23.1855 11.437 23.3253 11.5009C23.4652 11.5648 23.5878 11.658 23.6836 11.7736L24.7927 13.1614C24.9637 13.376 25.0572 13.637 25.0595 13.9058L25.0633 16.2163C25.0639 16.2844 25.0502 16.3521 25.0231 16.4153C24.9959 16.4785 24.9558 16.536 24.9051 16.5845C24.8544 16.6331 24.794 16.6716 24.7275 16.6981C24.6609 16.7245 24.5895 16.7383 24.5174 16.7386Z" fill="#176CF7"/>
<path d="M21.8971 17.7317C21.4882 17.7321 21.096 17.5792 20.8064 17.3066C20.5168 17.034 20.3534 16.6639 20.352 16.2774C20.3521 15.8909 20.5142 15.52 20.8029 15.246C21.0916 14.972 21.4833 14.8172 21.8922 14.8155C22.3013 14.815 22.6938 14.9678 22.9835 15.2405C23.2733 15.5131 23.4368 15.8833 23.4381 16.27C23.4381 16.6566 23.2758 17.0277 22.987 17.3017C22.6981 17.5757 22.3061 17.7303 21.8971 17.7317ZM21.8936 15.666C21.7232 15.6667 21.56 15.7311 21.4397 15.8453C21.3193 15.9595 21.2518 16.1141 21.2518 16.2752C21.2523 16.4363 21.3204 16.5905 21.4411 16.7041C21.5618 16.8177 21.7252 16.8814 21.8957 16.8812C22.0662 16.8808 22.2297 16.8165 22.3502 16.7022C22.4707 16.588 22.5384 16.4334 22.5384 16.2721C22.5381 16.1108 22.47 15.9562 22.3491 15.8423C22.2282 15.7285 22.0644 15.6648 21.8936 15.6652L21.8936 15.666Z" fill="#176CF7"/>
<path d="M17.2643 17.7414C16.8553 17.7419 16.4629 17.5891 16.1733 17.3164C15.8836 17.0438 15.7203 16.6736 15.7192 16.287C15.7193 15.9005 15.8814 15.5296 16.1701 15.2556C16.4588 14.9816 16.8505 14.8268 17.2594 14.8252C17.6683 14.8248 18.0605 14.9778 18.3501 15.2504C18.6397 15.523 18.8031 15.8931 18.8045 16.2796C18.8046 16.6662 18.6426 17.0372 18.3538 17.3112C18.0651 17.5853 17.6733 17.74 17.2643 17.7414ZM17.2608 15.6757C17.0904 15.6763 16.9272 15.7408 16.8068 15.855C16.6865 15.9691 16.619 16.1238 16.619 16.2849C16.6195 16.4459 16.6876 16.6001 16.8083 16.7138C16.929 16.8274 17.0924 16.8911 17.2629 16.8909C17.4333 16.8905 17.5967 16.826 17.7171 16.7118C17.8375 16.5976 17.9049 16.4429 17.9046 16.2818C17.9044 16.1206 17.8365 15.9661 17.7157 15.8523C17.595 15.7385 17.4314 15.6747 17.2608 15.6749L17.2608 15.6757Z" fill="#176CF7"/>
<path d="M20.7995 16.7619L18.2972 16.7676C18.1779 16.7679 18.0634 16.7233 17.9789 16.6439C17.8944 16.5644 17.8469 16.4565 17.8467 16.3438C17.8465 16.2312 17.8937 16.1231 17.9779 16.0432C18.0621 15.9634 18.1764 15.9183 18.2957 15.918L20.7981 15.9123C20.9173 15.912 21.0319 15.9565 21.1163 16.036C21.2008 16.1155 21.2484 16.2234 21.2486 16.336C21.2488 16.4487 21.2016 16.5568 21.1174 16.6367C21.0332 16.7165 20.9188 16.7616 20.7995 16.7619Z" fill="#176CF7"/>
<defs>
<filter id="filter0_d_1162_13409" x="0" y="0" width="39" height="44.77" filterUnits="userSpaceOnUse" color-interpolation-filters="sRGB">
<feFlood flood-opacity="0" result="BackgroundImageFix"/>
<feColorMatrix in="SourceAlpha" type="matrix" values="0 0 0 0 0 0 0 0 0 0 0 0 0 0 0 0 0 0 127 0" result="hardAlpha"/>
<feOffset dy="6"/>
<feGaussianBlur stdDeviation="4.5"/>
<feColorMatrix type="matrix" values="0 0 0 0 0 0 0 0 0 0 0 0 0 0 0 0 0 0 0.161 0"/>
<feBlend mode="normal" in2="BackgroundImageFix" result="effect1_dropShadow_1162_13409"/>
<feBlend mode="normal" in="SourceGraphic" in2="effect1_dropShadow_1162_13409" result="shape"/>
</filter>
</defs>
</svg>
