<svg width="36" height="41" viewBox="0 0 36 41" fill="none" xmlns="http://www.w3.org/2000/svg">
<g filter="url(#filter0_d_1162_13211)">
<path d="M27 12.0209C27 18.1504 19.3208 26 18.0001 26C16.1757 26 9 18.1496 9 12.0209C9 10.8363 9.23279 9.6632 9.68509 8.56872C10.1374 7.47423 10.8003 6.47978 11.6361 5.6421C12.4718 4.80443 13.464 4.13995 14.5559 3.68662C15.6479 3.23329 16.8182 2.99997 18.0001 3C20.387 3 22.6762 3.9504 24.364 5.64216C26.0518 7.33391 27 9.62842 27 12.0209Z" fill="white"/>
</g>
<path d="M17.9595 25.0899C17.3554 24.9208 15.4364 23.3761 13.4311 20.6316C11.1847 17.5569 9.89648 14.4188 9.89648 12.0215C9.89894 9.86821 10.7534 7.80377 12.2725 6.28113C13.7916 4.75849 15.8512 3.902 17.9996 3.89954C20.1479 3.902 22.2075 4.75849 23.7266 6.28113C25.2457 7.80377 26.1002 9.86821 26.1026 12.0215C26.1026 15.1708 23.8381 18.6795 22.4881 20.4902C20.5175 23.1343 18.5596 24.8311 17.9595 25.0899Z" fill="#176CF7"/>
<path d="M20.6674 14.3854C20.6674 13.571 20.0914 12.8905 19.2686 12.6946V12.6637C19.9783 12.4781 20.4926 11.8802 20.4926 11.076C20.4926 9.67386 19.2171 9.01404 17.9314 9.01404C16.7177 9.01404 15.5657 9.64293 15.216 10.8698L16.8206 11.2409C16.9337 10.7461 17.3246 10.4265 17.8183 10.4265C18.2914 10.4265 18.7337 10.7048 18.7337 11.2306C18.7337 11.9317 18.1063 12.0967 17.4583 12.0967H16.9543V13.3648H17.4171C18.1371 13.3648 18.8983 13.5813 18.8983 14.3236C18.8983 15.004 18.3326 15.2514 17.8389 15.2514C17.1806 15.2514 16.7383 14.8287 16.6046 14.3442L15 14.7669C15.3909 16.1278 16.5943 16.7051 17.9211 16.7051C19.2583 16.7051 20.6674 15.9834 20.6674 14.3854Z" fill="white"/>
<defs>
<filter id="filter0_d_1162_13211" x="0" y="0" width="36" height="41" filterUnits="userSpaceOnUse" color-interpolation-filters="sRGB">
<feFlood flood-opacity="0" result="BackgroundImageFix"/>
<feColorMatrix in="SourceAlpha" type="matrix" values="0 0 0 0 0 0 0 0 0 0 0 0 0 0 0 0 0 0 127 0" result="hardAlpha"/>
<feOffset dy="6"/>
<feGaussianBlur stdDeviation="4.5"/>
<feColorMatrix type="matrix" values="0 0 0 0 0 0 0 0 0 0 0 0 0 0 0 0 0 0 0.161 0"/>
<feBlend mode="normal" in2="BackgroundImageFix" result="effect1_dropShadow_1162_13211"/>
<feBlend mode="normal" in="SourceGraphic" in2="effect1_dropShadow_1162_13211" result="shape"/>
</filter>
</defs>
</svg>
