<svg width="48" height="48" viewBox="0 0 48 48" fill="none" xmlns="http://www.w3.org/2000/svg">
<path d="M21.5615 24.4714H4.86426V44.508H21.5615V24.4714Z" fill="#176CF7" stroke="black" stroke-width="0.5" stroke-linecap="round" stroke-linejoin="round"/>
<path d="M20.8936 16.1229H5.53214C5.16328 16.1229 4.86426 16.4219 4.86426 16.7907V25.4733C4.86426 25.8422 5.16328 26.1412 5.53214 26.1412H20.8936C21.2625 26.1412 21.5615 25.8422 21.5615 25.4733V16.7907C21.5615 16.4219 21.2625 16.1229 20.8936 16.1229Z" fill="#1256C6" stroke="black" stroke-width="0.5" stroke-linecap="round" stroke-linejoin="round"/>
<path d="M19.5581 17.7927H6.86813C6.68366 17.7927 6.53418 17.9421 6.53418 18.1266V24.1376C6.53418 24.322 6.68366 24.4715 6.86813 24.4715H19.5581C19.7425 24.4715 19.892 24.322 19.892 24.1376V18.1266C19.892 17.9421 19.7425 17.7927 19.5581 17.7927Z" fill="#FFC217" stroke="black" stroke-width="0.5" stroke-linecap="round" stroke-linejoin="round"/>
<path d="M26.9891 31.3234V39.466C26.9891 40.6244 26.059 41.5868 24.9006 41.5862C24.6262 41.5857 24.3546 41.5312 24.1012 41.4258C23.8479 41.3203 23.6178 41.166 23.4242 40.9716C23.2305 40.7772 23.077 40.5466 22.9724 40.2929C22.8678 40.0392 22.8143 39.7674 22.8148 39.493C22.8168 38.8074 22.247 38.2468 21.5625 38.2468V37.4119C22.7079 37.4119 23.654 38.349 23.6496 39.4944C23.6488 39.8263 23.7795 40.145 24.0132 40.3806C24.247 40.6162 24.5647 40.7496 24.8966 40.7514C25.5938 40.7544 26.1542 40.1733 26.1542 39.4756V31.3234H26.9891Z" fill="#FFC217" stroke="black" stroke-width="0.5" stroke-linecap="round" stroke-linejoin="round"/>
<path d="M26.9868 24.4717V31.3236H24.4822C24.0394 31.3236 23.6146 31.1477 23.3015 30.8346C22.9884 30.5214 22.8125 30.0967 22.8125 29.6539V28.2606C22.8125 28.0836 22.8829 27.9137 23.0082 27.7884L26.1519 24.6447L22.9444 21.4388C22.865 21.3612 22.819 21.2557 22.8162 21.1448C22.8133 21.0338 22.8538 20.926 22.929 20.8444C22.9675 20.8044 23.0136 20.7726 23.0646 20.7506C23.1156 20.7286 23.1704 20.7171 23.2258 20.7166C23.2814 20.716 23.3364 20.7266 23.3878 20.7475C23.4392 20.7685 23.4858 20.7995 23.5251 20.8388L26.8646 24.1782C26.9424 24.2561 26.9863 24.3616 26.9868 24.4717Z" fill="#1256C6" stroke="black" stroke-width="0.5" stroke-linecap="round" stroke-linejoin="round"/>
<path d="M13.2134 38.6643C15.5188 38.6643 17.3877 36.7955 17.3877 34.49C17.3877 32.1846 15.5188 30.3157 13.2134 30.3157C10.9079 30.3157 9.03906 32.1846 9.03906 34.49C9.03906 36.7955 10.9079 38.6643 13.2134 38.6643Z" fill="#FFC217" stroke="black" stroke-width="0.5" stroke-linecap="round" stroke-linejoin="round"/>
<path d="M14.5887 34.7351C15.0926 35.7426 14.397 36.9551 13.2713 36.9932H13.2138C13.1944 36.9932 13.1754 36.9932 13.1564 36.9932C12.0303 36.9551 11.3347 35.7426 11.8386 34.7351L13.2138 31.985L14.5887 34.7351Z" fill="#176CF7" stroke="black" stroke-width="0.5" stroke-linecap="round" stroke-linejoin="round"/>
<path d="M32.8611 40.0516H30.9766V44.3098H32.8611V40.0516Z" fill="#1256C6" stroke="#231F20" stroke-width="0.5" stroke-miterlimit="10"/>
<path d="M45.4675 40.0516H43.583V44.3098H45.4675V40.0516Z" fill="#1256C6" stroke="#231F20" stroke-width="0.5" stroke-miterlimit="10"/>
<path d="M30.0674 40.5293V38.8555C30.0674 38.7911 30.1179 38.7405 30.1822 38.7405H46.2648C46.3291 38.7405 46.3797 38.7911 46.3797 38.8555V40.5293C46.3797 40.5937 46.3291 40.6443 46.2648 40.6443H30.1822C30.1202 40.6443 30.0674 40.5937 30.0674 40.5293Z" fill="#176CF7" stroke="black" stroke-width="0.5" stroke-miterlimit="10" stroke-linecap="round" stroke-linejoin="round"/>
<path d="M34.1628 38.7502H32.2783V29.5024C32.2783 29.4381 32.3289 29.3875 32.3932 29.3875H34.0479C34.1123 29.3875 34.1628 29.4381 34.1628 29.5024V38.7502Z" fill="#FFC217" stroke="#231F20" stroke-width="0.5" stroke-miterlimit="10"/>
<path d="M44.1706 38.7502H42.2861V29.5024C42.2861 29.4381 42.3367 29.3875 42.401 29.3875H44.0557C44.1201 29.3875 44.1706 29.4381 44.1706 29.5024V38.7502Z" fill="#FFC217" stroke="#231F20" stroke-width="0.5" stroke-miterlimit="10"/>
<path d="M46.2648 36.4092H30.1822C30.1179 36.4092 30.0674 36.3586 30.0674 36.2942V30.5437C30.0674 30.4793 30.1179 30.4288 30.1822 30.4288H46.2648C46.3291 30.4288 46.3797 30.4793 46.3797 30.5437V36.2942C46.3797 36.3586 46.3291 36.4092 46.2648 36.4092Z" fill="#176CF7" stroke="black" stroke-width="0.5" stroke-miterlimit="10" stroke-linecap="round" stroke-linejoin="round"/>
<path d="M33.2039 32.9143C33.3829 32.9143 33.5279 32.7691 33.5279 32.5901C33.5279 32.411 33.3829 32.2659 33.2039 32.2659C33.0249 32.2659 32.8799 32.411 32.8799 32.5901C32.8799 32.7691 33.0249 32.9143 33.2039 32.9143Z" fill="#FFC217" stroke="#231F20" stroke-width="0.5" stroke-miterlimit="10"/>
<path d="M33.2351 34.572C33.4141 34.572 33.5592 34.4269 33.5592 34.2479C33.5592 34.0688 33.4141 33.9237 33.2351 33.9237C33.0562 33.9237 32.9111 34.0688 32.9111 34.2479C32.9111 34.4269 33.0562 34.572 33.2351 34.572Z" fill="#FFC217" stroke="#231F20" stroke-width="0.5" stroke-miterlimit="10"/>
<path d="M43.2772 32.9142C43.4561 32.9142 43.6012 32.7691 43.6012 32.59C43.6012 32.411 43.4561 32.2658 43.2772 32.2658C43.0982 32.2658 42.9531 32.411 42.9531 32.59C42.9531 32.7691 43.0982 32.9142 43.2772 32.9142Z" fill="#FFC217" stroke="#231F20" stroke-width="0.5" stroke-miterlimit="10"/>
<path d="M43.3084 34.572C43.4874 34.572 43.6324 34.4269 43.6324 34.2478C43.6324 34.0688 43.4874 33.9236 43.3084 33.9236C43.1294 33.9236 42.9844 34.0688 42.9844 34.2478C42.9844 34.4269 43.1294 34.572 43.3084 34.572Z" fill="#FFC217" stroke="#231F20" stroke-width="0.5" stroke-miterlimit="10"/>
<path d="M29.0454 19.6412L29.0454 19.6411C28.2141 18.4734 27.6083 16.943 27.5131 15.4178C27.4181 13.8953 27.8314 12.3875 29.0252 11.2385C31.4337 8.92048 35.3413 8.92048 37.7498 11.2385C38.9436 12.3875 39.3569 13.8953 39.2619 15.4178C39.1667 16.943 38.5609 18.4734 37.7296 19.6411L37.7296 19.6412L34.11 24.7286C33.7565 25.2254 33.0186 25.2255 32.665 24.7286L29.0454 19.6412Z" fill="#176CF7" stroke="black" stroke-width="0.5"/>
<path d="M37.2642 15.1532C37.2642 17.2073 35.5322 18.8832 33.3821 18.8832C31.232 18.8832 29.5 17.2073 29.5 15.1532C29.5 13.0992 31.232 11.4232 33.3821 11.4232C35.5322 11.4232 37.2642 13.0992 37.2642 15.1532Z" fill="#FFC217" stroke="black" stroke-width="0.5"/>
<path d="M32.8576 13.8552C32.8576 14.2281 32.5416 14.5413 32.1383 14.5413C31.7349 14.5413 31.4189 14.2281 31.4189 13.8552C31.4189 13.4823 31.7349 13.1692 32.1383 13.1692C32.5416 13.1692 32.8576 13.4823 32.8576 13.8552Z" fill="#183E7F" stroke="black" stroke-width="0.5"/>
<path d="M35.4357 16.336C35.4357 16.7088 35.1197 17.022 34.7164 17.022C34.3131 17.022 33.9971 16.7088 33.9971 16.336C33.9971 15.963 34.3131 15.6499 34.7164 15.6499C35.1197 15.6499 35.4357 15.963 35.4357 16.336Z" fill="#183E7F" stroke="black" stroke-width="0.5"/>
<path d="M31.9111 16.568L34.8513 13.7383" stroke="black" stroke-width="0.5" stroke-linecap="round"/>
<path d="M26.688 44.11H2.27829C2.12459 44.11 2 44.2346 2 44.3883C2 44.542 2.12459 44.6666 2.27829 44.6666H26.688C26.8417 44.6666 26.9663 44.542 26.9663 44.3883C26.9663 44.2346 26.8417 44.11 26.688 44.11Z" fill="#0C1F40"/>
</svg>
