<svg width="24" height="25" viewBox="0 0 24 25" fill="none" xmlns="http://www.w3.org/2000/svg">
<path fill-rule="evenodd" clip-rule="evenodd" d="M12 2.07666C9.37665 2.07666 7.25 4.20331 7.25 6.82666C7.25 9.45001 9.37665 11.5767 12 11.5767C14.6234 11.5767 16.75 9.45001 16.75 6.82666C16.75 4.20331 14.6234 2.07666 12 2.07666ZM8.75 6.82666C8.75 5.03173 10.2051 3.57666 12 3.57666C13.7949 3.57666 15.25 5.03173 15.25 6.82666C15.25 8.62159 13.7949 10.0767 12 10.0767C10.2051 10.0767 8.75 8.62159 8.75 6.82666Z" fill="#176CF7"/>
<path fill-rule="evenodd" clip-rule="evenodd" d="M9 13.0767C6.37665 13.0767 4.25 15.2033 4.25 17.8267C4.25 20.45 6.37665 22.5767 9 22.5767H15C17.6234 22.5767 19.75 20.45 19.75 17.8267C19.75 15.2033 17.6234 13.0767 15 13.0767H9ZM5.75 17.8267C5.75 16.0317 7.20507 14.5767 9 14.5767H15C16.7949 14.5767 18.25 16.0317 18.25 17.8267C18.25 19.6216 16.7949 21.0767 15 21.0767H9C7.20507 21.0767 5.75 19.6216 5.75 17.8267Z" fill="#176CF7"/>
</svg>
