<svg xmlns="http://www.w3.org/2000/svg" width="32" height="32" viewBox="0 0 32 32">
  <g id="Group_17427" data-name="Group 17427" transform="translate(16644 7596)">
    <g id="Group_17421" data-name="Group 17421" transform="translate(-16670 -7881)">
      <rect id="Rectangle_3643" data-name="Rectangle 3643" width="32" height="32" rx="16" transform="translate(26 285)" fill="#e4ad13"/>
      <g id="ic-ecommerce-tag" transform="translate(31.988 290.968)">
        <rect id="Rectangle_226" data-name="Rectangle 226" width="19.614" height="19.538" transform="translate(0 0.503)" fill="none"/>
        <g id="ic-ecommerce-tag-2" data-name="ic-ecommerce-tag" transform="translate(1.307 0)">
          <path id="Path_148" data-name="Path 148" d="M4.992.161l-4.92,4.1a.148.148,0,0,0-.058.123L0,13.928a1.633,1.633,0,0,0,1.636,1.636l7.683-.011a1.644,1.644,0,0,0,1.641-1.64l.013-9.427a.163.163,0,0,0-.057-.131L6.007.193A.819.819,0,0,0,4.992.161Z" transform="matrix(0.719, 0.695, -0.695, 0.719, 10.811, 0)" fill="none" stroke="#fff" stroke-linecap="round" stroke-linejoin="round" stroke-width="1.5"/>
          <ellipse id="Ellipse_33" data-name="Ellipse 33" cx="1.278" cy="1.278" rx="1.278" ry="1.278" transform="matrix(0.719, 0.695, -0.695, 0.719, 11.274, 5.625)" fill="none" stroke="#fff" stroke-linecap="round" stroke-linejoin="round" stroke-width="1.5"/>
        </g>
      </g>
    </g>
  </g>
</svg>
