<svg width="48" height="40" viewBox="0 0 48 40" fill="none" xmlns="http://www.w3.org/2000/svg">
<path d="M0 0H41.3684C44.6821 0 47.3684 2.68629 47.3684 6V39.1648L24.1991 28.4835L0 39.1648V0Z" fill="#F71717"/>
<path d="M12.3415 15.12C12.3415 13.176 10.8775 12.504 9.01748 12.504H5.89748V21H7.94948V17.796H8.96948C10.7455 17.796 12.3415 17.088 12.3415 15.12ZM10.2895 15.132C10.2895 15.936 9.58148 16.164 8.81348 16.164H7.94948V14.16H8.84948C9.58148 14.16 10.2895 14.316 10.2895 15.132ZM16.9096 14.904C16.8136 14.868 16.6456 14.856 16.4896 14.856C15.7576 14.856 15.1696 15.288 14.8696 15.888H14.8456V15.024H12.9496V21H14.9176V17.928C14.9176 17.436 15.2656 16.572 16.3216 16.572C16.4776 16.572 16.6456 16.584 16.8256 16.632L16.9096 14.904ZM23.8325 17.988C23.8325 16.032 22.3205 14.832 20.5085 14.832C18.7085 14.832 17.1965 16.032 17.1965 17.988C17.1965 19.944 18.7085 21.192 20.5085 21.192C22.3205 21.192 23.8325 19.944 23.8325 17.988ZM21.9365 17.988C21.9365 18.756 21.4445 19.536 20.5205 19.536C19.5965 19.536 19.1045 18.756 19.1045 17.988C19.1045 17.22 19.5845 16.464 20.5085 16.464C21.4325 16.464 21.9365 17.22 21.9365 17.988ZM34.6785 21V17.304C34.6785 16.176 34.1265 14.856 32.5065 14.856C31.6185 14.856 30.9945 15.252 30.5985 15.876C30.2625 15.228 29.6625 14.856 28.7985 14.856C27.8985 14.856 27.2865 15.348 27.0105 15.852H26.9865V15.024H25.0785V21H27.0585V17.76C27.0585 17.04 27.4185 16.476 28.0425 16.476C28.6305 16.476 28.8945 16.908 28.8945 17.592V21H30.8625V17.772C30.8625 17.1 31.1865 16.476 31.8585 16.476C32.5545 16.476 32.7105 17.052 32.7105 17.736V21H34.6785ZM42.5005 17.988C42.5005 16.032 40.9885 14.832 39.1765 14.832C37.3765 14.832 35.8645 16.032 35.8645 17.988C35.8645 19.944 37.3765 21.192 39.1765 21.192C40.9885 21.192 42.5005 19.944 42.5005 17.988ZM40.6045 17.988C40.6045 18.756 40.1125 19.536 39.1885 19.536C38.2645 19.536 37.7725 18.756 37.7725 17.988C37.7725 17.22 38.2525 16.464 39.1765 16.464C40.1005 16.464 40.6045 17.22 40.6045 17.988Z" fill="white"/>
</svg>
