<svg width="48" height="48" viewBox="0 0 48 48" fill="none" xmlns="http://www.w3.org/2000/svg">
<path d="M45.8853 36.2046V37.4105H3.15625V32.5749H26.5111V36.2046H45.8853Z" fill="white" stroke="#231F20" stroke-width="0.5" stroke-miterlimit="10"/>
<path fill-rule="evenodd" clip-rule="evenodd" d="M4.66699 15.3335V32.6667H25.0003V14.6668H33.3337V10.6668L4.66699 13.3335H2.66699V15.3335H4.66699Z" fill="#176CF7"/>
<mask id="mask0_849_31792" style="mask-type:alpha" maskUnits="userSpaceOnUse" x="2" y="10" width="32" height="23">
<path fill-rule="evenodd" clip-rule="evenodd" d="M4.66699 15.3335V32.6667H25.0003V14.6668H33.3337V10.6668L4.66699 13.3335H2.66699V15.3335H4.66699Z" fill="black"/>
</mask>
<g mask="url(#mask0_849_31792)">
<path d="M4.66732 15.3335H5.00065V15.0002H4.66732V15.3335ZM4.66732 32.6668H4.33398V33.0001H4.66732V32.6668ZM25.0007 32.6668V33.0001H25.334V32.6668H25.0007ZM25.0007 14.6668V14.3335H24.6673V14.6668H25.0007ZM33.334 14.6668V15.0002H33.6673V14.6668H33.334ZM33.334 10.6668H33.6673V10.301L33.3031 10.335L33.334 10.6668ZM4.66732 13.3335V13.6668H4.68279L4.69819 13.6654L4.66732 13.3335ZM2.66732 13.3335V13.0002H2.33398V13.3335H2.66732ZM2.66732 15.3335H2.33398V15.6668H2.66732V15.3335ZM4.33398 15.3335V32.6668H5.00065V15.3335H4.33398ZM4.66732 33.0001H25.0007V32.3334H4.66732V33.0001ZM25.334 32.6668V14.6668H24.6673V32.6668H25.334ZM25.0007 15.0002H33.334V14.3335H25.0007V15.0002ZM33.6673 14.6668V10.6668H33.0007V14.6668H33.6673ZM33.3031 10.335L4.63644 13.0016L4.69819 13.6654L33.3649 10.9988L33.3031 10.335ZM2.66732 13.6668H4.66732V13.0002H2.66732V13.6668ZM3.00065 15.3335V13.3335H2.33398V15.3335H3.00065ZM4.66732 15.0002H2.66732V15.6668H4.66732V15.0002Z" fill="black"/>
</g>
<mask id="mask1_849_31792" style="mask-type:alpha" maskUnits="userSpaceOnUse" x="6" y="19" width="18" height="11">
<path d="M24 19.3335H6V29.3335H24V19.3335Z" fill="white"/>
</mask>
<g mask="url(#mask1_849_31792)">
<path d="M12.0475 19.8229H10.9973L10.3247 22.6019H10.307L9.55773 19.8229H8.50753L7.76413 22.6019H7.7464L7.0856 19.8229H6L7.18587 24.0001H8.18887L9.01487 21.1741H9.0326L9.8586 24.0001H10.8557L12.0475 19.8229ZM16.3643 24.0001L14.6297 19.8229H13.6503L11.8981 24.0001H12.9955L13.3023 23.1801H14.9189L15.2433 24.0001H16.3643ZM14.6415 22.3717H13.5913L14.1223 20.9381L14.6415 22.3717ZM20.1257 24.0001L19.0342 22.2125C19.5711 22.0473 19.9015 21.6461 19.9015 21.0855C19.9015 20.1297 19.105 19.8229 18.3026 19.8229H16.7096V24.0001H17.7008V22.3423H18.043L18.9457 24.0001H20.1257ZM18.9044 21.1033C18.9044 21.5281 18.4973 21.6107 18.1728 21.6107H17.6949V20.6371H18.2318C18.5327 20.6371 18.9044 20.7139 18.9044 21.1033ZM23.5364 24.0001V23.1387H21.5953V22.2715H23.3299V21.4631H21.5953V20.6785H23.4302V19.8229H20.6218V24.0001H23.5364ZM9.455 28.6668V25.1268H8.6V26.4668H7.22V25.1268H6.365V28.6668H7.22V27.1868H8.6V28.6668H9.455ZM13.8733 26.8818C13.8733 25.7468 13.0533 25.0318 11.9433 25.0318C10.8383 25.0318 10.0183 25.7468 10.0183 26.8818C10.0183 28.0018 10.8383 28.7618 11.9433 28.7618C13.0533 28.7618 13.8733 28.0018 13.8733 26.8818ZM12.9583 26.8818C12.9583 27.5218 12.5383 27.9818 11.9433 27.9818C11.3483 27.9818 10.9333 27.5218 10.9333 26.8818C10.9333 26.2618 11.3433 25.8018 11.9433 25.8018C12.5433 25.8018 12.9583 26.2618 12.9583 26.8818ZM17.4363 27.3318V25.1268H16.5813V27.2618C16.5813 27.6418 16.4013 27.9918 15.9163 27.9918C15.4363 27.9918 15.2513 27.6418 15.2513 27.2618V25.1268H14.4013V27.3318C14.4013 28.1818 14.9813 28.7618 15.9113 28.7618C16.8363 28.7618 17.4363 28.1818 17.4363 27.3318ZM20.5427 25.4718C20.2327 25.1868 19.7827 25.0368 19.3827 25.0368C18.7227 25.0368 18.0127 25.3618 18.0127 26.1468C18.0127 26.7868 18.4677 27.0168 18.9177 27.1618C19.3827 27.3118 19.6527 27.3968 19.6527 27.6668C19.6527 27.9518 19.4227 28.0518 19.1627 28.0518C18.8827 28.0518 18.5677 27.8918 18.3977 27.6768L17.8377 28.2468C18.1477 28.5718 18.6577 28.7568 19.1627 28.7568C19.8627 28.7568 20.5177 28.3918 20.5177 27.5768C20.5177 26.8718 19.8977 26.6668 19.4177 26.5118C19.0827 26.4068 18.8727 26.3318 18.8727 26.0968C18.8727 25.8168 19.1477 25.7418 19.3677 25.7418C19.5877 25.7418 19.8527 25.8618 19.9977 26.0468L20.5427 25.4718ZM23.5518 28.6668V27.9368H21.9068V27.2018H23.3768V26.5168H21.9068V25.8518H23.4618V25.1268H21.0818V28.6668H23.5518Z" fill="white"/>
</g>
<path d="M38.7931 25.7657V31.4308L38.6491 32.575H27.6861L27.542 31.4308V25.7657H38.7931Z" fill="#FFC217" stroke="#231F20" stroke-width="0.5" stroke-miterlimit="10" stroke-linejoin="round"/>
<path d="M29.359 31.3457H29.0562C28.9738 31.3457 28.9092 31.281 28.9092 31.1986V27.019C28.9092 26.9366 28.9738 26.8719 29.0562 26.8719H29.359C29.4413 26.8719 29.506 26.9366 29.506 27.019V31.1986C29.506 31.281 29.4413 31.3457 29.359 31.3457Z" fill="#307CFE" stroke="#231F20" stroke-width="0.5" stroke-miterlimit="10"/>
<path d="M31.3404 31.3457H31.0376C30.9554 31.3457 30.8906 31.281 30.8906 31.1986V27.019C30.8906 26.9366 30.9554 26.8719 31.0376 26.8719H31.3404C31.4228 26.8719 31.4874 26.9366 31.4874 27.019V31.1986C31.4874 31.281 31.4198 31.3457 31.3404 31.3457Z" fill="#307CFE" stroke="#231F20" stroke-width="0.5" stroke-miterlimit="10"/>
<path d="M33.3199 31.3457H33.0171C32.9348 31.3457 32.8701 31.281 32.8701 31.1986V27.019C32.8701 26.9366 32.9348 26.8719 33.0171 26.8719H33.3199C33.4023 26.8719 33.4669 26.9366 33.4669 27.019V31.1986C33.4669 31.281 33.4023 31.3457 33.3199 31.3457Z" fill="#307CFE" stroke="#231F20" stroke-width="0.5" stroke-miterlimit="10"/>
<path d="M35.2994 31.3457H34.9966C34.9143 31.3457 34.8496 31.281 34.8496 31.1986V27.019C34.8496 26.9366 34.9143 26.8719 34.9966 26.8719H35.2994C35.3817 26.8719 35.4464 26.9366 35.4464 27.019V31.1986C35.4464 31.281 35.3817 31.3457 35.2994 31.3457Z" fill="#307CFE" stroke="#231F20" stroke-width="0.5" stroke-miterlimit="10"/>
<path d="M37.2809 31.3457H36.9751C36.8928 31.3457 36.8281 31.281 36.8281 31.1986V27.019C36.8281 26.9366 36.8928 26.8719 36.9751 26.8719H37.2779C37.3603 26.8719 37.4249 26.9366 37.4249 27.019V31.1986C37.4279 31.281 37.3603 31.3457 37.2809 31.3457Z" fill="#307CFE" stroke="#231F20" stroke-width="0.5" stroke-miterlimit="10"/>
<path d="M38.9191 32.622V27.9218C38.9191 27.81 38.9661 27.7012 39.0484 27.6218C39.1307 27.5423 39.2425 27.4982 39.3601 27.4982H42.1618C42.2294 27.4982 42.2971 27.5129 42.3588 27.5423C42.4205 27.5717 42.4734 27.6158 42.5146 27.6688L44.2903 29.963L44.8783 30.1513C44.9841 30.1866 45.0723 30.2572 45.1253 30.3513L45.4222 31.4838C45.4986 31.619 45.3957 31.7044 45.5574 31.7044C45.675 31.7044 45.7867 31.7484 45.8691 31.8279C45.9514 31.9073 45.9984 32.0161 45.9984 32.1279V33.2456C45.9984 33.6486 45.9131 33.9751 45.4927 33.9751H41.9295V34.4574H38.7162V34.9398H29.5789V33.828H27.6855V32.572L38.9191 32.622Z" fill="#307CFE" stroke="#231F20" stroke-width="0.5" stroke-miterlimit="10"/>
<path d="M42.2257 28.2483L42.8813 29.1042C42.9489 29.1924 42.9901 29.2984 42.9989 29.4072C43.0077 29.516 42.9871 29.6278 42.9342 29.7248C42.8813 29.8219 42.8019 29.9072 42.7049 29.9631C42.6079 30.0219 42.4932 30.0513 42.3785 30.0513H40.3059C40.1413 30.0513 39.9854 29.9896 39.8678 29.8778C39.7532 29.766 39.6855 29.6131 39.6855 29.4572V28.5954C39.6855 28.516 39.7003 28.4395 39.7326 28.3659C39.7649 28.2924 39.809 28.2277 39.8678 28.1718C39.9266 28.1159 39.9943 28.0718 40.0707 28.0424C40.1471 28.013 40.2265 27.9982 40.3088 27.9982L41.7259 28.0042C41.8229 28.0042 41.9199 28.0248 42.0052 28.0688C42.0933 28.113 42.1669 28.1748 42.2257 28.2483Z" fill="#183E7F" stroke="#231F20" stroke-width="0.5" stroke-miterlimit="10"/>
<path d="M30.7507 36.196C31.7826 36.196 32.6205 35.3901 32.6205 34.396C32.6205 33.4018 31.7826 32.5958 30.7507 32.5958C29.7188 32.5958 28.8809 33.4018 28.8809 34.396C28.8779 35.3901 29.7158 36.196 30.7507 36.196Z" fill="#183E7F" stroke="#231F20" stroke-width="0.5" stroke-miterlimit="10"/>
<path d="M30.7488 35.4165C31.3338 35.4165 31.8072 34.9605 31.8072 34.3958C31.8072 33.8311 31.3338 33.3751 30.7488 33.3751C30.1638 33.3751 29.6904 33.8311 29.6904 34.3958C29.6904 34.9605 30.1638 35.4165 30.7488 35.4165Z" fill="#307CFE" stroke="#231F20" stroke-width="0.5" stroke-miterlimit="10"/>
<path d="M42.6462 36.196C43.678 36.196 44.516 35.3901 44.516 34.396C44.516 33.4018 43.678 32.5958 42.6462 32.5958C41.6142 32.5958 40.7764 33.4018 40.7764 34.396C40.7764 35.3901 41.6142 36.196 42.6462 36.196Z" fill="#183E7F" stroke="#231F20" stroke-width="0.5" stroke-miterlimit="10"/>
<path d="M42.6473 35.4165C43.2323 35.4165 43.7056 34.9606 43.7056 34.3958C43.7056 33.831 43.2323 33.3752 42.6473 33.3752C42.0622 33.3752 41.5889 33.831 41.5889 34.3958C41.5889 34.9606 42.0651 35.4165 42.6473 35.4165Z" fill="#307CFE" stroke="#231F20" stroke-width="0.5" stroke-miterlimit="10"/>
<path fill-rule="evenodd" clip-rule="evenodd" d="M36.0003 15.3795H34.0003V15.3333H4.66699H2.66699V13.3333H4.66699L36.0003 10V15.3795Z" fill="#FFC217"/>
<mask id="mask2_849_31792" style="mask-type:alpha" maskUnits="userSpaceOnUse" x="2" y="10" width="34" height="6">
<path fill-rule="evenodd" clip-rule="evenodd" d="M36.0003 15.3795H34.0003V15.3333H4.66699H2.66699V13.3333H4.66699L36.0003 10V15.3795Z" fill="black"/>
</mask>
<g mask="url(#mask2_849_31792)">
<path d="M34.0007 15.3795H33.6673V15.7128H34.0007V15.3795ZM36.0007 15.3795V15.7128H36.334V15.3795H36.0007ZM34.0007 15.3333H34.334V15H34.0007V15.3333ZM2.66732 15.3333H2.33398V15.6667H2.66732V15.3333ZM2.66732 13.3333V13H2.33398V13.3333H2.66732ZM4.66732 13.3333V13.6667H4.685L4.70258 13.6648L4.66732 13.3333ZM36.0007 10H36.334V9.62933L35.9654 9.66853L36.0007 10ZM34.0007 15.7128H36.0007V15.0461H34.0007V15.7128ZM33.6673 15.3333V15.3795H34.334V15.3333H33.6673ZM4.66732 15.6667H34.0007V15H4.66732V15.6667ZM2.66732 15.6667H4.66732V15H2.66732V15.6667ZM2.33398 13.3333V15.3333H3.00065V13.3333H2.33398ZM4.66732 13H2.66732V13.6667H4.66732V13ZM35.9654 9.66853L4.63206 13.0019L4.70258 13.6648L36.0359 10.3315L35.9654 9.66853ZM36.334 15.3795V10H35.6673V15.3795H36.334Z" fill="black"/>
</g>
</svg>
