<svg width="24" height="24" viewBox="0 0 24 24" fill="none" xmlns="http://www.w3.org/2000/svg">
<path fill-rule="evenodd" clip-rule="evenodd" d="M11.0818 2.02536C9.83278 2.15038 8.6541 2.48515 7.57771 3.02056C4.68478 4.4596 2.67591 7.15764 2.13053 10.3364C1.9833 11.1946 1.958 12.3643 2.068 13.2274C2.14187 13.807 2.43011 14.0892 2.91832 14.0599C3.18806 14.0437 3.29564 13.9838 3.49327 13.7397C3.60511 13.6017 3.61277 13.5714 3.6118 13.273C3.61121 13.0975 3.59565 12.6812 3.57723 12.3478C3.48041 10.5956 3.97664 8.81597 4.98381 7.30338C5.91156 5.9101 7.36377 4.73646 8.88861 4.14771C11.153 3.27337 13.5671 3.37184 15.7283 4.42668C16.1346 4.62501 17.0887 5.22131 17.1447 5.31196C17.1579 5.33319 17.0085 5.34852 16.7835 5.34903C16.4963 5.34965 16.3603 5.36792 16.2419 5.42168C15.6508 5.69017 15.6473 6.54296 16.2363 6.81716C16.4388 6.91148 16.4407 6.91156 17.8508 6.91195C18.8031 6.91222 19.3057 6.89787 19.3954 6.86784C19.5964 6.80054 19.7733 6.65253 19.8708 6.47015C19.9571 6.30861 19.9584 6.2846 19.9584 4.82026C19.9584 3.36281 19.9568 3.33121 19.8722 3.17303C19.5597 2.58893 18.7835 2.58698 18.4864 3.16947C18.4238 3.2921 18.4011 3.43018 18.3845 3.79022C18.3728 4.0449 18.355 4.25325 18.3451 4.25325C18.3351 4.25325 18.2427 4.18278 18.1399 4.09664C17.554 3.60607 16.3043 2.9124 15.4279 2.59128C14.9002 2.39791 14.0771 2.19085 13.4671 2.09802C12.881 2.00882 11.6282 1.97065 11.0818 2.02536ZM20.8187 9.97764C20.6459 10.0531 20.417 10.3254 20.3855 10.493C20.3706 10.5723 20.381 10.9338 20.4084 11.2963C20.5568 13.2518 20.0791 15.1012 19.0197 16.6726C17.7302 18.5853 15.8455 19.8385 13.5904 20.2826C11.3535 20.7232 8.92955 20.193 7.09341 18.8615L6.81995 18.6632L7.24982 18.6426C7.72025 18.6202 7.85449 18.5733 8.02362 18.3723C8.34994 17.9845 8.22856 17.4093 7.77241 17.182L7.56657 17.0794L6.15674 17.0797C5.29359 17.0798 4.68959 17.0958 4.59918 17.1209C4.41406 17.1723 4.21064 17.3483 4.11577 17.5392C4.04984 17.6718 4.04183 17.8131 4.03053 19.0447C4.01582 20.6439 4.02974 20.7574 4.27121 21.0082C4.56465 21.3128 5.00266 21.3435 5.3144 21.0812C5.53882 20.8924 5.58762 20.7359 5.58762 20.2052C5.58762 19.8411 5.59904 19.7346 5.6365 19.7491C5.6634 19.7595 5.84375 19.8862 6.03732 20.0306C8.82553 22.1113 12.5122 22.5778 15.7933 21.2651C16.1492 21.1227 16.9248 20.7207 17.3075 20.4803C18.4734 19.7478 19.5877 18.6576 20.3564 17.4972C21.6422 15.5565 22.2169 13.1058 21.9314 10.7808C21.881 10.3704 21.757 10.1466 21.5067 10.0144C21.3106 9.91082 21.0087 9.8947 20.8187 9.97764Z" fill="#176CF7"/>
<mask id="path-2-outside-1_861_14717" maskUnits="userSpaceOnUse" x="5.73828" y="6.8125" width="12" height="10" fill="black">
<rect fill="white" x="5.73828" y="6.8125" width="12" height="10"/>
<path fill-rule="evenodd" clip-rule="evenodd" d="M14.7259 9.17062C14.7673 9.12908 15.2334 8.80238 15.7617 8.44466C16.29 8.08694 16.7542 7.80256 16.7933 7.81277C16.8324 7.82298 16.9137 7.9059 16.9741 7.997C17.0794 8.15599 17.0412 8.1913 16.031 8.86948C15.4519 9.25822 14.9507 9.57627 14.9171 9.57627C14.8011 9.57627 14.6471 9.24965 14.7259 9.17062ZM9.88498 9.18013C12.2423 9.12908 12.3393 9.111 13.3813 8.52665C13.7232 8.33493 14.0222 8.17703 14.0456 8.17579C14.254 8.16449 14.2748 8.45487 14.2748 11.3749C14.2748 13.8995 14.2567 14.4043 14.1633 14.482C14.0737 14.5566 13.9066 14.4965 13.3166 14.1775C12.4167 13.6908 11.8234 13.5541 10.6037 13.5523L9.69074 13.5509L9.68958 14.6615C9.68888 15.2724 9.65966 15.8174 9.62462 15.8729C9.57878 15.9454 9.3777 15.9672 8.9071 15.9508L8.25336 15.928L8.23192 14.7444L8.21055 13.5609L7.99883 13.5364C7.79899 13.5134 7.78586 13.487 7.76387 13.0639L7.74056 12.6157H7.38969C6.74419 12.6157 6.73828 12.6044 6.73828 11.3688C6.73828 10.1331 6.74419 10.1218 7.38969 10.1218H7.74056L7.76387 9.67369L7.78718 9.22557L9.88498 9.18013ZM13.8087 13.8646V11.3698C13.8087 9.99759 13.7824 8.87813 13.7504 8.88219C13.7184 8.88624 13.5523 8.97314 13.3813 9.07539C12.6542 9.51018 12.24 9.59591 10.6814 9.63472L9.22457 9.67104V11.3772V13.0833L10.4871 13.0845C11.9394 13.0858 12.4512 13.179 13.2651 13.5901L13.8087 13.8646ZM8.68069 13.0833V11.3688V9.65421H8.4476H8.21451V11.3688V13.0833H8.4476H8.68069ZM7.74833 12.0702V11.3688V10.6674H7.51525H7.28216V11.3688V12.0702H7.51525H7.74833ZM14.741 11.6026V11.3688V11.135H15.4791H16.2172V11.3688V11.6026H15.4791H14.741ZM14.6633 13.4932C14.6633 13.4674 14.7212 13.3822 14.7919 13.3038C14.8626 13.2254 14.9328 13.1613 14.9479 13.1613C15.0157 13.1613 17.0719 14.8141 17.0719 14.8685C17.0719 14.9021 17.0072 14.9884 16.928 15.0602C16.7913 15.1844 16.7314 15.1499 15.7237 14.3655C15.1405 13.9115 14.6633 13.519 14.6633 13.4932ZM9.14687 15.4993V14.5251V13.5509H8.91378H8.68069V14.5251V15.4993H8.91378H9.14687Z"/>
</mask>
<path fill-rule="evenodd" clip-rule="evenodd" d="M14.7259 9.17062C14.7673 9.12908 15.2334 8.80238 15.7617 8.44466C16.29 8.08694 16.7542 7.80256 16.7933 7.81277C16.8324 7.82298 16.9137 7.9059 16.9741 7.997C17.0794 8.15599 17.0412 8.1913 16.031 8.86948C15.4519 9.25822 14.9507 9.57627 14.9171 9.57627C14.8011 9.57627 14.6471 9.24965 14.7259 9.17062ZM9.88498 9.18013C12.2423 9.12908 12.3393 9.111 13.3813 8.52665C13.7232 8.33493 14.0222 8.17703 14.0456 8.17579C14.254 8.16449 14.2748 8.45487 14.2748 11.3749C14.2748 13.8995 14.2567 14.4043 14.1633 14.482C14.0737 14.5566 13.9066 14.4965 13.3166 14.1775C12.4167 13.6908 11.8234 13.5541 10.6037 13.5523L9.69074 13.5509L9.68958 14.6615C9.68888 15.2724 9.65966 15.8174 9.62462 15.8729C9.57878 15.9454 9.3777 15.9672 8.9071 15.9508L8.25336 15.928L8.23192 14.7444L8.21055 13.5609L7.99883 13.5364C7.79899 13.5134 7.78586 13.487 7.76387 13.0639L7.74056 12.6157H7.38969C6.74419 12.6157 6.73828 12.6044 6.73828 11.3688C6.73828 10.1331 6.74419 10.1218 7.38969 10.1218H7.74056L7.76387 9.67369L7.78718 9.22557L9.88498 9.18013ZM13.8087 13.8646V11.3698C13.8087 9.99759 13.7824 8.87813 13.7504 8.88219C13.7184 8.88624 13.5523 8.97314 13.3813 9.07539C12.6542 9.51018 12.24 9.59591 10.6814 9.63472L9.22457 9.67104V11.3772V13.0833L10.4871 13.0845C11.9394 13.0858 12.4512 13.179 13.2651 13.5901L13.8087 13.8646ZM8.68069 13.0833V11.3688V9.65421H8.4476H8.21451V11.3688V13.0833H8.4476H8.68069ZM7.74833 12.0702V11.3688V10.6674H7.51525H7.28216V11.3688V12.0702H7.51525H7.74833ZM14.741 11.6026V11.3688V11.135H15.4791H16.2172V11.3688V11.6026H15.4791H14.741ZM14.6633 13.4932C14.6633 13.4674 14.7212 13.3822 14.7919 13.3038C14.8626 13.2254 14.9328 13.1613 14.9479 13.1613C15.0157 13.1613 17.0719 14.8141 17.0719 14.8685C17.0719 14.9021 17.0072 14.9884 16.928 15.0602C16.7913 15.1844 16.7314 15.1499 15.7237 14.3655C15.1405 13.9115 14.6633 13.519 14.6633 13.4932ZM9.14687 15.4993V14.5251V13.5509H8.91378H8.68069V14.5251V15.4993H8.91378H9.14687Z" fill="#176CF7"/>
<path d="M14.7259 9.17062L14.8675 9.31183L14.8675 9.31183L14.7259 9.17062ZM16.7933 7.81277L16.7427 8.00627L16.7427 8.00627L16.7933 7.81277ZM16.9741 7.997L17.1408 7.88658L17.1408 7.88653L16.9741 7.997ZM16.031 8.86948L16.1425 9.03554L16.1425 9.03553L16.031 8.86948ZM13.3813 8.52665L13.2835 8.35221L13.2835 8.35221L13.3813 8.52665ZM9.88498 9.18013L9.88065 8.98018L9.88065 8.98018L9.88498 9.18013ZM14.0456 8.17579L14.0562 8.3755L14.0565 8.37549L14.0456 8.17579ZM14.1633 14.482L14.0353 14.3283L14.0353 14.3283L14.1633 14.482ZM13.3166 14.1775L13.2215 14.3534L13.2215 14.3534L13.3166 14.1775ZM10.6037 13.5523L10.604 13.3523L10.604 13.3523L10.6037 13.5523ZM9.69074 13.5509L9.69103 13.3509L9.49095 13.3507L9.49074 13.5507L9.69074 13.5509ZM9.68958 14.6615L9.88958 14.6617L9.88958 14.6617L9.68958 14.6615ZM9.62462 15.8729L9.45559 15.766L9.45554 15.766L9.62462 15.8729ZM8.9071 15.9508L8.91408 15.7509L8.91408 15.7509L8.9071 15.9508ZM8.25336 15.928L8.05339 15.9316L8.05683 16.1212L8.24638 16.1278L8.25336 15.928ZM8.23192 14.7444L8.03195 14.748L8.03195 14.7481L8.23192 14.7444ZM8.21055 13.5609L8.41052 13.5573L8.40736 13.3823L8.23351 13.3622L8.21055 13.5609ZM7.99883 13.5364L8.02179 13.3378L8.02176 13.3378L7.99883 13.5364ZM7.76387 13.0639L7.9636 13.0535L7.9636 13.0535L7.76387 13.0639ZM7.74056 12.6157L7.94029 12.6053L7.93043 12.4157H7.74056V12.6157ZM7.74056 10.1218V10.3218H7.93043L7.94029 10.1322L7.74056 10.1218ZM7.76387 9.67369L7.9636 9.68408L7.9636 9.68408L7.76387 9.67369ZM7.78718 9.22557L7.78285 9.02561L7.5971 9.02964L7.58745 9.21518L7.78718 9.22557ZM13.8087 13.8646L13.7185 14.0431L14.0087 14.1897V13.8646H13.8087ZM13.3813 9.07539L13.484 9.24704L13.484 9.24702L13.3813 9.07539ZM10.6814 9.63472L10.6764 9.43479L10.6764 9.43479L10.6814 9.63472ZM9.22457 9.67104L9.21958 9.4711L9.02457 9.47597V9.67104H9.22457ZM9.22457 13.0833H9.02457V13.2831L9.22438 13.2833L9.22457 13.0833ZM10.4871 13.0845L10.4869 13.2845L10.4869 13.2845L10.4871 13.0845ZM13.2651 13.5901L13.1749 13.7686L13.1749 13.7686L13.2651 13.5901ZM8.68069 13.0833V13.2833H8.88069V13.0833H8.68069ZM8.68069 9.65421H8.88069V9.45421H8.68069V9.65421ZM8.21451 9.65421V9.45421H8.01451V9.65421H8.21451ZM8.21451 13.0833H8.01451V13.2833H8.21451V13.0833ZM7.74833 12.0702V12.2702H7.94833V12.0702H7.74833ZM7.74833 10.6674H7.94833V10.4674H7.74833V10.6674ZM7.28216 10.6674V10.4674H7.08216V10.6674H7.28216ZM7.28216 12.0702H7.08216V12.2702H7.28216V12.0702ZM14.741 11.6026H14.541V11.8026H14.741V11.6026ZM14.741 11.135V10.935H14.541V11.135H14.741ZM16.2172 11.135H16.4172V10.935H16.2172V11.135ZM16.2172 11.6026V11.8026H16.4172V11.6026H16.2172ZM14.7919 13.3038L14.6434 13.1699L14.6434 13.1699L14.7919 13.3038ZM16.928 15.0602L16.7936 14.9121L16.7936 14.9121L16.928 15.0602ZM15.7237 14.3655L15.6009 14.5233L15.6009 14.5233L15.7237 14.3655ZM9.14687 15.4993V15.6993H9.34687V15.4993H9.14687ZM9.14687 13.5509H9.34687V13.3509H9.14687V13.5509ZM8.68069 13.5509V13.3509H8.48069V13.5509H8.68069ZM8.68069 15.4993H8.48069V15.6993H8.68069V15.4993ZM15.6496 8.27905C15.3847 8.45838 15.1352 8.6301 14.9464 8.76243C14.8521 8.82853 14.7723 8.88521 14.7132 8.92828C14.6837 8.94975 14.6585 8.96842 14.6389 8.98348C14.6234 8.99536 14.6005 9.01311 14.5842 9.02942L14.8675 9.31183C14.8616 9.31775 14.8623 9.3162 14.8823 9.30087C14.8982 9.28872 14.9203 9.27225 14.9486 9.25166C15.005 9.21061 15.0825 9.15547 15.176 9.08999C15.3627 8.95915 15.6104 8.78866 15.8738 8.61027L15.6496 8.27905ZM16.8438 7.61926C16.8074 7.60976 16.7771 7.61256 16.7641 7.61415C16.7484 7.61607 16.7352 7.61936 16.7265 7.62184C16.709 7.62681 16.6928 7.63325 16.6805 7.63854C16.655 7.64946 16.6257 7.66434 16.5951 7.68077C16.5331 7.71418 16.4512 7.76217 16.3565 7.8202C16.1663 7.9367 15.9156 8.09896 15.6496 8.27905L15.8738 8.61027C16.1362 8.43264 16.3817 8.27385 16.5654 8.16128C16.6577 8.10477 16.7322 8.06123 16.7847 8.03301C16.8114 8.01862 16.8288 8.01016 16.8383 8.00609C16.8435 8.00388 16.8418 8.00491 16.8356 8.00666C16.8325 8.00754 16.8243 8.00976 16.8127 8.01119C16.8038 8.01227 16.7767 8.01514 16.7427 8.00627L16.8438 7.61926ZM17.1408 7.88653C17.1039 7.83082 17.0605 7.77733 17.0185 7.73447C16.9975 7.71311 16.9743 7.69178 16.9501 7.67351C16.9304 7.65862 16.8925 7.63199 16.8438 7.61926L16.7427 8.00627C16.7255 8.00176 16.7146 7.99579 16.7117 7.99418C16.708 7.99209 16.707 7.99115 16.7089 7.99259C16.7129 7.99558 16.7211 8.00259 16.7329 8.01463C16.7564 8.03856 16.7839 8.07208 16.8074 8.10748L17.1408 7.88653ZM16.1425 9.03553C16.6391 8.70213 16.9194 8.51239 17.0567 8.38535C17.1223 8.32465 17.1976 8.24194 17.2116 8.12996C17.2264 8.01207 17.1646 7.92248 17.1408 7.88658L16.8073 8.10743C16.8362 8.15103 16.8091 8.12546 16.8148 8.0801C16.8197 8.04065 16.8421 8.03897 16.785 8.09173C16.677 8.19164 16.4331 8.35865 15.9195 8.70343L16.1425 9.03553ZM14.9171 9.77627C14.9499 9.77627 14.9753 9.76812 14.9817 9.76613C14.9924 9.76277 15.0015 9.75907 15.0076 9.75643C15.0202 9.75105 15.0328 9.74474 15.0437 9.73901C15.0662 9.7272 15.0942 9.71126 15.1256 9.6927C15.1891 9.65522 15.275 9.60201 15.3767 9.53753C15.5804 9.40827 15.8519 9.2306 16.1425 9.03554L15.9195 8.70343C15.631 8.89711 15.3624 9.07282 15.1624 9.19978C15.0621 9.2634 14.9803 9.314 14.9222 9.3483C14.8928 9.36564 14.8716 9.37758 14.8581 9.38469C14.851 9.38841 14.8488 9.38931 14.85 9.38878C14.8505 9.38857 14.8548 9.3867 14.8616 9.38457C14.8641 9.3838 14.8865 9.37627 14.9171 9.37627V9.77627ZM14.5842 9.02942C14.4954 9.11851 14.501 9.23781 14.5077 9.29197C14.5162 9.36026 14.5397 9.42924 14.5676 9.4884C14.5956 9.54779 14.6338 9.60956 14.6806 9.65996C14.7189 9.70135 14.8007 9.77627 14.9171 9.77627V9.37627C14.9496 9.37627 14.97 9.38741 14.9752 9.39053C14.9808 9.3939 14.98 9.3946 14.9739 9.38805C14.9616 9.37474 14.9445 9.34991 14.9293 9.31777C14.9141 9.28539 14.9066 9.2579 14.9047 9.24272C14.9037 9.23522 14.9051 9.23786 14.9033 9.24769C14.9014 9.25753 14.8942 9.28507 14.8675 9.31183L14.5842 9.02942ZM13.2835 8.35221C12.7627 8.64428 12.5033 8.77948 12.0897 8.85678C11.6606 8.93697 11.0671 8.95448 9.88065 8.98018L9.88931 9.38008C11.0602 9.35473 11.6939 9.33768 12.1631 9.24998C12.6478 9.15939 12.958 8.99337 13.4791 8.70109L13.2835 8.35221ZM14.035 7.97607C14.0005 7.9779 13.9722 7.98896 13.9708 7.98947C13.9613 7.99286 13.9522 7.99666 13.9448 7.99988C13.9295 8.0065 13.9114 8.01508 13.892 8.02459C13.8527 8.04385 13.8004 8.07076 13.7395 8.10294C13.6172 8.1675 13.4555 8.25574 13.2835 8.35221L13.4791 8.70109C13.649 8.60584 13.8077 8.51927 13.9263 8.45664C13.9858 8.42522 14.034 8.40044 14.068 8.38376C14.0853 8.37529 14.0971 8.36983 14.104 8.36683C14.1076 8.36524 14.1077 8.36533 14.1053 8.36618C14.1041 8.36659 14.1003 8.36795 14.0947 8.36945C14.0914 8.37035 14.0765 8.37443 14.0562 8.3755L14.035 7.97607ZM14.4748 11.3749C14.4748 9.91858 14.4698 9.10697 14.4379 8.66179C14.4224 8.44589 14.3994 8.28675 14.3525 8.17991C14.3269 8.1215 14.2866 8.06062 14.2198 8.01968C14.152 7.97819 14.0835 7.97344 14.0348 7.97608L14.0565 8.37549C14.0599 8.37531 14.0376 8.37715 14.0109 8.36079C13.985 8.34498 13.9806 8.32774 13.9862 8.34059C14.0018 8.37627 14.0231 8.4701 14.0389 8.69038C14.0695 9.11757 14.0748 9.91114 14.0748 11.3749H14.4748ZM14.2912 14.6358C14.3417 14.5937 14.3679 14.5396 14.383 14.4976C14.3988 14.4539 14.4095 14.4035 14.4179 14.3488C14.4345 14.239 14.4458 14.0799 14.454 13.8532C14.4703 13.3974 14.4748 12.6361 14.4748 11.3749H14.0748C14.0748 12.6383 14.0703 13.3917 14.0542 13.8389C14.0462 14.0636 14.0354 14.2031 14.0224 14.2887C14.0159 14.3317 14.0099 14.3532 14.0067 14.3619C14.003 14.3723 14.0081 14.3509 14.0353 14.3283L14.2912 14.6358ZM13.2215 14.3534C13.5142 14.5117 13.7166 14.614 13.8599 14.6656C13.9942 14.7139 14.1567 14.7478 14.2912 14.6357L14.0353 14.3283C14.0803 14.2909 14.1144 14.332 13.9953 14.2892C13.8851 14.2495 13.709 14.1623 13.4117 14.0015L13.2215 14.3534ZM10.6034 13.7523C11.2068 13.7532 11.643 13.7876 12.0352 13.878C12.4255 13.9679 12.7815 14.1155 13.2215 14.3534L13.4117 14.0015C12.9518 13.7528 12.5612 13.5887 12.125 13.4882C11.6906 13.3881 11.2202 13.3532 10.604 13.3523L10.6034 13.7523ZM9.69045 13.7509L10.6034 13.7523L10.604 13.3523L9.69103 13.3509L9.69045 13.7509ZM9.88958 14.6617L9.89074 13.5512L9.49074 13.5507L9.48958 14.6613L9.88958 14.6617ZM9.79366 15.9797C9.81077 15.9527 9.81915 15.9262 9.82281 15.9139C9.82746 15.8983 9.831 15.8824 9.83378 15.8681C9.83938 15.8392 9.8441 15.8051 9.84821 15.7684C9.85651 15.6945 9.86371 15.5977 9.86969 15.4862C9.88169 15.2624 9.88923 14.9699 9.88958 14.6617L9.48958 14.6613C9.48923 14.964 9.48181 15.2494 9.47027 15.4648C9.46447 15.5728 9.45776 15.6609 9.4507 15.7238C9.44714 15.7556 9.44382 15.7779 9.44111 15.7918C9.43974 15.7989 9.43906 15.801 9.43943 15.7998C9.43965 15.799 9.4406 15.7959 9.44251 15.7912C9.44419 15.787 9.44823 15.7776 9.45559 15.766L9.79366 15.9797ZM8.90011 16.1507C9.13656 16.1589 9.31668 16.1581 9.44674 16.144C9.51151 16.137 9.57383 16.1257 9.6283 16.1057C9.68119 16.0863 9.74898 16.0505 9.79371 15.9797L9.45554 15.766C9.47734 15.7315 9.50281 15.7257 9.4904 15.7302C9.47957 15.7342 9.45362 15.7409 9.40356 15.7464C9.30396 15.7572 9.14824 15.7591 8.91408 15.7509L8.90011 16.1507ZM8.24638 16.1278L8.90012 16.1507L8.91408 15.7509L8.26034 15.7281L8.24638 16.1278ZM8.03195 14.7481L8.05339 15.9316L8.45333 15.9243L8.43188 14.7408L8.03195 14.7481ZM8.01058 13.5645L8.03195 14.748L8.43188 14.7408L8.41052 13.5573L8.01058 13.5645ZM7.97586 13.7351L8.18759 13.7596L8.23351 13.3622L8.02179 13.3378L7.97586 13.7351ZM7.56414 13.0742C7.56959 13.179 7.5748 13.2666 7.58317 13.3367C7.59118 13.4037 7.6041 13.4759 7.63557 13.5392C7.67309 13.6147 7.7311 13.6667 7.80416 13.6971C7.86335 13.7217 7.92857 13.7297 7.97589 13.7351L8.02176 13.3378C7.99798 13.335 7.98196 13.3328 7.97004 13.3305C7.95816 13.3282 7.95551 13.3268 7.95765 13.3277C7.97136 13.3334 7.98724 13.348 7.99375 13.3611C7.99421 13.3621 7.98723 13.3469 7.98035 13.2892C7.97382 13.2346 7.96915 13.1602 7.9636 13.0535L7.56414 13.0742ZM7.54083 12.6261L7.56414 13.0742L7.9636 13.0535L7.94029 12.6053L7.54083 12.6261ZM7.38969 12.8157H7.74056V12.4157H7.38969V12.8157ZM6.53828 11.3688C6.53828 11.6753 6.53857 11.9148 6.54966 12.097C6.5604 12.2735 6.58221 12.4287 6.64465 12.5482C6.71849 12.6896 6.83582 12.7595 6.97205 12.7899C7.08974 12.8161 7.23657 12.8157 7.38969 12.8157V12.4157C7.22005 12.4157 7.12408 12.4139 7.05912 12.3994C7.0127 12.3891 7.00752 12.379 6.99919 12.363C6.97947 12.3253 6.95946 12.2459 6.94892 12.0728C6.93874 11.9054 6.93828 11.68 6.93828 11.3688H6.53828ZM7.38969 9.92182C7.23657 9.92182 7.08974 9.92144 6.97205 9.94768C6.83582 9.97806 6.71849 10.048 6.64465 10.1893C6.58221 10.3089 6.5604 10.464 6.54966 10.6405C6.53857 10.8228 6.53828 11.0622 6.53828 11.3688H6.93828C6.93828 11.0575 6.93874 10.8322 6.94892 10.6648C6.95946 10.4916 6.97947 10.4123 6.99919 10.3745C7.00752 10.3586 7.0127 10.3484 7.05912 10.3381C7.12408 10.3236 7.22005 10.3218 7.38969 10.3218V9.92182ZM7.74056 9.92182H7.38969V10.3218H7.74056V9.92182ZM7.56414 9.6633L7.54083 10.1114L7.94029 10.1322L7.9636 9.68408L7.56414 9.6633ZM7.58745 9.21518L7.56414 9.6633L7.9636 9.68408L7.98691 9.23596L7.58745 9.21518ZM9.88065 8.98018L7.78285 9.02561L7.79151 9.42552L9.88932 9.38008L9.88065 8.98018ZM13.6087 11.3698V13.8646H14.0087V11.3698H13.6087ZM13.7755 9.0806C13.695 9.09079 13.6382 9.05114 13.6127 9.02644C13.589 9.00349 13.5773 8.98047 13.5734 8.97224C13.5683 8.9617 13.5654 8.95323 13.5642 8.94925C13.5627 8.94475 13.5619 8.94148 13.5616 8.94008C13.5608 8.9367 13.5617 8.9398 13.5634 8.95447C13.5665 8.98131 13.5699 9.02529 13.5733 9.08725C13.5801 9.20988 13.5863 9.38981 13.5916 9.61458C13.6021 10.0635 13.6087 10.6847 13.6087 11.3698H14.0087C14.0087 10.6826 14.0021 10.0581 13.9915 9.60521C13.9862 9.37909 13.9798 9.19416 13.9727 9.06515C13.9691 9.00129 13.9652 8.94775 13.9608 8.90879C13.9587 8.89056 13.9557 8.86868 13.951 8.84868C13.9491 8.84059 13.9442 8.8202 13.9334 8.7979C13.9284 8.78763 13.9157 8.76311 13.8911 8.7392C13.8646 8.71353 13.8067 8.67345 13.7253 8.68377L13.7755 9.0806ZM13.484 9.24702C13.5667 9.19752 13.6477 9.15214 13.7107 9.11916C13.7424 9.10256 13.7679 9.09001 13.7858 9.08185C13.795 9.07772 13.8002 9.0756 13.8023 9.07483C13.8087 9.07242 13.7962 9.07798 13.7755 9.0806L13.7253 8.68377C13.6965 8.68741 13.6718 8.69657 13.6624 8.70009C13.6486 8.70524 13.6343 8.71138 13.6207 8.71756C13.5931 8.73003 13.5604 8.74635 13.5252 8.76476C13.4544 8.8018 13.3668 8.851 13.2787 8.90375L13.484 9.24702ZM10.6864 9.83466C11.4648 9.81528 11.9747 9.78412 12.3837 9.69939C12.8016 9.61283 13.1081 9.47177 13.484 9.24704L13.2787 8.90373C12.9274 9.1138 12.6632 9.233 12.3026 9.30771C11.9331 9.38424 11.4566 9.41536 10.6764 9.43479L10.6864 9.83466ZM9.22955 9.87098L10.6864 9.83466L10.6764 9.43479L9.21958 9.4711L9.22955 9.87098ZM9.42457 11.3772V9.67104H9.02457V11.3772H9.42457ZM9.42457 13.0833V11.3772H9.02457V13.0833H9.42457ZM10.4873 12.8845L9.22475 12.8833L9.22438 13.2833L10.4869 13.2845L10.4873 12.8845ZM13.3553 13.4115C12.9367 13.2001 12.5867 13.0661 12.1513 12.9868C11.7213 12.9086 11.2151 12.8852 10.4873 12.8845L10.4869 13.2845C11.2115 13.2852 11.6873 13.309 12.0797 13.3804C12.4668 13.4508 12.7796 13.5689 13.1749 13.7686L13.3553 13.4115ZM13.8988 13.6861L13.3553 13.4115L13.1749 13.7686L13.7185 14.0431L13.8988 13.6861ZM8.48069 11.3688V13.0833H8.88069V11.3688H8.48069ZM8.48069 9.65421V11.3688H8.88069V9.65421H8.48069ZM8.4476 9.85421H8.68069V9.45421H8.4476V9.85421ZM8.21451 9.85421H8.4476V9.45421H8.21451V9.85421ZM8.41451 11.3688V9.65421H8.01451V11.3688H8.41451ZM8.41451 13.0833V11.3688H8.01451V13.0833H8.41451ZM8.4476 12.8833H8.21451V13.2833H8.4476V12.8833ZM8.68069 12.8833H8.4476V13.2833H8.68069V12.8833ZM7.54833 11.3688V12.0702H7.94833V11.3688H7.54833ZM7.54833 10.6674V11.3688H7.94833V10.6674H7.54833ZM7.51525 10.8674H7.74833V10.4674H7.51525V10.8674ZM7.28216 10.8674H7.51525V10.4674H7.28216V10.8674ZM7.48216 11.3688V10.6674H7.08216V11.3688H7.48216ZM7.48216 12.0702V11.3688H7.08216V12.0702H7.48216ZM7.51525 11.8702H7.28216V12.2702H7.51525V11.8702ZM7.74833 11.8702H7.51525V12.2702H7.74833V11.8702ZM14.541 11.3688V11.6026H14.941V11.3688H14.541ZM14.541 11.135V11.3688H14.941V11.135H14.541ZM15.4791 10.935H14.741V11.335H15.4791V10.935ZM16.2172 10.935H15.4791V11.335H16.2172V10.935ZM16.4172 11.3688V11.135H16.0172V11.3688H16.4172ZM16.4172 11.6026V11.3688H16.0172V11.6026H16.4172ZM15.4791 11.8026H16.2172V11.4026H15.4791V11.8026ZM14.741 11.8026H15.4791V11.4026H14.741V11.8026ZM14.6434 13.1699C14.6027 13.215 14.5647 13.263 14.5356 13.3059C14.5213 13.327 14.5069 13.3501 14.4952 13.3731C14.4894 13.3845 14.4827 13.3989 14.477 13.4152C14.4723 13.4287 14.4633 13.4573 14.4633 13.4932H14.8633C14.8633 13.5095 14.8611 13.5222 14.8595 13.5296C14.8579 13.5374 14.856 13.5432 14.8549 13.5465C14.8526 13.5529 14.851 13.5558 14.8517 13.5544C14.8531 13.5517 14.8576 13.5438 14.8665 13.5306C14.8841 13.5048 14.9104 13.4711 14.9404 13.4378L14.6434 13.1699ZM14.9479 12.9613C14.8912 12.9613 14.8495 12.9856 14.8441 12.9885C14.8294 12.9966 14.8169 13.0053 14.8084 13.0116C14.7906 13.0247 14.7724 13.0403 14.7559 13.0555C14.7219 13.0865 14.6821 13.1269 14.6434 13.1699L14.9404 13.4378C14.9724 13.4023 15.0031 13.3714 15.0257 13.3508C15.0374 13.3401 15.044 13.3348 15.0459 13.3334C15.0471 13.3325 15.0432 13.3356 15.0354 13.3398C15.0315 13.3419 15.0234 13.3462 15.0121 13.3502C15.0063 13.3523 14.9982 13.3549 14.9883 13.357C14.9785 13.3591 14.9647 13.3613 14.9479 13.3613V12.9613ZM17.2719 14.8685C17.2719 14.832 17.2619 14.8044 17.257 14.7922C17.2513 14.778 17.2451 14.7671 17.2411 14.7605C17.2331 14.7475 17.225 14.7373 17.2203 14.7316C17.2104 14.7196 17.1994 14.7081 17.1903 14.699C17.1712 14.6799 17.1457 14.6564 17.1167 14.6305C17.058 14.5779 16.9755 14.5073 16.8781 14.4256C16.6828 14.2618 16.4225 14.0491 16.1606 13.8386C15.8987 13.6281 15.6342 13.4189 15.4304 13.2619C15.3287 13.1836 15.241 13.1174 15.1757 13.0703C15.1435 13.047 15.1146 13.0268 15.0914 13.0118C15.0801 13.0045 15.0671 12.9964 15.054 12.9895C15.0476 12.9861 15.0377 12.9811 15.0259 12.9764C15.0202 12.9742 14.989 12.9613 14.9479 12.9613V13.3613C14.909 13.3613 14.8808 13.3492 14.8791 13.3485C14.8714 13.3454 14.8665 13.3428 14.866 13.3426C14.8646 13.3418 14.8669 13.343 14.8745 13.3479C14.8889 13.3572 14.9111 13.3725 14.9415 13.3945C15.0017 13.438 15.0857 13.5013 15.1863 13.5788C15.3872 13.7335 15.6494 13.9409 15.91 14.1504C16.1707 14.3599 16.4286 14.5706 16.621 14.732C16.7174 14.8129 16.7961 14.8803 16.8501 14.9286C16.8774 14.9531 16.8962 14.9707 16.9073 14.9817C16.9133 14.9877 16.9138 14.9886 16.9117 14.986C16.9109 14.9851 16.9057 14.9789 16.8997 14.9691C16.8967 14.9641 16.8912 14.9546 16.886 14.9416C16.8816 14.9307 16.8719 14.9042 16.8719 14.8685H17.2719ZM17.0624 15.2083C17.1105 15.1647 17.1552 15.1159 17.1896 15.0701C17.2066 15.0474 17.2238 15.0219 17.2377 14.9954C17.2476 14.9765 17.2719 14.9283 17.2719 14.8685H16.8719C16.8719 14.843 16.8775 14.8252 16.8794 14.8196C16.8818 14.8126 16.8837 14.809 16.8834 14.8097C16.8827 14.8111 16.8787 14.8179 16.8697 14.83C16.8519 14.8537 16.8247 14.8839 16.7936 14.9121L17.0624 15.2083ZM15.6009 14.5233C16.0979 14.9103 16.3792 15.1268 16.5525 15.2268C16.637 15.2756 16.7318 15.319 16.8335 15.3141C16.9487 15.3085 17.0233 15.2438 17.0624 15.2083L16.7936 14.9121C16.7643 14.9387 16.7802 14.9162 16.8142 14.9146C16.8347 14.9136 16.8259 14.9227 16.7524 14.8803C16.6097 14.798 16.3571 14.6051 15.8466 14.2077L15.6009 14.5233ZM14.4633 13.4932C14.4633 13.5544 14.492 13.5976 14.4938 13.6006C14.5019 13.6138 14.51 13.624 14.5146 13.6296C14.5245 13.6416 14.5353 13.6527 14.544 13.6614C14.5624 13.6796 14.5868 13.7019 14.6147 13.7265C14.6711 13.7763 14.751 13.8437 14.8478 13.9232C15.0417 14.0828 15.3083 14.2956 15.6009 14.5233L15.8466 14.2077C15.556 13.9815 15.2923 13.771 15.1019 13.6143C15.0064 13.5358 14.9306 13.4718 14.8793 13.4266C14.8533 13.4036 14.8359 13.3875 14.8259 13.3775C14.8204 13.3721 14.8204 13.3718 14.823 13.3749C14.824 13.3761 14.8294 13.3826 14.8356 13.3927C14.8356 13.3928 14.8633 13.4336 14.8633 13.4932H14.4633ZM8.94687 14.5251V15.4993H9.34687V14.5251H8.94687ZM8.94687 13.5509V14.5251H9.34687V13.5509H8.94687ZM8.91378 13.7509H9.14687V13.3509H8.91378V13.7509ZM8.68069 13.7509H8.91378V13.3509H8.68069V13.7509ZM8.88069 14.5251V13.5509H8.48069V14.5251H8.88069ZM8.88069 15.4993V14.5251H8.48069V15.4993H8.88069ZM8.91378 15.2993H8.68069V15.6993H8.91378V15.2993ZM9.14687 15.2993H8.91378V15.6993H9.14687V15.2993Z" fill="#176CF7" mask="url(#path-2-outside-1_861_14717)"/>
</svg>
