<svg width="24" height="26" viewBox="0 0 24 26" fill="none" xmlns="http://www.w3.org/2000/svg">
<path d="M2.5 22L3.29 19.13C4.6 14.4 8.05 12 11.5 12" stroke="#EA4335" stroke-width="2" stroke-linecap="round" stroke-linejoin="round"/>
<path d="M11.5 11.9902C14.2614 11.9902 16.5 9.75166 16.5 6.99023C16.5 4.22881 14.2614 1.99023 11.5 1.99023C8.73858 1.99023 6.5 4.22881 6.5 6.99023C6.5 9.75166 8.73858 11.9902 11.5 11.9902Z" stroke="#EA4335" stroke-width="2" stroke-linecap="round" stroke-linejoin="bevel"/>
<path d="M16.5 24.0098C19.2614 24.0098 21.5 21.7712 21.5 19.0098C21.5 16.2483 19.2614 14.0098 16.5 14.0098C13.7386 14.0098 11.5 16.2483 11.5 19.0098C11.5 21.7712 13.7386 24.0098 16.5 24.0098Z" stroke="#EA4335" stroke-width="2" stroke-linecap="round" stroke-linejoin="round"/>
<path d="M14.5 19.0098H18.5" stroke="#EA4335" stroke-width="2" stroke-linecap="round" stroke-linejoin="round"/>
</svg>
