<svg width="37" height="34" viewBox="0 0 37 34" fill="none" xmlns="http://www.w3.org/2000/svg">
<path d="M28.5754 7.13403H4.64941C3.54484 7.13403 2.64941 8.02946 2.64941 9.13403V25.081C2.64941 26.1856 3.54484 27.081 4.64941 27.081H28.5754C29.68 27.081 30.5754 26.1856 30.5754 25.081V9.13403C30.5754 8.02946 29.68 7.13403 28.5754 7.13403Z" stroke="black" stroke-width="2" stroke-linecap="round" stroke-linejoin="round"/>
<path d="M2.64941 13.1179H30.5754" stroke="black" stroke-width="2" stroke-linecap="round" stroke-linejoin="round"/>
<path d="M6.63867 18.105H15.6147" stroke="black" stroke-width="2" stroke-linecap="round" stroke-linejoin="round"/>
<path d="M6.63867 23.092H19.6047" stroke="black" stroke-width="2" stroke-linecap="round" stroke-linejoin="round"/>
<path d="M29 31C33.4183 31 37 27.4183 37 23C37 18.5817 33.4183 15 29 15C24.5817 15 21 18.5817 21 23C21 27.4183 24.5817 31 29 31Z" fill="#FFC217"/>
<path d="M25 24.9688H25.8843V22.8634H26.53L27.6809 24.9688H28.7477L27.4213 22.7651C28.116 22.6107 28.5582 22.1405 28.5582 21.4247C28.5582 20.372 27.6599 20 26.7265 20H25V24.9688ZM25.8843 22.1405V20.7439H26.6843C27.1405 20.7439 27.6739 20.8773 27.6739 21.4177C27.6739 22.0212 27.1054 22.1405 26.6071 22.1405H25.8843Z" fill="black"/>
<path d="M29.3716 21.6001V26.6532H30.2138V24.5197H30.2278C30.4454 24.8565 30.8735 25.0671 31.3437 25.0671C32.3684 25.0671 33 24.253 33 23.2704C33 22.2739 32.3263 21.5019 31.3648 21.5019C30.7472 21.5019 30.3682 21.8037 30.1998 22.0703H30.1787V21.6001H29.3716ZM32.1438 23.2704C32.1438 23.7968 31.828 24.3653 31.1753 24.3653C30.5577 24.3653 30.1857 23.8108 30.1857 23.2845C30.1857 22.7581 30.5577 22.1897 31.1753 22.1897C31.828 22.1897 32.1438 22.7441 32.1438 23.2704Z" fill="black"/>
</svg>
