<svg width="34" height="34" viewBox="0 0 34 34" fill="none" xmlns="http://www.w3.org/2000/svg">
<path d="M28.0283 9.54077H4.42359C4.31963 9.54077 4.23535 9.62505 4.23535 9.72901V14.6815C4.23535 14.7854 4.31963 14.8697 4.42359 14.8697H28.0283C28.1323 14.8697 28.2165 14.7854 28.2165 14.6815V9.72901C28.2165 9.62505 28.1323 9.54077 28.0283 9.54077Z" stroke="black" stroke-width="2" stroke-linecap="round" stroke-linejoin="round"/>
<path d="M25.5516 14.8293V25.4882C25.5516 25.8381 25.4827 26.1845 25.3488 26.5078C25.2149 26.8311 25.0187 27.1248 24.7712 27.3722C24.5238 27.6197 24.2301 27.8159 23.9068 27.9498C23.5836 28.0837 23.2371 28.1526 22.8872 28.1526H9.56388C9.21398 28.1526 8.8675 28.0837 8.54424 27.9498C8.22097 27.8159 7.92724 27.6197 7.67982 27.3722C7.4324 27.1248 7.23614 26.8311 7.10223 26.5078C6.96833 26.1845 6.89941 25.8381 6.89941 25.4882V14.8293" stroke="black" stroke-width="2" stroke-linecap="round" stroke-linejoin="round"/>
<path d="M5.98047 9.50034V9.12387C5.9026 8.34828 6.05868 7.56713 6.42863 6.88101C6.79857 6.1949 7.36543 5.63524 8.05622 5.2741C8.74701 4.91296 9.5301 4.76689 10.3046 4.85468C11.0792 4.94247 11.8097 5.26011 12.4021 5.76669L16.6374 9.49752" stroke="black" stroke-width="2" stroke-linecap="round" stroke-linejoin="round"/>
<path d="M26.3377 9.50029L26.5109 8.48759C26.6057 7.70171 26.4594 6.90557 26.0914 6.20476C25.7233 5.50395 25.1509 4.93158 24.4501 4.56356C23.7493 4.19554 22.9531 4.04925 22.1672 4.1441C21.3814 4.23895 20.6429 4.57045 20.0497 5.09464L15.8662 8.84806" stroke="black" stroke-width="2" stroke-linecap="round" stroke-linejoin="round"/>
</svg>
