<svg width="14" height="14" viewBox="0 0 14 14" fill="none" xmlns="http://www.w3.org/2000/svg">
<path fill-rule="evenodd" clip-rule="evenodd" d="M11.0825 2.00752L2.07002 5.41477C2.04907 5.4247 2.03137 5.44037 2.01897 5.45997C2.00658 5.47956 2 5.50227 2 5.52545C2 5.54864 2.00658 5.57135 2.01897 5.59094C2.03137 5.61054 2.04907 5.62621 2.07002 5.63614L5.92877 7.28727C5.94313 7.29312 5.95619 7.30179 5.96715 7.31275C5.97812 7.32372 5.98679 7.33678 5.99264 7.35114L7.64377 11.2073C7.6537 11.2282 7.66937 11.2459 7.68897 11.2583C7.70856 11.2707 7.73127 11.2773 7.75445 11.2773C7.77764 11.2773 7.80035 11.2707 7.81994 11.2583C7.83953 11.2459 7.85521 11.2282 7.86514 11.2073L11.2365 2.15977C11.245 2.13861 11.2471 2.11541 11.2426 2.09307C11.238 2.07072 11.227 2.05021 11.2108 2.03409C11.1947 2.01796 11.1742 2.00693 11.1518 2.00236C11.1295 1.99779 11.1063 1.99989 11.0851 2.00839L11.0825 2.00752Z" stroke="#176CF7" stroke-linecap="round" stroke-linejoin="round"/>
<path d="M11.2054 2.03613L5.9668 7.27476" stroke="#176CF7" stroke-linecap="round" stroke-linejoin="round"/>
</svg>
