<svg width="24" height="24" fill="none" xmlns="http://www.w3.org/2000/svg"><path fill-rule="evenodd" clip-rule="evenodd" d="M10.8008 16c-3.31373 0-6.00002-2.6863-6.00002-6 0-3.31371 2.68629-6 6.00002-6 3.3137 0 6 2.68629 6 6 0 1.5844-.6141 3.0253-1.6173 4.0978l3.042 3.8024c.276.3451.22.8485-.125 1.1245s-.8484.2201-1.1244-.1249l-3.031-3.7887c-.9143.5637-1.9913.8889-3.1443.8889zm0-1.6c2.43 0 4.4-1.9699 4.4-4.4 0-2.43005-1.97-4.4-4.4-4.4-2.43007 0-4.40002 1.96995-4.40002 4.4 0 2.4301 1.96995 4.4 4.40002 4.4z" fill="#000"/><mask id="a" maskUnits="userSpaceOnUse" x="4" y="4" width="15" height="16"><path fill-rule="evenodd" clip-rule="evenodd" d="M10.8008 16c-3.31373 0-6.00002-2.6863-6.00002-6 0-3.31371 2.68629-6 6.00002-6 3.3137 0 6 2.68629 6 6 0 1.5844-.6141 3.0253-1.6173 4.0978l3.042 3.8024c.276.3451.22.8485-.125 1.1245s-.8484.2201-1.1244-.1249l-3.031-3.7887c-.9143.5637-1.9913.8889-3.1443.8889zm0-1.6c2.43 0 4.4-1.9699 4.4-4.4 0-2.43005-1.97-4.4-4.4-4.4-2.43007 0-4.40002 1.96995-4.40002 4.4 0 2.4301 1.96995 4.4 4.40002 4.4z" fill="#fff"/></mask><g mask="url(#a)"><path fill="#176CF7" d="M0 0h24v24H0z"/></g></svg>