<svg width="72" height="72" viewBox="0 0 72 72" fill="none" xmlns="http://www.w3.org/2000/svg">
<circle cx="36" cy="36" r="34.5" fill="#FFF1A5" stroke="#FFC217" stroke-width="3"/>
<g clip-path="url(#clip0_378_3993)">
<path d="M54.4725 37.6559V43.4143H41.2529L42.8645 39.4335L44.7558 40.2368H52.3361V37.6559H54.4725Z" fill="#176CF7" stroke="#231F20" stroke-width="0.5" stroke-miterlimit="10"/>
<path d="M52.3356 30.7701V38.7191H47.7484L46.9387 40.2373H44.7553L42.864 39.434L46.3711 30.7701H52.3356Z" fill="white" stroke="#231F20" stroke-width="0.5" stroke-miterlimit="10"/>
<path d="M52.3354 38.7187V40.2369H46.9385L47.7482 38.7187H52.3354Z" fill="#FFC217" stroke="#231F20" stroke-width="0.5" stroke-miterlimit="10"/>
<path d="M41.8922 42.9923V31.0416H40.9379V42.7103H35.6457L34.8433 42.9923H41.8922Z" fill="#176CF7" stroke="#231F20" stroke-width="0.5" stroke-miterlimit="10"/>
<path d="M36.5405 39.1574V42.7208H40.4098V39.1574H36.5405ZM39.4157 40.3808H37.5348V40.0751H39.4157V40.3808Z" fill="#FFC217" stroke="#231F20" stroke-width="0.5" stroke-miterlimit="10"/>
<path d="M40.7154 38.5451H36.2344V39.1569H40.7154V38.5451Z" fill="#BF9211" stroke="#231F20" stroke-width="0.5" stroke-miterlimit="10"/>
<path d="M39.4153 40.0754H37.5342V40.3813H39.4153V40.0754Z" stroke="#231F20" stroke-width="0.5" stroke-miterlimit="10"/>
<path d="M36.5405 34.9819V38.5453H40.4098V34.9819H36.5405ZM39.4157 36.2054H37.5348V35.8995H39.4157V36.2054Z" fill="#FFC217" stroke="#231F20" stroke-width="0.5" stroke-miterlimit="10"/>
<path d="M40.7154 34.3706H36.2344V34.9824H40.7154V34.3706Z" fill="#BF9211" stroke="#231F20" stroke-width="0.5" stroke-miterlimit="10"/>
<path d="M39.4153 35.8998H37.5342V36.2057H39.4153V35.8998Z" stroke="#231F20" stroke-width="0.5" stroke-miterlimit="10"/>
<path d="M42.586 44.4999C43.5622 44.4999 44.3536 43.7085 44.3536 42.7322C44.3536 41.756 43.5622 40.9646 42.586 40.9646C41.6098 40.9646 40.8184 41.756 40.8184 42.7322C40.8184 43.7085 41.6098 44.4999 42.586 44.4999Z" fill="#183E7F" stroke="#231F20" stroke-width="0.5" stroke-miterlimit="10"/>
<path d="M42.576 43.6169C43.0688 43.6169 43.4683 43.2175 43.4683 42.7247C43.4683 42.232 43.0688 41.8325 42.576 41.8325C42.0833 41.8325 41.6838 42.232 41.6838 42.7247C41.6838 43.2175 42.0833 43.6169 42.576 43.6169Z" fill="#176CF7" stroke="#231F20" stroke-width="0.5" stroke-miterlimit="10"/>
<path d="M52.086 44.4988C52.7329 44.4988 53.2573 43.9744 53.2573 43.3275C53.2573 42.6807 52.7329 42.1563 52.086 42.1563C51.4392 42.1563 50.9148 42.6807 50.9148 43.3275C50.9148 43.9744 51.4392 44.4988 52.086 44.4988Z" fill="#183E7F" stroke="#231F20" stroke-width="0.5" stroke-miterlimit="10"/>
<path d="M52.0924 43.9145C52.4209 43.9145 52.6872 43.6482 52.6872 43.3197C52.6872 42.9912 52.4209 42.7249 52.0924 42.7249C51.7639 42.7249 51.4976 42.9912 51.4976 43.3197C51.4976 43.6482 51.7639 43.9145 52.0924 43.9145Z" fill="#176CF7" stroke="#231F20" stroke-width="0.5" stroke-miterlimit="10"/>
<path d="M49.0961 36.3776C49.0961 36.1992 49.0996 36.0207 49.0974 35.8423C49.0956 35.7753 49.0735 35.7104 49.0341 35.6561C48.9367 35.616 48.8408 35.5771 48.7297 35.5887C48.6442 35.5977 48.5569 35.5874 48.4708 35.5913C48.2878 35.5994 48.1206 35.6559 47.9818 35.7773C47.8234 35.9158 47.7029 36.0846 47.5933 36.2644C47.4789 36.4517 47.4002 36.6685 47.1913 36.7839C47.1802 36.7901 47.1742 36.8052 47.1658 36.8161C47.1832 36.844 47.1993 36.8723 47.2183 36.8998C47.3274 37.0553 47.437 37.2106 47.547 37.3657L47.9322 37.231C47.9801 37.2171 48.0255 37.1956 48.0665 37.1672C48.3009 36.9892 48.5399 36.8174 48.7729 36.6378C48.8822 36.5529 49.005 36.4845 49.0961 36.3776Z" fill="#BF9211" stroke="#231F20" stroke-width="0.5" stroke-miterlimit="10"/>
<path d="M47.1657 36.8156L47.0908 36.8322C46.9784 36.9446 46.8377 37.0196 46.712 37.1153C46.6144 37.1889 46.5138 37.2584 46.4145 37.3298C46.6086 37.3472 46.6908 37.4549 46.6813 37.679C46.8379 37.6426 46.9823 37.5713 47.135 37.5235C47.1665 37.5137 47.1983 37.5047 47.23 37.4959C47.3281 37.4349 47.446 37.421 47.5464 37.3648C47.4367 37.2096 47.3271 37.0543 47.2176 36.8989C47.1993 36.8723 47.1831 36.8435 47.1657 36.8156Z" fill="#F2C89D" stroke="#231F20" stroke-width="0.5" stroke-miterlimit="10"/>
<path d="M46.1444 37.4644V37.7321C46.1721 37.8372 46.2068 37.8612 46.3115 37.867C46.4623 37.8752 46.5947 37.8516 46.6663 37.6984C46.671 37.6924 46.6755 37.6864 46.6802 37.6806V37.6791C46.6897 37.4543 46.6075 37.3473 46.4134 37.3299L46.3152 37.331C46.2064 37.3312 46.1721 37.358 46.1444 37.4644Z" fill="#FFC217" stroke="#231F20" stroke-width="0.5" stroke-miterlimit="10"/>
<path d="M47.6849 37.2466L47.681 37.6183L47.8243 37.9104L47.9485 38.2798H49.4226C49.5082 37.9835 49.5939 37.6875 49.6797 37.3918C49.7027 37.3124 49.6894 37.2313 49.6907 37.1511C49.6928 37.0316 49.6907 36.9119 49.6892 36.7923C49.6892 36.614 49.6928 36.4355 49.6903 36.2571C49.6885 36.1902 49.6665 36.1253 49.627 36.0711C49.5806 35.9641 49.4959 35.8941 49.3981 35.8375L48.8496 35.5217L48.8031 35.5796C48.6831 35.7294 48.4886 35.7794 48.3189 35.7C48.2753 35.6769 48.2329 35.6515 48.1919 35.624C48.0444 35.7718 47.8979 35.9207 47.7494 36.0672C47.726 36.0887 47.7075 36.115 47.6953 36.1443C47.683 36.1737 47.6773 36.2053 47.6786 36.2371C47.6833 36.5735 47.6834 36.9102 47.6849 37.2466Z" fill="#FFC217" stroke="#231F20" stroke-width="0.5" stroke-miterlimit="10"/>
<path d="M49.6903 36.7929C49.6903 36.6146 49.6939 36.436 49.6916 36.2577C49.6898 36.1906 49.6677 36.1257 49.6283 36.0715C49.5309 36.0314 49.435 35.9924 49.3239 36.004C49.2385 36.013 49.1512 36.0027 49.065 36.0067C48.882 36.0147 48.7149 36.0713 48.5761 36.1927C48.4176 36.3311 48.2971 36.4999 48.1875 36.6797C48.0731 36.8671 47.9944 37.0838 47.7855 37.1992C47.7745 37.2054 47.7685 37.2206 47.7601 37.2314C47.7775 37.2594 47.7936 37.2876 47.8125 37.3152C47.9217 37.4707 48.0312 37.626 48.1413 37.7811L48.5264 37.6464C48.5744 37.6325 48.6197 37.6109 48.6607 37.5825C48.8951 37.4045 49.1341 37.2328 49.3672 37.0531C49.4764 36.9682 49.5993 36.8999 49.6903 36.7929Z" fill="#BF9211" stroke="#231F20" stroke-width="0.5" stroke-miterlimit="10"/>
<path d="M48.1925 35.6238C48.2334 35.6514 48.2758 35.6768 48.3195 35.6999C48.4892 35.7793 48.6836 35.7298 48.8039 35.5792L48.8502 35.5215C48.9154 35.3284 48.8792 35.1293 48.8852 34.9327H48.0849C48.0849 35.0746 48.0827 35.2164 48.0831 35.3584C48.0838 35.461 48.1421 35.5412 48.1925 35.6238Z" fill="#F2C89D" stroke="#231F20" stroke-width="0.5" stroke-miterlimit="10"/>
<path d="M47.7597 37.2299L47.6848 37.2465C47.5724 37.3589 47.4317 37.4339 47.306 37.5296C47.2084 37.6032 47.1078 37.6727 47.0085 37.7441C47.2026 37.7615 47.2848 37.8692 47.2753 38.0933C47.4319 38.0569 47.5763 37.9856 47.729 37.9378C47.7605 37.928 47.7923 37.9191 47.824 37.9103C47.9221 37.8492 48.04 37.8353 48.1404 37.7791C48.0307 37.6239 47.9211 37.4686 47.8116 37.3132C47.7932 37.2866 47.7771 37.2578 47.7597 37.2299Z" fill="#F2C89D" stroke="#231F20" stroke-width="0.5" stroke-miterlimit="10"/>
<path d="M48.0851 34.9327H48.8856C48.8856 34.8015 48.8887 34.6704 48.8869 34.5393C48.8855 34.4503 48.8344 34.3997 48.7451 34.3986C48.572 34.3966 48.3989 34.3966 48.2258 34.3986C48.1364 34.3997 48.0851 34.4503 48.0838 34.5393C48.0819 34.6708 48.0845 34.8017 48.0851 34.9327Z" fill="#6D6E71" stroke="#231F20" stroke-width="0.5" stroke-miterlimit="10"/>
<path d="M46.7396 37.8797V38.1474C46.7673 38.2525 46.802 38.2765 46.9067 38.2823C47.0575 38.2906 47.19 38.267 47.2615 38.1137C47.2662 38.1077 47.2707 38.1017 47.2754 38.0959V38.0944C47.2849 37.8696 47.2027 37.7627 47.0086 37.7452L46.9105 37.7464C46.8016 37.7466 46.7673 37.7733 46.7396 37.8797Z" fill="#FFC217" stroke="#231F20" stroke-width="0.5" stroke-miterlimit="10"/>
<path d="M17.3836 25.5321V38.1224V40.664H34.0471L34.2615 38.1224V25.5321H17.3836Z" fill="#183E7F" stroke="#231F20" stroke-width="0.5" stroke-miterlimit="10" stroke-linejoin="round"/>
<path d="M31.52 38.8143H32.0192C32.1301 38.8143 32.2173 38.6717 32.2173 38.4902V28.1842C32.2173 28.0027 32.1301 27.8601 32.0192 27.8601H31.52C31.4091 27.8601 31.3219 28.0027 31.3219 28.1842V38.4902C31.3219 38.6717 31.4091 38.8143 31.52 38.8143Z" fill="white" stroke="#231F20" stroke-width="0.5" stroke-miterlimit="10"/>
<path d="M28.5559 38.8143H29.0551C29.166 38.8143 29.2532 38.6717 29.2532 38.4902V28.1842C29.2532 28.0027 29.166 27.8601 29.0551 27.8601H28.5559C28.445 27.8601 28.3578 28.0027 28.3578 28.1842V38.4902C28.3578 38.6717 28.445 38.8143 28.5559 38.8143Z" fill="white" stroke="#231F20" stroke-width="0.5" stroke-miterlimit="10"/>
<path d="M25.5881 38.8143H26.0873C26.1982 38.8143 26.2854 38.6717 26.2854 38.4902V28.1842C26.2854 28.0027 26.1982 27.8601 26.0873 27.8601H25.5881C25.4772 27.8601 25.39 28.0027 25.39 28.1842V38.4902C25.39 38.6717 25.4772 38.8143 25.5881 38.8143Z" fill="white" stroke="#231F20" stroke-width="0.5" stroke-miterlimit="10"/>
<path d="M22.6211 38.8143H23.1203C23.2312 38.8143 23.3184 38.6717 23.3184 38.4902V28.1842C23.3184 28.0027 23.2312 27.8601 23.1203 27.8601H22.6211C22.5101 27.8601 22.423 28.0027 22.423 28.1842V38.4902C22.423 38.6717 22.5141 38.8143 22.6211 38.8143Z" fill="white" stroke="#231F20" stroke-width="0.5" stroke-miterlimit="10"/>
<path d="M19.6579 38.8143H20.1571C20.2681 38.8143 20.3552 38.6717 20.3552 38.4902V28.1842C20.3552 28.0027 20.2681 27.8601 20.1571 27.8601H19.6579C19.547 27.8601 19.4598 28.0027 19.4598 28.1842V38.4902C19.4598 38.6717 19.547 38.8143 19.6579 38.8143Z" fill="white" stroke="#231F20" stroke-width="0.5" stroke-miterlimit="10"/>
<path d="M29.3154 46.3098C27.7211 46.3098 26.4252 45.0617 26.4252 43.5272C26.4252 41.9887 27.717 40.7447 29.3154 40.7447C30.9097 40.7447 32.2056 41.9927 32.2056 43.5272C32.2056 45.0658 30.9097 46.3098 29.3154 46.3098Z" fill="#183E7F" stroke="#231F20" stroke-width="0.5" stroke-miterlimit="10"/>
<path d="M29.3148 45.1027C28.4113 45.1027 27.6796 44.3989 27.6796 43.5273C27.6796 42.6557 28.4113 41.9519 29.3148 41.9519C30.2182 41.9519 30.95 42.6557 30.95 43.5273C30.95 44.3989 30.2182 45.1027 29.3148 45.1027Z" fill="#307CFE" stroke="#231F20" stroke-width="0.5" stroke-miterlimit="10"/>
</g>
<defs>
<clipPath id="clip0_378_3993">
<rect width="37.9998" height="37.9998" fill="white" transform="translate(17 17)"/>
</clipPath>
</defs>
</svg>
