<svg width="72" height="72" viewBox="0 0 72 72" fill="none" xmlns="http://www.w3.org/2000/svg">
<circle cx="36" cy="36" r="34.5" fill="#FFF1A5" stroke="#FFC217" stroke-width="3"/>
<g clip-path="url(#clip0_378_3918)">
<path d="M34.9444 18.0555H17V52.8889H34.9444V18.0555Z" fill="#176CF7" stroke="black" stroke-width="0.5" stroke-miterlimit="10" stroke-linecap="round" stroke-linejoin="round"/>
<path d="M18.5833 21.75L25.4445 21.75V20.1667H18.5833V21.75Z" fill="white" stroke="#231F20" stroke-width="0.5" stroke-miterlimit="10"/>
<path d="M26.5001 21.75L33.3612 21.75V20.1667H26.5001V21.75Z" fill="white" stroke="#231F20" stroke-width="0.5" stroke-miterlimit="10"/>
<path d="M18.5833 25.4445L25.4445 25.4445V23.8611H18.5833V25.4445Z" fill="white" stroke="#231F20" stroke-width="0.5" stroke-miterlimit="10"/>
<path d="M26.5001 25.4445L33.3612 25.4445V23.8611H26.5001V25.4445Z" fill="white" stroke="#231F20" stroke-width="0.5" stroke-miterlimit="10"/>
<path d="M18.5833 29.1389L25.4445 29.1389V27.5556H18.5833V29.1389Z" fill="white" stroke="#231F20" stroke-width="0.5" stroke-miterlimit="10"/>
<path d="M26.5001 29.1389L33.3612 29.1389V27.5556H26.5001V29.1389Z" fill="white" stroke="#231F20" stroke-width="0.5" stroke-miterlimit="10"/>
<path d="M18.5833 32.8334H25.4445V31.25H18.5833V32.8334Z" fill="white" stroke="#231F20" stroke-width="0.5" stroke-miterlimit="10"/>
<path d="M26.5001 32.8334H33.3612V31.25H26.5001V32.8334Z" fill="white" stroke="#231F20" stroke-width="0.5" stroke-miterlimit="10"/>
<path d="M18.5833 36.5278H25.4445V34.9444H18.5833V36.5278Z" fill="white" stroke="#231F20" stroke-width="0.5" stroke-miterlimit="10"/>
<path d="M26.5001 36.5278H33.3612V34.9444H26.5001V36.5278Z" fill="white" stroke="#231F20" stroke-width="0.5" stroke-miterlimit="10"/>
<path d="M18.5833 40.2222H25.4445V38.6389H18.5833V40.2222Z" fill="white" stroke="#231F20" stroke-width="0.5" stroke-miterlimit="10"/>
<path d="M26.5001 40.2222H33.3612V38.6389H26.5001V40.2222Z" fill="white" stroke="#231F20" stroke-width="0.5" stroke-miterlimit="10"/>
<path d="M18.5833 43.9167H25.4445V42.3334H18.5833V43.9167Z" fill="white" stroke="#231F20" stroke-width="0.5" stroke-miterlimit="10"/>
<path d="M26.5001 43.9167H33.3612V42.3334H26.5001V43.9167Z" fill="white" stroke="#231F20" stroke-width="0.5" stroke-miterlimit="10"/>
<path d="M18.5833 47.6111H25.4445V46.0278H18.5833V47.6111Z" fill="white" stroke="#231F20" stroke-width="0.5" stroke-miterlimit="10"/>
<path d="M26.5001 47.6111H33.3612V46.0278H26.5001V47.6111Z" fill="white" stroke="#231F20" stroke-width="0.5" stroke-miterlimit="10"/>
<path d="M18.5833 51.3056H25.4445V49.7223H18.5833V51.3056Z" fill="white" stroke="#231F20" stroke-width="0.5" stroke-miterlimit="10"/>
<path d="M26.5001 51.3056H33.3612V49.7223H26.5001V51.3056Z" fill="white" stroke="#231F20" stroke-width="0.5" stroke-miterlimit="10"/>
<path d="M44.663 40.8231V34.6238C44.663 34.4736 44.7258 34.3339 44.834 34.2257C44.9421 34.1209 45.0922 34.0615 45.2457 34.0615H48.9407C49.0314 34.0615 49.1221 34.0825 49.2023 34.1209C49.2826 34.1593 49.3524 34.2187 49.4082 34.2885L51.7494 37.3166L52.5275 37.568C52.667 37.6135 52.7857 37.7077 52.8554 37.8335L53.2462 39.3283C53.3474 39.5099 53.2113 39.6182 53.4242 39.6182C53.5777 39.6182 53.7277 39.6775 53.8359 39.7823C53.9441 39.8871 54.0069 40.0303 54.0069 40.1805V41.6543C54.0069 42.1852 53.8917 42.6183 53.3404 42.6183H48.6406V43.2539H44.4013V43.8931H32.3499V42.4262H29.8517V40.7672L44.663 40.8231Z" fill="#176CF7" stroke="#231F20" stroke-width="0.5" stroke-miterlimit="10"/>
<path d="M49.0243 35.0534L49.8896 36.1815C49.9804 36.3003 50.0327 36.4365 50.0467 36.5831C50.0606 36.7298 50.0292 36.873 49.9629 37.0023C49.8931 37.1315 49.7885 37.2397 49.6628 37.3166C49.5372 37.3934 49.3872 37.4318 49.2337 37.4318H46.4982C46.2819 37.4318 46.076 37.348 45.9225 37.2013C45.769 37.0546 45.6818 36.8556 45.6818 36.646V35.5074C45.6818 35.4027 45.7027 35.3014 45.7446 35.2071C45.7864 35.1128 45.8458 35.0255 45.9225 34.9521C45.9993 34.8788 46.09 34.8194 46.1877 34.781C46.2889 34.7426 46.3935 34.7216 46.5017 34.7216L48.3719 34.7321C48.501 34.7321 48.6266 34.76 48.7417 34.8159C48.8499 34.8753 48.9476 34.9556 49.0243 35.0534Z" fill="#183E7F" stroke="#231F20" stroke-width="0.5" stroke-miterlimit="10"/>
<path d="M33.8884 45.538C35.2492 45.538 36.3552 44.4727 36.3552 43.163C36.3552 41.8498 35.2527 40.7881 33.8884 40.7881C32.5277 40.7881 31.4216 41.8533 31.4216 43.163C31.4216 44.4762 32.5277 45.538 33.8884 45.538Z" fill="#183E7F" stroke="#231F20" stroke-width="0.5" stroke-miterlimit="10"/>
<path d="M33.8886 44.5077C34.6597 44.5077 35.2842 43.907 35.2842 43.1631C35.2842 42.4192 34.6597 41.8185 33.8886 41.8185C33.1175 41.8185 32.4929 42.4192 32.4929 43.1631C32.4929 43.907 33.1175 44.5077 33.8886 44.5077Z" fill="#176CF7" stroke="#231F20" stroke-width="0.5" stroke-miterlimit="10"/>
<path d="M49.5825 45.538C50.9433 45.538 52.0493 44.4727 52.0493 43.163C52.0493 41.8498 50.9433 40.7881 49.5825 40.7881C48.2218 40.7881 47.1157 41.8533 47.1157 43.163C47.1157 44.4762 48.2183 45.538 49.5825 45.538Z" fill="#183E7F" stroke="#231F20" stroke-width="0.5" stroke-miterlimit="10"/>
<path d="M49.5825 44.5077C50.3536 44.5077 50.9782 43.907 50.9782 43.1631C50.9782 42.4192 50.3536 41.8185 49.5825 41.8185C48.8114 41.8185 48.1869 42.4192 48.1869 43.1631C48.1869 43.907 48.8114 44.5077 49.5825 44.5077Z" fill="#176CF7" stroke="#231F20" stroke-width="0.5" stroke-miterlimit="10"/>
<path d="M44.5023 31.7778V39.2518L44.2201 40.7606H22.56L22.2777 39.2518V31.7778H44.5023Z" fill="white" stroke="#231F20" stroke-width="0.5" stroke-miterlimit="10" stroke-linejoin="round"/>
<path d="M25.8947 39.1403H25.2361C25.0897 39.1403 24.9747 39.0635 24.9747 38.9657V33.4125C24.9747 33.3148 25.0897 33.2379 25.2361 33.2379H25.8947C26.041 33.2379 26.156 33.3148 26.156 33.4125V38.9657C26.156 39.0635 26.041 39.1403 25.8947 39.1403Z" fill="#176CF7" stroke="#231F20" stroke-width="0.5" stroke-miterlimit="10"/>
<path d="M29.8047 39.1403H29.1461C28.9998 39.1403 28.8848 39.0635 28.8848 38.9657V33.4125C28.8848 33.3148 28.9998 33.2379 29.1461 33.2379H29.8047C29.951 33.2379 30.066 33.3148 30.066 33.4125V38.9657C30.066 39.0635 29.951 39.1403 29.8047 39.1403Z" fill="#176CF7" stroke="#231F20" stroke-width="0.5" stroke-miterlimit="10"/>
<path d="M33.7196 39.1403H33.061C32.9147 39.1403 32.7997 39.0635 32.7997 38.9657V33.4125C32.7997 33.3148 32.9147 33.2379 33.061 33.2379H33.7196C33.866 33.2379 33.981 33.3148 33.981 33.4125V38.9657C33.981 39.0635 33.866 39.1403 33.7196 39.1403Z" fill="#176CF7" stroke="#231F20" stroke-width="0.5" stroke-miterlimit="10"/>
<path d="M37.6346 39.1403H36.9761C36.8297 39.1403 36.7147 39.0635 36.7147 38.9657V33.4125C36.7147 33.3148 36.8297 33.2379 36.9761 33.2379H37.6346C37.781 33.2379 37.896 33.3148 37.896 33.4125V38.9657C37.896 39.0635 37.7758 39.1403 37.6346 39.1403Z" fill="#176CF7" stroke="#231F20" stroke-width="0.5" stroke-miterlimit="10"/>
<path d="M41.5442 39.1403H40.8856C40.7393 39.1403 40.6243 39.0635 40.6243 38.9657V33.4125C40.6243 33.3148 40.7393 33.2379 40.8856 33.2379H41.5442C41.6905 33.2379 41.8055 33.3148 41.8055 33.4125V38.9657C41.8055 39.0635 41.6905 39.1403 41.5442 39.1403Z" fill="#176CF7" stroke="#231F20" stroke-width="0.5" stroke-miterlimit="10"/>
<path d="M37.9263 44.8813V39.1561C37.9263 39.0174 37.9843 38.8884 38.0842 38.7884C38.1841 38.6917 38.3227 38.6368 38.4645 38.6368H41.8769C41.9606 38.6368 42.0444 38.6562 42.1185 38.6917C42.1926 38.7272 42.2571 38.782 42.3086 38.8465L44.4708 41.643L45.1893 41.8752C45.3182 41.9171 45.4278 42.0042 45.4922 42.1203L45.8531 43.5008C45.9466 43.6685 45.8209 43.7685 46.0175 43.7685C46.1593 43.7685 46.2978 43.8234 46.3977 43.9201C46.4976 44.0169 46.5556 44.1491 46.5556 44.2878V45.649C46.5556 46.1392 46.4493 46.5392 45.9401 46.5392H41.5997H40.7689H37.3883H35.4866L26.8237 46.6696L26.5549 46.3618H24.2478V44.8297L37.9263 44.8813Z" fill="#176CF7" stroke="#231F20" stroke-width="0.5" stroke-miterlimit="10"/>
<path d="M41.9541 39.5529L42.7532 40.5947C42.837 40.7044 42.8854 40.8302 42.8982 40.9656C42.9111 41.1011 42.8821 41.2333 42.8209 41.3527C42.7565 41.472 42.6598 41.572 42.5438 41.643C42.4278 41.7139 42.2892 41.7494 42.1475 41.7494H39.6212C39.4214 41.7494 39.2313 41.672 39.0895 41.5365C38.9477 41.4011 38.8672 41.2172 38.8672 41.0237V39.9722C38.8672 39.8754 38.8865 39.7819 38.9252 39.6948C38.9639 39.6077 39.0186 39.5271 39.0895 39.4593C39.1604 39.3916 39.2442 39.3368 39.3344 39.3013C39.4279 39.2658 39.5245 39.2465 39.6244 39.2465L41.3516 39.2561C41.4708 39.2561 41.5868 39.2819 41.6931 39.3335C41.793 39.3884 41.8832 39.4626 41.9541 39.5529Z" fill="white" stroke="#231F20" stroke-width="0.5" stroke-miterlimit="10"/>
<path d="M27.9758 49.2355C29.2325 49.2355 30.2539 48.2518 30.2539 47.0422C30.2539 45.8295 29.2357 44.8489 27.9758 44.8489C26.7191 44.8489 25.6976 45.8327 25.6976 47.0422C25.6976 48.255 26.7191 49.2355 27.9758 49.2355Z" fill="#183E7F" stroke="#231F20" stroke-width="0.5" stroke-miterlimit="10"/>
<path d="M27.9759 48.2842C28.688 48.2842 29.2648 47.7294 29.2648 47.0424C29.2648 46.3554 28.688 45.8006 27.9759 45.8006C27.2638 45.8006 26.687 46.3554 26.687 47.0424C26.687 47.7294 27.2638 48.2842 27.9759 48.2842Z" fill="#176CF7" stroke="#231F20" stroke-width="0.5" stroke-miterlimit="10"/>
<path d="M42.4698 49.2355C43.7265 49.2355 44.7479 48.2518 44.7479 47.0422C44.7479 45.8295 43.7265 44.8489 42.4698 44.8489C41.2131 44.8489 40.1917 45.8327 40.1917 47.0422C40.1917 48.255 41.2099 49.2355 42.4698 49.2355Z" fill="#183E7F" stroke="#231F20" stroke-width="0.5" stroke-miterlimit="10"/>
<path d="M42.4696 48.2842C43.1817 48.2842 43.7585 47.7294 43.7585 47.0424C43.7585 46.3554 43.1817 45.8006 42.4696 45.8006C41.7575 45.8006 41.1807 46.3554 41.1807 47.0424C41.1807 47.7294 41.7575 48.2842 42.4696 48.2842Z" fill="#176CF7" stroke="#231F20" stroke-width="0.5" stroke-miterlimit="10"/>
<path d="M37.3554 36.5278V43.4302V44.8236H18.8218L18.5834 43.4302V36.5278H37.3554Z" fill="#183E7F" stroke="#231F20" stroke-width="0.5" stroke-miterlimit="10" stroke-linejoin="round"/>
<path d="M21.6382 43.3265H21.082C20.9583 43.3265 20.8612 43.2556 20.8612 43.1653V38.0368C20.8612 37.9465 20.9583 37.8755 21.082 37.8755H21.6382C21.7618 37.8755 21.859 37.9465 21.859 38.0368V43.1653C21.859 43.2556 21.7618 43.3265 21.6382 43.3265Z" fill="white" stroke="#231F20" stroke-width="0.5" stroke-miterlimit="10"/>
<path d="M24.9408 43.3265H24.3846C24.2609 43.3265 24.1638 43.2556 24.1638 43.1653V38.0368C24.1638 37.9465 24.2609 37.8755 24.3846 37.8755H24.9408C25.0645 37.8755 25.1616 37.9465 25.1616 38.0368V43.1653C25.1616 43.2556 25.0645 43.3265 24.9408 43.3265Z" fill="white" stroke="#231F20" stroke-width="0.5" stroke-miterlimit="10"/>
<path d="M28.2476 43.3265H27.6913C27.5677 43.3265 27.4706 43.2556 27.4706 43.1653V38.0368C27.4706 37.9465 27.5677 37.8755 27.6913 37.8755H28.2476C28.3712 37.8755 28.4683 37.9465 28.4683 38.0368V43.1653C28.4683 43.2556 28.3712 43.3265 28.2476 43.3265Z" fill="white" stroke="#231F20" stroke-width="0.5" stroke-miterlimit="10"/>
<path d="M31.5545 43.3265H30.9982C30.8746 43.3265 30.7775 43.2556 30.7775 43.1653V38.0368C30.7775 37.9465 30.8746 37.8755 30.9982 37.8755H31.5545C31.6781 37.8755 31.7752 37.9465 31.7752 38.0368V43.1653C31.7752 43.2556 31.6737 43.3265 31.5545 43.3265Z" fill="white" stroke="#231F20" stroke-width="0.5" stroke-miterlimit="10"/>
<path d="M34.8565 43.3265H34.3002C34.1766 43.3265 34.0795 43.2556 34.0795 43.1653V38.0368C34.0795 37.9465 34.1766 37.8755 34.3002 37.8755H34.8565C34.9801 37.8755 35.0772 37.9465 35.0772 38.0368V43.1653C35.0772 43.2556 34.9801 43.3265 34.8565 43.3265Z" fill="white" stroke="#231F20" stroke-width="0.5" stroke-miterlimit="10"/>
<path d="M32.0765 50.1565V44.3604C32.0765 44.22 32.1352 44.0894 32.2363 43.9882C32.3374 43.8902 32.4777 43.8347 32.6213 43.8347H36.0759C36.1607 43.8347 36.2455 43.8543 36.3205 43.8902C36.3956 43.9261 36.4608 43.9817 36.513 44.047L38.7019 46.878L39.4294 47.1131C39.5599 47.1556 39.6708 47.2438 39.736 47.3613L40.1014 48.7589C40.196 48.9287 40.0687 49.0299 40.2677 49.0299C40.4113 49.0299 40.5515 49.0854 40.6527 49.1834C40.7538 49.2813 40.8125 49.4152 40.8125 49.5556V50.9336C40.8125 51.4299 40.7049 51.8349 40.1894 51.8349H35.7953V52.4291H31.8318V53.0267H20.5643V51.6553H18.2286V50.1042L32.0765 50.1565Z" fill="#FFC217" stroke="#231F20" stroke-width="0.5" stroke-miterlimit="10"/>
<path d="M36.1541 44.7624L36.9631 45.8171C37.0479 45.9281 37.0968 46.0554 37.1099 46.1926C37.1229 46.3297 37.0936 46.4636 37.0316 46.5844C36.9664 46.7052 36.8685 46.8065 36.751 46.8783C36.6336 46.9501 36.4933 46.9861 36.3498 46.9861H33.7923C33.59 46.9861 33.3976 46.9077 33.254 46.7706C33.1105 46.6334 33.0289 46.4473 33.0289 46.2514V45.1869C33.0289 45.0889 33.0485 44.9942 33.0877 44.906C33.1268 44.8179 33.1823 44.7362 33.254 44.6677C33.3258 44.5991 33.4106 44.5436 33.5019 44.5077C33.5965 44.4717 33.6944 44.4521 33.7955 44.4521L35.544 44.4619C35.6647 44.4619 35.7822 44.4881 35.8898 44.5403C35.991 44.5958 36.0823 44.6709 36.1541 44.7624Z" fill="white" stroke="#231F20" stroke-width="0.5" stroke-miterlimit="10"/>
<path d="M22.0028 54.5646C23.275 54.5646 24.3091 53.5687 24.3091 52.3442C24.3091 51.1164 23.2783 50.1237 22.0028 50.1237C20.7305 50.1237 19.6964 51.1197 19.6964 52.3442C19.6964 53.5719 20.7305 54.5646 22.0028 54.5646Z" fill="#183E7F" stroke="#231F20" stroke-width="0.5" stroke-miterlimit="10"/>
<path d="M22.0029 53.6014C22.7238 53.6014 23.3077 53.0397 23.3077 52.3442C23.3077 51.6487 22.7238 51.087 22.0029 51.087C21.2819 51.087 20.698 51.6487 20.698 52.3442C20.698 53.0397 21.2819 53.6014 22.0029 53.6014Z" fill="#176CF7" stroke="#231F20" stroke-width="0.5" stroke-miterlimit="10"/>
<path d="M36.6761 54.5646C37.9483 54.5646 38.9824 53.5687 38.9824 52.3442C38.9824 51.1164 37.9483 50.1237 36.6761 50.1237C35.4039 50.1237 34.3698 51.1197 34.3698 52.3442C34.3698 53.5719 35.4006 54.5646 36.6761 54.5646Z" fill="#183E7F" stroke="#231F20" stroke-width="0.5" stroke-miterlimit="10"/>
<path d="M36.676 53.6014C37.3969 53.6014 37.9808 53.0397 37.9808 52.3442C37.9808 51.6487 37.3969 51.087 36.676 51.087C35.955 51.087 35.3711 51.6487 35.3711 52.3442C35.3711 53.0397 35.955 53.6014 36.676 53.6014Z" fill="#176CF7" stroke="#231F20" stroke-width="0.5" stroke-miterlimit="10"/>
<path d="M31.9262 41.6989V48.6867L31.7501 50.0974H18.2317L18.0555 48.6867V41.6989H31.9262Z" fill="#FFC217" stroke="#231F20" stroke-width="0.5" stroke-miterlimit="10" stroke-linejoin="round"/>
<path d="M20.3128 48.5827H19.9018C19.8104 48.5827 19.7386 48.5108 19.7386 48.4194V43.2275C19.7386 43.136 19.8104 43.0642 19.9018 43.0642H20.3128C20.4041 43.0642 20.4759 43.136 20.4759 43.2275V48.4194C20.4759 48.5108 20.4041 48.5827 20.3128 48.5827Z" fill="#BF9211" stroke="#231F20" stroke-width="0.5" stroke-miterlimit="10"/>
<path d="M22.753 48.5827H22.3419C22.2506 48.5827 22.1788 48.5108 22.1788 48.4194V43.2275C22.1788 43.136 22.2506 43.0642 22.3419 43.0642H22.753C22.8443 43.0642 22.9161 43.136 22.9161 43.2275V48.4194C22.9161 48.5108 22.8443 48.5827 22.753 48.5827Z" fill="#BF9211" stroke="#231F20" stroke-width="0.5" stroke-miterlimit="10"/>
<path d="M25.1965 48.5827H24.7854C24.6941 48.5827 24.6223 48.5108 24.6223 48.4194V43.2275C24.6223 43.136 24.6941 43.0642 24.7854 43.0642H25.1965C25.2878 43.0642 25.3596 43.136 25.3596 43.2275V48.4194C25.3596 48.5108 25.2878 48.5827 25.1965 48.5827Z" fill="#BF9211" stroke="#231F20" stroke-width="0.5" stroke-miterlimit="10"/>
<path d="M27.6398 48.5827H27.2288C27.1374 48.5827 27.0657 48.5108 27.0657 48.4194V43.2275C27.0657 43.136 27.1374 43.0642 27.2288 43.0642H27.6398C27.7312 43.0642 27.8029 43.136 27.8029 43.2275V48.4194C27.8029 48.5108 27.7279 48.5827 27.6398 48.5827Z" fill="#BF9211" stroke="#231F20" stroke-width="0.5" stroke-miterlimit="10"/>
<path d="M30.2408 48.3796H29.8297C29.7384 48.3796 29.6666 48.3078 29.6666 48.2163V43.0244C29.6666 42.933 29.7384 42.8611 29.8297 42.8611H30.2408C30.3321 42.8611 30.4039 42.933 30.4039 43.0244V48.2163C30.4039 48.3078 30.3321 48.3796 30.2408 48.3796Z" fill="#BF9211" stroke="#231F20" stroke-width="0.5" stroke-miterlimit="10"/>
<g clip-path="url(#clip1_378_3918)">
<path d="M43.3451 24.4733L43.345 24.4733L43.3482 24.4749C43.77 24.6933 44.2622 25.0442 44.826 25.5355L44.8267 25.5362C45.2181 25.8747 45.5412 26.1227 45.7919 26.2708L45.7919 26.2708L45.794 26.272C46.069 26.4308 46.3694 26.5102 46.6905 26.5102C47.2105 26.5102 47.6416 26.3185 47.9557 25.9291L47.9569 25.9276C48.1062 25.7394 48.2142 25.5163 48.2849 25.2636C48.3963 24.8651 48.6843 24.5895 49.0039 24.5895C49.3439 24.5895 49.5868 24.8566 49.5519 25.143C49.4945 25.6148 49.3736 26.0043 49.1964 26.3184L49.1955 26.32C48.923 26.8115 48.5695 27.1586 48.1373 27.3748C47.6889 27.599 47.2181 27.7105 46.722 27.7105C46.2244 27.7105 45.7769 27.6036 45.3749 27.3932C44.9568 27.1691 44.4639 26.8149 43.8949 26.3235C43.5084 25.9847 43.1844 25.7359 42.927 25.5872C42.652 25.4283 42.3516 25.349 42.0305 25.349C41.5391 25.349 41.1201 25.5251 40.7926 25.8774L40.7925 25.8775C40.6159 26.0677 40.4964 26.3134 40.4236 26.6002C40.3232 26.9958 40.0373 27.2697 39.7178 27.2697C39.3773 27.2697 39.1341 27.0022 39.1691 26.7155C39.2266 26.244 39.3474 25.8547 39.5246 25.5408C39.8028 25.0479 40.1568 24.7003 40.5842 24.4841C41.0324 24.2601 41.503 24.1487 41.999 24.1487C42.496 24.1487 42.9431 24.2579 43.3451 24.4733Z" fill="#176CF7" stroke="black" stroke-width="0.5"/>
</g>
</g>
<defs>
<clipPath id="clip0_378_3918">
<rect width="38" height="38" fill="white" transform="translate(17 17)"/>
</clipPath>
<clipPath id="clip1_378_3918">
<rect width="11.6111" height="4.22222" fill="white" transform="translate(38.6389 23.8611)"/>
</clipPath>
</defs>
</svg>
