<svg width="41" height="41" viewBox="0 0 41 41" fill="none" xmlns="http://www.w3.org/2000/svg">
<path d="M19.9106 1H1V38.2102H19.9106V1Z" fill="#307CFE" stroke="black" stroke-width="0.5" stroke-miterlimit="10" stroke-linecap="round" stroke-linejoin="round"/>
<path d="M2.66985 4.94711L9.90039 4.94711V3.25574L2.66985 3.25574V4.94711Z" fill="white" stroke="#231F20" stroke-width="0.5" stroke-miterlimit="10"/>
<path d="M11.0126 4.94711L18.2432 4.94711V3.25574L11.0126 3.25574V4.94711Z" fill="white" stroke="#231F20" stroke-width="0.5" stroke-miterlimit="10"/>
<path d="M2.66985 8.89359L9.90039 8.89359V7.20221L2.66985 7.20221V8.89359Z" fill="white" stroke="#231F20" stroke-width="0.5" stroke-miterlimit="10"/>
<path d="M11.0126 8.89359L18.2432 8.89359V7.20221L11.0126 7.20221V8.89359Z" fill="white" stroke="#231F20" stroke-width="0.5" stroke-miterlimit="10"/>
<path d="M2.66985 12.8401L9.90039 12.8401V11.1487L2.66985 11.1487V12.8401Z" fill="white" stroke="#231F20" stroke-width="0.5" stroke-miterlimit="10"/>
<path d="M11.0126 12.8401L18.2432 12.8401V11.1487L11.0126 11.1487V12.8401Z" fill="white" stroke="#231F20" stroke-width="0.5" stroke-miterlimit="10"/>
<path d="M2.66985 16.7868L9.90039 16.7868V15.0954L2.66985 15.0954V16.7868Z" fill="white" stroke="#231F20" stroke-width="0.5" stroke-miterlimit="10"/>
<path d="M11.0126 16.7868L18.2432 16.7868V15.0954L11.0126 15.0954V16.7868Z" fill="white" stroke="#231F20" stroke-width="0.5" stroke-miterlimit="10"/>
<path d="M2.66985 20.7333L9.90039 20.7333V19.0419L2.66985 19.0419V20.7333Z" fill="white" stroke="#231F20" stroke-width="0.5" stroke-miterlimit="10"/>
<path d="M11.0126 20.7333L18.2432 20.7333V19.0419L11.0126 19.0419V20.7333Z" fill="white" stroke="#231F20" stroke-width="0.5" stroke-miterlimit="10"/>
<path d="M2.66985 24.6795L9.90039 24.6795V22.9881L2.66985 22.9881V24.6795Z" fill="white" stroke="#231F20" stroke-width="0.5" stroke-miterlimit="10"/>
<path d="M11.0126 24.6795L18.2432 24.6795V22.9881L11.0126 22.9881V24.6795Z" fill="white" stroke="#231F20" stroke-width="0.5" stroke-miterlimit="10"/>
<path d="M2.66985 28.6262L9.90039 28.6262V26.9348L2.66985 26.9348V28.6262Z" fill="white" stroke="#231F20" stroke-width="0.5" stroke-miterlimit="10"/>
<path d="M11.0126 28.6262L18.2432 28.6262V26.9348L11.0126 26.9348V28.6262Z" fill="white" stroke="#231F20" stroke-width="0.5" stroke-miterlimit="10"/>
<path d="M2.66985 32.5727H9.90039V30.8813L2.66985 30.8813V32.5727Z" fill="white" stroke="#231F20" stroke-width="0.5" stroke-miterlimit="10"/>
<path d="M11.0126 32.5727H18.2432V30.8813L11.0126 30.8813V32.5727Z" fill="white" stroke="#231F20" stroke-width="0.5" stroke-miterlimit="10"/>
<path d="M2.66985 36.5192H9.90039V34.8278H2.66985V36.5192Z" fill="white" stroke="#231F20" stroke-width="0.5" stroke-miterlimit="10"/>
<path d="M11.0126 36.5192H18.2432V34.8278H11.0126V36.5192Z" fill="white" stroke="#231F20" stroke-width="0.5" stroke-miterlimit="10"/>
<path d="M30.1528 25.3212V18.6989C30.1528 18.5385 30.2189 18.3893 30.3329 18.2736C30.4469 18.1617 30.605 18.0983 30.7668 18.0983H34.6607C34.7563 18.0983 34.8519 18.1207 34.9365 18.1617C35.0211 18.2027 35.0946 18.2662 35.1535 18.3408L37.6207 21.5754L38.4407 21.8441C38.5878 21.8926 38.7128 21.9933 38.7863 22.1276L39.1981 23.7244C39.3048 23.9184 39.1614 24.0341 39.3857 24.0341C39.5475 24.0341 39.7056 24.0975 39.8196 24.2094C39.9335 24.3214 39.9997 24.4743 39.9997 24.6348V26.2092C39.9997 26.7763 39.8784 27.2389 39.2974 27.2389H34.3445V27.9179H29.877V28.6007H17.1767V27.0337H14.5439V25.2615L30.1528 25.3212Z" fill="#307CFE" stroke="#231F20" stroke-width="0.5" stroke-miterlimit="10"/>
<path d="M34.7481 19.1579L35.66 20.363C35.7556 20.4898 35.8108 20.6353 35.8255 20.792C35.8402 20.9487 35.8071 21.1017 35.7373 21.2397C35.6637 21.3778 35.5534 21.4934 35.421 21.5755C35.2887 21.6576 35.1305 21.6986 34.9688 21.6986H32.086C31.858 21.6986 31.6411 21.6091 31.4793 21.4524C31.3175 21.2957 31.2256 21.083 31.2256 20.8592V19.6429C31.2256 19.531 31.2476 19.4228 31.2918 19.3221C31.3359 19.2213 31.3984 19.1281 31.4793 19.0497C31.5602 18.9714 31.6558 18.9079 31.7587 18.8669C31.8654 18.8259 31.9757 18.8035 32.0897 18.8035L34.0605 18.8147C34.1966 18.8147 34.329 18.8445 34.4503 18.9042C34.5643 18.9676 34.6672 19.0534 34.7481 19.1579Z" fill="#183E7F" stroke="#231F20" stroke-width="0.5" stroke-miterlimit="10"/>
<path d="M18.7998 30.3581C20.2338 30.3581 21.3995 29.2202 21.3995 27.8211C21.3995 26.4183 20.2375 25.2841 18.7998 25.2841C17.3658 25.2841 16.2002 26.422 16.2002 27.8211C16.2002 29.2239 17.3658 30.3581 18.7998 30.3581Z" fill="#183E7F" stroke="#231F20" stroke-width="0.5" stroke-miterlimit="10"/>
<path d="M18.7979 29.2571C19.6106 29.2571 20.2687 28.6154 20.2687 27.8208C20.2687 27.0261 19.6106 26.3844 18.7979 26.3844C17.9853 26.3844 17.3271 27.0261 17.3271 27.8208C17.3271 28.6154 17.9853 29.2571 18.7979 29.2571Z" fill="#307CFE" stroke="#231F20" stroke-width="0.5" stroke-miterlimit="10"/>
<path d="M35.3369 30.3581C36.771 30.3581 37.9366 29.2202 37.9366 27.8211C37.9366 26.4183 36.771 25.2841 35.3369 25.2841C33.9029 25.2841 32.7373 26.422 32.7373 27.8211C32.7373 29.2239 33.8992 30.3581 35.3369 30.3581Z" fill="#183E7F" stroke="#231F20" stroke-width="0.5" stroke-miterlimit="10"/>
<path d="M35.338 29.2571C36.1506 29.2571 36.8088 28.6154 36.8088 27.8208C36.8088 27.0261 36.1506 26.3844 35.338 26.3844C34.5254 26.3844 33.8672 27.0261 33.8672 27.8208C33.8672 28.6154 34.5254 29.2571 35.338 29.2571Z" fill="#307CFE" stroke="#231F20" stroke-width="0.5" stroke-miterlimit="10"/>
<path d="M29.9828 15.6587V23.6427L29.6854 25.2545H6.85897L6.56152 23.6427V15.6587H29.9828Z" fill="white" stroke="#231F20" stroke-width="0.5" stroke-miterlimit="10" stroke-linejoin="round"/>
<path d="M10.3728 23.5236H9.67874C9.5245 23.5236 9.40332 23.4416 9.40332 23.3371V17.405C9.40332 17.3006 9.5245 17.2185 9.67874 17.2185H10.3728C10.527 17.2185 10.6482 17.3006 10.6482 17.405V23.3371C10.6482 23.4416 10.527 23.5236 10.3728 23.5236Z" fill="#307CFE" stroke="#231F20" stroke-width="0.5" stroke-miterlimit="10"/>
<path d="M14.4939 23.5236H13.7998C13.6456 23.5236 13.5244 23.4416 13.5244 23.3371V17.405C13.5244 17.3006 13.6456 17.2185 13.7998 17.2185H14.4939C14.6481 17.2185 14.7693 17.3006 14.7693 17.405V23.3371C14.7693 23.4416 14.6481 23.5236 14.4939 23.5236Z" fill="#307CFE" stroke="#231F20" stroke-width="0.5" stroke-miterlimit="10"/>
<path d="M18.6198 23.5236H17.9258C17.7716 23.5236 17.6504 23.4416 17.6504 23.3371V17.405C17.6504 17.3006 17.7716 17.2185 17.9258 17.2185H18.6198C18.7741 17.2185 18.8953 17.3006 18.8953 17.405V23.3371C18.8953 23.4416 18.7741 23.5236 18.6198 23.5236Z" fill="#307CFE" stroke="#231F20" stroke-width="0.5" stroke-miterlimit="10"/>
<path d="M22.7439 23.5236H22.0499C21.8956 23.5236 21.7744 23.4416 21.7744 23.3371V17.405C21.7744 17.3006 21.8956 17.2185 22.0499 17.2185H22.7439C22.8981 17.2185 23.0193 17.3006 23.0193 17.405V23.3371C23.0193 23.4416 22.8926 23.5236 22.7439 23.5236Z" fill="#307CFE" stroke="#231F20" stroke-width="0.5" stroke-miterlimit="10"/>
<path d="M26.865 23.5236H26.1709C26.0167 23.5236 25.8955 23.4416 25.8955 23.3371V17.405C25.8955 17.3006 26.0167 17.2185 26.1709 17.2185H26.865C27.0192 17.2185 27.1404 17.3006 27.1404 17.405V23.3371C27.1404 23.4416 27.0192 23.5236 26.865 23.5236Z" fill="#307CFE" stroke="#231F20" stroke-width="0.5" stroke-miterlimit="10"/>
<path d="M23.0537 29.6562V23.5404C23.0537 23.3922 23.1148 23.2544 23.2201 23.1476C23.3254 23.0442 23.4714 22.9856 23.6208 22.9856H27.2169C27.3052 22.9856 27.3935 23.0063 27.4716 23.0442C27.5497 23.0821 27.6176 23.1407 27.672 23.2096L29.9505 26.1969L30.7078 26.4449C30.8436 26.4897 30.9591 26.5828 31.027 26.7068L31.4073 28.1815C31.5058 28.3607 31.3734 28.4675 31.5805 28.4675C31.7299 28.4675 31.8759 28.526 31.9812 28.6294C32.0865 28.7328 32.1476 28.874 32.1476 29.0222V30.4762C32.1476 30.9999 32.0355 31.4272 31.499 31.4272H26.9249H26.0493H22.4867H20.4826L11.3533 31.5665L11.07 31.2377H8.63867V29.6011L23.0537 29.6562Z" fill="#307CFE" stroke="#231F20" stroke-width="0.5" stroke-miterlimit="10"/>
<path d="M27.2981 23.9641L28.1402 25.077C28.2285 25.1942 28.2794 25.3286 28.293 25.4733C28.3066 25.618 28.2761 25.7593 28.2115 25.8867C28.1436 26.0142 28.0417 26.121 27.9195 26.1968C27.7972 26.2726 27.6512 26.3105 27.5018 26.3105H24.8395C24.629 26.3105 24.4286 26.2279 24.2792 26.0831C24.1298 25.9384 24.0449 25.742 24.0449 25.5353V24.4121C24.0449 24.3087 24.0653 24.2088 24.106 24.1157C24.1468 24.0227 24.2045 23.9366 24.2792 23.8642C24.3539 23.7919 24.4422 23.7333 24.5373 23.6954C24.6358 23.6575 24.7377 23.6368 24.8429 23.6368L26.6631 23.6471C26.7887 23.6471 26.911 23.6747 27.023 23.7298C27.1283 23.7884 27.2234 23.8677 27.2981 23.9641Z" fill="white" stroke="#231F20" stroke-width="0.5" stroke-miterlimit="10"/>
<path d="M12.5658 34.3077C13.8902 34.3077 14.9667 33.2568 14.9667 31.9647C14.9667 30.6692 13.8936 29.6217 12.5658 29.6217C11.2415 29.6217 10.165 30.6726 10.165 31.9647C10.165 33.2602 11.2415 34.3077 12.5658 34.3077Z" fill="#183E7F" stroke="#231F20" stroke-width="0.5" stroke-miterlimit="10"/>
<path d="M12.5663 33.2914C13.3168 33.2914 13.9246 32.6988 13.9246 31.9649C13.9246 31.231 13.3168 30.6384 12.5663 30.6384C11.8159 30.6384 11.208 31.231 11.208 31.9649C11.208 32.6988 11.8159 33.2914 12.5663 33.2914Z" fill="#307CFE" stroke="#231F20" stroke-width="0.5" stroke-miterlimit="10"/>
<path d="M27.8422 34.3077C29.1666 34.3077 30.243 33.2568 30.243 31.9647C30.243 30.6692 29.1666 29.6217 27.8422 29.6217C26.5179 29.6217 25.4414 30.6726 25.4414 31.9647C25.4414 33.2602 26.5145 34.3077 27.8422 34.3077Z" fill="#183E7F" stroke="#231F20" stroke-width="0.5" stroke-miterlimit="10"/>
<path d="M27.8407 33.2914C28.5912 33.2914 29.199 32.6988 29.199 31.9649C29.199 31.231 28.5912 30.6384 27.8407 30.6384C27.0903 30.6384 26.4824 31.231 26.4824 31.9649C26.4824 32.6988 27.0903 33.2914 27.8407 33.2914Z" fill="#307CFE" stroke="#231F20" stroke-width="0.5" stroke-miterlimit="10"/>
<path d="M22.4528 20.7326V28.1061V29.5946H2.92116L2.66992 28.1061V20.7326H22.4528Z" fill="#183E7F" stroke="#231F20" stroke-width="0.5" stroke-miterlimit="10" stroke-linejoin="round"/>
<path d="M5.89015 27.9956H5.30392C5.17365 27.9956 5.07129 27.9198 5.07129 27.8233V22.3449C5.07129 22.2485 5.17365 22.1727 5.30392 22.1727H5.89015C6.02042 22.1727 6.12278 22.2485 6.12278 22.3449V27.8233C6.12278 27.9198 6.02042 27.9956 5.89015 27.9956Z" fill="white" stroke="#231F20" stroke-width="0.5" stroke-miterlimit="10"/>
<path d="M9.37072 27.9957H8.78449C8.65422 27.9957 8.55186 27.9199 8.55186 27.8234V22.345C8.55186 22.2486 8.65422 22.1728 8.78449 22.1728H9.37072C9.50099 22.1728 9.60335 22.2486 9.60335 22.345V27.8234C9.60335 27.9199 9.50099 27.9957 9.37072 27.9957Z" fill="white" stroke="#231F20" stroke-width="0.5" stroke-miterlimit="10"/>
<path d="M12.856 27.9956H12.2697C12.1395 27.9956 12.0371 27.9198 12.0371 27.8233V22.3449C12.0371 22.2485 12.1395 22.1727 12.2697 22.1727H12.856C12.9862 22.1727 13.0886 22.2485 13.0886 22.3449V27.8233C13.0886 27.9198 12.9862 27.9956 12.856 27.9956Z" fill="white" stroke="#231F20" stroke-width="0.5" stroke-miterlimit="10"/>
<path d="M16.3403 27.9956H15.7541C15.6238 27.9956 15.5215 27.9198 15.5215 27.8233V22.3449C15.5215 22.2485 15.6238 22.1727 15.7541 22.1727H16.3403C16.4706 22.1727 16.573 22.2485 16.573 22.3449V27.8233C16.573 27.9198 16.466 27.9956 16.3403 27.9956Z" fill="white" stroke="#231F20" stroke-width="0.5" stroke-miterlimit="10"/>
<path d="M19.821 27.9957H19.2348C19.1045 27.9957 19.0021 27.9199 19.0021 27.8234V22.345C19.0021 22.2486 19.1045 22.1728 19.2348 22.1728H19.821C19.9513 22.1728 20.0536 22.2486 20.0536 22.345V27.8234C20.0536 27.9199 19.9513 27.9957 19.821 27.9957Z" fill="white" stroke="#231F20" stroke-width="0.5" stroke-miterlimit="10"/>
<path d="M16.8894 35.291V29.0995C16.8894 28.9495 16.9512 28.81 17.0578 28.7019C17.1644 28.5972 17.3122 28.5379 17.4635 28.5379H21.1041C21.1935 28.5379 21.2829 28.5589 21.3619 28.5972C21.441 28.6356 21.5098 28.6949 21.5648 28.7647L23.8715 31.7889L24.6382 32.0401C24.7757 32.0854 24.8925 32.1796 24.9613 32.3052L25.3463 33.7981C25.446 33.9795 25.312 34.0876 25.5217 34.0876C25.6729 34.0876 25.8208 34.1469 25.9273 34.2516C26.0339 34.3562 26.0958 34.4992 26.0958 34.6492V36.1212C26.0958 36.6514 25.9823 37.084 25.4392 37.084H20.8084V37.7188H16.6315V38.3572H4.75736V36.8921H2.2959V35.2352L16.8894 35.291Z" fill="#FFC217" stroke="#231F20" stroke-width="0.5" stroke-miterlimit="10"/>
<path d="M21.187 29.529L22.0395 30.6557C22.1289 30.7743 22.1805 30.9103 22.1942 31.0568C22.208 31.2033 22.1771 31.3463 22.1117 31.4754C22.043 31.6045 21.9398 31.7126 21.8161 31.7893C21.6923 31.8661 21.5445 31.9045 21.3932 31.9045H18.698C18.4849 31.9045 18.282 31.8207 18.1308 31.6742C17.9795 31.5277 17.8936 31.3289 17.8936 31.1196V29.9825C17.8936 29.8778 17.9142 29.7767 17.9554 29.6825C17.9967 29.5883 18.0551 29.5011 18.1308 29.4279C18.2064 29.3546 18.2958 29.2953 18.392 29.2569C18.4917 29.2186 18.5949 29.1976 18.7014 29.1976L20.5441 29.2081C20.6713 29.2081 20.7951 29.236 20.9085 29.2918C21.0151 29.3511 21.1113 29.4313 21.187 29.529Z" fill="white" stroke="#231F20" stroke-width="0.5" stroke-miterlimit="10"/>
<path d="M6.27329 40C7.61404 40 8.70382 38.9361 8.70382 37.628C8.70382 36.3165 7.61747 35.2561 6.27329 35.2561C4.93255 35.2561 3.84277 36.32 3.84277 37.628C3.84277 38.9396 4.93255 40 6.27329 40Z" fill="#183E7F" stroke="#231F20" stroke-width="0.5" stroke-miterlimit="10"/>
<path d="M6.27356 38.9712C7.03331 38.9712 7.64868 38.3712 7.64868 37.6283C7.64868 36.8853 7.03331 36.2853 6.27356 36.2853C5.5138 36.2853 4.89844 36.8853 4.89844 37.6283C4.89844 38.3712 5.5138 38.9712 6.27356 38.9712Z" fill="#307CFE" stroke="#231F20" stroke-width="0.5" stroke-miterlimit="10"/>
<path d="M21.7352 40C23.076 40 24.1657 38.9361 24.1657 37.628C24.1657 36.3165 23.076 35.2561 21.7352 35.2561C20.3945 35.2561 19.3047 36.32 19.3047 37.628C19.3047 38.9396 20.391 40 21.7352 40Z" fill="#183E7F" stroke="#231F20" stroke-width="0.5" stroke-miterlimit="10"/>
<path d="M21.7364 38.9712C22.4962 38.9712 23.1116 38.3712 23.1116 37.6283C23.1116 36.8853 22.4962 36.2853 21.7364 36.2853C20.9767 36.2853 20.3613 36.8853 20.3613 37.6283C20.3613 38.3712 20.9767 38.9712 21.7364 38.9712Z" fill="#307CFE" stroke="#231F20" stroke-width="0.5" stroke-miterlimit="10"/>
<path d="M16.7298 26.2567V33.7214L16.5442 35.2283H2.29795L2.1123 33.7214V26.2567H16.7298Z" fill="#FFC217" stroke="#231F20" stroke-width="0.5" stroke-miterlimit="10" stroke-linejoin="round"/>
<path d="M4.48982 33.6098H4.05666C3.9604 33.6098 3.88477 33.5331 3.88477 33.4354V27.8892C3.88477 27.7916 3.9604 27.7148 4.05666 27.7148H4.48982C4.58608 27.7148 4.66171 27.7916 4.66171 27.8892V33.4354C4.66171 33.5331 4.58608 33.6098 4.48982 33.6098Z" fill="#BF9211" stroke="#231F20" stroke-width="0.5" stroke-miterlimit="10"/>
<path d="M7.06208 33.6098H6.62892C6.53266 33.6098 6.45703 33.5331 6.45703 33.4354V27.8892C6.45703 27.7916 6.53266 27.7148 6.62892 27.7148H7.06208C7.15834 27.7148 7.23397 27.7916 7.23397 27.8892V33.4354C7.23397 33.5331 7.15834 33.6098 7.06208 33.6098Z" fill="#BF9211" stroke="#231F20" stroke-width="0.5" stroke-miterlimit="10"/>
<path d="M9.63615 33.6099H9.20299C9.10673 33.6099 9.0311 33.5332 9.0311 33.4355V27.8893C9.0311 27.7916 9.10673 27.7149 9.20299 27.7149H9.63615C9.73241 27.7149 9.80804 27.7916 9.80804 27.8893V33.4355C9.80804 33.5332 9.73241 33.6099 9.63615 33.6099Z" fill="#BF9211" stroke="#231F20" stroke-width="0.5" stroke-miterlimit="10"/>
<path d="M12.2116 33.6099H11.7785C11.6822 33.6099 11.6066 33.5332 11.6066 33.4355V27.8893C11.6066 27.7916 11.6822 27.7149 11.7785 27.7149H12.2116C12.3079 27.7149 12.3835 27.7916 12.3835 27.8893V33.4355C12.3835 33.5332 12.3044 33.6099 12.2116 33.6099Z" fill="#BF9211" stroke="#231F20" stroke-width="0.5" stroke-miterlimit="10"/>
<path d="M14.7837 33.6099H14.3505C14.2543 33.6099 14.1786 33.5332 14.1786 33.4355V27.8893C14.1786 27.7916 14.2543 27.7149 14.3505 27.7149H14.7837C14.88 27.7149 14.9556 27.7916 14.9556 27.8893V33.4355C14.9556 33.5332 14.88 33.6099 14.7837 33.6099Z" fill="#BF9211" stroke="#231F20" stroke-width="0.5" stroke-miterlimit="10"/>
<path d="M28.7685 7.83969L28.7685 7.83967C28.3431 7.60862 27.8702 7.49158 27.3449 7.49158C26.8207 7.49158 26.3231 7.61097 25.8491 7.85112C25.3962 8.08329 25.0209 8.4568 24.7262 8.98609M28.7685 7.83969L25.7355 7.62838C25.2323 7.88625 24.823 8.29828 24.5078 8.86448C24.2989 9.23964 24.1629 9.69479 24.0997 10.2299C24.0423 10.7158 24.4518 11.1096 24.941 11.1096C25.4417 11.1096 25.818 10.6917 25.937 10.2053C26.0057 9.92469 26.1155 9.70197 26.2664 9.53719C26.5596 9.21765 26.9301 9.05788 27.3781 9.05788C27.6712 9.05788 27.9421 9.13076 28.191 9.27651C28.4399 9.42226 28.7662 9.67453 29.1699 10.0333M28.7685 7.83969L28.7717 7.84135C29.2174 8.07523 29.737 8.45082 30.3316 8.97616L30.3324 8.97679C30.7446 9.3382 31.0845 9.60247 31.3476 9.76006L31.3476 9.76007L31.3497 9.76133C31.6375 9.92989 31.9522 10.0142 32.289 10.0142C32.8346 10.0142 33.2851 9.8104 33.6128 9.39854L33.614 9.397C33.7724 9.19471 33.8864 8.95411 33.9601 8.68095C34.0739 8.25918 34.3813 7.96247 34.7267 7.96247C35.0913 7.96247 35.356 8.24962 35.3191 8.56222C35.2589 9.0732 35.1304 9.49549 34.9408 9.836L34.9399 9.83766C34.6512 10.3656 34.2765 10.7386 33.8185 10.9707C33.3443 11.2111 32.8465 11.3305 32.3222 11.3305C31.7963 11.3305 31.3231 11.216 30.8975 10.9903M28.7685 7.83969L33.9315 11.1937C33.4227 11.4516 32.8863 11.5805 32.3222 11.5805C31.7581 11.5805 31.2438 11.4572 30.7792 11.2105M24.7262 8.98609L24.5087 8.86497L24.7262 8.98609C24.7262 8.98609 24.7262 8.98609 24.7262 8.98609ZM24.7262 8.98609C24.5367 9.32647 24.4083 9.74856 24.348 10.2593C24.311 10.5722 24.576 10.8596 24.941 10.8596C25.2864 10.8596 25.5917 10.5647 25.6942 10.1459C25.77 9.83607 25.8956 9.57186 26.0821 9.36831L26.0822 9.36819C26.4244 8.99513 26.8627 8.80788 27.3781 8.80788C27.7148 8.80788 28.0295 8.89221 28.3173 9.06079C28.5876 9.21904 28.9282 9.48414 29.3353 9.84582M29.3353 9.84582C29.335 9.84562 29.3348 9.84541 29.3346 9.8452L29.1699 10.0333M29.3353 9.84582C29.3355 9.84603 29.3357 9.84623 29.336 9.84644L29.1699 10.0333M29.3353 9.84582C29.9354 10.3712 30.4557 10.7502 30.8975 10.9903M29.1699 10.0333C29.7782 10.5659 30.3147 10.9583 30.7792 11.2105M30.7792 11.2105L30.8965 10.9897C30.8968 10.9899 30.8972 10.9901 30.8975 10.9903M30.7792 11.2105L30.8985 10.9908C30.8982 10.9907 30.8978 10.9905 30.8975 10.9903" fill="#176CF7" stroke="black" stroke-width="0.5"/>
</svg>
