<svg width="24" height="24" viewBox="0 0 24 24" fill="none" xmlns="http://www.w3.org/2000/svg">
<path d="M16.4165 8.76669C18.009 8.76669 19.2999 7.47577 19.2999 5.88335C19.2999 4.29092 18.009 3 16.4165 3C14.8241 3 13.5332 4.29092 13.5332 5.88335C13.5332 7.47577 14.8241 8.76669 16.4165 8.76669Z" stroke="#868686" stroke-width="1.5" stroke-linecap="round" stroke-linejoin="round"/>
<path d="M4.88335 15.4942C6.47577 15.4942 7.76669 14.2033 7.76669 12.6109C7.76669 11.0185 6.47577 9.72754 4.88335 9.72754C3.29092 9.72754 2 11.0185 2 12.6109C2 14.2033 3.29092 15.4942 4.88335 15.4942Z" stroke="#868686" stroke-width="1.5" stroke-linecap="round" stroke-linejoin="round"/>
<path d="M16.4165 22.2218C18.009 22.2218 19.2999 20.9309 19.2999 19.3384C19.2999 17.746 18.009 16.4551 16.4165 16.4551C14.8241 16.4551 13.5332 17.746 13.5332 19.3384C13.5332 20.9309 14.8241 22.2218 16.4165 22.2218Z" stroke="#868686" stroke-width="1.5" stroke-linecap="round" stroke-linejoin="round"/>
<path d="M7.37305 14.0625L13.9375 17.8877" stroke="#868686" stroke-width="1.5" stroke-linecap="round" stroke-linejoin="round"/>
<path d="M13.9279 7.33496L7.37305 11.1602" stroke="#868686" stroke-width="1.5" stroke-linecap="round" stroke-linejoin="round"/>
</svg>
