<svg width="22" height="22" viewBox="0 0 22 22" fill="none" xmlns="http://www.w3.org/2000/svg">
<path d="M19.3806 3.14282H2.61868C1.46151 3.14282 0.523438 4.18512 0.523438 5.47086V17.1111C0.523438 18.3968 1.46151 19.4391 2.61868 19.4391H19.3806C20.5378 19.4391 21.4758 18.3968 21.4758 17.1111V5.47086C21.4758 4.18512 20.5378 3.14282 19.3806 3.14282Z" fill="#FFA217"/>
<path fill-rule="evenodd" clip-rule="evenodd" d="M1.6875 4.39636L9.72938 11.4168C9.91088 11.5756 10.1264 11.7016 10.3637 11.7875C10.6009 11.8735 10.8552 11.9177 11.112 11.9177C11.3689 11.9177 11.6232 11.8735 11.8604 11.7875C12.0977 11.7016 12.3132 11.5756 12.4947 11.4168L20.3118 4.58426" fill="#FFA217"/>
<path d="M1.6875 4.39636L9.72938 11.4168C9.91089 11.5756 10.1264 11.7016 10.3637 11.7875C10.6009 11.8735 10.8552 11.9177 11.112 11.9177C11.3689 11.9177 11.6232 11.8735 11.8604 11.7875C12.0977 11.7016 12.3132 11.5756 12.4947 11.4168L20.3118 4.58426" stroke="white" stroke-width="2.5" stroke-linecap="round" stroke-linejoin="round"/>
</svg>
