<svg width="23" height="22" viewBox="0 0 23 22" fill="none" xmlns="http://www.w3.org/2000/svg">
<path d="M0.132812 11C0.132812 7.92781 0.132812 6.39172 0.564911 5.15685C1.33885 2.94505 3.07786 1.20604 5.28966 0.432098C6.52453 0 8.06062 0 11.1328 0C14.205 0 15.7411 0 16.976 0.432098C19.1878 1.20604 20.9268 2.94505 21.7007 5.15685C22.1328 6.39172 22.1328 7.92781 22.1328 11C22.1328 14.0722 22.1328 15.6083 21.7007 16.8431C20.9268 19.055 19.1878 20.794 16.976 21.5679C15.7411 22 14.205 22 11.1328 22C8.06062 22 6.52453 22 5.28966 21.5679C3.07786 20.794 1.33885 19.055 0.564911 16.8431C0.132812 15.6083 0.132812 14.0722 0.132812 11Z" fill="url(#gradient1)"/>
<path d="M16.3284 5.79805C14.9496 4.42441 13.1163 3.66752 11.163 3.66668C7.13798 3.66668 3.8624 6.9268 3.86079 10.934C3.86032 12.2149 4.19648 13.4652 4.83543 14.5674L3.79948 18.3333L7.67048 17.3228C8.73701 17.9019 9.93786 18.207 11.1599 18.2075H11.163C15.1874 18.2075 18.4635 14.9468 18.4652 10.9398C18.4659 8.99779 17.707 7.17177 16.3284 5.79805ZM11.163 16.98H11.1607C10.0714 16.9795 9.00325 16.6883 8.07155 16.1379L7.84983 16.007L5.5527 16.6067L6.166 14.3776L6.02154 14.1491C5.41394 13.1873 5.09319 12.0758 5.09364 10.9344C5.09498 7.60381 7.81751 4.8942 11.1653 4.8942C12.7865 4.89487 14.3102 5.524 15.4562 6.66573C16.6021 7.80744 17.2327 9.32518 17.2322 10.9393C17.2308 14.2701 14.5082 16.98 11.163 16.98Z" fill="white"/>
<path fill-rule="evenodd" clip-rule="evenodd" d="M9.35876 7.84821C9.22367 7.54917 9.08143 7.54318 8.9529 7.53795C8.84777 7.53346 8.72742 7.53373 8.60726 7.53373C8.48701 7.53373 8.29159 7.57873 8.12634 7.75841C7.96099 7.9381 7.495 8.37248 7.495 9.25593C7.495 10.1395 8.14137 10.9932 8.23147 11.1131C8.32166 11.2328 9.47921 13.1037 11.3124 13.8235C12.836 14.4216 13.1461 14.3027 13.4768 14.2727C13.8075 14.2428 14.5438 13.8385 14.6942 13.4191C14.8445 12.9999 14.8445 12.6405 14.7994 12.5654C14.7543 12.4906 14.634 12.4457 14.4537 12.3559C14.2733 12.2661 13.3866 11.8316 13.2212 11.7718C13.0559 11.7119 12.9356 11.682 12.8154 11.8617C12.6951 12.0413 12.3497 12.4457 12.2444 12.5654C12.1392 12.6854 12.034 12.7004 11.8536 12.6106C11.6732 12.5205 11.0923 12.3311 10.4032 11.7194C9.86704 11.2435 9.50504 10.6557 9.39982 10.4759C9.2946 10.2963 9.38854 10.199 9.47902 10.1095C9.56 10.0291 9.6594 9.8999 9.7496 9.79504C9.83959 9.69019 9.86966 9.61536 9.92979 9.49563C9.98991 9.37571 9.95985 9.27087 9.91475 9.18107C9.86966 9.09128 9.51914 8.20327 9.35876 7.84821Z" fill="white"/>
<defs>
<linearGradient id="gradient1" x1="0.132812" y1="0" x2="22.1328" y2="22" gradientUnits="userSpaceOnUse">
<stop stop-color="#37DD57"/>
<stop offset="1" stop-color="#33CA50"/>
</linearGradient>
</defs>
</svg>
