<svg width="22" height="22" viewBox="0 0 22 22" fill="none" xmlns="http://www.w3.org/2000/svg">
<g clip-path="url(#clip0_377_9200)">
<g clip-path="url(#clip1_377_9200)">
<path fill-rule="evenodd" clip-rule="evenodd" d="M3.52344 3.06384C1.86658 3.06384 0.523438 4.40699 0.523438 6.06384V12.936C0.523438 14.5929 1.86659 15.936 3.52344 15.936C4.02393 15.936 4.48474 16.2085 4.7259 16.6471L5.84937 18.6901C6.60918 20.0718 8.59456 20.0718 9.35437 18.6901L10.299 16.9723C10.6505 16.3332 11.3221 15.936 12.0515 15.936H18.2531C19.91 15.936 21.2531 14.5929 21.2531 12.936V6.06384C21.2531 4.40699 19.91 3.06384 18.2531 3.06384H3.52344Z" fill="#176CF7"/>
<path d="M19.3986 2.83093H2.76364C2.20447 2.83093 1.66819 3.04844 1.2728 3.43561C0.877404 3.82278 0.655273 4.3479 0.655273 4.89544V14.2476C0.655273 14.5187 0.709808 14.7872 0.815763 15.0377C0.921718 15.2882 1.07702 15.5157 1.2728 15.7075C1.46858 15.8992 1.701 16.0512 1.9568 16.155C2.2126 16.2587 2.48676 16.3121 2.76364 16.3121H4.4925L6.92766 20.4411C7.00574 20.5764 7.1191 20.689 7.25616 20.7673C7.39322 20.8456 7.54907 20.8869 7.70775 20.8869C7.86644 20.8869 8.02228 20.8456 8.15935 20.7673C8.29641 20.689 8.40977 20.5764 8.48785 20.4411L10.9336 16.3121H19.367C19.9262 16.3121 20.4625 16.0946 20.8578 15.7075C21.2532 15.3203 21.4754 14.7952 21.4754 14.2476V4.89544C21.4754 4.35322 21.2577 3.83274 20.8691 3.44645C20.4805 3.06016 19.9523 2.83907 19.3986 2.83093Z" stroke="#176CF7" stroke-width="1.5" stroke-linecap="round" stroke-linejoin="round"/>
<path d="M3.71191 7.5896H10.037M3.71191 11.7186H17.4163" stroke="white" stroke-width="2.5" stroke-linecap="round" stroke-linejoin="round"/>
</g>
</g>
<defs>
<clipPath id="clip0_377_9200">
<rect width="22" height="22" fill="white"/>
</clipPath>
<clipPath id="clip1_377_9200">
<rect width="22" height="22" fill="white" transform="translate(0 0.458252)"/>
</clipPath>
</defs>
</svg>
