<svg width="22" height="22" viewBox="0 0 22 22" fill="none" xmlns="http://www.w3.org/2000/svg">
<path d="M16.2001 18.9741L18.4512 16.6941C18.6306 16.5164 18.7732 16.3042 18.8705 16.0699C18.9679 15.8356 19.018 15.584 19.018 15.3299C19.018 15.0757 18.9679 14.8241 18.8705 14.5898C18.7732 14.3555 18.6306 14.1433 18.4512 13.9656L17.1703 12.6682C16.9953 12.4908 16.7875 12.3501 16.5589 12.2541C16.3302 12.1581 16.085 12.1086 15.8375 12.1086C15.5899 12.1086 15.3448 12.1581 15.1161 12.2541C14.8874 12.3501 14.6797 12.4908 14.5047 12.6682L13.657 13.5173C11.4746 12.1926 9.64706 10.3449 8.33536 8.13677L9.18305 7.28772C9.3582 7.11052 9.49715 6.90009 9.59195 6.66847C9.68675 6.43684 9.73554 6.18856 9.73554 5.93782C9.73554 5.68709 9.68675 5.43881 9.59195 5.20718C9.49715 4.97556 9.3582 4.76513 9.18305 4.58793L7.93034 3.30958C7.75539 3.13219 7.54763 2.99145 7.31895 2.89544C7.09026 2.79942 6.84513 2.75 6.59758 2.75C6.35002 2.75 6.10489 2.79942 5.8762 2.89544C5.64752 2.99145 5.43976 3.13219 5.26481 3.30958L2.99486 5.58962C2.84058 5.74486 2.74409 5.94939 2.72177 6.16849C2.69945 6.3876 2.75268 6.60777 2.87241 6.79165C6.06895 11.6699 10.197 15.851 15.0133 19.0886C15.1938 19.2111 15.4106 19.2666 15.6269 19.2457C15.8432 19.2248 16.0457 19.1289 16.2001 18.9741Z" fill="#14B86D"/>
</svg>
