<svg width="16" height="16" viewBox="0 0 16 16" fill="none" xmlns="http://www.w3.org/2000/svg">
<g clip-path="url(#clip0_658_28780)">
<path d="M1.12207 10.3227L1.38697 9.37183C1.5275 8.71979 1.87466 8.13467 2.37359 7.70895C2.87252 7.28324 3.49476 7.04121 4.14194 7.02112" stroke="#176CF7" stroke-width="1.5" stroke-linecap="round" stroke-linejoin="round"/>
<path d="M4.14182 7.01451C5.06839 7.01451 5.81952 6.27542 5.81952 5.3637C5.81952 4.45198 5.06839 3.71289 4.14182 3.71289C3.21525 3.71289 2.46411 4.45198 2.46411 5.3637C2.46411 6.27542 3.21525 7.01451 4.14182 7.01451Z" stroke="#176CF7" stroke-width="1.5" stroke-linecap="round" stroke-linejoin="bevel"/>
<path d="M14.8788 10.3227L14.6139 9.37183C14.4733 8.71979 14.1262 8.13467 13.6272 7.70895C13.1283 7.28324 12.5061 7.04121 11.8589 7.02112" stroke="#176CF7" stroke-width="1.5" stroke-linecap="round" stroke-linejoin="round"/>
<path d="M11.8589 7.01451C12.7854 7.01451 13.5366 6.27542 13.5366 5.3637C13.5366 4.45198 12.7854 3.71289 11.8589 3.71289C10.9323 3.71289 10.1812 4.45198 10.1812 5.3637C10.1812 6.27542 10.9323 7.01451 11.8589 7.01451Z" stroke="#176CF7" stroke-width="1.5" stroke-linecap="round" stroke-linejoin="bevel"/>
<path d="M4.95728 12.5029L5.22218 11.552C6.09782 8.41432 9.85549 8.41432 10.7311 11.552L10.996 12.5029" stroke="#176CF7" stroke-width="1.5" stroke-linecap="round" stroke-linejoin="round"/>
<path d="M7.97702 9.19469C8.90359 9.19469 9.65472 8.45559 9.65472 7.54388C9.65472 6.63216 8.90359 5.89307 7.97702 5.89307C7.05045 5.89307 6.29932 6.63216 6.29932 7.54388C6.29932 8.45559 7.05045 9.19469 7.97702 9.19469Z" stroke="#176CF7" stroke-width="1.5" stroke-linecap="round" stroke-linejoin="bevel"/>
<path d="M7.97702 9.19469C8.90359 9.19469 9.65472 8.45559 9.65472 7.54388C9.65472 6.63216 8.90359 5.89307 7.97702 5.89307C7.05045 5.89307 6.29932 6.63216 6.29932 7.54388C6.29932 8.45559 7.05045 9.19469 7.97702 9.19469Z" stroke="#176CF7" stroke-width="1.5" stroke-linecap="round" stroke-linejoin="bevel"/>
</g>
<defs>
<clipPath id="clip0_658_28780">
<rect width="14.6667" height="10.6667" fill="white" transform="translate(0.666748 2.66663)"/>
</clipPath>
</defs>
</svg>
