<svg xmlns="http://www.w3.org/2000/svg" width="32" height="32" viewBox="0 0 32 32">
  <g id="Group_17423" data-name="Group 17423" transform="translate(-26 -145)">
    <rect id="Rectangle_4364" data-name="Rectangle 4364" width="32" height="32" rx="16" transform="translate(26 145)" fill="#8cc036"/>
    <g id="Group_16796" data-name="Group 16796" transform="translate(-23.166 14.333)">
      <path id="Path_25183" data-name="Path 25183" d="M65.5,149a4.666,4.666,0,1,0-4.667-4.667A4.667,4.667,0,0,0,65.5,149Z" fill="none" stroke="#fff" stroke-linecap="round" stroke-linejoin="round" stroke-width="1"/>
      <path id="Path_25184" data-name="Path 25184" d="M62.973,148.26l-.807,6.073,3.333-2,3.333,2-.807-6.08" fill="none" stroke="#fff" stroke-linecap="round" stroke-linejoin="round" stroke-width="1"/>
      <path id="Path_25185" data-name="Path 25185" d="M65.459,146l-.925-1.515a.963.963,0,0,0,.735-.955c0-.81-.675-1.07-1.355-1.07h-1.35V146h.84v-1.4h.29l.765,1.4Zm-1.035-2.455c0,.36-.345.43-.62.43h-.4v-.825h.455C64.109,143.15,64.424,143.215,64.424,143.545Zm4.18,1.2a1.216,1.216,0,0,0-1.18-1.3.989.989,0,0,0-.795.375h-.015v-.305h-.78v3.69h.82v-1.475h.01a.938.938,0,0,0,.755.345A1.222,1.222,0,0,0,68.6,144.745Zm-.795,0a.593.593,0,0,1-.585.645.641.641,0,0,1,0-1.28A.588.588,0,0,1,67.81,144.745Z" fill="#fff"/>
    </g>
  </g>
</svg>
