<svg width="116" height="128" viewBox="0 0 116 128" fill="none" xmlns="http://www.w3.org/2000/svg">
<defs>
<clipPath id="clip0">
<rect width="116" height="128" fill="white"/>
</clipPath>
</defs>
<g clip-path="url(#clip0)">
<path d="M115.905 15.9109C116.585 11.7295 113.737 7.7897 109.543 7.1111C105.349 6.43249 101.397 9.27203 100.716 13.4534C100.035 17.6348 102.884 21.5745 107.078 22.2531C111.272 22.9318 115.224 20.0922 115.905 15.9109Z" fill="#FFC217"/>
<path d="M94.2849 3.66657C94.5653 1.94379 93.3918 0.320538 91.6637 0.0409417C89.9357 -0.238655 88.3074 0.931279 88.027 2.65406C87.7465 4.37685 88.92 6.0001 90.6481 6.27969C92.3762 6.55929 94.0044 5.38935 94.2849 3.66657Z" fill="#FFC217"/>
<path opacity="0.1" d="M56.3865 128.004C86.1658 128.004 110.307 103.937 110.307 74.2492C110.307 44.5611 86.1658 20.4941 56.3865 20.4941C26.6073 20.4941 2.46643 44.5611 2.46643 74.2492C2.46643 103.937 26.6073 128.004 56.3865 128.004Z" fill="#2626BC"/>
<path d="M93.8161 93.8013C114.716 72.965 114.716 39.1825 93.8161 18.3461C72.9157 -2.49027 39.0295 -2.49027 18.1291 18.3461C-2.77125 39.1825 -2.77125 72.965 18.1291 93.8014C39.0295 114.638 72.9157 114.638 93.8161 93.8013Z" fill="#FFC217"/>
<path d="M28.9255 54.3384C28.9255 50.7093 31.9154 47.0762 36.4677 47.0762C41.02 47.0762 43.879 50.7052 43.879 54.3384V61.6618C43.879 68.0147 49.0817 73.5887 55.9735 73.5887C62.8654 73.5887 68.068 68.0147 68.068 61.6618V54.3384C68.068 50.7093 71.0579 47.0762 75.6102 47.0762C80.1625 47.0762 83.0215 50.7052 83.0215 54.3384V61.6618C83.0215 75.1423 71.97 87.9786 55.9735 87.9786C39.9771 87.9786 28.9255 75.1423 28.9255 61.6618V54.3384Z" fill="#176CF7"/>
<path d="M36.4555 43.712C40.6141 43.712 43.9854 40.351 43.9854 36.2051C43.9854 32.0592 40.6141 28.6982 36.4555 28.6982C32.2968 28.6982 28.9255 32.0592 28.9255 36.2051C28.9255 40.351 32.2968 43.712 36.4555 43.712Z" fill="#176CF7"/>
<path d="M75.4874 43.712C79.6461 43.712 83.0174 40.351 83.0174 36.2051C83.0174 32.0592 79.6461 28.6982 75.4874 28.6982C71.3288 28.6982 67.9575 32.0592 67.9575 36.2051C67.9575 40.351 71.3288 43.712 75.4874 43.712Z" fill="#176CF7"/>
<path d="M28.9255 54.3384C28.9255 50.7093 31.9154 47.0762 36.4677 47.0762C41.02 47.0762 43.879 50.7052 43.879 54.3384V61.6618C43.879 68.0147 49.0817 73.5887 55.9735 73.5887C62.8654 73.5887 68.068 68.0147 68.068 61.6618V54.3384C68.068 50.7093 71.0579 47.0762 75.6102 47.0762C80.1625 47.0762 83.0215 50.7052 83.0215 54.3384V61.6618C83.0215 75.1423 71.97 87.9786 55.9735 87.9786C39.9771 87.9786 28.9255 75.1423 28.9255 61.6618V54.3384Z" fill="#307CFE"/>
<path d="M36.4555 43.712C40.6141 43.712 43.9854 40.351 43.9854 36.2051C43.9854 32.0592 40.6141 28.6982 36.4555 28.6982C32.2968 28.6982 28.9255 32.0592 28.9255 36.2051C28.9255 40.351 32.2968 43.712 36.4555 43.712Z" fill="#307CFE"/>
<path d="M75.4874 43.712C79.6461 43.712 83.0174 40.351 83.0174 36.2051C83.0174 32.0592 79.6461 28.6982 75.4874 28.6982C71.3288 28.6982 67.9575 32.0592 67.9575 36.2051C67.9575 40.351 71.3288 43.712 75.4874 43.712Z" fill="#307CFE"/>
<path d="M55.9733 111.873C25.1093 111.873 0 86.8445 0 56.0749C0 25.3053 25.1093 0.272949 55.9733 0.272949C86.8374 0.272949 111.947 25.3053 111.947 56.0749C111.943 86.8445 86.8333 111.873 55.9733 111.873ZM55.9733 5.16607C27.8169 5.16607 4.90815 28.0047 4.90815 56.0749C4.90815 84.1451 27.8169 106.984 55.9733 106.984C84.1298 106.984 107.039 84.1451 107.039 56.0749C107.034 28.0047 84.1298 5.16607 55.9733 5.16607Z" fill="white"/>
<path d="M21.648 113.264C22.3287 109.083 19.4804 105.143 15.2862 104.464C11.092 103.786 7.14012 106.625 6.45943 110.806C5.77874 114.988 8.627 118.928 12.8212 119.606C17.0154 120.285 20.9673 117.445 21.648 113.264Z" fill="#FFC217"/>
<path d="M34.6858 115.372C34.9662 113.649 33.7927 112.026 32.0646 111.746C30.3365 111.466 28.7083 112.636 28.4279 114.359C28.1474 116.082 29.3209 117.705 31.049 117.985C32.7771 118.264 34.4053 117.094 34.6858 115.372Z" fill="#FFC217"/>
</g>
</svg>
