<svg width="16" height="15" viewBox="0 0 16 15" fill="none" xmlns="http://www.w3.org/2000/svg">
<path d="M13.25 3.625H2.75C1.7835 3.625 1 4.4085 1 5.375V12.375C1 13.3415 1.7835 14.125 2.75 14.125H13.25C14.2165 14.125 15 13.3415 15 12.375V5.375C15 4.4085 14.2165 3.625 13.25 3.625Z" fill="white"/>
<path d="M13.25 4.28125H2.75C2.14594 4.28125 1.65625 4.77094 1.65625 5.375V12.375C1.65625 12.9791 2.14594 13.4688 2.75 13.4688H13.25C13.8541 13.4688 14.3438 12.9791 14.3438 12.375V5.375C14.3438 4.77094 13.8541 4.28125 13.25 4.28125Z" stroke="#176CF7"/>
<path d="M13.25 4.28125H2.75C2.14594 4.28125 1.65625 4.77094 1.65625 5.375V8C1.65625 8.60406 2.14594 9.09375 2.75 9.09375H13.25C13.8541 9.09375 14.3438 8.60406 14.3438 8V5.375C14.3438 4.77094 13.8541 4.28125 13.25 4.28125Z" stroke="#176CF7"/>
<path d="M10.625 1.65625H5.375C5.25419 1.65625 5.15625 1.75419 5.15625 1.875V3.625C5.15625 3.74581 5.25419 3.84375 5.375 3.84375H10.625C10.7458 3.84375 10.8438 3.74581 10.8438 3.625V1.875C10.8438 1.75419 10.7458 1.65625 10.625 1.65625Z" stroke="#176CF7"/>
</svg>
