<svg width="16" height="16" fill="none" xmlns="http://www.w3.org/2000/svg"><path clip-rule="evenodd" d="M13.0991 2.70779L2.79912 6.60112c-.02403.01132-.04435.02923-.05858.05166s-.02179.04845-.02179.07501c0 .02656.00756.05258.02179.07501.01423.02243.03455.04034.05858.05166l4.40667 1.88666c.0165.00671.03149.01665.04409.02925.01259.01259.02254.02758.02924.04409l1.88667 4.40664c.01131.0241.02923.0444.05166.0586.02243.0142.04844.0218.07501.0218.02656 0 .05257-.0076.075-.0218s.04035-.0345.05166-.0586L13.2725 2.88112c.0097-.02423.012-.05077.0068-.07634-.0053-.02556-.0179-.04903-.0363-.06749-.0185-.01845-.042-.03108-.0675-.03633-.0256-.00524-.0521-.00287-.0764.00683v0z" stroke="#176CF7" stroke-linecap="round" stroke-linejoin="round"/><path d="M13.2406 2.74121L7.25391 8.72788" stroke="#176CF7" stroke-linecap="round" stroke-linejoin="round"/></svg>