<svg width="17" height="16" viewBox="0 0 17 16" fill="none" xmlns="http://www.w3.org/2000/svg">
<path d="M12.751 14.6667H2.83585C2.46863 14.6751 2.11301 14.5394 1.84702 14.2895C1.58103 14.0395 1.42638 13.6957 1.41699 13.3333V4.00001H2.83585V13.3333H12.751V14.6667ZM14.1699 12H5.66547C5.29835 12.0081 4.94294 11.8723 4.67702 11.6224C4.41111 11.3725 4.25635 11.0289 4.24661 10.6667V2.66668C4.25599 2.30436 4.41065 1.9605 4.67664 1.71054C4.94263 1.46058 5.29825 1.32493 5.66547 1.33335H14.1678C14.5352 1.32458 14.891 1.46011 15.1571 1.71014C15.4231 1.96018 15.5777 2.30424 15.5867 2.66668V10.6667C15.5771 11.0289 15.4224 11.3727 15.1565 11.6226C14.8905 11.8725 14.535 12.0083 14.1678 12H14.1699ZM9.91665 9.59001C8.87983 9.60387 7.87357 9.93849 7.03974 10.5467L6.87286 10.652L6.85191 10.6667H13.18C12.2237 9.99794 11.0883 9.62333 9.91665 9.59001ZM14.434 2.39601L5.40332 2.50201V10.5947C6.59339 9.39299 8.21421 8.70061 9.91665 8.66668C11.6069 8.65867 13.2314 9.31219 14.434 10.484V2.39601ZM9.91665 7.33335C9.36609 7.3457 8.83303 7.14207 8.43442 6.76714C8.03582 6.3922 7.8042 5.87656 7.79039 5.33335C7.80455 4.79025 8.03628 4.27482 8.43481 3.89996C8.83334 3.52509 9.36619 3.32135 9.91665 3.33335C10.4669 3.32153 10.9995 3.52538 11.3978 3.90024C11.7961 4.2751 12.0276 4.79042 12.0416 5.33335C12.0281 5.87644 11.7968 6.39208 11.3984 6.76705C11 7.14203 10.4671 7.3457 9.91665 7.33335ZM9.91665 4.33335C9.64136 4.32726 9.37485 4.42909 9.17551 4.61653C8.97618 4.80397 8.86027 5.06174 8.85318 5.33335C8.86515 5.60364 8.98238 5.85894 9.18045 6.04602C9.37852 6.2331 9.64213 6.33753 9.91632 6.33753C10.1905 6.33753 10.4541 6.2331 10.6522 6.04602C10.8503 5.85894 10.9675 5.60364 10.9795 5.33335C10.9725 5.0618 10.8568 4.80403 10.6576 4.61657C10.4583 4.42911 10.1919 4.32726 9.91665 4.33335Z" fill="#525252"/>
</svg>
