<svg width="19" height="19" viewBox="0 0 19 19" fill="none" xmlns="http://www.w3.org/2000/svg">
<path d="M9.5 19C8.93998 19 8.48684 18.5458 8.48684 17.9858V16.9037C7.85185 16.8163 7.23355 16.6463 6.64006 16.3955C5.76477 16.0257 4.97924 15.4956 4.30487 14.8212C3.6305 14.1469 3.1004 13.3603 2.73062 12.486C2.46321 11.8526 2.28771 11.1921 2.20626 10.5132H1.01316C0.453144 10.5132 0 10.0589 0 9.5C0 8.93998 0.453144 8.48684 1.01316 8.48684H2.24097C2.33276 7.89648 2.49644 7.32128 2.73062 6.76724C3.1004 5.89194 3.6305 5.10642 4.30487 4.43205C4.97924 3.75661 5.76477 3.22758 6.64006 2.85673C7.23355 2.60588 7.85185 2.43588 8.48684 2.34855V1.01316C8.48684 0.453144 8.93998 0 9.5 0C10.0589 0 10.5132 0.453144 10.5132 1.01316V2.3486C11.1477 2.43594 11.7655 2.60592 12.3589 2.85673C13.2342 3.22758 14.0197 3.75661 14.6941 4.43205C15.3695 5.10642 15.8985 5.89194 16.2683 6.76724C16.5031 7.32128 16.6671 7.89648 16.759 8.48684H17.9858C18.5458 8.48684 19 8.93998 19 9.5C19 10.0589 18.5458 10.5132 17.9858 10.5132H16.7937C16.7122 11.1921 16.5365 11.8526 16.2683 12.486C15.8985 13.3603 15.3695 14.1469 14.6941 14.8212C14.0197 15.4956 13.2342 16.0257 12.3589 16.3955C11.7655 16.6463 11.1477 16.8163 10.5132 16.9036V17.9858C10.5132 18.5458 10.0589 19 9.5 19ZM9.5 13.1732C10.0589 13.1732 10.5132 13.6264 10.5132 14.1864V15.3646C12.9573 14.9342 14.8816 12.9748 15.2593 10.5132H14.1864C13.6264 10.5132 13.1732 10.0589 13.1732 9.5C13.1732 8.93998 13.6264 8.48684 14.1864 8.48684H15.2148C14.7485 6.14458 12.8732 4.3041 10.5132 3.88866V4.81359C10.5132 5.37254 10.0589 5.82675 9.5 5.82675C8.93998 5.82675 8.48684 5.37254 8.48684 4.81359V3.88866C6.12677 4.3041 4.25151 6.14458 3.7852 8.48684H4.81359C5.37254 8.48684 5.82675 8.93998 5.82675 9.5C5.82675 10.0589 5.37254 10.5132 4.81359 10.5132H3.74066C4.11841 12.9748 6.04271 14.9342 8.48684 15.3646V14.1864C8.48684 13.6264 8.93998 13.1732 9.5 13.1732Z" fill="#176CF7"/>
</svg>
