<svg width="16" height="16" viewBox="0 0 16 16" fill="none" xmlns="http://www.w3.org/2000/svg">
<path d="M2.66732 1.33331H8.00065C8.35427 1.33331 8.69341 1.47379 8.94346 1.72384C9.19351 1.97389 9.33398 2.31302 9.33398 2.66665V14.6666H2.66732C2.3137 14.6666 1.97456 14.5262 1.72451 14.2761C1.47446 14.0261 1.33398 13.6869 1.33398 13.3333V2.66665C1.33398 2.31302 1.47446 1.97389 1.72451 1.72384C1.97456 1.47379 2.3137 1.33331 2.66732 1.33331V1.33331Z" stroke="#176CF7" stroke-linecap="round" stroke-linejoin="round"/>
<path d="M9.33398 6.66663H13.334C13.6876 6.66663 14.0267 6.8071 14.2768 7.05715C14.5268 7.3072 14.6673 7.64634 14.6673 7.99996V13.3333C14.6673 13.6869 14.5268 14.0261 14.2768 14.2761C14.0267 14.5262 13.6876 14.6666 13.334 14.6666H9.33398" stroke="#176CF7" stroke-linecap="round" stroke-linejoin="round"/>
<path d="M3.33398 4H4.00065" stroke="#176CF7" stroke-linecap="round" stroke-linejoin="round"/>
<path d="M6 4H7.33333" stroke="#176CF7" stroke-linecap="round" stroke-linejoin="round"/>
<path d="M3.33398 6.66663H4.00065" stroke="#176CF7" stroke-linecap="round" stroke-linejoin="round"/>
<path d="M6 6.66663H7.33333" stroke="#176CF7" stroke-linecap="round" stroke-linejoin="round"/>
<path d="M3.33398 9.33331H4.00065" stroke="#176CF7" stroke-linecap="round" stroke-linejoin="round"/>
<path d="M6 9.33331H7.33333" stroke="#176CF7" stroke-linecap="round" stroke-linejoin="round"/>
<path d="M3.33398 12H4.00065" stroke="#176CF7" stroke-linecap="round" stroke-linejoin="round"/>
<path d="M6 12H7.33333" stroke="#176CF7" stroke-linecap="round" stroke-linejoin="round"/>
<path d="M11.334 9.33331H12.6673" stroke="#176CF7" stroke-linecap="round" stroke-linejoin="round"/>
<path d="M11.334 12H12.6673" stroke="#176CF7" stroke-linecap="round" stroke-linejoin="round"/>
</svg>
