<svg width="16" height="16" viewBox="0 0 16 16" fill="none" xmlns="http://www.w3.org/2000/svg">
<path d="M10 3.66666C10 4.759 11.192 5.92586 11.872 6.50289C12.1406 6.72124 12.5254 6.72124 12.794 6.50289C13.4747 5.92586 14.6667 4.759 14.6667 3.66666" stroke="#176CF7" stroke-linecap="round" stroke-linejoin="round"/>
<path d="M12.3335 3.63334C12.3519 3.63341 12.3667 3.64837 12.3667 3.66676C12.3666 3.68515 12.3517 3.70003 12.3333 3.70001C12.3149 3.69999 12.3 3.68507 12.3 3.66668C12.3 3.6578 12.3035 3.64927 12.3098 3.64301C12.316 3.63674 12.3246 3.63326 12.3335 3.63334" stroke="#176CF7" stroke-linecap="round" stroke-linejoin="round"/>
<path d="M10 3.66668V3.66668C10 2.37801 11.0447 1.33334 12.3333 1.33334V1.33334C13.622 1.33334 14.6667 2.37801 14.6667 3.66668V3.66668" stroke="#176CF7" stroke-linecap="round" stroke-linejoin="round"/>
<path d="M2.3418 10.6667H13.6573" stroke="#176CF7" stroke-linecap="round" stroke-linejoin="round"/>
<path d="M8.00448 2.66666C6.53068 2.66666 5.33594 5.35295 5.33594 8.66666C5.33594 11.9804 6.53068 14.6667 8.00448 14.6667" stroke="#176CF7" stroke-linecap="round" stroke-linejoin="round"/>
<path d="M8.00285 6.66668H2.3418" stroke="#176CF7" stroke-linecap="round" stroke-linejoin="round"/>
<path d="M14 8.66666C14 11.9804 11.3137 14.6667 8 14.6667C4.68629 14.6667 2 11.9804 2 8.66666C2 5.35295 4.68629 2.66666 8 2.66666" stroke="#176CF7" stroke-linecap="round" stroke-linejoin="round"/>
<path d="M10.6685 8.66666C10.6685 11.9804 9.47379 14.6667 8 14.6667" stroke="#176CF7" stroke-linecap="round" stroke-linejoin="round"/>
</svg>
