<svg width="16" height="16" viewBox="0 0 16 16" fill="none" xmlns="http://www.w3.org/2000/svg">
<path d="M14.6089 6.43628H1.8457" stroke="#176CF7" stroke-linecap="round" stroke-linejoin="bevel"/>
<path d="M4.44922 3.89311V2.60254" stroke="#176CF7" stroke-linecap="round" stroke-linejoin="bevel"/>
<path d="M12.2246 3.89311V2.60254" stroke="#176CF7" stroke-linecap="round" stroke-linejoin="bevel"/>
<path d="M13.3845 3.89307H3.1278C2.41972 3.89307 1.8457 4.45954 1.8457 5.15833V12.7499C1.8457 13.4487 2.41972 14.0152 3.1278 14.0152H13.3845C14.0926 14.0152 14.6666 13.4487 14.6666 12.7499V5.15833C14.6666 4.45954 14.0926 3.89307 13.3845 3.89307Z" stroke="#176CF7" stroke-linecap="round" stroke-linejoin="bevel"/>
<path d="M5.2823 8.32788H4.00021C3.82319 8.32788 3.67969 8.4695 3.67969 8.6442V9.90946C3.67969 10.0842 3.82319 10.2258 4.00021 10.2258H5.2823C5.45932 10.2258 5.60283 10.0842 5.60283 9.90946V8.6442C5.60283 8.4695 5.45932 8.32788 5.2823 8.32788Z" stroke="#176CF7" stroke-linecap="round" stroke-linejoin="bevel"/>
<path d="M8.96785 8.32788H7.68576C7.50874 8.32788 7.36523 8.4695 7.36523 8.6442V9.90946C7.36523 10.0842 7.50874 10.2258 7.68576 10.2258H8.96785C9.14487 10.2258 9.28838 10.0842 9.28838 9.90946V8.6442C9.28838 8.4695 9.14487 8.32788 8.96785 8.32788Z" stroke="#176CF7" stroke-linecap="round" stroke-linejoin="round"/>
</svg>
