<svg width="128" height="117" viewBox="0 0 128 117" fill="none" xmlns="http://www.w3.org/2000/svg">
<path fill-rule="evenodd" clip-rule="evenodd" d="M48.4137 69.4234C50.997 68.8857 53.0007 65.1272 53.0007 60.5758C53.0007 58.5619 52.6081 56.7027 51.947 55.21C51.7491 54.7652 51.6829 54.19 51.7676 53.6504C51.8566 53.0879 51.9024 52.4956 51.9024 51.8854C51.9024 50.3074 51.597 48.8496 51.0823 47.675C50.8837 47.2214 50.822 46.6347 50.9143 46.0913C50.9938 45.6007 51.0377 45.0847 51.0377 44.5509C51.0377 41.4795 49.5762 38.9859 47.7755 38.9859C45.9754 38.9859 44.5132 41.4795 44.5132 44.5509C44.5132 45.0847 44.5578 45.6007 44.6398 46.0894C44.7327 46.6347 44.6704 47.2233 44.4719 47.6782C43.9539 48.8496 43.6491 50.3074 43.6491 51.8854C43.6491 52.4956 43.6943 53.0879 43.7802 53.6523C43.8642 54.1894 43.7987 54.7627 43.6014 55.2055C42.9429 56.7027 42.5509 58.5619 42.5509 60.5758C42.5509 65.2913 44.7016 69.1562 47.4198 69.4692L48.4137 69.4234Z" fill="#B0D3FB"/>
<path fill-rule="evenodd" clip-rule="evenodd" d="M47.4853 40.064C47.4853 38.9321 47.0062 37.8523 46.1656 37.0932C45.3251 36.3341 44.2027 35.9663 43.0758 36.0809C36.6156 36.7388 24.6502 37.9573 18.2194 38.612C15.504 38.8882 13.1165 40.5285 11.8847 42.9642C10.4714 45.7588 8.63871 53.386 7.57859 55.482C7.01191 56.6025 6.71667 57.8407 6.71667 59.0961C6.71667 64.0617 6.71667 74.9912 6.71667 74.9912H47.4853C47.4853 74.9912 47.4853 49.9602 47.4853 40.064Z" fill="url(#paint0_linear_357_1159)"/>
<path fill-rule="evenodd" clip-rule="evenodd" d="M7.78093 74.9912V60.1606C7.78093 58.9052 8.07623 57.667 8.64291 56.5465C9.70303 54.4505 11.5357 46.8227 12.9489 44.0288C14.1808 41.593 16.5683 39.9527 19.2837 39.6759C25.7145 39.0212 37.6801 37.8033 44.1403 37.1454C45.082 37.0493 46.0212 37.2905 46.7943 37.816C46.6161 37.5526 46.4055 37.3102 46.1656 37.0932C45.3251 36.3341 44.2027 35.9663 43.0758 36.0809C36.6156 36.7388 24.6502 37.9573 18.2194 38.612C15.504 38.8882 13.1165 40.5285 11.8847 42.9642C10.4714 45.7588 8.63871 53.386 7.57859 55.482C7.01191 56.6025 6.71667 57.8407 6.71667 59.0961C6.71667 64.0617 6.71667 74.9912 6.71667 74.9912H7.78093Z" fill="#4598F5"/>
<path fill-rule="evenodd" clip-rule="evenodd" d="M32.9101 59.9477H35.2102C35.6747 59.9477 36.0527 59.6289 36.0527 59.2369C36.0527 58.8443 36.0527 58.8322 36.0527 58.8322H32.0682C32.0682 58.8322 32.0682 58.8443 32.0682 59.2369C32.0682 59.6289 32.4456 59.9477 32.9101 59.9477Z" fill="#1F72CF"/>
<path fill-rule="evenodd" clip-rule="evenodd" d="M32.9101 59.5479H35.2102C35.6747 59.5479 36.0527 59.2291 36.0527 58.8372C36.0527 58.4446 35.6747 58.1264 35.2102 58.1264H32.9101C32.4456 58.1264 32.0682 58.4446 32.0682 58.8372C32.0682 59.2291 32.4456 59.5479 32.9101 59.5479Z" fill="#D9D9D9"/>
<path fill-rule="evenodd" clip-rule="evenodd" d="M32.0682 58.8299H36.0527C36.0482 58.4411 35.6722 58.1262 35.2102 58.1262H32.9101C32.4481 58.1262 32.0727 58.4411 32.0682 58.8299Z" fill="white"/>
<path fill-rule="evenodd" clip-rule="evenodd" d="M38.4487 43.6332C38.4487 42.7723 38.1642 41.9515 37.6667 41.3744C37.1684 40.7966 36.5035 40.5166 35.8354 40.6025C31.0106 41.2261 20.7593 42.1245 15.963 42.7443C14.3576 42.9511 12.944 44.1893 12.2096 46.032C11.5108 47.7837 10.6118 50.0393 9.82946 52.001C9.45303 52.9453 9.48662 54.0728 9.91822 54.9769C10.3498 55.8817 11.1172 56.4328 11.9442 56.4328C18.3269 56.4328 30.8509 56.4328 36.0734 56.4328C37.3854 56.4328 38.4487 55.0692 38.4487 53.3875C38.4487 50.5064 38.4487 46.6155 38.4487 43.6332Z" fill="url(#paint1_linear_357_1159)"/>
<path fill-rule="evenodd" clip-rule="evenodd" d="M47.4853 74.9912V40.064C47.4853 38.9321 47.0062 37.8523 46.1656 37.0932C45.3251 36.3341 44.2027 35.9663 43.0758 36.0809L38.9902 36.497C39.3007 36.6554 39.5921 36.8552 39.8556 37.0932C40.6961 37.8523 41.1759 38.9321 41.1759 40.064C41.1759 40.064 41.1759 55.0346 41.1759 61.5795C41.1759 62.3761 40.8596 63.1397 40.2965 63.7028C39.7328 64.2666 38.9692 64.5828 38.1726 64.5828C29.7848 64.5828 6.71667 64.5828 6.71667 64.5828V74.9912H47.4853Z" fill="url(#paint2_linear_357_1159)"/>
<path fill-rule="evenodd" clip-rule="evenodd" d="M12.7253 62.7137H6.71667V66.483H12.7253V62.7137Z" fill="#1D6AC0"/>
<path fill-rule="evenodd" clip-rule="evenodd" d="M10.6094 73.8134C11.5412 73.8134 12.4201 73.3801 12.9883 72.6414C15.2788 69.6788 18.8701 67.777 22.9021 67.777C26.9341 67.777 30.5254 69.6788 32.8271 72.6331C33.3928 73.3674 34.2677 73.7982 35.1947 73.7982C38.5753 73.8134 46.3075 73.8134 46.3075 73.8134L47.4853 74.9912H6.71667V73.8134C6.71667 73.8134 9.00032 73.8134 10.6094 73.8134Z" fill="#1D6AC0"/>
<path fill-rule="evenodd" clip-rule="evenodd" d="M36.6572 44.7358C36.6572 44.0582 36.4078 43.4117 35.9719 42.9574C35.5354 42.5025 34.9532 42.2823 34.3678 42.3498C30.141 42.8403 21.1606 43.5479 16.9588 44.0359C15.5525 44.1988 14.3141 45.1736 13.6707 46.6243C13.0586 48.0038 12.271 49.7797 11.5856 51.3246C11.2559 52.0678 11.2853 52.9554 11.6634 53.6674C12.0415 54.3794 12.7138 54.814 13.4382 54.814C19.0297 54.814 30.0011 54.814 34.5765 54.814C35.7257 54.814 36.6572 53.74 36.6572 52.4158C36.6572 50.1475 36.6572 47.0837 36.6572 44.7358Z" fill="#5D596B"/>
<path fill-rule="evenodd" clip-rule="evenodd" d="M12.077 54.2298C11.9024 53.6266 11.9412 52.9598 12.1983 52.3801C12.8836 50.8352 13.6713 49.06 14.2833 47.6799C14.9268 46.2298 16.1651 45.255 17.5715 45.0914C21.7733 44.604 30.7537 43.8965 34.9806 43.4059C35.5501 43.3397 36.1183 43.5472 36.5503 43.9779C36.4377 43.5904 36.2404 43.2379 35.9719 42.958C35.5354 42.503 34.9532 42.2829 34.3678 42.3503C30.141 42.8409 21.1606 43.5484 16.9588 44.0365C15.5525 44.1994 14.3141 45.1742 13.6707 46.6249C13.0586 48.0044 12.271 49.7803 11.5856 51.3252C11.2559 52.0684 11.2853 52.956 11.6634 53.668C11.7769 53.8818 11.917 54.0708 12.077 54.2298Z" fill="#002D84"/>
<path fill-rule="evenodd" clip-rule="evenodd" d="M34.064 42.5336L20.238 54.814H13.7139L13.7294 54.6403L26.6618 43.0961L34.064 42.379V42.5336Z" fill="#6A6677"/>
<path fill-rule="evenodd" clip-rule="evenodd" d="M120.554 32.0035C120.554 30.9416 120.132 29.9235 119.382 29.1727C118.631 28.4212 117.613 28 116.551 28C103.801 28 59.2326 28 46.4827 28C45.4207 28 44.4026 28.4212 43.6518 29.1727C42.901 29.9235 42.4791 30.9416 42.4791 32.0035C42.4791 43.6998 42.4791 74.9912 42.4791 74.9912H120.554C120.554 74.9912 120.554 43.6998 120.554 32.0035Z" fill="url(#paint3_linear_357_1159)"/>
<path fill-rule="evenodd" clip-rule="evenodd" d="M42.5901 31.0739C43.0959 30.8493 43.6482 30.7297 44.2133 30.7297C56.9632 30.7297 101.531 30.7297 114.281 30.7297C115.343 30.7297 116.361 31.1515 117.112 31.9024C117.863 32.6538 118.285 33.6719 118.285 34.7338V74.9912H120.556C120.556 74.9912 120.556 43.6998 120.556 32.0035C120.556 30.9416 120.134 29.9235 119.383 29.1727C118.632 28.4212 117.614 28 116.552 28C103.802 28 59.2341 28 46.4842 28C45.4222 28 44.4042 28.4212 43.6533 29.1727C43.1258 29.7002 42.7606 30.36 42.5901 31.0739Z" fill="url(#paint4_linear_357_1159)"/>
<path fill-rule="evenodd" clip-rule="evenodd" d="M91.2039 73.1762C92.1029 73.1762 92.9549 72.7735 93.525 72.0786C95.7807 69.3407 99.1982 67.6023 103.018 67.6023C106.839 67.6023 110.257 69.3407 112.523 72.0697C113.091 72.7614 113.938 73.1622 114.833 73.1622C116.833 73.1762 120.556 73.1762 120.556 73.1762V74.9292H42.5118V73.1762C42.5118 73.1762 83.2407 73.1762 91.2039 73.1762Z" fill="#B9B9B9"/>
<path fill-rule="evenodd" clip-rule="evenodd" d="M120.554 64.9776H42.5103V65.7895H120.554V64.9776ZM120.523 62.6679H42.4791V64.4208H120.523V62.6679Z" fill="#176CF7"/>
<path fill-rule="evenodd" clip-rule="evenodd" d="M120.553 58.7321H117.922C117.262 58.7321 116.726 60.8904 116.726 63.5488C116.726 66.2072 117.262 68.3661 117.922 68.3661H120.553V58.7321Z" fill="#B9B9B9"/>
<path fill-rule="evenodd" clip-rule="evenodd" d="M120.554 59.5389H118.333C117.835 59.5389 117.431 61.3358 117.431 63.5495C117.431 65.7631 117.835 67.56 118.333 67.56H120.554V59.5389Z" fill="#F25E0D"/>
<path fill-rule="evenodd" clip-rule="evenodd" d="M119.114 59.5389H118.333C117.835 59.5389 117.431 61.3358 117.431 63.5495C117.431 65.7631 117.835 67.56 118.333 67.56H119.114C118.616 67.56 118.212 65.7631 118.212 63.5495C118.212 61.3358 118.616 59.5389 119.114 59.5389Z" fill="#CE500B"/>
<path fill-rule="evenodd" clip-rule="evenodd" d="M11.9477 63.172H6.71667V66.0245H11.9477V63.172Z" fill="#F2F2F2"/>
<path fill-rule="evenodd" clip-rule="evenodd" d="M11.9484 63.172H9.83008V66.0245H11.9484V63.172Z" fill="#F3B725"/>
<path fill-rule="evenodd" clip-rule="evenodd" d="M10.7979 56.8032C10.7897 56.8032 10.7814 56.8032 10.773 56.8032C9.32663 56.807 8.14956 55.5841 8.14613 54.0748C8.14263 52.5655 9.31403 51.3375 10.7604 51.3343C10.7688 51.3343 10.7772 51.3343 10.7854 51.3343L10.7979 56.8032Z" fill="#1D6AC0"/>
<path fill-rule="evenodd" clip-rule="evenodd" d="M10.6348 56.2467C10.6266 56.2467 10.6182 56.2467 10.6098 56.2467C9.16349 56.2505 7.98642 55.0276 7.98292 53.5183C7.97948 52.009 9.15089 50.781 10.5972 50.7778C10.6056 50.7778 10.614 50.7778 10.6222 50.7778L10.6348 56.2467Z" fill="#2586F3"/>
<path fill-rule="evenodd" clip-rule="evenodd" d="M10.1776 50.8135C10.314 50.7905 10.4536 50.7785 10.5959 50.7778C10.6043 50.7778 10.6127 50.7778 10.6208 50.7778L10.6334 56.2467C10.6252 56.2467 10.6168 56.2467 10.6085 56.2467C9.43971 56.2499 8.44678 55.452 8.10693 54.3493C8.5886 54.9799 9.33135 55.3833 10.1632 55.3814C10.1716 55.3814 10.1799 55.3814 10.1881 55.3807L10.1776 50.8135Z" fill="#1F72CF"/>
<path fill-rule="evenodd" clip-rule="evenodd" d="M10.6238 51.4677C9.39223 51.6936 8.45676 52.8179 8.45981 54.1668C8.46096 54.6434 8.57918 55.0914 8.78591 55.4814C8.29247 54.9851 7.9847 54.289 7.98292 53.5185C7.97948 52.0092 9.15089 50.7812 10.5972 50.778C10.6056 50.778 10.614 50.778 10.6222 50.778L10.6238 51.4677Z" fill="#4598F5"/>
<path fill-rule="evenodd" clip-rule="evenodd" d="M120.031 83.8568C120.553 83.8568 121.054 83.6493 121.423 83.2802C121.793 82.9106 122 82.4098 122 81.8874C122 80.4049 122 78.3815 122 76.8989C122 76.3765 121.793 75.8757 121.423 75.5067C121.054 75.1377 120.553 74.9302 120.031 74.9302C105.464 74.9302 18.781 74.9302 6.39812 74.9302C6.02735 74.9302 5.67173 75.0772 5.40952 75.3394C5.1473 75.6015 5 75.9572 5 76.3281C5 78.0009 5 80.7854 5 82.4588C5 82.8297 5.1473 83.1848 5.40952 83.4473C5.67173 83.7095 6.02735 83.8568 6.39812 83.8568C18.781 83.8568 105.464 83.8568 120.031 83.8568Z" fill="#5D596B"/>
<path fill-rule="evenodd" clip-rule="evenodd" d="M118.369 74.9302V78.2574C118.369 78.7798 118.162 79.2805 117.793 79.6496C117.424 80.0193 116.923 80.2267 116.401 80.2267H5V82.4588C5 82.8297 5.1473 83.1848 5.40952 83.4473C5.67173 83.7095 6.02735 83.8568 6.39812 83.8568C18.781 83.8568 105.464 83.8568 120.031 83.8568C120.553 83.8568 121.054 83.6493 121.423 83.2802C121.793 82.9106 122 82.4098 122 81.8874C122 80.4049 122 78.3815 122 76.8989C122 76.3765 121.793 75.8757 121.423 75.5067C121.054 75.1377 120.553 74.9302 120.031 74.9302H118.369Z" fill="url(#paint5_linear_357_1159)"/>
<path fill-rule="evenodd" clip-rule="evenodd" d="M12.2365 83.8568C11.7903 82.6395 11.5468 81.3249 11.5468 79.9531C11.5468 73.6856 16.6351 68.5972 22.9025 68.5972C29.17 68.5972 34.2586 73.6856 34.2586 79.9531C34.2586 81.3249 34.0149 82.6395 33.5688 83.8568H12.2365Z" fill="#ABCBFF"/>
<path fill-rule="evenodd" clip-rule="evenodd" d="M22.9049 69.7828C28.5179 69.7828 33.0749 74.3399 33.0749 79.9526C33.0749 85.5659 28.5179 90.1229 22.9049 90.1229C17.2918 90.1229 12.7347 85.5659 12.7347 79.9526C12.7347 74.3399 17.2918 69.7828 22.9049 69.7828Z" fill="url(#paint6_linear_357_1159)"/>
<path fill-rule="evenodd" clip-rule="evenodd" d="M22.9019 74.8181C25.7358 74.8181 28.0365 77.1189 28.0365 79.9523C28.0365 82.7863 25.7358 85.0872 22.9019 85.0872C20.068 85.0872 17.7672 82.7863 17.7672 79.9523C17.7672 77.1189 20.068 74.8181 22.9019 74.8181Z" fill="#F2F2F2"/>
<path fill-rule="evenodd" clip-rule="evenodd" d="M17.8005 80.5393C17.7785 80.3465 17.7672 80.1506 17.7672 79.952C17.7672 77.1186 20.068 74.8178 22.9019 74.8178C25.7358 74.8178 28.0365 77.1186 28.0365 79.952C28.0365 80.1506 28.0252 80.3465 28.0033 80.5393C27.7118 77.9815 25.5374 75.9911 22.9019 75.9911C20.2664 75.9911 18.092 77.9815 17.8005 80.5393Z" fill="#CECECE"/>
<path fill-rule="evenodd" clip-rule="evenodd" d="M23.2216 78.9533L25.8036 76.3712L26.3719 76.94L23.7899 79.5221H27.4414V80.3257H23.7899L26.3719 82.9078L25.8036 83.4759L23.2216 80.8939V84.5454H22.4178V80.8939L19.8359 83.4759L19.2675 82.9078L21.8495 80.3257H18.198V79.5221H21.8495L19.2675 76.94L19.8359 76.3712L22.4178 78.9533V75.3022H23.2216V78.9533Z" fill="#CECECE"/>
<path fill-rule="evenodd" clip-rule="evenodd" d="M22.9034 77.0813C24.488 77.0813 25.7746 78.3679 25.7746 79.9523C25.7746 81.5373 24.488 82.8239 22.9034 82.8239C21.3187 82.8239 20.0321 81.5373 20.0321 79.9523C20.0321 78.3679 21.3187 77.0813 22.9034 77.0813Z" fill="#5D596B"/>
<path fill-rule="evenodd" clip-rule="evenodd" d="M20.0507 80.2815C20.0384 80.174 20.0321 80.0645 20.0321 79.9532C20.0321 78.3688 21.3187 77.0822 22.9034 77.0822C24.488 77.0822 25.7746 78.3688 25.7746 79.9532C25.7746 80.0645 25.7683 80.174 25.756 80.2815C25.5931 78.8511 24.3771 77.7383 22.9034 77.7383C21.4296 77.7383 20.2136 78.8511 20.0507 80.2815Z" fill="#002D84"/>
<path fill-rule="evenodd" clip-rule="evenodd" d="M92.2143 83.8568C91.7682 82.6395 91.5245 81.3249 91.5245 79.9531C91.5245 73.6856 96.6129 68.5972 102.88 68.5972C109.148 68.5972 114.236 73.6856 114.236 79.9531C114.236 81.3249 113.993 82.6395 113.547 83.8568H92.2143Z" fill="#ABCBFF"/>
<path fill-rule="evenodd" clip-rule="evenodd" d="M102.883 69.7828C108.496 69.7828 113.053 74.3399 113.053 79.9526C113.053 85.5659 108.496 90.1229 102.883 90.1229C97.2696 90.1229 92.7125 85.5659 92.7125 79.9526C92.7125 74.3399 97.2696 69.7828 102.883 69.7828Z" fill="url(#paint7_linear_357_1159)"/>
<path fill-rule="evenodd" clip-rule="evenodd" d="M102.88 74.8181C105.713 74.8181 108.014 77.1189 108.014 79.9523C108.014 82.7863 105.713 85.0872 102.88 85.0872C100.046 85.0872 97.7449 82.7863 97.7449 79.9523C97.7449 77.1189 100.046 74.8181 102.88 74.8181Z" fill="#F2F2F2"/>
<path fill-rule="evenodd" clip-rule="evenodd" d="M97.778 80.5393C97.7563 80.3465 97.7449 80.1506 97.7449 79.952C97.7449 77.1186 100.046 74.8178 102.88 74.8178C105.713 74.8178 108.014 77.1186 108.014 79.952C108.014 80.1506 108.003 80.3465 107.981 80.5393C107.689 77.9815 105.515 75.9911 102.88 75.9911C100.244 75.9911 98.0694 77.9815 97.778 80.5393Z" fill="#CECECE"/>
<path fill-rule="evenodd" clip-rule="evenodd" d="M103.199 78.9533L105.781 76.3712L106.35 76.94L103.768 79.5221H107.419V80.3257H103.768L106.35 82.9078L105.781 83.4759L103.199 80.8939V84.5454H102.396V80.8939L99.8136 83.4759L99.2454 82.9078L101.827 80.3257H98.1758V79.5221H101.827L99.2454 76.94L99.8136 76.3712L102.396 78.9533V75.3022H103.199V78.9533Z" fill="#CECECE"/>
<path fill-rule="evenodd" clip-rule="evenodd" d="M102.881 77.0813C104.466 77.0813 105.752 78.3679 105.752 79.9523C105.752 81.5373 104.466 82.8239 102.881 82.8239C101.296 82.8239 100.01 81.5373 100.01 79.9523C100.01 78.3679 101.296 77.0813 102.881 77.0813Z" fill="#5D596B"/>
<path fill-rule="evenodd" clip-rule="evenodd" d="M100.028 80.2815C100.016 80.174 100.01 80.0645 100.01 79.9532C100.01 78.3688 101.296 77.0822 102.881 77.0822C104.466 77.0822 105.752 78.3688 105.752 79.9532C105.752 80.0645 105.746 80.174 105.734 80.2815C105.571 78.8511 104.355 77.7383 102.881 77.7383C101.407 77.7383 100.192 78.8511 100.028 80.2815Z" fill="#002D84"/>
<path fill-rule="evenodd" clip-rule="evenodd" d="M35.3856 42.5273C35.5981 42.631 35.796 42.7754 35.9704 42.9574C36.0365 43.0261 36.0983 43.0999 36.1555 43.1769L23.1288 54.814H21.5791L35.3856 42.5273Z" fill="#6A6677"/>
<defs>
<linearGradient id="paint0_linear_357_1159" x1="27.101" y1="74.9912" x2="27.101" y2="36.0603" gradientUnits="userSpaceOnUse">
<stop stop-color="#2586F3"/>
<stop offset="1" stop-color="#E3F0FF"/>
</linearGradient>
<linearGradient id="paint1_linear_357_1159" x1="24.0089" y1="56.4328" x2="24.0089" y2="40.5873" gradientUnits="userSpaceOnUse">
<stop stop-color="#81AAFA"/>
<stop offset="0.9999" stop-color="#205AC9"/>
<stop offset="1" stop-color="#8CB3FF"/>
</linearGradient>
<linearGradient id="paint2_linear_357_1159" x1="27.101" y1="74.9912" x2="27.101" y2="36.0603" gradientUnits="userSpaceOnUse">
<stop stop-color="#227BE0"/>
<stop offset="1" stop-color="#77B6FE"/>
</linearGradient>
<linearGradient id="paint3_linear_357_1159" x1="81.5167" y1="74.9912" x2="81.5167" y2="28" gradientUnits="userSpaceOnUse">
<stop stop-color="#FFEBB2"/>
<stop offset="1" stop-color="#FFC217"/>
</linearGradient>
<linearGradient id="paint4_linear_357_1159" x1="81.573" y1="74.9912" x2="81.573" y2="28" gradientUnits="userSpaceOnUse">
<stop offset="0.0001" stop-color="#FFE7A4"/>
<stop offset="0.0002" stop-color="#ECB20F"/>
<stop offset="1" stop-color="#FFDD7F"/>
</linearGradient>
<linearGradient id="paint5_linear_357_1159" x1="63.5" y1="83.8568" x2="63.5" y2="74.9302" gradientUnits="userSpaceOnUse">
<stop stop-color="#001949"/>
<stop offset="0.0001" stop-color="#0A46B9"/>
<stop offset="1" stop-color="#6C9EFF"/>
</linearGradient>
<linearGradient id="paint6_linear_357_1159" x1="22.9048" y1="90.1229" x2="22.9048" y2="69.7828" gradientUnits="userSpaceOnUse">
<stop stop-color="#5D596B"/>
<stop offset="1" stop-color="#2C2934"/>
</linearGradient>
<linearGradient id="paint7_linear_357_1159" x1="102.883" y1="90.1229" x2="102.883" y2="69.7828" gradientUnits="userSpaceOnUse">
<stop stop-color="#5D596B"/>
<stop offset="1" stop-color="#2C2934"/>
</linearGradient>
</defs>
</svg>
