<svg width="13" height="13" viewBox="0 0 13 13" fill="none" xmlns="http://www.w3.org/2000/svg">
<g clip-path="url(#clip0_340_15911)">
<path fill-rule="evenodd" clip-rule="evenodd" d="M4.78893 2.38713L3.32445 2.00174C2.52212 1.79061 1.78995 2.52278 2.00109 3.32511L2.38648 4.7896L1.07849 5.55258C0.361857 5.97064 0.361858 7.00609 1.07849 7.4241L2.38648 8.18709L2.00109 9.65159C1.78995 10.4539 2.52213 11.1861 3.32446 10.9749L4.78892 10.5895L5.55197 11.8976C5.96998 12.6142 7.00543 12.6142 7.42349 11.8976L8.18648 10.5896L9.65093 10.9749C10.4532 11.1861 11.1854 10.4539 10.9743 9.65159L10.5889 8.18714L11.897 7.4241C12.6136 7.00609 12.6136 5.97064 11.897 5.55258L10.5889 4.78954L10.9743 3.32509C11.1854 2.52277 10.4532 1.79059 9.65093 2.00173L8.18648 2.38711L7.42349 1.0791C7.00543 0.362468 5.96998 0.362468 5.55197 1.0791L4.78893 2.38713Z" fill="#3ECD00"/>
<path d="M5.85281 8.12314C5.75152 8.12152 5.65456 8.08577 5.58133 8.02299L3.91407 6.59613C3.87605 6.56379 3.84559 6.52496 3.82448 6.48195C3.80336 6.43889 3.792 6.39257 3.79108 6.34556C3.79015 6.29859 3.79965 6.2519 3.81905 6.20824C3.83845 6.16458 3.86734 6.12477 3.90406 6.09124C3.97864 6.0231 4.08013 5.98394 4.18663 5.98226C4.29313 5.98058 4.3961 6.01649 4.4733 6.08225L5.84951 7.25951L8.49848 4.45993C8.56765 4.38784 8.66552 4.34289 8.77126 4.33472C8.87694 4.32655 8.98202 4.3558 9.06392 4.41621C9.10438 4.44613 9.13775 4.48295 9.16218 4.52453C9.18655 4.56611 9.2015 4.61162 9.20616 4.65842C9.21077 4.70523 9.20497 4.75238 9.18905 4.79715C9.17317 4.84193 9.1475 4.88342 9.11359 4.91924L6.20186 7.99759C6.16389 8.03767 6.11655 8.06984 6.06325 8.09184C6.01 8.11383 5.95199 8.12515 5.89328 8.12504C5.87979 8.12504 5.8663 8.12439 5.85281 8.12314Z" fill="white"/>
</g>
<defs>
<clipPath id="clip0_340_15911">
<rect width="13" height="13" fill="white"/>
</clipPath>
</defs>
</svg>
