<svg width="16" height="16" viewBox="0 0 16 16" fill="none" xmlns="http://www.w3.org/2000/svg">
<path d="M7.99859 14.0026C4.6835 14.0026 1.99609 11.3151 1.99609 8.00006C1.99609 4.68497 4.6835 1.99756 7.99859 1.99756C11.3137 1.99756 14.0011 4.68497 14.0011 8.00006" stroke="#176CF7" stroke-linecap="round" stroke-linejoin="round"/>
<path d="M2.33984 5.99924H13.5899" stroke="#176CF7" stroke-linecap="round" stroke-linejoin="round"/>
<path d="M2.33984 10.0008H7.99953" stroke="#176CF7" stroke-linecap="round" stroke-linejoin="round"/>
<path d="M10.6673 8.00001C10.6723 6.13674 10.1729 4.30685 9.22198 2.70447C8.97036 2.26721 8.5043 1.99768 7.99981 1.99768C7.49531 1.99768 7.02925 2.26721 6.77763 2.70447C4.85016 5.97199 4.85016 10.0287 6.77763 13.2962C7.03035 13.7326 7.49589 14.0018 8.00014 14.0032" stroke="#176CF7" stroke-linecap="round" stroke-linejoin="round"/>
<circle cx="12.0018" cy="12.0018" r="2.66778" stroke="#176CF7" stroke-linecap="round" stroke-linejoin="round"/>
<path d="M12.8299 11.5875L11.7922 12.6253L11.1699 12.0024" stroke="#176CF7" stroke-linecap="round" stroke-linejoin="round"/>
</svg>
