<svg width="16" height="16" viewBox="0 0 16 16" fill="none" xmlns="http://www.w3.org/2000/svg">
<path d="M8.23132 14.5287C7.1781 13.3549 6.25309 12.0721 5.47199 10.702C4.80543 9.6647 4.34692 8.50767 4.12199 7.29534C3.94696 6.5803 3.96048 5.83207 4.16124 5.12381C4.362 4.41556 4.74311 3.77152 5.26732 3.25468C6.06366 2.47121 7.12984 2.02252 8.24676 2.00083C9.36368 1.97913 10.4465 2.38607 11.2727 3.13801C12.0668 3.8596 12.5586 4.85486 12.6493 5.92401C12.6517 5.92664 12.6534 5.9297 12.6546 5.93301C12.6557 5.93633 12.6562 5.93984 12.656 5.94334C12.656 5.95601 12.656 5.96868 12.656 5.98201C12.6627 6.08334 12.6667 6.18201 12.6667 6.28401V6.30601C12.6667 6.38734 12.6667 6.46668 12.6587 6.54801C12.6316 6.98915 12.5356 7.42332 12.374 7.83468C12.1527 8.49352 11.8936 9.13903 11.598 9.76801C11.0175 11.0097 10.2845 12.1742 9.41599 13.2347C9.04975 13.6912 8.65401 14.1239 8.23132 14.5287ZM8.33399 4.41001C8.01698 4.41356 7.70811 4.51082 7.44626 4.68954C7.18441 4.86825 6.98128 5.12044 6.86246 5.41436C6.74363 5.70827 6.7144 6.03077 6.77847 6.34126C6.84254 6.65174 6.99702 6.93633 7.22249 7.15921C7.44795 7.38208 7.73431 7.53327 8.04551 7.59374C8.35672 7.65422 8.67886 7.62127 8.97138 7.49905C9.2639 7.37683 9.51373 7.17081 9.68941 6.90691C9.86509 6.64301 9.95877 6.33304 9.95866 6.01601C9.95566 5.58776 9.78293 5.17818 9.47836 4.87711C9.17379 4.57604 8.76224 4.40806 8.33399 4.41001Z" stroke="#176CF7"/>
</svg>
