<svg width="16" height="16" viewBox="0 0 16 16" fill="none" xmlns="http://www.w3.org/2000/svg">
<path d="M8.35555 0.772339H7.59786C7.023 0.846387 6.47521 1.05853 6.00235 1.39023C5.52949 1.72193 5.14595 2.1631 4.88522 2.6752C4.62449 3.1873 4.49451 3.75476 4.50664 4.328C4.51876 4.90123 4.67262 5.46282 4.95478 5.96369L7.59447 10.8206C7.63115 10.8898 7.68629 10.9478 7.7539 10.9882C7.82152 11.0287 7.89904 11.0501 7.97806 11.0501C8.05709 11.0501 8.1346 11.0287 8.20222 10.9882C8.26983 10.9478 8.32497 10.8898 8.36165 10.8206L11 5.97843C11.2813 5.47631 11.4345 4.91388 11.4462 4.33994C11.458 3.766 11.3279 3.19789 11.0674 2.68493C10.8068 2.17196 10.4236 1.72964 9.95104 1.39634C9.47847 1.06305 8.93079 0.84885 8.35555 0.772339Z" stroke="#176CF7" stroke-linecap="round" stroke-linejoin="bevel"/>
<path fill-rule="evenodd" clip-rule="evenodd" d="M5.40688 6.79525L5.33345 6.75159L5.07791 6.90353L3.74458 7.69632L3.55439 7.80941L3.51019 8.02621L2.17686 14.5668L1.95117 15.6738L2.92232 15.0964L5.33345 13.6628L7.74458 15.0964L8.00011 15.2483L8.25565 15.0964L10.6668 13.6628L13.0779 15.0964L14.0491 15.6738L13.8234 14.5668L12.49 8.02621L12.4458 7.80941L12.2557 7.69632L10.9223 6.90353L10.6668 6.75159L10.5367 6.82892L9.599 8.5499L10.6668 7.91501L11.5544 8.44277L12.6178 13.6594L10.9223 12.6513L10.6668 12.4993L10.4112 12.6513L8.00011 14.0849L5.58899 12.6513L5.33345 12.4993L5.07791 12.6513L3.38239 13.6594L4.44584 8.44277L5.33345 7.91501L6.3411 8.51415L5.40688 6.79525Z" fill="#176CF7"/>
<path d="M9.22039 4.1704C9.22039 3.49036 8.663 2.93909 7.97543 2.93909C7.28786 2.93909 6.73047 3.49036 6.73047 4.1704C6.73047 4.85043 7.28786 5.40171 7.97543 5.40171C8.663 5.40171 9.22039 4.85043 9.22039 4.1704Z" stroke="#176CF7" stroke-linecap="round" stroke-linejoin="bevel"/>
</svg>
