<svg width="16" height="16" viewBox="0 0 16 16" fill="none" xmlns="http://www.w3.org/2000/svg">
<path d="M7.94445 13.9973C6.45041 13.9973 4.95901 14.0048 3.46497 13.9948C2.4284 13.9873 2.00795 13.5919 2.0053 12.6136C1.99473 10.832 2.00795 9.05289 2.00002 7.2763C1.99737 6.46058 2.32262 5.80249 2.99164 5.29704C4.24769 4.3537 5.5011 3.40785 6.77037 2.48203C7.65357 1.83395 8.34903 1.83896 9.25339 2.49954C10.5015 3.40785 11.7338 4.33618 12.9687 5.26201C13.6615 5.78247 14.0052 6.45807 13.9999 7.30383C13.9894 9.05539 14.0026 10.8095 13.9947 12.561C13.992 13.5944 13.5821 13.9898 12.5033 13.9948C10.9854 14.0023 9.46493 13.9973 7.94445 13.9973ZM12.9581 12.9839C12.9581 10.9821 12.9977 9.07291 12.9263 7.16871C12.9105 6.76585 12.5641 6.29293 12.2282 6.00017C11.4561 5.32957 10.5993 4.74655 9.77167 4.1335C9.21372 3.72063 8.64519 3.31777 7.9894 2.84485C6.98456 3.59052 6.05111 4.27363 5.12825 4.96674C2.71134 6.78086 3.06568 6.15781 3.04188 9.05539C3.0313 10.3566 3.03923 11.6552 3.03923 12.9664C3.41473 12.9664 3.67651 12.9664 3.99912 12.9664C3.99912 12.3759 3.99912 11.8304 3.99912 11.2824C3.99912 9.91866 4.21067 9.68095 5.65975 9.48577C5.65975 9.18801 5.65975 8.88023 5.65975 8.56996C5.65975 8.25468 5.64918 7.9419 5.6624 7.62662C5.69678 6.86844 6.10664 6.44807 6.88407 6.42054C7.62977 6.39552 8.37812 6.39302 9.12381 6.42054C9.8986 6.44807 10.3164 6.87094 10.3402 7.63162C10.3614 8.25468 10.3455 8.87773 10.3455 9.48828C11.7708 9.67594 12.0061 9.92867 12.0088 11.2098C12.0088 11.8003 12.0088 12.3934 12.0088 12.9814C12.3657 12.9839 12.609 12.9839 12.9581 12.9839ZM7.42616 12.9814C7.42616 12.1206 7.42616 11.3549 7.42616 10.5943C6.61435 10.5943 5.85808 10.5943 5.078 10.5943C5.078 11.415 5.078 12.1807 5.078 12.9814C5.87923 12.9814 6.63286 12.9814 7.42616 12.9814ZM8.56322 10.5692C8.56322 11.41 8.56322 12.1757 8.56322 12.9564C9.3856 12.9564 10.1604 12.9564 10.9061 12.9564C10.9061 12.1281 10.9061 11.3624 10.9061 10.5692C10.1075 10.5692 9.37238 10.5692 8.56322 10.5692ZM6.75979 7.43895C6.75979 8.20463 6.75979 8.86772 6.75979 9.49829C7.64564 9.49829 8.46009 9.49829 9.24016 9.49829C9.24016 8.77014 9.24016 8.10454 9.24016 7.43895C8.37547 7.43895 7.58218 7.43895 6.75979 7.43895Z" fill="#176CF7"/>
</svg>
