<svg width="271" height="132" viewBox="0 0 271 132" fill="none" xmlns="http://www.w3.org/2000/svg">
<rect x="32.1169" y="121.558" width="195.883" height="0.719277" rx="0.359639" fill="#A1D0FF"/>
<path fill-rule="evenodd" clip-rule="evenodd" d="M192.805 87.6319H212.253C216.335 87.6319 220.007 90.1137 221.53 93.9015L223.344 98.4127C223.569 98.9725 223.684 99.5703 223.684 100.174C223.684 102.726 221.66 104.805 219.129 104.892V121.558H185.083V104.895H185.016C182.537 104.895 180.528 102.885 180.528 100.406C180.528 99.6544 180.717 98.9144 181.077 98.2544L184.037 92.8371C185.791 89.628 189.148 87.6319 192.805 87.6319Z" fill="url(#paint0_linear_2_5448)"/>
<path fill-rule="evenodd" clip-rule="evenodd" d="M142.935 87.9916H162.383C166.465 87.9916 170.137 90.4733 171.66 94.2612L173.474 98.7723C173.699 99.3322 173.814 99.93 173.814 100.533C173.814 103.085 171.79 105.164 169.259 105.251V121.917H135.213V105.254H135.146C132.667 105.254 130.658 103.245 130.658 100.766C130.658 100.014 130.847 99.274 131.207 98.6141L134.167 93.1967C135.921 89.9876 139.278 87.9916 142.935 87.9916Z" fill="url(#paint1_linear_2_5448)"/>
<circle cx="167.101" cy="101.178" r="2.87711" fill="url(#paint2_linear_2_5448)"/>
<path fill-rule="evenodd" clip-rule="evenodd" d="M169.139 101.418C172.74 101.418 175.667 104.199 175.732 107.654C181.58 107.778 186.282 112.453 186.282 118.201C186.282 118.524 186.267 118.844 186.238 119.16H150.798C150.864 114.118 155.079 110.049 160.268 110.049C161.284 110.049 162.263 110.205 163.18 110.494C162.773 109.669 162.546 108.746 162.546 107.772C162.546 104.263 165.498 101.418 169.139 101.418Z" fill="url(#paint3_linear_2_5448)"/>
<path fill-rule="evenodd" clip-rule="evenodd" d="M191.557 113.166C191.557 113.247 191.556 113.328 191.553 113.409C196.229 113.525 200.028 117.07 200.398 121.558H164.957C165.2 117.114 168.801 113.538 173.335 113.194L173.335 113.166C173.335 108.267 177.414 104.295 182.446 104.295C187.478 104.295 191.557 108.267 191.557 113.166Z" fill="url(#paint4_linear_2_5448)"/>
<path fill-rule="evenodd" clip-rule="evenodd" d="M55.6003 41.4783C55.6003 41.5595 55.5992 41.6404 55.5969 41.721C60.2723 41.837 64.072 45.3823 64.4418 49.8699H29.0001C29.2432 45.4261 32.845 41.8503 37.3786 41.5055L37.3786 41.4783C37.3786 36.5789 41.4576 32.6072 46.4894 32.6072C51.5212 32.6072 55.6003 36.5789 55.6003 41.4783Z" fill="url(#paint5_linear_2_5448)"/>
<path fill-rule="evenodd" clip-rule="evenodd" d="M210.245 47.2325C210.245 47.3137 210.244 47.3946 210.241 47.4752C214.917 47.5912 218.717 51.1365 219.086 55.6241H183.645C183.888 51.1803 187.49 47.6045 192.023 47.2598L192.023 47.2325C192.023 42.3332 196.102 38.3614 201.134 38.3614C206.166 38.3614 210.245 42.3332 210.245 47.2325Z" fill="url(#paint6_linear_2_5448)"/>
<path fill-rule="evenodd" clip-rule="evenodd" d="M182.672 16.0639C182.672 16.145 182.671 16.2259 182.669 16.3066C187.344 16.4225 191.144 19.9678 191.514 24.4554H156.072C156.315 20.0116 159.917 16.4358 164.451 16.0911L164.451 16.0639C164.451 11.1645 168.53 7.19278 173.562 7.19278C178.593 7.19278 182.672 11.1645 182.672 16.0639Z" fill="url(#paint7_linear_2_5448)"/>
<path fill-rule="evenodd" clip-rule="evenodd" d="M96.8388 8.87108C96.8388 8.95224 96.8377 9.03314 96.8355 9.11377C101.511 9.2297 105.311 12.7751 105.68 17.2627H70.2386C70.4817 12.8189 74.0836 9.24306 78.6172 8.89832L78.6171 8.87108C78.6171 3.97172 82.6962 0 87.728 0C92.7597 0 96.8388 3.97172 96.8388 8.87108Z" fill="url(#paint8_linear_2_5448)"/>
<path fill-rule="evenodd" clip-rule="evenodd" d="M98.3401 88.2313H117.788C121.87 88.2313 125.542 90.713 127.065 94.5009L128.878 99.0121C129.104 99.5719 129.219 100.17 129.219 100.773C129.219 103.325 127.194 105.404 124.664 105.491V122.157H90.618V105.494H90.5508C88.072 105.494 86.0626 103.485 86.0626 101.006C86.0626 100.254 86.2516 99.5138 86.6122 98.8538L89.5722 93.4365C91.3256 90.2274 94.6833 88.2313 98.3401 88.2313Z" fill="url(#paint9_linear_2_5448)"/>
<path fill-rule="evenodd" clip-rule="evenodd" d="M48.2305 87.7518H67.678C71.7605 87.7518 75.4321 90.2335 76.9551 94.0214L78.7689 98.5325C78.994 99.0924 79.1096 99.6902 79.1096 100.294C79.1096 102.845 77.0849 104.924 74.5542 105.012V121.678H40.5085V105.014H40.4412C37.9624 105.014 35.953 103.005 35.953 100.526C35.953 99.7742 36.142 99.0342 36.5026 98.3743L39.4626 92.9569C41.216 89.7479 44.5736 87.7518 48.2305 87.7518Z" fill="url(#paint10_linear_2_5448)"/>
<rect x="46.7422" y="69.5301" width="24.9349" height="15.3446" rx="7.67229" fill="url(#paint11_linear_2_5448)"/>
<rect x="189.639" y="69.5301" width="24.9349" height="15.5843" rx="5" fill="url(#paint12_linear_2_5448)"/>
<rect x="96.3723" y="78.6409" width="69.0506" height="44.1157" fill="url(#paint13_linear_2_5448)"/>
<path d="M123.705 95.1904C123.705 91.8767 126.391 89.1904 129.705 89.1904H152.47C155.784 89.1904 158.47 91.8767 158.47 95.1904V116.043H123.705V95.1904Z" fill="url(#paint14_linear_2_5448)"/>
<path d="M149.16 107.172C148.608 107.172 148.16 107.62 148.16 108.172V115.043C148.16 115.596 148.608 116.043 149.16 116.043H156.271C156.823 116.043 157.271 115.596 157.271 115.043V108.172C157.271 107.62 156.823 107.172 156.271 107.172H149.16ZM154.931 109.838C154.931 110.048 154.761 110.218 154.552 110.218H150.881C150.671 110.218 150.501 110.048 150.501 109.838C150.501 109.629 150.671 109.459 150.881 109.459H154.552C154.761 109.459 154.931 109.629 154.931 109.838Z" fill="url(#paint15_linear_2_5448)"/>
<path d="M157.306 105.973H148.163C147.764 105.973 147.441 106.297 147.441 106.696C147.441 107.095 147.764 107.418 148.163 107.418H157.306C157.705 107.418 158.028 107.095 158.028 106.696C158.028 106.297 157.705 105.973 157.306 105.973Z" fill="url(#paint16_linear_2_5448)"/>
<path d="M149.125 97.5894C148.573 97.5894 148.125 98.0371 148.125 98.5894V105.009C148.125 105.561 148.573 106.009 149.125 106.009H156.266C156.818 106.009 157.266 105.561 157.266 105.009V98.5894C157.266 98.0371 156.818 97.5894 156.266 97.5894H149.125ZM154.918 100.12C154.918 100.319 154.757 100.48 154.558 100.48H150.834C150.635 100.48 150.474 100.319 150.474 100.12C150.474 99.9211 150.635 99.7599 150.834 99.7599H154.558C154.757 99.7599 154.918 99.9211 154.918 100.12Z" fill="url(#paint17_linear_2_5448)"/>
<path d="M157.268 96.1434H148.126C147.727 96.1434 147.403 96.4668 147.403 96.8658C147.403 97.2648 147.727 97.5883 148.126 97.5883H157.268C157.667 97.5883 157.99 97.2648 157.99 96.8658C157.99 96.4668 157.667 96.1434 157.268 96.1434Z" fill="url(#paint18_linear_2_5448)"/>
<path d="M138.131 107.412C137.579 107.412 137.131 107.86 137.131 108.412V115.043C137.131 115.596 137.579 116.043 138.131 116.043H145.242C145.794 116.043 146.242 115.596 146.242 115.043V108.412C146.242 107.86 145.794 107.412 145.242 107.412H138.131ZM143.903 110.006C143.903 110.21 143.738 110.375 143.534 110.375H139.842C139.638 110.375 139.473 110.21 139.473 110.006C139.473 109.802 139.638 109.637 139.842 109.637H143.534C143.738 109.637 143.903 109.802 143.903 110.006Z" fill="url(#paint19_linear_2_5448)"/>
<path d="M127.102 107.412C126.55 107.412 126.102 107.86 126.102 108.412V115.043C126.102 115.596 126.55 116.043 127.102 116.043H134.213C134.766 116.043 135.213 115.596 135.213 115.043V108.412C135.213 107.86 134.766 107.412 134.213 107.412H127.102ZM132.874 110.006C132.874 110.21 132.709 110.375 132.505 110.375H128.813C128.609 110.375 128.444 110.21 128.444 110.006C128.444 109.802 128.609 109.637 128.813 109.637H132.505C132.709 109.637 132.874 109.802 132.874 110.006Z" fill="url(#paint20_linear_2_5448)"/>
<path d="M146.037 106.008H136.895C136.496 106.008 136.172 106.332 136.172 106.731C136.172 107.13 136.496 107.453 136.895 107.453H146.037C146.436 107.453 146.759 107.13 146.759 106.731C146.759 106.332 146.436 106.008 146.037 106.008Z" fill="url(#paint21_linear_2_5448)"/>
<path d="M135.248 106.008H126.106C125.707 106.008 125.383 106.332 125.383 106.731C125.383 107.13 125.707 107.453 126.106 107.453H135.248C135.647 107.453 135.97 107.13 135.97 106.731C135.97 106.332 135.647 106.008 135.248 106.008Z" fill="url(#paint22_linear_2_5448)"/>
<path d="M138.134 97.5894C137.582 97.5894 137.134 98.0371 137.134 98.5894V105.009C137.134 105.561 137.582 106.009 138.134 106.009H145.275C145.827 106.009 146.275 105.561 146.275 105.009V98.5894C146.275 98.0371 145.827 97.5894 145.275 97.5894H138.134ZM143.928 100.12C143.928 100.319 143.767 100.48 143.568 100.48H139.843C139.644 100.48 139.483 100.319 139.483 100.12C139.483 99.9211 139.644 99.7599 139.843 99.7599H143.568C143.767 99.7599 143.928 99.9211 143.928 100.12Z" fill="url(#paint23_linear_2_5448)"/>
<path d="M146.277 96.1434H137.135C136.736 96.1434 136.412 96.4668 136.412 96.8658C136.412 97.2648 136.736 97.5883 137.135 97.5883H146.277C146.676 97.5883 146.999 97.2648 146.999 96.8658C146.999 96.4668 146.676 96.1434 146.277 96.1434Z" fill="url(#paint24_linear_2_5448)"/>
<path d="M151.277 53.1066H137.491L139.409 75.8837L157.031 76.0036L151.277 53.1066Z" fill="url(#paint25_linear_2_5448)"/>
<path d="M137.491 53.1066L124.664 52.9867L122.506 76.0036L139.409 75.8837L137.491 53.1066Z" fill="url(#paint26_linear_2_5448)"/>
<path d="M124.664 52.9867H110.638L104.884 76.0036H122.506L124.664 52.9867Z" fill="url(#paint27_linear_2_5448)"/>
<path d="M104.884 83.0383V76.0036H87.741V82.9267C87.741 83.5033 87.8213 84.0771 87.9797 84.6315C88.2844 85.698 89.0438 86.5759 90.0553 87.031L90.2174 87.104C90.6395 87.294 91.0972 87.3922 91.5601 87.3922H100.791C102.401 87.3922 103.857 86.4324 104.491 84.9522C104.75 84.3474 104.884 83.6963 104.884 83.0383Z" fill="url(#paint28_linear_2_5448)"/>
<path d="M122.506 82.7563V76.0036H104.884V82.7903C104.884 83.4563 104.991 84.1179 105.202 84.7497C105.534 85.7463 106.268 86.5585 107.226 86.9896L107.453 87.0916C107.893 87.2897 108.37 87.3922 108.853 87.3922H118.179C119.736 87.3922 121.167 86.5356 121.902 85.1632C122.299 84.4229 122.506 83.5961 122.506 82.7563Z" fill="url(#paint29_linear_2_5448)"/>
<path d="M139.306 82.9374L139.409 75.8837L122.506 76.0036V82.8981C122.506 83.5474 122.605 84.193 122.8 84.8125C123.122 85.8389 123.857 86.6851 124.827 87.1486L124.924 87.1948C125.362 87.4036 125.84 87.5121 126.325 87.5121H134.96C136.564 87.5121 138.033 86.6086 138.756 85.176C139.107 84.4812 139.295 83.7157 139.306 82.9374Z" fill="url(#paint30_linear_2_5448)"/>
<path d="M157.031 83.079V76.0036L139.409 75.8837V82.3361C139.409 83.4483 139.71 84.5398 140.28 85.4949C140.773 86.3207 141.564 86.9251 142.491 87.1825L142.78 87.2629C143.089 87.3487 143.408 87.3922 143.728 87.3922H153.027C154.329 87.3922 155.545 86.7374 156.261 85.6496C156.763 84.8865 157.031 83.9927 157.031 83.079Z" fill="url(#paint31_linear_2_5448)"/>
<path d="M174.054 83.2526V76.1235L157.031 76.0036V82.5015C157.031 83.5851 157.316 84.6496 157.857 85.5884C158.343 86.4306 159.136 87.0515 160.07 87.3203L160.279 87.3802C160.583 87.4677 160.898 87.5121 161.214 87.5121H170.097C171.408 87.5121 172.628 86.8422 173.331 85.7362C173.803 84.9939 174.054 84.1324 174.054 83.2526Z" fill="url(#paint32_linear_2_5448)"/>
<path d="M104.884 76.0036L110.638 52.9867H106.147C100.335 52.9867 95.1266 56.5783 93.061 62.0113L87.741 76.0036H104.884Z" fill="url(#paint33_linear_2_5448)"/>
<path d="M157.031 76.0036L151.277 52.9867H155.721C161.557 52.9867 166.78 56.6068 168.83 62.071L174.054 76.0036H157.031Z" fill="url(#paint34_linear_2_5448)"/>
<ellipse cx="109.319" cy="55.1446" rx="2.15783" ry="0.959036" fill="#0054AE"/>
<ellipse cx="123.705" cy="55.1446" rx="2.15783" ry="0.959036" fill="#0054AE"/>
<path d="M107.881 50.1096H110.758V55.6241H107.881V50.1096Z" fill="#176CF7"/>
<path d="M122.266 49.8699H125.143V55.6241H122.266V49.8699Z" fill="#176CF7"/>
<ellipse cx="138.09" cy="55.1446" rx="2.15783" ry="0.959036" fill="#0054AE"/>
<path d="M136.652 49.8699H139.529V55.6241H136.652V49.8699Z" fill="#176CF7"/>
<ellipse cx="152.476" cy="55.1446" rx="2.15783" ry="0.959036" fill="#0054AE"/>
<path d="M151.037 49.8699H153.914V55.6241H151.037V49.8699Z" fill="#176CF7"/>
<path d="M107.881 50.1096H110.758V51.7879H107.881V50.1096Z" fill="#0256AE"/>
<path d="M122.266 49.8699H125.143V51.7879H122.266V49.8699Z" fill="#0256AE"/>
<path d="M136.652 49.8699H139.529V51.7879H136.652V49.8699Z" fill="#0256AE"/>
<path d="M151.037 49.8699H153.914V51.7879H151.037V49.8699Z" fill="#0256AE"/>
<rect x="94.9338" y="44.3554" width="71.9277" height="5.75422" rx="2.87711" fill="#176CF7"/>
<path d="M99.1899 26.969C99.1899 21.4462 103.667 16.969 109.19 16.969H152.438C157.961 16.969 162.438 21.4461 162.438 26.969V43.1938H99.1899V26.969Z" fill="url(#paint35_linear_2_5448)"/>
<path d="M110.046 33.1886C109.545 33.0171 109.09 32.8455 108.68 32.674C108.27 32.4911 107.917 32.2738 107.621 32.0222C107.325 31.7707 107.092 31.4734 106.921 31.1303C106.762 30.7758 106.682 30.347 106.682 29.8439C106.682 28.8719 107.052 28.0944 107.792 27.5112C108.544 26.928 109.591 26.6364 110.934 26.6364C111.424 26.6364 111.879 26.6707 112.301 26.7393C112.722 26.8079 113.081 26.9166 113.377 27.0652C113.684 27.2024 113.923 27.3854 114.094 27.6141C114.265 27.8314 114.35 28.0886 114.35 28.3859C114.35 28.6832 114.282 28.9405 114.145 29.1578C114.009 29.3636 113.843 29.5409 113.65 29.6895C113.399 29.5294 113.064 29.3922 112.642 29.2779C112.221 29.1521 111.76 29.0892 111.259 29.0892C110.747 29.0892 110.371 29.1635 110.132 29.3122C109.893 29.4494 109.773 29.6266 109.773 29.8439C109.773 30.0154 109.847 30.1583 109.995 30.2727C110.143 30.3756 110.365 30.4728 110.661 30.5643L111.566 30.8559C112.637 31.1989 113.456 31.6392 114.026 32.1766C114.606 32.7026 114.897 33.423 114.897 34.3378C114.897 35.3097 114.515 36.0988 113.752 36.7048C112.99 37.2994 111.868 37.5967 110.388 37.5967C109.864 37.5967 109.375 37.551 108.919 37.4595C108.475 37.3795 108.082 37.2594 107.741 37.0993C107.411 36.9278 107.149 36.7219 106.955 36.4818C106.773 36.2303 106.682 35.9444 106.682 35.6242C106.682 35.2926 106.779 35.0124 106.972 34.7837C107.166 34.5436 107.377 34.3607 107.604 34.2349C107.923 34.4864 108.31 34.7037 108.766 34.8867C109.232 35.0696 109.739 35.1611 110.286 35.1611C110.843 35.1611 111.236 35.0753 111.464 34.9038C111.692 34.7323 111.805 34.5322 111.805 34.3035C111.805 34.0748 111.714 33.9033 111.532 33.7889C111.35 33.6631 111.094 33.5431 110.764 33.4287L110.046 33.1886Z" fill="url(#paint36_linear_2_5448)"/>
<path d="M115.82 29.3293C115.741 29.2035 115.667 29.032 115.598 28.8147C115.53 28.5975 115.496 28.3688 115.496 28.1287C115.496 27.6827 115.593 27.3625 115.786 27.1681C115.991 26.9737 116.253 26.8765 116.572 26.8765H124.018C124.098 27.0023 124.172 27.1738 124.24 27.3911C124.308 27.6084 124.342 27.8371 124.342 28.0772C124.342 28.5232 124.24 28.8433 124.035 29.0377C123.841 29.2321 123.585 29.3293 123.266 29.3293H121.371V37.2537C121.246 37.288 121.046 37.3223 120.773 37.3566C120.511 37.3909 120.249 37.408 119.987 37.408C119.726 37.408 119.492 37.3852 119.287 37.3394C119.094 37.3051 118.929 37.2365 118.792 37.1336C118.655 37.0307 118.553 36.8878 118.485 36.7048C118.416 36.5218 118.382 36.2817 118.382 35.9844V29.3293H115.82Z" fill="url(#paint37_linear_2_5448)"/>
<path d="M124.826 32.108C124.826 31.2161 124.962 30.4271 125.236 29.741C125.52 29.0549 125.902 28.4831 126.38 28.0257C126.869 27.5569 127.439 27.2024 128.088 26.9623C128.748 26.7222 129.46 26.6021 130.222 26.6021C130.985 26.6021 131.691 26.7222 132.34 26.9623C133 27.2024 133.575 27.5569 134.065 28.0257C134.555 28.4831 134.936 29.0549 135.209 29.741C135.494 30.4271 135.636 31.2161 135.636 32.108C135.636 32.9999 135.5 33.7946 135.226 34.4922C134.953 35.1782 134.572 35.7557 134.082 36.2245C133.604 36.6819 133.035 37.0307 132.374 37.2708C131.714 37.511 130.997 37.631 130.222 37.631C129.448 37.631 128.731 37.511 128.071 37.2708C127.41 37.0193 126.841 36.6591 126.363 36.1902C125.885 35.7214 125.509 35.1439 125.236 34.4578C124.962 33.7718 124.826 32.9885 124.826 32.108ZM127.9 32.108C127.9 33.1486 128.11 33.9261 128.532 34.4407C128.953 34.9553 129.517 35.2125 130.222 35.2125C130.94 35.2125 131.509 34.9553 131.93 34.4407C132.351 33.9261 132.562 33.1486 132.562 32.108C132.562 31.0788 132.351 30.307 131.93 29.7924C131.52 29.2779 130.957 29.0206 130.239 29.0206C129.534 29.0206 128.964 29.2779 128.532 29.7924C128.11 30.2956 127.9 31.0674 127.9 32.108Z" fill="url(#paint38_linear_2_5448)"/>
<path d="M140.318 33.9604V37.2537C140.193 37.288 139.993 37.3223 139.72 37.3566C139.458 37.3909 139.196 37.408 138.934 37.408C138.673 37.408 138.439 37.3852 138.234 37.3394C138.041 37.3051 137.876 37.2365 137.739 37.1336C137.614 37.0307 137.517 36.8878 137.449 36.7048C137.38 36.5218 137.346 36.2817 137.346 35.9844V27.9057C137.346 27.6655 137.409 27.4826 137.534 27.3568C137.671 27.2196 137.853 27.111 138.081 27.0309C138.468 26.8937 138.917 26.7965 139.43 26.7393C139.942 26.6707 140.489 26.6364 141.069 26.6364C142.64 26.6364 143.825 26.968 144.622 27.6312C145.419 28.2945 145.817 29.1921 145.817 30.3241C145.817 31.0331 145.635 31.6392 145.271 32.1423C144.906 32.6454 144.474 33.0342 143.973 33.3086C144.382 33.869 144.787 34.395 145.185 34.8867C145.584 35.3784 145.897 35.8243 146.124 36.2245C146.011 36.6248 145.8 36.9335 145.493 37.1508C145.196 37.3566 144.861 37.4595 144.485 37.4595C144.234 37.4595 144.018 37.4309 143.836 37.3737C143.654 37.3166 143.494 37.2365 143.358 37.1336C143.221 37.0307 143.096 36.9049 142.982 36.7563C142.868 36.6076 142.76 36.4475 142.658 36.276L141.223 33.9604H140.318ZM141.394 31.6792C141.826 31.6792 142.168 31.5705 142.418 31.3533C142.669 31.1246 142.794 30.793 142.794 30.3585C142.794 29.9239 142.652 29.598 142.367 29.3808C142.094 29.1521 141.656 29.0377 141.052 29.0377C140.881 29.0377 140.745 29.0434 140.642 29.0549C140.54 29.0663 140.426 29.0835 140.301 29.1063V31.6792H141.394Z" fill="url(#paint39_linear_2_5448)"/>
<path d="M147.753 28.5232C147.753 28.0315 147.896 27.6427 148.18 27.3568C148.465 27.0709 148.852 26.928 149.342 26.928H154.977C155.057 27.0538 155.125 27.2196 155.182 27.4254C155.251 27.6312 155.285 27.8485 155.285 28.0772C155.285 28.5117 155.188 28.8205 154.994 29.0034C154.812 29.1864 154.567 29.2779 154.26 29.2779H150.657V30.873H154.499C154.579 30.9988 154.647 31.1646 154.704 31.3704C154.772 31.5648 154.807 31.7764 154.807 32.0051C154.807 32.4396 154.715 32.7483 154.533 32.9313C154.351 33.1143 154.106 33.2057 153.799 33.2057H150.657V35.0067H155.046C155.125 35.1325 155.194 35.2983 155.251 35.5041C155.319 35.71 155.353 35.9272 155.353 36.1559C155.353 36.5904 155.256 36.9049 155.063 37.0993C154.881 37.2823 154.636 37.3737 154.328 37.3737H149.342C148.852 37.3737 148.465 37.2308 148.18 36.9449C147.896 36.6591 147.753 36.2703 147.753 35.7786V28.5232Z" fill="url(#paint40_linear_2_5448)"/>
<rect x="99.2495" y="43.1566" width="63.2964" height="1.1988" fill="#0256AE"/>
<path fill-rule="evenodd" clip-rule="evenodd" d="M160.628 119.16L165.423 119.16C167.144 119.16 168.54 120.556 168.54 122.277H92.776C92.776 120.556 94.1715 119.16 95.8929 119.16H100.688C100.688 117.439 102.084 116.043 103.805 116.043H157.511C159.232 116.043 160.628 117.439 160.628 119.16Z" fill="url(#paint41_linear_2_5448)"/>
<path d="M104.764 96.547C104.764 94.3378 106.555 92.547 108.764 92.547H116.108C118.318 92.547 120.108 94.3378 120.108 96.547V116.043H104.764V96.547Z" fill="url(#paint42_linear_2_5448)"/>
<path d="M109.679 98.6609L111.739 95.9142C112.144 95.3741 112.957 95.3824 113.351 95.9306L115.313 98.6609" stroke="#80BEFF"/>
<rect x="109.08" y="98.541" width="6.95301" height="3.11687" rx="1.55843" fill="#80BEFF"/>
<rect x="105.963" y="106.933" width="12.947" height="0.959036" rx="0.479518" fill="#80BEFF"/>
<rect x="137.131" y="105.494" width="9.11084" height="0.479518" fill="url(#paint43_linear_2_5448)"/>
<rect x="148.16" y="105.494" width="9.11084" height="0.479518" fill="url(#paint44_linear_2_5448)"/>
<rect x="148.16" y="115.564" width="9.11084" height="0.479518" fill="url(#paint45_linear_2_5448)"/>
<rect x="137.131" y="115.564" width="9.11084" height="0.479518" fill="url(#paint46_linear_2_5448)"/>
<rect x="126.102" y="115.564" width="9.11084" height="0.479518" fill="url(#paint47_linear_2_5448)"/>
<path d="M19.1364 75.6766C19.1527 75.2837 19.7872 75.3099 19.7709 75.7028L19.519 78.0899C19.5193 78.4345 19.1571 78.4345 19.1571 78.0899L19.1364 75.6766Z" fill="#E4E4E3"/>
<path d="M41.5014 124.742C41.5014 125.958 40.5152 126.944 39.2985 126.944C38.0818 126.944 37.0956 125.958 37.0956 124.742C37.0956 123.525 38.0818 122.539 39.2985 122.539C40.5152 122.539 41.5014 123.525 41.5014 124.742Z" fill="#6F3885"/>
<path d="M40.6232 124.742C40.6232 125.473 40.0299 126.066 39.2985 126.066C38.5668 126.066 37.9738 125.473 37.9738 124.742C37.9738 124.01 38.5668 123.417 39.2985 123.417C40.0299 123.417 40.6232 124.01 40.6232 124.742Z" fill="#37213E"/>
<path d="M38.4273 124.501L39.1827 122.508C39.2233 122.402 39.3256 122.331 39.4397 122.331H42.0668C42.3066 122.331 42.4316 122.616 42.2685 122.792L39.9029 125.346C39.7057 125.558 39.4029 125.637 39.1274 125.547L38.8908 125.469C38.4883 125.338 38.277 124.897 38.4273 124.501Z" fill="#FCD8A0"/>
<path d="M39.8058 124.742C39.8058 125.022 39.5785 125.249 39.2985 125.249C39.0181 125.249 38.7911 125.022 38.7911 124.742C38.7911 124.461 39.0181 124.234 39.2985 124.234C39.5785 124.234 39.8058 124.461 39.8058 124.742Z" fill="#6F3885"/>
<path d="M54.2622 124.742C54.2622 125.958 55.2484 126.944 56.4654 126.944C57.6818 126.944 58.668 125.958 58.668 124.742C58.668 123.525 57.6818 122.539 56.4654 122.539C55.2484 122.539 54.2622 123.525 54.2622 124.742Z" fill="#6F3885"/>
<path d="M55.1405 124.742C55.1405 125.473 55.7335 126.066 56.4656 126.066C57.197 126.066 57.79 125.473 57.79 124.742C57.79 124.01 57.197 123.417 56.4656 123.417C55.7335 123.417 55.1405 124.01 55.1405 124.742Z" fill="#37213E"/>
<path d="M57.3363 124.501L56.5809 122.508C56.5403 122.402 56.4384 122.331 56.3239 122.331H53.6965C53.4567 122.331 53.3321 122.616 53.4951 122.792L55.8607 125.346C56.058 125.558 56.3604 125.637 56.6363 125.547L56.8728 125.469C57.2753 125.338 57.4866 124.897 57.3363 124.501Z" fill="#FCD8A0"/>
<path d="M55.9579 124.742C55.9579 125.022 56.1852 125.249 56.4655 125.249C56.7453 125.249 56.9725 125.022 56.9725 124.742C56.9725 124.461 56.7453 124.234 56.4655 124.234C56.1852 124.234 55.9579 124.461 55.9579 124.742Z" fill="#6F3885"/>
<path d="M33.5362 104.274C33.4097 104.274 33.2895 104.2 33.2364 104.077C32.4896 102.348 31.2457 99.5311 31.0226 99.1788C30.6889 98.9362 28.1746 98.0404 25.8972 97.3013C25.7626 97.2579 25.6715 97.1325 25.6715 96.9913C25.6715 96.8493 25.7626 96.7243 25.8972 96.6805L29.9437 95.3695C30.0048 95.35 30.069 95.3481 30.1304 95.3647C30.5175 95.4702 33.9333 96.4165 34.6679 97.0996C35.2516 97.6415 36.9728 101.231 37.312 101.945C37.3893 102.108 37.32 102.303 37.1572 102.38C36.9936 102.457 36.7995 102.388 36.7222 102.225C35.9581 100.616 34.6037 97.9308 34.2236 97.5775C33.769 97.1546 31.465 96.4107 30.0521 96.0207L27.0509 96.9932C29.141 97.6865 31.3027 98.4615 31.5341 98.7706C31.8052 99.1318 33.4988 103.039 33.8358 103.818C33.9071 103.983 33.831 104.175 33.6654 104.247C33.6232 104.265 33.5794 104.274 33.5362 104.274Z" fill="#FFC217"/>
<path d="M32.6517 102.621L36.3357 100.333L64.744 101.723L65.3955 103.504L32.6517 102.621Z" fill="white"/>
<path d="M32.6517 102.621L32.808 102.873L36.4133 100.634L64.5329 102.01L64.967 103.196L32.6596 102.324L32.6517 102.621L32.808 102.873L32.6517 102.621L32.6437 102.917L65.3874 103.801C65.4855 103.803 65.5789 103.757 65.6361 103.677C65.6933 103.598 65.7074 103.494 65.6738 103.402L65.0223 101.621C64.9814 101.51 64.8772 101.433 64.7583 101.427L36.35 100.037C36.2896 100.034 36.2308 100.049 36.1793 100.081L32.4953 102.369C32.3841 102.438 32.3313 102.572 32.3655 102.698C32.3998 102.824 32.5129 102.914 32.6437 102.917L32.6517 102.621Z" fill="#FFC217"/>
<path d="M32.3828 102.679L36.6819 116.858C36.8107 117.283 37.2087 117.569 37.6524 117.555L61.4327 116.819C61.8745 116.806 62.2533 116.498 62.3572 116.068L65.3954 103.504L32.3828 102.679Z" fill="#FFC217"/>
<path d="M38.777 108.61C40.3137 111.807 43.7126 112.451 46.9487 112.291C53.8962 111.946 59.9669 109.234 64.0355 103.47L38.739 102.838C38.3653 102.832 38.1815 105.259 38.1629 105.574C38.1016 106.622 38.3253 107.67 38.777 108.61Z" fill="#176CF7"/>
<path d="M61.3749 124.68C61.0846 123.518 60.4865 122.356 60.0533 121.768C59.8286 121.463 59.4603 121.113 58.5969 121.113H38.9053C38.5952 121.113 38.04 121.062 37.8047 120.717C37.5844 120.395 37.7107 119.884 37.8552 119.514C38.4357 118.026 38.9539 117.084 38.959 117.075L38.1896 117.139C38.1678 117.179 37.8446 117.744 37.2468 119.276C36.9534 120.029 36.9598 120.638 37.2657 121.086C37.57 121.531 38.1371 121.766 38.9053 121.766H39.9603V122.208C39.9603 122.482 40.1821 122.704 40.4564 122.704H40.8336C41.1076 122.704 41.3298 122.482 41.3298 122.208V121.766H54.35V122.208C54.35 122.482 54.5721 122.704 54.8461 122.704H55.2233C55.4973 122.704 55.7195 122.482 55.7195 122.208V121.766H58.5969C59.1912 121.766 59.3887 121.967 59.5275 122.155C59.9363 122.71 60.4849 123.81 60.7416 124.838C60.7995 125.069 60.7835 125.245 60.6946 125.361C60.5166 125.595 60.0661 125.623 59.9322 125.626C55.3694 125.728 45.5287 125.672 40.2419 125.642C38.6704 125.632 37.4799 125.626 36.9128 125.626C36.1113 125.626 35.5145 125.396 35.2329 124.98C34.9614 124.579 34.9691 123.99 35.2549 123.276C35.8847 121.708 37.7347 117.037 37.7347 117.037L37.1279 116.797C37.1279 116.797 35.2786 121.466 34.6494 123.034C34.1814 124.2 34.4145 124.935 34.6923 125.345C35.0992 125.947 35.8879 126.279 36.9128 126.279C37.2849 126.279 37.9293 126.281 38.7695 126.286V126.713C38.7695 126.987 38.9913 127.209 39.2656 127.209H39.6425C39.9165 127.209 40.139 126.987 40.139 126.713V126.393C40.177 126.354 40.1978 126.333 40.2361 126.294C43.2491 126.312 47.7396 126.337 51.8932 126.337C53.0207 126.337 54.1224 126.335 55.1635 126.331V126.713C55.1635 126.987 55.386 127.209 55.66 127.209H56.0372C56.3109 127.209 56.5331 126.987 56.5331 126.713V126.323C57.8373 126.314 59.0048 126.299 59.9469 126.279C60.2771 126.271 60.8813 126.193 61.2138 125.757C61.4292 125.475 61.4833 125.113 61.3749 124.68Z" fill="#FFC217"/>
<path d="M64.4438 103.239L61.4963 115.394C61.4155 115.728 61.1182 115.97 60.7739 115.98L49.6695 116.324C50.5307 115.394 51.3859 114.457 52.233 113.514C52.2953 113.444 52.3155 113.358 52.2765 113.318C52.2362 113.276 52.1477 113.299 52.0789 113.37C51.1646 114.314 50.2584 115.265 49.3597 116.223L49.3581 116.225C49.3255 116.261 49.3041 116.298 49.2881 116.335L39.4852 116.639C40.3998 115.652 41.3077 114.658 42.2076 113.658C42.2731 113.585 42.2955 113.496 42.2568 113.455C42.2165 113.413 42.1257 113.44 42.0535 113.514C41.097 114.503 40.1485 115.5 39.2074 116.503L39.2055 116.506C39.1623 116.552 39.1348 116.602 39.1192 116.65L38.233 116.677C37.8919 116.691 37.5751 116.464 37.4744 116.133L35.5176 109.681C36.0234 109.132 36.5221 108.578 37.0131 108.015C37.0486 107.974 37.0467 107.912 37.007 107.872C36.9658 107.832 36.8996 107.831 36.859 107.872C36.3725 108.361 35.8939 108.857 35.4201 109.358L33.3179 102.428L33.0056 102.522L37.1621 116.228C37.3021 116.689 37.7295 117.004 38.2093 117.004L38.2435 117.004L60.7838 116.307C61.2748 116.292 61.6984 115.948 61.8138 115.47L64.7612 103.316L64.4438 103.239Z" fill="white"/>
<path d="M37.2713 107.744C37.3592 107.69 37.4289 107.617 37.5002 107.547C37.5657 107.471 37.6329 107.396 37.6811 107.304C37.7 107.268 37.6997 107.223 37.6763 107.186C37.6409 107.13 37.5677 107.113 37.512 107.147C37.4241 107.202 37.3544 107.274 37.2835 107.344C37.2179 107.42 37.1508 107.495 37.1022 107.587C37.0833 107.623 37.0837 107.668 37.1073 107.706C37.1425 107.761 37.216 107.779 37.2713 107.744Z" fill="white"/>
<path d="M37.8772 107.094C37.9155 107.093 37.9353 107.074 37.9568 107.057C37.9724 107.035 37.99 107.013 37.9887 106.975V106.972C37.9839 106.883 37.9082 106.814 37.8196 106.817C37.7813 106.819 37.7614 106.838 37.74 106.855C37.7243 106.878 37.7071 106.898 37.708 106.937L37.7084 106.941C37.7132 107.029 37.7889 107.098 37.8772 107.094Z" fill="white"/>
<path d="M40.5947 104.174C41.2574 103.5 41.9127 102.818 42.5604 102.129L42.5614 102.128C42.616 102.069 42.6115 101.976 42.5515 101.921C42.4914 101.865 42.3983 101.868 42.3437 101.927C41.7014 102.621 41.0672 103.322 40.4406 104.031C40.4042 104.072 40.4064 104.135 40.4467 104.174C40.4882 104.215 40.5544 104.215 40.5947 104.174Z" fill="white"/>
<path d="M40.2528 104.556C40.2912 104.555 40.311 104.536 40.3324 104.519C40.3481 104.496 40.3653 104.475 40.3644 104.437L40.364 104.433C40.3592 104.344 40.2835 104.275 40.1953 104.279C40.1569 104.281 40.1371 104.299 40.1157 104.317C40.0997 104.339 40.0824 104.36 40.0837 104.399V104.402C40.0885 104.491 40.1639 104.56 40.2528 104.556Z" fill="white"/>
<path d="M39.8918 104.944C39.9302 104.942 39.95 104.923 39.9714 104.906C39.9871 104.883 40.0044 104.862 40.0034 104.824L40.0031 104.819C39.9983 104.731 39.9225 104.663 39.8343 104.666C39.7959 104.667 39.7761 104.686 39.7547 104.704C39.7387 104.726 39.7214 104.747 39.7227 104.786V104.789C39.7275 104.878 39.803 104.946 39.8918 104.944Z" fill="white"/>
<path d="M39.5309 105.33C39.5692 105.329 39.5891 105.31 39.6105 105.293C39.6261 105.27 39.6434 105.249 39.6424 105.211V105.207C39.6373 105.118 39.5619 105.05 39.4733 105.053C39.435 105.054 39.4151 105.073 39.3937 105.091C39.3777 105.113 39.3605 105.134 39.3618 105.173L39.3621 105.176C39.3666 105.265 39.4423 105.334 39.5309 105.33Z" fill="white"/>
<path d="M38.2924 106.659C38.4631 106.515 38.615 106.355 38.7684 106.196C38.9164 106.031 39.0657 105.869 39.1965 105.689C39.2272 105.647 39.2259 105.588 39.1904 105.546C39.1492 105.497 39.0763 105.491 39.0277 105.531C38.857 105.674 38.7051 105.835 38.5517 105.994C38.4037 106.158 38.2544 106.321 38.1233 106.501C38.0929 106.543 38.0942 106.601 38.1294 106.643C38.1709 106.692 38.2438 106.699 38.2924 106.659Z" fill="white"/>
<path d="M42.4626 113.176C42.4885 113.241 42.5825 113.236 42.6726 113.165C42.8162 113.05 42.9408 112.919 43.0674 112.789C43.1886 112.654 43.311 112.52 43.4149 112.368C43.4555 112.309 43.4734 112.244 43.4558 112.2C43.43 112.135 43.336 112.139 43.2458 112.211C43.1023 112.325 42.9776 112.457 42.851 112.587C42.7299 112.722 42.6074 112.856 42.5035 113.007C42.4626 113.067 42.445 113.131 42.4626 113.176Z" fill="white"/>
<path d="M43.7695 111.988C43.8232 111.97 43.858 111.936 43.8945 111.902C43.9252 111.863 43.9581 111.826 43.9715 111.771L43.9728 111.767C44.0022 111.642 43.9258 111.573 43.8027 111.614C43.749 111.632 43.7142 111.666 43.6777 111.7C43.6467 111.739 43.6144 111.776 43.6007 111.831L43.5991 111.836C43.5703 111.961 43.6464 112.029 43.7695 111.988Z" fill="white"/>
<path d="M48.6922 106.703C49.8778 105.468 51.0559 104.226 52.2262 102.976L52.2278 102.975C52.3269 102.868 52.3586 102.736 52.2981 102.681C52.238 102.625 52.1089 102.667 52.0095 102.774C50.8446 104.029 49.6873 105.291 48.5381 106.56C48.4716 106.633 48.4489 106.723 48.4882 106.763C48.5291 106.805 48.6202 106.778 48.6922 106.703Z" fill="white"/>
<path d="M48.067 107.389C48.1204 107.371 48.1552 107.336 48.1916 107.303C48.2226 107.264 48.2549 107.227 48.269 107.172L48.2703 107.167C48.2994 107.042 48.223 106.974 48.0999 107.014C48.0465 107.032 48.0117 107.067 47.9749 107.101C47.9442 107.139 47.9116 107.177 47.8979 107.231L47.8966 107.236C47.8675 107.361 47.9436 107.429 48.067 107.389Z" fill="white"/>
<path d="M47.4135 108.09C47.4669 108.072 47.5018 108.037 47.5382 108.004C47.5692 107.965 47.6015 107.928 47.6156 107.873L47.6168 107.867C47.6459 107.743 47.5695 107.675 47.4465 107.715C47.3931 107.733 47.3582 107.768 47.3215 107.801C47.2908 107.84 47.2582 107.877 47.2444 107.932L47.2431 107.937C47.214 108.062 47.2901 108.13 47.4135 108.09Z" fill="white"/>
<path d="M46.7601 108.791C46.8135 108.773 46.8486 108.738 46.8848 108.704C46.9158 108.666 46.9484 108.628 46.9621 108.574L46.9634 108.568C46.9925 108.443 46.9161 108.375 46.793 108.416C46.7396 108.434 46.7048 108.469 46.6683 108.503C46.6373 108.541 46.6047 108.578 46.591 108.633L46.5897 108.637C46.5606 108.762 46.6367 108.831 46.7601 108.791Z" fill="white"/>
<path d="M44.5176 111.195C44.8107 110.921 45.0847 110.63 45.3602 110.34C45.6304 110.044 45.9021 109.75 46.1553 109.439C46.2138 109.367 46.2358 109.283 46.2042 109.237C46.1668 109.184 46.0693 109.204 45.9862 109.282C45.6933 109.556 45.4194 109.847 45.1435 110.137C44.8734 110.433 44.6016 110.727 44.3488 111.038C44.2903 111.11 44.2679 111.194 44.2995 111.239C44.3369 111.293 44.4345 111.273 44.5176 111.195Z" fill="white"/>
<path d="M52.677 113.043C52.8151 112.935 52.9343 112.81 53.0555 112.685C53.1706 112.556 53.2876 112.428 53.386 112.283C53.4244 112.226 53.4404 112.163 53.4222 112.12C53.3953 112.055 53.3032 112.058 53.2169 112.125C53.0788 112.233 52.9596 112.359 52.8384 112.483C52.7233 112.613 52.6063 112.74 52.5082 112.886C52.4695 112.943 52.4535 113.005 52.4714 113.049C52.4986 113.114 52.5907 113.111 52.677 113.043Z" fill="white"/>
<path d="M53.7246 111.92C53.7764 111.904 53.8097 111.871 53.8448 111.839C53.8743 111.802 53.9053 111.766 53.9174 111.713L53.9184 111.709C53.9443 111.587 53.8682 111.519 53.7483 111.555C53.6965 111.571 53.6629 111.605 53.6281 111.637C53.5987 111.674 53.568 111.71 53.5555 111.762L53.5542 111.768C53.5287 111.889 53.6051 111.957 53.7246 111.92Z" fill="white"/>
<path d="M58.4242 106.874C59.5575 105.695 60.683 104.509 61.8006 103.316L61.8019 103.314C61.8969 103.212 61.9247 103.085 61.8643 103.029C61.8042 102.974 61.6785 103.012 61.5836 103.114C60.4717 104.312 59.3672 105.518 58.2704 106.73C58.2071 106.8 58.187 106.887 58.2263 106.928C58.2672 106.969 58.3561 106.945 58.4242 106.874Z" fill="white"/>
<path d="M57.8277 107.529C57.8798 107.513 57.9133 107.479 57.9482 107.448C57.9776 107.411 58.0086 107.375 58.0207 107.322L58.022 107.316C58.0476 107.195 57.9712 107.127 57.8516 107.164C57.7998 107.18 57.7663 107.214 57.7311 107.245C57.702 107.282 57.671 107.318 57.6589 107.371L57.6579 107.375C57.632 107.497 57.7078 107.566 57.8277 107.529Z" fill="white"/>
<path d="M57.2039 108.198C57.2557 108.182 57.2893 108.148 57.3241 108.117C57.3535 108.079 57.3846 108.044 57.397 107.991L57.398 107.985C57.4239 107.864 57.3472 107.796 57.2276 107.833C57.1758 107.849 57.1426 107.883 57.1074 107.915C57.0783 107.952 57.0473 107.987 57.0348 108.04L57.0339 108.044C57.008 108.166 57.0841 108.235 57.2039 108.198Z" fill="white"/>
<path d="M56.58 108.867C56.6321 108.851 56.6653 108.818 56.7005 108.785C56.7299 108.748 56.7606 108.713 56.7727 108.66L56.774 108.654C56.7996 108.533 56.7235 108.465 56.604 108.502C56.5522 108.518 56.5186 108.552 56.4834 108.583C56.454 108.621 56.4233 108.656 56.4112 108.709L56.4102 108.714C56.3843 108.835 56.4601 108.903 56.58 108.867Z" fill="white"/>
<path d="M54.4391 111.163C54.7195 110.902 54.9813 110.624 55.2447 110.347C55.5023 110.065 55.7616 109.784 56.0023 109.487C56.0583 109.417 56.0784 109.336 56.0461 109.291C56.0084 109.237 55.9131 109.254 55.8335 109.329C55.5532 109.59 55.2914 109.868 55.0276 110.145C54.7703 110.427 54.5107 110.707 54.27 111.006C54.2144 111.074 54.1942 111.156 54.2265 111.201C54.2642 111.254 54.3595 111.237 54.4391 111.163Z" fill="white"/>
<path d="M41.0181 125.646L42.1763 121.548H54.4538L55.1229 125.646H41.0181Z" fill="#176CF7"/>
<path d="M39.3825 129.693C39.3825 130.552 38.6859 131.249 37.8263 131.249C36.9667 131.249 36.2698 130.552 36.2698 129.693C36.2698 128.833 36.9667 128.136 37.8263 128.136C38.6859 128.136 39.3825 128.833 39.3825 129.693Z" fill="#37213E"/>
<path d="M36.803 129.409L37.6905 127.068C37.7381 126.943 37.8583 126.86 37.9923 126.86H41.0794C41.361 126.86 41.5074 127.196 41.316 127.403L38.5367 130.402C38.3049 130.652 37.9494 130.744 37.6256 130.639L37.3475 130.548C36.8747 130.393 36.6266 129.875 36.803 129.409Z" fill="#FCD8A0"/>
<path d="M38.4225 129.693C38.4225 130.022 38.1556 130.289 37.8263 130.289C37.497 130.289 37.2301 130.022 37.2301 129.693C37.2301 129.363 37.497 129.096 37.8263 129.096C38.1556 129.096 38.4225 129.363 38.4225 129.693Z" fill="#6F3885"/>
<path d="M56.0449 129.693C56.0449 130.552 56.7418 131.249 57.6011 131.249C58.4611 131.249 59.1576 130.552 59.1576 129.693C59.1576 128.833 58.4611 128.136 57.6011 128.136C56.7418 128.136 56.0449 128.833 56.0449 129.693Z" fill="#37213E"/>
<path d="M58.6243 129.409L57.7369 127.068C57.6896 126.943 57.5694 126.86 57.4351 126.86H54.3483C54.0667 126.86 53.9199 127.196 54.1114 127.403L56.8913 130.402C57.1225 130.652 57.4783 130.744 57.8021 130.639L58.0799 130.548C58.553 130.393 58.8011 129.875 58.6243 129.409Z" fill="#FCD8A0"/>
<path d="M57.0051 129.693C57.0051 130.022 57.2721 130.289 57.601 130.289C57.9306 130.289 58.1972 130.022 58.1972 129.693C58.1972 129.363 57.9306 129.096 57.601 129.096C57.2721 129.096 57.0051 129.363 57.0051 129.693Z" fill="#6F3885"/>
<path d="M70.2622 102.349C70.2622 105.585 67.6402 108.207 64.4051 108.207C61.1706 108.207 58.5486 105.585 58.5486 102.349C58.5486 99.1149 61.1706 96.4928 64.4051 96.4928C67.6402 96.4928 70.2622 99.1149 70.2622 102.349Z" fill="#FBD03E"/>
<path d="M65.4926 99.2299V104.397H66.4743C66.6674 104.397 66.7499 104.534 66.7499 104.855V105.012C66.7499 105.333 66.6674 105.47 66.4743 105.47H62.9141C62.7213 105.47 62.6388 105.333 62.6388 105.012V104.855C62.6388 104.534 62.7213 104.397 62.9141 104.397H64.1346V100.276L62.8866 100.459C62.6478 100.459 62.5928 99.9457 62.5928 99.6887C62.5928 99.5512 62.6753 99.4591 62.8316 99.432L65.1163 99.0097C65.2634 99.0097 65.4926 99.1196 65.4926 99.2299Z" fill="#176CF7"/>
<path d="M40.9409 97.94V102.554L51.8362 102.838V97.4679L40.9409 97.94Z" fill="#FAB63E"/>
<path d="M51.8362 97.4678V102.838L57.0287 103.004V98.4064L51.8362 97.4678Z" fill="#F68530"/>
<path d="M40.6232 97.067L52.0897 96.5993V98.0992L40.6232 98.5762V97.067Z" fill="#FBD03E"/>
<path d="M52.0897 98.0992L57.4063 99.0096V97.5877L52.0897 96.5993V98.0992Z" fill="#FAB63E"/>
<path d="M15.757 130.556C7.05468 130.556 0 130.15 0 129.649C0 129.148 7.05468 128.743 15.757 128.743C24.4596 128.743 31.5143 129.148 31.5143 129.649C31.5143 130.15 24.4596 130.556 15.757 130.556Z" fill="#B4CEFF"/>
<path d="M23.3661 119.247C23.6205 121.78 25.7493 125.486 26.5756 127.552C26.8189 128.161 27.9713 127.821 27.8409 127.178C27.3972 124.99 27.0929 120.557 26.8899 118.295C26.6514 115.633 23.1237 116.836 23.3661 119.247Z" fill="#F8A35E"/>
<path d="M26.6071 127.543C26.6071 127.543 26.361 128.239 26.7807 129.177C26.7046 129.211 26.7619 129.523 26.899 129.589C27.0604 129.668 28.2282 129.648 28.4654 129.463C28.5175 129.375 28.4577 129.254 28.4577 129.254C28.4577 129.254 28.7499 129.364 29.5808 129.208C30.4116 129.051 30.8569 128.81 31.1798 128.605C31.2776 128.543 31.2102 128.322 31.0999 128.357C31.0999 128.357 31.0286 127.781 30.5462 127.812C29.5578 127.876 28.8494 127.474 28.3436 127.168C28.0933 127.017 27.8411 126.891 27.6864 126.882C27.288 126.861 26.7714 127.096 26.6071 127.543Z" fill="#176CF7"/>
<path d="M26.7809 129.177C27.4822 129.257 28.4611 129.15 28.4611 129.15C28.4611 129.15 30.3545 129.118 31.1 128.357C31.8455 127.597 32.49 128.407 32.49 128.407L29.3914 130.875L27.3675 130.716L26.4634 129.953C26.4634 129.953 26.3889 129.132 26.7809 129.177Z" fill="#FFC217"/>
<path d="M26.4582 127.598C26.4582 127.598 26.7296 128.071 27.2872 127.953C27.8444 127.835 27.9009 127.493 27.7747 126.897C27.6484 126.301 25.8729 126.695 26.4582 127.598Z" fill="#F8A35E"/>
<path d="M15.0803 101.122C15.0803 101.122 18.7208 107.671 19.9238 110.348C21.1264 113.024 22.6481 119.635 22.6481 119.635C22.6481 119.635 25.6419 120.264 27.2102 118.86C27.2102 118.86 26.7077 111.885 25.8535 108.753C24.999 105.621 21.753 97.9324 21.753 97.9324C20.4493 95.172 13.7767 98.3614 15.0803 101.122Z" fill="#00256B"/>
<path d="M18.0586 106.245C18.1011 106.203 18.3495 105.051 19.087 103.76C19.7289 102.637 21.2784 101.755 21.4485 101.893C21.741 102.128 19.4291 103.844 18.9812 105.084C18.9812 105.084 21.5549 103.212 21.7339 103.459C21.9011 103.69 19.071 105.234 18.0586 106.245Z" fill="#00153D"/>
<path d="M17.6747 84.978C18.2757 87.7464 19.2079 91.4349 21.2625 93.2356C23.317 95.0364 27.7778 96.0354 27.9901 96.0354C28.4869 96.1501 29.0191 93.5281 28.6256 93.2248C28.2318 92.9217 24.7227 91.5052 24.0999 90.9045C22.9865 89.8301 23.4609 83.2904 22.2001 81.8634C20.9393 80.4366 16.9743 81.7512 17.6747 84.978Z" fill="#176CF7"/>
<path d="M28.8888 93.6976C28.8888 93.6976 30.4527 94.9971 30.5454 95.351C30.6384 95.7048 30.6007 96.2883 30.4728 96.4359C30.3453 96.584 29.3898 97.0625 29.0247 96.8119C28.6596 96.5613 28.1568 95.99 28.1568 95.99L28.3291 95.3503C28.3291 95.3503 28.2117 95.7886 27.2642 95.1946C26.317 94.6003 27.9886 92.7996 28.8888 93.6976Z" fill="#FFB97F"/>
<path d="M7.09498 117.367C5.20888 119.077 3.4922 122.99 2.32026 124.883C1.97533 125.44 2.9334 126.165 3.37296 125.679C4.87033 124.021 8.25542 121.143 9.95419 119.637C11.9538 117.863 8.8903 115.74 7.09498 117.367Z" fill="#F8A35E"/>
<path d="M2.53153 124.692C2.53153 124.692 1.81416 124.865 1.25633 125.728C1.18632 125.683 0.955826 125.901 0.975007 126.052C0.997704 126.23 1.65049 127.199 1.935 127.297C2.03762 127.292 2.10635 127.176 2.10635 127.176C2.10635 127.176 2.17284 127.481 2.75722 128.092C3.34159 128.703 3.78626 128.945 4.13375 129.105C4.23893 129.153 4.3879 128.975 4.29775 128.902C4.29775 128.902 4.74242 128.528 4.45311 128.141C3.86107 127.347 3.81184 126.534 3.79234 125.943C3.78275 125.651 3.7511 125.371 3.67342 125.236C3.47426 124.891 2.99634 124.586 2.53153 124.692Z" fill="#176CF7"/>
<path d="M1.25643 125.728C1.57131 126.36 2.19469 127.123 2.19469 127.123C2.19469 127.123 3.25443 128.692 4.29786 128.902C5.34161 129.113 5.01425 130.095 5.01425 130.095L1.25643 128.842L0.285889 127.059L0.432296 125.885C0.432296 125.885 1.08061 125.375 1.25643 125.728Z" fill="#FFC217"/>
<path d="M2.40419 124.597C2.40419 124.597 2.15547 125.083 2.55827 125.486C2.96074 125.888 3.27882 125.749 3.70943 125.319C4.14004 124.888 2.84247 123.614 2.40419 124.597Z" fill="#F8A35E"/>
<path d="M11.2246 98.6644C11.2246 98.6644 11.7291 108.268 10.6511 110.783C9.57317 113.298 6.77246 117.392 6.77246 117.392C6.77246 117.392 7.54065 119.775 10.3807 120.117C10.3807 120.117 14.6631 117.101 16.3433 112.533C18.0235 107.965 19.4321 102.937 18.7515 99.2117C18.3694 97.1197 11.7652 95.6048 11.2246 98.6644Z" fill="#002D84"/>
<path d="M12.3966 98.5768C12.3966 98.5781 12.4004 99.0621 12.4004 99.8402C12.4004 102.218 12.3653 107.336 12.0849 109.657C11.91 111.128 10.671 113.261 9.47377 115.012C8.87565 115.889 8.2884 116.673 7.85076 117.236C7.6321 117.518 7.45052 117.746 7.32393 117.902C7.19734 118.059 7.12605 118.144 7.12573 118.145L7.24817 118.247C7.24913 118.246 8.40413 116.863 9.60548 115.102C10.8065 113.34 12.0561 111.209 12.2432 109.676C12.5254 107.335 12.5596 102.222 12.5596 99.8402C12.5596 99.0614 12.5561 98.5755 12.5561 98.5755L12.3966 98.5768Z" fill="white"/>
<path d="M21.9748 82.0827C22.7145 83.5548 21.3949 89.1419 21.3949 91.5826C21.3949 93.5675 21.7206 96.8861 22.0147 98.1389C22.093 98.4727 21.9444 98.8154 21.6487 98.9893C20.5071 99.6606 18.9867 100.014 18.0488 100.104C14.4342 100.452 12.6881 99.8185 11.8665 99.5071C11.4231 99.339 11.1575 98.8882 11.2275 98.4193C11.41 97.1984 11.9247 94.2126 11.4842 91.4663C10.9072 87.8718 9.96571 82.9829 11.652 81.4741C13.3383 79.9655 16.4958 79.026 16.4958 79.026C16.4958 79.026 21.0611 80.265 21.9748 82.0827Z" fill="white"/>
<path d="M17.2591 77.496C17.2591 77.496 16.4481 77.3607 15.336 75.9791C14.6074 75.0731 13.5934 70.9755 16.8074 70.3553C20.0215 69.7351 20.9681 71.9076 21.1148 73.328C21.2618 74.7486 19.6676 75.9196 18.9458 76.4321C18.2239 76.9448 17.2591 77.496 17.2591 77.496Z" fill="#37213E"/>
<path d="M16.4756 75.8451C16.4756 75.8451 16.3778 77.0864 16.0114 78.0547C15.6451 79.0233 15.2522 79.3206 14.7893 79.7321C14.3267 80.1438 16.6361 82.5964 18.6919 83.2185C18.6919 83.2185 20.1832 81.4024 19.4994 80.39C18.8156 79.3776 18.2741 79.288 18.519 77.9361C18.7322 76.7578 18.8597 76.1044 18.8597 76.1044L16.4756 75.8451Z" fill="#FFC89A"/>
<path fill-rule="evenodd" clip-rule="evenodd" d="M16.4757 75.8451C16.4757 75.8451 16.3721 76.7626 16.742 77.1561C17.1118 77.5493 17.7736 78.4994 19.2831 78.3888C21.299 78.2414 20.5161 75.0424 20.5161 75.0424C20.5161 75.0424 20.7267 73.8116 20.5158 72.8005C20.3051 71.7897 18.309 71.26 16.6838 71.7548C16.6838 71.7548 16.217 72.1992 16.3961 74.1857C16.3961 74.1857 16.0962 73.8251 15.6247 74.0821C15.2669 74.2771 15.2289 74.7387 15.3507 75.1738C15.4962 75.6958 16.0406 76.1456 16.4757 75.8451Z" fill="#FFC89A"/>
<path d="M16.3075 75.653L16.1301 75.1808L16.4328 75.0555C16.4328 75.0555 16.2362 74.1728 15.7442 74.498C15.3398 74.7655 15.8021 75.8326 16.3075 75.653Z" fill="#FFB576"/>
<path d="M16.5217 74.95C16.5217 74.95 16.3231 76.191 16.3532 76.7447C16.3832 77.2984 16.9293 79.0218 19.4538 78.8683C21.961 78.7155 21.063 75.9983 20.6385 75.8119C20.6542 75.9925 20.5643 76.2837 20.3882 76.4113C20.2865 76.1575 19.9905 75.9765 19.5797 76.0632C19.2207 75.8602 18.809 75.9861 18.3758 76.2444L18.0638 76.4631C17.2835 76.2706 16.8791 75.7579 16.7809 74.9836L16.5217 74.95Z" fill="#37213E"/>
<path d="M18.6929 76.5103C18.6929 76.5103 20.0183 76.5103 20.0496 76.6005C20.0812 76.6903 19.892 76.8706 19.3712 76.8706C18.8505 76.8706 18.6929 76.5103 18.6929 76.5103Z" fill="white"/>
<path d="M18.7297 76.5343L18.7348 76.4959L18.7368 76.5007L18.7416 76.5097L18.7515 76.5279L18.7748 76.564L18.8298 76.6312C18.8694 76.674 18.9164 76.7098 18.9666 76.7405C19.0686 76.8003 19.1869 76.8307 19.3064 76.839C19.5417 76.8463 19.8122 76.8364 19.9957 76.6887C20.1149 76.5711 19.9062 76.5909 19.8019 76.5714C19.6795 76.5615 19.5561 76.557 19.433 76.5532L19.0632 76.5471L18.8777 76.55L18.7854 76.5519L18.739 76.5532C18.7281 76.5458 18.6907 76.5717 18.7297 76.5343ZM18.6559 76.486C18.7256 76.4486 18.7192 76.4749 18.7393 76.4678L18.7857 76.4694L18.8787 76.4729L19.0641 76.4812L19.4353 76.4953C19.559 76.5017 19.6827 76.5087 19.8064 76.5215C19.8684 76.5282 19.9301 76.5356 19.9931 76.5497L20.0423 76.5663L20.0749 76.6238C20.0717 76.6651 20.0487 76.6941 20.0257 76.7184C19.8189 76.8892 19.5494 76.8965 19.3029 76.8962C19.1763 76.8904 19.0481 76.8604 18.9346 76.7977C18.8774 76.768 18.8231 76.7309 18.7754 76.6858L18.7086 76.6136L18.6792 76.5733L18.6658 76.5519L18.6591 76.5407L18.6559 76.5349V76.486Z" fill="#176CF7"/>
<path d="M18.8659 74.873C18.8566 74.9849 18.7099 74.9929 18.5305 74.9779C18.3512 74.9631 18.2077 74.9305 18.2173 74.8187C18.2265 74.7068 18.3793 74.6284 18.5583 74.6435C18.7377 74.6582 18.8755 74.7611 18.8659 74.873Z" fill="#37213E"/>
<path d="M17.6792 74.3385C17.6738 74.3551 18.1895 74.1767 18.3528 74.1786C18.5165 74.1806 19.1331 74.279 19.1849 74.2189C19.2367 74.1591 19.2773 73.952 19.2773 73.952C19.2773 73.952 18.4372 73.8701 18.2639 73.9139C18.0907 73.9581 17.7262 74.1962 17.6792 74.3385Z" fill="#37213E"/>
<path d="M20.5084 75.0104C20.4991 75.1223 20.3521 75.1303 20.1727 75.1153C19.9937 75.1002 19.8502 75.0679 19.8594 74.9561C19.8687 74.8442 20.0218 74.7655 20.2008 74.7806C20.3802 74.7956 20.5176 74.8985 20.5084 75.0104Z" fill="#37213E"/>
<path d="M20.7369 74.5942C20.7385 74.6114 20.5157 74.3279 20.4048 74.3068C20.2935 74.286 19.7587 74.3314 19.7322 74.2649C19.7053 74.1981 19.7069 73.9881 19.7069 73.9881C19.7069 73.9881 20.4211 74.0421 20.5323 74.1099C20.6436 74.1773 20.7251 74.4471 20.7369 74.5942Z" fill="#37213E"/>
<path d="M19.5858 75.9669C19.5858 75.9669 19.1715 75.9529 19.1811 75.8394C19.1884 75.7515 19.7114 75.6568 19.9681 75.6568C20.0426 75.6568 20.0947 75.6645 20.1056 75.683C20.1532 75.7649 19.7722 75.9148 19.5858 75.9669Z" fill="#F38751"/>
<path d="M19.6574 74.2438C19.6574 74.2438 19.5359 74.763 19.5982 74.95C19.6606 75.1367 20.0407 75.558 20.049 75.6472C20.057 75.7361 19.6181 75.9538 19.5858 75.9669C19.5538 75.9797 20.2114 75.879 20.1919 75.6747C20.1727 75.4704 19.6836 74.958 19.6663 74.8579C19.6488 74.7579 19.6574 74.2438 19.6574 74.2438Z" fill="#FFB576"/>
<path d="M16.7019 75.1025C16.8307 75.0155 17.042 74.2662 16.8173 73.5453C16.6159 72.8996 17.1254 72.422 17.4844 72.3827C17.8956 72.3379 19.2286 72.7161 19.7558 72.6515C20.9114 72.5096 21.8068 72.1685 21.8049 71.9552C21.803 71.7417 20.9571 71.9632 20.9571 71.9632C20.9571 71.9632 22.2454 71.6346 22.1287 70.5566C22.1287 70.5566 21.1604 70.6276 20.2951 70.3313C19.43 70.0349 17.3591 69.691 16.2575 70.509C15.5366 71.0442 15.0248 72.789 15.9797 73.6764C16.4148 74.0805 16.4557 75.269 16.7019 75.1025Z" fill="#37213E"/>
<path d="M21.6946 99.8137C21.3769 99.7168 21.1023 99.5678 20.8657 99.3802C21.1032 99.2792 21.3347 99.167 21.5537 99.0439C21.6387 99.5272 21.6946 99.8137 21.6946 99.8137Z" fill="#382243"/>
<path d="M20.8658 99.3802C19.2441 98.0938 19.3831 94.9702 19.2773 94.0722C19.1561 93.0425 19.707 82.107 19.707 82.107C19.707 82.107 20.8949 87.2544 20.737 90.6814C20.6145 93.3405 21.2587 97.371 21.5537 99.0439C21.3348 99.1669 21.1033 99.2791 20.8658 99.3802Z" fill="#BDC4C3"/>
<path d="M18.9093 79.6317C18.9093 79.6317 19.9831 83.0561 19.9236 87.5204C19.8639 91.9847 19.6826 101.142 22.9865 100.929C22.9865 100.929 21.594 95.3033 21.679 93.2599C21.764 91.2162 22.8704 83.7056 22.4638 82.4186C21.8753 80.5543 18.9093 79.6317 18.9093 79.6317Z" fill="#FFC217"/>
<path d="M15.1177 79.4706C15.1177 79.4706 17.3452 82.956 18.0587 88.8634C18.3992 91.6797 18.0175 96.1421 17.5923 98.9921C17.1032 102.272 10.6815 102.267 10.2694 101.407C9.85768 100.547 11.6968 95.098 11.1236 92.0016C10.5501 88.9059 10.2119 83.8505 10.8963 82.1878C11.5811 80.5252 15.1177 79.4706 15.1177 79.4706Z" fill="#FFC217"/>
<path d="M11.8179 85.4064C11.8182 85.407 11.8783 85.6967 11.9688 86.1775C12.2399 87.6199 12.7824 90.7786 12.782 92.924C12.782 93.1065 12.7782 93.2814 12.7699 93.4473C12.7005 94.8372 12.4435 96.9436 12.2037 98.7002C12.0842 99.579 11.9685 100.371 11.8831 100.942C11.7977 101.514 11.7421 101.865 11.7421 101.866C11.7351 101.909 11.7648 101.95 11.8083 101.957C11.8518 101.964 11.8927 101.934 11.8994 101.891C11.8997 101.889 12.7888 96.2541 12.9291 93.4553C12.9374 93.2862 12.9416 93.1087 12.9416 92.924C12.9409 90.0328 11.9742 85.3767 11.9742 85.3741C11.9653 85.331 11.9231 85.3032 11.8799 85.3121C11.8367 85.3211 11.8093 85.3632 11.8179 85.4064Z" fill="white"/>
<path d="M11.1268 82.6118C10.9896 82.9452 10.8953 83.4212 10.8362 83.9902C11.4381 88.5875 14.024 93.7398 17.9954 95.5894C18.1265 94.0959 18.2054 92.5192 18.184 91.105C15.523 88.4548 13.4886 85.0097 11.9308 81.614C11.5695 81.9133 11.277 82.247 11.1268 82.6118Z" fill="#176CF7"/>
<path d="M26.681 94.6154C26.681 94.6154 28.6608 95.0783 28.9022 95.3535C29.1435 95.6284 29.5485 96.5693 29.5003 96.7591C29.4523 96.9487 28.4054 97.3621 27.9671 97.301C27.5282 97.2399 27.0509 96.9931 27.0509 96.9931C27.1164 96.7595 27.0988 96.5498 26.8556 96.4743C26.5989 96.3944 26.3259 96.5331 25.878 96.7345C24.8582 97.1936 25.4746 94.2145 26.681 94.6154Z" fill="#FFC89A"/>
<path d="M10.8064 85.0333C11.3387 87.9836 15.1115 92.3843 16.7259 93.7695C18.1415 94.9837 25.1299 97.0446 25.4381 97.0609C26.1542 97.2131 27.0653 94.6355 26.509 94.3027C25.9528 93.97 19.7239 91.1034 19.0493 90.3534C18.3745 89.6035 15.9008 82.9414 14.1439 81.42C12.3869 79.8987 10.2054 81.7036 10.8064 85.0333Z" fill="#176CF7"/>
<path d="M242.094 83.9833H248.993V80.7603H242.094V83.9833Z" fill="#FFC217"/>
<path d="M241.838 81.72H249.248V80.7603H241.838V81.72Z" fill="#FFC217"/>
<path d="M240.38 90.4229H250.703V83.9766H240.38V90.4229Z" fill="#FFC217"/>
<path d="M240 85.8965H251.086V83.9766H240V85.8965Z" fill="#342C3B"/>
<path d="M251.95 78.4033C252.423 78.9161 254.363 79.7856 257.116 80.5864C257.419 80.2373 257.713 80.0756 257.924 79.9924C258.254 79.8604 258.407 79.9132 258.589 79.7364C258.772 79.5621 258.819 79.3246 258.896 78.9413C258.96 78.6309 258.922 78.6258 258.973 78.3518C259.094 77.7048 259.321 77.6575 259.283 77.3266C259.245 77.0124 259.037 77.0274 258.82 76.506C258.647 76.0901 258.762 76.0377 258.615 75.7701C258.362 75.304 257.832 75.1151 257.486 74.9936C257.029 74.8309 256.953 74.9223 256.515 74.7628C255.952 74.5589 255.933 74.3594 255.514 74.173C254.724 73.8239 253.689 74.0419 253.052 74.4809C252.758 74.6839 252.762 74.7887 252.311 75.0962C251.815 75.4325 251.617 75.4229 251.413 75.7113C251.218 75.984 251.09 76.4194 251.259 76.6601C251.358 76.802 251.496 76.7832 251.566 76.9417C251.646 77.1249 251.518 77.2835 251.489 77.4801C251.435 77.8416 251.732 78.1661 251.95 78.4033Z" fill="#342C3B"/>
<path d="M266.905 121.583L268.763 123.637C268.763 123.637 269.024 124.779 268.763 125.007C268.502 125.235 266.905 124.811 266.905 124.811L265.307 123.329L266.905 121.583Z" fill="#FDBFC3"/>
<path d="M251.154 123.474L250.665 126.409C250.665 126.409 250.012 126.996 249.491 126.898C248.97 126.8 248.708 125.92 248.708 125.92V123.329L251.154 123.474Z" fill="#FDBFC3"/>
<path d="M261.576 99.7118C261.048 104.143 260.52 108.575 259.993 113.007C262.481 115.926 264.971 118.846 267.461 121.765L265.521 123.899C265.521 123.899 255.949 115.427 255.757 114.716C255.562 114.004 254.849 100.747 254.849 100.747L261.576 99.7118Z" fill="#659EFD"/>
<path d="M261.576 99.7118C261.576 99.7118 260.936 103.398 257.861 106.696C254.785 109.995 252.327 112.582 252.327 112.582L251.294 123.899H248.449C248.449 123.899 247.864 112.517 248.19 111.224C248.513 109.93 255.108 100.229 255.108 100.229L261.576 99.7118Z" fill="#659EFD"/>
<path d="M256.796 79.0449L257.86 84.1744L254.328 85.1239V79.6145L256.796 79.0449Z" fill="#FDBFC3"/>
<path d="M256.796 79.0449L257.116 80.5864C256.486 81.5659 255.511 82.4201 254.328 82.4754V79.6146L256.796 79.0449Z" fill="#02488F"/>
<path d="M257.678 83.2889C258.043 83.5063 258.586 83.8749 259.12 84.449C259.929 85.3224 260.463 86.3952 261.233 91.6674C261.609 94.2561 261.497 94.8575 261.87 97.9101C262.036 99.2668 262.195 100.377 262.303 101.103C261.733 101.509 260.833 102.036 259.625 102.33C259.117 102.454 257.694 102.746 255.946 102.33C255.041 102.116 254.341 101.782 253.88 101.523C253.724 98.6879 253.334 96.413 253.184 94.821C252.861 91.3851 252.586 87.7798 252.781 87.1008C253.168 85.7428 254.328 83.9964 254.328 83.9964C254.328 83.9964 254.36 84.9746 257.678 83.2889Z" fill="#FFC217"/>
<path d="M256.406 84.8154C256.799 84.8135 257.384 84.8746 257.912 85.2387C258.781 85.84 258.947 86.8937 259.136 88.228C259.344 89.6768 259.309 91.1489 259.011 92.7163C258.621 94.7789 258.404 95.9418 257.49 96.4015C257.058 96.6186 256.838 96.4952 254.887 96.7621C254.277 96.8453 253.778 96.9287 253.443 96.9878C253.353 96.2785 253.27 95.6439 253.212 95.0829C256.972 93.6264 256.406 88.2325 256.406 84.8154Z" fill="#342C3B"/>
<path d="M254.178 84.2317C254.267 84.0849 254.328 83.9964 254.328 83.9964C254.328 83.9964 254.36 84.9743 257.678 83.2889C257.707 83.3062 257.742 83.3308 257.774 83.35C257.279 83.8615 256.78 84.1271 256.47 84.2636C256.029 84.457 255.172 84.8336 254.475 84.4548C254.338 84.3794 254.239 84.2921 254.178 84.2317Z" fill="#02488F"/>
<path d="M268.145 122.954C268.145 122.954 270.003 123.316 270.329 125.075L264.948 129.507C264.948 129.507 264.035 129.018 264.459 127.974C264.883 126.931 266.564 124.495 266.564 124.495C266.564 124.495 267.984 124.815 268.145 122.954Z" fill="#9ECEFF"/>
<path d="M266.676 125.119C266.676 125.119 265.372 125.235 265.307 124.974C265.242 124.714 265.47 124.387 265.992 124.224C266.514 124.061 266.905 124.811 266.905 124.811L266.676 125.119Z" fill="#02488F"/>
<path d="M270.329 125.075L270.622 125.464L265.296 129.801L264.948 129.507L270.329 125.075Z" fill="#342C3B"/>
<path d="M266.644 126.171C266.678 126.171 266.713 126.156 266.737 126.126C266.779 126.075 266.771 126 266.72 125.958C266.321 125.632 265.644 125.769 265.615 125.775C265.551 125.788 265.509 125.852 265.523 125.917C265.536 125.981 265.6 126.021 265.664 126.009C265.67 126.009 266.258 125.891 266.568 126.143L266.644 126.171Z" fill="#342C3B"/>
<path d="M266.142 126.79L266.215 126.765C266.267 126.725 266.277 126.65 266.237 126.597C265.921 126.184 265.308 126.301 265.283 126.306C265.218 126.319 265.177 126.382 265.189 126.447C265.202 126.511 265.27 126.554 265.33 126.541C265.335 126.54 265.822 126.449 266.047 126.743C266.07 126.774 266.106 126.79 266.142 126.79Z" fill="#342C3B"/>
<path d="M250.824 125.598C250.824 125.598 251.972 127.1 251.051 128.633L244.082 128.382C244.082 128.382 243.724 127.41 244.735 126.91C245.745 126.41 248.619 125.703 248.619 125.703C248.619 125.703 249.469 126.883 250.824 125.598Z" fill="#9ECEFF"/>
<path d="M248.286 126.243C248.286 126.243 247.234 125.466 247.359 125.227C247.484 124.988 247.87 124.896 248.369 125.12C248.868 125.344 248.663 126.165 248.663 126.165L248.286 126.243Z" fill="#02488F"/>
<path d="M251.051 128.633L251.013 129.118L244.149 128.832L244.082 128.382L251.051 128.633Z" fill="#342C3B"/>
<path d="M247.647 127.039L247.666 127.038C247.73 127.027 247.775 126.965 247.765 126.9C247.682 126.392 247.084 126.045 247.059 126.031C247.001 125.997 246.928 126.018 246.896 126.075C246.864 126.133 246.883 126.206 246.94 126.239C246.943 126.242 247.465 126.544 247.529 126.938C247.538 126.997 247.586 127.039 247.647 127.039Z" fill="#342C3B"/>
<path d="M246.86 127.17C246.921 127.17 246.975 127.122 246.979 127.059C247.017 126.54 246.48 126.221 246.458 126.208C246.4 126.175 246.326 126.194 246.295 126.251C246.263 126.307 246.279 126.381 246.336 126.415C246.342 126.417 246.768 126.673 246.739 127.041C246.736 127.107 246.784 127.165 246.851 127.17L246.86 127.17Z" fill="#342C3B"/>
<path d="M267.985 121.583L267.093 120.788L264.664 123.729L265.307 124.201L267.985 121.583Z" fill="#FFC217"/>
<path d="M251.758 123.329L248.091 122.954V124.201L251.409 124.352L251.758 123.329Z" fill="#FFC217"/>
<path d="M251.771 78.2572C251.771 79.8601 253.072 81.1593 254.673 81.1593C256.275 81.1593 257.576 79.8601 257.576 78.2572C257.576 76.6544 256.275 75.3552 254.673 75.3552C253.072 75.3552 251.771 76.6544 251.771 78.2572Z" fill="#FDBFC3"/>
<path d="M241.253 96.5505H252.832V90.4229H241.253V96.5505Z" fill="#FF7C19"/>
<path d="M240.825 92.2476H253.26V90.4229H240.825V92.2476Z" fill="#02488F"/>
<path d="M256.841 78.6907C257.01 79.1849 257.544 79.4493 258.04 79.2815C258.532 79.1136 258.797 78.5769 258.631 78.083C258.462 77.5888 257.924 77.3244 257.432 77.4922C256.937 77.6604 256.671 78.1968 256.841 78.6907Z" fill="#FDBFC3"/>
<path d="M252.893 78.5407C252.88 78.6203 252.841 78.7044 252.771 78.7214C252.723 78.7332 252.669 78.7063 252.63 78.6635C252.595 78.621 252.573 78.5644 252.557 78.5075C252.538 78.4365 252.528 78.3611 252.541 78.2908C252.557 78.2211 252.595 78.1568 252.656 78.1319C252.88 78.0369 252.918 78.3799 252.893 78.5407Z" fill="#333333"/>
<path d="M253.999 78.5609C253.996 78.5338 253.487 78.4478 253.385 78.6597C253.273 78.8876 253.743 79.2489 253.759 79.2351C253.775 79.2233 253.465 78.933 253.551 78.7409C253.628 78.5616 254.002 78.584 253.999 78.5609Z" fill="#342C3B"/>
<path d="M255.015 77.1921C254.955 77.1809 254.881 77.1806 254.843 77.2285C254.798 77.2838 254.827 77.3673 254.865 77.4264C254.961 77.5651 255.108 77.6646 255.271 77.6978C255.322 77.708 255.376 77.7122 255.428 77.6968C255.479 77.6818 255.524 77.6451 255.539 77.5952C255.6 77.3887 255.156 77.218 255.015 77.1921Z" fill="#342C3B"/>
<path d="M252.647 77.3905C252.704 77.3669 252.774 77.3512 252.822 77.3899C252.877 77.4347 252.867 77.5219 252.842 77.5881C252.781 77.7431 252.656 77.8723 252.503 77.9388C252.455 77.9596 252.4 77.9749 252.349 77.9704C252.298 77.9666 252.244 77.9401 252.218 77.894C252.116 77.7054 252.512 77.4455 252.647 77.3905Z" fill="#342C3B"/>
<path d="M252.65 78.2156C252.694 78.2057 252.736 78.238 252.746 78.2809C252.752 78.3208 252.726 78.3649 252.682 78.3726C252.64 78.3806 252.602 78.3461 252.592 78.3055C252.589 78.2671 252.611 78.2249 252.65 78.2156Z" fill="white"/>
<path d="M255.143 78.3739C255.127 78.4528 255.086 78.5359 255.015 78.5503C254.967 78.5606 254.913 78.5318 254.878 78.4874C254.843 78.4436 254.82 78.3863 254.808 78.3291C254.792 78.2575 254.785 78.1821 254.801 78.1124C254.817 78.0427 254.859 77.9803 254.919 77.957C255.146 77.8704 255.175 78.214 255.143 78.3739Z" fill="#333333"/>
<path d="M254.913 78.0408C254.955 78.0321 254.996 78.066 255.003 78.1092C255.009 78.1495 254.983 78.1926 254.939 78.1987C254.897 78.2051 254.859 78.1693 254.852 78.1284C254.849 78.0897 254.872 78.0488 254.913 78.0408Z" fill="white"/>
<path d="M257.617 78.744C257.646 78.744 257.675 78.7277 257.691 78.6996C257.774 78.5254 258.094 78.3671 258.209 78.3208C258.25 78.3042 258.27 78.2578 258.254 78.2169C258.238 78.176 258.19 78.1568 258.151 78.1721C258.132 78.1801 257.675 78.3643 257.547 78.629C257.528 78.6686 257.544 78.7162 257.582 78.7361L257.617 78.744Z" fill="#342C3B"/>
<path d="M257.86 92.5091C257.86 92.5091 257.432 95.601 256.949 95.9121C256.463 96.2235 247.365 95.9121 247.365 95.9121C247.365 95.9121 246.119 96.5351 245.601 96.4309C245.083 96.3274 243.318 96.2235 243.283 96.0505C243.248 95.8776 243.318 95.7046 243.491 95.7046C243.664 95.7046 244.77 95.7392 244.77 95.601C244.77 95.4623 242.66 95.5662 242.589 95.4623C242.522 95.3587 242.487 95.1164 242.589 95.047C242.695 94.978 244.632 95.0819 244.632 94.9435C244.632 94.805 242.436 94.7472 242.378 94.6116C242.318 94.4758 242.241 94.2629 242.378 94.2242C242.513 94.1855 244.642 94.4179 244.702 94.3597C244.76 94.3016 242.532 94.0113 242.551 93.8952C242.57 93.7789 242.551 93.6238 242.708 93.6047C242.861 93.5852 244.933 93.8754 245.128 93.9144C245.319 93.9531 246.173 94.05 246.154 93.9531C246.135 93.8562 244.412 93.4691 244.45 93.3918C244.488 93.3141 244.642 93.0622 244.779 93.0622C244.913 93.0622 246.675 93.5078 246.966 93.7594C247.257 94.0113 247.663 94.2824 247.663 94.2824L254.731 93.7594V92.191L257.86 92.5091Z" fill="#FDBFC3"/>
<path d="M258.126 93.2137L254.328 92.6255C254.328 92.6255 254.692 86.6398 254.833 86.121C254.977 85.6018 256.118 84.6332 256.777 84.7026C257.432 84.7719 258.573 85.1869 258.714 86.6747C258.851 88.1621 258.126 93.2137 258.126 93.2137Z" fill="#FFC217"/>
<path d="M258.238 92.3969C258.171 92.8963 258.126 93.2137 258.126 93.2137L254.328 92.6255C254.328 92.6255 254.35 92.2412 254.386 91.6604C255.549 92.2448 256.889 92.825 258.238 92.3969Z" fill="#02488F"/>
<path d="M257.359 78.5868C257.403 78.8144 257.461 79.2907 257.272 79.8399C257.132 80.2532 256.908 80.539 256.764 80.6992C256.432 80.9936 255.418 81.8146 253.999 81.7931C253.561 81.7867 253.184 81.7014 252.883 81.602C252.989 81.4846 253.094 81.3676 253.203 81.2506C252.925 81.2366 252.647 81.2225 252.372 81.2084C252.189 81.0524 252.01 80.8964 251.828 80.7398C251.863 80.5349 251.895 80.322 251.924 80.1017C251.956 79.8581 251.982 79.6216 252.004 79.3933C252.071 79.5225 252.196 79.6999 252.404 79.7824C252.832 79.9534 253.158 79.5397 253.759 79.3933C254.718 79.1593 255.146 79.9102 255.946 79.6868C256.259 79.5995 256.681 79.3489 257.068 78.5721C257.167 78.5772 257.263 78.5816 257.359 78.5868Z" fill="#342C3B"/>
<path d="M253.877 80.4099C254.152 80.4627 254.376 80.3226 254.43 80.2875C254.692 80.1232 254.884 79.8038 254.811 79.7124C254.74 79.6219 254.488 79.8502 253.992 79.8812C253.522 79.9109 253.219 79.7376 253.174 79.8262C253.129 79.9211 253.449 80.1679 253.497 80.205C253.625 80.3038 253.724 80.3802 253.877 80.4099Z" fill="white"/>
<path d="M258.091 77.1041C257.87 77.3173 257.547 77.699 257.413 78.2511C257.384 78.3691 257.368 78.4819 257.359 78.5868C257.263 78.5817 257.167 78.5772 257.068 78.5721C257.269 78.0737 257.237 77.738 257.16 77.5178C257.077 77.2729 256.94 77.1776 256.895 76.8487C256.853 76.5594 256.834 76.5156 256.783 76.4034C256.697 76.2103 256.457 75.9801 255.751 75.8759C255.731 75.9172 255.706 75.9734 255.671 76.037C255.635 76.1045 255.517 76.3113 255.3 76.4763C255.079 76.6451 254.852 76.6882 254.587 76.7339C254.136 76.8116 253.813 76.8669 253.538 76.6956C253.251 76.5162 253.295 76.2653 252.989 76.0895C252.768 75.9641 252.531 75.9683 252.368 75.9894C252.515 75.8213 252.736 75.6071 253.049 75.4373C253.57 75.1563 254.107 75.1707 255.181 75.1745C255.54 75.1761 255.904 75.1835 256.246 75.2877C256.579 75.3881 256.876 75.5741 257.164 75.7647C257.464 75.9616 257.774 76.1863 257.899 76.5217C257.969 76.7112 257.991 76.9277 258.091 77.1041Z" fill="#342C3B"/>
<defs>
<linearGradient id="paint0_linear_2_5448" x1="202.106" y1="87.6319" x2="202.106" y2="121.558" gradientUnits="userSpaceOnUse">
<stop stop-color="#AAD3FB"/>
<stop offset="1" stop-color="white"/>
</linearGradient>
<linearGradient id="paint1_linear_2_5448" x1="152.236" y1="87.9916" x2="152.236" y2="121.917" gradientUnits="userSpaceOnUse">
<stop stop-color="#AEB9C5"/>
<stop offset="0.0001" stop-color="#B3D8FC"/>
<stop offset="1" stop-color="white"/>
</linearGradient>
<linearGradient id="paint2_linear_2_5448" x1="169.978" y1="101.178" x2="164.224" y2="101.178" gradientUnits="userSpaceOnUse">
<stop stop-color="#4EA7FF"/>
<stop offset="1" stop-color="#A8D4FF"/>
</linearGradient>
<linearGradient id="paint3_linear_2_5448" x1="184.124" y1="111.248" x2="152.476" y2="111.248" gradientUnits="userSpaceOnUse">
<stop stop-color="#47A4FF"/>
<stop offset="1" stop-color="#B4D9FF"/>
</linearGradient>
<linearGradient id="paint4_linear_2_5448" x1="197.91" y1="114.605" x2="168.18" y2="114.485" gradientUnits="userSpaceOnUse">
<stop stop-color="#47A4FF"/>
<stop offset="1" stop-color="#B4D9FF"/>
</linearGradient>
<linearGradient id="paint5_linear_2_5448" x1="46.7423" y1="26.0139" x2="46.7423" y2="49.8699" gradientUnits="userSpaceOnUse">
<stop stop-color="#47A4FF"/>
<stop offset="1" stop-color="white" stop-opacity="0"/>
</linearGradient>
<linearGradient id="paint6_linear_2_5448" x1="201.387" y1="31.7681" x2="201.387" y2="55.6241" gradientUnits="userSpaceOnUse">
<stop stop-color="#47A4FF"/>
<stop offset="1" stop-color="white" stop-opacity="0"/>
</linearGradient>
<linearGradient id="paint7_linear_2_5448" x1="173.814" y1="0.599408" x2="173.814" y2="24.4554" gradientUnits="userSpaceOnUse">
<stop stop-color="#47A4FF"/>
<stop offset="1" stop-color="white" stop-opacity="0"/>
</linearGradient>
<linearGradient id="paint8_linear_2_5448" x1="87.9808" y1="-6.59337" x2="87.9808" y2="17.2626" gradientUnits="userSpaceOnUse">
<stop stop-color="#47A4FF"/>
<stop offset="1" stop-color="white" stop-opacity="0"/>
</linearGradient>
<linearGradient id="paint9_linear_2_5448" x1="107.641" y1="88.2313" x2="107.641" y2="122.157" gradientUnits="userSpaceOnUse">
<stop stop-color="#B5D9FC"/>
<stop offset="1" stop-color="white"/>
</linearGradient>
<linearGradient id="paint10_linear_2_5448" x1="57.5313" y1="87.7518" x2="57.5313" y2="121.678" gradientUnits="userSpaceOnUse">
<stop stop-color="#B5D9FC"/>
<stop offset="1" stop-color="white"/>
</linearGradient>
<linearGradient id="paint11_linear_2_5448" x1="59.2097" y1="69.5301" x2="59.2097" y2="84.8747" gradientUnits="userSpaceOnUse">
<stop stop-color="#C0DFFF"/>
<stop offset="1" stop-color="white" stop-opacity="0"/>
</linearGradient>
<linearGradient id="paint12_linear_2_5448" x1="202.106" y1="69.5301" x2="202.106" y2="85.1145" gradientUnits="userSpaceOnUse">
<stop stop-color="#C0DFFF"/>
<stop offset="1" stop-color="white" stop-opacity="0"/>
</linearGradient>
<linearGradient id="paint13_linear_2_5448" x1="130.898" y1="78.6409" x2="130.898" y2="122.757" gradientUnits="userSpaceOnUse">
<stop stop-color="#71B8FF"/>
<stop offset="1" stop-color="white"/>
</linearGradient>
<linearGradient id="paint14_linear_2_5448" x1="141.087" y1="89.1904" x2="141.087" y2="116.043" gradientUnits="userSpaceOnUse">
<stop stop-color="white"/>
<stop offset="1" stop-color="#B6D2FF"/>
</linearGradient>
<linearGradient id="paint15_linear_2_5448" x1="152.716" y1="107.172" x2="152.716" y2="116.043" gradientUnits="userSpaceOnUse">
<stop stop-color="#B68600"/>
<stop offset="1" stop-color="#FFC217"/>
</linearGradient>
<linearGradient id="paint16_linear_2_5448" x1="152.735" y1="105.973" x2="152.735" y2="107.418" gradientUnits="userSpaceOnUse">
<stop stop-color="#FFD704"/>
<stop offset="1" stop-color="#805F00"/>
</linearGradient>
<linearGradient id="paint17_linear_2_5448" x1="152.696" y1="97.5894" x2="152.696" y2="106.009" gradientUnits="userSpaceOnUse">
<stop stop-color="#B68600"/>
<stop offset="1" stop-color="#FFC217"/>
</linearGradient>
<linearGradient id="paint18_linear_2_5448" x1="152.697" y1="96.1434" x2="152.697" y2="97.5883" gradientUnits="userSpaceOnUse">
<stop stop-color="#FFD704"/>
<stop offset="1" stop-color="#805F00"/>
</linearGradient>
<linearGradient id="paint19_linear_2_5448" x1="141.687" y1="107.412" x2="141.687" y2="116.043" gradientUnits="userSpaceOnUse">
<stop stop-color="#B68600"/>
<stop offset="1" stop-color="#FFC217"/>
</linearGradient>
<linearGradient id="paint20_linear_2_5448" x1="130.658" y1="107.412" x2="130.658" y2="116.043" gradientUnits="userSpaceOnUse">
<stop stop-color="#B68600"/>
<stop offset="1" stop-color="#FFC217"/>
</linearGradient>
<linearGradient id="paint21_linear_2_5448" x1="141.466" y1="106.008" x2="141.466" y2="107.453" gradientUnits="userSpaceOnUse">
<stop stop-color="#FFD704"/>
<stop offset="1" stop-color="#805F00"/>
</linearGradient>
<linearGradient id="paint22_linear_2_5448" x1="130.677" y1="106.008" x2="130.677" y2="107.453" gradientUnits="userSpaceOnUse">
<stop stop-color="#FFD704"/>
<stop offset="1" stop-color="#805F00"/>
</linearGradient>
<linearGradient id="paint23_linear_2_5448" x1="141.705" y1="97.5894" x2="141.705" y2="106.009" gradientUnits="userSpaceOnUse">
<stop stop-color="#B68600"/>
<stop offset="1" stop-color="#FFC217"/>
</linearGradient>
<linearGradient id="paint24_linear_2_5448" x1="141.706" y1="96.1434" x2="141.706" y2="97.5883" gradientUnits="userSpaceOnUse">
<stop stop-color="#FFD704"/>
<stop offset="1" stop-color="#805F00"/>
</linearGradient>
<linearGradient id="paint25_linear_2_5448" x1="147.261" y1="53.1066" x2="147.261" y2="76.0036" gradientUnits="userSpaceOnUse">
<stop stop-color="#FFE498"/>
<stop offset="0.664583" stop-color="#FFC217"/>
<stop offset="1" stop-color="#FFC217"/>
</linearGradient>
<linearGradient id="paint26_linear_2_5448" x1="130.957" y1="52.9867" x2="130.957" y2="76.0036" gradientUnits="userSpaceOnUse">
<stop stop-color="#7BBDFF"/>
<stop offset="0.8" stop-color="#176CF7"/>
</linearGradient>
<linearGradient id="paint27_linear_2_5448" x1="114.774" y1="52.9867" x2="114.774" y2="76.0036" gradientUnits="userSpaceOnUse">
<stop stop-color="#FFE498"/>
<stop offset="0.664583" stop-color="#FFC217"/>
<stop offset="1" stop-color="#FFC217"/>
</linearGradient>
<linearGradient id="paint28_linear_2_5448" x1="96.3124" y1="76.0036" x2="96.3124" y2="87.3922" gradientUnits="userSpaceOnUse">
<stop stop-color="#7BAFFF"/>
<stop offset="0.802083" stop-color="#176CF7"/>
</linearGradient>
<linearGradient id="paint29_linear_2_5448" x1="113.695" y1="76.0036" x2="113.695" y2="87.3922" gradientUnits="userSpaceOnUse">
<stop stop-color="#FFDE82"/>
<stop offset="0.523958" stop-color="#FFC217"/>
<stop offset="1" stop-color="#FFC217"/>
</linearGradient>
<linearGradient id="paint30_linear_2_5448" x1="130.957" y1="75.8837" x2="130.957" y2="87.5121" gradientUnits="userSpaceOnUse">
<stop stop-color="#7BAFFF"/>
<stop offset="0.802083" stop-color="#176CF7"/>
</linearGradient>
<linearGradient id="paint31_linear_2_5448" x1="148.22" y1="75.8837" x2="148.22" y2="87.3922" gradientUnits="userSpaceOnUse">
<stop stop-color="#FFDE82"/>
<stop offset="0.523958" stop-color="#FFC217"/>
<stop offset="1" stop-color="#FFC217"/>
</linearGradient>
<linearGradient id="paint32_linear_2_5448" x1="165.543" y1="76.0036" x2="165.543" y2="87.5121" gradientUnits="userSpaceOnUse">
<stop stop-color="#7BAFFF"/>
<stop offset="0.802083" stop-color="#176CF7"/>
</linearGradient>
<linearGradient id="paint33_linear_2_5448" x1="99.1895" y1="52.9867" x2="99.1895" y2="76.0036" gradientUnits="userSpaceOnUse">
<stop stop-color="#7BBDFF"/>
<stop offset="0.8" stop-color="#176CF7"/>
</linearGradient>
<linearGradient id="paint34_linear_2_5448" x1="162.666" y1="52.9867" x2="162.666" y2="76.0036" gradientUnits="userSpaceOnUse">
<stop stop-color="#7BBDFF"/>
<stop offset="0.8" stop-color="#176CF7"/>
</linearGradient>
<linearGradient id="paint35_linear_2_5448" x1="130.814" y1="16.969" x2="130.814" y2="43.1938" gradientUnits="userSpaceOnUse">
<stop stop-color="#76BAFF"/>
<stop offset="0.33125" stop-color="#176CF7"/>
<stop offset="1" stop-color="#176CF7"/>
</linearGradient>
<linearGradient id="paint36_linear_2_5448" x1="131.018" y1="26.6021" x2="131.018" y2="37.631" gradientUnits="userSpaceOnUse">
<stop stop-color="#C5E3FF"/>
<stop offset="1" stop-color="white"/>
</linearGradient>
<linearGradient id="paint37_linear_2_5448" x1="131.018" y1="26.6021" x2="131.018" y2="37.631" gradientUnits="userSpaceOnUse">
<stop stop-color="#C5E3FF"/>
<stop offset="1" stop-color="white"/>
</linearGradient>
<linearGradient id="paint38_linear_2_5448" x1="131.018" y1="26.6021" x2="131.018" y2="37.631" gradientUnits="userSpaceOnUse">
<stop stop-color="#C5E3FF"/>
<stop offset="1" stop-color="white"/>
</linearGradient>
<linearGradient id="paint39_linear_2_5448" x1="131.018" y1="26.6021" x2="131.018" y2="37.631" gradientUnits="userSpaceOnUse">
<stop stop-color="#C5E3FF"/>
<stop offset="1" stop-color="white"/>
</linearGradient>
<linearGradient id="paint40_linear_2_5448" x1="131.018" y1="26.6021" x2="131.018" y2="37.631" gradientUnits="userSpaceOnUse">
<stop stop-color="#C5E3FF"/>
<stop offset="1" stop-color="white"/>
</linearGradient>
<linearGradient id="paint41_linear_2_5448" x1="130.658" y1="116.043" x2="130.658" y2="122.277" gradientUnits="userSpaceOnUse">
<stop stop-color="#7CBEFF"/>
<stop offset="1" stop-color="#176CF7"/>
</linearGradient>
<linearGradient id="paint42_linear_2_5448" x1="112.436" y1="92.547" x2="112.436" y2="116.043" gradientUnits="userSpaceOnUse">
<stop stop-color="#004589"/>
<stop offset="1" stop-color="#176CF7"/>
</linearGradient>
<linearGradient id="paint43_linear_2_5448" x1="141.687" y1="105.014" x2="141.687" y2="105.973" gradientUnits="userSpaceOnUse">
<stop offset="0.357292" stop-color="#C99400" stop-opacity="0"/>
<stop offset="1" stop-color="#926B00"/>
</linearGradient>
<linearGradient id="paint44_linear_2_5448" x1="152.716" y1="105.014" x2="152.716" y2="105.973" gradientUnits="userSpaceOnUse">
<stop offset="0.357292" stop-color="#C99400" stop-opacity="0"/>
<stop offset="1" stop-color="#926B00"/>
</linearGradient>
<linearGradient id="paint45_linear_2_5448" x1="152.716" y1="115.084" x2="152.716" y2="116.043" gradientUnits="userSpaceOnUse">
<stop offset="0.357292" stop-color="#C99400" stop-opacity="0"/>
<stop offset="1" stop-color="#926B00"/>
</linearGradient>
<linearGradient id="paint46_linear_2_5448" x1="141.687" y1="115.084" x2="141.687" y2="116.043" gradientUnits="userSpaceOnUse">
<stop offset="0.357292" stop-color="#C99400" stop-opacity="0"/>
<stop offset="1" stop-color="#926B00"/>
</linearGradient>
<linearGradient id="paint47_linear_2_5448" x1="130.658" y1="115.084" x2="130.658" y2="116.043" gradientUnits="userSpaceOnUse">
<stop offset="0.357292" stop-color="#C99400" stop-opacity="0"/>
<stop offset="1" stop-color="#926B00"/>
</linearGradient>
</defs>
</svg>
