<svg width="48" height="48" viewBox="0 0 48 48" fill="none" xmlns="http://www.w3.org/2000/svg">
<path d="M1.5 22.0805L6.38977 15.4445H41.0269L45.9167 22.0805V24.3452H1.5V22.0805Z" fill="#176CF7" stroke="#231F20" stroke-width="0.5"/>
<path d="M4.36243 21.8373H1.85449V24.3453H4.36243V21.8373Z" fill="#FFC217" stroke="#231F20" stroke-width="0.5"/>
<path d="M11.4659 21.8373H8.95801V24.3453H11.4659V21.8373Z" fill="#FFC217" stroke="#231F20" stroke-width="0.5"/>
<path d="M17.8595 21.8373H15.3516V24.3453H17.8595V21.8373Z" fill="#FFC217" stroke="#231F20" stroke-width="0.5"/>
<path d="M24.9611 21.8373H22.4531V24.3453H24.9611V21.8373Z" fill="#FFC217" stroke="#231F20" stroke-width="0.5"/>
<path d="M32.0656 21.8373H29.5576V24.3453H32.0656V21.8373Z" fill="#FFC217" stroke="#231F20" stroke-width="0.5"/>
<path d="M39.1691 21.8373H36.6611V24.3453H39.1691V21.8373Z" fill="#FFC217" stroke="#231F20" stroke-width="0.5"/>
<path d="M45.5597 21.8373H43.0518V24.3453H45.5597V21.8373Z" fill="#FFC217" stroke="#231F20" stroke-width="0.5"/>
<path d="M6.49904 15.4445H7.79914L4.43272 21.504H2.36035L6.49904 15.4445Z" fill="#FFC217" stroke="#231F20" stroke-width="0.5"/>
<path d="M11.9864 15.4445H13.3614L11.5099 21.5039H9.05762L11.9864 15.4445Z" fill="#FFC217" stroke="#231F20" stroke-width="0.5"/>
<path d="M17.2617 15.4445H19.0671L17.8889 21.504H15.4102L17.2617 15.4445Z" fill="#FFC217" stroke="#231F20" stroke-width="0.5"/>
<path d="M24.6152 15.4445L24.9518 21.504H22.4629L22.7995 15.4445H24.6152Z" fill="#FFC217" stroke="#231F20" stroke-width="0.5"/>
<path d="M31.9996 21.504H29.5233L28.1768 15.4445H29.9798L31.9996 21.504Z" fill="#FFC217" stroke="#231F20" stroke-width="0.5"/>
<path d="M39.0396 21.504H36.6003L33.9072 15.4445H35.4208L39.0396 21.504Z" fill="#FFC217" stroke="#231F20" stroke-width="0.5"/>
<path d="M45.0461 21.504H42.9794L39.2764 15.4445H40.6698L45.0461 21.504Z" fill="#FFC217" stroke="#231F20" stroke-width="0.5"/>
<path d="M9.99967 4.83331H37.333C37.9773 4.83331 38.4997 5.35565 38.4997 5.99998V13.8333H8.83301V5.99998C8.83301 5.35565 9.35534 4.83331 9.99967 4.83331Z" fill="#FFC217" stroke="#231F20" stroke-width="0.5"/>
<path d="M15.511 7.71362C15.1705 7.37709 14.6596 7.21216 14.2118 7.21216C13.4045 7.21216 12.5783 7.63442 12.5783 8.58456C12.5783 9.45556 13.1649 9.73269 13.7073 9.91083C14.2686 10.0956 14.7353 10.2342 14.7353 10.7224C14.7353 11.2239 14.3001 11.4152 13.928 11.4152C13.5748 11.4152 13.1712 11.2173 12.9504 10.9006L12.3828 11.4548C12.736 11.8903 13.3351 12.1212 13.9154 12.1212C14.7921 12.1212 15.5425 11.633 15.5425 10.63C15.5425 9.71289 14.8109 9.44896 14.2371 9.26423C13.7325 9.09923 13.3856 8.97389 13.3856 8.54496C13.3856 8.08969 13.8082 7.90496 14.1739 7.90496C14.4893 7.90496 14.8236 8.07649 14.9939 8.30742L15.511 7.71362ZM17.8735 12.0025H18.6682V8.05669H20.0368V7.33089H16.5049V8.05669H17.8735V12.0025ZM20.8825 9.65349C20.8825 11.1117 21.8979 12.1212 23.2727 12.1212C24.6666 12.1212 25.682 11.1117 25.682 9.65349C25.682 8.15569 24.6666 7.21216 23.2727 7.21216C21.8979 7.21216 20.8825 8.15569 20.8825 9.65349ZM21.7465 9.65349C21.7465 8.69016 22.3583 7.94456 23.2791 7.94456C24.2062 7.94456 24.8179 8.69016 24.8179 9.65349C24.8179 10.6498 24.1935 11.3756 23.2791 11.3756C22.3709 11.3756 21.7465 10.6498 21.7465 9.65349ZM27.1807 12.0025H27.9754V10.023H28.5557L29.59 12.0025H30.5486L29.3566 9.93062C29.981 9.78542 30.3783 9.34336 30.3783 8.67036C30.3783 7.68062 29.5711 7.33089 28.7323 7.33089H27.1807V12.0025ZM27.9754 9.34336V8.03029H28.6944C29.1043 8.03029 29.5837 8.15569 29.5837 8.66376C29.5837 9.23122 29.0728 9.34336 28.625 9.34336H27.9754ZM31.8787 12.0025H34.9502V11.2635H32.6734V9.94382H34.7231V9.24442H32.6734V8.05669H34.8367V7.33089H31.8787V12.0025Z" fill="#AB8314"/>
<path d="M43.4288 24.6786H3.98438V44.9445H43.4288V24.6786Z" fill="#307CFE" stroke="black" stroke-width="0.5"/>
<path d="M17.8593 26.8095H6.11719V44.9444H17.8593V26.8095Z" fill="white" stroke="black" stroke-width="0.5"/>
<path d="M17.8333 26.8333H11.5V44.8333H17.8333V26.8333Z" fill="#183E7F" stroke="black" stroke-width="0.5"/>
<path d="M41.1667 26.8333H19.5V42.5H41.1667V26.8333Z" fill="white" stroke="black" stroke-width="0.5"/>
<path d="M2.39844 21.6815H45.0175" stroke="#231F20" stroke-width="0.5"/>
<path d="M25.8333 26.8333H19.5V42.5H25.8333V26.8333Z" fill="#183E7F" stroke="black" stroke-width="0.5"/>
<path d="M35.9424 38.6094V42.5374H40.2063V38.6094H35.9424ZM39.1112 39.9578H37.038V39.6218H39.1112V39.9578Z" fill="#FFC217" stroke="#231F20" stroke-width="0.5" stroke-miterlimit="10"/>
<path d="M40.5429 37.9349H35.6045V38.6089H40.5429V37.9349Z" fill="#BF9211" stroke="#231F20" stroke-width="0.5" stroke-miterlimit="10"/>
<path d="M35.9424 34.0078V37.935H40.2063V34.0078H35.9424ZM39.1112 35.3562H37.038V35.0203H39.1112V35.3562Z" fill="#FFC217" stroke="#231F20" stroke-width="0.5" stroke-miterlimit="10"/>
<path d="M40.5429 33.3333H35.6045V34.0073H40.5429V33.3333Z" fill="#BF9211" stroke="#231F20" stroke-width="0.5" stroke-miterlimit="10"/>
<path d="M31.0049 38.6094V42.5374H35.2684V38.6094H31.0049ZM34.1737 39.9578H32.1005V39.6218H34.1737V39.9578Z" fill="#FFC217" stroke="#231F20" stroke-width="0.5" stroke-miterlimit="10"/>
<path d="M25.6719 38.6094V42.5374H29.9354V38.6094H25.6719ZM28.8407 39.9578H26.7675V39.6218H28.8407V39.9578Z" fill="#FFC217" stroke="#231F20" stroke-width="0.5" stroke-miterlimit="10"/>
<path d="M35.6054 37.9349H30.667V38.6089H35.6054V37.9349Z" fill="#BF9211" stroke="#231F20" stroke-width="0.5" stroke-miterlimit="10"/>
<path d="M30.2714 37.9349H25.333V38.6089H30.2714V37.9349Z" fill="#BF9211" stroke="#231F20" stroke-width="0.5" stroke-miterlimit="10"/>
<path d="M31.0049 34.0078V37.935H35.2684V34.0078H31.0049ZM34.1737 35.3562H32.1005V35.0203H34.1737V35.3562Z" fill="#FFC217" stroke="#231F20" stroke-width="0.5" stroke-miterlimit="10"/>
<path d="M35.6054 33.3333H30.667V34.0073H35.6054V33.3333Z" fill="#BF9211" stroke="#231F20" stroke-width="0.5" stroke-miterlimit="10"/>
<path d="M13.2333 41.1791C13.2187 41.4121 13.2107 41.6494 13.1821 41.8841C13.1283 42.3276 13.1313 42.7773 13.0947 43.2233C13.0708 43.5173 13.0108 44.2185 12.9827 44.6591H11.9459C11.7909 43.6399 11.6628 42.0689 11.5335 41.0695C11.4856 40.6991 11.2748 40.4291 11.1199 40.1225C11.0543 39.9911 10.9939 39.8504 10.8859 39.7421C10.6033 39.1961 10.3056 38.6603 9.90919 38.1816C9.61519 37.8293 9.29605 37.4959 9.08105 37.0847V36.4171C9.08105 36.2613 9.08105 36.1051 9.08105 35.9493H12.3843C12.3843 36.1055 12.3918 36.2613 12.3901 36.4167C12.3901 36.4863 12.3901 36.5548 12.383 36.6237C12.341 37.1998 12.4519 37.7465 12.6316 38.2908C12.8571 38.9765 13.0565 39.6711 13.2615 40.3636C13.3383 40.6344 13.2501 40.9111 13.2333 41.1791Z" fill="#EEE7DF" stroke="#231F20" stroke-width="0.5" stroke-miterlimit="10"/>
<path d="M12.9738 33.634L12.9826 34.4671L12.6614 35.1218L12.383 35.9499H9.07853C8.8868 35.2859 8.69473 34.6223 8.5024 33.9594C8.45073 33.7814 8.48053 33.5995 8.4776 33.4198C8.473 33.1519 8.4776 32.8835 8.481 32.6157C8.481 32.2159 8.473 31.8157 8.47847 31.4159C8.48253 31.2657 8.532 31.1203 8.6204 30.9989C8.72453 30.7591 8.91433 30.6021 9.13353 30.4753L10.3631 29.7673L10.4673 29.897C10.7364 30.2329 11.1723 30.3451 11.5528 30.167C11.6505 30.1151 11.7456 30.0583 11.8375 29.9965C12.1679 30.3279 12.4963 30.6617 12.8293 30.9901C12.8819 31.0383 12.9233 31.0973 12.9507 31.1631C12.9781 31.2288 12.9909 31.2998 12.9881 31.371C12.9776 32.1251 12.9771 32.8798 12.9738 33.634Z" fill="#FFC217" stroke="#231F20" stroke-width="0.5" stroke-miterlimit="10"/>
<path d="M8.47822 32.6154C8.47822 32.2156 8.47029 31.8154 8.47529 31.4156C8.47942 31.2654 8.52889 31.1199 8.61722 30.9982C8.83562 30.9084 9.05062 30.821 9.29962 30.8471C9.49115 30.8672 9.68682 30.8441 9.87995 30.853C10.2902 30.871 10.6648 30.9978 10.976 31.27C11.3313 31.5802 11.6013 31.9586 11.8469 32.3618C12.1035 32.7817 12.2799 33.2676 12.7481 33.5262C12.7729 33.5401 12.7863 33.5741 12.8052 33.5984C12.7662 33.661 12.73 33.7244 12.6876 33.7862C12.443 34.1347 12.1973 34.4828 11.9506 34.8305L11.0873 34.5286C10.9798 34.4974 10.8782 34.449 10.7862 34.3854C10.2608 33.9865 9.72502 33.6014 9.20262 33.1987C8.95782 33.0084 8.68235 32.8552 8.47822 32.6154Z" fill="#BF9211" stroke="#231F20" stroke-width="0.5" stroke-miterlimit="10"/>
<path d="M10.8845 39.7428C10.7509 40.5028 10.6552 41.2675 10.3054 41.976C9.9556 42.6844 9.3816 43.8656 9.0246 44.6597H8C8.24647 43.6456 8.74327 42.1678 8.9734 41.1978C9.04287 40.9136 9.07827 40.622 9.0788 40.3294C9.07253 39.2481 9.0788 38.1668 9.0788 37.0854C9.2938 37.4966 9.61507 37.83 9.90693 38.1823C10.3041 38.661 10.6019 39.1956 10.8845 39.7428Z" fill="#B0A9A5" stroke="#231F20" stroke-width="0.5" stroke-miterlimit="10"/>
<path d="M11.8369 29.996C11.7451 30.0578 11.65 30.1148 11.5521 30.1665C11.1717 30.3445 10.7358 30.2337 10.4662 29.896L10.3625 29.7667C10.2163 29.3338 10.2974 28.8874 10.2839 28.4468H12.0779C12.0779 28.7648 12.0829 29.0826 12.0821 29.401C12.0804 29.6311 11.9498 29.8108 11.8369 29.996Z" fill="#F2C89D" stroke="#231F20" stroke-width="0.5" stroke-miterlimit="10"/>
<path d="M12.8065 33.5966L12.9744 33.6339C13.2264 33.8859 13.5417 34.0538 13.8235 34.2684C14.0423 34.4335 14.2678 34.5892 14.4903 34.7492C14.0553 34.7883 13.8709 35.0298 13.8924 35.532C13.5413 35.4506 13.2175 35.2906 12.8753 35.1835C12.8047 35.1616 12.7333 35.1415 12.6624 35.1218C12.4423 34.9848 12.1782 34.9538 11.9531 34.8278C12.1989 34.4798 12.4446 34.1317 12.6901 33.7834C12.7313 33.7238 12.7674 33.6591 12.8065 33.5966Z" fill="#F2C89D" stroke="#231F20" stroke-width="0.5" stroke-miterlimit="10"/>
<path d="M12.0769 28.4466H10.2826C10.2826 28.1527 10.2754 27.8588 10.2796 27.5648C10.2826 27.3653 10.3972 27.252 10.5975 27.2494C10.9855 27.245 11.3735 27.245 11.7616 27.2494C11.9618 27.252 12.0769 27.3653 12.0798 27.5648C12.084 27.8596 12.0782 28.1531 12.0769 28.4466Z" fill="#6D6E71" stroke="#231F20" stroke-width="0.5" stroke-miterlimit="10"/>
<path d="M15.0933 35.0526V35.6527C15.0312 35.8882 14.9535 35.942 14.7188 35.955C14.3807 35.9735 14.0838 35.9206 13.9234 35.5771C13.9129 35.5636 13.9028 35.5502 13.8923 35.5372V35.5338C13.8709 35.0299 14.0552 34.7902 14.4903 34.7511L14.7104 34.7536C14.9543 34.754 15.0312 34.8141 15.0933 35.0526Z" fill="#FFC217" stroke="#231F20" stroke-width="0.5" stroke-miterlimit="10"/>
<path d="M16.7483 36.5462H24.1063C24.5187 36.6037 24.6841 36.8217 24.7131 37.2383C24.753 37.8127 24.5343 38.3301 24.3889 38.8592C24.1529 39.7247 23.8981 40.5851 23.6515 41.4477C23.5529 41.7937 23.3446 41.9516 22.9822 41.9516H18.0858C18.0047 41.9516 17.9233 41.9579 17.8422 41.9608C17.6465 41.8768 17.4706 41.7664 17.3707 41.5665C17.145 40.7644 16.9195 39.9623 16.6941 39.1603C16.5745 38.7353 16.4451 38.3129 16.3305 37.8862C16.2465 37.5805 16.2931 37.2673 16.3036 36.9569C16.4002 36.7667 16.5598 36.6411 16.7483 36.5462Z" fill="#176CF7" stroke="#231F20" stroke-width="0.5" stroke-miterlimit="10"/>
<path d="M20.4983 36.5468H16.8906C16.8906 35.5798 16.8906 34.6127 16.8906 33.6454C16.8906 33.3515 16.9885 33.2536 17.2829 33.252L17.7893 33.2482C17.7893 33.4103 17.7922 33.5724 17.7922 33.7345C17.7922 34.1645 17.7922 34.1603 18.2336 34.1544C18.3533 34.1544 18.4016 34.1208 18.3961 33.9957C18.389 33.7466 18.3961 33.4968 18.3961 33.2474H18.9912C18.9912 33.4036 18.9941 33.5594 18.9941 33.7152C18.9941 34.1636 18.9941 34.1594 19.4354 34.1544C19.5556 34.1544 19.6034 34.1204 19.598 33.9957C19.5908 33.7462 19.598 33.4968 19.598 33.2474C19.7852 33.2474 19.9725 33.2474 20.1598 33.252C20.3811 33.2566 20.487 33.3662 20.4958 33.5879C20.5075 33.8399 20.4659 34.0977 20.5192 34.3501C20.4968 34.4212 20.4888 34.496 20.4954 34.5702L20.4983 36.5468Z" fill="#FFC217" stroke="#231F20" stroke-width="0.5" stroke-miterlimit="10"/>
<path d="M20.4973 36.5462V34.5704C20.4907 34.4962 20.4989 34.4215 20.5213 34.3504C20.5759 34.2009 20.6913 34.1514 20.8409 34.1518C21.0261 34.1518 21.2113 34.1518 21.3964 34.1484C21.3964 34.3105 21.3989 34.4726 21.3989 34.6343C21.3989 35.0647 21.3989 35.0605 21.8403 35.0542C21.9604 35.0542 22.0083 35.0206 22.0028 34.8955C21.9957 34.6464 22.0028 34.397 22.0028 34.1476H22.5987C22.5987 34.3097 22.6012 34.4718 22.6012 34.6339C22.6012 35.0639 22.6012 35.0601 23.0425 35.0538C23.1627 35.0538 23.2105 35.0198 23.2051 34.895C23.1979 34.646 23.2051 34.3962 23.2051 34.1472C23.3861 34.1472 23.5675 34.1472 23.7485 34.1514C23.9929 34.1552 24.1029 34.2618 24.1033 34.5066C24.1054 35.1865 24.1033 35.866 24.1033 36.5458L20.4973 36.5462Z" fill="#FFC217" stroke="#231F20" stroke-width="0.5" stroke-miterlimit="10"/>
<path d="M17.3705 41.569C17.4704 41.7688 17.6463 41.8776 17.8421 41.9633C17.5492 42.1428 17.2563 42.3219 16.9631 42.5008C16.7351 42.6398 16.6789 42.7393 16.7301 42.914C16.7838 43.0958 16.8821 43.1538 17.1403 43.1538C19.3878 43.1538 21.6353 43.1526 23.8827 43.15C24.057 43.15 24.1196 43.1798 24.1112 43.3692C24.0944 43.7539 24.1066 43.7539 23.7156 43.7547C23.5216 43.7547 23.3276 43.7547 23.1336 43.7576C22.7977 43.347 22.4084 43.3474 22.0707 43.7576H18.6239C18.288 43.347 17.8987 43.3474 17.5611 43.7576C17.3679 43.7576 17.1743 43.7602 16.9807 43.7522C16.7893 43.7425 16.6059 43.6727 16.4564 43.5526C16.3069 43.4326 16.1992 43.2685 16.1485 43.0837C16.0385 42.7057 16.1636 42.3064 16.4873 42.0935C16.7733 41.9058 17.0757 41.7428 17.3705 41.569Z" fill="#BF9211" stroke="#231F20" stroke-width="0.5" stroke-miterlimit="10"/>
<path d="M22.0018 34.1483C22.0018 34.3977 21.9943 34.6472 22.0018 34.8962C22.0056 35.0222 21.9598 35.0537 21.8393 35.0549C21.398 35.0604 21.3984 35.0646 21.398 34.635C21.398 34.4733 21.398 34.3113 21.3955 34.1491C21.3955 33.9434 21.3954 33.7372 21.3992 33.5319C21.4064 33.2977 21.5044 33.0756 21.6726 32.9125C21.8407 32.7494 22.0658 32.6582 22.3 32.6582C22.5342 32.6582 22.7593 32.7494 22.9274 32.9125C23.0956 33.0756 23.1936 33.2977 23.2008 33.5319C23.2066 33.7372 23.2037 33.9434 23.205 34.1491C23.205 34.3982 23.1974 34.6481 23.205 34.8971C23.2087 35.0231 23.163 35.0545 23.0424 35.0558C22.6011 35.0617 22.6015 35.0655 22.6011 34.6359C22.6011 34.4738 22.6011 34.3117 22.5986 34.1496C22.5986 33.9564 22.6048 33.7628 22.5986 33.5701C22.5922 33.3773 22.4692 33.2543 22.2992 33.2543C22.1291 33.2543 22.0052 33.3803 22.0002 33.5701C21.9951 33.7599 22.001 33.9551 22.0018 34.1483Z" fill="#BF9211" stroke="#231F20" stroke-width="0.5" stroke-miterlimit="10"/>
<path d="M18.3988 33.2482C18.3988 33.4976 18.3908 33.7475 18.3988 33.9965C18.4026 34.1225 18.3568 34.1535 18.2363 34.1552C17.7949 34.1603 17.7953 34.1645 17.7949 33.7353C17.7949 33.5732 17.7949 33.4111 17.792 33.249C17.792 33.0433 17.792 32.8375 17.7962 32.6317C17.8013 32.3961 17.8984 32.1719 18.0669 32.0071C18.2353 31.8423 18.4615 31.75 18.6972 31.75C18.9328 31.75 19.1591 31.8423 19.3275 32.0071C19.4959 32.1719 19.593 32.3961 19.5981 32.6317C19.6036 32.8375 19.6011 33.0433 19.6023 33.249C19.6023 33.4985 19.5943 33.7479 19.6023 33.9973C19.6061 34.1233 19.5603 34.1544 19.4398 34.1561C18.9985 34.1611 18.9989 34.1653 18.9985 33.7168C18.9985 33.561 18.9964 33.4052 18.9955 33.249C18.9955 33.0559 19.0018 32.8627 18.9955 32.6695C18.9892 32.4763 18.8666 32.3537 18.6961 32.3537C18.5256 32.3537 18.4021 32.4797 18.3971 32.6695C18.3921 32.8593 18.3979 33.055 18.3988 33.2482Z" fill="#BF9211" stroke="#231F20" stroke-width="0.5" stroke-miterlimit="10"/>
<path d="M16.7487 36.5469C16.5606 36.6417 16.401 36.7674 16.304 36.9601C16.1159 36.6468 15.9101 36.3419 15.7438 36.0173C15.601 35.7381 15.4079 35.5974 15.0938 35.6528V35.0528C15.6397 34.9936 16.0138 35.2241 16.2591 35.7091C16.4043 35.9989 16.5841 36.268 16.7487 36.5469Z" fill="#BF9211" stroke="#231F20" stroke-width="0.5" stroke-miterlimit="10"/>
<path d="M17.5631 43.7577C17.8991 43.3475 18.2892 43.3471 18.626 43.7577C18.6831 43.898 18.7209 44.0399 18.681 44.1928C18.5971 44.5207 18.2649 44.7219 17.9483 44.6358C17.8693 44.6163 17.7953 44.5809 17.7306 44.5317C17.6659 44.4825 17.6119 44.4206 17.572 44.3499C17.5321 44.2791 17.5071 44.2009 17.4985 44.1201C17.4899 44.0393 17.4979 43.9575 17.522 43.8799C17.5346 43.8396 17.5485 43.7989 17.5631 43.7577Z" fill="#FFC217" stroke="#231F20" stroke-width="0.5" stroke-miterlimit="10"/>
<path d="M22.071 43.7577C22.4069 43.3475 22.797 43.3471 23.1338 43.7577C23.1909 43.898 23.2283 44.0399 23.1888 44.1928C23.1048 44.5207 22.7727 44.7219 22.4561 44.6358C22.3771 44.6163 22.3031 44.5809 22.2384 44.5317C22.1737 44.4825 22.1197 44.4206 22.0798 44.3499C22.0399 44.2791 22.0149 44.2009 22.0063 44.1201C21.9977 44.0393 22.0057 43.9575 22.0298 43.8799C22.042 43.8396 22.0571 43.7989 22.071 43.7577Z" fill="#FFC217" stroke="#231F20" stroke-width="0.5" stroke-miterlimit="10"/>
<path d="M13.8936 35.5364C13.9041 35.5494 13.9142 35.5629 13.9247 35.5763C13.9134 35.562 13.9032 35.5486 13.8936 35.5364Z" fill="#F2C89D"/>
<path d="M41.1325 14H6.46582V15.3333H41.1325V14Z" fill="#183E7F" stroke="#231F20" stroke-width="0.5"/>
</svg>
