<svg width="39" height="39" viewBox="0 0 39 39" fill="none" xmlns="http://www.w3.org/2000/svg">
<g clip-path="url(#clip0_1_39612)">
<path d="M38.4586 21.1996V27.1095H24.8911L26.5451 23.024L28.4862 23.8484H36.266V21.1996H38.4586Z" fill="#176CF7" stroke="#231F20" stroke-width="0.5" stroke-miterlimit="10"/>
<path d="M36.2656 14.1325V22.2908H31.5577L30.7266 23.8489H28.4858L26.5447 23.0245L30.1441 14.1325H36.2656Z" fill="white" stroke="#231F20" stroke-width="0.5" stroke-miterlimit="10"/>
<path d="M36.2653 22.2903V23.8485H30.7263L31.5574 22.2903H36.2653Z" fill="#FFC217" stroke="#231F20" stroke-width="0.5" stroke-miterlimit="10"/>
<path d="M25.5472 26.6764V14.4112H24.5678V26.387H19.1363L18.3127 26.6764H25.5472Z" fill="#176CF7" stroke="#231F20" stroke-width="0.5" stroke-miterlimit="10"/>
<path d="M20.0547 22.7406V26.3978H24.0258V22.7406H20.0547ZM23.0055 23.9962H21.0751V23.6824H23.0055V23.9962Z" fill="#FFC217" stroke="#231F20" stroke-width="0.5" stroke-miterlimit="10"/>
<path d="M24.3395 22.1122H19.7405V22.74H24.3395V22.1122Z" fill="#BF9211" stroke="#231F20" stroke-width="0.5" stroke-miterlimit="10"/>
<path d="M23.0051 23.6827H21.0745V23.9967H23.0051V23.6827Z" stroke="#231F20" stroke-width="0.5" stroke-miterlimit="10"/>
<path d="M20.0547 18.4551V22.1123H24.0258V18.4551H20.0547ZM23.0055 19.7109H21.0751V19.3969H23.0055V19.7109Z" fill="#FFC217" stroke="#231F20" stroke-width="0.5" stroke-miterlimit="10"/>
<path d="M24.3395 17.8278H19.7405V18.4557H24.3395V17.8278Z" fill="#BF9211" stroke="#231F20" stroke-width="0.5" stroke-miterlimit="10"/>
<path d="M23.0051 19.3973H21.0745V19.7112H23.0051V19.3973Z" stroke="#231F20" stroke-width="0.5" stroke-miterlimit="10"/>
<path d="M26.2592 28.2237C27.2611 28.2237 28.0734 27.4114 28.0734 26.4095C28.0734 25.4076 27.2611 24.5954 26.2592 24.5954C25.2573 24.5954 24.4451 25.4076 24.4451 26.4095C24.4451 27.4114 25.2573 28.2237 26.2592 28.2237Z" fill="#183E7F" stroke="#231F20" stroke-width="0.5" stroke-miterlimit="10"/>
<path d="M26.2492 27.3175C26.7549 27.3175 27.1649 26.9076 27.1649 26.4018C27.1649 25.8961 26.7549 25.4861 26.2492 25.4861C25.7435 25.4861 25.3335 25.8961 25.3335 26.4018C25.3335 26.9076 25.7435 27.3175 26.2492 27.3175Z" fill="#176CF7" stroke="#231F20" stroke-width="0.5" stroke-miterlimit="10"/>
<path d="M36.0092 28.2225C36.6731 28.2225 37.2112 27.6843 37.2112 27.0205C37.2112 26.3566 36.6731 25.8184 36.0092 25.8184C35.3453 25.8184 34.8071 26.3566 34.8071 27.0205C34.8071 27.6843 35.3453 28.2225 36.0092 28.2225Z" fill="#183E7F" stroke="#231F20" stroke-width="0.5" stroke-miterlimit="10"/>
<path d="M36.016 27.623C36.3531 27.623 36.6264 27.3496 36.6264 27.0125C36.6264 26.6754 36.3531 26.402 36.016 26.402C35.6788 26.402 35.4055 26.6754 35.4055 27.0125C35.4055 27.3496 35.6788 27.623 36.016 27.623Z" fill="#176CF7" stroke="#231F20" stroke-width="0.5" stroke-miterlimit="10"/>
<path d="M32.9405 19.8876C32.9405 19.7046 32.9442 19.5213 32.9419 19.3383C32.94 19.2695 32.9173 19.2029 32.8769 19.1472C32.7769 19.106 32.6785 19.0661 32.5645 19.078C32.4768 19.0872 32.3872 19.0766 32.2987 19.0807C32.1109 19.0889 31.9394 19.147 31.7969 19.2716C31.6343 19.4137 31.5107 19.5869 31.3982 19.7715C31.2807 19.9637 31.2 20.1862 30.9856 20.3046C30.9742 20.311 30.9681 20.3265 30.9594 20.3377C30.9773 20.3663 30.9939 20.3954 31.0133 20.4236C31.1253 20.5832 31.2378 20.7426 31.3507 20.9018L31.746 20.7635C31.7952 20.7493 31.8417 20.7271 31.8838 20.698C32.1244 20.5153 32.3697 20.339 32.6089 20.1546C32.721 20.0676 32.8471 19.9974 32.9405 19.8876Z" fill="#BF9211" stroke="#231F20" stroke-width="0.5" stroke-miterlimit="10"/>
<path d="M30.9594 20.3371L30.8825 20.3542C30.7671 20.4696 30.6228 20.5465 30.4938 20.6447C30.3936 20.7203 30.2903 20.7916 30.1884 20.8649C30.3876 20.8828 30.472 20.9933 30.4622 21.2233C30.623 21.186 30.7712 21.1127 30.9279 21.0637C30.9602 21.0537 30.9929 21.0445 31.0254 21.0354C31.1261 20.9728 31.247 20.9585 31.3501 20.9008C31.2376 20.7415 31.1251 20.5821 31.0127 20.4227C30.9938 20.3954 30.9773 20.3658 30.9594 20.3371Z" fill="#F2C89D" stroke="#231F20" stroke-width="0.5" stroke-miterlimit="10"/>
<path d="M29.911 21.0031V21.2778C29.9395 21.3857 29.9751 21.4103 30.0825 21.4162C30.2373 21.4247 30.3732 21.4005 30.4467 21.2432C30.4515 21.2371 30.4561 21.2309 30.4609 21.2249V21.2234C30.4707 20.9927 30.3863 20.8829 30.1871 20.865L30.0864 20.8662C29.9747 20.8664 29.9395 20.8939 29.911 21.0031Z" fill="#FFC217" stroke="#231F20" stroke-width="0.5" stroke-miterlimit="10"/>
<path d="M31.4924 20.7795L31.4884 21.161L31.6355 21.4607L31.7629 21.8399H33.2759C33.3637 21.5358 33.4516 21.232 33.5397 20.9285C33.5633 20.847 33.5497 20.7638 33.551 20.6815C33.5531 20.5588 33.551 20.4359 33.5495 20.3133C33.5495 20.1302 33.5531 19.947 33.5506 19.764C33.5487 19.6952 33.5261 19.6287 33.4856 19.5731C33.4379 19.4633 33.351 19.3914 33.2507 19.3333L32.6877 19.0092L32.6401 19.0686C32.5168 19.2224 32.3172 19.2737 32.143 19.1922C32.0983 19.1684 32.0548 19.1424 32.0127 19.1141C31.8614 19.2658 31.711 19.4187 31.5586 19.569C31.5345 19.5911 31.5156 19.6181 31.503 19.6482C31.4905 19.6783 31.4846 19.7108 31.4859 19.7434C31.4907 20.0887 31.4909 20.4342 31.4924 20.7795Z" fill="#FFC217" stroke="#231F20" stroke-width="0.5" stroke-miterlimit="10"/>
<path d="M33.5504 20.3139C33.5504 20.1308 33.554 19.9476 33.5517 19.7646C33.5498 19.6958 33.5272 19.6291 33.4867 19.5735C33.3868 19.5323 33.2883 19.4923 33.1743 19.5042C33.0866 19.5135 32.9971 19.5029 32.9086 19.5069C32.7208 19.5152 32.5493 19.5733 32.4068 19.6979C32.2441 19.8399 32.1205 20.0132 32.008 20.1977C31.8906 20.39 31.8098 20.6125 31.5954 20.7309C31.5841 20.7372 31.578 20.7528 31.5693 20.764C31.5872 20.7926 31.6037 20.8216 31.6231 20.8499C31.7352 21.0095 31.8476 21.1689 31.9606 21.3281L32.3559 21.1898C32.405 21.1755 32.4516 21.1534 32.4937 21.1243C32.7342 20.9416 32.9796 20.7653 33.2187 20.5809C33.3308 20.4938 33.4569 20.4236 33.5504 20.3139Z" fill="#BF9211" stroke="#231F20" stroke-width="0.5" stroke-miterlimit="10"/>
<path d="M32.0132 19.114C32.0552 19.1424 32.0987 19.1684 32.1436 19.1921C32.3177 19.2736 32.5173 19.2229 32.6408 19.0683L32.6882 19.0091C32.7551 18.8108 32.718 18.6065 32.7242 18.4048H31.9028C31.9028 18.5503 31.9005 18.6959 31.9009 18.8416C31.9017 18.947 31.9615 19.0293 32.0132 19.114Z" fill="#F2C89D" stroke="#231F20" stroke-width="0.5" stroke-miterlimit="10"/>
<path d="M31.5693 20.7623L31.4924 20.7794C31.377 20.8948 31.2326 20.9717 31.1036 21.0699C31.0034 21.1455 30.9002 21.2168 30.7983 21.2901C30.9975 21.3079 31.0819 21.4185 31.0721 21.6484C31.2328 21.6111 31.381 21.5379 31.5377 21.4889C31.57 21.4789 31.6027 21.4696 31.6352 21.4606C31.736 21.3979 31.8569 21.3837 31.96 21.326C31.8474 21.1667 31.7349 21.0073 31.6225 20.8479C31.6037 20.8206 31.5872 20.7909 31.5693 20.7623Z" fill="#F2C89D" stroke="#231F20" stroke-width="0.5" stroke-miterlimit="10"/>
<path d="M31.9028 18.4047H32.7244C32.7244 18.2701 32.7276 18.1355 32.7257 18.0009C32.7244 17.9096 32.6719 17.8577 32.5802 17.8565C32.4025 17.8545 32.2249 17.8545 32.0472 17.8565C31.9555 17.8577 31.9028 17.9096 31.9015 18.0009C31.8996 18.1359 31.9023 18.2703 31.9028 18.4047Z" fill="#6D6E71" stroke="#231F20" stroke-width="0.5" stroke-miterlimit="10"/>
<path d="M30.5221 21.4293V21.7041C30.5506 21.8119 30.5861 21.8366 30.6936 21.8425C30.8484 21.851 30.9843 21.8267 31.0578 21.6695C31.0626 21.6633 31.0672 21.6572 31.072 21.6512V21.6497C31.0818 21.419 30.9974 21.3092 30.7982 21.2913L30.6975 21.2924C30.5858 21.2926 30.5506 21.3201 30.5221 21.4293Z" fill="#FFC217" stroke="#231F20" stroke-width="0.5" stroke-miterlimit="10"/>
<path d="M0.393469 8.75668V21.6784V24.2868H17.4956L17.7156 21.6784V8.75668H0.393469Z" fill="#183E7F" stroke="#231F20" stroke-width="0.5" stroke-miterlimit="10" stroke-linejoin="round"/>
<path d="M14.902 22.3885H15.4144C15.5282 22.3885 15.6177 22.2421 15.6177 22.0559V11.4786C15.6177 11.2923 15.5282 11.146 15.4144 11.146H14.902C14.7882 11.146 14.6987 11.2923 14.6987 11.4786V22.0559C14.6987 22.2421 14.7882 22.3885 14.902 22.3885Z" fill="white" stroke="#231F20" stroke-width="0.5" stroke-miterlimit="10"/>
<path d="M11.86 22.3885H12.3724C12.4862 22.3885 12.5757 22.2421 12.5757 22.0559V11.4786C12.5757 11.2923 12.4862 11.146 12.3724 11.146H11.86C11.7462 11.146 11.6567 11.2923 11.6567 11.4786V22.0559C11.6567 22.2421 11.7462 22.3885 11.86 22.3885Z" fill="white" stroke="#231F20" stroke-width="0.5" stroke-miterlimit="10"/>
<path d="M8.81414 22.3885H9.32648C9.44033 22.3885 9.52979 22.2421 9.52979 22.0559V11.4786C9.52979 11.2923 9.44033 11.146 9.32648 11.146H8.81414C8.70029 11.146 8.61083 11.2923 8.61083 11.4786V22.0559C8.61083 22.2421 8.70029 22.3885 8.81414 22.3885Z" fill="white" stroke="#231F20" stroke-width="0.5" stroke-miterlimit="10"/>
<path d="M5.76898 22.3885H6.28131C6.39516 22.3885 6.48462 22.2421 6.48462 22.0559V11.4786C6.48462 11.2923 6.39516 11.146 6.28131 11.146H5.76898C5.65512 11.146 5.56567 11.2923 5.56567 11.4786V22.0559C5.56567 22.2421 5.65919 22.3885 5.76898 22.3885Z" fill="white" stroke="#231F20" stroke-width="0.5" stroke-miterlimit="10"/>
<path d="M2.72772 22.3885H3.24005C3.3539 22.3885 3.44336 22.2421 3.44336 22.0559V11.4786C3.44336 11.2923 3.3539 11.146 3.24005 11.146H2.72772C2.61386 11.146 2.52441 11.2923 2.52441 11.4786V22.0559C2.52441 22.2421 2.61386 22.3885 2.72772 22.3885Z" fill="white" stroke="#231F20" stroke-width="0.5" stroke-miterlimit="10"/>
<path d="M12.6395 30.0813C11.0032 30.0813 9.67318 28.8004 9.67318 27.2255C9.67318 25.6464 10.999 24.3697 12.6395 24.3697C14.2757 24.3697 15.6057 25.6506 15.6057 27.2255C15.6057 28.8046 14.2757 30.0813 12.6395 30.0813Z" fill="#183E7F" stroke="#231F20" stroke-width="0.5" stroke-miterlimit="10"/>
<path d="M12.6387 28.8424C11.7114 28.8424 10.9604 28.1201 10.9604 27.2255C10.9604 26.331 11.7114 25.6086 12.6387 25.6086C13.5659 25.6086 14.3169 26.331 14.3169 27.2255C14.3169 28.1201 13.5659 28.8424 12.6387 28.8424Z" fill="#307CFE" stroke="#231F20" stroke-width="0.5" stroke-miterlimit="10"/>
</g>
<defs>
<clipPath id="clip0_1_39612">
<rect width="39" height="39" fill="white"/>
</clipPath>
</defs>
</svg>
