<svg width="16" height="16" viewBox="0 0 16 16" fill="none" xmlns="http://www.w3.org/2000/svg">
<path d="M11.3145 7.01123H12.8134C12.9098 7.01114 13.005 7.03293 13.0917 7.07496C13.1785 7.11699 13.2545 7.17815 13.3141 7.25383L14.5294 8.8671C14.6539 9.03318 14.7217 9.23467 14.7231 9.44205V12.13C14.7231 12.1586 14.7117 12.1859 14.6915 12.2061C14.6713 12.2263 14.6439 12.2376 14.6153 12.2376H12.9754" stroke="#176CF7" stroke-width="1.5" stroke-linecap="round" stroke-linejoin="round"/>
<path d="M11.7235 13.3935C12.3898 13.3935 12.9299 12.8544 12.9299 12.1894C12.9299 11.5244 12.3898 10.9854 11.7235 10.9854C11.0572 10.9854 10.5171 11.5244 10.5171 12.1894C10.5171 12.8544 11.0572 13.3935 11.7235 13.3935Z" stroke="#176CF7" stroke-width="1.5" stroke-linecap="round" stroke-linejoin="round"/>
<path d="M6.61121 13.3935C7.2775 13.3935 7.81763 12.8544 7.81763 12.1894C7.81763 11.5244 7.2775 10.9854 6.61121 10.9854C5.94492 10.9854 5.40479 11.5244 5.40479 12.1894C5.40479 12.8544 5.94492 13.3935 6.61121 13.3935Z" stroke="#176CF7" stroke-width="1.5" stroke-linecap="round" stroke-linejoin="round"/>
<path d="M10.523 12.2598H7.75928" stroke="#176CF7" stroke-width="1.5" stroke-linecap="round" stroke-linejoin="round"/>
<path d="M3.90764 8.52947C5.36193 8.52947 6.54087 7.35281 6.54087 5.90133C6.54087 4.44985 5.36193 3.27319 3.90764 3.27319C2.45335 3.27319 1.27441 4.44985 1.27441 5.90133C1.27441 7.35281 2.45335 8.52947 3.90764 8.52947Z" stroke="#176CF7" stroke-width="1.5"/>
<path fill-rule="evenodd" clip-rule="evenodd" d="M4.65771 8.42132C4.42002 8.49168 4.1683 8.52945 3.90773 8.52945C3.64715 8.52945 3.39542 8.49168 3.15771 8.42131V11.2109C3.15771 11.6955 3.35062 12.16 3.69352 12.5022C4.03637 12.8444 4.50107 13.0364 4.98531 13.0364H5.41068C5.82489 13.0364 6.16068 12.7006 6.16068 12.2864C6.16068 11.8722 5.82489 11.5364 5.41068 11.5364H4.98531C4.89796 11.5364 4.81448 11.5017 4.75315 11.4405C4.69188 11.3794 4.65771 11.2967 4.65771 11.2109V8.42132ZM6.53784 5.77222H10.2518C10.295 5.77222 10.3378 5.78072 10.3776 5.79719C10.4175 5.81367 10.4536 5.83777 10.4839 5.86807C10.5143 5.89836 10.5383 5.93425 10.5546 5.97364C10.571 6.01302 10.5794 6.05519 10.5794 6.09773V9.8127C10.5794 10.2269 10.9152 10.5627 11.3294 10.5627C11.7436 10.5627 12.0794 10.2269 12.0794 9.8127V6.09773C12.0794 5.8578 12.032 5.62025 11.94 5.39866C11.8481 5.17708 11.7133 4.97583 11.5436 4.80638C11.3738 4.63694 11.1723 4.50261 10.9507 4.41098C10.7291 4.31936 10.4916 4.27222 10.2518 4.27222H5.97417C6.30412 4.68855 6.51044 5.20695 6.53784 5.77222Z" fill="#176CF7"/>
<path d="M3.90723 5.10645V6.69707" stroke="#176CF7" stroke-width="1.5" stroke-linecap="round"/>
<path d="M3.10986 5.90137H4.70357" stroke="#176CF7" stroke-width="1.5" stroke-linecap="round"/>
</svg>
