<svg width="46" height="53" viewBox="0 0 46 53" fill="none" xmlns="http://www.w3.org/2000/svg">
<g filter="url(#filter0_d_6014_29687)">
<path d="M36.3875 16.4491C36.376 25.5626 24.6881 37.2218 22.6804 37.2193C19.9074 37.2158 9.01442 25.5288 9.02597 16.4144C9.03048 12.8567 10.4762 9.44652 13.045 6.93407C15.6138 4.42163 19.0953 3.01274 22.7237 3.01734C26.3521 3.02194 29.8301 4.43965 32.3925 6.9586C34.955 9.47754 36.392 12.8914 36.3875 16.4491Z" fill="white"/>
</g>
<path d="M22.6144 35.8667C21.6961 35.6152 18.7826 33.3136 15.7396 29.2282C12.3308 24.6521 10.3786 19.9832 10.3831 16.4184C10.391 13.2164 11.6939 10.1482 14.0058 7.88697C16.3178 5.62574 19.4502 4.35604 22.7158 4.35643C25.9814 4.36432 29.1104 5.64195 31.4167 7.90904C33.7229 10.1761 35.018 13.2476 35.0177 16.4496C35.0118 21.1328 31.5627 26.3451 29.5073 29.0359C26.5064 32.9641 23.5308 35.4839 22.6144 35.8667Z" fill="#98BFFF"/>
<path d="M18.3706 20.637L17.8681 20.6373C17.3757 20.6371 16.9035 20.4558 16.5551 20.1331C16.2067 19.8104 16.0105 19.3727 16.0096 18.916L16.0052 13.3094C16.0055 12.8527 16.201 12.4148 16.5489 12.0917C16.8968 11.7685 17.3687 11.5865 17.861 11.5856L24.0782 11.5813C24.5699 11.5826 25.041 11.7644 25.3886 12.0869C25.7362 12.4094 25.932 12.8464 25.9332 13.3025L25.9364 17.3789C25.9362 17.5229 25.8745 17.6611 25.7647 17.7631C25.655 17.865 25.5062 17.9224 25.3509 17.9228C25.1955 17.9227 25.0466 17.8654 24.9367 17.7636C24.8268 17.6618 24.7648 17.5238 24.7644 17.3797L24.7613 13.3033C24.7611 13.1351 24.6892 12.9739 24.5611 12.8548C24.433 12.7358 24.2592 12.6688 24.0779 12.6684L17.863 12.6727C17.6813 12.6728 17.5071 12.7398 17.3787 12.8591C17.2503 12.9783 17.1782 13.14 17.1784 13.3086L17.1827 18.9152C17.1828 19.0837 17.2552 19.2453 17.3838 19.3644C17.5123 19.4835 17.6866 19.5504 17.8683 19.5502L18.371 19.5499C18.5264 19.5498 18.6755 19.607 18.7854 19.7088C18.8954 19.8107 18.9572 19.9489 18.9573 20.093C18.9574 20.1645 18.9423 20.2352 18.9128 20.3013C18.8833 20.3673 18.8401 20.4273 18.7856 20.4778C18.7311 20.5283 18.6665 20.5684 18.5953 20.5957C18.524 20.623 18.4477 20.637 18.3706 20.637Z" fill="#176CF7"/>
<path d="M29.2359 20.5797L27.2965 20.5811C27.141 20.5812 26.992 20.524 26.882 20.4222C26.772 20.3203 26.7101 20.1821 26.71 20.038C26.7099 19.8938 26.7716 19.7556 26.8814 19.6535C26.9912 19.5515 27.1402 19.4941 27.2956 19.494L28.7752 19.493L28.7733 16.9709C28.7713 16.8607 28.7318 16.7538 28.6604 16.6657L27.2255 14.8951C27.2103 14.8795 27.1917 14.8671 27.1709 14.8589C27.1501 14.8506 27.1276 14.8465 27.1049 14.847L25.3369 14.8483C25.1814 14.8484 25.0323 14.7913 24.9223 14.6894C24.8124 14.5876 24.7505 14.4493 24.7504 14.3051C24.7503 14.161 24.8119 14.0227 24.9217 13.9207C25.0315 13.8187 25.1806 13.7614 25.336 13.7613L27.1052 13.7601C27.3076 13.7594 27.5075 13.8015 27.6896 13.8834C27.8717 13.9654 28.0311 14.0848 28.1558 14.2327L29.5986 16.0087C29.821 16.2834 29.9425 16.6171 29.9452 16.9606L29.9475 19.9134C29.9482 20.0005 29.9302 20.087 29.8948 20.1677C29.8594 20.2484 29.8071 20.3218 29.741 20.3837C29.6748 20.4456 29.5962 20.4948 29.5095 20.5284C29.4228 20.562 29.3298 20.5795 29.2359 20.5797Z" fill="#176CF7"/>
<path d="M25.8208 21.8431C25.2882 21.8426 24.7775 21.6464 24.4006 21.2974C24.0237 20.9483 23.8113 20.4749 23.81 19.9809C23.8105 19.4869 24.0222 19.0132 24.3985 18.6636C24.7749 18.314 25.2853 18.117 25.8179 18.1158C26.3507 18.116 26.8617 18.3122 27.2388 18.6613C27.616 19.0104 27.8284 19.4839 27.8297 19.9781C27.8292 20.4723 27.6175 20.9462 27.2409 21.2958C26.8643 21.6454 26.3536 21.8422 25.8208 21.8431ZM25.8187 19.2029C25.5968 19.2033 25.384 19.2853 25.2272 19.431C25.0703 19.5767 24.9822 19.7742 24.9821 19.9801C24.9825 20.186 25.071 20.3832 25.228 20.5287C25.3851 20.6742 25.598 20.7559 25.8199 20.756C26.0421 20.7559 26.2551 20.674 26.4122 20.5282C26.5693 20.3825 26.6576 20.185 26.6578 19.9789C26.6576 19.7727 26.5691 19.5749 26.4117 19.4292C26.2544 19.2835 26.0411 19.2017 25.8187 19.2018L25.8187 19.2029Z" fill="#176CF7"/>
<path d="M19.7817 21.848C19.249 21.8478 18.7381 21.6516 18.3612 21.3025C17.9842 20.9534 17.772 20.4799 17.771 19.9858C17.7715 19.4918 17.9831 19.0181 18.3595 18.6685C18.7358 18.3189 19.2462 18.1219 19.7788 18.1207C20.3114 18.1211 20.8221 18.3175 21.199 18.6665C21.5759 19.0156 21.7883 19.489 21.7895 19.983C21.7893 20.4771 21.5778 20.9509 21.2014 21.3005C20.825 21.6502 20.3144 21.8471 19.7817 21.848ZM19.7797 19.2077C19.5577 19.2082 19.345 19.2902 19.1881 19.4359C19.0313 19.5816 18.9431 19.7791 18.943 19.985C18.9435 20.1909 19.0319 20.3881 19.189 20.5336C19.346 20.679 19.5589 20.7608 19.7809 20.7609C20.0029 20.7608 20.2158 20.6788 20.3728 20.533C20.5297 20.3873 20.6177 20.1898 20.6175 19.9838C20.6174 19.7777 20.5291 19.5801 20.372 19.4344C20.2149 19.2887 20.0018 19.2068 19.7797 19.2067L19.7797 19.2077Z" fill="#176CF7"/>
<path d="M24.3977 20.602L21.1376 20.6042C20.9822 20.6044 20.8331 20.5472 20.7231 20.4453C20.6131 20.3434 20.5513 20.2053 20.5512 20.0611C20.5511 19.917 20.6127 19.7787 20.7225 19.6767C20.8323 19.5747 20.9813 19.5173 21.1367 19.5172L24.3969 19.5149C24.5523 19.5148 24.7014 19.572 24.8114 19.6738C24.9214 19.7757 24.9832 19.9139 24.9833 20.058C24.9834 20.2022 24.9218 20.3404 24.812 20.4425C24.7022 20.5445 24.5531 20.6019 24.3977 20.602Z" fill="#176CF7"/>
<defs>
<filter id="filter0_d_6014_29687" x="0.0273438" y="0.0170898" width="45.3594" height="52.2021" filterUnits="userSpaceOnUse" color-interpolation-filters="sRGB">
<feFlood flood-opacity="0" result="BackgroundImageFix"/>
<feColorMatrix in="SourceAlpha" type="matrix" values="0 0 0 0 0 0 0 0 0 0 0 0 0 0 0 0 0 0 127 0" result="hardAlpha"/>
<feOffset dy="6"/>
<feGaussianBlur stdDeviation="4.5"/>
<feColorMatrix type="matrix" values="0 0 0 0 0 0 0 0 0 0 0 0 0 0 0 0 0 0 0.161 0"/>
<feBlend mode="normal" in2="BackgroundImageFix" result="effect1_dropShadow_6014_29687"/>
<feBlend mode="normal" in="SourceGraphic" in2="effect1_dropShadow_6014_29687" result="shape"/>
</filter>
</defs>
</svg>
