<svg width="92" height="91" viewBox="0 0 92 91" fill="none" xmlns="http://www.w3.org/2000/svg">
<path d="M76.052 65.9709C74.6768 65.9707 73.3277 65.5947 72.1492 64.8838L48.7092 50.8222C48.1488 50.4852 47.6853 50.0077 47.3644 49.4369C47.0435 48.866 46.8763 48.2215 46.8787 47.5662C46.8811 46.9109 47.0531 46.2672 47.3783 45.6988C47.7035 45.1304 48.1706 44.6567 48.7334 44.3238L50.636 43.212L67.4508 52.9475L67.4765 43.1204L86.1464 54.3257C86.7458 54.6842 87.2414 55.1932 87.585 55.8023C87.9286 56.4114 88.1081 57.0998 88.1057 57.7995C88.1032 58.4993 87.9189 59.1865 87.5711 59.7932C87.2233 60.3999 86.724 60.9052 86.1222 61.2594L79.8586 64.9313C78.7053 65.6132 77.3908 65.9724 76.052 65.9709Z" fill="#5680C0"/>
<path d="M75.3297 55.3924C75.015 55.1669 74.6459 55.0298 74.2605 54.9958C73.8752 54.9618 73.4878 55.032 73.1386 55.199L70.7782 56.5758C71.1273 56.4088 71.5148 56.3386 71.9001 56.3726C72.2854 56.4066 72.6545 56.5437 72.9692 56.7692C73.8583 57.3533 74.5983 58.1384 75.1296 59.0615C75.661 59.9846 75.969 61.0198 76.0286 62.084C76.0645 62.4654 75.9987 62.8494 75.8379 63.1969C75.6771 63.5443 75.4272 63.8429 75.1136 64.0616L77.4983 62.6848C77.805 62.4601 78.0482 62.1595 78.2044 61.8122C78.3605 61.465 78.4242 61.0829 78.3891 60.7036C78.3288 59.6401 78.0207 58.6053 77.4893 57.6829C76.958 56.7605 76.2183 55.9761 75.3297 55.3924Z" fill="#535353"/>
<path d="M72.9687 56.7695C73.8578 57.3535 74.5977 58.1386 75.129 59.0617C75.6604 59.9848 75.9684 61.0201 76.0281 62.0842C76.004 64.0404 74.6308 64.8382 72.9444 63.848C72.0553 63.2639 71.3154 62.4788 70.784 61.5557C70.2527 60.6326 69.9447 59.597 69.885 58.5328C69.885 56.5759 71.2823 55.8034 72.9687 56.7695Z" fill="#404141"/>
<path d="M57.4061 45.0291C57.0933 44.8006 56.7256 44.6601 56.3405 44.6215C55.9554 44.5828 55.5668 44.6477 55.2151 44.8096L52.8546 46.1863C53.2078 46.0306 53.5951 45.969 53.979 46.0075C54.3629 46.046 54.7303 46.1835 55.0457 46.4063C55.9367 46.9882 56.6781 47.7728 57.2096 48.6964C57.7411 49.62 58.0477 50.6562 58.1044 51.7211C58.1359 52.099 58.0681 52.4787 57.9075 52.8221C57.7469 53.1655 57.4992 53.4605 57.1893 53.6779L59.574 52.3011C59.8764 52.0782 60.117 51.7813 60.2729 51.4389C60.4289 51.0965 60.4948 50.7202 60.4648 50.345C60.4053 49.2807 60.0977 48.2453 59.5665 47.3221C59.0352 46.3989 58.2952 45.6134 57.4061 45.0291Z" fill="#535353"/>
<path d="M55.0458 46.4057C55.937 46.9875 56.6785 47.7721 57.2101 48.6955C57.7418 49.619 58.0485 50.6554 58.1052 51.7202C58.0811 53.6529 56.7079 54.4498 55.0216 53.4596C54.1332 52.8805 53.3934 52.0997 52.8619 51.1805C52.3304 50.2614 52.0221 49.2296 51.9622 48.1688C51.9622 46.2126 53.3353 45.4156 55.0458 46.4057Z" fill="#404141"/>
<path d="M86.6753 48.5321C86.3669 48.3034 86.0027 48.1624 85.6211 48.1237C85.2395 48.085 84.8544 48.1503 84.5067 48.3125L82.1462 49.6893C82.4954 49.533 82.8792 49.4712 83.2596 49.5098C83.64 49.5483 84.0036 49.6861 84.3145 49.9092C85.2107 50.4857 85.9565 51.2689 86.4888 52.1936C87.021 53.1183 87.3247 54.1575 87.3742 55.224C87.4149 55.6004 87.3534 55.9807 87.1966 56.3251C87.0398 56.6695 86.7933 56.9651 86.483 57.1808C87.2777 56.7216 88.073 56.2625 88.8435 55.8041C89.1537 55.5884 89.4003 55.2929 89.5571 54.9487C89.7139 54.6044 89.7752 54.2242 89.7347 53.8479C89.6852 52.7813 89.3815 51.742 88.8492 50.8172C88.3169 49.8924 87.5716 49.1086 86.6753 48.5321Z" fill="#535353"/>
<path d="M84.3153 49.9087C85.2115 50.485 85.9569 51.2686 86.4892 52.1931C87.0215 53.1177 87.3251 54.1567 87.3747 55.2232C87.3747 57.1794 86.0016 57.9525 84.3153 56.9865C83.4246 56.4041 82.6836 55.6195 82.152 54.696C81.6205 53.7726 81.3134 52.7364 81.2559 51.6717C81.2559 49.7156 82.6289 48.9186 84.3153 49.9087Z" fill="#535353"/>
<path d="M84.3153 55.2957C85.2071 55.8274 85.9294 55.4166 85.9294 54.3781C85.9009 53.8162 85.7396 53.2693 85.459 52.7821C85.1784 52.2949 84.7865 51.8813 84.3153 51.5759C83.4243 51.0683 82.7013 51.4792 82.7013 52.4935C82.7299 53.0554 82.8911 53.6024 83.1717 54.0895C83.4523 54.5767 83.8443 54.9902 84.3153 55.2957Z" fill="#FEFEFE"/>
<path fill-rule="evenodd" clip-rule="evenodd" d="M79.0159 58.5818L92.0007 51.0924V53.0736L78.9917 60.5622L79.0159 58.5818Z" fill="url(#paint0_linear_10_1059)"/>
<path d="M67.5003 37.8305L81.6655 29.5685L81.6173 44.6907L67.4486 52.9527L67.5003 37.8305Z" fill="#333D63"/>
<path d="M67.5005 37.8305L67.4524 52.9527L47.8912 41.6228L47.9394 26.5247L67.5005 37.8305Z" fill="#2A3349"/>
<path fill-rule="evenodd" clip-rule="evenodd" d="M67.5004 37.8275L49.6018 27.4906H50.084C55.8661 27.4906 61.6233 26.2105 66.0054 23.6494C66.8798 23.1487 67.7104 22.5749 68.4886 21.9341L81.6655 29.5678L67.5004 37.8275Z" fill="url(#paint1_linear_10_1059)"/>
<path d="M77.377 45.706L68.5361 40.5843V54.4996L70.1502 55.4422C70.7761 54.5245 71.9571 54.3554 73.3301 55.1493C74.7932 56.0863 75.9101 57.4777 76.5101 59.1113L78.9932 60.5607L79.0174 58.5795V52.758L77.377 45.706Z" fill="#4572AD"/>
<path d="M76.8955 46.2148C76.8901 46.1852 76.8789 46.157 76.8623 46.1319C76.8458 46.1067 76.8243 46.0848 76.7992 46.0682L70.7767 42.5894C70.7441 42.572 70.708 42.5627 70.6711 42.5622C70.6343 42.5617 70.5979 42.5701 70.5649 42.5865C70.5319 42.603 70.5032 42.6272 70.4814 42.657C70.4596 42.6868 70.4451 42.7213 70.4393 42.7578V47.4693C70.4463 47.5436 70.4806 47.6126 70.5356 47.6628L77.8591 51.8901C77.8874 51.9092 77.9214 51.9179 77.9554 51.9144H77.9796C78.007 51.9176 78.0343 51.9148 78.0606 51.9065C78.0868 51.8983 78.1112 51.8847 78.1319 51.8665C78.1526 51.8483 78.1693 51.8258 78.1808 51.8007C78.1922 51.7756 78.1983 51.7485 78.1986 51.7209C78.1976 51.6761 78.1806 51.6332 78.1504 51.6001L76.8955 46.2148Z" fill="#363435"/>
<path d="M79.0151 52.7594L91.9992 45.27V51.0919L79.0151 58.5802V52.7594Z" fill="#D5E9F8"/>
<path d="M68.5361 40.5835L81.5209 33.0948L90.3582 38.2163L77.3742 45.705L68.5361 40.5835Z" fill="#D5E9F8"/>
<path fill-rule="evenodd" clip-rule="evenodd" d="M90.5554 44.4248H90.5311C90.4971 44.4283 90.4632 44.4196 90.4348 44.4005L85.5203 41.5493L89.5679 39.2059L90.724 44.1126C90.7431 44.141 90.7518 44.1755 90.7483 44.2095C90.7491 44.2632 90.7295 44.3152 90.6937 44.3551C90.658 44.395 90.6086 44.4198 90.5554 44.4248ZM90.3624 38.2164L77.3777 45.7051L79.016 52.7585L92 45.2698L90.3624 38.2164Z" fill="url(#paint2_linear_10_1059)"/>
<path d="M91.4456 44.884L90.1208 39.2074C90.1165 39.1741 90.1029 39.1428 90.0816 39.1169C90.0603 39.091 90.032 39.0713 90.0003 39.0607C89.9689 39.0469 89.9344 39.0418 89.9004 39.0461C89.8664 39.0503 89.8343 39.0639 89.8073 39.0851L89.5666 39.2059L90.7228 44.113C90.7418 44.1414 90.7501 44.1755 90.7467 44.2096C90.7486 44.264 90.7297 44.3171 90.6939 44.358C90.658 44.3989 90.6078 44.4241 90.5537 44.4292H90.5313C90.4973 44.4327 90.4633 44.4243 90.435 44.4052L85.5204 41.5547L86.7247 40.8538L78.0283 45.8546C77.9898 45.8804 77.9599 45.9173 77.9427 45.9604C77.9255 46.0036 77.9218 46.051 77.932 46.0963L79.2568 51.773C79.2829 51.832 79.3246 51.8824 79.3774 51.9193L79.4737 51.9436C79.5098 51.9377 79.5436 51.9212 79.5703 51.896L91.35 45.1315C91.3896 45.1052 91.4199 45.0675 91.4371 45.0232C91.4542 44.9788 91.4571 44.9302 91.4456 44.884Z" fill="#363435"/>
<path d="M91.4459 44.8842L91.2529 44.0624L79.1116 51.0676L79.2578 51.7685C79.2837 51.8275 79.3255 51.8783 79.3783 51.9151L79.4746 51.9391C79.5108 51.9329 79.5443 51.9162 79.5709 51.8908L91.3506 45.1266C91.3892 45.1007 91.4193 45.0634 91.4362 45.0201C91.4532 44.9767 91.4565 44.9295 91.4459 44.8842Z" fill="#535353"/>
<path d="M55.0216 51.7926C55.9134 52.3243 56.6357 51.9135 56.6357 50.875C56.6175 50.3108 56.4608 49.7596 56.1792 49.2707C55.8976 48.7819 55.4999 48.3705 55.0216 48.0728C54.1299 47.541 53.4076 47.976 53.4076 48.9904C53.4361 49.5523 53.5973 50.0992 53.878 50.5864C54.1586 51.0736 54.5505 51.4871 55.0216 51.7926Z" fill="#FEFEFE"/>
<path d="M72.9451 62.18C73.8369 62.6868 74.5593 62.2767 74.5834 61.2623C74.5548 60.7005 74.3936 60.1535 74.113 59.6663C73.8324 59.1792 73.4404 58.7657 72.9693 58.4601C72.0535 57.9284 71.3311 58.3396 71.3311 59.3781C71.3596 59.94 71.5208 60.4869 71.8014 60.9741C72.082 61.4613 72.474 61.8745 72.9451 62.18Z" fill="#FEFEFE"/>
<path d="M81.0389 54.2562L79.7141 55.0297C79.6363 55.079 79.5716 55.1462 79.5254 55.226C79.4793 55.3059 79.4531 55.3959 79.4491 55.4882V56.8167C79.4468 56.9138 79.4705 57.0099 79.5176 57.0949C79.5647 57.1798 79.6337 57.2505 79.7173 57.2998C79.8009 57.3491 79.896 57.3752 79.993 57.3753C80.0899 57.3753 80.185 57.3494 80.2686 57.3002L81.5935 56.5517C81.6756 56.5011 81.7431 56.4297 81.7896 56.345C81.8361 56.2602 81.8598 56.1649 81.8584 56.0682V54.7397C81.8607 54.6425 81.8371 54.5464 81.79 54.4615C81.7428 54.3765 81.6742 54.3058 81.5906 54.2565C81.5071 54.2073 81.4119 54.1811 81.3149 54.1811C81.218 54.1811 81.1225 54.207 81.0389 54.2562Z" fill="#F3C83F"/>
<path d="M89.1816 49.8841V51.2369C89.1798 51.3308 89.2033 51.4234 89.2494 51.5051C89.2955 51.5869 89.3626 51.6549 89.4437 51.7018C89.5249 51.7487 89.6172 51.7729 89.7108 51.7719C89.8045 51.7709 89.896 51.7447 89.9761 51.6961L91.3252 50.9476C91.4074 50.897 91.4752 50.8257 91.5217 50.7409C91.5682 50.6562 91.5916 50.5608 91.5902 50.4641V49.1356C91.5925 49.0384 91.5688 48.9423 91.5217 48.8574C91.4746 48.7725 91.4059 48.7018 91.3224 48.6525C91.2388 48.6032 91.1436 48.5771 91.0467 48.577C90.9498 48.577 90.8543 48.6029 90.7707 48.6521L89.4466 49.4256C89.3652 49.471 89.2978 49.5373 89.2512 49.618C89.2045 49.6987 89.1804 49.7908 89.1816 49.8841Z" fill="#F3C83F"/>
<path d="M56.7322 77.3509C55.7767 77.3404 54.8308 77.1604 53.9379 76.8192C53.8607 76.1847 53.647 75.5748 53.3113 75.0315C53.424 75.0815 53.5293 75.1466 53.6246 75.225C54.0384 75.4804 54.5119 75.6222 54.9976 75.6358C56.0091 75.6358 56.7081 74.8381 56.7081 73.4612C56.6535 72.3958 56.3478 71.3587 55.816 70.4348C55.2842 69.5109 54.5414 68.7267 53.6487 68.1464C53.2362 67.8881 52.7619 67.7461 52.2757 67.7356C51.2642 67.7356 50.5893 68.5326 50.5652 69.9102C50.6217 71.1398 51.0224 72.3284 51.7213 73.3404C51.6628 73.2916 51.5978 73.2513 51.5284 73.2198L37.9176 65.0302L40.2549 63.6774C40.565 63.4567 40.8108 63.1573 40.9674 62.8099C41.124 62.4624 41.1856 62.0794 41.1459 61.7002C41.0859 60.6394 40.7777 59.6076 40.2462 58.6884C39.7146 57.7693 38.9748 56.9885 38.0865 56.4094C37.6754 56.1449 37.2014 55.9945 36.7133 55.9742C36.4326 55.969 36.1565 56.0455 35.9181 56.1941L33.5575 57.5709C33.7944 57.4194 34.0713 57.343 34.3522 57.3513C34.5818 57.3584 34.809 57.3988 35.0269 57.4718C34.809 57.3988 34.5818 57.3584 34.3522 57.3513C33.3406 57.3513 32.6658 58.1487 32.6417 59.5256C32.6796 60.5176 32.9521 61.4862 33.4369 62.3518L27.5833 58.8247C27.5971 58.1887 27.7754 57.5671 28.1005 57.0209C28.4257 56.4747 28.8867 56.0225 29.4384 55.7085L36.3036 51.6746C37.3923 51.036 38.632 50.7021 39.8933 50.7084C41.1658 50.6991 42.4163 51.042 43.5071 51.6993L66.8504 65.7104C67.4477 66.0687 67.9414 66.5772 68.2826 67.1856C68.6238 67.7939 68.8008 68.4809 68.7959 69.1789C68.7911 69.8768 68.6046 70.5615 68.255 71.165C67.9053 71.7685 67.4045 72.2699 66.8023 72.6198L60.5629 76.3153C59.3961 76.9852 58.0766 77.3419 56.7322 77.3509ZM37.9176 65.031C38.2176 64.8183 38.456 64.5297 38.6084 64.1945C38.7608 63.8594 38.8218 63.4897 38.7853 63.1231C38.8218 63.4897 38.7608 63.8594 38.6084 64.1945C38.456 64.5297 38.2176 64.8183 37.9176 65.031Z" fill="#5680C0"/>
<path d="M56.0085 66.7708C55.6976 66.5476 55.3337 66.4099 54.9533 66.3713C54.5729 66.3328 54.1891 66.3946 53.8399 66.5508L51.4795 67.928C51.8286 67.7717 52.2124 67.7096 52.5928 67.7481C52.9733 67.7867 53.3368 67.9244 53.6477 68.1476C54.5404 68.7278 55.2834 69.512 55.8152 70.4359C56.3471 71.3598 56.6529 72.397 56.7075 73.4623C56.7443 73.8413 56.6812 74.2236 56.5249 74.5706C56.3686 74.9175 56.1243 75.2172 55.8163 75.4399C56.6109 74.9807 57.3821 74.5223 58.1767 74.0631C58.4848 73.8405 58.7293 73.5408 58.8857 73.1938C59.0421 72.8468 59.1049 72.4645 59.0679 72.0855C59.0134 71.0202 58.7075 69.983 58.1757 69.0591C57.6438 68.1352 56.9013 67.3509 56.0085 66.7708Z" fill="#535353"/>
<path d="M53.6486 68.1464C54.5414 68.7266 55.2839 69.5109 55.8158 70.4348C56.3476 71.3587 56.6535 72.3962 56.708 73.4616C56.708 75.4185 55.3348 76.191 53.6244 75.2242C52.7354 74.6402 51.9953 73.8553 51.464 72.9323C50.9326 72.0094 50.6247 70.9742 50.5649 69.9102C50.589 67.954 51.9622 67.1563 53.6486 68.1464Z" fill="#404141"/>
<path d="M38.0855 56.4072C37.7798 56.1729 37.4153 56.0283 37.0324 55.9895C36.6495 55.9507 36.2634 56.019 35.9171 56.1873L33.5566 57.5644C33.9029 57.3961 34.2889 57.3275 34.6718 57.3663C35.0546 57.4051 35.4193 57.5496 35.725 57.784C36.617 58.3592 37.3597 59.1391 37.8917 60.0591C38.4237 60.9791 38.7297 62.0128 38.7845 63.0748C38.8242 63.4541 38.7625 63.837 38.606 64.1845C38.4494 64.532 38.2035 64.8313 37.8935 65.052L40.2539 63.6753C40.564 63.4546 40.81 63.1552 40.9666 62.8077C41.1232 62.4602 41.1847 62.0773 41.1449 61.698C41.0849 60.6372 40.7768 59.6054 40.2453 58.6863C39.7138 57.7671 38.9738 56.9863 38.0855 56.4072Z" fill="#535353"/>
<path d="M35.7258 57.7843C36.6177 58.3596 37.3605 59.1395 37.8924 60.0595C38.4244 60.9794 38.7304 62.0131 38.7852 63.0752C38.7852 65.0321 37.4122 65.8291 35.7017 64.8389C34.8128 64.255 34.0731 63.4698 33.5417 62.547C33.0104 61.6241 32.7023 60.5891 32.6423 59.5252C32.6664 57.591 34.0394 56.7934 35.7258 57.7843Z" fill="#404141"/>
<path d="M67.3797 59.9105C67.0697 59.676 66.7013 59.5312 66.3149 59.4925C65.9285 59.4537 65.5389 59.5223 65.1887 59.6906L62.8282 61.0677C63.1784 60.8994 63.568 60.8309 63.9544 60.8696C64.3409 60.9084 64.7093 61.0528 65.0193 61.2873C65.9076 61.8665 66.6472 62.6472 67.1786 63.5663C67.71 64.4855 68.0182 65.5174 68.078 66.5781C68.1177 66.9574 68.0563 67.3403 67.8997 67.6878C67.7431 68.0353 67.4972 68.3346 67.1872 68.5553C67.9584 68.0969 68.753 67.6378 69.5476 67.1786C69.8577 66.9578 70.1036 66.6585 70.2601 66.311C70.4167 65.9635 70.4782 65.5806 70.4384 65.2013C70.3786 64.1406 70.0708 63.1087 69.5394 62.1896C69.008 61.2704 68.268 60.4897 67.3797 59.9105Z" fill="#535353"/>
<path d="M65.0188 61.2866C65.9072 61.8657 66.647 62.6465 67.1785 63.5656C67.71 64.4848 68.0183 65.5166 68.0782 66.5774C68.0782 68.5344 66.681 69.3313 64.9946 68.3412C64.1035 67.7595 63.3619 66.9751 62.8303 66.0517C62.2986 65.1284 61.992 64.0921 61.9352 63.0274C61.9352 61.0932 63.3325 60.2957 65.0188 61.2866Z" fill="#535353"/>
<path d="M64.9945 66.6738C65.8863 67.2048 66.6328 66.7706 66.6328 65.7555C66.6043 65.1936 66.4431 64.6466 66.1625 64.1595C65.8818 63.6723 65.4899 63.2588 65.0188 62.9533C64.127 62.4215 63.3805 62.8327 63.3805 63.872C63.4091 64.4338 63.5703 64.9808 63.8509 65.468C64.1315 65.9551 64.5235 66.3683 64.9945 66.6738Z" fill="#FEFEFE"/>
<path fill-rule="evenodd" clip-rule="evenodd" d="M59.6952 69.9595L72.6792 62.4701V64.4512L59.6952 71.9399V69.9595Z" fill="url(#paint3_linear_10_1059)"/>
<path d="M48.1805 49.2078L62.3699 40.946L62.3217 56.0682L48.1323 64.3304L48.1805 49.2078Z" fill="#333D63"/>
<path d="M48.1797 49.2082L48.1316 64.3304L28.5947 53.0003L28.6188 37.8781L48.1797 49.2082Z" fill="#36487D"/>
<path fill-rule="evenodd" clip-rule="evenodd" d="M28.6188 37.8788L42.808 29.6168L62.3689 40.9467L48.1797 49.2087L28.6188 37.8788Z" fill="url(#paint4_linear_10_1059)"/>
<path d="M58.0569 57.0835L49.2161 51.9618V65.8771L50.8301 66.7947C51.456 65.9012 52.6612 65.7313 54.0343 66.5018C55.4861 67.4557 56.5926 68.8532 57.19 70.4873L59.6952 71.9367V69.9556L59.7191 64.1098L58.0569 57.0835Z" fill="#4572AD"/>
<path d="M57.5755 57.5669C57.5709 57.5402 57.5599 57.5151 57.5431 57.4939C57.5262 57.4728 57.5042 57.4564 57.4792 57.446L51.4567 53.9429C51.3857 53.9184 51.3087 53.9184 51.2377 53.9429C51.2064 53.964 51.1812 53.993 51.1643 54.0269C51.1474 54.0608 51.1392 54.0985 51.1411 54.1363L51.1172 58.8471C51.1176 58.8842 51.1295 58.92 51.1511 58.9501C51.1726 58.9802 51.2028 59.0032 51.2377 59.0156L58.5366 63.2675C58.5736 63.2869 58.6155 63.2955 58.6571 63.2918C58.7152 63.2918 58.7712 63.2687 58.8123 63.2275C58.8533 63.1863 58.8764 63.1305 58.8764 63.0723C58.8799 63.0382 58.8712 63.0038 58.8522 62.9754L57.5755 57.5669Z" fill="#363435"/>
<path d="M59.7194 64.1126L72.7042 56.6483L72.6799 62.4701L59.6952 69.9584L59.7194 64.1126Z" fill="#D5E9F8"/>
<path d="M49.2161 51.962L62.2251 44.4733L71.0659 49.5949L58.0569 57.0833L49.2161 51.962Z" fill="#D5E9F8"/>
<path fill-rule="evenodd" clip-rule="evenodd" d="M71.2339 55.8039C71.1857 55.8039 71.1608 55.7798 71.1133 55.7557L66.1988 52.9295L70.2706 50.5857L71.4268 55.4657C71.4268 55.5133 71.4507 55.5389 71.4507 55.5865C71.4501 55.644 71.427 55.6989 71.3865 55.7396C71.3459 55.7802 71.2912 55.8034 71.2339 55.8039ZM71.0652 49.5948L58.0569 57.0842L59.7191 64.1151L72.7042 56.6504L71.0652 49.5948Z" fill="url(#paint5_linear_10_1059)"/>
<path d="M72.1497 56.2616L70.8249 50.5849C70.8056 50.522 70.7623 50.4691 70.7043 50.4383C70.6423 50.4141 70.5738 50.4141 70.5118 50.4383L70.2707 50.5849L71.4268 55.4648C71.4268 55.5124 71.4511 55.5377 71.4511 55.5853C71.4511 55.6436 71.428 55.6997 71.3869 55.7409C71.3458 55.7821 71.2899 55.8052 71.2318 55.8052C71.1836 55.8052 71.1587 55.7811 71.1112 55.757L66.1967 52.9304L67.4252 52.2306L58.7281 57.231C58.6878 57.2492 58.6559 57.282 58.6382 57.3226C58.6205 57.3632 58.6185 57.409 58.6325 57.451L59.9573 63.1276C59.9579 63.1621 59.9704 63.1954 59.9923 63.222C60.0142 63.2487 60.0442 63.2668 60.0779 63.2739L60.151 63.2982C60.1926 63.3019 60.2345 63.2933 60.2715 63.2739L72.0513 56.4854C72.0908 56.465 72.1221 56.4318 72.1401 56.391C72.158 56.3502 72.1613 56.3046 72.1497 56.2616Z" fill="#363435"/>
<path d="M72.1497 56.2624L71.9571 55.4406L59.7915 62.4458L59.9602 63.1224C59.9608 63.1569 59.9729 63.1902 59.9948 63.2168C60.0167 63.2434 60.0471 63.2619 60.0807 63.269L60.1538 63.2933C60.1955 63.297 60.2373 63.2884 60.2744 63.269L72.0541 56.4805C72.0919 56.4599 72.1217 56.4274 72.139 56.3879C72.1563 56.3484 72.1601 56.3043 72.1497 56.2624Z" fill="#535353"/>
<path d="M35.7258 63.1709C36.6168 63.7019 37.3398 63.2677 37.3398 62.2526C37.3112 61.6907 37.15 61.1437 36.8694 60.6566C36.5888 60.1694 36.1968 59.7559 35.7258 59.4503C34.8347 58.9186 34.1117 59.3298 34.0876 60.3683C34.1157 60.9332 34.2793 61.4828 34.5644 61.9708C34.8496 62.4587 35.248 62.8703 35.7258 63.1709Z" fill="#FEFEFE"/>
<path d="M53.6493 73.5582C54.5403 74.065 55.2634 73.6548 55.2634 72.6155C55.229 72.055 55.0652 71.5101 54.7851 71.0238C54.5051 70.5375 54.1163 70.1232 53.6493 69.8133C52.7576 69.3058 52.0353 69.7167 52.0353 70.7552C52.0593 71.3182 52.2186 71.8672 52.4996 72.3552C52.7806 72.8432 53.175 73.2559 53.6493 73.5582Z" fill="#FEFEFE"/>
<path d="M61.7432 65.6349L60.4184 66.3833C60.3361 66.4339 60.2684 66.5049 60.2219 66.5897C60.1754 66.6744 60.1519 66.7697 60.1534 66.8665L60.1292 68.195C60.1269 68.2922 60.1505 68.3883 60.1976 68.4732C60.2448 68.5581 60.3138 68.6288 60.3974 68.6781C60.4809 68.7274 60.5761 68.7535 60.673 68.7536C60.77 68.7536 60.8651 68.7277 60.9487 68.6785L62.2735 67.905C62.3583 67.8613 62.4301 67.796 62.4814 67.7154C62.5328 67.6349 62.5617 67.542 62.5656 67.4465V66.094C62.5648 65.9981 62.5388 65.904 62.49 65.8215C62.4412 65.739 62.3714 65.6708 62.2878 65.6241C62.2042 65.5775 62.1099 65.554 62.0143 65.5558C61.9186 65.5577 61.825 65.585 61.7432 65.6349Z" fill="#F3C83F"/>
<path d="M69.8611 61.2623V62.5909C69.8589 62.688 69.8827 62.7839 69.9299 62.8687C69.9771 62.9536 70.0461 63.0244 70.1296 63.0736C70.2132 63.1228 70.3081 63.1487 70.4049 63.1487C70.5018 63.1487 70.5971 63.1228 70.6806 63.0736L72.0054 62.3008C72.0902 62.2571 72.162 62.1918 72.2133 62.1113C72.2647 62.0308 72.2936 61.9379 72.2975 61.8424V60.4892C72.2962 60.3939 72.2699 60.3004 72.2212 60.2185C72.1725 60.1366 72.1034 60.069 72.0204 60.0225C71.9374 59.976 71.8434 59.9525 71.7483 59.9539C71.6533 59.9553 71.5603 59.9818 71.4787 60.0307L70.13 60.7792C70.047 60.8293 69.9785 60.9 69.9313 60.9848C69.8842 61.0696 69.86 61.1653 69.8611 61.2623Z" fill="#F3C83F"/>
<path d="M38.7371 87.9564C36.9966 87.9569 35.289 87.4809 33.7985 86.5796L4.11933 68.751C3.41025 68.3259 2.82357 67.7232 2.41703 67.002C2.01048 66.2808 1.798 65.4659 1.80044 64.6375C1.80287 63.809 2.02016 62.9953 2.43093 62.2765C2.8417 61.5577 3.43184 60.9585 4.1434 60.5375L12.8637 55.4408C14.237 54.6338 15.8001 54.2084 17.3919 54.2089C19.014 54.2018 20.6065 54.6449 21.9931 55.4891L27.5825 58.8228C27.5506 59.4971 27.7046 60.1675 28.0276 60.7599C28.3506 61.3523 28.83 61.8437 29.4134 62.1807L52.8533 76.2648C53.2045 76.4689 53.5664 76.6541 53.9372 76.8198C54.1023 77.8273 53.958 78.8613 53.5233 79.7847C53.0887 80.7081 52.3843 81.4772 51.5036 81.9897L43.5538 86.6279C42.0977 87.4996 40.433 87.9588 38.7371 87.9564Z" fill="#5680C0"/>
<path d="M53.9371 76.8197C53.5663 76.6538 53.2044 76.468 52.8532 76.2636L29.4134 62.1806C28.83 61.8436 28.3505 61.3519 28.0275 60.7595C27.7045 60.1671 27.5506 59.4971 27.5825 58.8227L33.4362 62.3491C33.9591 63.3645 34.7402 64.2234 35.7003 64.8391C36.1128 65.1006 36.5858 65.2507 37.0733 65.2743C37.3711 65.2719 37.6627 65.1883 37.9169 65.0326L37.8928 65.0569L37.9169 65.0326L51.5277 73.2214C51.5971 73.2531 51.6619 73.294 51.7204 73.343C52.148 73.9954 52.6861 74.5674 53.3104 75.0338C53.646 75.5764 53.8599 76.186 53.9371 76.8197Z" fill="#6292CC"/>
<path d="M53.3109 75.0318C52.6865 74.5656 52.1485 73.9932 51.7211 73.3407C52.386 73.7594 52.9331 74.3416 53.3109 75.0318Z" fill="#50606A"/>
<path d="M37.8936 65.0547L37.917 65.0311L37.8936 65.0547Z" fill="#5F6F79"/>
<path d="M37.0748 65.2724C36.5873 65.2487 36.1143 65.0987 35.7018 64.8371C34.7418 64.2212 33.9608 63.3624 33.4376 62.3471L37.9183 65.0292C37.6643 65.1854 37.3727 65.2695 37.0748 65.2724Z" fill="#50606A"/>
<path d="M8.45453 61.5049C8.1445 61.2703 7.7761 61.1256 7.38967 61.0868C7.00325 61.0481 6.61368 61.1166 6.26348 61.285L3.92639 62.6621C4.27267 62.4938 4.65884 62.4252 5.04171 62.464C5.42458 62.5028 5.7891 62.6473 6.0948 62.8817C6.98319 63.4607 7.72312 64.2415 8.25464 65.1607C8.78616 66.0799 9.0943 67.1117 9.15421 68.1725C9.19446 68.5524 9.13317 68.9361 8.97643 69.2843C8.8197 69.6325 8.57322 69.9326 8.26249 70.1536L10.6236 68.7765C10.9337 68.5558 11.1798 68.2564 11.3363 67.9089C11.4929 67.5614 11.5544 67.1785 11.5147 66.7993C11.4552 65.7377 11.1473 64.7052 10.6156 63.7853C10.0839 62.8655 9.34353 62.0842 8.45453 61.5049Z" fill="#535353"/>
<path d="M6.09471 62.881C6.9831 63.4601 7.72304 64.2409 8.25456 65.1601C8.78608 66.0792 9.09422 67.111 9.15412 68.1718C9.15412 70.1288 7.78112 70.9257 6.07064 69.9356C5.18174 69.3516 4.44198 68.5665 3.91062 67.6437C3.37926 66.7208 3.07115 65.6858 3.01123 64.6219C3.03533 62.6876 4.40833 61.8901 6.09471 62.881Z" fill="#404141"/>
<path d="M6.07071 68.2682C6.98584 68.7992 7.70883 68.365 7.70883 67.3499C7.68024 66.788 7.51906 66.241 7.23845 65.7539C6.95784 65.2667 6.56585 64.8532 6.09478 64.5477C5.20302 64.016 4.48077 64.4271 4.45667 65.4664C4.48531 66.0282 4.64661 66.5749 4.92722 67.062C5.20783 67.5492 5.59969 67.9626 6.07071 68.2682Z" fill="#FEFEFE"/>
<path d="M15.514 65.7074C15.204 65.4729 14.8358 65.3281 14.4493 65.2893C14.0629 65.2506 13.6732 65.3191 13.323 65.4875L10.9625 66.8646C11.3127 66.6963 11.7023 66.6278 12.0887 66.6665C12.4751 66.7053 12.8435 66.8497 13.1536 67.0842C14.042 67.6632 14.7819 68.4441 15.3134 69.3632C15.8449 70.2824 16.1531 71.3142 16.213 72.375C16.2466 72.7561 16.1798 73.1394 16.0192 73.4865C15.8586 73.8335 15.6099 74.1319 15.2979 74.3522L17.6584 72.9754C17.9704 72.7552 18.2192 72.4567 18.38 72.1097C18.5407 71.7626 18.6078 71.3794 18.5743 70.9982C18.5143 69.9373 18.206 68.9052 17.6744 67.9861C17.1427 67.0669 16.4025 66.2864 15.514 65.7074Z" fill="#535353"/>
<path d="M13.1529 67.0849C14.0413 67.664 14.7813 68.4448 15.3128 69.3639C15.8443 70.2831 16.1524 71.3149 16.2123 72.3757C16.1882 74.3326 14.8152 75.1296 13.1289 74.1394C12.2379 73.5577 11.4965 72.7733 10.9649 71.85C10.4333 70.9267 10.1265 69.8903 10.0695 68.8257C10.0695 66.8915 11.4425 66.094 13.1529 67.0849Z" fill="#404141"/>
<path d="M13.1288 72.4708C14.0198 73.0025 14.7429 72.5683 14.7429 71.5532C14.7245 70.989 14.5676 70.4381 14.286 69.9493C14.0045 69.4605 13.607 69.0488 13.1288 68.751C12.2378 68.2193 11.5148 68.6543 11.5148 69.6686C11.5432 70.2305 11.7043 70.7774 11.985 71.2646C12.2656 71.7518 12.6576 72.1654 13.1288 72.4708Z" fill="#FEFEFE"/>
<path d="M38.1344 78.2457C37.8235 78.0226 37.46 77.8848 37.0796 77.8463C36.6992 77.8077 36.3152 77.8695 35.966 78.0258L33.5808 79.403C33.9338 79.2466 34.3212 79.1846 34.7052 79.2231C35.0892 79.2616 35.4567 79.3992 35.7719 79.6225C36.661 80.2066 37.4009 80.9917 37.9322 81.9148C38.4636 82.8379 38.7716 83.8731 38.8313 84.9373C38.8682 85.3163 38.8054 85.6986 38.649 86.0455C38.4927 86.3925 38.2483 86.6922 37.9403 86.9149C38.7349 86.4564 39.5061 85.9973 40.3007 85.5381C40.6088 85.3155 40.8533 85.0158 41.0097 84.6688C41.166 84.3217 41.2288 83.9395 41.1917 83.5605C41.1323 82.4965 40.8247 81.4615 40.2938 80.5384C39.7628 79.6153 39.0231 78.8301 38.1344 78.2457Z" fill="#535353"/>
<path d="M35.7739 79.6223C36.6629 80.2064 37.4029 80.9913 37.9343 81.9143C38.4657 82.8372 38.7735 83.8724 38.8333 84.9364C38.8333 86.8933 37.4603 87.6669 35.7498 86.7001C34.8607 86.1161 34.1208 85.331 33.5895 84.4079C33.0581 83.4848 32.7501 82.4492 32.6904 81.385C32.7145 79.4281 34.0875 78.6556 35.7739 79.6223Z" fill="#404141"/>
<path d="M49.5052 71.3845C49.195 71.1505 48.8267 71.0062 48.4404 70.9675C48.0541 70.9288 47.6645 70.9968 47.3142 71.1645L44.9537 72.5417C45.304 72.3738 45.6936 72.3052 46.0799 72.3439C46.4663 72.3827 46.8346 72.5271 47.1448 72.7613C48.0332 73.3403 48.7733 74.1211 49.3048 75.0403C49.8363 75.9595 50.1443 76.9913 50.2042 78.0521C50.2421 78.4317 50.1796 78.8147 50.023 79.1624C49.8665 79.5102 49.6217 79.8106 49.3127 80.0332C50.0839 79.574 50.8792 79.1153 51.6731 78.6561C51.9859 78.437 52.2336 78.1376 52.3906 77.7889C52.5476 77.4402 52.6077 77.0554 52.5646 76.6753C52.5047 75.6145 52.1968 74.5827 51.6653 73.6635C51.1337 72.7443 50.3936 71.9635 49.5052 71.3845Z" fill="#535353"/>
<path d="M47.1441 72.7615C48.0325 73.3405 48.7722 74.1214 49.3038 75.0406C49.8353 75.9597 50.1436 76.9915 50.2035 78.0523C50.2035 80.0093 48.8062 80.8062 47.1198 79.8161C46.2287 79.2344 45.4872 78.45 44.9555 77.5266C44.4239 76.6033 44.1172 75.567 44.0604 74.5024C44.0604 72.5681 45.4336 71.7706 47.1441 72.7615Z" fill="#535353"/>
<path d="M47.1199 78.1482C48.0109 78.6799 48.7582 78.2449 48.7582 77.2306C48.7297 76.6688 48.5687 76.1217 48.2882 75.6346C48.0077 75.1474 47.6158 74.734 47.1449 74.4283C46.229 73.8966 45.5066 74.3316 45.5066 75.346C45.535 75.9078 45.6961 76.4548 45.9766 76.942C46.2571 77.4291 46.6489 77.8426 47.1199 78.1482Z" fill="#FEFEFE"/>
<path fill-rule="evenodd" clip-rule="evenodd" d="M41.8206 81.4345L54.8046 73.9451V75.9262L41.8206 83.4149V81.4345Z" fill="url(#paint6_linear_10_1059)"/>
<path d="M30.3051 60.6828L44.4943 52.421L44.4462 67.5432L30.257 75.8054L30.3051 60.6828Z" fill="#E4E0C7"/>
<path d="M30.3053 60.6803L30.257 75.8025L3.13184 59.8857L3.17998 44.7874L30.3053 60.6803Z" fill="#D1C5AE"/>
<path fill-rule="evenodd" clip-rule="evenodd" d="M3.17993 44.7872L17.3487 36.5254L44.498 52.4182L30.3088 60.6794L3.17993 44.7872Z" fill="url(#paint7_linear_10_1059)"/>
<path d="M40.1817 68.5584L31.3408 63.4367V77.352L32.9549 78.2696C33.5808 77.3761 34.7859 77.207 36.1348 77.9767C37.6 78.9219 38.7167 80.3215 39.3148 81.9623L41.8198 83.4117V81.4305L41.8441 75.5847L40.1817 68.5584Z" fill="#4572AD"/>
<path d="M39.7004 69.0411C39.6958 69.0145 39.6845 68.9893 39.6676 68.9682C39.6508 68.947 39.6289 68.9306 39.604 68.9203L33.5814 65.4171C33.5104 65.3926 33.4335 65.3926 33.3625 65.4171C33.3312 65.4383 33.3057 65.4673 33.2888 65.5012C33.2719 65.535 33.2641 65.5728 33.266 65.6106L33.2419 70.3214C33.245 70.361 33.2575 70.3989 33.2785 70.4326C33.2995 70.4662 33.3283 70.4944 33.3625 70.5145L40.6615 74.7418C40.6986 74.7612 40.7404 74.7697 40.7821 74.7661C40.8402 74.7661 40.8959 74.7429 40.937 74.7017C40.9781 74.6605 41.0012 74.6048 41.0012 74.5465C41.0047 74.5125 40.996 74.478 40.977 74.4496L39.7004 69.0411Z" fill="#363435"/>
<path d="M41.8448 75.5877L54.8296 68.1234L54.8053 73.9452L41.8206 81.4335L41.8448 75.5877Z" fill="#D5E9F8"/>
<path d="M31.3408 63.4369L44.3258 55.9482L53.1666 61.0699L40.1817 68.5582L31.3408 63.4369Z" fill="#D5E9F8"/>
<path fill-rule="evenodd" clip-rule="evenodd" d="M53.3595 67.2774H53.3352C53.3111 67.2774 53.2623 67.2531 53.2389 67.2531L48.3244 64.4019L52.3962 62.0585L53.5281 66.9384C53.5522 66.9867 53.5763 67.0117 53.5763 67.0593C53.5759 67.1169 53.553 67.1719 53.5125 67.2127C53.4719 67.2535 53.4169 67.2768 53.3595 67.2774ZM53.1665 61.069L40.1825 68.5577L41.8447 75.5886L54.8291 68.1239L53.1665 61.069Z" fill="url(#paint8_linear_10_1059)"/>
<path d="M54.2745 67.7357L52.9496 62.0591C52.9304 61.9962 52.887 61.9433 52.8291 61.9124C52.7671 61.8883 52.6986 61.8883 52.6365 61.9124L52.3955 62.0591L53.5274 66.939C53.5515 66.9873 53.5759 67.0119 53.5759 67.0595C53.5759 67.1178 53.5528 67.1739 53.5117 67.2151C53.4706 67.2563 53.4146 67.2794 53.3565 67.2794H53.3326C53.3085 67.2794 53.2594 67.2551 53.236 67.2551L48.3215 64.4039L49.5258 63.7041L40.8536 68.7045C40.8111 68.7263 40.7779 68.7627 40.7601 68.8071C40.7424 68.8516 40.7415 68.9011 40.7573 68.9462L42.0821 74.5997C42.0821 74.6729 42.1304 74.7205 42.2027 74.7681H42.2758C42.3174 74.7718 42.3593 74.7632 42.3963 74.7438L54.176 67.9796C54.2112 67.9502 54.2384 67.9124 54.2556 67.8698C54.2728 67.8273 54.2792 67.7814 54.2745 67.7357Z" fill="#363435"/>
<path d="M54.2752 67.7359L54.0826 66.9148L41.917 73.92L42.0857 74.5966C42.0857 74.6698 42.1339 74.7178 42.2062 74.7654H42.2793C42.321 74.769 42.3628 74.7605 42.3999 74.7411L54.1796 67.9769C54.2138 67.9475 54.2403 67.9102 54.257 67.8682C54.2736 67.8262 54.2799 67.7808 54.2752 67.7359Z" fill="#535353"/>
<path d="M35.7499 85.0331C36.665 85.5406 37.388 85.1297 37.388 84.0912C37.3537 83.5307 37.1901 82.9861 36.91 82.4998C36.6299 82.0135 36.241 81.5988 35.774 81.2889C34.8829 80.7814 34.1599 81.1924 34.1599 82.2309C34.1845 82.7909 34.3414 83.3372 34.6178 83.8244C34.8943 84.3116 35.2823 84.7259 35.7499 85.0331Z" fill="#FEFEFE"/>
<path d="M43.8679 77.1088L42.5431 77.8573C42.4574 77.9061 42.3856 77.9763 42.3345 78.0607C42.2833 78.1452 42.2547 78.2413 42.251 78.34V79.6686C42.2487 79.7657 42.2723 79.8618 42.3195 79.9468C42.3666 80.0317 42.4356 80.1024 42.5192 80.1517C42.6027 80.201 42.6979 80.2271 42.7948 80.2271C42.8918 80.2272 42.9869 80.2013 43.0705 80.152L44.3953 79.3785C44.4802 79.3347 44.5519 79.269 44.6032 79.1883C44.6546 79.1076 44.6835 79.015 44.6874 78.9194V77.5908C44.6894 77.4938 44.6655 77.3977 44.6182 77.313C44.571 77.2283 44.502 77.1579 44.4185 77.1088C44.335 77.0597 44.24 77.0337 44.1432 77.0337C44.0464 77.0337 43.9514 77.0596 43.8679 77.1088Z" fill="#F3C83F"/>
<path d="M51.9862 72.7366V74.0894C51.9875 74.1848 52.0138 74.2782 52.0625 74.3601C52.1112 74.4421 52.1806 74.5096 52.2637 74.5561C52.3467 74.6026 52.4406 74.6265 52.5358 74.6251C52.6309 74.6238 52.724 74.5975 52.8057 74.5486L54.1305 73.7751C54.2153 73.7314 54.2871 73.6661 54.3384 73.5855C54.3898 73.505 54.4187 73.4121 54.4226 73.3166V71.9641C54.4213 71.8688 54.395 71.7754 54.3463 71.6934C54.2976 71.6115 54.2282 71.5437 54.1452 71.4971C54.0621 71.4506 53.9682 71.4267 53.8731 71.4281C53.7779 71.4294 53.6848 71.4561 53.6031 71.505L52.2544 72.2535C52.1735 72.3057 52.1064 72.3769 52.0597 72.4612C52.0129 72.5455 51.9877 72.6401 51.9862 72.7366Z" fill="#F3C83F"/>
<path d="M6.28741 60.7074C6.24466 60.709 6.202 60.7022 6.16188 60.6873C6.12177 60.6724 6.085 60.6497 6.05365 60.6205C6.0223 60.5913 5.99708 60.5561 5.9793 60.5171C5.96151 60.4781 5.95156 60.4359 5.95005 60.393V48.2905C5.94895 48.2457 5.95684 48.2012 5.97341 48.1596C5.98998 48.118 6.01478 48.0804 6.04634 48.0487C6.07789 48.0171 6.11563 47.9924 6.15707 47.9758C6.1985 47.9592 6.2428 47.9511 6.28741 47.9522C6.33016 47.9537 6.37225 47.9637 6.41116 47.9815C6.45006 47.9993 6.48511 48.0248 6.51422 48.0563C6.54333 48.0877 6.56587 48.1244 6.58073 48.1646C6.59559 48.2048 6.60254 48.2476 6.60088 48.2905V60.393C6.59938 60.4759 6.56588 60.5551 6.50744 60.6137C6.44901 60.6723 6.37004 60.7059 6.28741 60.7074Z" fill="#F3EFD5"/>
<path d="M8.6004 62.0599C8.55579 62.061 8.51149 62.0529 8.47006 62.0363C8.42862 62.0197 8.39088 61.995 8.35933 61.9634C8.32777 61.9317 8.30297 61.8941 8.2864 61.8525C8.26983 61.811 8.26194 61.7664 8.26304 61.7216V49.6191C8.26868 49.5332 8.30665 49.4526 8.36931 49.3938C8.43197 49.335 8.51456 49.3022 8.6004 49.3022C8.68624 49.3022 8.76901 49.335 8.83167 49.3938C8.89432 49.4526 8.9323 49.5332 8.93794 49.6191V61.7216C8.93904 61.7664 8.93097 61.811 8.9144 61.8525C8.89783 61.8941 8.87303 61.9317 8.84147 61.9634C8.80992 61.995 8.77236 62.0197 8.73092 62.0363C8.68949 62.0529 8.64501 62.061 8.6004 62.0599Z" fill="#F3EFD5"/>
<path d="M10.9128 63.4128C10.824 63.4109 10.7394 63.3745 10.6765 63.3116C10.6137 63.2487 10.5775 63.1638 10.5754 63.0748V50.9723C10.5754 50.8825 10.6109 50.7965 10.6742 50.733C10.7375 50.6696 10.8233 50.634 10.9128 50.634C11.0023 50.634 11.0881 50.6696 11.1514 50.733C11.2147 50.7965 11.2503 50.8825 11.2503 50.9723V63.0748C11.2483 63.1638 11.2119 63.2487 11.1491 63.3116C11.0862 63.3745 11.0016 63.4109 10.9128 63.4128Z" fill="#F3EFD5"/>
<path d="M13.2259 64.7412C13.1831 64.7397 13.141 64.7297 13.1021 64.7119C13.0632 64.694 13.0284 64.6686 12.9993 64.6371C12.9701 64.6057 12.9474 64.569 12.9326 64.5288C12.9177 64.4885 12.9109 64.4458 12.9126 64.4029V52.3243C12.9109 52.2814 12.9177 52.2386 12.9326 52.1984C12.9474 52.1582 12.9701 52.1215 12.9993 52.0901C13.0284 52.0586 13.0632 52.0332 13.1021 52.0153C13.141 51.9975 13.1831 51.9875 13.2259 51.986C13.2705 51.9849 13.315 51.993 13.3564 52.0096C13.3978 52.0262 13.4354 52.0509 13.467 52.0826C13.4985 52.1142 13.5233 52.1519 13.5399 52.1934C13.5565 52.235 13.5645 52.2796 13.5634 52.3243V64.4029C13.5645 64.4476 13.5565 64.4922 13.5399 64.5338C13.5233 64.5753 13.4985 64.613 13.467 64.6446C13.4354 64.6763 13.3978 64.701 13.3564 64.7176C13.315 64.7342 13.2705 64.7423 13.2259 64.7412Z" fill="#F3EFD5"/>
<path d="M15.5623 66.0939C15.5177 66.095 15.4735 66.0869 15.4321 66.0703C15.3907 66.0538 15.3531 66.0289 15.3216 65.9974C15.29 65.9658 15.2653 65.9283 15.2487 65.8869C15.232 65.8454 15.2239 65.8007 15.2249 65.756V53.6534C15.2268 53.5643 15.263 53.4794 15.3259 53.4163C15.3887 53.3533 15.4734 53.317 15.5623 53.3151C15.6497 53.3216 15.7318 53.3592 15.7937 53.4213C15.8557 53.4834 15.8934 53.5658 15.8998 53.6534V65.756C15.898 65.8451 15.8618 65.9301 15.7989 65.9931C15.736 66.056 15.6511 66.0922 15.5623 66.0939Z" fill="#F3EFD5"/>
<path d="M17.8752 67.4224C17.8325 67.4241 17.7898 67.4173 17.7497 67.4024C17.7096 67.3875 17.6728 67.3647 17.6414 67.3355C17.6101 67.3063 17.5849 67.2712 17.5671 67.2322C17.5493 67.1932 17.5393 67.151 17.5378 67.1081V55.0055C17.5378 54.9158 17.5733 54.8297 17.6366 54.7663C17.6999 54.7028 17.7857 54.6672 17.8752 54.6672C17.9647 54.6672 18.0505 54.7028 18.1138 54.7663C18.1771 54.8297 18.2127 54.9158 18.2127 55.0055V67.1081C18.2112 67.151 18.2013 67.1932 18.1835 67.2322C18.1657 67.2712 18.1403 67.3063 18.109 67.3355C18.0776 67.3647 18.0408 67.3875 18.0007 67.4024C17.9606 67.4173 17.9179 67.4241 17.8752 67.4224Z" fill="#F3EFD5"/>
<path d="M20.1875 68.775C20.0986 68.7731 20.0139 68.7368 19.951 68.6738C19.8881 68.6107 19.852 68.5258 19.8501 68.4367V56.3341C19.857 56.2489 19.8955 56.1695 19.958 56.1113C20.0204 56.0532 20.1022 56.0204 20.1875 56.0198C20.2302 56.0181 20.2729 56.0249 20.313 56.0398C20.3531 56.0547 20.3899 56.0775 20.4212 56.1067C20.4526 56.1359 20.478 56.171 20.4958 56.21C20.5135 56.249 20.5235 56.2912 20.525 56.3341V68.4367C20.5261 68.4814 20.518 68.526 20.5015 68.5675C20.4849 68.6091 20.4601 68.6468 20.4285 68.6784C20.397 68.71 20.3594 68.7347 20.318 68.7514C20.2765 68.768 20.2321 68.7761 20.1875 68.775Z" fill="#F3EFD5"/>
<path d="M22.5239 70.128C22.4793 70.1291 22.4351 70.121 22.3937 70.1044C22.3523 70.0878 22.3147 70.063 22.2831 70.0315C22.2516 69.9999 22.2268 69.9621 22.2102 69.9206C22.1936 69.8791 22.1855 69.8347 22.1865 69.7901V57.6875C22.1854 57.6428 22.1933 57.5982 22.2099 57.5566C22.2264 57.5151 22.2512 57.4774 22.2828 57.4458C22.3143 57.4141 22.3521 57.3894 22.3935 57.3728C22.435 57.3562 22.4792 57.3481 22.5239 57.3492C22.6128 57.3511 22.6976 57.3874 22.7605 57.4504C22.8234 57.5135 22.8595 57.5984 22.8614 57.6875V69.7901C22.8595 69.8791 22.8234 69.9642 22.7605 70.0272C22.6976 70.0901 22.6127 70.1263 22.5239 70.128Z" fill="#F3EFD5"/>
<path d="M24.8369 71.4572C24.7922 71.4583 24.7479 71.4502 24.7065 71.4335C24.6651 71.4169 24.6273 71.3922 24.5958 71.3606C24.5642 71.329 24.5394 71.2913 24.5228 71.2497C24.5063 71.2082 24.4984 71.1636 24.4995 71.1189V59.0403C24.4995 58.9505 24.535 58.8645 24.5983 58.801C24.6616 58.7376 24.7474 58.702 24.8369 58.702C24.9263 58.702 25.0121 58.7376 25.0754 58.801C25.1387 58.8645 25.1744 58.9505 25.1744 59.0403V71.1189C25.1755 71.1636 25.1674 71.2082 25.1509 71.2497C25.1343 71.2913 25.1095 71.329 25.0779 71.3606C25.0464 71.3922 25.0088 71.4169 24.9674 71.4335C24.9259 71.4502 24.8815 71.4583 24.8369 71.4572Z" fill="#F3EFD5"/>
<path d="M27.1499 72.81C27.0611 72.8081 26.9765 72.7717 26.9136 72.7088C26.8507 72.6459 26.8146 72.5611 26.8125 72.472V60.3695C26.8189 60.2819 26.8565 60.1995 26.9184 60.1374C26.9804 60.0753 27.0625 60.0376 27.1499 60.0312C27.2388 60.0331 27.3236 60.0693 27.3865 60.1324C27.4494 60.1954 27.4855 60.2803 27.4874 60.3695V72.472C27.4884 72.5167 27.4803 72.5615 27.4637 72.6029C27.4471 72.6444 27.4223 72.6819 27.3908 72.7134C27.3592 72.745 27.3216 72.7698 27.2802 72.7864C27.2388 72.8029 27.1944 72.8111 27.1499 72.81Z" fill="#F3EFD5"/>
<path d="M36.9785 21.9591C44.209 26.1381 55.9135 26.1381 63.0921 21.9591C70.2707 17.7802 70.2497 10.9674 63.0192 6.78847C55.7887 2.6095 44.06 2.6095 36.8814 6.78847C29.7276 10.9674 29.7758 17.7802 36.9785 21.9591ZM65.9106 5.12166C74.7479 10.219 74.7996 18.5527 66.0069 23.6508C57.9125 28.3856 45.0248 28.7476 36.159 24.7136C35.4367 24.3752 34.7619 24.0368 34.0878 23.6508C33.4543 23.2847 32.8429 22.8815 32.2568 22.4432C25.2943 17.3216 25.8728 9.83306 33.9913 5.12237C42.7599 9.04799e-05 57.0698 0.000107646 65.9106 5.12166Z" fill="#FEFEFE"/>
<path d="M68.4638 13.1661L68.4397 18.5528C68.4397 15.799 66.6329 13.021 63.0191 10.9191C55.7887 6.74009 44.0599 6.74009 36.8813 10.9191C33.3157 12.9968 31.533 15.7264 31.533 18.456V13.0445C31.5571 10.3149 33.3398 7.58529 36.8813 5.53169C44.0599 1.32855 55.7923 1.32855 63.0191 5.53169C66.657 7.60946 68.4638 10.3874 68.4638 13.1661Z" fill="#BF963D"/>
<path d="M50.0567 25.0995C45.3349 25.0995 40.5892 24.0611 36.9754 21.9591C34.2534 20.3889 32.543 18.4319 31.8682 16.379C32.543 14.3738 34.2052 12.4653 36.879 10.9199C40.4686 8.818 45.1896 7.77942 49.9354 7.77942C54.6571 7.77942 59.4031 8.818 63.0161 10.9199C65.7381 12.4902 67.4245 14.4463 68.0993 16.4999C67.5739 17.9419 66.686 19.2234 65.5219 20.2204L62.101 18.2634L50.3423 25.1002L50.0567 25.0995Z" fill="#4165AD"/>
<path fill-rule="evenodd" clip-rule="evenodd" d="M50.3481 25.0995L62.1069 18.2627L65.5279 20.2197C64.7828 20.887 63.967 21.4703 63.095 21.9591C59.5988 24.012 54.9976 25.0511 50.3481 25.0995Z" fill="url(#paint9_linear_10_1059)"/>
<path d="M50.0582 26.0414C45.3364 26.0414 40.5905 25.0028 36.9775 22.9009C34.0385 21.2098 32.3033 19.0595 31.7256 16.8375C31.7738 16.691 31.822 16.5233 31.8716 16.379C32.5457 18.4297 34.2562 20.3887 36.9782 21.959C40.592 24.0609 45.3379 25.0995 50.0589 25.0995H50.3509C55.0003 25.0511 59.6015 24.0126 63.0948 21.959C63.9667 21.4701 64.7825 20.8868 65.5276 20.2195C66.6918 19.2226 67.5797 17.9411 68.1051 16.4992C68.1533 16.6456 68.2014 16.8133 68.2511 16.9583C67.6727 19.1328 65.9621 21.234 63.0962 22.9009C59.5022 25.0028 54.7806 26.0414 50.0582 26.0414ZM68.4389 15.654L68.4629 15.0739C68.4673 15.2676 68.4595 15.4613 68.4396 15.654H68.4389Z" fill="#B6C0CF"/>
<path d="M68.2477 16.9583C68.1994 16.8119 68.1513 16.6442 68.1016 16.4992C67.4268 14.4485 65.741 12.4894 63.0182 10.9192C59.4045 8.81728 54.6587 7.7787 49.9377 7.7787C45.1905 7.7787 40.4702 8.81728 36.8813 10.9192C34.2075 12.4653 32.5451 14.3738 31.8703 16.3783C31.8221 16.5248 31.7739 16.6925 31.7243 16.8375C30.9289 13.6003 32.6395 10.2183 36.8799 7.73042C40.4695 5.62849 45.2153 4.5899 49.9363 4.5899C54.6836 4.5899 59.4038 5.62849 63.0168 7.73042C66.5342 9.75986 68.3411 12.4176 68.4609 15.0739L68.4368 15.654C68.433 16.0953 68.3694 16.5342 68.2477 16.9583Z" fill="#8C793D"/>
<path d="M72.5594 13.7454V19.132C72.5353 22.4658 70.3683 25.7966 65.9862 28.3358C57.8918 33.0707 45.0041 33.4333 36.1384 29.3986C35.4394 29.0844 34.7412 28.7219 34.0933 28.3601C33.4192 27.9493 32.8166 27.5624 32.2623 27.1523C29.0342 24.7611 27.4202 21.8865 27.4202 19.0112L27.4442 13.6245C27.4201 16.4991 29.0343 19.3737 32.2646 21.7415C32.8507 22.1799 33.462 22.5831 34.0955 22.9492C34.7703 23.3359 35.4446 23.6743 36.1676 24.012C45.0326 28.0467 57.921 27.684 66.0148 22.9492C70.3669 20.4129 72.5594 17.0792 72.5594 13.7454Z" fill="#FEC331"/>
<path d="M36.9785 20.7031C44.209 24.882 55.9135 24.882 63.0921 20.7031C70.2707 16.5241 70.2497 9.68721 63.0192 5.5324C55.7887 1.32926 44.06 1.32926 36.8814 5.5324C29.7276 9.71138 29.7758 16.5233 36.9785 20.7031ZM65.9106 3.84145C74.7479 8.9381 74.7996 17.2725 66.0069 22.3706C57.9125 27.1054 45.0248 27.4681 36.159 23.4334C35.4495 23.118 34.7581 22.763 34.0878 22.3706C33.4548 22.0125 32.8434 21.6173 32.2568 21.1871C25.2943 16.0414 25.8728 8.55285 33.9913 3.84216C42.7599 -1.28012 57.0698 -1.2801 65.9106 3.84145Z" fill="#FEC331"/>
<path d="M33.5815 23.2392C33.3384 23.0584 33.0509 22.9472 32.7497 22.9174C32.4484 22.8876 32.1446 22.9404 31.871 23.0701L0.698975 41.2602C0.969894 41.1364 1.26878 41.0869 1.56502 41.1166C1.86125 41.1464 2.14432 41.2542 2.38541 41.4294C3.07916 41.881 3.65676 42.4905 4.07114 43.2083C4.48552 43.9261 4.72488 44.7319 4.76993 45.5601C4.80136 45.8534 4.75302 46.1499 4.62996 46.4178C4.50689 46.6858 4.31367 46.9152 4.07096 47.0819L35.2439 28.8677C35.4865 28.7008 35.6794 28.4711 35.8025 28.2032C35.9255 27.9353 35.9741 27.639 35.9428 27.3457C35.8971 26.5237 35.6595 25.7239 35.2494 25.0107C34.8393 24.2974 34.268 23.6908 33.5815 23.2392Z" fill="#D5E9F8"/>
<path d="M4.07092 47.082C4.31358 46.9152 4.50668 46.6857 4.62974 46.4178C4.7528 46.1498 4.80124 45.8534 4.76989 45.56C4.76989 45.4634 4.72175 45.391 4.72175 45.2943L35.8945 27.0799C35.8945 27.1766 35.9426 27.2491 35.9426 27.3458C35.9739 27.6391 35.9255 27.9354 35.8025 28.2033C35.6794 28.4713 35.4862 28.7007 35.2436 28.8676L4.07092 47.082Z" fill="#4572AD"/>
<path fill-rule="evenodd" clip-rule="evenodd" d="M2.38541 41.4293C3.07915 41.8808 3.65657 42.4906 4.07095 43.2084C4.48533 43.9261 4.72487 44.7318 4.76992 45.56C4.76992 47.0819 3.68616 47.6838 2.38541 46.9368C1.6907 46.4804 1.1128 45.8666 0.698433 45.1448C0.284061 44.423 0.0447533 43.6137 0 42.7821C0 41.2851 1.08392 40.6808 2.38541 41.4293Z" fill="url(#paint10_linear_10_1059)"/>
<path d="M39.2906 8.86548C39.1701 11.4501 40.7843 14.0353 44.1841 16.0157C48.0864 18.2626 53.4105 19.1321 58.4455 18.697C53.3382 20.6056 46.4248 20.2673 41.9192 17.6585C37.8212 15.2673 36.9542 11.7159 39.2906 8.86548Z" fill="#FEFEFE"/>
<path d="M51.6249 20.4643C51.9467 20.3754 52.2841 20.3588 52.6131 20.4158C52.2756 20.4363 51.9623 20.4643 51.6249 20.4643Z" fill="#FBC9B7"/>
<path d="M66.1033 22.9001C70.4123 20.3639 72.5594 17.0543 72.5594 13.7454V19.132C72.5353 22.4417 70.3912 25.7513 66.1033 28.2868V22.9001Z" fill="#BF963D"/>
<path d="M26.571 91.0001C25.6981 91.0182 24.8351 90.81 24.0658 90.3957C22.6927 89.5989 22.6927 88.3181 24.0658 87.5213C24.8329 87.1242 25.6836 86.9169 26.5468 86.9169C27.41 86.9169 28.2609 87.1242 29.0279 87.5213C30.4251 88.3181 30.4251 89.5982 29.052 90.3957C28.2924 90.8126 27.4366 91.0212 26.571 91.0001Z" fill="#3E62AC"/>
<path d="M28.4502 88.4146C28.7876 88.6343 28.7152 88.9948 28.2573 89.26C28.0417 89.3899 27.7993 89.4682 27.5487 89.4892C27.2981 89.5101 27.0459 89.4728 26.8119 89.3805C26.4504 89.1608 26.5469 88.8013 26.9808 88.5354C27.2008 88.4055 27.4472 88.3271 27.7017 88.3062C27.9561 88.2853 28.212 88.3223 28.4502 88.4146Z" fill="#4B4B4B"/>
<path d="M26.6432 87.6185C26.9806 87.8119 26.9082 88.1745 26.4503 88.4403C26.2348 88.5704 25.9923 88.649 25.7417 88.6699C25.491 88.6909 25.2389 88.6537 25.0049 88.5612C24.6434 88.3415 24.7399 87.9809 25.1738 87.7158C25.3932 87.5833 25.641 87.5053 25.8966 87.4884C26.1522 87.4714 26.4083 87.5161 26.6432 87.6185Z" fill="#4B4B4B"/>
<path d="M24.4046 79.3566C24.4978 79.1967 24.6307 79.0638 24.7903 78.9707C24.9529 78.8803 25.1347 78.8299 25.3206 78.8241C25.5035 78.8293 25.6835 78.8704 25.8507 78.945C25.9294 78.9933 26.0029 79.0498 26.0698 79.1134C26.1479 79.1669 26.2069 79.2437 26.2385 79.333C26.3025 79.6843 26.3428 80.0397 26.3591 80.3965C26.3809 80.4327 26.3894 80.4755 26.3831 80.5174C26.4029 80.5715 26.411 80.6291 26.4072 80.6865V87.8133C26.4019 87.9054 26.3721 87.9944 26.3207 88.0708C26.2693 88.1472 26.1983 88.2084 26.1151 88.2478C25.8836 88.3764 25.624 88.4456 25.3593 88.4499C25.0946 88.4541 24.8331 88.3929 24.5976 88.2718C24.5091 88.2342 24.4316 88.1747 24.3725 88.0987C24.3135 88.0227 24.2747 87.9329 24.26 87.8376V80.6865C24.257 80.2391 24.3056 79.7929 24.4046 79.3566Z" fill="#8B8B8B"/>
<path d="M26.2823 81.9653C26.3064 81.9412 26.3306 81.9412 26.3788 81.9171C26.3753 81.9511 26.3838 81.9852 26.4029 82.0136V87.8838C26.3995 87.9545 26.3745 88.0225 26.3314 88.0786C26.2883 88.1348 26.2292 88.1766 26.1618 88.1981C26.0789 88.2671 25.9771 88.3093 25.8697 88.319V82.6898C25.8643 82.5434 25.9064 82.3991 25.9901 82.279C26.0537 82.1473 26.1557 82.0379 26.2823 81.9653Z" fill="#4B4B4B"/>
<path d="M26.332 81.0951C26.4127 80.9199 26.5481 80.7761 26.7176 80.6846C26.8771 80.5868 27.061 80.5359 27.2479 80.538C27.43 80.5497 27.6088 80.5905 27.778 80.6588C27.8477 80.7193 27.9209 80.7755 27.9972 80.8273C28.0936 80.9239 28.1432 81.0468 28.1659 81.0468C28.2115 81.1329 28.2518 81.2219 28.2864 81.3129C28.2921 81.3536 28.3001 81.394 28.3105 81.4338V88.753C28.3049 88.845 28.2748 88.9339 28.2234 89.0104C28.1721 89.0869 28.1014 89.1484 28.0184 89.1882C27.785 89.311 27.526 89.3771 27.2624 89.3813C26.9988 89.3855 26.7378 89.3275 26.5006 89.2121C26.4146 89.1742 26.3403 89.1143 26.2852 89.038C26.2302 88.9616 26.1963 88.8718 26.1873 88.778V81.6269C26.18 81.439 26.2305 81.2533 26.332 81.0951Z" fill="#8B8B8B"/>
<path d="M28.0651 81.5303C28.0511 81.4238 28.0095 81.3229 27.9446 81.2374C27.9032 81.1539 27.8459 81.079 27.7759 81.0175C27.6853 80.6998 27.6121 80.3774 27.5568 80.0516C27.3867 79.9582 27.1963 79.9082 27.0024 79.9053C26.8063 79.9134 26.6154 79.9716 26.4481 80.0745C26.382 80.4181 26.2936 80.7567 26.1831 81.0887V83.7253C26.8431 83.7649 27.5031 83.6491 28.1104 83.387V81.6476C28.0893 81.6029 28.0892 81.5545 28.0651 81.5303Z" fill="#4B4B4B"/>
<path d="M25.0781 79.0424C24.8881 79.0422 24.7027 79.1013 24.5478 79.2116C24.4402 79.27 24.3418 79.3439 24.2557 79.4312V82.9826C24.7825 83.4828 25.4816 83.7598 26.2071 83.7554V80.9532C26.2071 80.9055 26.1831 80.0356 26.1831 79.9873C26.1774 79.9465 26.1694 79.9062 26.159 79.8664C26.1249 79.7663 26.0847 79.6685 26.0385 79.5735C26.0144 79.5735 25.9655 79.4524 25.8698 79.3536C25.7734 79.2803 25.701 79.2327 25.6287 79.1851C25.4607 79.0901 25.2709 79.041 25.0781 79.0424Z" fill="#4B4B4B"/>
<path d="M24.2343 76.7712C24.4518 76.368 24.7771 76.0336 25.1736 75.8053C25.5545 75.5812 25.9848 75.4554 26.4261 75.4391C26.8652 75.4453 27.2959 75.5615 27.6787 75.7774C27.8747 75.877 28.0536 76.0074 28.2082 76.164C28.3679 76.3221 28.5055 76.501 28.6178 76.6958C28.7362 76.8909 28.8256 77.1023 28.883 77.3234C28.9216 77.4169 28.9463 77.5155 28.9561 77.6163C28.9802 77.7371 28.9801 77.9092 29.0042 78.0272V81.8922C28.9864 82.1142 28.9102 82.3272 28.7831 82.5098C28.656 82.6924 28.4828 82.8381 28.2812 82.9314C27.7278 83.2187 27.1152 83.3725 26.492 83.3809C25.8689 83.3893 25.2524 83.252 24.6915 82.9797C24.4775 82.8911 24.2923 82.745 24.1562 82.5573C24.0201 82.3696 23.9384 82.1475 23.9203 81.9162V78.0264C23.9115 77.5874 24.0199 77.1541 24.2343 76.7712Z" fill="#3577AE"/>
<path d="M27.6554 77.5686C27.7771 77.5131 27.9078 77.4805 28.0411 77.472C28.1767 77.4612 28.312 77.495 28.4266 77.5686C28.4899 77.598 28.5472 77.639 28.5955 77.6894C28.64 77.7345 28.6802 77.7837 28.7158 77.8361C28.753 77.8979 28.7853 77.9626 28.8123 78.0295C28.8123 78.0779 28.8123 78.1027 28.8364 78.1261V82.426C28.687 82.6302 28.4986 82.8024 28.282 82.9327C27.855 83.1515 27.4017 83.3141 26.9331 83.4162C26.9331 83.4162 27.6072 77.5927 27.6554 77.5686Z" fill="#305E85"/>
<path d="M27.5832 83.5599C27.5571 83.6629 27.5546 83.7705 27.5763 83.8746C27.5979 83.9787 27.6432 84.0764 27.7082 84.1603C27.7733 84.2443 27.8565 84.3124 27.9518 84.3592C28.047 84.4059 28.1517 84.43 28.2578 84.43C28.3638 84.43 28.4683 84.4059 28.5636 84.3592C28.6588 84.3124 28.7422 84.2443 28.8073 84.1603C28.8724 84.0764 28.9174 83.9787 28.9391 83.8746C28.9607 83.7705 28.9583 83.6629 28.9321 83.5599C28.9321 83.0765 28.6401 82.6655 28.2581 82.6655C27.8762 82.6655 27.5832 83.0765 27.5832 83.5599Z" fill="#FDC481"/>
<path d="M29.0043 77.5931C28.9278 77.4637 28.8201 77.3555 28.6911 77.2787C28.5691 77.1995 28.4267 77.1574 28.2813 77.1579C28.1275 77.1499 27.9752 77.1923 27.8475 77.2787C27.7808 77.3018 27.7222 77.3438 27.6788 77.3996C27.6189 77.4449 27.5691 77.5022 27.5328 77.5681C27.495 77.6387 27.4627 77.712 27.4363 77.7876C27.4363 77.8118 27.4122 77.8611 27.4122 77.8845V83.1028C27.4178 83.1759 27.443 83.2459 27.4855 83.3055C27.528 83.3652 27.586 83.4121 27.6531 83.4411C27.8357 83.5461 28.0418 83.6031 28.2522 83.6073C28.4627 83.6116 28.6709 83.5626 28.8576 83.465C28.928 83.4338 28.988 83.3833 29.0307 83.3191C29.0734 83.2549 29.0969 83.1799 29.0985 83.1028V78.0294C29.1028 77.8784 29.0706 77.7288 29.0043 77.5931Z" fill="#3577AE"/>
<path d="M24.4032 74.3792C24.4032 74.9813 24.6417 75.5591 25.0663 75.9848C25.4909 76.4106 26.0669 76.6496 26.6674 76.6496C27.2678 76.6496 27.8436 76.4106 28.2682 75.9848C28.6928 75.5591 28.9313 74.9813 28.9313 74.3792V73.7759C28.9313 73.1737 28.6928 72.5964 28.2682 72.1706C27.8436 71.7448 27.2678 71.5054 26.6674 71.5054C26.0669 71.5054 25.4909 71.7448 25.0663 72.1706C24.6417 72.5964 24.4032 73.1737 24.4032 73.7759V74.3792Z" fill="#FDC481"/>
<path d="M24.4032 74.3792C24.4032 74.9813 24.6417 75.5591 25.0663 75.9848C25.4909 76.4106 26.0669 76.6496 26.6674 76.6496C27.2678 76.6496 27.8436 76.4106 28.2682 75.9848C28.6928 75.5591 28.9313 74.9813 28.9313 74.3792V73.7759C28.9313 73.1737 28.6928 72.5964 28.2682 72.1706C27.8436 71.7448 27.2678 71.5054 26.6674 71.5054C26.0669 71.5054 25.4909 71.7448 25.0663 72.1706C24.6417 72.5964 24.4032 73.1737 24.4032 73.7759V74.3792Z" fill="#FDC481"/>
<path d="M28.9562 73.0031C28.9531 73.1161 28.9612 73.2295 28.9803 73.341C28.9748 73.4064 28.983 73.4721 29.0044 73.5341C28.5465 73.9208 28.8358 74.6934 28.0652 74.9109C28.0652 75.3694 28.0893 76.022 28.0893 76.022C27.5587 76.2577 26.9749 76.3463 26.3986 76.2784C25.8223 76.2105 25.2746 75.9887 24.8129 75.6361C24.6395 75.4797 24.5055 75.2844 24.4217 75.0661C24.3379 74.8478 24.3068 74.6129 24.3309 74.3802V73.3893C24.3309 70.5872 28.5947 70.4178 28.9562 73.0031Z" fill="#404141"/>
<path d="M28.1373 74.9109C28.2427 74.9854 28.3299 75.0826 28.3925 75.1956C28.4551 75.3086 28.4916 75.4345 28.4989 75.5636C28.4989 75.7833 28.3301 75.8775 28.1373 75.7567V74.9109Z" fill="#F49B4C"/>
<path d="M29.3412 73.4618C29.3296 72.7552 29.0414 72.0814 28.539 71.5858C28.0366 71.0902 27.3601 70.8123 26.6553 70.8123C25.9506 70.8123 25.2741 71.0902 24.7717 71.5858C24.2693 72.0814 23.9811 72.7552 23.9695 73.4618C23.9949 73.7002 24.0815 73.9278 24.2209 74.1226C24.3603 74.3175 24.5478 74.473 24.7649 74.5736C25.348 74.892 26.0045 75.0501 26.6682 75.032C28.1617 75.032 29.3419 74.3311 29.3419 73.4618H29.3412Z" fill="#3577AE"/>
<defs>
<linearGradient id="paint0_linear_10_1059" x1="92.6121" y1="51.386" x2="82.8674" y2="62.877" gradientUnits="userSpaceOnUse">
<stop stop-color="#8BBAE0"/>
<stop offset="1" stop-color="#D5E9F8"/>
</linearGradient>
<linearGradient id="paint1_linear_10_1059" x1="44.4716" y1="29.102" x2="75.9399" y2="22.4655" gradientUnits="userSpaceOnUse">
<stop stop-color="#333D63"/>
<stop offset="1" stop-color="#36487D"/>
</linearGradient>
<linearGradient id="paint2_linear_10_1059" x1="75.5645" y1="48.425" x2="92.1142" y2="43.0346" gradientUnits="userSpaceOnUse">
<stop stop-color="#8BBAE0"/>
<stop offset="1" stop-color="#D5E9F8"/>
</linearGradient>
<linearGradient id="paint3_linear_10_1059" x1="73.3025" y1="62.7542" x2="63.5298" y2="74.2337" gradientUnits="userSpaceOnUse">
<stop stop-color="#8BBAE0"/>
<stop offset="1" stop-color="#D5E9F8"/>
</linearGradient>
<linearGradient id="paint4_linear_10_1059" x1="67.0602" y1="39.4127" x2="28.4163" y2="39.4127" gradientUnits="userSpaceOnUse">
<stop stop-color="#8FA0C0"/>
<stop offset="1" stop-color="#486599"/>
</linearGradient>
<linearGradient id="paint5_linear_10_1059" x1="56.2553" y1="59.8026" x2="72.8082" y2="54.3744" gradientUnits="userSpaceOnUse">
<stop stop-color="#8BBAE0"/>
<stop offset="1" stop-color="#D5E9F8"/>
</linearGradient>
<linearGradient id="paint6_linear_10_1059" x1="55.4148" y1="74.2292" x2="45.6581" y2="85.7141" gradientUnits="userSpaceOnUse">
<stop stop-color="#8BBAE0"/>
<stop offset="1" stop-color="#D5E9F8"/>
</linearGradient>
<linearGradient id="paint7_linear_10_1059" x1="3.17993" y1="48.6024" x2="44.498" y2="48.6024" gradientUnits="userSpaceOnUse">
<stop stop-color="#F3EFD5"/>
<stop offset="1" stop-color="#F8F4E7"/>
</linearGradient>
<linearGradient id="paint8_linear_10_1059" x1="38.381" y1="71.2763" x2="54.9184" y2="65.8483" gradientUnits="userSpaceOnUse">
<stop stop-color="#8BBAE0"/>
<stop offset="1" stop-color="#D5E9F8"/>
</linearGradient>
<linearGradient id="paint9_linear_10_1059" x1="44.4736" y1="29.099" x2="75.3903" y2="21.2117" gradientUnits="userSpaceOnUse">
<stop stop-color="#343E64"/>
<stop offset="1" stop-color="#374576"/>
</linearGradient>
<linearGradient id="paint10_linear_10_1059" x1="2.56622" y1="47.8594" x2="1.90232" y2="40.0052" gradientUnits="userSpaceOnUse">
<stop stop-color="#8BBAE0"/>
<stop offset="1" stop-color="#D5E9F8"/>
</linearGradient>
</defs>
</svg>
