<svg height="27.067" viewBox="0 0 34.038 27.067" width="34.038" xmlns="http://www.w3.org/2000/svg"><g fill="none" stroke="#fff" stroke-linecap="round" stroke-linejoin="round" stroke-width="3"><path d="m6.313 25.373h-1.222a3.091 3.091 0 0 1 -3.091-3.092v-14.7a3.091 3.091 0 0 1 3.091-3.091h15.117a3.091 3.091 0 0 1 3.092 3.091v10.681" transform="translate(-.5 -2.99)"/><path d="m15.75 8.19h4.3a1.824 1.824 0 0 1 1.438.7l3.493 4.637a2.8 2.8 0 0 1 .556 1.654v7.729a.309.309 0 0 1 -.309.309h-4.717" transform="translate(7.003 -.971)"/><circle cx="23.928" cy="22.104" r="3.462"/><circle cx="9.259" cy="22.104" r="3.462"/><path d="m20.481 22.305h-7.929"/></g></svg>