<svg width="24" height="18" viewBox="0 0 24 18" fill="none" xmlns="http://www.w3.org/2000/svg">
<path d="M17.6112 6.90988H19.9809C20.1334 6.90974 20.2839 6.94419 20.421 7.01064C20.5581 7.07708 20.6784 7.17378 20.7725 7.29342L22.6939 9.84393C22.8907 10.1065 22.998 10.4251 23.0001 10.7529V15.0025C23.0001 15.0476 22.9821 15.0908 22.9502 15.1227C22.9182 15.1546 22.8749 15.1725 22.8297 15.1725H20.2371" stroke="#176CF7" stroke-width="1.5" stroke-linecap="round" stroke-linejoin="round"/>
<path d="M18.258 17C19.3114 17 20.1653 16.1477 20.1653 15.0964C20.1653 14.045 19.3114 13.1927 18.258 13.1927C17.2046 13.1927 16.3507 14.045 16.3507 15.0964C16.3507 16.1477 17.2046 17 18.258 17Z" stroke="#176CF7" stroke-width="1.5" stroke-linecap="round" stroke-linejoin="round"/>
<path d="M10.1753 17C11.2287 17 12.0826 16.1477 12.0826 15.0964C12.0826 14.045 11.2287 13.1927 10.1753 13.1927C9.12194 13.1927 8.26801 14.045 8.26801 15.0964C8.26801 16.1477 9.12194 17 10.1753 17Z" stroke="#176CF7" stroke-width="1.5" stroke-linecap="round" stroke-linejoin="round"/>
<path d="M16.3598 15.2076H11.9905" stroke="#176CF7" stroke-width="1.5" stroke-linecap="round" stroke-linejoin="round"/>
<path d="M5.90088 9.30995C8.20005 9.30995 10.0639 7.44971 10.0639 5.15498C10.0639 2.86025 8.20005 1 5.90088 1C3.6017 1 1.73785 2.86025 1.73785 5.15498C1.73785 7.44971 3.6017 9.30995 5.90088 9.30995Z" stroke="#176CF7" stroke-width="1.5"/>
<path fill-rule="evenodd" clip-rule="evenodd" d="M6.65076 9.24274C6.40748 9.28692 6.15683 9.30999 5.90078 9.30999C5.64471 9.30999 5.39405 9.28692 5.15076 9.24274V13.5492C5.15076 14.1995 5.40962 14.823 5.86992 15.2824C6.33018 15.7417 6.95412 15.9996 7.60439 15.9996H8.27688C8.6911 15.9996 9.02688 15.6638 9.02688 15.2496C9.02688 14.8353 8.6911 14.4996 8.27688 14.4996H7.60439C7.35101 14.4996 7.10829 14.3991 6.92956 14.2207C6.75088 14.0424 6.65076 13.8008 6.65076 13.5492V9.24274ZM10.0147 4.5152H15.9304C16.0559 4.5152 16.1801 4.53986 16.2959 4.58773C16.4117 4.63561 16.5168 4.70574 16.6053 4.79406C16.6938 4.88238 16.7639 4.98714 16.8117 5.10234C16.8595 5.21753 16.8841 5.34094 16.8841 5.46554V11.3388C16.8841 11.753 17.2199 12.0888 17.6341 12.0888C18.0483 12.0888 18.3841 11.753 18.3841 11.3388V5.46554C18.3841 5.14356 18.3205 4.82476 18.1971 4.52736C18.0737 4.22997 17.8928 3.95984 17.6649 3.73237C17.437 3.50491 17.1665 3.32455 16.8689 3.20152C16.5714 3.0785 16.2525 3.0152 15.9304 3.0152H9.47001C9.74218 3.46646 9.93087 3.97355 10.0147 4.5152Z" fill="#176CF7"/>
<path d="M5.90094 3.89828V6.413" stroke="#176CF7" stroke-width="1.5" stroke-linecap="round"/>
<path d="M4.64001 5.15503H7.1596" stroke="#176CF7" stroke-width="1.5" stroke-linecap="round"/>
</svg>
