<svg width="23" height="32" viewBox="0 0 23 32" fill="none" xmlns="http://www.w3.org/2000/svg">
<path d="M16.2264 27.8759L21.7946 18.2315C22.1545 17.3983 23.1469 15.8893 21.5114 14.9451C20.1486 14.1583 19.2397 15.1031 18.5238 16.3431C19.2775 15.2474 20.4738 12.8397 19.2291 11.9741C17.6732 10.8921 16.3894 12.1716 15.5711 13.9036C16.6052 12.1125 17.6393 10.3214 16.1402 9.45588C14.641 8.59036 13.8117 9.39739 11.9821 12.5663C12.7783 11.2625 15.6548 6.23641 16.9935 3.88636C17.2132 3.40088 17.3528 2.2568 16.1535 1.56439C14.6544 0.698863 13.8817 1.72239 13.7226 1.99795C13.5954 2.21839 8.52566 10.9994 6.00672 15.3623L5.00823 11.1118C4.75476 10.2918 3.9184 8.71901 2.60072 8.98698C0.953627 9.32195 0.351196 10.9949 0.952518 13.7302C1.43358 15.9184 2.30221 21.6738 2.67639 24.278C2.82009 24.9733 3.46183 26.5685 4.87919 27.3868C6.29655 28.2051 8.64973 29.5637 9.64914 30.1407C10.8833 30.7308 13.9266 31.1039 16.2264 27.8759Z" stroke="white" stroke-linecap="round" stroke-linejoin="round"/>
</svg>
