<svg width="25" height="28" viewBox="0 0 25 28" fill="none" xmlns="http://www.w3.org/2000/svg">
<path d="M24.1581 18.5358L20.569 7.99359C20.1792 7.17399 19.6974 5.43335 17.9097 6.04195C16.42 6.54912 16.5323 7.85537 16.9937 9.21079C16.6658 7.92196 15.6421 5.4359 14.1709 5.8023C12.332 6.2603 12.4491 8.06907 13.2133 9.82558C12.5468 7.86775 11.8802 5.90995 10.2416 6.46783C8.60288 7.02572 8.66383 8.18132 9.8431 11.6452C9.38653 10.1873 7.49944 4.71245 6.61296 2.15727C6.3924 1.67217 5.62353 0.81354 4.31259 1.25985C2.6739 1.81773 2.93511 3.07327 3.03765 3.37447C3.11969 3.61544 6.38744 13.2138 8.01105 17.9829L4.15516 15.9345C3.37128 15.5851 1.63694 15.1784 0.97065 16.3464C0.137787 17.8064 0.999723 19.3615 3.45391 20.7108C5.41727 21.7902 10.3199 24.9275 12.5258 26.3613C13.1437 26.7111 14.7666 27.279 16.3159 26.7515C17.8652 26.2241 20.4374 25.3484 21.5299 24.9764C22.7868 24.4365 25.0721 22.3924 24.1581 18.5358Z" stroke="white" stroke-linecap="round" stroke-linejoin="round"/>
</svg>
