<svg width="40" height="20" viewBox="0 0 40 20" fill="none" xmlns="http://www.w3.org/2000/svg">
<path d="M2.5 18.3414L3.15833 15.9414C5.33333 8.02474 14.6667 8.02474 16.8417 15.9414L17.5 18.3414" stroke="white" stroke-width="1.5" stroke-linecap="round" stroke-linejoin="round"/>
<path d="M9.9987 9.99154C12.2999 9.99154 14.1654 8.12606 14.1654 5.82487C14.1654 3.52368 12.2999 1.6582 9.9987 1.6582C7.69751 1.6582 5.83203 3.52368 5.83203 5.82487C5.83203 8.12606 7.69751 9.99154 9.9987 9.99154Z" stroke="white" stroke-width="1.5" stroke-linecap="round" stroke-linejoin="bevel"/>
<path d="M22.5 18.3414L23.1583 15.9414C25.3333 8.02474 34.6667 8.02474 36.8417 15.9414L37.5 18.3414" stroke="white" stroke-width="1.5" stroke-linecap="round" stroke-linejoin="round"/>
<path d="M29.9987 9.99154C32.2999 9.99154 34.1654 8.12606 34.1654 5.82487C34.1654 3.52368 32.2999 1.6582 29.9987 1.6582C27.6975 1.6582 25.832 3.52368 25.832 5.82487C25.832 8.12606 27.6975 9.99154 29.9987 9.99154Z" stroke="white" stroke-width="1.5" stroke-linecap="round" stroke-linejoin="bevel"/>
<path d="M16.7305 9.99023H23.2721" stroke="white" stroke-width="1.5" stroke-linecap="round" stroke-linejoin="bevel"/>
<path d="M21.4375 12.3801L23.15 10.3251C23.2276 10.2314 23.2712 10.1047 23.2712 9.97262C23.2712 9.84052 23.2276 9.7138 23.15 9.62012L21.4833 7.62012" stroke="white" stroke-width="1.5" stroke-linecap="round" stroke-linejoin="bevel"/>
</svg>
