<svg width="18" height="18" viewBox="0 0 18 18" fill="none" xmlns="http://www.w3.org/2000/svg">
<path d="M9 18C13.9706 18 18 13.9706 18 9C18 4.02944 13.9706 0 9 0C4.02944 0 0 4.02944 0 9C0 13.9706 4.02944 18 9 18Z" fill="#327CF5"/>
<path d="M5.39453 13.0144L5.71103 11.8631C6.75578 8.06061 11.2393 8.06061 12.284 11.8631L12.6005 13.0159" stroke="white" stroke-width="0.8" stroke-linecap="round" stroke-linejoin="round"/>
<path d="M8.99784 9.00399C10.1034 9.00399 10.9996 8.10777 10.9996 7.00224C10.9996 5.8967 10.1034 5.00049 8.99784 5.00049C7.89231 5.00049 6.99609 5.8967 6.99609 7.00224C6.99609 8.10777 7.89231 9.00399 8.99784 9.00399Z" stroke="white" stroke-width="0.8" stroke-linecap="round" stroke-linejoin="round"/>
</svg>
