<svg width="138" height="136" viewBox="0 0 138 136" fill="none" xmlns="http://www.w3.org/2000/svg">
<defs>
<linearGradient id="paint0_linear" x1="12.5306" y1="89.6202" x2="75.8416" y2="89.6202" gradientUnits="userSpaceOnUse">
<stop stop-color="#307CFE"/>
<stop offset="1" stop-color="#245DBF"/>
</linearGradient>
<linearGradient id="paint1_linear" x1="53.1571" y1="122.157" x2="96.3646" y2="122.157" gradientUnits="userSpaceOnUse">
<stop stop-color="#307CFE"/>
<stop offset="1" stop-color="#245DBF"/>
</linearGradient>
</defs>
<path d="M11.4509 9.66636C11.9256 6.74162 9.9394 3.98585 7.01465 3.51118C4.0899 3.03651 1.33413 5.02269 0.859462 7.94744C0.384794 10.8722 2.37098 13.628 5.29572 14.1026C8.22047 14.5773 10.9762 12.5911 11.4509 9.66636Z" fill="#FFC217"/>
<path d="M21.3893 5.50629C21.5849 4.30125 20.7666 3.16583 19.5615 2.97026C18.3565 2.77469 17.2211 3.59303 17.0255 4.79806C16.8299 6.0031 17.6483 7.13852 18.8533 7.33409C20.0583 7.52966 21.1938 6.71133 21.3893 5.50629Z" fill="#FFC217"/>
<path d="M113.744 91.8539C126.918 78.6795 126.918 57.3196 113.744 44.1452C100.569 30.9708 79.2094 30.9708 66.035 44.1452C52.8606 57.3196 52.8606 78.6795 66.035 91.8539C79.2094 105.028 100.569 105.028 113.744 91.8539Z" fill="#FFC217"/>
<path opacity="0.1" d="M105.127 87.9268H75.8413V38.6442C82.1845 36.7532 86.8079 30.8777 86.8079 23.9213C86.8079 15.4361 79.9284 8.55664 71.4432 8.55664C64.0504 8.55664 57.8812 13.779 56.4123 20.7326H18.2331C15.0844 20.7326 12.5288 23.2881 12.5288 26.4369V126.953C12.5288 130.102 15.0844 132.657 18.2331 132.657H53.158V133.148C53.158 134.722 54.4357 136 56.0101 136H93.5133C95.0877 136 96.3655 134.722 96.3655 133.148V132.657H105.127C106.702 132.657 107.98 131.38 107.98 129.805V90.779C107.98 89.2046 106.702 87.9268 105.127 87.9268Z" fill="#2626BC"/>
<path d="M105.127 125.527H66.1009C64.5266 125.527 63.2488 124.249 63.2488 122.675V83.6486C63.2488 82.0742 64.5266 80.7964 66.1009 80.7964H105.127C106.702 80.7964 107.979 82.0742 107.979 83.6486V122.675C107.979 124.249 106.702 125.527 105.127 125.527Z" fill="#FFC217"/>
<path d="M89.8167 90.596H81.4085C80.6213 90.596 79.9824 89.9571 79.9824 89.1699V80.7959H91.2428V89.1699C91.2428 89.9571 90.6039 90.596 89.8167 90.596Z" fill="#FFC217"/>
<path d="M81.5367 97.0734H98.2447C99.0319 97.0734 99.6708 96.4345 99.6708 95.6473C99.6708 94.8601 99.0319 94.2212 98.2447 94.2212H81.5367C80.7495 94.2212 80.1106 94.8601 80.1106 95.6473C80.1106 96.4345 80.7495 97.0734 81.5367 97.0734Z" fill="#307CFE"/>
<path d="M90.0933 102.869H98.2448C99.032 102.869 99.6709 102.23 99.6709 101.443C99.6709 100.656 99.032 100.017 98.2448 100.017H90.0933C89.3061 100.017 88.6672 100.656 88.6672 101.443C88.6672 102.23 89.3061 102.869 90.0933 102.869Z" fill="#307CFE"/>
<path d="M90.0933 107.809H98.2448C99.032 107.809 99.6709 107.17 99.6709 106.383C99.6709 105.596 99.032 104.957 98.2448 104.957H90.0933C89.3061 104.957 88.6672 105.596 88.6672 106.383C88.6672 107.17 89.3061 107.809 90.0933 107.809Z" fill="#307CFE"/>
<path d="M75.8413 19.3064V119.823C75.8413 122.971 73.2857 125.527 70.1369 125.527H18.2331C15.0844 125.527 12.5288 122.971 12.5288 119.823V19.3064C12.5288 16.1576 15.0844 13.6021 18.2331 13.6021H70.1369C73.2857 13.6021 75.8413 16.1576 75.8413 19.3064Z" fill="#5996FE"/>
<path d="M75.8413 19.3064V80.5853H12.5288V19.3064C12.5288 16.1576 15.0844 13.6021 18.2331 13.6021H70.1369C73.2857 13.6021 75.8413 16.1576 75.8413 19.3064Z" fill="#5996FE"/>
<path opacity="0.1" d="M75.8411 19.3064V38.2077C74.4492 38.6241 72.9718 38.8466 71.443 38.8466C62.9578 38.8466 56.0784 31.9672 56.0784 23.482C56.0784 19.72 57.4303 16.2745 59.675 13.6021H70.1367C73.2855 13.6021 75.8411 16.1576 75.8411 19.3064Z" fill="#2626BC"/>
<path d="M12.5315 69.5273H75.8411V109.714H12.5315V69.5273Z" fill="url(#paint0_linear)"/>
<path d="M12.5315 69.5273H75.8411V76.9943H12.5315V69.5273Z" fill="#5996FE"/>
<path d="M57.1595 21.8848H31.2133C29.9955 21.8848 28.9116 21.1119 28.5152 19.9625L26.3247 13.605H62.0424L59.852 19.9625C59.4584 21.1119 58.3774 21.8848 57.1595 21.8848Z" fill="#5996FE"/>
<path d="M23.8577 82.0228L22.1607 82.6246C21.7044 82.7872 21.228 82.4392 21.2394 81.9543L21.2879 80.1546L20.1898 78.7285C19.8932 78.3435 20.0758 77.7845 20.5407 77.6476L22.2662 77.137L23.2845 75.651C23.5583 75.2517 24.1487 75.2517 24.4225 75.651L25.4407 77.137L27.1663 77.6476C27.6312 77.7845 27.8137 78.3463 27.5171 78.7285L26.419 80.1546L26.4675 81.9543C26.4817 82.4392 26.0026 82.7843 25.5462 82.6246L23.8577 82.0228Z" fill="#FFC217"/>
<path d="M34.0225 82.0228L32.3255 82.6246C31.8691 82.7872 31.3928 82.4392 31.4042 81.9543L31.4527 80.1546L30.3546 78.7285C30.058 78.3435 30.2406 77.7845 30.7055 77.6476L32.431 77.137L33.4492 75.651C33.7231 75.2517 34.3135 75.2517 34.5873 75.651L35.6055 77.137L37.3311 77.6476C37.796 77.7845 37.9785 78.3463 37.6819 78.7285L36.5838 80.1546L36.6323 81.9543C36.6465 82.4392 36.1674 82.7843 35.711 82.6246L34.0225 82.0228Z" fill="#FFC217"/>
<path d="M44.1846 82.0228L42.4876 82.6246C42.0313 82.7872 41.5549 82.4392 41.5664 81.9543L41.6148 80.1546L40.5168 78.7285C40.2201 78.3435 40.4027 77.7845 40.8676 77.6476L42.5931 77.137L43.6114 75.651C43.8852 75.2517 44.4756 75.2517 44.7494 75.651L45.7676 77.137L47.4932 77.6476C47.9581 77.7845 48.1406 78.3463 47.844 78.7285L46.7459 80.1546L46.7944 81.9543C46.8086 82.4392 46.3295 82.7843 45.8731 82.6246L44.1846 82.0228Z" fill="#FFC217"/>
<path d="M54.3499 82.0228L52.6529 82.6246C52.1965 82.7872 51.7202 82.4392 51.7316 81.9543L51.7801 80.1546L50.682 78.7285C50.3854 78.3435 50.5679 77.7845 51.0329 77.6476L52.7584 77.137L53.7766 75.651C54.0505 75.2517 54.6408 75.2517 54.9147 75.651L55.9329 77.137L57.6584 77.6476C58.1233 77.7845 58.3059 78.3463 58.0093 78.7285L56.9112 80.1546L56.9597 81.9543C56.9739 82.4392 56.4948 82.7843 56.0384 82.6246L54.3499 82.0228Z" fill="#FFC217"/>
<path d="M64.5152 82.0228L62.8182 82.6246C62.3618 82.7872 61.8855 82.4392 61.8969 81.9543L61.9454 80.1546L60.8473 78.7285C60.5507 78.3435 60.7332 77.7845 61.1981 77.6476L62.9237 77.137L63.9419 75.651C64.2157 75.2517 64.8061 75.2517 65.0799 75.651L66.0982 77.137L67.8237 77.6476C68.2886 77.7845 68.4712 78.3463 68.1745 78.7285L67.0765 80.1546L67.1249 81.9543C67.1392 82.4392 66.66 82.7843 66.2037 82.6246L64.5152 82.0228Z" fill="white"/>
<path d="M93.5131 128.869H56.0099C54.4355 128.869 53.1577 127.592 53.1577 126.017V118.297C53.1577 116.722 54.4355 115.444 56.0099 115.444H93.5131C95.0875 115.444 96.3652 116.722 96.3652 118.297V126.017C96.3652 127.592 95.0875 128.869 93.5131 128.869Z" fill="url(#paint1_linear)"/>
<path d="M78.1914 115.444H87.4838V128.869H78.1914V115.444Z" fill="#5996FE"/>
<path d="M67.1222 91.4005H55.3143C54.5271 91.4005 53.8882 90.7616 53.8882 89.9744C53.8882 89.1872 54.5271 88.5483 55.3143 88.5483H67.1222C67.9094 88.5483 68.5483 89.1872 68.5483 89.9744C68.5483 90.7616 67.9123 91.4005 67.1222 91.4005Z" fill="#307CFE"/>
<path d="M67.0877 99.4635H24.1683C23.3811 99.4635 22.7422 98.8246 22.7422 98.0374C22.7422 97.2502 23.3811 96.6113 24.1683 96.6113H67.0877C67.8749 96.6113 68.5138 97.2502 68.5138 98.0374C68.5138 98.8246 67.8749 99.4635 67.0877 99.4635Z" fill="white"/>
<path d="M67.1219 104.74H24.2025C23.4153 104.74 22.7764 104.101 22.7764 103.314C22.7764 102.527 23.4153 101.888 24.2025 101.888H67.1219C67.9091 101.888 68.548 102.527 68.548 103.314C68.548 104.101 67.9119 104.74 67.1219 104.74Z" fill="white"/>
<path d="M67.182 65.4548C67.9192 65.4548 68.5168 64.8572 68.5168 64.12C68.5168 63.3828 67.9192 62.7852 67.182 62.7852C66.4448 62.7852 65.8472 63.3828 65.8472 64.12C65.8472 64.8572 66.4448 65.4548 67.182 65.4548Z" fill="#FFC217"/>
<path d="M62.9608 65.4548C63.698 65.4548 64.2956 64.8572 64.2956 64.12C64.2956 63.3828 63.698 62.7852 62.9608 62.7852C62.2236 62.7852 61.626 63.3828 61.626 64.12C61.626 64.8572 62.2236 65.4548 62.9608 65.4548Z" fill="#FFC217"/>
<path d="M71.443 32.1551C79.9287 32.1551 86.8076 25.2761 86.8076 16.7904C86.8076 8.30476 79.9287 1.42578 71.443 1.42578C62.9574 1.42578 56.0784 8.30476 56.0784 16.7904C56.0784 25.2761 62.9574 32.1551 71.443 32.1551Z" fill="#307CFE"/>
<path d="M105.127 79.3702H77.2673C76.48 79.3702 75.8412 80.0091 75.8412 80.7963C75.8412 81.5835 76.48 82.2223 77.2673 82.2223H105.127C105.914 82.2223 106.553 82.8612 106.553 83.6484V122.675C106.553 123.462 105.914 124.101 105.127 124.101H97.7915V118.297C97.7915 115.938 95.8719 114.018 93.5132 114.018H77.2673V32.5404C83.6647 30.1674 88.2338 24.0039 88.2338 16.7907C88.2338 7.53258 80.7013 0 71.4431 0C62.185 0 54.6524 7.53258 54.6524 16.7907C54.6524 26.0489 62.185 33.5814 71.4431 33.5814C72.4585 33.5814 73.4482 33.4845 74.4151 33.3133V114.018H56.01C53.6513 114.018 51.7318 115.938 51.7318 118.297V124.101H18.2359C15.8771 124.101 13.9576 122.181 13.9576 119.822V19.3063C13.9576 16.9476 15.8771 15.0281 18.2359 15.0281H54.7442C55.5314 15.0281 56.1703 14.3892 56.1703 13.602C56.1703 12.8148 55.5314 12.1759 54.7442 12.1759H18.2359C14.3028 12.1759 11.1055 15.3732 11.1055 19.3063V119.822C11.1055 123.756 14.3028 126.953 18.2359 126.953H51.8373C52.2651 128.864 53.9707 130.296 56.01 130.296H93.5132C95.5496 130.296 97.2552 128.864 97.6859 126.953H105.127C107.486 126.953 109.405 125.033 109.405 122.675V83.6484C109.405 81.2897 107.486 79.3702 105.127 79.3702ZM57.5046 16.7907C57.5046 9.10412 63.7594 2.85217 71.4431 2.85217C79.1269 2.85217 85.3817 9.10412 85.3817 16.7907C85.3817 24.4773 79.1297 30.7293 71.4431 30.7293C63.7565 30.7293 57.5046 24.4773 57.5046 16.7907ZM94.9393 126.017C94.9393 126.805 94.3004 127.443 93.5132 127.443H56.01C55.2228 127.443 54.5839 126.805 54.5839 126.017V118.297C54.5839 117.509 55.2228 116.871 56.01 116.871H93.5132C94.3004 116.871 94.9393 117.509 94.9393 118.297V126.017Z" fill="#003183"/>
<path d="M69.1755 25.467C69.1213 25.467 69.0671 25.4642 69.0129 25.4585C68.3227 25.3986 67.7237 24.9536 67.4642 24.309L65.4734 19.3292C65.4334 19.2293 65.3365 19.1637 65.2281 19.1637C64.2127 19.1637 63.3884 18.3395 63.3884 17.3241C63.3884 16.3087 64.2127 15.4844 65.2281 15.4844C66.851 15.4844 68.2885 16.457 68.8903 17.9658L69.5291 19.5659L76.092 8.99004C76.6282 8.12584 77.7634 7.86059 78.6276 8.39679C79.4918 8.933 79.757 10.0682 79.2208 10.9324L70.7356 24.6028C70.4019 25.1419 69.8087 25.467 69.1755 25.467Z" fill="white"/>
<path d="M58.5748 47.7758C59.8643 39.8303 54.4686 32.3439 46.5231 31.0544C38.5776 29.7649 31.0911 35.1606 29.8016 43.1061C28.5121 51.0516 33.9079 58.538 41.8534 59.8275C49.7989 61.117 57.2853 55.7213 58.5748 47.7758Z" fill="#FFC217"/>
<path d="M36.8208 44.9642C36.8208 43.9716 37.6365 42.9819 38.8744 42.9819C40.1151 42.9819 40.8937 43.9745 40.8937 44.9642V46.9636C40.8937 48.6977 42.3112 50.2207 44.188 50.2207C46.0647 50.2207 47.4822 48.6977 47.4822 46.9636V44.9642C47.4822 43.9716 48.2979 42.9819 49.5358 42.9819C50.7736 42.9819 51.5551 43.9745 51.5551 44.9642V46.9636C51.5551 50.6457 48.5461 54.151 44.1908 54.151C39.8355 54.151 36.8265 50.6457 36.8265 46.9636V44.9642H36.8208Z" fill="#307CFE"/>
<path d="M38.8715 42.0638C40.0041 42.0638 40.9222 41.1457 40.9222 40.0131C40.9222 38.8805 40.0041 37.9624 38.8715 37.9624C37.7389 37.9624 36.8208 38.8805 36.8208 40.0131C36.8208 41.1457 37.7389 42.0638 38.8715 42.0638Z" fill="#307CFE"/>
<path d="M49.5019 42.0638C50.6345 42.0638 51.5526 41.1457 51.5526 40.0131C51.5526 38.8805 50.6345 37.9624 49.5019 37.9624C48.3693 37.9624 47.4512 38.8805 47.4512 40.0131C47.4512 41.1457 48.3693 42.0638 49.5019 42.0638Z" fill="#307CFE"/>
</svg>
