<svg width="18" height="18" viewBox="0 0 18 18" fill="none" xmlns="http://www.w3.org/2000/svg">
<path d="M14.3475 16.2578L11.805 14.3078C11.7743 14.2828 11.7359 14.2692 11.6963 14.2692C11.6566 14.2692 11.6182 14.2828 11.5875 14.3078L9.18 16.3703C9.1487 16.3972 9.10879 16.412 9.0675 16.412C9.02621 16.412 8.9863 16.3972 8.955 16.3703L6.225 14.3078C6.19612 14.2819 6.15874 14.2677 6.12 14.2677C6.08126 14.2677 6.04388 14.2819 6.015 14.3078L3.66 16.2428C3.63388 16.2616 3.60317 16.2731 3.57109 16.2761C3.53901 16.279 3.50673 16.2733 3.47761 16.2595C3.4485 16.2457 3.42362 16.2243 3.40557 16.1977C3.38752 16.171 3.37696 16.1399 3.375 16.1078V3.08777C3.375 2.68994 3.53304 2.30841 3.81434 2.02711C4.09564 1.7458 4.47718 1.58777 4.875 1.58777H13.125C13.5228 1.58777 13.9044 1.7458 14.1857 2.02711C14.467 2.30841 14.625 2.68994 14.625 3.08777V16.1228C14.6247 16.1548 14.6154 16.1861 14.5983 16.2132C14.5811 16.2403 14.5568 16.262 14.528 16.276C14.4992 16.29 14.467 16.2958 14.4351 16.2925C14.4033 16.2893 14.3729 16.2773 14.3475 16.2578V16.2578Z" stroke="#176CF7" stroke-width="1.5" stroke-linecap="round" stroke-linejoin="round"/>
<path d="M5.31738 4.67023H11.3174" stroke="#176CF7" stroke-width="1.5" stroke-linecap="round" stroke-linejoin="round"/>
<path d="M5.31738 7.67023H9.06738" stroke="#176CF7" stroke-width="1.5" stroke-linecap="round" stroke-linejoin="round"/>
<path d="M5.31738 10.6702H12.0674" stroke="#176CF7" stroke-width="1.5" stroke-linecap="round" stroke-linejoin="round"/>
</svg>
