<svg width="36" height="13" viewBox="0 0 36 13" fill="none" xmlns="http://www.w3.org/2000/svg">
<path d="M10.6125 0.890747L7.58905 8.5482L6.36362 2.03735C6.31424 1.71787 6.15213 1.42663 5.90662 1.21631C5.66112 1.006 5.34843 0.890506 5.02516 0.890747H0.0669246L0 1.21644C1.01574 1.43951 2.16978 1.79495 2.87024 2.17269C3.29855 2.40766 3.4205 2.6114 3.5588 3.16463L5.88177 12.1412H8.95873L13.6731 0.890747H10.6125Z" fill="#10357F"/>
<path d="M14.9194 0.888916L12.5132 12.1394H15.4251L17.8254 0.888916H14.9194Z" fill="#10357F"/>
<path d="M21.6457 4.00899C21.6546 3.60596 22.0398 3.17766 22.88 3.06315C23.8646 2.9721 24.8557 3.14617 25.7503 3.5673L26.2604 1.18782C25.3903 0.860078 24.4686 0.690355 23.5389 0.686646C20.6612 0.686646 18.6401 2.21843 18.6193 4.40458C18.6044 6.02114 20.0663 6.93277 21.1668 7.46518C22.3015 8.01543 22.6837 8.36789 22.6763 8.86461C22.6763 9.62009 21.7721 9.95025 20.9378 9.96215C19.4729 9.98594 18.6252 9.56804 17.9471 9.25425L17.4221 11.7185C18.0988 12.0293 19.3554 12.3015 20.6597 12.3134C23.7114 12.3134 25.7161 10.8009 25.7161 8.46456C25.728 5.49021 21.6115 5.33109 21.6397 4.00304" fill="#10357F"/>
<path d="M30.0705 8.15616L31.6172 3.93111L32.4872 8.15616H30.0705ZM31.1755 0.889835C30.9098 0.887221 30.6495 0.964521 30.4283 1.1117C30.2072 1.25889 30.0353 1.46915 29.9352 1.71521L25.5703 12.1388H28.6279L29.2347 10.4583H32.9526L33.3021 12.1388H35.9999L33.6605 0.889835H31.1755Z" fill="#10357F"/>
</svg>
