<svg width="24" height="24" viewBox="0 0 24 24" fill="none" xmlns="http://www.w3.org/2000/svg">
<path fill-rule="evenodd" clip-rule="evenodd" d="M1.2304 1.23103L0 2.4621L0.492318 2.95274L0.984588 3.44338L1.34903 3.08104C1.54951 2.88178 1.72885 2.71874 1.7476 2.71874C1.76635 2.71874 1.78173 7.10624 1.78173 12.4687V22.2187H11.5315C16.8939 22.2187 21.2813 22.2341 21.2813 22.2528C21.2813 22.2716 21.1181 22.4511 20.9187 22.6517L20.5561 23.0164L21.0479 23.5082L21.5397 24L22.7699 22.7692L24 21.5384L22.769 20.308L21.5379 19.0776L21.0473 19.5699L20.5567 20.0622L20.9296 20.4373L21.3025 20.8125H12.2453H3.18795V11.755V2.69751L3.56336 3.07073L3.93877 3.44395L4.43053 2.95213L4.92233 2.46032L3.69156 1.23014L2.46074 0L1.2304 1.23103ZM9.45205 3.53746C7.5994 4.60377 6.06512 5.49463 6.04253 5.51722C5.99706 5.56269 12.7201 9.44529 12.8444 9.44529C12.8865 9.44529 14.4438 8.57089 16.3048 7.50219C18.9416 5.98808 19.6756 5.54704 19.6296 5.50438C19.5713 5.45047 12.8616 1.5914 12.8345 1.59623C12.8268 1.59759 11.3047 2.4711 9.45205 3.53746ZM5.26184 10.8303L5.27384 14.8706L8.68983 16.8337C10.5686 17.9134 12.1137 18.7968 12.1233 18.7968C12.133 18.7968 12.1409 16.9755 12.1409 14.7494V10.702L8.76023 8.76116C6.90088 7.69367 5.35043 6.81346 5.31476 6.80511C5.25982 6.79222 5.25172 7.40933 5.26184 10.8303ZM16.9337 8.75525L13.5471 10.7059V14.7513C13.5471 16.9764 13.5553 18.7968 13.5653 18.7968C13.5754 18.7968 15.1205 17.9139 16.9989 16.8346L20.4141 14.8724L20.4261 10.8346C20.4357 7.61816 20.4261 6.79766 20.3793 6.80071C20.3469 6.80286 18.7964 7.68238 16.9337 8.75525Z" fill="#176CF7"/>
</svg>
