<svg width="320" height="207" viewBox="0 0 320 207" fill="none" xmlns="http://www.w3.org/2000/svg">
<rect x="-3" width="323" height="207" rx="10" fill="#FFF9F9"/>
<g clip-path="url(#clip0_7226_97451)">
<path d="M314.273 51.4913L323.843 54.0635C329.883 55.6837 338.606 63.8725 336.984 69.9256L304.358 170.732C303.975 172.171 303.312 173.52 302.408 174.702C301.504 175.884 300.375 176.876 299.087 177.621C297.799 178.366 296.377 178.85 294.902 179.045C293.427 179.239 291.927 179.141 290.49 178.756L280.922 176.184C278.018 175.401 275.544 173.497 274.043 170.89C272.542 168.283 272.137 165.187 272.917 162.282L294.929 56.7012C296.551 50.6472 308.234 49.866 314.273 51.4913Z" fill="#FFE1E1"/>
<path d="M278.38 185.764L287.949 188.337C290.852 189.12 293.325 191.024 294.826 193.63C296.326 196.237 296.732 199.332 295.953 202.237L293.387 211.828C293.004 213.267 292.342 214.617 291.438 215.799C290.534 216.982 289.405 217.974 288.117 218.72C286.829 219.466 285.406 219.95 283.931 220.145C282.455 220.34 280.956 220.242 279.518 219.856L269.95 217.28C267.047 216.497 264.574 214.593 263.073 211.986C261.572 209.38 261.167 206.284 261.947 203.379L264.512 193.787C264.894 192.349 265.557 191 266.461 189.818C267.366 188.636 268.494 187.644 269.783 186.899C271.071 186.153 272.493 185.67 273.968 185.475C275.444 185.28 276.943 185.379 278.38 185.764Z" fill="#FFE1E1"/>
</g>
<defs>
<clipPath id="clip0_7226_97451">
<rect width="61" height="160" fill="white" transform="translate(259 47)"/>
</clipPath>
</defs>
</svg>
