<svg width="24" height="24" viewBox="0 0 24 24" fill="none" xmlns="http://www.w3.org/2000/svg">
<path fill-rule="evenodd" clip-rule="evenodd" d="M19.9579 4.00809C17.853 1.90063 15.0535 0.739517 12.0711 0.738281C5.92564 0.738281 0.924118 5.73967 0.921646 11.8868C0.920822 13.8518 1.43416 15.77 2.40988 17.4608L0.828125 23.2383L6.73863 21.6878C8.36722 22.5762 10.2007 23.0444 12.0666 23.0449H12.0713C18.216 23.0449 23.2181 18.0431 23.2205 11.8957C23.2217 8.9165 22.063 6.1154 19.9579 4.00809ZM12.0711 21.162H12.0673C10.4045 21.1613 8.77371 20.7144 7.35071 19.8703L7.01247 19.6694L3.50508 20.5895L4.44125 17.1698L4.22084 16.8192C3.29318 15.3438 2.80333 13.6384 2.80415 11.8875C2.80608 6.77815 6.9633 2.62134 12.0748 2.62134C14.55 2.62216 16.8768 3.58731 18.6264 5.33894C20.376 7.09057 21.3389 9.41885 21.3381 11.895C21.3359 17.0048 17.1789 21.162 12.0711 21.162Z" fill="black"/>
<path d="M7 13.8H5.66669C5.29819 13.8 5 14.0683 5 14.4C5 14.7316 5.29819 15 5.66669 15H7C8.10287 15 9 14.1926 9 13.2C9 12.2074 8.10287 11.4 7 11.4C6.63213 11.4 6.33331 11.131 6.33331 10.8C6.33331 10.469 6.63213 10.2 7 10.2H8.33331C8.70181 10.2 9 9.93161 9 9.59996C9 9.26837 8.70181 9 8.33331 9H7C5.89713 9 5 9.80741 5 10.8C5 11.7926 5.89713 12.6 7 12.6C7.36781 12.6 7.66669 12.8689 7.66669 13.2C7.66662 13.531 7.36781 13.8 7 13.8Z" fill="black"/>
<path d="M17 11.4C16.6322 11.4 16.3333 11.1311 16.3333 10.8C16.3333 10.4689 16.6322 10.2 17 10.2H18.3333C18.7018 10.2 19 9.93161 19 9.59996C19 9.26837 18.7018 9 18.3333 9H17C15.8971 9 15 9.80741 15 10.8C15 11.7926 15.8971 12.6 17 12.6C17.3678 12.6 17.6667 12.8689 17.6667 13.2C17.6667 13.531 17.3679 13.8 17 13.8H15.6667C15.2982 13.8 15 14.0683 15 14.4C15 14.7316 15.2982 15 15.6667 15H17C18.1029 15 19 14.1926 19 13.2C19 12.2074 18.1029 11.4 17 11.4Z" fill="black"/>
<path d="M12 15C13.1029 15 14 14.1926 14 13.2V10.8C14 9.80741 13.1029 9 12 9C10.8971 9 10 9.80741 10 10.8V13.2C10 14.1926 10.8972 15 12 15ZM11.3334 10.8C11.3334 10.469 11.6322 10.2 12.0001 10.2C12.3679 10.2 12.6667 10.469 12.6667 10.8V13.2C12.6667 13.531 12.3679 13.8 12 13.8C11.6322 13.8 11.3333 13.5311 11.3333 13.2L11.3334 10.8Z" fill="black"/>
</svg>
