<svg width="14" height="14" viewBox="0 0 14 14" fill="none" xmlns="http://www.w3.org/2000/svg">
<path d="M11.9031 2.03471C10.5931 0.723286 8.85132 0.000870798 6.99547 0C3.17197 0 0.0593884 3.11189 0.0581693 6.93695C0.0574726 8.1599 0.377056 9.35342 0.984002 10.405L0 14L3.67738 13.0355C4.69082 13.5878 5.83156 13.8791 6.99269 13.8797H6.99565C10.8192 13.8797 13.9312 10.7672 13.9328 6.94235C13.9337 5.08895 13.2125 3.34596 11.9031 2.03471ZM6.99565 12.7079H6.99338C5.95835 12.7076 4.9437 12.4296 4.05827 11.9043L3.84771 11.7793L1.66549 12.3518L2.24771 10.2242L2.11064 10.0055C1.5333 9.08765 1.22835 8.02685 1.22905 6.93695C1.23009 3.75802 3.81689 1.17157 6.99739 1.17157C8.53766 1.17192 9.9851 1.7726 11.0739 2.86266C12.1626 3.95255 12.7617 5.40104 12.7614 6.94183C12.7603 10.1213 10.1735 12.7079 6.99565 12.7079ZM10.1584 8.38962C9.98493 8.30271 9.13276 7.88386 8.97375 7.82552C8.81475 7.7677 8.69963 7.73896 8.58399 7.91242C8.46834 8.08589 8.13622 8.47653 8.03486 8.59217C7.93385 8.70781 7.83283 8.72244 7.65937 8.63553C7.48591 8.54863 6.92755 8.36576 6.26592 7.77501C5.75041 7.31575 5.40243 6.74764 5.30142 6.57418C5.20041 6.40072 5.29062 6.30719 5.37753 6.22064C5.45555 6.14296 5.55099 6.01826 5.63755 5.9169C5.72411 5.81554 5.75302 5.74326 5.81084 5.6278C5.86866 5.51215 5.83992 5.41097 5.79638 5.32424C5.75284 5.23733 5.40627 4.38412 5.26206 4.03702C5.12117 3.69898 4.97836 3.74478 4.87212 3.73956C4.77076 3.73468 4.65529 3.73329 4.53982 3.73329C4.42435 3.73329 4.23644 3.77665 4.0776 3.95029C3.91894 4.12375 3.471 4.54295 3.471 5.39651C3.471 6.24955 4.09206 7.07402 4.17879 7.18949C4.26552 7.30495 5.40104 9.05613 7.13985 9.80693C7.55331 9.98527 7.87637 10.092 8.12803 10.1721C8.54323 10.3043 8.92116 10.2853 9.22002 10.2408C9.55301 10.1911 10.2455 9.82156 10.3902 9.41664C10.5346 9.01189 10.5346 8.66497 10.4909 8.59252C10.4471 8.51989 10.3315 8.47653 10.1584 8.38962Z" fill="white"/>
</svg>
