<svg width="24" height="24" viewBox="0 0 24 24" fill="none" xmlns="http://www.w3.org/2000/svg">
<g clip-path="url(#clip0_658_28888)">
<g clip-path="url(#clip1_658_28888)">
<path d="M0.549316 23.3161L2.16708 17.4351C1.16902 15.714 0.644165 13.7613 0.644795 11.7614C0.647412 5.50387 5.76265 0.412964 12.0477 0.412964C15.0981 0.414335 17.9611 1.59626 20.1137 3.7414C22.2668 5.88652 23.4518 8.73786 23.4505 11.7703C23.4479 18.0279 18.3324 23.1193 12.0481 23.1193C12.0477 23.1193 12.0484 23.1193 12.0481 23.1193H12.0431C10.1347 23.1187 8.25961 22.6417 6.59421 21.7381L0.549316 23.3161V23.3161Z" fill="#4FCC5C"/>
<path fill-rule="evenodd" clip-rule="evenodd" d="M9.09912 6.84333C8.87805 6.35399 8.6453 6.3442 8.43498 6.33564C8.26295 6.32829 8.06601 6.32874 7.86939 6.32874C7.67261 6.32874 7.35284 6.40237 7.08242 6.6964C6.81185 6.99043 6.04932 7.70123 6.04932 9.14687C6.04932 10.5927 7.10702 11.9896 7.25445 12.1859C7.40203 12.3818 9.29621 15.4433 12.2961 16.6211C14.7892 17.5999 15.2965 17.4052 15.8377 17.3562C16.3788 17.3072 17.5838 16.6455 17.8298 15.9594C18.0757 15.2734 18.0757 14.6853 18.002 14.5624C17.9282 14.4399 17.7314 14.3665 17.4362 14.2195C17.141 14.0726 15.6901 13.3616 15.4195 13.2637C15.1489 13.1657 14.9522 13.1168 14.7554 13.4109C14.5586 13.7048 13.9933 14.3665 13.8211 14.5624C13.6489 14.7588 13.4767 14.7833 13.1816 14.6363C12.8864 14.4889 11.9358 14.179 10.8082 13.178C9.93083 12.3992 9.33848 11.4374 9.1663 11.1432C8.99411 10.8493 9.14784 10.6901 9.2959 10.5437C9.42841 10.412 9.59107 10.2006 9.73866 10.0291C9.88593 9.85748 9.93512 9.73503 10.0335 9.53911C10.1319 9.34289 10.0827 9.17132 10.0089 9.02438C9.93512 8.87745 9.36155 7.42434 9.09912 6.84333V6.84333Z" fill="white"/>
<path d="M20.4052 3.44987C18.1749 1.22791 15.2094 0.00358827 12.0498 0.00219727C5.53895 0.00219727 0.240447 5.2757 0.23783 11.7576C0.237063 13.8296 0.780829 15.8521 1.81439 17.6349L0.138672 23.7267L6.40032 22.092C8.12555 23.0287 10.068 23.5223 12.0447 23.5231H12.0497H12.0498C18.5596 23.5231 23.8588 18.2487 23.8616 11.7671C23.8627 8.62571 22.6351 5.67198 20.4052 3.44987V3.44987ZM12.0498 21.5376H12.046C10.284 21.5367 8.55616 21.0658 7.04909 20.1754L6.69042 19.9637L2.97463 20.9337L3.96668 17.3281L3.73301 16.9584C2.75018 15.4026 2.23133 13.6046 2.23209 11.7584C2.23424 6.37085 6.63815 1.98784 12.0535 1.98784C14.6759 1.98892 17.1406 3.00661 18.9944 4.85343C20.8479 6.70025 21.868 9.15531 21.8672 11.7664C21.8649 17.154 17.4608 21.5376 12.0498 21.5376Z" fill="white"/>
</g>
</g>
<defs>
<clipPath id="clip0_658_28888">
<rect width="24" height="24" fill="white"/>
</clipPath>
<clipPath id="clip1_658_28888">
<rect width="24" height="24" fill="white"/>
</clipPath>
</defs>
</svg>
