<svg width="16" height="16" viewBox="0 0 16 16" fill="none" xmlns="http://www.w3.org/2000/svg">
<path fill-rule="evenodd" clip-rule="evenodd" d="M12.2542 3.74157C11.229 2.7217 9.86634 2.10733 8.41991 2.01279C6.97349 1.91826 5.54182 2.35001 4.3914 3.22768C3.24099 4.10535 2.4502 5.36914 2.16623 6.78381C1.88226 8.19849 2.12447 9.66766 2.84776 10.9179L2 14L5.17031 13.1726C6.04613 13.6466 7.02726 13.8946 8.02417 13.8942V13.8942C9.20614 13.8936 10.3614 13.5444 11.344 12.8906C12.3266 12.2368 13.0925 11.3079 13.5448 10.2211C13.9972 9.13432 14.1157 7.93849 13.8855 6.7847C13.6552 5.63091 13.0865 4.57092 12.2512 3.73865L12.2542 3.74157ZM8.02711 12.8928C7.13762 12.8928 6.26448 12.6549 5.49908 12.2039L5.31767 12.097L3.43897 12.5878L3.94093 10.7636L3.82351 10.5766C3.23831 9.64813 2.97973 8.55241 3.08842 7.46172C3.19712 6.37102 3.66692 5.3472 4.42399 4.5512C5.18106 3.75519 6.18245 3.23214 7.27076 3.06427C8.35906 2.8964 9.47257 3.09323 10.4362 3.62381C11.3999 4.15439 12.1591 4.98864 12.5944 5.99542C13.0297 7.00219 13.1166 8.12441 12.8412 9.18564C12.5659 10.2469 11.944 11.187 11.0733 11.8581C10.2026 12.5293 9.13252 12.8934 8.03122 12.8933L8.02711 12.8928ZM10.7518 9.1901C10.6027 9.11589 9.87117 8.75655 9.73144 8.70689C9.59171 8.65722 9.4966 8.63268 9.39562 8.78109C9.29464 8.92951 9.0099 9.26489 8.92301 9.36539C8.83612 9.46589 8.74688 9.47699 8.59952 9.40278C8.15933 9.22826 7.75305 8.97873 7.39892 8.6654C7.07246 8.36492 6.79251 8.01798 6.56818 7.63588C6.48129 7.48689 6.56818 7.41443 6.63393 7.33263C6.77039 7.17266 6.89461 7.00274 7.00556 6.8243C7.02548 6.78328 7.03479 6.73795 7.03264 6.69244C7.03049 6.64693 7.01694 6.60268 6.99323 6.5637C6.95625 6.4895 6.65742 5.75796 6.53295 5.45997C6.40849 5.16198 6.28872 5.20931 6.19714 5.20464C6.10555 5.19996 6.01044 5.19938 5.91122 5.19938C5.83558 5.20134 5.76117 5.21886 5.69267 5.25084C5.62416 5.28282 5.56305 5.32856 5.51317 5.38518C5.34435 5.54442 5.2107 5.7369 5.12074 5.95037C5.03078 6.16383 4.98648 6.39361 4.99066 6.62505C5.03923 7.18511 5.2508 7.71892 5.59947 8.16116C6.23991 9.11669 7.11898 9.89008 8.1504 10.4054C8.42838 10.5248 8.71255 10.6293 9.00168 10.7186C9.30599 10.8104 9.62761 10.8305 9.94103 10.777C10.1489 10.7349 10.3458 10.6503 10.5193 10.5287C10.6928 10.4072 10.8391 10.2512 10.9491 10.0706C11.0468 9.84847 11.077 9.60269 11.036 9.36363C11.0002 9.3017 10.9003 9.26431 10.7512 9.1901H10.7518Z" fill="#176CF7"/>
</svg>
